<?xml version="1.0" encoding="UTF-8" standalone="no"?>
<!DOCTYPE svg PUBLIC "-//W3C//DTD SVG 1.1//EN"
 "http://www.w3.org/Graphics/SVG/1.1/DTD/svg11.dtd">
<!-- Generated by graphviz version 14.1.2 (0)
 -->
<!-- Title: G Pages: 1 -->
<svg width="2336pt" height="113pt"
 viewBox="0.00 0.00 2336.00 113.00" xmlns="http://www.w3.org/2000/svg" xmlns:xlink="http://www.w3.org/1999/xlink">
<g id="graph0" class="graph" transform="scale(1 1) rotate(0) translate(4 109.25)">
<title>G</title>
<polygon fill="white" stroke="none" points="-4,4 -4,-109.25 2332,-109.25 2332,4 -4,4"/>
<text xml:space="preserve" text-anchor="middle" x="1164" y="-82.25" font-family="Helvetica,sans-Serif" font-size="20.00">siso_maxlogmap &#45; Internal Functional Units (Updated)</text>
<!-- fetch -->
<g id="node1" class="node">
<title>fetch</title>
<path fill="#fff2cc" stroke="#555555" d="M12,-4.5C12,-4.5 185,-4.5 185,-4.5 191,-4.5 197,-10.5 197,-16.5 197,-16.5 197,-28.5 197,-28.5 197,-34.5 191,-40.5 185,-40.5 185,-40.5 12,-40.5 12,-40.5 6,-40.5 0,-34.5 0,-28.5 0,-28.5 0,-16.5 0,-16.5 0,-10.5 6,-4.5 12,-4.5"/>
<text xml:space="preserve" text-anchor="middle" x="36.12" y="-19.05" font-family="Helvetica,sans-Serif" font-size="11.00">Fetch Latch</text>
<polyline fill="none" stroke="#555555" points="72.25,-5 72.25,-40.5"/>
<text xml:space="preserve" text-anchor="middle" x="134.62" y="-19.05" font-family="Helvetica,sans-Serif" font-size="11.00">fetched_sys/par/apri_q</text>
</g>
<!-- bmu -->
<g id="node2" class="node">
<title>bmu</title>
<path fill="#d9ead3" stroke="#555555" d="M246,-4.5C246,-4.5 461.25,-4.5 461.25,-4.5 467.25,-4.5 473.25,-10.5 473.25,-16.5 473.25,-16.5 473.25,-28.5 473.25,-28.5 473.25,-34.5 467.25,-40.5 461.25,-40.5 461.25,-40.5 246,-40.5 246,-40.5 240,-40.5 234,-34.5 234,-28.5 234,-28.5 234,-16.5 234,-16.5 234,-10.5 240,-4.5 246,-4.5"/>
<text xml:space="preserve" text-anchor="middle" x="289.25" y="-19.05" font-family="Helvetica,sans-Serif" font-size="11.00">Branch Metric Units</text>
<polyline fill="none" stroke="#555555" points="344.5,-5 344.5,-40.5"/>
<text xml:space="preserve" text-anchor="middle" x="378" y="-19.05" font-family="Helvetica,sans-Serif" font-size="11.00">even BMU</text>
<polyline fill="none" stroke="#555555" points="411.5,-5 411.5,-40.5"/>
<text xml:space="preserve" text-anchor="middle" x="442.38" y="-19.05" font-family="Helvetica,sans-Serif" font-size="11.00">odd BMU</text>
</g>
<!-- fetch&#45;&gt;bmu -->
<g id="edge1" class="edge">
<title>fetch&#45;&gt;bmu</title>
<path fill="none" stroke="#444444" d="M197.36,-22.5C205.59,-22.5 213.99,-22.5 222.4,-22.5"/>
<polygon fill="#444444" stroke="#444444" points="222.37,-26 232.37,-22.5 222.37,-19 222.37,-26"/>
</g>
<!-- gamma -->
<g id="node3" class="node">
<title>gamma</title>
<path fill="#d9ead3" stroke="#555555" d="M522.25,-4.5C522.25,-4.5 769.5,-4.5 769.5,-4.5 775.5,-4.5 781.5,-10.5 781.5,-16.5 781.5,-16.5 781.5,-28.5 781.5,-28.5 781.5,-34.5 775.5,-40.5 769.5,-40.5 769.5,-40.5 522.25,-40.5 522.25,-40.5 516.25,-40.5 510.25,-34.5 510.25,-28.5 510.25,-28.5 510.25,-16.5 510.25,-16.5 510.25,-10.5 516.25,-4.5 522.25,-4.5"/>
<text xml:space="preserve" text-anchor="middle" x="568.88" y="-19.05" font-family="Helvetica,sans-Serif" font-size="11.00">Radix&#45;4 Gamma Unit</text>
<polyline fill="none" stroke="#555555" points="627.5,-5 627.5,-40.5"/>
<text xml:space="preserve" text-anchor="middle" x="704.5" y="-19.05" font-family="Helvetica,sans-Serif" font-size="11.00">pair_gamma_from_branches</text>
</g>
<!-- bmu&#45;&gt;gamma -->
<g id="edge2" class="edge">
<title>bmu&#45;&gt;gamma</title>
<path fill="none" stroke="#444444" d="M473.52,-22.5C481.81,-22.5 490.21,-22.5 498.62,-22.5"/>
<polygon fill="#444444" stroke="#444444" points="498.57,-26 508.57,-22.5 498.57,-19 498.57,-26"/>
</g>
<!-- acs -->
<g id="node4" class="node">
<title>acs</title>
<path fill="#cfe2f3" stroke="#555555" d="M830.5,-4.5C830.5,-4.5 1184.75,-4.5 1184.75,-4.5 1190.75,-4.5 1196.75,-10.5 1196.75,-16.5 1196.75,-16.5 1196.75,-28.5 1196.75,-28.5 1196.75,-34.5 1190.75,-40.5 1184.75,-40.5 1184.75,-40.5 830.5,-40.5 830.5,-40.5 824.5,-40.5 818.5,-34.5 818.5,-28.5 818.5,-28.5 818.5,-16.5 818.5,-16.5 818.5,-10.5 824.5,-4.5 830.5,-4.5"/>
<text xml:space="preserve" text-anchor="middle" x="856.88" y="-19.05" font-family="Helvetica,sans-Serif" font-size="11.00">Shared ACS</text>
<polyline fill="none" stroke="#555555" points="895.25,-5 895.25,-40.5"/>
<text xml:space="preserve" text-anchor="middle" x="931.75" y="-19.05" font-family="Helvetica,sans-Serif" font-size="11.00">forward use</text>
<polyline fill="none" stroke="#555555" points="968.25,-5 968.25,-40.5"/>
<text xml:space="preserve" text-anchor="middle" x="1028.75" y="-19.05" font-family="Helvetica,sans-Serif" font-size="11.00">dummy backward use</text>
<polyline fill="none" stroke="#555555" points="1089.25,-5 1089.25,-40.5"/>
<text xml:space="preserve" text-anchor="middle" x="1143" y="-19.05" font-family="Helvetica,sans-Serif" font-size="11.00">local backward use</text>
</g>
<!-- gamma&#45;&gt;acs -->
<g id="edge3" class="edge">
<title>gamma&#45;&gt;acs</title>
<path fill="none" stroke="#444444" d="M781.86,-22.5C790.01,-22.5 798.3,-22.5 806.64,-22.5"/>
<polygon fill="#444444" stroke="#444444" points="806.54,-26 816.54,-22.5 806.54,-19 806.54,-26"/>
</g>
<!-- cache -->
<g id="node5" class="node">
<title>cache</title>
<path fill="#cfe2f3" stroke="#555555" d="M1301.75,-37.5C1301.75,-37.5 1700.75,-37.5 1700.75,-37.5 1706.75,-37.5 1712.75,-43.5 1712.75,-49.5 1712.75,-49.5 1712.75,-61.5 1712.75,-61.5 1712.75,-67.5 1706.75,-73.5 1700.75,-73.5 1700.75,-73.5 1301.75,-73.5 1301.75,-73.5 1295.75,-73.5 1289.75,-67.5 1289.75,-61.5 1289.75,-61.5 1289.75,-49.5 1289.75,-49.5 1289.75,-43.5 1295.75,-37.5 1301.75,-37.5"/>
<text xml:space="preserve" text-anchor="middle" x="1330.38" y="-52.05" font-family="Helvetica,sans-Serif" font-size="11.00">Local Caches</text>
<polyline fill="none" stroke="#555555" points="1371,-38 1371,-73.5"/>
<text xml:space="preserve" text-anchor="middle" x="1406" y="-52.05" font-family="Helvetica,sans-Serif" font-size="11.00">alpha_local</text>
<polyline fill="none" stroke="#555555" points="1441,-38 1441,-73.5"/>
<text xml:space="preserve" text-anchor="middle" x="1468.88" y="-52.05" font-family="Helvetica,sans-Serif" font-size="11.00">g0_local</text>
<polyline fill="none" stroke="#555555" points="1496.75,-38 1496.75,-73.5"/>
<text xml:space="preserve" text-anchor="middle" x="1524.62" y="-52.05" font-family="Helvetica,sans-Serif" font-size="11.00">g1_local</text>
<polyline fill="none" stroke="#555555" points="1552.5,-38 1552.5,-73.5"/>
<text xml:space="preserve" text-anchor="middle" x="1592.38" y="-52.05" font-family="Helvetica,sans-Serif" font-size="11.00">gamma_local</text>
<polyline fill="none" stroke="#555555" points="1632.25,-38 1632.25,-73.5"/>
<text xml:space="preserve" text-anchor="middle" x="1672.5" y="-52.05" font-family="Helvetica,sans-Serif" font-size="11.00">sys/apri_local</text>
</g>
<!-- acs&#45;&gt;cache -->
<g id="edge4" class="edge">
<title>acs&#45;&gt;cache</title>
<path fill="none" stroke="#444444" d="M1196.94,-35.14C1223.49,-36.92 1250.99,-38.77 1278.1,-40.59"/>
<polygon fill="#444444" stroke="#444444" points="1277.56,-44.06 1287.77,-41.24 1278.03,-37.08 1277.56,-44.06"/>
<text xml:space="preserve" text-anchor="middle" x="1243.25" y="-42.49" font-family="Helvetica,sans-Serif" font-size="10.00">forward store</text>
</g>
<!-- extract -->
<g id="node6" class="node">
<title>extract</title>
<path fill="#fce5cd" stroke="#555555" d="M1761.75,-0.5C1761.75,-0.5 2008.25,-0.5 2008.25,-0.5 2014.25,-0.5 2020.25,-6.5 2020.25,-12.5 2020.25,-12.5 2020.25,-24.5 2020.25,-24.5 2020.25,-30.5 2014.25,-36.5 2008.25,-36.5 2008.25,-36.5 1761.75,-36.5 1761.75,-36.5 1755.75,-36.5 1749.75,-30.5 1749.75,-24.5 1749.75,-24.5 1749.75,-12.5 1749.75,-12.5 1749.75,-6.5 1755.75,-0.5 1761.75,-0.5"/>
<text xml:space="preserve" text-anchor="middle" x="1824.88" y="-15.05" font-family="Helvetica,sans-Serif" font-size="11.00">Precomputed LLR Extractor</text>
<polyline fill="none" stroke="#555555" points="1900,-1 1900,-36.5"/>
<text xml:space="preserve" text-anchor="middle" x="1960.12" y="-15.05" font-family="Helvetica,sans-Serif" font-size="11.00">extract_pair_precomp</text>
</g>
<!-- acs&#45;&gt;extract -->
<g id="edge6" class="edge">
<title>acs&#45;&gt;extract</title>
<path fill="none" stroke="#444444" d="M1196.88,-17.93C1227.91,-17.33 1259.73,-16.82 1289.75,-16.5 1477.74,-14.49 1524.75,-15.4 1712.75,-16.5 1721.02,-16.55 1729.51,-16.61 1738.09,-16.68"/>
<polygon fill="#444444" stroke="#444444" points="1737.84,-20.18 1747.87,-16.77 1737.9,-13.18 1737.84,-20.18"/>
<text xml:space="preserve" text-anchor="middle" x="1501.25" y="-19" font-family="Helvetica,sans-Serif" font-size="10.00">beta recursion</text>
</g>
<!-- cache&#45;&gt;extract -->
<g id="edge5" class="edge">
<title>cache&#45;&gt;extract</title>
<path fill="none" stroke="#444444" d="M1693.12,-37C1708.28,-35.53 1723.43,-34.06 1738.2,-32.63"/>
<polygon fill="#444444" stroke="#444444" points="1738.29,-36.14 1747.9,-31.69 1737.61,-29.17 1738.29,-36.14"/>
</g>
<!-- format -->
<g id="node7" class="node">
<title>format</title>
<path fill="#ead1dc" stroke="#555555" d="M2069.25,-0.5C2069.25,-0.5 2316,-0.5 2316,-0.5 2322,-0.5 2328,-6.5 2328,-12.5 2328,-12.5 2328,-24.5 2328,-24.5 2328,-30.5 2322,-36.5 2316,-36.5 2316,-36.5 2069.25,-36.5 2069.25,-36.5 2063.25,-36.5 2057.25,-30.5 2057.25,-24.5 2057.25,-24.5 2057.25,-12.5 2057.25,-12.5 2057.25,-6.5 2063.25,-0.5 2069.25,-0.5"/>
<text xml:space="preserve" text-anchor="middle" x="2108.75" y="-15.05" font-family="Helvetica,sans-Serif" font-size="11.00">Output Formatting</text>
<polyline fill="none" stroke="#555555" points="2160.25,-1 2160.25,-36.5"/>
<text xml:space="preserve" text-anchor="middle" x="2213.62" y="-15.05" font-family="Helvetica,sans-Serif" font-size="11.00">metric_to_post_sat</text>
<polyline fill="none" stroke="#555555" points="2267,-1 2267,-36.5"/>
<text xml:space="preserve" text-anchor="middle" x="2297.5" y="-15.05" font-family="Helvetica,sans-Serif" font-size="11.00">scale_ext</text>
</g>
<!-- extract&#45;&gt;format -->
<g id="edge7" class="edge">
<title>extract&#45;&gt;format</title>
<path fill="none" stroke="#444444" d="M2020.5,-18.5C2028.86,-18.5 2037.31,-18.5 2045.72,-18.5"/>
<polygon fill="#444444" stroke="#444444" points="2045.65,-22 2055.65,-18.5 2045.65,-15 2045.65,-22"/>
</g>
</g>
</svg>
