<?xml version="1.0" encoding="UTF-8" standalone="no"?>
<!DOCTYPE svg PUBLIC "-//W3C//DTD SVG 1.1//EN"
 "http://www.w3.org/Graphics/SVG/1.1/DTD/svg11.dtd">
<!-- Generated by graphviz version 14.1.2 (0)
 -->
<!-- Title: G Pages: 1 -->
<svg width="500pt" height="752pt"
 viewBox="0.00 0.00 500.00 752.00" xmlns="http://www.w3.org/2000/svg" xmlns:xlink="http://www.w3.org/1999/xlink">
<g id="graph0" class="graph" transform="scale(1 1) rotate(0) translate(4 748.25)">
<title>G</title>
<polygon fill="white" stroke="none" points="-4,4 -4,-748.25 496.25,-748.25 496.25,4 -4,4"/>
<text xml:space="preserve" text-anchor="middle" x="246.12" y="-721.25" font-family="Helvetica,sans-Serif" font-size="20.00">siso_maxlogmap &#45; Internal Functional Units (Updated)</text>
<!-- fetch -->
<g id="node1" class="node">
<title>fetch</title>
<path fill="#fff2cc" stroke="#555555" d="M190.56,-669.5C190.56,-669.5 291.31,-669.5 291.31,-669.5 297.31,-669.5 303.31,-675.5 303.31,-681.5 303.31,-681.5 303.31,-700.5 303.31,-700.5 303.31,-706.5 297.31,-712.5 291.31,-712.5 291.31,-712.5 190.56,-712.5 190.56,-712.5 184.56,-712.5 178.56,-706.5 178.56,-700.5 178.56,-700.5 178.56,-681.5 178.56,-681.5 178.56,-675.5 184.56,-669.5 190.56,-669.5"/>
<text xml:space="preserve" text-anchor="middle" x="240.93" y="-698.05" font-family="Helvetica,sans-Serif" font-size="11.00">Fetch Latch</text>
<polyline fill="none" stroke="#555555" points="178.56,-691 303.31,-691"/>
<text xml:space="preserve" text-anchor="middle" x="240.93" y="-676.55" font-family="Helvetica,sans-Serif" font-size="11.00">fetched_sys/par/apri_q</text>
</g>
<!-- bmu -->
<g id="node2" class="node">
<title>bmu</title>
<path fill="#d9ead3" stroke="#555555" d="M197.68,-567C197.68,-567 284.18,-567 284.18,-567 290.18,-567 296.18,-573 296.18,-579 296.18,-579 296.18,-619.5 296.18,-619.5 296.18,-625.5 290.18,-631.5 284.18,-631.5 284.18,-631.5 197.68,-631.5 197.68,-631.5 191.68,-631.5 185.68,-625.5 185.68,-619.5 185.68,-619.5 185.68,-579 185.68,-579 185.68,-573 191.68,-567 197.68,-567"/>
<text xml:space="preserve" text-anchor="middle" x="240.93" y="-617.05" font-family="Helvetica,sans-Serif" font-size="11.00">Branch Metric Units</text>
<polyline fill="none" stroke="#555555" points="185.68,-610 296.18,-610"/>
<text xml:space="preserve" text-anchor="middle" x="240.93" y="-595.55" font-family="Helvetica,sans-Serif" font-size="11.00">even BMU</text>
<polyline fill="none" stroke="#555555" points="185.68,-588.5 296.18,-588.5"/>
<text xml:space="preserve" text-anchor="middle" x="240.93" y="-574.05" font-family="Helvetica,sans-Serif" font-size="11.00">odd BMU</text>
</g>
<!-- fetch&#45;&gt;bmu -->
<g id="edge1" class="edge">
<title>fetch&#45;&gt;bmu</title>
<path fill="none" stroke="#444444" d="M240.93,-669.18C240.93,-661.39 240.93,-652.23 240.93,-643.17"/>
<polygon fill="#444444" stroke="#444444" points="244.43,-643.37 240.93,-633.37 237.43,-643.37 244.43,-643.37"/>
</g>
<!-- gamma -->
<g id="node3" class="node">
<title>gamma</title>
<path fill="#d9ead3" stroke="#555555" d="M175.93,-486C175.93,-486 305.93,-486 305.93,-486 311.93,-486 317.93,-492 317.93,-498 317.93,-498 317.93,-517 317.93,-517 317.93,-523 311.93,-529 305.93,-529 305.93,-529 175.93,-529 175.93,-529 169.93,-529 163.93,-523 163.93,-517 163.93,-517 163.93,-498 163.93,-498 163.93,-492 169.93,-486 175.93,-486"/>
<text xml:space="preserve" text-anchor="middle" x="240.93" y="-514.55" font-family="Helvetica,sans-Serif" font-size="11.00">Radix&#45;4 Gamma Unit</text>
<polyline fill="none" stroke="#555555" points="163.93,-507.5 317.93,-507.5"/>
<text xml:space="preserve" text-anchor="middle" x="240.93" y="-493.05" font-family="Helvetica,sans-Serif" font-size="11.00">pair_gamma_from_branches</text>
</g>
<!-- bmu&#45;&gt;gamma -->
<g id="edge2" class="edge">
<title>bmu&#45;&gt;gamma</title>
<path fill="none" stroke="#444444" d="M240.93,-566.61C240.93,-558.24 240.93,-549.19 240.93,-540.79"/>
<polygon fill="#444444" stroke="#444444" points="244.43,-540.99 240.93,-530.99 237.43,-540.99 244.43,-540.99"/>
</g>
<!-- acs -->
<g id="node4" class="node">
<title>acs</title>
<path fill="#cfe2f3" stroke="#555555" d="M192.43,-362C192.43,-362 289.43,-362 289.43,-362 295.43,-362 301.43,-368 301.43,-374 301.43,-374 301.43,-436 301.43,-436 301.43,-442 295.43,-448 289.43,-448 289.43,-448 192.43,-448 192.43,-448 186.43,-448 180.43,-442 180.43,-436 180.43,-436 180.43,-374 180.43,-374 180.43,-368 186.43,-362 192.43,-362"/>
<text xml:space="preserve" text-anchor="middle" x="240.93" y="-433.55" font-family="Helvetica,sans-Serif" font-size="11.00">Shared ACS</text>
<polyline fill="none" stroke="#555555" points="180.43,-426.5 301.43,-426.5"/>
<text xml:space="preserve" text-anchor="middle" x="240.93" y="-412.05" font-family="Helvetica,sans-Serif" font-size="11.00">forward use</text>
<polyline fill="none" stroke="#555555" points="180.43,-405 301.43,-405"/>
<text xml:space="preserve" text-anchor="middle" x="240.93" y="-390.55" font-family="Helvetica,sans-Serif" font-size="11.00">dummy backward use</text>
<polyline fill="none" stroke="#555555" points="180.43,-383.5 301.43,-383.5"/>
<text xml:space="preserve" text-anchor="middle" x="240.93" y="-369.05" font-family="Helvetica,sans-Serif" font-size="11.00">local backward use</text>
</g>
<!-- gamma&#45;&gt;acs -->
<g id="edge3" class="edge">
<title>gamma&#45;&gt;acs</title>
<path fill="none" stroke="#444444" d="M240.93,-485.68C240.93,-477.99 240.93,-468.89 240.93,-459.63"/>
<polygon fill="#444444" stroke="#444444" points="244.43,-459.87 240.93,-449.87 237.43,-459.87 244.43,-459.87"/>
</g>
<!-- cache -->
<g id="node5" class="node">
<title>cache</title>
<path fill="#cfe2f3" stroke="#555555" d="M173.31,-184C173.31,-184 230.56,-184 230.56,-184 236.56,-184 242.56,-190 242.56,-196 242.56,-196 242.56,-301 242.56,-301 242.56,-307 236.56,-313 230.56,-313 230.56,-313 173.31,-313 173.31,-313 167.31,-313 161.31,-307 161.31,-301 161.31,-301 161.31,-196 161.31,-196 161.31,-190 167.31,-184 173.31,-184"/>
<text xml:space="preserve" text-anchor="middle" x="201.93" y="-298.55" font-family="Helvetica,sans-Serif" font-size="11.00">Local Caches</text>
<polyline fill="none" stroke="#555555" points="161.31,-291.5 242.56,-291.5"/>
<text xml:space="preserve" text-anchor="middle" x="201.93" y="-277.05" font-family="Helvetica,sans-Serif" font-size="11.00">alpha_local</text>
<polyline fill="none" stroke="#555555" points="161.31,-270 242.56,-270"/>
<text xml:space="preserve" text-anchor="middle" x="201.93" y="-255.55" font-family="Helvetica,sans-Serif" font-size="11.00">g0_local</text>
<polyline fill="none" stroke="#555555" points="161.31,-248.5 242.56,-248.5"/>
<text xml:space="preserve" text-anchor="middle" x="201.93" y="-234.05" font-family="Helvetica,sans-Serif" font-size="11.00">g1_local</text>
<polyline fill="none" stroke="#555555" points="161.31,-227 242.56,-227"/>
<text xml:space="preserve" text-anchor="middle" x="201.93" y="-212.55" font-family="Helvetica,sans-Serif" font-size="11.00">gamma_local</text>
<polyline fill="none" stroke="#555555" points="161.31,-205.5 242.56,-205.5"/>
<text xml:space="preserve" text-anchor="middle" x="201.93" y="-191.05" font-family="Helvetica,sans-Serif" font-size="11.00">sys/apri_local</text>
</g>
<!-- acs&#45;&gt;cache -->
<g id="edge4" class="edge">
<title>acs&#45;&gt;cache</title>
<path fill="none" stroke="#444444" d="M214.91,-361.7C212.14,-355.75 209.69,-349.59 207.93,-343.5 206.16,-337.36 204.78,-330.91 203.73,-324.37"/>
<polygon fill="#444444" stroke="#444444" points="207.25,-324.3 202.45,-314.85 200.31,-325.23 207.25,-324.3"/>
<text xml:space="preserve" text-anchor="middle" x="236.43" y="-334" font-family="Helvetica,sans-Serif" font-size="10.00">forward store</text>
</g>
<!-- extract -->
<g id="node6" class="node">
<title>extract</title>
<path fill="#fce5cd" stroke="#555555" d="M176.81,-103C176.81,-103 303.06,-103 303.06,-103 309.06,-103 315.06,-109 315.06,-115 315.06,-115 315.06,-134 315.06,-134 315.06,-140 309.06,-146 303.06,-146 303.06,-146 176.81,-146 176.81,-146 170.81,-146 164.81,-140 164.81,-134 164.81,-134 164.81,-115 164.81,-115 164.81,-109 170.81,-103 176.81,-103"/>
<text xml:space="preserve" text-anchor="middle" x="239.93" y="-131.55" font-family="Helvetica,sans-Serif" font-size="11.00">Precomputed LLR Extractor</text>
<polyline fill="none" stroke="#555555" points="164.81,-124.5 315.06,-124.5"/>
<text xml:space="preserve" text-anchor="middle" x="239.93" y="-110.05" font-family="Helvetica,sans-Serif" font-size="11.00">extract_pair_precomp</text>
</g>
<!-- acs&#45;&gt;extract -->
<g id="edge6" class="edge">
<title>acs&#45;&gt;extract</title>
<path fill="none" stroke="#444444" d="M260.04,-361.63C262.06,-355.65 263.79,-349.49 264.93,-343.5 277.45,-278 261.16,-200.15 249.61,-157.46"/>
<polygon fill="#444444" stroke="#444444" points="252.98,-156.54 246.91,-147.85 246.24,-158.43 252.98,-156.54"/>
<text xml:space="preserve" text-anchor="middle" x="300.19" y="-245" font-family="Helvetica,sans-Serif" font-size="10.00">beta recursion</text>
</g>
<!-- cache&#45;&gt;extract -->
<g id="edge5" class="edge">
<title>cache&#45;&gt;extract</title>
<path fill="none" stroke="#444444" d="M221.82,-183.64C224.68,-174.47 227.51,-165.39 230.05,-157.22"/>
<polygon fill="#444444" stroke="#444444" points="233.35,-158.41 232.98,-147.82 226.66,-156.33 233.35,-158.41"/>
</g>
<!-- format -->
<g id="node7" class="node">
<title>format</title>
<path fill="#ead1dc" stroke="#555555" d="M198.56,-0.5C198.56,-0.5 281.31,-0.5 281.31,-0.5 287.31,-0.5 293.31,-6.5 293.31,-12.5 293.31,-12.5 293.31,-53 293.31,-53 293.31,-59 287.31,-65 281.31,-65 281.31,-65 198.56,-65 198.56,-65 192.56,-65 186.56,-59 186.56,-53 186.56,-53 186.56,-12.5 186.56,-12.5 186.56,-6.5 192.56,-0.5 198.56,-0.5"/>
<text xml:space="preserve" text-anchor="middle" x="239.93" y="-50.55" font-family="Helvetica,sans-Serif" font-size="11.00">Output Formatting</text>
<polyline fill="none" stroke="#555555" points="186.56,-43.5 293.31,-43.5"/>
<text xml:space="preserve" text-anchor="middle" x="239.93" y="-29.05" font-family="Helvetica,sans-Serif" font-size="11.00">metric_to_post_sat</text>
<polyline fill="none" stroke="#555555" points="186.56,-22 293.31,-22"/>
<text xml:space="preserve" text-anchor="middle" x="239.93" y="-7.55" font-family="Helvetica,sans-Serif" font-size="11.00">scale_ext</text>
</g>
<!-- extract&#45;&gt;format -->
<g id="edge7" class="edge">
<title>extract&#45;&gt;format</title>
<path fill="none" stroke="#444444" d="M239.93,-102.68C239.93,-94.89 239.93,-85.73 239.93,-76.67"/>
<polygon fill="#444444" stroke="#444444" points="243.43,-76.87 239.93,-66.87 236.43,-76.87 243.43,-76.87"/>
</g>
</g>
</svg>
