<?xml version="1.0" encoding="UTF-8" standalone="no"?>
<!DOCTYPE svg PUBLIC "-//W3C//DTD SVG 1.1//EN"
 "http://www.w3.org/Graphics/SVG/1.1/DTD/svg11.dtd">
<!-- Generated by graphviz version 14.1.2 (0)
 -->
<!-- Title: G Pages: 1 -->
<svg width="506pt" height="452pt"
 viewBox="0.00 0.00 506.00 452.00" xmlns="http://www.w3.org/2000/svg" xmlns:xlink="http://www.w3.org/1999/xlink">
<g id="graph0" class="graph" transform="scale(1 1) rotate(0) translate(4 448.25)">
<title>G</title>
<polygon fill="white" stroke="none" points="-4,4 -4,-448.25 501.5,-448.25 501.5,4 -4,4"/>
<text xml:space="preserve" text-anchor="middle" x="248.75" y="-421.25" font-family="Helvetica,sans-Serif" font-size="20.00">siso_maxlogmap &#45; Branch and Gamma Unit (Updated)</text>
<!-- even_in -->
<g id="node1" class="node">
<title>even_in</title>
<path fill="#fff2cc" stroke="#555555" d="M157.75,-326.5C157.75,-326.5 206.75,-326.5 206.75,-326.5 212.75,-326.5 218.75,-332.5 218.75,-338.5 218.75,-338.5 218.75,-400.5 218.75,-400.5 218.75,-406.5 212.75,-412.5 206.75,-412.5 206.75,-412.5 157.75,-412.5 157.75,-412.5 151.75,-412.5 145.75,-406.5 145.75,-400.5 145.75,-400.5 145.75,-338.5 145.75,-338.5 145.75,-332.5 151.75,-326.5 157.75,-326.5"/>
<text xml:space="preserve" text-anchor="middle" x="182.25" y="-398.05" font-family="Helvetica,sans-Serif" font-size="11.00">Even Inputs</text>
<polyline fill="none" stroke="#555555" points="145.75,-391 218.75,-391"/>
<text xml:space="preserve" text-anchor="middle" x="182.25" y="-376.55" font-family="Helvetica,sans-Serif" font-size="11.00">sys_even</text>
<polyline fill="none" stroke="#555555" points="145.75,-369.5 218.75,-369.5"/>
<text xml:space="preserve" text-anchor="middle" x="182.25" y="-355.05" font-family="Helvetica,sans-Serif" font-size="11.00">par_even</text>
<polyline fill="none" stroke="#555555" points="145.75,-348 218.75,-348"/>
<text xml:space="preserve" text-anchor="middle" x="182.25" y="-333.55" font-family="Helvetica,sans-Serif" font-size="11.00">apri_even</text>
</g>
<!-- g0 -->
<g id="node3" class="node">
<title>g0</title>
<path fill="#d9ead3" stroke="#555555" d="M149.5,-225C149.5,-225 215,-225 215,-225 221,-225 227,-231 227,-237 227,-237 227,-277.5 227,-277.5 227,-283.5 221,-289.5 215,-289.5 215,-289.5 149.5,-289.5 149.5,-289.5 143.5,-289.5 137.5,-283.5 137.5,-277.5 137.5,-277.5 137.5,-237 137.5,-237 137.5,-231 143.5,-225 149.5,-225"/>
<text xml:space="preserve" text-anchor="middle" x="182.25" y="-275.05" font-family="Helvetica,sans-Serif" font-size="11.00">Even BMU</text>
<polyline fill="none" stroke="#555555" points="137.5,-268 227,-268"/>
<text xml:space="preserve" text-anchor="middle" x="182.25" y="-253.55" font-family="Helvetica,sans-Serif" font-size="11.00">branch_metrics</text>
<polyline fill="none" stroke="#555555" points="137.5,-246.5 227,-246.5"/>
<text xml:space="preserve" text-anchor="middle" x="182.25" y="-232.05" font-family="Helvetica,sans-Serif" font-size="11.00">g0[0..3]</text>
</g>
<!-- even_in&#45;&gt;g0 -->
<g id="edge1" class="edge">
<title>even_in&#45;&gt;g0</title>
<path fill="none" stroke="black" d="M182.25,-326.19C182.25,-317.94 182.25,-309.27 182.25,-301.01"/>
<polygon fill="black" stroke="black" points="185.75,-301.17 182.25,-291.17 178.75,-301.17 185.75,-301.17"/>
</g>
<!-- odd_in -->
<g id="node2" class="node">
<title>odd_in</title>
<path fill="#fff2cc" stroke="#555555" d="M293,-326.5C293,-326.5 337.5,-326.5 337.5,-326.5 343.5,-326.5 349.5,-332.5 349.5,-338.5 349.5,-338.5 349.5,-400.5 349.5,-400.5 349.5,-406.5 343.5,-412.5 337.5,-412.5 337.5,-412.5 293,-412.5 293,-412.5 287,-412.5 281,-406.5 281,-400.5 281,-400.5 281,-338.5 281,-338.5 281,-332.5 287,-326.5 293,-326.5"/>
<text xml:space="preserve" text-anchor="middle" x="315.25" y="-398.05" font-family="Helvetica,sans-Serif" font-size="11.00">Odd Inputs</text>
<polyline fill="none" stroke="#555555" points="281,-391 349.5,-391"/>
<text xml:space="preserve" text-anchor="middle" x="315.25" y="-376.55" font-family="Helvetica,sans-Serif" font-size="11.00">sys_odd</text>
<polyline fill="none" stroke="#555555" points="281,-369.5 349.5,-369.5"/>
<text xml:space="preserve" text-anchor="middle" x="315.25" y="-355.05" font-family="Helvetica,sans-Serif" font-size="11.00">par_odd</text>
<polyline fill="none" stroke="#555555" points="281,-348 349.5,-348"/>
<text xml:space="preserve" text-anchor="middle" x="315.25" y="-333.55" font-family="Helvetica,sans-Serif" font-size="11.00">apri_odd</text>
</g>
<!-- g1 -->
<g id="node4" class="node">
<title>g1</title>
<path fill="#d9ead3" stroke="#555555" d="M282.5,-225C282.5,-225 348,-225 348,-225 354,-225 360,-231 360,-237 360,-237 360,-277.5 360,-277.5 360,-283.5 354,-289.5 348,-289.5 348,-289.5 282.5,-289.5 282.5,-289.5 276.5,-289.5 270.5,-283.5 270.5,-277.5 270.5,-277.5 270.5,-237 270.5,-237 270.5,-231 276.5,-225 282.5,-225"/>
<text xml:space="preserve" text-anchor="middle" x="315.25" y="-275.05" font-family="Helvetica,sans-Serif" font-size="11.00">Odd BMU</text>
<polyline fill="none" stroke="#555555" points="270.5,-268 360,-268"/>
<text xml:space="preserve" text-anchor="middle" x="315.25" y="-253.55" font-family="Helvetica,sans-Serif" font-size="11.00">branch_metrics</text>
<polyline fill="none" stroke="#555555" points="270.5,-246.5 360,-246.5"/>
<text xml:space="preserve" text-anchor="middle" x="315.25" y="-232.05" font-family="Helvetica,sans-Serif" font-size="11.00">g1[0..3]</text>
</g>
<!-- odd_in&#45;&gt;g1 -->
<g id="edge3" class="edge">
<title>odd_in&#45;&gt;g1</title>
<path fill="none" stroke="black" d="M315.25,-326.19C315.25,-317.94 315.25,-309.27 315.25,-301.01"/>
<polygon fill="black" stroke="black" points="318.75,-301.17 315.25,-291.17 311.75,-301.17 318.75,-301.17"/>
</g>
<!-- gamma -->
<g id="node5" class="node">
<title>gamma</title>
<path fill="#cfe2f3" stroke="#555555" d="M171.25,-123.5C171.25,-123.5 301.25,-123.5 301.25,-123.5 307.25,-123.5 313.25,-129.5 313.25,-135.5 313.25,-135.5 313.25,-176 313.25,-176 313.25,-182 307.25,-188 301.25,-188 301.25,-188 171.25,-188 171.25,-188 165.25,-188 159.25,-182 159.25,-176 159.25,-176 159.25,-135.5 159.25,-135.5 159.25,-129.5 165.25,-123.5 171.25,-123.5"/>
<text xml:space="preserve" text-anchor="middle" x="236.25" y="-173.55" font-family="Helvetica,sans-Serif" font-size="11.00">Gamma Combiner</text>
<polyline fill="none" stroke="#555555" points="159.25,-166.5 313.25,-166.5"/>
<text xml:space="preserve" text-anchor="middle" x="236.25" y="-152.05" font-family="Helvetica,sans-Serif" font-size="11.00">pair_gamma_from_branches</text>
<polyline fill="none" stroke="#555555" points="159.25,-145 313.25,-145"/>
<text xml:space="preserve" text-anchor="middle" x="236.25" y="-130.55" font-family="Helvetica,sans-Serif" font-size="11.00">gamma[0..15]</text>
</g>
<!-- g0&#45;&gt;gamma -->
<g id="edge2" class="edge">
<title>g0&#45;&gt;gamma</title>
<path fill="none" stroke="black" d="M199.34,-224.77C203.87,-216.42 208.83,-207.27 213.61,-198.47"/>
<polygon fill="black" stroke="black" points="216.67,-200.16 218.37,-189.7 210.52,-196.82 216.67,-200.16"/>
</g>
<!-- caches -->
<g id="node6" class="node">
<title>caches</title>
<path fill="#ead1dc" stroke="#555555" d="M202.75,-0.5C202.75,-0.5 269.75,-0.5 269.75,-0.5 275.75,-0.5 281.75,-6.5 281.75,-12.5 281.75,-12.5 281.75,-74.5 281.75,-74.5 281.75,-80.5 275.75,-86.5 269.75,-86.5 269.75,-86.5 202.75,-86.5 202.75,-86.5 196.75,-86.5 190.75,-80.5 190.75,-74.5 190.75,-74.5 190.75,-12.5 190.75,-12.5 190.75,-6.5 196.75,-0.5 202.75,-0.5"/>
<text xml:space="preserve" text-anchor="middle" x="236.25" y="-72.05" font-family="Helvetica,sans-Serif" font-size="11.00">Stored Per Pair</text>
<polyline fill="none" stroke="#555555" points="190.75,-65 281.75,-65"/>
<text xml:space="preserve" text-anchor="middle" x="236.25" y="-50.55" font-family="Helvetica,sans-Serif" font-size="11.00">g0_local</text>
<polyline fill="none" stroke="#555555" points="190.75,-43.5 281.75,-43.5"/>
<text xml:space="preserve" text-anchor="middle" x="236.25" y="-29.05" font-family="Helvetica,sans-Serif" font-size="11.00">g1_local</text>
<polyline fill="none" stroke="#555555" points="190.75,-22 281.75,-22"/>
<text xml:space="preserve" text-anchor="middle" x="236.25" y="-7.55" font-family="Helvetica,sans-Serif" font-size="11.00">gamma_local</text>
</g>
<!-- g0&#45;&gt;caches -->
<g id="edge5" class="edge">
<title>g0&#45;&gt;caches</title>
<path fill="none" stroke="black" d="M163.47,-224.53C149.67,-196.86 135.65,-156.09 150.25,-123 157.21,-107.22 169.08,-93.24 181.82,-81.61"/>
<polygon fill="black" stroke="black" points="183.84,-84.49 189.13,-75.31 179.27,-79.19 183.84,-84.49"/>
</g>
<!-- g1&#45;&gt;gamma -->
<g id="edge4" class="edge">
<title>g1&#45;&gt;gamma</title>
<path fill="none" stroke="black" d="M290.25,-224.77C283.34,-216.06 275.73,-206.48 268.47,-197.33"/>
<polygon fill="black" stroke="black" points="271.26,-195.21 262.3,-189.55 265.77,-199.56 271.26,-195.21"/>
</g>
<!-- g1&#45;&gt;caches -->
<g id="edge6" class="edge">
<title>g1&#45;&gt;caches</title>
<path fill="none" stroke="black" d="M324.69,-224.64C331.26,-196.69 336.56,-155.43 322.25,-123 315.29,-107.22 303.42,-93.24 290.68,-81.61"/>
<polygon fill="black" stroke="black" points="293.23,-79.19 283.37,-75.31 288.66,-84.49 293.23,-79.19"/>
</g>
<!-- gamma&#45;&gt;caches -->
<g id="edge7" class="edge">
<title>gamma&#45;&gt;caches</title>
<path fill="none" stroke="black" d="M236.25,-123.16C236.25,-115.37 236.25,-106.81 236.25,-98.3"/>
<polygon fill="black" stroke="black" points="239.75,-98.3 236.25,-88.3 232.75,-98.3 239.75,-98.3"/>
</g>
</g>
</svg>
