<?xml version="1.0" encoding="UTF-8" standalone="no"?>
<!DOCTYPE svg PUBLIC "-//W3C//DTD SVG 1.1//EN"
 "http://www.w3.org/Graphics/SVG/1.1/DTD/svg11.dtd">
<!-- Generated by graphviz version 14.1.2 (0)
 -->
<!-- Title: G Pages: 1 -->
<svg width="1289pt" height="158pt"
 viewBox="0.00 0.00 1289.00 158.00" xmlns="http://www.w3.org/2000/svg" xmlns:xlink="http://www.w3.org/1999/xlink">
<g id="graph0" class="graph" transform="scale(1 1) rotate(0) translate(4 154.25)">
<title>G</title>
<polygon fill="white" stroke="none" points="-4,4 -4,-154.25 1285,-154.25 1285,4 -4,4"/>
<text xml:space="preserve" text-anchor="middle" x="640.5" y="-127.25" font-family="Helvetica,sans-Serif" font-size="20.00">siso_maxlogmap &#45; Precomputed LLR Extraction Unit</text>
<!-- in0 -->
<g id="node1" class="node">
<title>in0</title>
<path fill="#fff2cc" stroke="#555555" d="M38.62,-55.5C38.62,-55.5 167.62,-55.5 167.62,-55.5 173.62,-55.5 179.62,-61.5 179.62,-67.5 179.62,-67.5 179.62,-79.5 179.62,-79.5 179.62,-85.5 173.62,-91.5 167.62,-91.5 167.62,-91.5 38.62,-91.5 38.62,-91.5 32.62,-91.5 26.62,-85.5 26.62,-79.5 26.62,-79.5 26.62,-67.5 26.62,-67.5 26.62,-61.5 32.62,-55.5 38.62,-55.5"/>
<text xml:space="preserve" text-anchor="middle" x="49.25" y="-70.05" font-family="Helvetica,sans-Serif" font-size="11.00">Inputs</text>
<polyline fill="none" stroke="#555555" points="71.88,-56 71.88,-91.5"/>
<text xml:space="preserve" text-anchor="middle" x="100.12" y="-70.05" font-family="Helvetica,sans-Serif" font-size="11.00">alpha_in</text>
<polyline fill="none" stroke="#555555" points="128.38,-56 128.38,-91.5"/>
<text xml:space="preserve" text-anchor="middle" x="154" y="-70.05" font-family="Helvetica,sans-Serif" font-size="11.00">beta_in</text>
</g>
<!-- amid -->
<g id="node4" class="node">
<title>amid</title>
<path fill="#d9ead3" stroke="#555555" d="M254.25,-55.5C254.25,-55.5 366.25,-55.5 366.25,-55.5 372.25,-55.5 378.25,-61.5 378.25,-67.5 378.25,-67.5 378.25,-79.5 378.25,-79.5 378.25,-85.5 372.25,-91.5 366.25,-91.5 366.25,-91.5 254.25,-91.5 254.25,-91.5 248.25,-91.5 242.25,-85.5 242.25,-79.5 242.25,-79.5 242.25,-67.5 242.25,-67.5 242.25,-61.5 248.25,-55.5 254.25,-55.5"/>
<text xml:space="preserve" text-anchor="middle" x="310.25" y="-70.05" font-family="Helvetica,sans-Serif" font-size="11.00">alpha_mid reconstruction</text>
</g>
<!-- in0&#45;&gt;amid -->
<g id="edge1" class="edge">
<title>in0&#45;&gt;amid</title>
<path fill="none" stroke="black" d="M179.92,-73.5C196.43,-73.5 213.93,-73.5 230.54,-73.5"/>
<polygon fill="black" stroke="black" points="230.37,-77 240.37,-73.5 230.37,-70 230.37,-77"/>
</g>
<!-- bmid -->
<g id="node5" class="node">
<title>bmid</title>
<path fill="#d9ead3" stroke="#555555" d="M256.88,-0.5C256.88,-0.5 363.62,-0.5 363.62,-0.5 369.62,-0.5 375.62,-6.5 375.62,-12.5 375.62,-12.5 375.62,-24.5 375.62,-24.5 375.62,-30.5 369.62,-36.5 363.62,-36.5 363.62,-36.5 256.88,-36.5 256.88,-36.5 250.88,-36.5 244.88,-30.5 244.88,-24.5 244.88,-24.5 244.88,-12.5 244.88,-12.5 244.88,-6.5 250.88,-0.5 256.88,-0.5"/>
<text xml:space="preserve" text-anchor="middle" x="310.25" y="-15.05" font-family="Helvetica,sans-Serif" font-size="11.00">beta_mid reconstruction</text>
</g>
<!-- in0&#45;&gt;bmid -->
<g id="edge3" class="edge">
<title>in0&#45;&gt;bmid</title>
<path fill="none" stroke="black" d="M174.19,-55.05C184.93,-52.2 195.89,-49.28 206.25,-46.5 215.03,-44.15 224.23,-41.67 233.36,-39.19"/>
<polygon fill="black" stroke="black" points="234.24,-42.58 242.97,-36.59 232.41,-35.83 234.24,-42.58"/>
</g>
<!-- in1 -->
<g id="node2" class="node">
<title>in1</title>
<path fill="#fff2cc" stroke="#555555" d="M12,-0.5C12,-0.5 194.25,-0.5 194.25,-0.5 200.25,-0.5 206.25,-6.5 206.25,-12.5 206.25,-12.5 206.25,-24.5 206.25,-24.5 206.25,-30.5 200.25,-36.5 194.25,-36.5 194.25,-36.5 12,-36.5 12,-36.5 6,-36.5 0,-30.5 0,-24.5 0,-24.5 0,-12.5 0,-12.5 0,-6.5 6,-0.5 12,-0.5"/>
<text xml:space="preserve" text-anchor="middle" x="75.12" y="-15.05" font-family="Helvetica,sans-Serif" font-size="11.00">Precomputed Branch Inputs</text>
<polyline fill="none" stroke="#555555" points="150.25,-1 150.25,-36.5"/>
<text xml:space="preserve" text-anchor="middle" x="164.25" y="-15.05" font-family="Helvetica,sans-Serif" font-size="11.00">g0</text>
<polyline fill="none" stroke="#555555" points="178.25,-1 178.25,-36.5"/>
<text xml:space="preserve" text-anchor="middle" x="192.25" y="-15.05" font-family="Helvetica,sans-Serif" font-size="11.00">g1</text>
</g>
<!-- in1&#45;&gt;amid -->
<g id="edge2" class="edge">
<title>in1&#45;&gt;amid</title>
<path fill="none" stroke="black" d="M173,-36.97C191.58,-41.95 211.83,-47.38 230.89,-52.49"/>
<polygon fill="black" stroke="black" points="229.92,-55.85 240.49,-55.06 231.74,-49.09 229.92,-55.85"/>
</g>
<!-- in1&#45;&gt;bmid -->
<g id="edge4" class="edge">
<title>in1&#45;&gt;bmid</title>
<path fill="none" stroke="black" d="M206.69,-18.5C215.67,-18.5 224.66,-18.5 233.36,-18.5"/>
<polygon fill="black" stroke="black" points="233.12,-22 243.12,-18.5 233.12,-15 233.12,-22"/>
</g>
<!-- in2 -->
<g id="node3" class="node">
<title>in2</title>
<path fill="#fff2cc" stroke="#555555" d="M677.25,-82.5C677.25,-82.5 971.25,-82.5 971.25,-82.5 977.25,-82.5 983.25,-88.5 983.25,-94.5 983.25,-94.5 983.25,-106.5 983.25,-106.5 983.25,-112.5 977.25,-118.5 971.25,-118.5 971.25,-118.5 677.25,-118.5 677.25,-118.5 671.25,-118.5 665.25,-112.5 665.25,-106.5 665.25,-106.5 665.25,-94.5 665.25,-94.5 665.25,-88.5 671.25,-82.5 677.25,-82.5"/>
<text xml:space="preserve" text-anchor="middle" x="718.25" y="-97.05" font-family="Helvetica,sans-Serif" font-size="11.00">Observation Inputs</text>
<polyline fill="none" stroke="#555555" points="771.25,-83 771.25,-118.5"/>
<text xml:space="preserve" text-anchor="middle" x="823.12" y="-97.05" font-family="Helvetica,sans-Serif" font-size="11.00">sys_even/sys_odd</text>
<polyline fill="none" stroke="#555555" points="875,-83 875,-118.5"/>
<text xml:space="preserve" text-anchor="middle" x="929.12" y="-97.05" font-family="Helvetica,sans-Serif" font-size="11.00">apri_even/apri_odd</text>
</g>
<!-- ext -->
<g id="node9" class="node">
<title>ext</title>
<path fill="#ead1dc" stroke="#555555" d="M1031.25,-54.5C1031.25,-54.5 1269,-54.5 1269,-54.5 1275,-54.5 1281,-60.5 1281,-66.5 1281,-66.5 1281,-78.5 1281,-78.5 1281,-84.5 1275,-90.5 1269,-90.5 1269,-90.5 1031.25,-90.5 1031.25,-90.5 1025.25,-90.5 1019.25,-84.5 1019.25,-78.5 1019.25,-78.5 1019.25,-66.5 1019.25,-66.5 1019.25,-60.5 1025.25,-54.5 1031.25,-54.5"/>
<text xml:space="preserve" text-anchor="middle" x="1072.62" y="-69.05" font-family="Helvetica,sans-Serif" font-size="11.00">Extrinsic Arithmetic</text>
<polyline fill="none" stroke="#555555" points="1126,-55 1126,-90.5"/>
<text xml:space="preserve" text-anchor="middle" x="1173" y="-69.05" font-family="Helvetica,sans-Serif" font-size="11.00">subtract sys/apri</text>
<polyline fill="none" stroke="#555555" points="1220,-55 1220,-90.5"/>
<text xml:space="preserve" text-anchor="middle" x="1250.5" y="-69.05" font-family="Helvetica,sans-Serif" font-size="11.00">scale_ext</text>
</g>
<!-- in2&#45;&gt;ext -->
<g id="edge12" class="edge">
<title>in2&#45;&gt;ext</title>
<path fill="none" stroke="black" d="M983.39,-86.83C991.47,-86.13 999.56,-85.43 1007.58,-84.74"/>
<polygon fill="black" stroke="black" points="1007.7,-88.24 1017.36,-83.89 1007.09,-81.27 1007.7,-88.24"/>
</g>
<!-- maxe -->
<g id="node6" class="node">
<title>maxe</title>
<path fill="#cfe2f3" stroke="#555555" d="M426.25,-55.5C426.25,-55.5 617.25,-55.5 617.25,-55.5 623.25,-55.5 629.25,-61.5 629.25,-67.5 629.25,-67.5 629.25,-79.5 629.25,-79.5 629.25,-85.5 623.25,-91.5 617.25,-91.5 617.25,-91.5 426.25,-91.5 426.25,-91.5 420.25,-91.5 414.25,-85.5 414.25,-79.5 414.25,-79.5 414.25,-67.5 414.25,-67.5 414.25,-61.5 420.25,-55.5 426.25,-55.5"/>
<text xml:space="preserve" text-anchor="middle" x="464.62" y="-70.05" font-family="Helvetica,sans-Serif" font-size="11.00">Even&#45;bit max tree</text>
<polyline fill="none" stroke="#555555" points="515,-56 515,-91.5"/>
<text xml:space="preserve" text-anchor="middle" x="572.12" y="-70.05" font-family="Helvetica,sans-Serif" font-size="11.00">max1_u0 &#45; max0_u0</text>
</g>
<!-- amid&#45;&gt;maxe -->
<g id="edge5" class="edge">
<title>amid&#45;&gt;maxe</title>
<path fill="none" stroke="black" d="M378.69,-73.5C386.33,-73.5 394.28,-73.5 402.34,-73.5"/>
<polygon fill="black" stroke="black" points="402.27,-77 412.27,-73.5 402.27,-70 402.27,-77"/>
</g>
<!-- maxo -->
<g id="node7" class="node">
<title>maxo</title>
<path fill="#cfe2f3" stroke="#555555" d="M428.5,-0.5C428.5,-0.5 615,-0.5 615,-0.5 621,-0.5 627,-6.5 627,-12.5 627,-12.5 627,-24.5 627,-24.5 627,-30.5 621,-36.5 615,-36.5 615,-36.5 428.5,-36.5 428.5,-36.5 422.5,-36.5 416.5,-30.5 416.5,-24.5 416.5,-24.5 416.5,-12.5 416.5,-12.5 416.5,-6.5 422.5,-0.5 428.5,-0.5"/>
<text xml:space="preserve" text-anchor="middle" x="464.62" y="-15.05" font-family="Helvetica,sans-Serif" font-size="11.00">Odd&#45;bit max tree</text>
<polyline fill="none" stroke="#555555" points="512.75,-1 512.75,-36.5"/>
<text xml:space="preserve" text-anchor="middle" x="569.88" y="-15.05" font-family="Helvetica,sans-Serif" font-size="11.00">max1_u1 &#45; max0_u1</text>
</g>
<!-- amid&#45;&gt;maxo -->
<g id="edge7" class="edge">
<title>amid&#45;&gt;maxo</title>
<path fill="none" stroke="black" d="M378.69,-55.79C398.07,-50.71 419.41,-45.11 439.52,-39.82"/>
<polygon fill="black" stroke="black" points="440.31,-43.24 449.09,-37.31 438.53,-36.47 440.31,-43.24"/>
</g>
<!-- bmid&#45;&gt;maxe -->
<g id="edge6" class="edge">
<title>bmid&#45;&gt;maxe</title>
<path fill="none" stroke="black" d="M376.04,-36.29C388.7,-39.72 401.88,-43.25 414.25,-46.5 421.29,-48.35 428.61,-50.25 435.95,-52.14"/>
<polygon fill="black" stroke="black" points="435.07,-55.53 445.62,-54.62 436.81,-48.75 435.07,-55.53"/>
</g>
<!-- bmid&#45;&gt;maxo -->
<g id="edge8" class="edge">
<title>bmid&#45;&gt;maxo</title>
<path fill="none" stroke="black" d="M376.1,-18.5C385.26,-18.5 394.89,-18.5 404.66,-18.5"/>
<polygon fill="black" stroke="black" points="404.65,-22 414.65,-18.5 404.65,-15 404.65,-22"/>
</g>
<!-- post -->
<g id="node8" class="node">
<title>post</title>
<path fill="#fce5cd" stroke="#555555" d="M729.38,-27.5C729.38,-27.5 919.12,-27.5 919.12,-27.5 925.12,-27.5 931.12,-33.5 931.12,-39.5 931.12,-39.5 931.12,-51.5 931.12,-51.5 931.12,-57.5 925.12,-63.5 919.12,-63.5 919.12,-63.5 729.38,-63.5 729.38,-63.5 723.38,-63.5 717.38,-57.5 717.38,-51.5 717.38,-51.5 717.38,-39.5 717.38,-39.5 717.38,-33.5 723.38,-27.5 729.38,-27.5"/>
<text xml:space="preserve" text-anchor="middle" x="761.38" y="-42.05" font-family="Helvetica,sans-Serif" font-size="11.00">Posterior LLRs</text>
<polyline fill="none" stroke="#555555" points="805.38,-28 805.38,-63.5"/>
<text xml:space="preserve" text-anchor="middle" x="838.12" y="-42.05" font-family="Helvetica,sans-Serif" font-size="11.00">post_even</text>
<polyline fill="none" stroke="#555555" points="870.88,-28 870.88,-63.5"/>
<text xml:space="preserve" text-anchor="middle" x="901" y="-42.05" font-family="Helvetica,sans-Serif" font-size="11.00">post_odd</text>
</g>
<!-- maxe&#45;&gt;post -->
<g id="edge9" class="edge">
<title>maxe&#45;&gt;post</title>
<path fill="none" stroke="black" d="M629.54,-63.55C654.19,-61.25 680.55,-58.8 705.63,-56.46"/>
<polygon fill="black" stroke="black" points="705.92,-59.95 715.55,-55.54 705.27,-52.98 705.92,-59.95"/>
</g>
<!-- maxo&#45;&gt;post -->
<g id="edge10" class="edge">
<title>maxo&#45;&gt;post</title>
<path fill="none" stroke="black" d="M627.43,-27.91C652.66,-30.17 679.78,-32.61 705.56,-34.93"/>
<polygon fill="black" stroke="black" points="705.13,-38.4 715.4,-35.81 705.76,-31.43 705.13,-38.4"/>
</g>
<!-- post&#45;&gt;ext -->
<g id="edge11" class="edge">
<title>post&#45;&gt;ext</title>
<path fill="none" stroke="black" d="M931.3,-54.34C955.65,-56.37 981.91,-58.56 1007.49,-60.69"/>
<polygon fill="black" stroke="black" points="1007.03,-64.17 1017.29,-61.51 1007.61,-57.19 1007.03,-64.17"/>
</g>
</g>
</svg>
