<?xml version="1.0" encoding="UTF-8" standalone="no"?>
<!DOCTYPE svg PUBLIC "-//W3C//DTD SVG 1.1//EN"
 "http://www.w3.org/Graphics/SVG/1.1/DTD/svg11.dtd">
<!-- Generated by graphviz version 14.1.2 (0)
 -->
<!-- Title: siso_radix4_acs Pages: 1 -->
<svg width="1100pt" height="580pt"
 viewBox="0.00 0.00 1100.00 580.00" xmlns="http://www.w3.org/2000/svg" xmlns:xlink="http://www.w3.org/1999/xlink">
<g id="graph0" class="graph" transform="scale(1 1) rotate(0) translate(14.4 565.15)">
<title>siso_radix4_acs</title>
<polygon fill="white" stroke="none" points="-14.4,14.4 -14.4,-565.15 1085.4,-565.15 1085.4,14.4 -14.4,14.4"/>
<text xml:space="preserve" text-anchor="middle" x="535.5" y="-533.45" font-family="Helvetica,sans-Serif" font-size="14.00">siso_maxlogmap Shared Radix&#45;4 ACS Unit</text>
<g id="clust1" class="cluster">
<title>cluster_common</title>
<path fill="white" stroke="#f9a8d4" d="M436.43,-276C436.43,-276 855.98,-276 855.98,-276 861.98,-276 867.98,-282 867.98,-288 867.98,-288 867.98,-343 867.98,-343 867.98,-349 861.98,-355 855.98,-355 855.98,-355 436.43,-355 436.43,-355 430.43,-355 424.43,-349 424.43,-343 424.43,-343 424.43,-288 424.43,-288 424.43,-282 430.43,-276 436.43,-276"/>
<text xml:space="preserve" text-anchor="middle" x="646.2" y="-337.7" font-family="Helvetica,sans-Serif" font-size="14.00">Common Trellis Logic</text>
</g>
<g id="clust2" class="cluster">
<title>cluster_fwd</title>
<path fill="white" stroke="#fbcfe8" d="M685.7,-370C685.7,-370 857.85,-370 857.85,-370 863.85,-370 869.85,-376 869.85,-382 869.85,-382 869.85,-507 869.85,-507 869.85,-513 863.85,-519 857.85,-519 857.85,-519 685.7,-519 685.7,-519 679.7,-519 673.7,-513 673.7,-507 673.7,-507 673.7,-382 673.7,-382 673.7,-376 679.7,-370 685.7,-370"/>
<text xml:space="preserve" text-anchor="middle" x="771.78" y="-501.7" font-family="Helvetica,sans-Serif" font-size="14.00">Forward ACS</text>
</g>
<g id="clust3" class="cluster">
<title>cluster_bwd</title>
<path fill="white" stroke="#fce7f3" d="M412.8,-8C412.8,-8 564.7,-8 564.7,-8 570.7,-8 576.7,-14 576.7,-20 576.7,-20 576.7,-137 576.7,-137 576.7,-143 570.7,-149 564.7,-149 564.7,-149 412.8,-149 412.8,-149 406.8,-149 400.8,-143 400.8,-137 400.8,-137 400.8,-20 400.8,-20 400.8,-14 406.8,-8 412.8,-8"/>
<text xml:space="preserve" text-anchor="middle" x="488.75" y="-131.7" font-family="Helvetica,sans-Serif" font-size="14.00">Backward ACS</text>
</g>
<!-- state_in -->
<g id="node1" class="node">
<title>state_in</title>
<path fill="#f8fafc" stroke="#334155" d="M512.45,-258C512.45,-258 465.05,-258 465.05,-258 459.05,-258 453.05,-252 453.05,-246 453.05,-246 453.05,-234 453.05,-234 453.05,-228 459.05,-222 465.05,-222 465.05,-222 512.45,-222 512.45,-222 518.45,-222 524.45,-228 524.45,-234 524.45,-234 524.45,-246 524.45,-246 524.45,-252 518.45,-258 512.45,-258"/>
<text xml:space="preserve" text-anchor="middle" x="488.75" y="-242.5" font-family="Helvetica,sans-Serif" font-size="10.00">state_in[0..7]</text>
<text xml:space="preserve" text-anchor="middle" x="488.75" y="-230.5" font-family="Helvetica,sans-Serif" font-size="10.00">8 x metric_t</text>
</g>
<!-- cand -->
<g id="node5" class="node">
<title>cand</title>
<path fill="#fdf2f8" stroke="#334155" d="M847.98,-320C847.98,-320 695.58,-320 695.58,-320 689.58,-320 683.58,-314 683.58,-308 683.58,-308 683.58,-296 683.58,-296 683.58,-290 689.58,-284 695.58,-284 695.58,-284 847.98,-284 847.98,-284 853.98,-284 859.98,-290 859.98,-296 859.98,-296 859.98,-308 859.98,-308 859.98,-314 853.98,-320 847.98,-320"/>
<text xml:space="preserve" text-anchor="middle" x="771.78" y="-304.5" font-family="Helvetica,sans-Serif" font-size="10.00">candidate metric</text>
<text xml:space="preserve" text-anchor="middle" x="771.78" y="-292.5" font-family="Helvetica,sans-Serif" font-size="10.00">state_in(path_s) + gamma_in(path_g)</text>
</g>
<!-- state_in&#45;&gt;cand -->
<g id="edge1" class="edge">
<title>state_in&#45;&gt;cand</title>
<path fill="none" stroke="#475569" stroke-width="1.1" d="M524.77,-247.73C563.11,-256.19 626.14,-270.09 678.8,-281.71"/>
<polygon fill="#475569" stroke="#475569" stroke-width="1.1" points="678.17,-284.08 685.53,-283.19 679.22,-279.29 678.17,-284.08"/>
</g>
<!-- gamma_in -->
<g id="node2" class="node">
<title>gamma_in</title>
<path fill="#f8fafc" stroke="#334155" d="M520.33,-193C520.33,-193 457.18,-193 457.18,-193 451.18,-193 445.18,-187 445.18,-181 445.18,-181 445.18,-169 445.18,-169 445.18,-163 451.18,-157 457.18,-157 457.18,-157 520.33,-157 520.33,-157 526.33,-157 532.33,-163 532.33,-169 532.33,-169 532.33,-181 532.33,-181 532.33,-187 526.33,-193 520.33,-193"/>
<text xml:space="preserve" text-anchor="middle" x="488.75" y="-171.5" font-family="Helvetica,sans-Serif" font-size="10.00">gamma_in[0..15]</text>
</g>
<!-- gamma_in&#45;&gt;cand -->
<g id="edge2" class="edge">
<title>gamma_in&#45;&gt;cand</title>
<path fill="none" stroke="#475569" stroke-width="1.1" d="M532.72,-191.31C554.62,-199.62 576.7,-208 576.7,-208 576.7,-208 668.03,-252.24 725.39,-280.02"/>
<polygon fill="#475569" stroke="#475569" stroke-width="1.1" points="724.03,-282.08 731.4,-282.93 726.16,-277.67 724.03,-282.08"/>
</g>
<!-- state_out -->
<g id="node3" class="node">
<title>state_out</title>
<path fill="#f8fafc" stroke="#334155" d="M1059,-141C1059,-141 1005.6,-141 1005.6,-141 999.6,-141 993.6,-135 993.6,-129 993.6,-129 993.6,-117 993.6,-117 993.6,-111 999.6,-105 1005.6,-105 1005.6,-105 1059,-105 1059,-105 1065,-105 1071,-111 1071,-117 1071,-117 1071,-129 1071,-129 1071,-135 1065,-141 1059,-141"/>
<text xml:space="preserve" text-anchor="middle" x="1032.3" y="-119.5" font-family="Helvetica,sans-Serif" font-size="10.00">state_out[0..7]</text>
</g>
<!-- trellis -->
<g id="node4" class="node">
<title>trellis</title>
<path fill="#fdf2f8" stroke="#334155" d="M533.08,-323C533.08,-323 444.43,-323 444.43,-323 438.43,-323 432.43,-317 432.43,-311 432.43,-311 432.43,-299 432.43,-299 432.43,-293 438.43,-287 444.43,-287 444.43,-287 533.08,-287 533.08,-287 539.08,-287 545.08,-293 545.08,-299 545.08,-299 545.08,-311 545.08,-311 545.08,-317 539.08,-323 533.08,-323"/>
<text xml:space="preserve" text-anchor="middle" x="488.75" y="-307.5" font-family="Helvetica,sans-Serif" font-size="10.00">rsc_next_state()</text>
<text xml:space="preserve" text-anchor="middle" x="488.75" y="-295.5" font-family="Helvetica,sans-Serif" font-size="10.00">radix4_gamma_index()</text>
</g>
<!-- trellis&#45;&gt;cand -->
<g id="edge3" class="edge">
<title>trellis&#45;&gt;cand</title>
<path fill="none" stroke="#475569" stroke-width="1.1" d="M545.27,-304.41C582.16,-304.01 631.57,-303.49 674.74,-303.03"/>
<polygon fill="#475569" stroke="#475569" stroke-width="1.1" points="674.65,-305.48 681.62,-302.95 674.59,-300.58 674.65,-305.48"/>
<text xml:space="preserve" text-anchor="middle" x="625.2" y="-305.81" font-family="Helvetica,sans-Serif" font-size="9.00">path_s / path_g</text>
</g>
<!-- fwd_acc -->
<g id="node7" class="node">
<title>fwd_acc</title>
<path fill="#fdf2f8" stroke="#334155" d="M849.85,-414C849.85,-414 693.7,-414 693.7,-414 687.7,-414 681.7,-408 681.7,-402 681.7,-402 681.7,-390 681.7,-390 681.7,-384 687.7,-378 693.7,-378 693.7,-378 849.85,-378 849.85,-378 855.85,-378 861.85,-384 861.85,-390 861.85,-390 861.85,-402 861.85,-402 861.85,-408 855.85,-414 849.85,-414"/>
<text xml:space="preserve" text-anchor="middle" x="771.78" y="-398.5" font-family="Helvetica,sans-Serif" font-size="10.00">accumulate by end_s</text>
<text xml:space="preserve" text-anchor="middle" x="771.78" y="-386.5" font-family="Helvetica,sans-Serif" font-size="10.00">ret(end_s)=max(ret(end_s), candidate)</text>
</g>
<!-- trellis&#45;&gt;fwd_acc -->
<g id="edge8" class="edge">
<title>trellis&#45;&gt;fwd_acc</title>
<path fill="none" stroke="#475569" stroke-width="1.1" d="M545.27,-322.98C591.49,-337.94 657.35,-359.27 705.97,-375.02"/>
<polygon fill="#475569" stroke="#475569" stroke-width="1.1" points="704.93,-377.25 712.34,-377.08 706.44,-372.59 704.93,-377.25"/>
<text xml:space="preserve" text-anchor="middle" x="625.2" y="-360.6" font-family="Helvetica,sans-Serif" font-size="9.00">end_s</text>
</g>
<!-- cand&#45;&gt;fwd_acc -->
<g id="edge9" class="edge">
<title>cand&#45;&gt;fwd_acc</title>
<path fill="none" stroke="#475569" stroke-width="1.1" d="M771.78,-320.12C771.78,-334.08 771.78,-353.58 771.78,-369.31"/>
<polygon fill="#475569" stroke="#475569" stroke-width="1.1" points="769.33,-368.95 771.78,-375.95 774.23,-368.95 769.33,-368.95"/>
<text xml:space="preserve" text-anchor="middle" x="763.53" y="-345.7" font-family="Helvetica,sans-Serif" font-size="9.00">candidate</text>
</g>
<!-- bwd_max -->
<g id="node9" class="node">
<title>bwd_max</title>
<path fill="#fdf2f8" stroke="#334155" d="M556.7,-117C556.7,-117 420.8,-117 420.8,-117 414.8,-117 408.8,-111 408.8,-105 408.8,-105 408.8,-93 408.8,-93 408.8,-87 414.8,-81 420.8,-81 420.8,-81 556.7,-81 556.7,-81 562.7,-81 568.7,-87 568.7,-93 568.7,-93 568.7,-105 568.7,-105 568.7,-111 562.7,-117 556.7,-117"/>
<text xml:space="preserve" text-anchor="middle" x="488.75" y="-101.5" font-family="Helvetica,sans-Serif" font-size="10.00">m0,m1,m2,m3</text>
<text xml:space="preserve" text-anchor="middle" x="488.75" y="-89.5" font-family="Helvetica,sans-Serif" font-size="10.00">ret(s)=mod_max4(m0,m1,m2,m3)</text>
</g>
<!-- cand&#45;&gt;bwd_max -->
<g id="edge12" class="edge">
<title>cand&#45;&gt;bwd_max</title>
<path fill="none" stroke="#475569" stroke-width="1.1" d="M750.12,-283.62C717.24,-254.37 656.7,-200.5 656.7,-200.5 656.7,-200.5 576.7,-143 576.7,-143 576.7,-143 555.29,-132.17 533.72,-121.25"/>
<polygon fill="#475569" stroke="#475569" stroke-width="1.1" points="534.96,-119.13 527.61,-118.16 532.75,-123.5 534.96,-119.13"/>
<text xml:space="preserve" text-anchor="middle" x="625.2" y="-202.45" font-family="Helvetica,sans-Serif" font-size="9.00">m0..m3</text>
</g>
<!-- fwd_enum -->
<g id="node6" class="node">
<title>fwd_enum</title>
<path fill="#fdf2f8" stroke="#334155" d="M817.98,-487.32C817.98,-487.32 725.58,-487.32 725.58,-487.32 719.58,-487.32 713.58,-481.32 713.58,-475.32 713.58,-475.32 713.58,-454.68 713.58,-454.68 713.58,-448.68 719.58,-442.68 725.58,-442.68 725.58,-442.68 817.98,-442.68 817.98,-442.68 823.98,-442.68 829.98,-448.68 829.98,-454.68 829.98,-454.68 829.98,-475.32 829.98,-475.32 829.98,-481.32 823.98,-487.32 817.98,-487.32"/>
<text xml:space="preserve" text-anchor="middle" x="771.78" y="-473.5" font-family="Helvetica,sans-Serif" font-size="10.00">for each prev_s</text>
<text xml:space="preserve" text-anchor="middle" x="771.78" y="-461.5" font-family="Helvetica,sans-Serif" font-size="10.00">enumerate 4 input pairs</text>
<text xml:space="preserve" text-anchor="middle" x="771.78" y="-449.5" font-family="Helvetica,sans-Serif" font-size="10.00">(u0,u1)</text>
</g>
<!-- fwd_enum&#45;&gt;trellis -->
<g id="edge7" class="edge">
<title>fwd_enum&#45;&gt;trellis</title>
<path fill="none" stroke="#475569" stroke-width="1.1" d="M713.18,-443.64C692.28,-435.89 673.7,-429 673.7,-429 673.7,-429 593.7,-376 593.7,-376 593.7,-376 554.18,-349.01 523.88,-328.31"/>
<polygon fill="#475569" stroke="#475569" stroke-width="1.1" points="525.33,-326.33 518.17,-324.41 522.56,-330.38 525.33,-326.33"/>
<text xml:space="preserve" text-anchor="middle" x="625.2" y="-419.5" font-family="Helvetica,sans-Serif" font-size="9.00">prev_s,u0,u1</text>
</g>
<!-- fwd_acc&#45;&gt;state_out -->
<g id="edge10" class="edge">
<title>fwd_acc&#45;&gt;state_out</title>
<path fill="none" stroke="#475569" stroke-width="1.1" d="M825.57,-377.51C848.34,-369.53 869.85,-362 869.85,-362 869.85,-362 972.57,-209.94 1014.14,-148.4"/>
<polygon fill="#475569" stroke="#475569" stroke-width="1.1" points="1016.08,-149.91 1017.97,-142.74 1012.02,-147.17 1016.08,-149.91"/>
<text xml:space="preserve" text-anchor="middle" x="927.73" y="-334.34" font-family="Helvetica,sans-Serif" font-size="9.00">forward next metrics</text>
</g>
<!-- bwd_enum -->
<g id="node8" class="node">
<title>bwd_enum</title>
<path fill="#fdf2f8" stroke="#334155" d="M543.95,-52C543.95,-52 433.55,-52 433.55,-52 427.55,-52 421.55,-46 421.55,-40 421.55,-40 421.55,-28 421.55,-28 421.55,-22 427.55,-16 433.55,-16 433.55,-16 543.95,-16 543.95,-16 549.95,-16 555.95,-22 555.95,-28 555.95,-28 555.95,-40 555.95,-40 555.95,-46 549.95,-52 543.95,-52"/>
<text xml:space="preserve" text-anchor="middle" x="488.75" y="-36.5" font-family="Helvetica,sans-Serif" font-size="10.00">for each state s</text>
<text xml:space="preserve" text-anchor="middle" x="488.75" y="-24.5" font-family="Helvetica,sans-Serif" font-size="10.00">evaluate 4 successor paths</text>
</g>
<!-- bwd_enum&#45;&gt;trellis -->
<g id="edge11" class="edge">
<title>bwd_enum&#45;&gt;trellis</title>
<path fill="none" stroke="#475569" stroke-width="1.1" d="M439.63,-52.43C419.49,-59.99 400.8,-67 400.8,-67 400.8,-67 369.73,-164.75 369.73,-164.75 369.73,-164.75 369.73,-175.25 369.73,-175.25 369.73,-175.25 400.8,-273 400.8,-273 400.8,-273 413.91,-277.77 430,-283.62"/>
<polygon fill="#475569" stroke="#475569" stroke-width="1.1" points="429.12,-285.91 436.53,-286 430.79,-281.31 429.12,-285.91"/>
<text xml:space="preserve" text-anchor="middle" x="363.93" y="-166.7" font-family="Helvetica,sans-Serif" font-size="9.00">s,u0,u1</text>
</g>
<!-- bwd_max&#45;&gt;state_out -->
<g id="edge13" class="edge">
<title>bwd_max&#45;&gt;state_out</title>
<path fill="none" stroke="#475569" stroke-width="1.1" d="M569.08,-102.52C683.63,-107.59 891.79,-116.82 984.54,-120.93"/>
<polygon fill="#475569" stroke="#475569" stroke-width="1.1" points="984.38,-123.37 991.48,-121.24 984.6,-118.48 984.38,-123.37"/>
<text xml:space="preserve" text-anchor="middle" x="771.78" y="-117.64" font-family="Helvetica,sans-Serif" font-size="9.00">backward next metrics</text>
</g>
<!-- dir -->
<g id="node10" class="node">
<title>dir</title>
<path fill="#eff6ff" stroke="#334155" d="M307.05,-323C307.05,-323 247.65,-323 247.65,-323 241.65,-323 235.65,-317 235.65,-311 235.65,-311 235.65,-299 235.65,-299 235.65,-293 241.65,-287 247.65,-287 247.65,-287 307.05,-287 307.05,-287 313.05,-287 319.05,-293 319.05,-299 319.05,-299 319.05,-311 319.05,-311 319.05,-317 313.05,-323 307.05,-323"/>
<text xml:space="preserve" text-anchor="middle" x="277.35" y="-307.5" font-family="Helvetica,sans-Serif" font-size="10.00">direction control</text>
<text xml:space="preserve" text-anchor="middle" x="277.35" y="-295.5" font-family="Helvetica,sans-Serif" font-size="10.00">is_backward</text>
</g>
<!-- dir&#45;&gt;trellis -->
<g id="edge4" class="edge">
<title>dir&#45;&gt;trellis</title>
<path fill="none" stroke="#2563eb" stroke-width="1.1" stroke-dasharray="5,2" d="M319.22,-305C348.85,-305 389.5,-305 423.45,-305"/>
<polygon fill="#2563eb" stroke="#2563eb" stroke-width="1.1" points="423.26,-307.45 430.26,-305 423.26,-302.55 423.26,-307.45"/>
</g>
<!-- dir&#45;&gt;fwd_enum -->
<g id="edge5" class="edge">
<title>dir&#45;&gt;fwd_enum</title>
<path fill="none" stroke="#2563eb" stroke-width="1.1" stroke-dasharray="5,2" d="M317.77,-323.35C353.56,-340.01 400.8,-362 400.8,-362 400.8,-362 593.7,-435 593.7,-435 593.7,-435 654.61,-445.32 704.98,-453.85"/>
<polygon fill="#2563eb" stroke="#2563eb" stroke-width="1.1" points="704.33,-456.23 711.64,-454.98 705.15,-451.4 704.33,-456.23"/>
<text xml:space="preserve" text-anchor="middle" x="488.75" y="-430.12" font-family="Helvetica,sans-Serif" font-size="9.00">forward</text>
</g>
<!-- dir&#45;&gt;bwd_enum -->
<g id="edge6" class="edge">
<title>dir&#45;&gt;bwd_enum</title>
<path fill="none" stroke="#2563eb" stroke-width="1.1" stroke-dasharray="5,2" d="M286.02,-286.62C303.35,-245.08 344.05,-147.5 344.05,-147.5 344.05,-147.5 400.8,-67 400.8,-67 400.8,-67 414.69,-61.73 431.37,-55.4"/>
<polygon fill="#2563eb" stroke="#2563eb" stroke-width="1.1" points="431.96,-57.79 437.63,-53.02 430.22,-53.21 431.96,-57.79"/>
<text xml:space="preserve" text-anchor="middle" x="363.93" y="-149.45" font-family="Helvetica,sans-Serif" font-size="9.00">backward</text>
</g>
<!-- note0 -->
<g id="node11" class="node">
<title>note0</title>
<polygon fill="#fefce8" stroke="#eab308" points="178.65,-327.32 0,-327.32 0,-282.68 184.65,-282.68 184.65,-321.32 178.65,-327.32"/>
<polyline fill="none" stroke="#eab308" points="178.65,-327.32 178.65,-321.32"/>
<polyline fill="none" stroke="#eab308" points="184.65,-321.32 178.65,-321.32"/>
<text xml:space="preserve" text-anchor="middle" x="92.33" y="-313.5" font-family="Helvetica,sans-Serif" font-size="10.00">One shared ACS structure.</text>
<text xml:space="preserve" text-anchor="middle" x="92.33" y="-301.5" font-family="Helvetica,sans-Serif" font-size="10.00">Only the accumulation pattern changes</text>
<text xml:space="preserve" text-anchor="middle" x="92.33" y="-289.5" font-family="Helvetica,sans-Serif" font-size="10.00">between forward and backward.</text>
</g>
<!-- note0&#45;&gt;dir -->
<g id="edge14" class="edge">
<title>note0&#45;&gt;dir</title>
<path fill="none" stroke="#a16207" stroke-width="1.1" stroke-dasharray="1,5" d="M185.11,-305C202.77,-305 220.41,-305 235.42,-305"/>
</g>
</g>
</svg>
