<?xml version="1.0" encoding="UTF-8" standalone="no"?>
<!DOCTYPE svg PUBLIC "-//W3C//DTD SVG 1.1//EN"
 "http://www.w3.org/Graphics/SVG/1.1/DTD/svg11.dtd">
<!-- Generated by graphviz version 14.1.2 (0)
 -->
<!-- Title: siso_llr_extract Pages: 1 -->
<svg width="1907pt" height="437pt"
 viewBox="0.00 0.00 1907.00 437.00" xmlns="http://www.w3.org/2000/svg" xmlns:xlink="http://www.w3.org/1999/xlink">
<g id="graph0" class="graph" transform="scale(1 1) rotate(0) translate(14.4 422.65)">
<title>siso_llr_extract</title>
<polygon fill="white" stroke="none" points="-14.4,14.4 -14.4,-422.65 1892.55,-422.65 1892.55,14.4 -14.4,14.4"/>
<text xml:space="preserve" text-anchor="middle" x="939.08" y="-390.95" font-family="Helvetica,sans-Serif" font-size="14.00">siso_maxlogmap LLR Extraction Unit</text>
<g id="clust1" class="cluster">
<title>cluster_bmu</title>
<path fill="white" stroke="#fcd34d" d="M130.15,-52C130.15,-52 294.65,-52 294.65,-52 300.65,-52 306.65,-58 306.65,-64 306.65,-64 306.65,-181 306.65,-181 306.65,-187 300.65,-193 294.65,-193 294.65,-193 130.15,-193 130.15,-193 124.15,-193 118.15,-187 118.15,-181 118.15,-181 118.15,-64 118.15,-64 118.15,-58 124.15,-52 130.15,-52"/>
<text xml:space="preserve" text-anchor="middle" x="212.4" y="-175.7" font-family="Helvetica,sans-Serif" font-size="14.00">Recompute Single&#45;Bit BMUs</text>
</g>
<g id="clust2" class="cluster">
<title>cluster_mid</title>
<path fill="white" stroke="#67e8f9" d="M388.65,-174C388.65,-174 532.9,-174 532.9,-174 538.9,-174 544.9,-180 544.9,-186 544.9,-186 544.9,-303 544.9,-303 544.9,-309 538.9,-315 532.9,-315 532.9,-315 388.65,-315 388.65,-315 382.65,-315 376.65,-309 376.65,-303 376.65,-303 376.65,-186 376.65,-186 376.65,-180 382.65,-174 388.65,-174"/>
<text xml:space="preserve" text-anchor="middle" x="460.78" y="-297.7" font-family="Helvetica,sans-Serif" font-size="14.00">Mid&#45;State Reconstruction</text>
</g>
<g id="clust3" class="cluster">
<title>cluster_max</title>
<path fill="white" stroke="#a7f3d0" d="M689.53,-161C689.53,-161 845.18,-161 845.18,-161 851.18,-161 857.18,-167 857.18,-173 857.18,-173 857.18,-307 857.18,-307 857.18,-313 851.18,-319 845.18,-319 845.18,-319 689.53,-319 689.53,-319 683.53,-319 677.53,-313 677.53,-307 677.53,-307 677.53,-173 677.53,-173 677.53,-167 683.53,-161 689.53,-161"/>
<text xml:space="preserve" text-anchor="middle" x="767.35" y="-301.7" font-family="Helvetica,sans-Serif" font-size="14.00">Decision Max Trees</text>
</g>
<g id="clust4" class="cluster">
<title>cluster_sub</title>
<path fill="white" stroke="#c4b5fd" d="M1006.3,-39C1006.3,-39 1638.75,-39 1638.75,-39 1644.75,-39 1650.75,-45 1650.75,-51 1650.75,-51 1650.75,-168 1650.75,-168 1650.75,-174 1644.75,-180 1638.75,-180 1638.75,-180 1006.3,-180 1006.3,-180 1000.3,-180 994.3,-174 994.3,-168 994.3,-168 994.3,-51 994.3,-51 994.3,-45 1000.3,-39 1006.3,-39"/>
<text xml:space="preserve" text-anchor="middle" x="1322.53" y="-162.7" font-family="Helvetica,sans-Serif" font-size="14.00">Posterior / Extrinsic Arithmetic</text>
</g>
<!-- in_state -->
<g id="node1" class="node">
<title>in_state</title>
<path fill="#f8fafc" stroke="#334155" d="M236.35,-351C236.35,-351 187.45,-351 187.45,-351 181.45,-351 175.45,-345 175.45,-339 175.45,-339 175.45,-327 175.45,-327 175.45,-321 181.45,-315 187.45,-315 187.45,-315 236.35,-315 236.35,-315 242.35,-315 248.35,-321 248.35,-327 248.35,-327 248.35,-339 248.35,-339 248.35,-345 242.35,-351 236.35,-351"/>
<text xml:space="preserve" text-anchor="middle" x="211.9" y="-335.5" font-family="Helvetica,sans-Serif" font-size="10.00">alpha_in[0..7]</text>
<text xml:space="preserve" text-anchor="middle" x="211.9" y="-323.5" font-family="Helvetica,sans-Serif" font-size="10.00">beta_in[0..7]</text>
</g>
<!-- alpha_mid -->
<g id="node6" class="node">
<title>alpha_mid</title>
<path fill="#ecfeff" stroke="#334155" d="M506.48,-283C506.48,-283 414.08,-283 414.08,-283 408.08,-283 402.08,-277 402.08,-271 402.08,-271 402.08,-259 402.08,-259 402.08,-253 408.08,-247 414.08,-247 414.08,-247 506.48,-247 506.48,-247 512.48,-247 518.48,-253 518.48,-259 518.48,-259 518.48,-271 518.48,-271 518.48,-277 512.48,-283 506.48,-283"/>
<text xml:space="preserve" text-anchor="middle" x="460.28" y="-267.5" font-family="Helvetica,sans-Serif" font-size="10.00">alpha_mid(mid_s)</text>
<text xml:space="preserve" text-anchor="middle" x="460.28" y="-255.5" font-family="Helvetica,sans-Serif" font-size="10.00">max over alpha_in + g0</text>
</g>
<!-- in_state&#45;&gt;alpha_mid -->
<g id="edge3" class="edge">
<title>in_state&#45;&gt;alpha_mid</title>
<path fill="none" stroke="#475569" stroke-width="1.1" d="M248.73,-323.11C286.62,-312.65 347.24,-295.92 393.73,-283.09"/>
<polygon fill="#475569" stroke="#475569" stroke-width="1.1" points="394.24,-285.49 400.33,-281.27 392.94,-280.77 394.24,-285.49"/>
<text xml:space="preserve" text-anchor="middle" x="341.65" y="-302.99" font-family="Helvetica,sans-Serif" font-size="9.00">alpha_in</text>
</g>
<!-- beta_mid -->
<g id="node7" class="node">
<title>beta_mid</title>
<path fill="#ecfeff" stroke="#334155" d="M504.23,-218C504.23,-218 416.33,-218 416.33,-218 410.33,-218 404.33,-212 404.33,-206 404.33,-206 404.33,-194 404.33,-194 404.33,-188 410.33,-182 416.33,-182 416.33,-182 504.23,-182 504.23,-182 510.23,-182 516.23,-188 516.23,-194 516.23,-194 516.23,-206 516.23,-206 516.23,-212 510.23,-218 504.23,-218"/>
<text xml:space="preserve" text-anchor="middle" x="460.28" y="-202.5" font-family="Helvetica,sans-Serif" font-size="10.00">beta_mid(start_s)</text>
<text xml:space="preserve" text-anchor="middle" x="460.28" y="-190.5" font-family="Helvetica,sans-Serif" font-size="10.00">max over g1 + beta_in</text>
</g>
<!-- in_state&#45;&gt;beta_mid -->
<g id="edge4" class="edge">
<title>in_state&#45;&gt;beta_mid</title>
<path fill="none" stroke="#475569" stroke-width="1.1" d="M242.93,-314.66C290.21,-285.79 376.65,-233 376.65,-233 376.65,-233 389.61,-227.82 405.27,-221.57"/>
<polygon fill="#475569" stroke="#475569" stroke-width="1.1" points="405.99,-223.92 411.58,-219.05 404.18,-219.37 405.99,-223.92"/>
<text xml:space="preserve" text-anchor="middle" x="341.65" y="-267.3" font-family="Helvetica,sans-Serif" font-size="9.00">beta_in</text>
</g>
<!-- even_max -->
<g id="node8" class="node">
<title>even_max</title>
<path fill="#f0fdf4" stroke="#334155" d="M837.18,-213.32C837.18,-213.32 697.53,-213.32 697.53,-213.32 691.53,-213.32 685.53,-207.32 685.53,-201.32 685.53,-201.32 685.53,-180.68 685.53,-180.68 685.53,-174.68 691.53,-168.68 697.53,-168.68 697.53,-168.68 837.18,-168.68 837.18,-168.68 843.18,-168.68 849.18,-174.68 849.18,-180.68 849.18,-180.68 849.18,-201.32 849.18,-201.32 849.18,-207.32 843.18,-213.32 837.18,-213.32"/>
<text xml:space="preserve" text-anchor="middle" x="767.35" y="-199.5" font-family="Helvetica,sans-Serif" font-size="10.00">Even&#45;bit max tree</text>
<text xml:space="preserve" text-anchor="middle" x="767.35" y="-187.5" font-family="Helvetica,sans-Serif" font-size="10.00">metric = alpha_in + g0 + beta_mid</text>
<text xml:space="preserve" text-anchor="middle" x="767.35" y="-175.5" font-family="Helvetica,sans-Serif" font-size="10.00">outputs max0_u0, max1_u0</text>
</g>
<!-- in_state&#45;&gt;even_max -->
<g id="edge7" class="edge">
<title>in_state&#45;&gt;even_max</title>
<path fill="none" stroke="#475569" stroke-width="1.1" d="M248.75,-331.49C334.59,-327.87 544.9,-319 544.9,-319 544.9,-319 640.65,-283 640.65,-283 640.65,-283 665.65,-228 665.65,-228 665.65,-228 679.13,-223.05 696.22,-216.77"/>
<polygon fill="#475569" stroke="#475569" stroke-width="1.1" points="697.01,-219.09 702.73,-214.37 695.32,-214.49 697.01,-219.09"/>
<text xml:space="preserve" text-anchor="middle" x="460.28" y="-327.95" font-family="Helvetica,sans-Serif" font-size="9.00">alpha_in</text>
</g>
<!-- odd_max -->
<g id="node9" class="node">
<title>odd_max</title>
<path fill="#f0fdf4" stroke="#334155" d="M837.18,-287.32C837.18,-287.32 697.53,-287.32 697.53,-287.32 691.53,-287.32 685.53,-281.32 685.53,-275.32 685.53,-275.32 685.53,-254.68 685.53,-254.68 685.53,-248.68 691.53,-242.68 697.53,-242.68 697.53,-242.68 837.18,-242.68 837.18,-242.68 843.18,-242.68 849.18,-248.68 849.18,-254.68 849.18,-254.68 849.18,-275.32 849.18,-275.32 849.18,-281.32 843.18,-287.32 837.18,-287.32"/>
<text xml:space="preserve" text-anchor="middle" x="767.35" y="-273.5" font-family="Helvetica,sans-Serif" font-size="10.00">Odd&#45;bit max tree</text>
<text xml:space="preserve" text-anchor="middle" x="767.35" y="-261.5" font-family="Helvetica,sans-Serif" font-size="10.00">metric = alpha_mid + g1 + beta_in</text>
<text xml:space="preserve" text-anchor="middle" x="767.35" y="-249.5" font-family="Helvetica,sans-Serif" font-size="10.00">outputs max0_u1, max1_u1</text>
</g>
<!-- in_state&#45;&gt;odd_max -->
<g id="edge11" class="edge">
<title>in_state&#45;&gt;odd_max</title>
<path fill="none" stroke="#475569" stroke-width="1.1" d="M248.55,-346.2C280.93,-358.18 323.65,-374 323.65,-374 323.65,-374 640.65,-374 640.65,-374 640.65,-374 696.8,-325.31 734.05,-293.01"/>
<polygon fill="#475569" stroke="#475569" stroke-width="1.1" points="735.36,-295.11 739.05,-288.68 732.15,-291.41 735.36,-295.11"/>
<text xml:space="preserve" text-anchor="middle" x="460.28" y="-375.95" font-family="Helvetica,sans-Serif" font-size="9.00">beta_in</text>
</g>
<!-- in_pair -->
<g id="node2" class="node">
<title>in_pair</title>
<path fill="#f8fafc" stroke="#334155" d="M63.15,-100.32C63.15,-100.32 12,-100.32 12,-100.32 6,-100.32 0,-94.32 0,-88.32 0,-88.32 0,-67.68 0,-67.68 0,-61.68 6,-55.68 12,-55.68 12,-55.68 63.15,-55.68 63.15,-55.68 69.15,-55.68 75.15,-61.68 75.15,-67.68 75.15,-67.68 75.15,-88.32 75.15,-88.32 75.15,-94.32 69.15,-100.32 63.15,-100.32"/>
<text xml:space="preserve" text-anchor="middle" x="37.58" y="-86.5" font-family="Helvetica,sans-Serif" font-size="10.00">sys_even/odd</text>
<text xml:space="preserve" text-anchor="middle" x="37.58" y="-74.5" font-family="Helvetica,sans-Serif" font-size="10.00">par_even/odd</text>
<text xml:space="preserve" text-anchor="middle" x="37.58" y="-62.5" font-family="Helvetica,sans-Serif" font-size="10.00">apri_even/odd</text>
</g>
<!-- g0 -->
<g id="node4" class="node">
<title>g0</title>
<path fill="#fffbeb" stroke="#334155" d="M254.73,-161C254.73,-161 169.08,-161 169.08,-161 163.08,-161 157.08,-155 157.08,-149 157.08,-149 157.08,-137 157.08,-137 157.08,-131 163.08,-125 169.08,-125 169.08,-125 254.73,-125 254.73,-125 260.73,-125 266.73,-131 266.73,-137 266.73,-137 266.73,-149 266.73,-149 266.73,-155 260.73,-161 254.73,-161"/>
<text xml:space="preserve" text-anchor="middle" x="211.9" y="-145.5" font-family="Helvetica,sans-Serif" font-size="10.00">g0 = branch_metrics()</text>
<text xml:space="preserve" text-anchor="middle" x="211.9" y="-133.5" font-family="Helvetica,sans-Serif" font-size="10.00">even bit</text>
</g>
<!-- in_pair&#45;&gt;g0 -->
<g id="edge1" class="edge">
<title>in_pair&#45;&gt;g0</title>
<path fill="none" stroke="#475569" stroke-width="1.1" d="M75.57,-93.34C96.35,-101.96 118.15,-111 118.15,-111 118.15,-111 132.23,-115.86 149.41,-121.78"/>
<polygon fill="#475569" stroke="#475569" stroke-width="1.1" points="148.49,-124.06 155.91,-124.03 150.09,-119.43 148.49,-124.06"/>
</g>
<!-- g1 -->
<g id="node5" class="node">
<title>g1</title>
<path fill="#fffbeb" stroke="#334155" d="M254.73,-96C254.73,-96 169.08,-96 169.08,-96 163.08,-96 157.08,-90 157.08,-84 157.08,-84 157.08,-72 157.08,-72 157.08,-66 163.08,-60 169.08,-60 169.08,-60 254.73,-60 254.73,-60 260.73,-60 266.73,-66 266.73,-72 266.73,-72 266.73,-84 266.73,-84 266.73,-90 260.73,-96 254.73,-96"/>
<text xml:space="preserve" text-anchor="middle" x="211.9" y="-80.5" font-family="Helvetica,sans-Serif" font-size="10.00">g1 = branch_metrics()</text>
<text xml:space="preserve" text-anchor="middle" x="211.9" y="-68.5" font-family="Helvetica,sans-Serif" font-size="10.00">odd bit</text>
</g>
<!-- in_pair&#45;&gt;g1 -->
<g id="edge2" class="edge">
<title>in_pair&#45;&gt;g1</title>
<path fill="none" stroke="#475569" stroke-width="1.1" d="M75.54,-78C96.69,-78 123.77,-78 148.15,-78"/>
<polygon fill="#475569" stroke="#475569" stroke-width="1.1" points="147.98,-80.45 154.98,-78 147.98,-75.55 147.98,-80.45"/>
</g>
<!-- ext_sub -->
<g id="node11" class="node">
<title>ext_sub</title>
<path fill="#f5f3ff" stroke="#334155" d="M1421.6,-148C1421.6,-148 1274.45,-148 1274.45,-148 1268.45,-148 1262.45,-142 1262.45,-136 1262.45,-136 1262.45,-124 1262.45,-124 1262.45,-118 1268.45,-112 1274.45,-112 1274.45,-112 1421.6,-112 1421.6,-112 1427.6,-112 1433.6,-118 1433.6,-124 1433.6,-124 1433.6,-136 1433.6,-136 1433.6,-142 1427.6,-148 1421.6,-148"/>
<text xml:space="preserve" text-anchor="middle" x="1348.03" y="-132.5" font-family="Helvetica,sans-Serif" font-size="10.00">ext0 = post0 &#45; sys_even &#45; apri_even</text>
<text xml:space="preserve" text-anchor="middle" x="1348.03" y="-120.5" font-family="Helvetica,sans-Serif" font-size="10.00">ext1 = post1 &#45; sys_odd &#160;&#45; apri_odd</text>
</g>
<!-- in_pair&#45;&gt;ext_sub -->
<g id="edge17" class="edge">
<title>in_pair&#45;&gt;ext_sub</title>
<path fill="none" stroke="#475569" stroke-width="1.1" d="M75.54,-61.27C126.18,-38.35 210.9,0 210.9,0 210.9,0 210.9,0 1072.75,0 1072.75,0 1237.45,-85 1237.45,-85 1237.45,-85 1262.45,-98 1262.45,-98 1262.45,-98 1275.05,-102.77 1290.53,-108.62"/>
<polygon fill="#475569" stroke="#475569" stroke-width="1.1" points="1289.35,-110.8 1296.76,-110.98 1291.08,-106.21 1289.35,-110.8"/>
<text xml:space="preserve" text-anchor="middle" x="601.28" y="-1.95" font-family="Helvetica,sans-Serif" font-size="9.00">sys/apri subtraction</text>
</g>
<!-- out_pair -->
<g id="node3" class="node">
<title>out_pair</title>
<path fill="#f8fafc" stroke="#334155" d="M1866.15,-106C1866.15,-106 1782,-106 1782,-106 1776,-106 1770,-100 1770,-94 1770,-94 1770,-82 1770,-82 1770,-76 1776,-70 1782,-70 1782,-70 1866.15,-70 1866.15,-70 1872.15,-70 1878.15,-76 1878.15,-82 1878.15,-82 1878.15,-94 1878.15,-94 1878.15,-100 1872.15,-106 1866.15,-106"/>
<text xml:space="preserve" text-anchor="middle" x="1824.08" y="-90.5" font-family="Helvetica,sans-Serif" font-size="10.00">post_even / post_odd</text>
<text xml:space="preserve" text-anchor="middle" x="1824.08" y="-78.5" font-family="Helvetica,sans-Serif" font-size="10.00">ext_even / ext_odd</text>
</g>
<!-- g0&#45;&gt;alpha_mid -->
<g id="edge5" class="edge">
<title>g0&#45;&gt;alpha_mid</title>
<path fill="none" stroke="#475569" stroke-width="1.1" d="M246.94,-161.32C290.29,-184.66 359.65,-222 359.65,-222 359.65,-222 376.65,-233 376.65,-233 376.65,-233 388.74,-237.68 403.67,-243.47"/>
<polygon fill="#475569" stroke="#475569" stroke-width="1.1" points="402.73,-245.73 410.14,-245.97 404.5,-241.16 402.73,-245.73"/>
</g>
<!-- g0&#45;&gt;even_max -->
<g id="edge9" class="edge">
<title>g0&#45;&gt;even_max</title>
<path fill="none" stroke="#475569" stroke-width="1.1" d="M266.98,-145.2C361.06,-149.02 544.9,-156.5 544.9,-156.5 544.9,-156.5 615.47,-167.49 676.93,-177.07"/>
<polygon fill="#475569" stroke="#475569" stroke-width="1.1" points="676.21,-179.44 683.5,-178.09 676.96,-174.59 676.21,-179.44"/>
<text xml:space="preserve" text-anchor="middle" x="460.28" y="-158.45" font-family="Helvetica,sans-Serif" font-size="9.00">g0</text>
</g>
<!-- g1&#45;&gt;beta_mid -->
<g id="edge6" class="edge">
<title>g1&#45;&gt;beta_mid</title>
<path fill="none" stroke="#475569" stroke-width="1.1" d="M265.26,-96.43C286.73,-103.99 306.65,-111 306.65,-111 306.65,-111 376.65,-160 376.65,-160 376.65,-160 394.56,-168.67 413.7,-177.94"/>
<polygon fill="#475569" stroke="#475569" stroke-width="1.1" points="412.48,-180.07 419.85,-180.91 414.62,-175.66 412.48,-180.07"/>
</g>
<!-- g1&#45;&gt;odd_max -->
<g id="edge12" class="edge">
<title>g1&#45;&gt;odd_max</title>
<path fill="none" stroke="#475569" stroke-width="1.1" d="M266.98,-86.88C361.06,-102.32 544.9,-132.5 544.9,-132.5 544.9,-132.5 561.9,-203 561.9,-203 561.9,-203 626.52,-222.6 683.1,-239.75"/>
<polygon fill="#475569" stroke="#475569" stroke-width="1.1" points="682.38,-242.1 689.79,-241.78 683.8,-237.41 682.38,-242.1"/>
<text xml:space="preserve" text-anchor="middle" x="460.28" y="-134.45" font-family="Helvetica,sans-Serif" font-size="9.00">g1</text>
</g>
<!-- alpha_mid&#45;&gt;odd_max -->
<g id="edge10" class="edge">
<title>alpha_mid&#45;&gt;odd_max</title>
<path fill="none" stroke="#475569" stroke-width="1.1" d="M518.66,-265C563.13,-265 625.57,-265 676.63,-265"/>
<polygon fill="#475569" stroke="#475569" stroke-width="1.1" points="676.38,-267.45 683.38,-265 676.38,-262.55 676.38,-267.45"/>
<text xml:space="preserve" text-anchor="middle" x="601.28" y="-266.95" font-family="Helvetica,sans-Serif" font-size="9.00">alpha_mid</text>
</g>
<!-- beta_mid&#45;&gt;even_max -->
<g id="edge8" class="edge">
<title>beta_mid&#45;&gt;even_max</title>
<path fill="none" stroke="#475569" stroke-width="1.1" d="M516.52,-198.37C561.09,-197.06 624.67,-195.18 676.54,-193.65"/>
<polygon fill="#475569" stroke="#475569" stroke-width="1.1" points="676.5,-196.1 683.42,-193.45 676.35,-191.2 676.5,-196.1"/>
<text xml:space="preserve" text-anchor="middle" x="601.28" y="-198.78" font-family="Helvetica,sans-Serif" font-size="9.00">beta_mid</text>
</g>
<!-- post_sub -->
<g id="node10" class="node">
<title>post_sub</title>
<path fill="#f5f3ff" stroke="#334155" d="M1129.2,-148C1129.2,-148 1014.3,-148 1014.3,-148 1008.3,-148 1002.3,-142 1002.3,-136 1002.3,-136 1002.3,-124 1002.3,-124 1002.3,-118 1008.3,-112 1014.3,-112 1014.3,-112 1129.2,-112 1129.2,-112 1135.2,-112 1141.2,-118 1141.2,-124 1141.2,-124 1141.2,-136 1141.2,-136 1141.2,-142 1135.2,-148 1129.2,-148"/>
<text xml:space="preserve" text-anchor="middle" x="1071.75" y="-132.5" font-family="Helvetica,sans-Serif" font-size="10.00">post0 = max1_u0 &#45; max0_u0</text>
<text xml:space="preserve" text-anchor="middle" x="1071.75" y="-120.5" font-family="Helvetica,sans-Serif" font-size="10.00">post1 = max1_u1 &#45; max0_u1</text>
</g>
<!-- even_max&#45;&gt;post_sub -->
<g id="edge13" class="edge">
<title>even_max&#45;&gt;post_sub</title>
<path fill="none" stroke="#475569" stroke-width="1.1" d="M849.39,-174.65C894.26,-165.6 949.72,-154.41 993.9,-145.5"/>
<polygon fill="#475569" stroke="#475569" stroke-width="1.1" points="994.29,-147.92 1000.67,-144.14 993.32,-143.12 994.29,-147.92"/>
<text xml:space="preserve" text-anchor="middle" x="935.68" y="-166.1" font-family="Helvetica,sans-Serif" font-size="9.00">max0_u0 / max1_u0</text>
</g>
<!-- odd_max&#45;&gt;post_sub -->
<g id="edge14" class="edge">
<title>odd_max&#45;&gt;post_sub</title>
<path fill="none" stroke="#475569" stroke-width="1.1" d="M830.4,-242.2C851.13,-234.59 869.05,-228 869.05,-228 869.05,-228 977.3,-182 977.3,-182 977.3,-182 1004.95,-166.61 1030.17,-152.58"/>
<polygon fill="#475569" stroke="#475569" stroke-width="1.1" points="1031.16,-154.83 1036.09,-149.29 1028.78,-150.55 1031.16,-154.83"/>
<text xml:space="preserve" text-anchor="middle" x="935.68" y="-218.83" font-family="Helvetica,sans-Serif" font-size="9.00">max0_u1 / max1_u1</text>
</g>
<!-- post_sub&#45;&gt;ext_sub -->
<g id="edge16" class="edge">
<title>post_sub&#45;&gt;ext_sub</title>
<path fill="none" stroke="#475569" stroke-width="1.1" d="M1141.61,-130C1175.61,-130 1217.14,-130 1253.93,-130"/>
<polygon fill="#475569" stroke="#475569" stroke-width="1.1" points="1253.53,-132.45 1260.53,-130 1253.53,-127.55 1253.53,-132.45"/>
<text xml:space="preserve" text-anchor="middle" x="1201.83" y="-131.95" font-family="Helvetica,sans-Serif" font-size="9.00">post0_v / post1_v</text>
</g>
<!-- sat_post -->
<g id="node13" class="node">
<title>sat_post</title>
<path fill="#f5f3ff" stroke="#334155" d="M1387.85,-83C1387.85,-83 1308.2,-83 1308.2,-83 1302.2,-83 1296.2,-77 1296.2,-71 1296.2,-71 1296.2,-59 1296.2,-59 1296.2,-53 1302.2,-47 1308.2,-47 1308.2,-47 1387.85,-47 1387.85,-47 1393.85,-47 1399.85,-53 1399.85,-59 1399.85,-59 1399.85,-71 1399.85,-71 1399.85,-77 1393.85,-83 1387.85,-83"/>
<text xml:space="preserve" text-anchor="middle" x="1348.03" y="-61.5" font-family="Helvetica,sans-Serif" font-size="10.00">metric_to_post_sat()</text>
</g>
<!-- post_sub&#45;&gt;sat_post -->
<g id="edge15" class="edge">
<title>post_sub&#45;&gt;sat_post</title>
<path fill="none" stroke="#475569" stroke-width="1.1" d="M1141.61,-113.68C1186.53,-103.03 1244.59,-89.28 1287.51,-79.1"/>
<polygon fill="#475569" stroke="#475569" stroke-width="1.1" points="1288.02,-81.5 1294.27,-77.5 1286.89,-76.73 1288.02,-81.5"/>
<text xml:space="preserve" text-anchor="middle" x="1201.83" y="-109.07" font-family="Helvetica,sans-Serif" font-size="9.00">post0_v / post1_v</text>
</g>
<!-- scale -->
<g id="node12" class="node">
<title>scale</title>
<path fill="#f5f3ff" stroke="#334155" d="M1630.75,-148.32C1630.75,-148.32 1556.35,-148.32 1556.35,-148.32 1550.35,-148.32 1544.35,-142.32 1544.35,-136.32 1544.35,-136.32 1544.35,-115.68 1544.35,-115.68 1544.35,-109.68 1550.35,-103.68 1556.35,-103.68 1556.35,-103.68 1630.75,-103.68 1630.75,-103.68 1636.75,-103.68 1642.75,-109.68 1642.75,-115.68 1642.75,-115.68 1642.75,-136.32 1642.75,-136.32 1642.75,-142.32 1636.75,-148.32 1630.75,-148.32"/>
<text xml:space="preserve" text-anchor="middle" x="1593.55" y="-134.5" font-family="Helvetica,sans-Serif" font-size="10.00">scale_ext()</text>
<text xml:space="preserve" text-anchor="middle" x="1593.55" y="-122.5" font-family="Helvetica,sans-Serif" font-size="10.00">(8x + 2x + x) &gt;&gt; 4</text>
<text xml:space="preserve" text-anchor="middle" x="1593.55" y="-110.5" font-family="Helvetica,sans-Serif" font-size="10.00">saturate to ext_llr_t</text>
</g>
<!-- ext_sub&#45;&gt;scale -->
<g id="edge18" class="edge">
<title>ext_sub&#45;&gt;scale</title>
<path fill="none" stroke="#475569" stroke-width="1.1" d="M1433.86,-128.61C1467.61,-128.05 1505.54,-127.43 1535.86,-126.93"/>
<polygon fill="#475569" stroke="#475569" stroke-width="1.1" points="1535.57,-129.39 1542.53,-126.82 1535.49,-124.49 1535.57,-129.39"/>
<text xml:space="preserve" text-anchor="middle" x="1488.98" y="-130.07" font-family="Helvetica,sans-Serif" font-size="9.00">ext0_v / ext1_v</text>
</g>
<!-- scale&#45;&gt;out_pair -->
<g id="edge20" class="edge">
<title>scale&#45;&gt;out_pair</title>
<path fill="none" stroke="#475569" stroke-width="1.1" d="M1643.01,-117.94C1677.61,-112.19 1724.41,-104.41 1761.62,-98.22"/>
<polygon fill="#475569" stroke="#475569" stroke-width="1.1" points="1761.75,-100.68 1768.25,-97.12 1760.94,-95.85 1761.75,-100.68"/>
<text xml:space="preserve" text-anchor="middle" x="1706.38" y="-115.66" font-family="Helvetica,sans-Serif" font-size="9.00">ext_even / ext_odd</text>
</g>
<!-- sat_post&#45;&gt;out_pair -->
<g id="edge19" class="edge">
<title>sat_post&#45;&gt;out_pair</title>
<path fill="none" stroke="#475569" stroke-width="1.1" d="M1400.21,-67.29C1486.29,-71.14 1650.75,-78.5 1650.75,-78.5 1650.75,-78.5 1712.04,-81.88 1761.51,-84.61"/>
<polygon fill="#475569" stroke="#475569" stroke-width="1.1" points="1761.18,-87.04 1768.3,-84.98 1761.45,-82.15 1761.18,-87.04"/>
<text xml:space="preserve" text-anchor="middle" x="1593.55" y="-80.45" font-family="Helvetica,sans-Serif" font-size="9.00">post_even / post_odd</text>
</g>
<!-- note0 -->
<g id="node14" class="node">
<title>note0</title>
<polygon fill="#fefce8" stroke="#eab308" points="863.05,-139.32 665.65,-139.32 665.65,-94.68 869.05,-94.68 869.05,-133.32 863.05,-139.32"/>
<polyline fill="none" stroke="#eab308" points="863.05,-139.32 863.05,-133.32"/>
<polyline fill="none" stroke="#eab308" points="869.05,-133.32 863.05,-133.32"/>
<text xml:space="preserve" text-anchor="middle" x="767.35" y="-125.5" font-family="Helvetica,sans-Serif" font-size="10.00">`extract_pair` is not one comparator.</text>
<text xml:space="preserve" text-anchor="middle" x="767.35" y="-113.5" font-family="Helvetica,sans-Serif" font-size="10.00">It contains midpoint reconstruction,</text>
<text xml:space="preserve" text-anchor="middle" x="767.35" y="-101.5" font-family="Helvetica,sans-Serif" font-size="10.00">two max trees, and two subtraction stages.</text>
</g>
<!-- note0&#45;&gt;post_sub -->
<g id="edge21" class="edge">
<title>note0&#45;&gt;post_sub</title>
<path fill="none" stroke="#a16207" stroke-width="1.1" stroke-dasharray="1,5" d="M869.47,-121.35C913.08,-123.22 962.96,-125.37 1002.15,-127.05"/>
</g>
</g>
</svg>
