<?xml version="1.0" encoding="UTF-8" standalone="no"?>
<!DOCTYPE svg PUBLIC "-//W3C//DTD SVG 1.1//EN"
 "http://www.w3.org/Graphics/SVG/1.1/DTD/svg11.dtd">
<!-- Generated by graphviz version 14.1.2 (0)
 -->
<!-- Title: G Pages: 1 -->
<svg width="487pt" height="461pt"
 viewBox="0.00 0.00 487.00 461.00" xmlns="http://www.w3.org/2000/svg" xmlns:xlink="http://www.w3.org/1999/xlink">
<g id="graph0" class="graph" transform="scale(1 1) rotate(0) translate(4 456.75)">
<title>G</title>
<polygon fill="white" stroke="none" points="-4,4 -4,-456.75 482.75,-456.75 482.75,4 -4,4"/>
<text xml:space="preserve" text-anchor="middle" x="239.38" y="-429.75" font-family="Helvetica,sans-Serif" font-size="20.00">siso_maxlogmap &#45; Precomputed LLR Extraction Unit</text>
<!-- in0 -->
<g id="node1" class="node">
<title>in0</title>
<path fill="#fff2cc" stroke="#555555" d="M168.62,-356.5C168.62,-356.5 201.12,-356.5 201.12,-356.5 207.12,-356.5 213.12,-362.5 213.12,-368.5 213.12,-368.5 213.12,-409 213.12,-409 213.12,-415 207.12,-421 201.12,-421 201.12,-421 168.62,-421 168.62,-421 162.62,-421 156.62,-415 156.62,-409 156.62,-409 156.62,-368.5 156.62,-368.5 156.62,-362.5 162.62,-356.5 168.62,-356.5"/>
<text xml:space="preserve" text-anchor="middle" x="184.88" y="-406.55" font-family="Helvetica,sans-Serif" font-size="11.00">Inputs</text>
<polyline fill="none" stroke="#555555" points="156.62,-399.5 213.12,-399.5"/>
<text xml:space="preserve" text-anchor="middle" x="184.88" y="-385.05" font-family="Helvetica,sans-Serif" font-size="11.00">alpha_in</text>
<polyline fill="none" stroke="#555555" points="156.62,-378 213.12,-378"/>
<text xml:space="preserve" text-anchor="middle" x="184.88" y="-363.55" font-family="Helvetica,sans-Serif" font-size="11.00">beta_in</text>
</g>
<!-- amid -->
<g id="node4" class="node">
<title>amid</title>
<path fill="#d9ead3" stroke="#555555" d="M121.88,-283.5C121.88,-283.5 233.88,-283.5 233.88,-283.5 239.88,-283.5 245.88,-289.5 245.88,-295.5 245.88,-295.5 245.88,-307.5 245.88,-307.5 245.88,-313.5 239.88,-319.5 233.88,-319.5 233.88,-319.5 121.88,-319.5 121.88,-319.5 115.88,-319.5 109.88,-313.5 109.88,-307.5 109.88,-307.5 109.88,-295.5 109.88,-295.5 109.88,-289.5 115.88,-283.5 121.88,-283.5"/>
<text xml:space="preserve" text-anchor="middle" x="177.88" y="-298.05" font-family="Helvetica,sans-Serif" font-size="11.00">alpha_mid reconstruction</text>
</g>
<!-- in0&#45;&gt;amid -->
<g id="edge1" class="edge">
<title>in0&#45;&gt;amid</title>
<path fill="none" stroke="black" d="M182.27,-356.01C181.6,-347.83 180.88,-339.09 180.22,-331.08"/>
<polygon fill="black" stroke="black" points="183.72,-330.87 179.41,-321.19 176.74,-331.44 183.72,-330.87"/>
</g>
<!-- bmid -->
<g id="node5" class="node">
<title>bmid</title>
<path fill="#d9ead3" stroke="#555555" d="M275.5,-283.5C275.5,-283.5 382.25,-283.5 382.25,-283.5 388.25,-283.5 394.25,-289.5 394.25,-295.5 394.25,-295.5 394.25,-307.5 394.25,-307.5 394.25,-313.5 388.25,-319.5 382.25,-319.5 382.25,-319.5 275.5,-319.5 275.5,-319.5 269.5,-319.5 263.5,-313.5 263.5,-307.5 263.5,-307.5 263.5,-295.5 263.5,-295.5 263.5,-289.5 269.5,-283.5 275.5,-283.5"/>
<text xml:space="preserve" text-anchor="middle" x="328.88" y="-298.05" font-family="Helvetica,sans-Serif" font-size="11.00">beta_mid reconstruction</text>
</g>
<!-- in0&#45;&gt;bmid -->
<g id="edge3" class="edge">
<title>in0&#45;&gt;bmid</title>
<path fill="none" stroke="black" d="M213.42,-370.17C221.02,-365.53 229.24,-360.55 236.88,-356 253.83,-345.9 272.66,-334.91 288.84,-325.53"/>
<polygon fill="black" stroke="black" points="290.32,-328.72 297.22,-320.69 286.81,-322.66 290.32,-328.72"/>
</g>
<!-- in1 -->
<g id="node2" class="node">
<title>in1</title>
<path fill="#fff2cc" stroke="#555555" d="M257.75,-356.5C257.75,-356.5 384,-356.5 384,-356.5 390,-356.5 396,-362.5 396,-368.5 396,-368.5 396,-409 396,-409 396,-415 390,-421 384,-421 384,-421 257.75,-421 257.75,-421 251.75,-421 245.75,-415 245.75,-409 245.75,-409 245.75,-368.5 245.75,-368.5 245.75,-362.5 251.75,-356.5 257.75,-356.5"/>
<text xml:space="preserve" text-anchor="middle" x="320.88" y="-406.55" font-family="Helvetica,sans-Serif" font-size="11.00">Precomputed Branch Inputs</text>
<polyline fill="none" stroke="#555555" points="245.75,-399.5 396,-399.5"/>
<text xml:space="preserve" text-anchor="middle" x="320.88" y="-385.05" font-family="Helvetica,sans-Serif" font-size="11.00">g0</text>
<polyline fill="none" stroke="#555555" points="245.75,-378 396,-378"/>
<text xml:space="preserve" text-anchor="middle" x="320.88" y="-363.55" font-family="Helvetica,sans-Serif" font-size="11.00">g1</text>
</g>
<!-- in1&#45;&gt;amid -->
<g id="edge2" class="edge">
<title>in1&#45;&gt;amid</title>
<path fill="none" stroke="black" d="M267.63,-356.01C250.82,-345.99 232.57,-335.11 216.95,-325.79"/>
<polygon fill="black" stroke="black" points="218.78,-322.81 208.4,-320.7 215.2,-328.82 218.78,-322.81"/>
</g>
<!-- in1&#45;&gt;bmid -->
<g id="edge4" class="edge">
<title>in1&#45;&gt;bmid</title>
<path fill="none" stroke="black" d="M323.85,-356.01C324.62,-347.83 325.44,-339.09 326.19,-331.08"/>
<polygon fill="black" stroke="black" points="329.67,-331.47 327.12,-321.19 322.7,-330.82 329.67,-331.47"/>
</g>
<!-- in2 -->
<g id="node3" class="node">
<title>in2</title>
<path fill="#fff2cc" stroke="#555555" d="M94.75,-102C94.75,-102 179,-102 179,-102 185,-102 191,-108 191,-114 191,-114 191,-154.5 191,-154.5 191,-160.5 185,-166.5 179,-166.5 179,-166.5 94.75,-166.5 94.75,-166.5 88.75,-166.5 82.75,-160.5 82.75,-154.5 82.75,-154.5 82.75,-114 82.75,-114 82.75,-108 88.75,-102 94.75,-102"/>
<text xml:space="preserve" text-anchor="middle" x="136.88" y="-152.05" font-family="Helvetica,sans-Serif" font-size="11.00">Observation Inputs</text>
<polyline fill="none" stroke="#555555" points="82.75,-145 191,-145"/>
<text xml:space="preserve" text-anchor="middle" x="136.88" y="-130.55" font-family="Helvetica,sans-Serif" font-size="11.00">sys_even/sys_odd</text>
<polyline fill="none" stroke="#555555" points="82.75,-123.5 191,-123.5"/>
<text xml:space="preserve" text-anchor="middle" x="136.88" y="-109.05" font-family="Helvetica,sans-Serif" font-size="11.00">apri_even/apri_odd</text>
</g>
<!-- ext -->
<g id="node9" class="node">
<title>ext</title>
<path fill="#ead1dc" stroke="#555555" d="M153.5,-0.5C153.5,-0.5 236.25,-0.5 236.25,-0.5 242.25,-0.5 248.25,-6.5 248.25,-12.5 248.25,-12.5 248.25,-53 248.25,-53 248.25,-59 242.25,-65 236.25,-65 236.25,-65 153.5,-65 153.5,-65 147.5,-65 141.5,-59 141.5,-53 141.5,-53 141.5,-12.5 141.5,-12.5 141.5,-6.5 147.5,-0.5 153.5,-0.5"/>
<text xml:space="preserve" text-anchor="middle" x="194.88" y="-50.55" font-family="Helvetica,sans-Serif" font-size="11.00">Extrinsic Arithmetic</text>
<polyline fill="none" stroke="#555555" points="141.5,-43.5 248.25,-43.5"/>
<text xml:space="preserve" text-anchor="middle" x="194.88" y="-29.05" font-family="Helvetica,sans-Serif" font-size="11.00">subtract sys/apri</text>
<polyline fill="none" stroke="#555555" points="141.5,-22 248.25,-22"/>
<text xml:space="preserve" text-anchor="middle" x="194.88" y="-7.55" font-family="Helvetica,sans-Serif" font-size="11.00">scale_ext</text>
</g>
<!-- in2&#45;&gt;ext -->
<g id="edge12" class="edge">
<title>in2&#45;&gt;ext</title>
<path fill="none" stroke="black" d="M155.23,-101.77C160.15,-93.33 165.54,-84.08 170.72,-75.19"/>
<polygon fill="black" stroke="black" points="173.67,-77.08 175.68,-66.68 167.62,-73.55 173.67,-77.08"/>
</g>
<!-- maxe -->
<g id="node6" class="node">
<title>maxe</title>
<path fill="#cfe2f3" stroke="#555555" d="M141.75,-203.5C141.75,-203.5 232,-203.5 232,-203.5 238,-203.5 244,-209.5 244,-215.5 244,-215.5 244,-234.5 244,-234.5 244,-240.5 238,-246.5 232,-246.5 232,-246.5 141.75,-246.5 141.75,-246.5 135.75,-246.5 129.75,-240.5 129.75,-234.5 129.75,-234.5 129.75,-215.5 129.75,-215.5 129.75,-209.5 135.75,-203.5 141.75,-203.5"/>
<text xml:space="preserve" text-anchor="middle" x="186.88" y="-232.05" font-family="Helvetica,sans-Serif" font-size="11.00">Even&#45;bit max tree</text>
<polyline fill="none" stroke="#555555" points="129.75,-225 244,-225"/>
<text xml:space="preserve" text-anchor="middle" x="186.88" y="-210.55" font-family="Helvetica,sans-Serif" font-size="11.00">max1_u0 &#45; max0_u0</text>
</g>
<!-- amid&#45;&gt;maxe -->
<g id="edge5" class="edge">
<title>amid&#45;&gt;maxe</title>
<path fill="none" stroke="black" d="M179.96,-283.22C180.86,-275.77 181.94,-266.81 182.98,-258.22"/>
<polygon fill="black" stroke="black" points="186.44,-258.75 184.17,-248.4 179.49,-257.91 186.44,-258.75"/>
</g>
<!-- maxo -->
<g id="node7" class="node">
<title>maxo</title>
<path fill="#cfe2f3" stroke="#555555" d="M273.75,-203.5C273.75,-203.5 364,-203.5 364,-203.5 370,-203.5 376,-209.5 376,-215.5 376,-215.5 376,-234.5 376,-234.5 376,-240.5 370,-246.5 364,-246.5 364,-246.5 273.75,-246.5 273.75,-246.5 267.75,-246.5 261.75,-240.5 261.75,-234.5 261.75,-234.5 261.75,-215.5 261.75,-215.5 261.75,-209.5 267.75,-203.5 273.75,-203.5"/>
<text xml:space="preserve" text-anchor="middle" x="318.88" y="-232.05" font-family="Helvetica,sans-Serif" font-size="11.00">Odd&#45;bit max tree</text>
<polyline fill="none" stroke="#555555" points="261.75,-225 376,-225"/>
<text xml:space="preserve" text-anchor="middle" x="318.88" y="-210.55" font-family="Helvetica,sans-Serif" font-size="11.00">max1_u1 &#45; max0_u1</text>
</g>
<!-- amid&#45;&gt;maxo -->
<g id="edge7" class="edge">
<title>amid&#45;&gt;maxo</title>
<path fill="none" stroke="black" d="M210.93,-283.03C228.25,-273.88 249.82,-262.49 269.11,-252.3"/>
<polygon fill="black" stroke="black" points="270.71,-255.41 277.91,-247.64 267.44,-249.22 270.71,-255.41"/>
</g>
<!-- bmid&#45;&gt;maxe -->
<g id="edge6" class="edge">
<title>bmid&#45;&gt;maxe</title>
<path fill="none" stroke="black" d="M295.58,-283.03C278.06,-273.84 256.22,-262.38 236.73,-252.15"/>
<polygon fill="black" stroke="black" points="238.6,-249.19 228.12,-247.64 235.35,-255.38 238.6,-249.19"/>
</g>
<!-- bmid&#45;&gt;maxo -->
<g id="edge8" class="edge">
<title>bmid&#45;&gt;maxo</title>
<path fill="none" stroke="black" d="M326.56,-283.22C325.56,-275.77 324.35,-266.81 323.2,-258.22"/>
<polygon fill="black" stroke="black" points="326.68,-257.85 321.88,-248.4 319.74,-258.78 326.68,-257.85"/>
</g>
<!-- post -->
<g id="node8" class="node">
<title>post</title>
<path fill="#fce5cd" stroke="#555555" d="M220.88,-102C220.88,-102 284.88,-102 284.88,-102 290.88,-102 296.88,-108 296.88,-114 296.88,-114 296.88,-154.5 296.88,-154.5 296.88,-160.5 290.88,-166.5 284.88,-166.5 284.88,-166.5 220.88,-166.5 220.88,-166.5 214.88,-166.5 208.88,-160.5 208.88,-154.5 208.88,-154.5 208.88,-114 208.88,-114 208.88,-108 214.88,-102 220.88,-102"/>
<text xml:space="preserve" text-anchor="middle" x="252.88" y="-152.05" font-family="Helvetica,sans-Serif" font-size="11.00">Posterior LLRs</text>
<polyline fill="none" stroke="#555555" points="208.88,-145 296.88,-145"/>
<text xml:space="preserve" text-anchor="middle" x="252.88" y="-130.55" font-family="Helvetica,sans-Serif" font-size="11.00">post_even</text>
<polyline fill="none" stroke="#555555" points="208.88,-123.5 296.88,-123.5"/>
<text xml:space="preserve" text-anchor="middle" x="252.88" y="-109.05" font-family="Helvetica,sans-Serif" font-size="11.00">post_odd</text>
</g>
<!-- maxe&#45;&gt;post -->
<g id="edge9" class="edge">
<title>maxe&#45;&gt;post</title>
<path fill="none" stroke="black" d="M202.18,-203.42C208.3,-195.19 215.57,-185.41 222.67,-175.87"/>
<polygon fill="black" stroke="black" points="225.31,-178.18 228.47,-168.07 219.69,-174 225.31,-178.18"/>
</g>
<!-- maxo&#45;&gt;post -->
<g id="edge10" class="edge">
<title>maxo&#45;&gt;post</title>
<path fill="none" stroke="black" d="M303.57,-203.42C297.45,-195.19 290.18,-185.41 283.08,-175.87"/>
<polygon fill="black" stroke="black" points="286.06,-174 277.28,-168.07 280.44,-178.18 286.06,-174"/>
</g>
<!-- post&#45;&gt;ext -->
<g id="edge11" class="edge">
<title>post&#45;&gt;ext</title>
<path fill="none" stroke="black" d="M234.52,-101.77C229.6,-93.33 224.21,-84.08 219.03,-75.19"/>
<polygon fill="black" stroke="black" points="222.13,-73.55 214.07,-66.68 216.08,-77.08 222.13,-73.55"/>
</g>
</g>
</svg>
