<?xml version="1.0" encoding="UTF-8" standalone="no"?>
<!DOCTYPE svg PUBLIC "-//W3C//DTD SVG 1.1//EN"
 "http://www.w3.org/Graphics/SVG/1.1/DTD/svg11.dtd">
<!-- Generated by graphviz version 14.1.2 (0)
 -->
<!-- Title: G Pages: 1 -->
<svg width="1423pt" height="186pt"
 viewBox="0.00 0.00 1423.00 186.00" xmlns="http://www.w3.org/2000/svg" xmlns:xlink="http://www.w3.org/1999/xlink">
<g id="graph0" class="graph" transform="scale(1 1) rotate(0) translate(4 182.25)">
<title>G</title>
<polygon fill="white" stroke="none" points="-4,4 -4,-182.25 1418.75,-182.25 1418.75,4 -4,4"/>
<text xml:space="preserve" text-anchor="middle" x="707.38" y="-155.25" font-family="Helvetica,sans-Serif" font-size="20.00">siso_maxlogmap &#45; Shared Radix&#45;4 ACS Unit</text>
<!-- state -->
<g id="node1" class="node">
<title>state</title>
<path fill="#fff2cc" stroke="#555555" d="M126.12,-110.5C126.12,-110.5 340.38,-110.5 340.38,-110.5 346.38,-110.5 352.38,-116.5 352.38,-122.5 352.38,-122.5 352.38,-134.5 352.38,-134.5 352.38,-140.5 346.38,-146.5 340.38,-146.5 340.38,-146.5 126.12,-146.5 126.12,-146.5 120.12,-146.5 114.12,-140.5 114.12,-134.5 114.12,-134.5 114.12,-122.5 114.12,-122.5 114.12,-116.5 120.12,-110.5 126.12,-110.5"/>
<text xml:space="preserve" text-anchor="middle" x="164.5" y="-125.05" font-family="Helvetica,sans-Serif" font-size="11.00">State Metric Input</text>
<polyline fill="none" stroke="#555555" points="214.88,-111 214.88,-146.5"/>
<text xml:space="preserve" text-anchor="middle" x="283.62" y="-125.05" font-family="Helvetica,sans-Serif" font-size="11.00">alpha_work or beta_work</text>
</g>
<!-- enum -->
<g id="node4" class="node">
<title>enum</title>
<path fill="#d9ead3" stroke="#555555" d="M514.5,-55.5C514.5,-55.5 782.75,-55.5 782.75,-55.5 788.75,-55.5 794.75,-61.5 794.75,-67.5 794.75,-67.5 794.75,-79.5 794.75,-79.5 794.75,-85.5 788.75,-91.5 782.75,-91.5 782.75,-91.5 514.5,-91.5 514.5,-91.5 508.5,-91.5 502.5,-85.5 502.5,-79.5 502.5,-79.5 502.5,-67.5 502.5,-67.5 502.5,-61.5 508.5,-55.5 514.5,-55.5"/>
<text xml:space="preserve" text-anchor="middle" x="576.88" y="-70.05" font-family="Helvetica,sans-Serif" font-size="11.00">Radix&#45;4 Trellis Enumeration</text>
<polyline fill="none" stroke="#555555" points="651.25,-56 651.25,-91.5"/>
<text xml:space="preserve" text-anchor="middle" x="723" y="-70.05" font-family="Helvetica,sans-Serif" font-size="11.00">4 input pairs per state path</text>
</g>
<!-- state&#45;&gt;enum -->
<g id="edge1" class="edge">
<title>state&#45;&gt;enum</title>
<path fill="none" stroke="black" d="M352.81,-115.59C389.31,-111.38 429.59,-106.5 466.5,-101.5 484.34,-99.08 503.14,-96.37 521.61,-93.61"/>
<polygon fill="black" stroke="black" points="521.88,-97.1 531.24,-92.15 520.83,-90.18 521.88,-97.1"/>
</g>
<!-- gamma -->
<g id="node2" class="node">
<title>gamma</title>
<path fill="#fff2cc" stroke="#555555" d="M163.62,-55.5C163.62,-55.5 302.88,-55.5 302.88,-55.5 308.88,-55.5 314.88,-61.5 314.88,-67.5 314.88,-67.5 314.88,-79.5 314.88,-79.5 314.88,-85.5 308.88,-91.5 302.88,-91.5 302.88,-91.5 163.62,-91.5 163.62,-91.5 157.62,-91.5 151.62,-85.5 151.62,-79.5 151.62,-79.5 151.62,-67.5 151.62,-67.5 151.62,-61.5 157.62,-55.5 163.62,-55.5"/>
<text xml:space="preserve" text-anchor="middle" x="192.25" y="-70.05" font-family="Helvetica,sans-Serif" font-size="11.00">Gamma Input</text>
<polyline fill="none" stroke="#555555" points="232.88,-56 232.88,-91.5"/>
<text xml:space="preserve" text-anchor="middle" x="273.88" y="-70.05" font-family="Helvetica,sans-Serif" font-size="11.00">gamma[0..15]</text>
</g>
<!-- gamma&#45;&gt;enum -->
<g id="edge2" class="edge">
<title>gamma&#45;&gt;enum</title>
<path fill="none" stroke="black" d="M314.93,-73.5C364.93,-73.5 430.83,-73.5 490.79,-73.5"/>
<polygon fill="black" stroke="black" points="490.78,-77 500.78,-73.5 490.78,-70 490.78,-77"/>
</g>
<!-- mode -->
<g id="node3" class="node">
<title>mode</title>
<path fill="#d9ead3" stroke="#555555" d="M12,-0.5C12,-0.5 454.5,-0.5 454.5,-0.5 460.5,-0.5 466.5,-6.5 466.5,-12.5 466.5,-12.5 466.5,-24.5 466.5,-24.5 466.5,-30.5 460.5,-36.5 454.5,-36.5 454.5,-36.5 12,-36.5 12,-36.5 6,-36.5 0,-30.5 0,-24.5 0,-24.5 0,-12.5 0,-12.5 0,-6.5 6,-0.5 12,-0.5"/>
<text xml:space="preserve" text-anchor="middle" x="45.88" y="-15.05" font-family="Helvetica,sans-Serif" font-size="11.00">Direction Select</text>
<polyline fill="none" stroke="#555555" points="91.75,-1 91.75,-36.5"/>
<text xml:space="preserve" text-anchor="middle" x="181.88" y="-15.05" font-family="Helvetica,sans-Serif" font-size="11.00">is_backward=false : forward alpha</text>
<polyline fill="none" stroke="#555555" points="272,-1 272,-36.5"/>
<text xml:space="preserve" text-anchor="middle" x="369.25" y="-15.05" font-family="Helvetica,sans-Serif" font-size="11.00">is_backward=true : dummy/local beta</text>
</g>
<!-- mode&#45;&gt;enum -->
<g id="edge3" class="edge">
<title>mode&#45;&gt;enum</title>
<path fill="none" stroke="black" d="M392.68,-37C417.4,-40.06 442.65,-43.29 466.5,-46.5 482.37,-48.64 499.01,-50.98 515.5,-53.37"/>
<polygon fill="black" stroke="black" points="514.98,-56.83 525.38,-54.8 515.99,-49.9 514.98,-56.83"/>
</g>
<!-- reduce -->
<g id="node5" class="node">
<title>reduce</title>
<path fill="#cfe2f3" stroke="#555555" d="M842.75,-55.5C842.75,-55.5 1102.25,-55.5 1102.25,-55.5 1108.25,-55.5 1114.25,-61.5 1114.25,-67.5 1114.25,-67.5 1114.25,-79.5 1114.25,-79.5 1114.25,-85.5 1108.25,-91.5 1102.25,-91.5 1102.25,-91.5 842.75,-91.5 842.75,-91.5 836.75,-91.5 830.75,-85.5 830.75,-79.5 830.75,-79.5 830.75,-67.5 830.75,-67.5 830.75,-61.5 836.75,-55.5 842.75,-55.5"/>
<text xml:space="preserve" text-anchor="middle" x="879.25" y="-70.05" font-family="Helvetica,sans-Serif" font-size="11.00">Metric Reduction</text>
<polyline fill="none" stroke="#555555" points="927.75,-56 927.75,-91.5"/>
<text xml:space="preserve" text-anchor="middle" x="958.25" y="-70.05" font-family="Helvetica,sans-Serif" font-size="11.00">mod_add</text>
<polyline fill="none" stroke="#555555" points="988.75,-56 988.75,-91.5"/>
<text xml:space="preserve" text-anchor="middle" x="1051.5" y="-70.05" font-family="Helvetica,sans-Serif" font-size="11.00">mod_max / mod_max4</text>
</g>
<!-- enum&#45;&gt;reduce -->
<g id="edge4" class="edge">
<title>enum&#45;&gt;reduce</title>
<path fill="none" stroke="black" d="M795.02,-73.5C803.06,-73.5 811.16,-73.5 819.22,-73.5"/>
<polygon fill="black" stroke="black" points="819.08,-77 829.08,-73.5 819.08,-70 819.08,-77"/>
</g>
<!-- out -->
<g id="node6" class="node">
<title>out</title>
<path fill="#ead1dc" stroke="#555555" d="M1162.25,-55.5C1162.25,-55.5 1402.75,-55.5 1402.75,-55.5 1408.75,-55.5 1414.75,-61.5 1414.75,-67.5 1414.75,-67.5 1414.75,-79.5 1414.75,-79.5 1414.75,-85.5 1408.75,-91.5 1402.75,-91.5 1402.75,-91.5 1162.25,-91.5 1162.25,-91.5 1156.25,-91.5 1150.25,-85.5 1150.25,-79.5 1150.25,-79.5 1150.25,-67.5 1150.25,-67.5 1150.25,-61.5 1156.25,-55.5 1162.25,-55.5"/>
<text xml:space="preserve" text-anchor="middle" x="1216.75" y="-70.05" font-family="Helvetica,sans-Serif" font-size="11.00">Next State Metric Vector</text>
<polyline fill="none" stroke="#555555" points="1283.25,-56 1283.25,-91.5"/>
<text xml:space="preserve" text-anchor="middle" x="1349" y="-70.05" font-family="Helvetica,sans-Serif" font-size="11.00">alpha_next or beta_next</text>
</g>
<!-- reduce&#45;&gt;out -->
<g id="edge5" class="edge">
<title>reduce&#45;&gt;out</title>
<path fill="none" stroke="black" d="M1114.43,-73.5C1122.5,-73.5 1130.63,-73.5 1138.71,-73.5"/>
<polygon fill="black" stroke="black" points="1138.58,-77 1148.58,-73.5 1138.58,-70 1138.58,-77"/>
</g>
</g>
</svg>
