<?xml version="1.0" encoding="UTF-8" standalone="no"?>
<!DOCTYPE svg PUBLIC "-//W3C//DTD SVG 1.1//EN"
 "http://www.w3.org/Graphics/SVG/1.1/DTD/svg11.dtd">
<!-- Generated by graphviz version 14.1.2 (0)
 -->
<!-- Title: G Pages: 1 -->
<svg width="1207pt" height="141pt"
 viewBox="0.00 0.00 1207.00 141.00" xmlns="http://www.w3.org/2000/svg" xmlns:xlink="http://www.w3.org/1999/xlink">
<g id="graph0" class="graph" transform="scale(1 1) rotate(0) translate(4 137.25)">
<title>G</title>
<polygon fill="white" stroke="none" points="-4,4 -4,-137.25 1203,-137.25 1203,4 -4,4"/>
<text xml:space="preserve" text-anchor="middle" x="599.5" y="-110.25" font-family="Helvetica,sans-Serif" font-size="20.00">siso_maxlogmap &#45; Branch and Gamma Unit (Updated)</text>
<!-- even_in -->
<g id="node1" class="node">
<title>even_in</title>
<path fill="#fff2cc" stroke="#555555" d="M12,-65.5C12,-65.5 246.25,-65.5 246.25,-65.5 252.25,-65.5 258.25,-71.5 258.25,-77.5 258.25,-77.5 258.25,-89.5 258.25,-89.5 258.25,-95.5 252.25,-101.5 246.25,-101.5 246.25,-101.5 12,-101.5 12,-101.5 6,-101.5 0,-95.5 0,-89.5 0,-89.5 0,-77.5 0,-77.5 0,-71.5 6,-65.5 12,-65.5"/>
<text xml:space="preserve" text-anchor="middle" x="36.5" y="-80.05" font-family="Helvetica,sans-Serif" font-size="11.00">Even Inputs</text>
<polyline fill="none" stroke="#555555" points="73,-66 73,-101.5"/>
<text xml:space="preserve" text-anchor="middle" x="103.5" y="-80.05" font-family="Helvetica,sans-Serif" font-size="11.00">sys_even</text>
<polyline fill="none" stroke="#555555" points="134,-66 134,-101.5"/>
<text xml:space="preserve" text-anchor="middle" x="164.5" y="-80.05" font-family="Helvetica,sans-Serif" font-size="11.00">par_even</text>
<polyline fill="none" stroke="#555555" points="195,-66 195,-101.5"/>
<text xml:space="preserve" text-anchor="middle" x="226.62" y="-80.05" font-family="Helvetica,sans-Serif" font-size="11.00">apri_even</text>
</g>
<!-- g0 -->
<g id="node3" class="node">
<title>g0</title>
<path fill="#d9ead3" stroke="#555555" d="M306.25,-65.5C306.25,-65.5 492.25,-65.5 492.25,-65.5 498.25,-65.5 504.25,-71.5 504.25,-77.5 504.25,-77.5 504.25,-89.5 504.25,-89.5 504.25,-95.5 498.25,-101.5 492.25,-101.5 492.25,-101.5 306.25,-101.5 306.25,-101.5 300.25,-101.5 294.25,-95.5 294.25,-89.5 294.25,-89.5 294.25,-77.5 294.25,-77.5 294.25,-71.5 300.25,-65.5 306.25,-65.5"/>
<text xml:space="preserve" text-anchor="middle" x="328.5" y="-80.05" font-family="Helvetica,sans-Serif" font-size="11.00">Even BMU</text>
<polyline fill="none" stroke="#555555" points="362.75,-66 362.75,-101.5"/>
<text xml:space="preserve" text-anchor="middle" x="407.5" y="-80.05" font-family="Helvetica,sans-Serif" font-size="11.00">branch_metrics</text>
<polyline fill="none" stroke="#555555" points="452.25,-66 452.25,-101.5"/>
<text xml:space="preserve" text-anchor="middle" x="478.25" y="-80.05" font-family="Helvetica,sans-Serif" font-size="11.00">g0[0..3]</text>
</g>
<!-- even_in&#45;&gt;g0 -->
<g id="edge1" class="edge">
<title>even_in&#45;&gt;g0</title>
<path fill="none" stroke="black" d="M258.69,-83.5C266.64,-83.5 274.61,-83.5 282.49,-83.5"/>
<polygon fill="black" stroke="black" points="282.46,-87 292.46,-83.5 282.46,-80 282.46,-87"/>
</g>
<!-- odd_in -->
<g id="node2" class="node">
<title>odd_in</title>
<path fill="#fff2cc" stroke="#555555" d="M22.12,-0.5C22.12,-0.5 236.12,-0.5 236.12,-0.5 242.12,-0.5 248.12,-6.5 248.12,-12.5 248.12,-12.5 248.12,-24.5 248.12,-24.5 248.12,-30.5 242.12,-36.5 236.12,-36.5 236.12,-36.5 22.12,-36.5 22.12,-36.5 16.12,-36.5 10.12,-30.5 10.12,-24.5 10.12,-24.5 10.12,-12.5 10.12,-12.5 10.12,-6.5 16.12,-0.5 22.12,-0.5"/>
<text xml:space="preserve" text-anchor="middle" x="44.38" y="-15.05" font-family="Helvetica,sans-Serif" font-size="11.00">Odd Inputs</text>
<polyline fill="none" stroke="#555555" points="78.62,-1 78.62,-36.5"/>
<text xml:space="preserve" text-anchor="middle" x="106.5" y="-15.05" font-family="Helvetica,sans-Serif" font-size="11.00">sys_odd</text>
<polyline fill="none" stroke="#555555" points="134.38,-1 134.38,-36.5"/>
<text xml:space="preserve" text-anchor="middle" x="162.25" y="-15.05" font-family="Helvetica,sans-Serif" font-size="11.00">par_odd</text>
<polyline fill="none" stroke="#555555" points="190.12,-1 190.12,-36.5"/>
<text xml:space="preserve" text-anchor="middle" x="219.12" y="-15.05" font-family="Helvetica,sans-Serif" font-size="11.00">apri_odd</text>
</g>
<!-- g1 -->
<g id="node4" class="node">
<title>g1</title>
<path fill="#d9ead3" stroke="#555555" d="M308.5,-0.5C308.5,-0.5 490,-0.5 490,-0.5 496,-0.5 502,-6.5 502,-12.5 502,-12.5 502,-24.5 502,-24.5 502,-30.5 496,-36.5 490,-36.5 490,-36.5 308.5,-36.5 308.5,-36.5 302.5,-36.5 296.5,-30.5 296.5,-24.5 296.5,-24.5 296.5,-12.5 296.5,-12.5 296.5,-6.5 302.5,-0.5 308.5,-0.5"/>
<text xml:space="preserve" text-anchor="middle" x="328.5" y="-15.05" font-family="Helvetica,sans-Serif" font-size="11.00">Odd BMU</text>
<polyline fill="none" stroke="#555555" points="360.5,-1 360.5,-36.5"/>
<text xml:space="preserve" text-anchor="middle" x="405.25" y="-15.05" font-family="Helvetica,sans-Serif" font-size="11.00">branch_metrics</text>
<polyline fill="none" stroke="#555555" points="450,-1 450,-36.5"/>
<text xml:space="preserve" text-anchor="middle" x="476" y="-15.05" font-family="Helvetica,sans-Serif" font-size="11.00">g1[0..3]</text>
</g>
<!-- odd_in&#45;&gt;g1 -->
<g id="edge3" class="edge">
<title>odd_in&#45;&gt;g1</title>
<path fill="none" stroke="black" d="M248.51,-18.5C260.52,-18.5 272.71,-18.5 284.67,-18.5"/>
<polygon fill="black" stroke="black" points="284.54,-22 294.54,-18.5 284.54,-15 284.54,-22"/>
</g>
<!-- gamma -->
<g id="node5" class="node">
<title>gamma</title>
<path fill="#cfe2f3" stroke="#555555" d="M552.25,-28.5C552.25,-28.5 868.75,-28.5 868.75,-28.5 874.75,-28.5 880.75,-34.5 880.75,-40.5 880.75,-40.5 880.75,-52.5 880.75,-52.5 880.75,-58.5 874.75,-64.5 868.75,-64.5 868.75,-64.5 552.25,-64.5 552.25,-64.5 546.25,-64.5 540.25,-58.5 540.25,-52.5 540.25,-52.5 540.25,-40.5 540.25,-40.5 540.25,-34.5 546.25,-28.5 552.25,-28.5"/>
<text xml:space="preserve" text-anchor="middle" x="592.5" y="-43.05" font-family="Helvetica,sans-Serif" font-size="11.00">Gamma Combiner</text>
<polyline fill="none" stroke="#555555" points="644.75,-29 644.75,-64.5"/>
<text xml:space="preserve" text-anchor="middle" x="721.75" y="-43.05" font-family="Helvetica,sans-Serif" font-size="11.00">pair_gamma_from_branches</text>
<polyline fill="none" stroke="#555555" points="798.75,-29 798.75,-64.5"/>
<text xml:space="preserve" text-anchor="middle" x="839.75" y="-43.05" font-family="Helvetica,sans-Serif" font-size="11.00">gamma[0..15]</text>
</g>
<!-- g0&#45;&gt;gamma -->
<g id="edge2" class="edge">
<title>g0&#45;&gt;gamma</title>
<path fill="none" stroke="black" d="M504.52,-71.03C517.26,-69.5 530.51,-67.92 543.87,-66.32"/>
<polygon fill="black" stroke="black" points="544.1,-69.81 553.61,-65.15 543.27,-62.86 544.1,-69.81"/>
</g>
<!-- caches -->
<g id="node6" class="node">
<title>caches</title>
<path fill="#ead1dc" stroke="#555555" d="M928.75,-28.5C928.75,-28.5 1187,-28.5 1187,-28.5 1193,-28.5 1199,-34.5 1199,-40.5 1199,-40.5 1199,-52.5 1199,-52.5 1199,-58.5 1193,-64.5 1187,-64.5 1187,-64.5 928.75,-64.5 928.75,-64.5 922.75,-64.5 916.75,-58.5 916.75,-52.5 916.75,-52.5 916.75,-40.5 916.75,-40.5 916.75,-34.5 922.75,-28.5 928.75,-28.5"/>
<text xml:space="preserve" text-anchor="middle" x="962.25" y="-43.05" font-family="Helvetica,sans-Serif" font-size="11.00">Stored Per Pair</text>
<polyline fill="none" stroke="#555555" points="1007.75,-29 1007.75,-64.5"/>
<text xml:space="preserve" text-anchor="middle" x="1035.62" y="-43.05" font-family="Helvetica,sans-Serif" font-size="11.00">g0_local</text>
<polyline fill="none" stroke="#555555" points="1063.5,-29 1063.5,-64.5"/>
<text xml:space="preserve" text-anchor="middle" x="1091.38" y="-43.05" font-family="Helvetica,sans-Serif" font-size="11.00">g1_local</text>
<polyline fill="none" stroke="#555555" points="1119.25,-29 1119.25,-64.5"/>
<text xml:space="preserve" text-anchor="middle" x="1159.12" y="-43.05" font-family="Helvetica,sans-Serif" font-size="11.00">gamma_local</text>
</g>
<!-- g0&#45;&gt;caches -->
<g id="edge5" class="edge">
<title>g0&#45;&gt;caches</title>
<path fill="none" stroke="black" d="M504.51,-85.71C601.99,-86.79 751.51,-85.93 880.75,-74.5 901.53,-72.66 923.58,-69.85 944.78,-66.71"/>
<polygon fill="black" stroke="black" points="945.26,-70.18 954.62,-65.21 944.21,-63.25 945.26,-70.18"/>
</g>
<!-- g1&#45;&gt;gamma -->
<g id="edge4" class="edge">
<title>g1&#45;&gt;gamma</title>
<path fill="none" stroke="black" d="M502.37,-27.75C510.9,-28.52 519.68,-29.31 528.58,-30.12"/>
<polygon fill="black" stroke="black" points="528.12,-33.59 538.4,-31.01 528.75,-26.62 528.12,-33.59"/>
</g>
<!-- g1&#45;&gt;caches -->
<g id="edge6" class="edge">
<title>g1&#45;&gt;caches</title>
<path fill="none" stroke="black" d="M502.13,-14.29C599.51,-11.32 750.38,-9.43 880.75,-19.5 900.79,-21.05 922,-23.55 942.5,-26.42"/>
<polygon fill="black" stroke="black" points="941.9,-29.87 952.3,-27.83 942.9,-22.94 941.9,-29.87"/>
</g>
<!-- gamma&#45;&gt;caches -->
<g id="edge7" class="edge">
<title>gamma&#45;&gt;caches</title>
<path fill="none" stroke="black" d="M881.15,-46.5C889.06,-46.5 896.98,-46.5 904.84,-46.5"/>
<polygon fill="black" stroke="black" points="904.79,-50 914.79,-46.5 904.79,-43 904.79,-50"/>
</g>
</g>
</svg>
