<?xml version="1.0" encoding="UTF-8" standalone="no"?>
<!DOCTYPE svg PUBLIC "-//W3C//DTD SVG 1.1//EN"
 "http://www.w3.org/Graphics/SVG/1.1/DTD/svg11.dtd">
<!-- Generated by graphviz version 14.1.2 (0)
 -->
<!-- Title: siso_branch_gamma Pages: 1 -->
<svg width="866pt" height="414pt"
 viewBox="0.00 0.00 866.00 414.00" xmlns="http://www.w3.org/2000/svg" xmlns:xlink="http://www.w3.org/1999/xlink">
<g id="graph0" class="graph" transform="scale(1 1) rotate(0) translate(14.4 399.47)">
<title>siso_branch_gamma</title>
<polygon fill="white" stroke="none" points="-14.4,14.4 -14.4,-399.47 851.15,-399.47 851.15,14.4 -14.4,14.4"/>
<text xml:space="preserve" text-anchor="middle" x="418.38" y="-367.77" font-family="Helvetica,sans-Serif" font-size="14.00">siso_maxlogmap Branch&#45;Metric And Pair&#45;Gamma Unit</text>
<g id="clust1" class="cluster">
<title>cluster_even</title>
<path fill="white" stroke="#fcd34d" d="M121.9,-257.32C121.9,-257.32 407.08,-257.32 407.08,-257.32 413.08,-257.32 419.08,-263.32 419.08,-269.32 419.08,-269.32 419.08,-341.32 419.08,-341.32 419.08,-347.32 413.08,-353.32 407.08,-353.32 407.08,-353.32 121.9,-353.32 121.9,-353.32 115.9,-353.32 109.9,-347.32 109.9,-341.32 109.9,-341.32 109.9,-269.32 109.9,-269.32 109.9,-263.32 115.9,-257.32 121.9,-257.32"/>
<text xml:space="preserve" text-anchor="middle" x="264.49" y="-336.02" font-family="Helvetica,sans-Serif" font-size="14.00">Single&#45;Bit BMU: Even</text>
</g>
<g id="clust2" class="cluster">
<title>cluster_odd</title>
<path fill="white" stroke="#fde68a" d="M121.9,-66.32C121.9,-66.32 407.08,-66.32 407.08,-66.32 413.08,-66.32 419.08,-72.32 419.08,-78.32 419.08,-78.32 419.08,-150.32 419.08,-150.32 419.08,-156.32 413.08,-162.32 407.08,-162.32 407.08,-162.32 121.9,-162.32 121.9,-162.32 115.9,-162.32 109.9,-156.32 109.9,-150.32 109.9,-150.32 109.9,-78.32 109.9,-78.32 109.9,-72.32 115.9,-66.32 121.9,-66.32"/>
<text xml:space="preserve" text-anchor="middle" x="264.49" y="-145.02" font-family="Helvetica,sans-Serif" font-size="14.00">Single&#45;Bit BMU: Odd</text>
</g>
<g id="clust3" class="cluster">
<title>cluster_combine</title>
<path fill="white" stroke="#f59e0b" d="M270.55,-170.32C270.55,-170.32 696.85,-170.32 696.85,-170.32 702.85,-170.32 708.85,-176.32 708.85,-182.32 708.85,-182.32 708.85,-237.32 708.85,-237.32 708.85,-243.32 702.85,-249.32 696.85,-249.32 696.85,-249.32 270.55,-249.32 270.55,-249.32 264.55,-249.32 258.55,-243.32 258.55,-237.32 258.55,-237.32 258.55,-182.32 258.55,-182.32 258.55,-176.32 264.55,-170.32 270.55,-170.32"/>
<text xml:space="preserve" text-anchor="middle" x="483.7" y="-232.02" font-family="Helvetica,sans-Serif" font-size="14.00">Radix&#45;4 Pair&#45;Gamma Combiner</text>
</g>
<!-- in_even -->
<g id="node1" class="node">
<title>in_even</title>
<path fill="#f8fafc" stroke="#334155" d="M54.9,-321.64C54.9,-321.64 12,-321.64 12,-321.64 6,-321.64 0,-315.64 0,-309.64 0,-309.64 0,-277 0,-277 0,-271 6,-265 12,-265 12,-265 54.9,-265 54.9,-265 60.9,-265 66.9,-271 66.9,-277 66.9,-277 66.9,-309.64 66.9,-309.64 66.9,-315.64 60.9,-321.64 54.9,-321.64"/>
<text xml:space="preserve" text-anchor="middle" x="33.45" y="-307.82" font-family="Helvetica,sans-Serif" font-size="10.00">Even Inputs</text>
<text xml:space="preserve" text-anchor="middle" x="33.45" y="-295.82" font-family="Helvetica,sans-Serif" font-size="10.00">sys_even</text>
<text xml:space="preserve" text-anchor="middle" x="33.45" y="-283.82" font-family="Helvetica,sans-Serif" font-size="10.00">par_even</text>
<text xml:space="preserve" text-anchor="middle" x="33.45" y="-271.82" font-family="Helvetica,sans-Serif" font-size="10.00">apri_even</text>
</g>
<!-- resize_even -->
<g id="node4" class="node">
<title>resize_even</title>
<path fill="#fffbeb" stroke="#334155" d="M203.55,-311.32C203.55,-311.32 129.9,-311.32 129.9,-311.32 123.9,-311.32 117.9,-305.32 117.9,-299.32 117.9,-299.32 117.9,-287.32 117.9,-287.32 117.9,-281.32 123.9,-275.32 129.9,-275.32 129.9,-275.32 203.55,-275.32 203.55,-275.32 209.55,-275.32 215.55,-281.32 215.55,-287.32 215.55,-287.32 215.55,-299.32 215.55,-299.32 215.55,-305.32 209.55,-311.32 203.55,-311.32"/>
<text xml:space="preserve" text-anchor="middle" x="166.73" y="-295.82" font-family="Helvetica,sans-Serif" font-size="10.00">resize to metric_t</text>
<text xml:space="preserve" text-anchor="middle" x="166.73" y="-283.82" font-family="Helvetica,sans-Serif" font-size="10.00">s_sys, s_par, s_ap</text>
</g>
<!-- in_even&#45;&gt;resize_even -->
<g id="edge1" class="edge">
<title>in_even&#45;&gt;resize_even</title>
<path fill="none" stroke="#475569" stroke-width="1.1" d="M67.24,-293.32C79.93,-293.32 94.84,-293.32 109.16,-293.32"/>
<polygon fill="#475569" stroke="#475569" stroke-width="1.1" points="108.84,-295.77 115.84,-293.32 108.84,-290.87 108.84,-295.77"/>
</g>
<!-- in_odd -->
<g id="node2" class="node">
<title>in_odd</title>
<path fill="#f8fafc" stroke="#334155" d="M52.65,-130.64C52.65,-130.64 14.25,-130.64 14.25,-130.64 8.25,-130.64 2.25,-124.64 2.25,-118.64 2.25,-118.64 2.25,-86 2.25,-86 2.25,-80 8.25,-74 14.25,-74 14.25,-74 52.65,-74 52.65,-74 58.65,-74 64.65,-80 64.65,-86 64.65,-86 64.65,-118.64 64.65,-118.64 64.65,-124.64 58.65,-130.64 52.65,-130.64"/>
<text xml:space="preserve" text-anchor="middle" x="33.45" y="-116.82" font-family="Helvetica,sans-Serif" font-size="10.00">Odd Inputs</text>
<text xml:space="preserve" text-anchor="middle" x="33.45" y="-104.82" font-family="Helvetica,sans-Serif" font-size="10.00">sys_odd</text>
<text xml:space="preserve" text-anchor="middle" x="33.45" y="-92.82" font-family="Helvetica,sans-Serif" font-size="10.00">par_odd</text>
<text xml:space="preserve" text-anchor="middle" x="33.45" y="-80.82" font-family="Helvetica,sans-Serif" font-size="10.00">apri_odd</text>
</g>
<!-- resize_odd -->
<g id="node6" class="node">
<title>resize_odd</title>
<path fill="#fffbeb" stroke="#334155" d="M203.55,-120.32C203.55,-120.32 129.9,-120.32 129.9,-120.32 123.9,-120.32 117.9,-114.32 117.9,-108.32 117.9,-108.32 117.9,-96.32 117.9,-96.32 117.9,-90.32 123.9,-84.32 129.9,-84.32 129.9,-84.32 203.55,-84.32 203.55,-84.32 209.55,-84.32 215.55,-90.32 215.55,-96.32 215.55,-96.32 215.55,-108.32 215.55,-108.32 215.55,-114.32 209.55,-120.32 203.55,-120.32"/>
<text xml:space="preserve" text-anchor="middle" x="166.73" y="-104.82" font-family="Helvetica,sans-Serif" font-size="10.00">resize to metric_t</text>
<text xml:space="preserve" text-anchor="middle" x="166.73" y="-92.82" font-family="Helvetica,sans-Serif" font-size="10.00">s_sys, s_par, s_ap</text>
</g>
<!-- in_odd&#45;&gt;resize_odd -->
<g id="edge3" class="edge">
<title>in_odd&#45;&gt;resize_odd</title>
<path fill="none" stroke="#475569" stroke-width="1.1" d="M64.9,-102.32C78.06,-102.32 93.91,-102.32 109.1,-102.32"/>
<polygon fill="#475569" stroke="#475569" stroke-width="1.1" points="108.78,-104.77 115.78,-102.32 108.78,-99.87 108.78,-104.77"/>
</g>
<!-- gamma_out -->
<g id="node3" class="node">
<title>gamma_out</title>
<path fill="#f8fafc" stroke="#334155" d="M824.75,-215.32C824.75,-215.32 763.85,-215.32 763.85,-215.32 757.85,-215.32 751.85,-209.32 751.85,-203.32 751.85,-203.32 751.85,-191.32 751.85,-191.32 751.85,-185.32 757.85,-179.32 763.85,-179.32 763.85,-179.32 824.75,-179.32 824.75,-179.32 830.75,-179.32 836.75,-185.32 836.75,-191.32 836.75,-191.32 836.75,-203.32 836.75,-203.32 836.75,-209.32 830.75,-215.32 824.75,-215.32"/>
<text xml:space="preserve" text-anchor="middle" x="794.3" y="-193.82" font-family="Helvetica,sans-Serif" font-size="10.00">gamma_v[0..15]</text>
</g>
<!-- eq_even -->
<g id="node5" class="node">
<title>eq_even</title>
<path fill="#fffbeb" stroke="#334155" d="M399.08,-321.64C399.08,-321.64 288.68,-321.64 288.68,-321.64 282.68,-321.64 276.68,-315.64 276.68,-309.64 276.68,-309.64 276.68,-277 276.68,-277 276.68,-271 282.68,-265 288.68,-265 288.68,-265 399.08,-265 399.08,-265 405.08,-265 411.08,-271 411.08,-277 411.08,-277 411.08,-309.64 411.08,-309.64 411.08,-315.64 405.08,-321.64 399.08,-321.64"/>
<text xml:space="preserve" text-anchor="middle" x="343.88" y="-307.82" font-family="Helvetica,sans-Serif" font-size="10.00">g0(0)=(+sys +apri +par)&gt;&gt;1</text>
<text xml:space="preserve" text-anchor="middle" x="343.88" y="-295.82" font-family="Helvetica,sans-Serif" font-size="10.00">g0(1)=(+sys +apri &#45;par)&gt;&gt;1</text>
<text xml:space="preserve" text-anchor="middle" x="343.88" y="-283.82" font-family="Helvetica,sans-Serif" font-size="10.00">g0(2)=(&#45;sys &#45;apri +par)&gt;&gt;1</text>
<text xml:space="preserve" text-anchor="middle" x="343.88" y="-271.82" font-family="Helvetica,sans-Serif" font-size="10.00">g0(3)=(&#45;sys &#45;apri &#45;par)&gt;&gt;1</text>
</g>
<!-- resize_even&#45;&gt;eq_even -->
<g id="edge2" class="edge">
<title>resize_even&#45;&gt;eq_even</title>
<path fill="none" stroke="#475569" stroke-width="1.1" d="M216.05,-293.32C232.06,-293.32 250.28,-293.32 267.81,-293.32"/>
<polygon fill="#475569" stroke="#475569" stroke-width="1.1" points="267.69,-295.77 274.69,-293.32 267.69,-290.87 267.69,-295.77"/>
</g>
<!-- combiner -->
<g id="node9" class="node">
<title>combiner</title>
<path fill="#fffbeb" stroke="#334155" d="M688.85,-215.32C688.85,-215.32 531.95,-215.32 531.95,-215.32 525.95,-215.32 519.95,-209.32 519.95,-203.32 519.95,-203.32 519.95,-191.32 519.95,-191.32 519.95,-185.32 525.95,-179.32 531.95,-179.32 531.95,-179.32 688.85,-179.32 688.85,-179.32 694.85,-179.32 700.85,-185.32 700.85,-191.32 700.85,-191.32 700.85,-203.32 700.85,-203.32 700.85,-209.32 694.85,-215.32 688.85,-215.32"/>
<text xml:space="preserve" text-anchor="middle" x="610.4" y="-199.82" font-family="Helvetica,sans-Serif" font-size="10.00">gamma(index) = g0(u0,p0) + g1(u1,p1)</text>
<text xml:space="preserve" text-anchor="middle" x="610.4" y="-187.82" font-family="Helvetica,sans-Serif" font-size="10.00">16 combinations</text>
</g>
<!-- eq_even&#45;&gt;combiner -->
<g id="edge5" class="edge">
<title>eq_even&#45;&gt;combiner</title>
<path fill="none" stroke="#475569" stroke-width="1.1" d="M411.28,-269.22C454.18,-253.65 509.49,-233.58 550.76,-218.6"/>
<polygon fill="#475569" stroke="#475569" stroke-width="1.1" points="551.51,-220.93 557.26,-216.24 549.84,-216.33 551.51,-220.93"/>
<text xml:space="preserve" text-anchor="middle" x="470.58" y="-255.87" font-family="Helvetica,sans-Serif" font-size="9.00">g0[0..3]</text>
</g>
<!-- eq_odd -->
<g id="node7" class="node">
<title>eq_odd</title>
<path fill="#fffbeb" stroke="#334155" d="M399.08,-130.64C399.08,-130.64 288.68,-130.64 288.68,-130.64 282.68,-130.64 276.68,-124.64 276.68,-118.64 276.68,-118.64 276.68,-86 276.68,-86 276.68,-80 282.68,-74 288.68,-74 288.68,-74 399.08,-74 399.08,-74 405.08,-74 411.08,-80 411.08,-86 411.08,-86 411.08,-118.64 411.08,-118.64 411.08,-124.64 405.08,-130.64 399.08,-130.64"/>
<text xml:space="preserve" text-anchor="middle" x="343.88" y="-116.82" font-family="Helvetica,sans-Serif" font-size="10.00">g1(0)=(+sys +apri +par)&gt;&gt;1</text>
<text xml:space="preserve" text-anchor="middle" x="343.88" y="-104.82" font-family="Helvetica,sans-Serif" font-size="10.00">g1(1)=(+sys +apri &#45;par)&gt;&gt;1</text>
<text xml:space="preserve" text-anchor="middle" x="343.88" y="-92.82" font-family="Helvetica,sans-Serif" font-size="10.00">g1(2)=(&#45;sys &#45;apri +par)&gt;&gt;1</text>
<text xml:space="preserve" text-anchor="middle" x="343.88" y="-80.82" font-family="Helvetica,sans-Serif" font-size="10.00">g1(3)=(&#45;sys &#45;apri &#45;par)&gt;&gt;1</text>
</g>
<!-- resize_odd&#45;&gt;eq_odd -->
<g id="edge4" class="edge">
<title>resize_odd&#45;&gt;eq_odd</title>
<path fill="none" stroke="#475569" stroke-width="1.1" d="M216.05,-102.32C232.06,-102.32 250.28,-102.32 267.81,-102.32"/>
<polygon fill="#475569" stroke="#475569" stroke-width="1.1" points="267.69,-104.77 274.69,-102.32 267.69,-99.87 267.69,-104.77"/>
</g>
<!-- eq_odd&#45;&gt;combiner -->
<g id="edge6" class="edge">
<title>eq_odd&#45;&gt;combiner</title>
<path fill="none" stroke="#475569" stroke-width="1.1" d="M411.28,-126.17C453.9,-141.47 508.75,-161.17 549.93,-175.96"/>
<polygon fill="#475569" stroke="#475569" stroke-width="1.1" points="549,-178.23 556.41,-178.29 550.65,-173.62 549,-178.23"/>
<text xml:space="preserve" text-anchor="middle" x="470.58" y="-157.46" font-family="Helvetica,sans-Serif" font-size="9.00">g1[0..3]</text>
</g>
<!-- indexer -->
<g id="node8" class="node">
<title>indexer</title>
<path fill="#fffbeb" stroke="#334155" d="M409.2,-217.32C409.2,-217.32 278.55,-217.32 278.55,-217.32 272.55,-217.32 266.55,-211.32 266.55,-205.32 266.55,-205.32 266.55,-193.32 266.55,-193.32 266.55,-187.32 272.55,-181.32 278.55,-181.32 278.55,-181.32 409.2,-181.32 409.2,-181.32 415.2,-181.32 421.2,-187.32 421.2,-193.32 421.2,-193.32 421.2,-205.32 421.2,-205.32 421.2,-211.32 415.2,-217.32 409.2,-217.32"/>
<text xml:space="preserve" text-anchor="middle" x="343.88" y="-195.82" font-family="Helvetica,sans-Serif" font-size="10.00">index = 8*u0 + 4*p0 + 2*u1 + p1</text>
</g>
<!-- indexer&#45;&gt;combiner -->
<g id="edge7" class="edge">
<title>indexer&#45;&gt;combiner</title>
<path fill="none" stroke="#475569" stroke-width="1.1" d="M421.39,-198.74C449.42,-198.53 481.55,-198.29 511.21,-198.06"/>
<polygon fill="#475569" stroke="#475569" stroke-width="1.1" points="510.87,-200.52 517.85,-198.01 510.83,-195.62 510.87,-200.52"/>
<text xml:space="preserve" text-anchor="middle" x="470.58" y="-200.45" font-family="Helvetica,sans-Serif" font-size="9.00">u0,p0,u1,p1</text>
</g>
<!-- combiner&#45;&gt;gamma_out -->
<g id="edge8" class="edge">
<title>combiner&#45;&gt;gamma_out</title>
<path fill="none" stroke="#475569" stroke-width="1.1" d="M701.28,-197.32C715.68,-197.32 730.1,-197.32 743.12,-197.32"/>
<polygon fill="#475569" stroke="#475569" stroke-width="1.1" points="742.8,-199.77 749.8,-197.32 742.8,-194.87 742.8,-199.77"/>
</g>
<!-- note0 -->
<g id="node10" class="node">
<title>note0</title>
<polygon fill="#fefce8" stroke="#eab308" points="412.58,-44.64 269.18,-44.64 269.18,0 418.58,0 418.58,-38.64 412.58,-44.64"/>
<polyline fill="none" stroke="#eab308" points="412.58,-44.64 412.58,-38.64"/>
<polyline fill="none" stroke="#eab308" points="418.58,-38.64 412.58,-38.64"/>
<text xml:space="preserve" text-anchor="middle" x="343.88" y="-30.82" font-family="Helvetica,sans-Serif" font-size="10.00">This is the radix&#45;4 BMU.</text>
<text xml:space="preserve" text-anchor="middle" x="343.88" y="-18.82" font-family="Helvetica,sans-Serif" font-size="10.00">Two single&#45;bit BMUs are fused</text>
<text xml:space="preserve" text-anchor="middle" x="343.88" y="-6.82" font-family="Helvetica,sans-Serif" font-size="10.00">into one 16&#45;entry gamma table.</text>
</g>
<!-- note0&#45;&gt;combiner -->
<g id="edge9" class="edge">
<title>note0&#45;&gt;combiner</title>
<path fill="none" stroke="#a16207" stroke-width="1.1" stroke-dasharray="1,5" d="M391.91,-45.12C407.62,-52.73 421.2,-59.32 421.2,-59.32 421.2,-59.32 533.21,-141.46 584.41,-178.99"/>
</g>
</g>
</svg>
