<?xml version="1.0" encoding="UTF-8" standalone="no"?>
<!DOCTYPE svg PUBLIC "-//W3C//DTD SVG 1.1//EN"
 "http://www.w3.org/Graphics/SVG/1.1/DTD/svg11.dtd">
<!-- Generated by graphviz version 14.1.2 (0)
 -->
<!-- Title: G Pages: 1 -->
<svg width="458pt" height="366pt"
 viewBox="0.00 0.00 458.00 366.00" xmlns="http://www.w3.org/2000/svg" xmlns:xlink="http://www.w3.org/1999/xlink">
<g id="graph0" class="graph" transform="scale(1 1) rotate(0) translate(4 362.25)">
<title>G</title>
<polygon fill="white" stroke="none" points="-4,4 -4,-362.25 454,-362.25 454,4 -4,4"/>
<text xml:space="preserve" text-anchor="middle" x="225" y="-335.25" font-family="Helvetica,sans-Serif" font-size="20.00">siso_maxlogmap &#45; Shared Radix&#45;4 ACS Unit</text>
<!-- state -->
<g id="node1" class="node">
<title>state</title>
<path fill="#fff2cc" stroke="#555555" d="M12,-272.75C12,-272.75 125.5,-272.75 125.5,-272.75 131.5,-272.75 137.5,-278.75 137.5,-284.75 137.5,-284.75 137.5,-303.75 137.5,-303.75 137.5,-309.75 131.5,-315.75 125.5,-315.75 125.5,-315.75 12,-315.75 12,-315.75 6,-315.75 0,-309.75 0,-303.75 0,-303.75 0,-284.75 0,-284.75 0,-278.75 6,-272.75 12,-272.75"/>
<text xml:space="preserve" text-anchor="middle" x="68.75" y="-301.3" font-family="Helvetica,sans-Serif" font-size="11.00">State Metric Input</text>
<polyline fill="none" stroke="#555555" points="0,-294.25 137.5,-294.25"/>
<text xml:space="preserve" text-anchor="middle" x="68.75" y="-279.8" font-family="Helvetica,sans-Serif" font-size="11.00">alpha_work or beta_work</text>
</g>
<!-- enum -->
<g id="node4" class="node">
<title>enum</title>
<path fill="#d9ead3" stroke="#555555" d="M134.38,-182C134.38,-182 259.12,-182 259.12,-182 265.12,-182 271.12,-188 271.12,-194 271.12,-194 271.12,-213 271.12,-213 271.12,-219 265.12,-225 259.12,-225 259.12,-225 134.38,-225 134.38,-225 128.38,-225 122.38,-219 122.38,-213 122.38,-213 122.38,-194 122.38,-194 122.38,-188 128.38,-182 134.38,-182"/>
<text xml:space="preserve" text-anchor="middle" x="196.75" y="-210.55" font-family="Helvetica,sans-Serif" font-size="11.00">Radix&#45;4 Trellis Enumeration</text>
<polyline fill="none" stroke="#555555" points="122.38,-203.5 271.12,-203.5"/>
<text xml:space="preserve" text-anchor="middle" x="196.75" y="-189.05" font-family="Helvetica,sans-Serif" font-size="11.00">4 input pairs per state path</text>
</g>
<!-- state&#45;&gt;enum -->
<g id="edge1" class="edge">
<title>state&#45;&gt;enum</title>
<path fill="none" stroke="black" d="M98.76,-272.44C116.21,-260.35 138.4,-244.96 157.25,-231.89"/>
<polygon fill="black" stroke="black" points="159.02,-234.92 165.24,-226.35 155.03,-229.17 159.02,-234.92"/>
</g>
<!-- gamma -->
<g id="node2" class="node">
<title>gamma</title>
<path fill="#fff2cc" stroke="#555555" d="M167.75,-272.75C167.75,-272.75 225.75,-272.75 225.75,-272.75 231.75,-272.75 237.75,-278.75 237.75,-284.75 237.75,-284.75 237.75,-303.75 237.75,-303.75 237.75,-309.75 231.75,-315.75 225.75,-315.75 225.75,-315.75 167.75,-315.75 167.75,-315.75 161.75,-315.75 155.75,-309.75 155.75,-303.75 155.75,-303.75 155.75,-284.75 155.75,-284.75 155.75,-278.75 161.75,-272.75 167.75,-272.75"/>
<text xml:space="preserve" text-anchor="middle" x="196.75" y="-301.3" font-family="Helvetica,sans-Serif" font-size="11.00">Gamma Input</text>
<polyline fill="none" stroke="#555555" points="155.75,-294.25 237.75,-294.25"/>
<text xml:space="preserve" text-anchor="middle" x="196.75" y="-279.8" font-family="Helvetica,sans-Serif" font-size="11.00">gamma[0..15]</text>
</g>
<!-- gamma&#45;&gt;enum -->
<g id="edge2" class="edge">
<title>gamma&#45;&gt;enum</title>
<path fill="none" stroke="black" d="M196.75,-272.67C196.75,-261.99 196.75,-248.7 196.75,-236.71"/>
<polygon fill="black" stroke="black" points="200.25,-236.79 196.75,-226.79 193.25,-236.79 200.25,-236.79"/>
</g>
<!-- mode -->
<g id="node3" class="node">
<title>mode</title>
<path fill="#d9ead3" stroke="#555555" d="M267.5,-262C267.5,-262 438,-262 438,-262 444,-262 450,-268 450,-274 450,-274 450,-314.5 450,-314.5 450,-320.5 444,-326.5 438,-326.5 438,-326.5 267.5,-326.5 267.5,-326.5 261.5,-326.5 255.5,-320.5 255.5,-314.5 255.5,-314.5 255.5,-274 255.5,-274 255.5,-268 261.5,-262 267.5,-262"/>
<text xml:space="preserve" text-anchor="middle" x="352.75" y="-312.05" font-family="Helvetica,sans-Serif" font-size="11.00">Direction Select</text>
<polyline fill="none" stroke="#555555" points="255.5,-305 450,-305"/>
<text xml:space="preserve" text-anchor="middle" x="352.75" y="-290.55" font-family="Helvetica,sans-Serif" font-size="11.00">is_backward=false : forward alpha</text>
<polyline fill="none" stroke="#555555" points="255.5,-283.5 450,-283.5"/>
<text xml:space="preserve" text-anchor="middle" x="352.75" y="-269.05" font-family="Helvetica,sans-Serif" font-size="11.00">is_backward=true : dummy/local beta</text>
</g>
<!-- mode&#45;&gt;enum -->
<g id="edge3" class="edge">
<title>mode&#45;&gt;enum</title>
<path fill="none" stroke="black" d="M297.31,-261.71C279.59,-251.63 260.18,-240.59 243.17,-230.91"/>
<polygon fill="black" stroke="black" points="245.21,-228.04 234.79,-226.14 241.75,-234.13 245.21,-228.04"/>
</g>
<!-- reduce -->
<g id="node5" class="node">
<title>reduce</title>
<path fill="#cfe2f3" stroke="#555555" d="M146,-80.5C146,-80.5 247.5,-80.5 247.5,-80.5 253.5,-80.5 259.5,-86.5 259.5,-92.5 259.5,-92.5 259.5,-133 259.5,-133 259.5,-139 253.5,-145 247.5,-145 247.5,-145 146,-145 146,-145 140,-145 134,-139 134,-133 134,-133 134,-92.5 134,-92.5 134,-86.5 140,-80.5 146,-80.5"/>
<text xml:space="preserve" text-anchor="middle" x="196.75" y="-130.55" font-family="Helvetica,sans-Serif" font-size="11.00">Metric Reduction</text>
<polyline fill="none" stroke="#555555" points="134,-123.5 259.5,-123.5"/>
<text xml:space="preserve" text-anchor="middle" x="196.75" y="-109.05" font-family="Helvetica,sans-Serif" font-size="11.00">mod_add</text>
<polyline fill="none" stroke="#555555" points="134,-102 259.5,-102"/>
<text xml:space="preserve" text-anchor="middle" x="196.75" y="-87.55" font-family="Helvetica,sans-Serif" font-size="11.00">mod_max / mod_max4</text>
</g>
<!-- enum&#45;&gt;reduce -->
<g id="edge4" class="edge">
<title>enum&#45;&gt;reduce</title>
<path fill="none" stroke="black" d="M196.75,-181.92C196.75,-174.37 196.75,-165.52 196.75,-156.74"/>
<polygon fill="black" stroke="black" points="200.25,-156.87 196.75,-146.87 193.25,-156.87 200.25,-156.87"/>
</g>
<!-- out -->
<g id="node6" class="node">
<title>out</title>
<path fill="#ead1dc" stroke="#555555" d="M142.25,-0.5C142.25,-0.5 251.25,-0.5 251.25,-0.5 257.25,-0.5 263.25,-6.5 263.25,-12.5 263.25,-12.5 263.25,-31.5 263.25,-31.5 263.25,-37.5 257.25,-43.5 251.25,-43.5 251.25,-43.5 142.25,-43.5 142.25,-43.5 136.25,-43.5 130.25,-37.5 130.25,-31.5 130.25,-31.5 130.25,-12.5 130.25,-12.5 130.25,-6.5 136.25,-0.5 142.25,-0.5"/>
<text xml:space="preserve" text-anchor="middle" x="196.75" y="-29.05" font-family="Helvetica,sans-Serif" font-size="11.00">Next State Metric Vector</text>
<polyline fill="none" stroke="#555555" points="130.25,-22 263.25,-22"/>
<text xml:space="preserve" text-anchor="middle" x="196.75" y="-7.55" font-family="Helvetica,sans-Serif" font-size="11.00">alpha_next or beta_next</text>
</g>
<!-- reduce&#45;&gt;out -->
<g id="edge5" class="edge">
<title>reduce&#45;&gt;out</title>
<path fill="none" stroke="black" d="M196.75,-80.21C196.75,-72.11 196.75,-63.38 196.75,-55.25"/>
<polygon fill="black" stroke="black" points="200.25,-55.4 196.75,-45.4 193.25,-55.4 200.25,-55.4"/>
</g>
</g>
</svg>
