<?xml version="1.0" encoding="UTF-8" standalone="no"?>
<!DOCTYPE svg PUBLIC "-//W3C//DTD SVG 1.1//EN"
 "http://www.w3.org/Graphics/SVG/1.1/DTD/svg11.dtd">
<!-- Generated by graphviz version 14.1.2 (0)
 -->
<!-- Title: siso_functional_units Pages: 1 -->
<svg width="1977pt" height="814pt"
 viewBox="0.00 0.00 1977.00 814.00" xmlns="http://www.w3.org/2000/svg" xmlns:xlink="http://www.w3.org/1999/xlink">
<g id="graph0" class="graph" transform="scale(1 1) rotate(0) translate(14.4 799.65)">
<title>siso_functional_units</title>
<polygon fill="white" stroke="none" points="-14.4,14.4 -14.4,-799.65 1962.6,-799.65 1962.6,14.4 -14.4,14.4"/>
<text xml:space="preserve" text-anchor="middle" x="974.1" y="-767.95" font-family="Helvetica,sans-Serif" font-size="14.00">siso_maxlogmap Internal Functional Units</text>
<g id="clust1" class="cluster">
<title>cluster_gamma</title>
<path fill="white" stroke="#fcd34d" d="M336.4,-188C336.4,-188 747.33,-188 747.33,-188 753.33,-188 759.33,-194 759.33,-200 759.33,-200 759.33,-317 759.33,-317 759.33,-323 753.33,-329 747.33,-329 747.33,-329 336.4,-329 336.4,-329 330.4,-329 324.4,-323 324.4,-317 324.4,-317 324.4,-200 324.4,-200 324.4,-194 330.4,-188 336.4,-188"/>
<text xml:space="preserve" text-anchor="middle" x="541.86" y="-311.7" font-family="Helvetica,sans-Serif" font-size="14.00">Branch&#45;Metric Path</text>
</g>
<g id="clust2" class="cluster">
<title>cluster_acs</title>
<path fill="white" stroke="#f9a8d4" d="M20,-8C20,-8 1252.25,-8 1252.25,-8 1258.25,-8 1264.25,-14 1264.25,-20 1264.25,-20 1264.25,-103 1264.25,-103 1264.25,-109 1258.25,-115 1252.25,-115 1252.25,-115 20,-115 20,-115 14,-115 8,-109 8,-103 8,-103 8,-20 8,-20 8,-14 14,-8 20,-8"/>
<text xml:space="preserve" text-anchor="middle" x="636.13" y="-97.7" font-family="Helvetica,sans-Serif" font-size="14.00">Recursion Path</text>
</g>
<g id="clust3" class="cluster">
<title>cluster_llr</title>
<path fill="white" stroke="#67e8f9" d="M669.68,-529C669.68,-529 1708.8,-529 1708.8,-529 1714.8,-529 1720.8,-535 1720.8,-541 1720.8,-541 1720.8,-658 1720.8,-658 1720.8,-664 1714.8,-670 1708.8,-670 1708.8,-670 669.68,-670 669.68,-670 663.68,-670 657.68,-664 657.68,-658 657.68,-658 657.68,-541 657.68,-541 657.68,-535 663.68,-529 669.68,-529"/>
<text xml:space="preserve" text-anchor="middle" x="1189.24" y="-652.7" font-family="Helvetica,sans-Serif" font-size="14.00">LLR Extraction Path</text>
</g>
<!-- pair_in -->
<g id="node1" class="node">
<title>pair_in</title>
<path fill="#f8fafc" stroke="#334155" d="M105.4,-307.32C105.4,-307.32 27.25,-307.32 27.25,-307.32 21.25,-307.32 15.25,-301.32 15.25,-295.32 15.25,-295.32 15.25,-262.68 15.25,-262.68 15.25,-256.68 21.25,-250.68 27.25,-250.68 27.25,-250.68 105.4,-250.68 105.4,-250.68 111.4,-250.68 117.4,-256.68 117.4,-262.68 117.4,-262.68 117.4,-295.32 117.4,-295.32 117.4,-301.32 111.4,-307.32 105.4,-307.32"/>
<text xml:space="preserve" text-anchor="middle" x="66.33" y="-293.5" font-family="Helvetica,sans-Serif" font-size="10.00">Pair Inputs</text>
<text xml:space="preserve" text-anchor="middle" x="66.33" y="-281.5" font-family="Helvetica,sans-Serif" font-size="10.00">sys_even / sys_odd</text>
<text xml:space="preserve" text-anchor="middle" x="66.33" y="-269.5" font-family="Helvetica,sans-Serif" font-size="10.00">par_even / par_odd</text>
<text xml:space="preserve" text-anchor="middle" x="66.33" y="-257.5" font-family="Helvetica,sans-Serif" font-size="10.00">apri_even / apri_odd</text>
</g>
<!-- bmu_even -->
<g id="node4" class="node">
<title>bmu_even</title>
<path fill="#fffbeb" stroke="#334155" d="M407.55,-297C407.55,-297 344.4,-297 344.4,-297 338.4,-297 332.4,-291 332.4,-285 332.4,-285 332.4,-273 332.4,-273 332.4,-267 338.4,-261 344.4,-261 344.4,-261 407.55,-261 407.55,-261 413.55,-261 419.55,-267 419.55,-273 419.55,-273 419.55,-285 419.55,-285 419.55,-291 413.55,-297 407.55,-297"/>
<text xml:space="preserve" text-anchor="middle" x="375.98" y="-281.5" font-family="Helvetica,sans-Serif" font-size="10.00">branch_metrics()</text>
<text xml:space="preserve" text-anchor="middle" x="375.98" y="-269.5" font-family="Helvetica,sans-Serif" font-size="10.00">even bit</text>
</g>
<!-- pair_in&#45;&gt;bmu_even -->
<g id="edge1" class="edge">
<title>pair_in&#45;&gt;bmu_even</title>
<path fill="none" stroke="#475569" stroke-width="1.1" d="M117.78,-279C174.53,-279 266.22,-279 323.42,-279"/>
<polygon fill="#475569" stroke="#475569" stroke-width="1.1" points="323.28,-281.45 330.28,-279 323.28,-276.55 323.28,-281.45"/>
<text xml:space="preserve" text-anchor="middle" x="177.28" y="-280.95" font-family="Helvetica,sans-Serif" font-size="9.00">even sys/par/apri</text>
</g>
<!-- bmu_odd -->
<g id="node5" class="node">
<title>bmu_odd</title>
<path fill="#fffbeb" stroke="#334155" d="M407.55,-232C407.55,-232 344.4,-232 344.4,-232 338.4,-232 332.4,-226 332.4,-220 332.4,-220 332.4,-208 332.4,-208 332.4,-202 338.4,-196 344.4,-196 344.4,-196 407.55,-196 407.55,-196 413.55,-196 419.55,-202 419.55,-208 419.55,-208 419.55,-220 419.55,-220 419.55,-226 413.55,-232 407.55,-232"/>
<text xml:space="preserve" text-anchor="middle" x="375.98" y="-216.5" font-family="Helvetica,sans-Serif" font-size="10.00">branch_metrics()</text>
<text xml:space="preserve" text-anchor="middle" x="375.98" y="-204.5" font-family="Helvetica,sans-Serif" font-size="10.00">odd bit</text>
</g>
<!-- pair_in&#45;&gt;bmu_odd -->
<g id="edge2" class="edge">
<title>pair_in&#45;&gt;bmu_odd</title>
<path fill="none" stroke="#475569" stroke-width="1.1" d="M117.82,-267.23C131.4,-264.06 142.4,-261.5 142.4,-261.5 142.4,-261.5 255.47,-238.41 323.93,-224.43"/>
<polygon fill="#475569" stroke="#475569" stroke-width="1.1" points="324.05,-226.9 330.41,-223.1 323.07,-222.1 324.05,-226.9"/>
<text xml:space="preserve" text-anchor="middle" x="177.28" y="-263.45" font-family="Helvetica,sans-Serif" font-size="9.00">odd sys/par/apri</text>
</g>
<!-- ext_diff -->
<g id="node17" class="node">
<title>ext_diff</title>
<path fill="#ecfeff" stroke="#334155" d="M1470.65,-638C1470.65,-638 1391.75,-638 1391.75,-638 1385.75,-638 1379.75,-632 1379.75,-626 1379.75,-626 1379.75,-614 1379.75,-614 1379.75,-608 1385.75,-602 1391.75,-602 1391.75,-602 1470.65,-602 1470.65,-602 1476.65,-602 1482.65,-608 1482.65,-614 1482.65,-614 1482.65,-626 1482.65,-626 1482.65,-632 1476.65,-638 1470.65,-638"/>
<text xml:space="preserve" text-anchor="middle" x="1431.2" y="-622.5" font-family="Helvetica,sans-Serif" font-size="10.00">extrinsic subtractors</text>
<text xml:space="preserve" text-anchor="middle" x="1431.2" y="-610.5" font-family="Helvetica,sans-Serif" font-size="10.00">post &#45; sys &#45; apri</text>
</g>
<!-- pair_in&#45;&gt;ext_diff -->
<g id="edge25" class="edge">
<title>pair_in&#45;&gt;ext_diff</title>
<path fill="none" stroke="#475569" stroke-width="1.1" d="M82.85,-307.61C124.77,-384.87 237.15,-592 237.15,-592 237.15,-592 374.98,-751 374.98,-751 374.98,-751 374.98,-751 1207.68,-751 1207.68,-751 1328,-680.17 1391.69,-642.67"/>
<polygon fill="#475569" stroke="#475569" stroke-width="1.1" points="1392.57,-645 1397.35,-639.34 1390.08,-640.78 1392.57,-645"/>
<text xml:space="preserve" text-anchor="middle" x="823.58" y="-752.95" font-family="Helvetica,sans-Serif" font-size="9.00">sys/apri subtraction</text>
</g>
<!-- state_in -->
<g id="node2" class="node">
<title>state_in</title>
<path fill="#f8fafc" stroke="#334155" d="M422.93,-577.32C422.93,-577.32 329.03,-577.32 329.03,-577.32 323.03,-577.32 317.03,-571.32 317.03,-565.32 317.03,-565.32 317.03,-544.68 317.03,-544.68 317.03,-538.68 323.03,-532.68 329.03,-532.68 329.03,-532.68 422.93,-532.68 422.93,-532.68 428.93,-532.68 434.93,-538.68 434.93,-544.68 434.93,-544.68 434.93,-565.32 434.93,-565.32 434.93,-571.32 428.93,-577.32 422.93,-577.32"/>
<text xml:space="preserve" text-anchor="middle" x="375.98" y="-563.5" font-family="Helvetica,sans-Serif" font-size="10.00">State Inputs</text>
<text xml:space="preserve" text-anchor="middle" x="375.98" y="-551.5" font-family="Helvetica,sans-Serif" font-size="10.00">alpha_work / beta_work</text>
<text xml:space="preserve" text-anchor="middle" x="375.98" y="-539.5" font-family="Helvetica,sans-Serif" font-size="10.00">or local alpha / beta</text>
</g>
<!-- acs -->
<g id="node10" class="node">
<title>acs</title>
<path fill="#fdf2f8" stroke="#334155" d="M976.98,-83C976.98,-83 901.83,-83 901.83,-83 895.83,-83 889.83,-77 889.83,-71 889.83,-71 889.83,-59 889.83,-59 889.83,-53 895.83,-47 901.83,-47 901.83,-47 976.98,-47 976.98,-47 982.98,-47 988.98,-53 988.98,-59 988.98,-59 988.98,-71 988.98,-71 988.98,-77 982.98,-83 976.98,-83"/>
<text xml:space="preserve" text-anchor="middle" x="939.4" y="-67.5" font-family="Helvetica,sans-Serif" font-size="10.00">acs_step()</text>
<text xml:space="preserve" text-anchor="middle" x="939.4" y="-55.5" font-family="Helvetica,sans-Serif" font-size="10.00">shared radix&#45;4 ACS</text>
</g>
<!-- state_in&#45;&gt;acs -->
<g id="edge6" class="edge">
<title>state_in&#45;&gt;acs</title>
<path fill="none" stroke="#475569" stroke-width="1.1" d="M431.35,-532.25C536.91,-488.07 759.33,-395 759.33,-395 759.33,-395 882.38,-168.24 924.47,-90.66"/>
<polygon fill="#475569" stroke="#475569" stroke-width="1.1" points="926.54,-92 927.72,-84.68 922.23,-89.66 926.54,-92"/>
<text xml:space="preserve" text-anchor="middle" x="703.63" y="-443.25" font-family="Helvetica,sans-Serif" font-size="9.00">alpha or beta state vector</text>
</g>
<!-- alpha_mid -->
<g id="node12" class="node">
<title>alpha_mid</title>
<path fill="#ecfeff" stroke="#334155" d="M729.58,-638C729.58,-638 677.68,-638 677.68,-638 671.68,-638 665.68,-632 665.68,-626 665.68,-626 665.68,-614 665.68,-614 665.68,-608 671.68,-602 677.68,-602 677.68,-602 729.58,-602 729.58,-602 735.58,-602 741.58,-608 741.58,-614 741.58,-614 741.58,-626 741.58,-626 741.58,-632 735.58,-638 729.58,-638"/>
<text xml:space="preserve" text-anchor="middle" x="703.63" y="-622.5" font-family="Helvetica,sans-Serif" font-size="10.00">alpha_mid</text>
<text xml:space="preserve" text-anchor="middle" x="703.63" y="-610.5" font-family="Helvetica,sans-Serif" font-size="10.00">reconstruction</text>
</g>
<!-- state_in&#45;&gt;alpha_mid -->
<g id="edge14" class="edge">
<title>state_in&#45;&gt;alpha_mid</title>
<path fill="none" stroke="#475569" stroke-width="1.1" d="M435.19,-566.62C498.67,-579.29 598.91,-599.3 656.95,-610.88"/>
<polygon fill="#475569" stroke="#475569" stroke-width="1.1" points="656.22,-613.24 663.57,-612.2 657.18,-608.43 656.22,-613.24"/>
<text xml:space="preserve" text-anchor="middle" x="581.43" y="-604.52" font-family="Helvetica,sans-Serif" font-size="9.00">alpha_in</text>
</g>
<!-- beta_mid -->
<g id="node13" class="node">
<title>beta_mid</title>
<path fill="#ecfeff" stroke="#334155" d="M729.58,-573C729.58,-573 677.68,-573 677.68,-573 671.68,-573 665.68,-567 665.68,-561 665.68,-561 665.68,-549 665.68,-549 665.68,-543 671.68,-537 677.68,-537 677.68,-537 729.58,-537 729.58,-537 735.58,-537 741.58,-543 741.58,-549 741.58,-549 741.58,-561 741.58,-561 741.58,-567 735.58,-573 729.58,-573"/>
<text xml:space="preserve" text-anchor="middle" x="703.63" y="-557.5" font-family="Helvetica,sans-Serif" font-size="10.00">beta_mid</text>
<text xml:space="preserve" text-anchor="middle" x="703.63" y="-545.5" font-family="Helvetica,sans-Serif" font-size="10.00">reconstruction</text>
</g>
<!-- state_in&#45;&gt;beta_mid -->
<g id="edge15" class="edge">
<title>state_in&#45;&gt;beta_mid</title>
<path fill="none" stroke="#475569" stroke-width="1.1" d="M435.19,-555C498.54,-555 598.5,-555 656.59,-555"/>
<polygon fill="#475569" stroke="#475569" stroke-width="1.1" points="656.53,-557.45 663.53,-555 656.53,-552.55 656.53,-557.45"/>
<text xml:space="preserve" text-anchor="middle" x="581.43" y="-556.95" font-family="Helvetica,sans-Serif" font-size="9.00">beta_in</text>
</g>
<!-- max_even -->
<g id="node14" class="node">
<title>max_even</title>
<path fill="#ecfeff" stroke="#334155" d="M978.85,-638C978.85,-638 899.95,-638 899.95,-638 893.95,-638 887.95,-632 887.95,-626 887.95,-626 887.95,-614 887.95,-614 887.95,-608 893.95,-602 899.95,-602 899.95,-602 978.85,-602 978.85,-602 984.85,-602 990.85,-608 990.85,-614 990.85,-614 990.85,-626 990.85,-626 990.85,-632 984.85,-638 978.85,-638"/>
<text xml:space="preserve" text-anchor="middle" x="939.4" y="-622.5" font-family="Helvetica,sans-Serif" font-size="10.00">even&#45;bit max tree</text>
<text xml:space="preserve" text-anchor="middle" x="939.4" y="-610.5" font-family="Helvetica,sans-Serif" font-size="10.00">max0_u0 / max1_u0</text>
</g>
<!-- state_in&#45;&gt;max_even -->
<g id="edge20" class="edge">
<title>state_in&#45;&gt;max_even</title>
<path fill="none" stroke="#475569" stroke-width="1.1" d="M433.92,-577.73C480.88,-596.48 539.8,-620 539.8,-620 539.8,-620 648.05,-653 648.05,-653 648.05,-653 759.33,-653 759.33,-653 759.33,-653 827.17,-640.5 879.34,-630.88"/>
<polygon fill="#475569" stroke="#475569" stroke-width="1.1" points="879.49,-633.35 885.93,-629.67 878.6,-628.53 879.49,-633.35"/>
<text xml:space="preserve" text-anchor="middle" x="703.63" y="-654.95" font-family="Helvetica,sans-Serif" font-size="9.00">alpha_in</text>
</g>
<!-- max_odd -->
<g id="node15" class="node">
<title>max_odd</title>
<path fill="#ecfeff" stroke="#334155" d="M978.85,-573C978.85,-573 899.95,-573 899.95,-573 893.95,-573 887.95,-567 887.95,-561 887.95,-561 887.95,-549 887.95,-549 887.95,-543 893.95,-537 899.95,-537 899.95,-537 978.85,-537 978.85,-537 984.85,-537 990.85,-543 990.85,-549 990.85,-549 990.85,-561 990.85,-561 990.85,-567 984.85,-573 978.85,-573"/>
<text xml:space="preserve" text-anchor="middle" x="939.4" y="-557.5" font-family="Helvetica,sans-Serif" font-size="10.00">odd&#45;bit max tree</text>
<text xml:space="preserve" text-anchor="middle" x="939.4" y="-545.5" font-family="Helvetica,sans-Serif" font-size="10.00">max0_u1 / max1_u1</text>
</g>
<!-- state_in&#45;&gt;max_odd -->
<g id="edge21" class="edge">
<title>state_in&#45;&gt;max_odd</title>
<path fill="none" stroke="#475569" stroke-width="1.1" d="M435.13,-545.88C514.78,-533.39 648.05,-512.5 648.05,-512.5 648.05,-512.5 759.33,-512.5 759.33,-512.5 759.33,-512.5 827.17,-528.6 879.34,-540.98"/>
<polygon fill="#475569" stroke="#475569" stroke-width="1.1" points="878.57,-543.32 885.94,-542.55 879.7,-538.55 878.57,-543.32"/>
<text xml:space="preserve" text-anchor="middle" x="703.63" y="-514.45" font-family="Helvetica,sans-Serif" font-size="9.00">beta_in</text>
</g>
<!-- pair_out -->
<g id="node3" class="node">
<title>pair_out</title>
<path fill="#f8fafc" stroke="#334155" d="M1936.2,-673.32C1936.2,-673.32 1852.05,-673.32 1852.05,-673.32 1846.05,-673.32 1840.05,-667.32 1840.05,-661.32 1840.05,-661.32 1840.05,-640.68 1840.05,-640.68 1840.05,-634.68 1846.05,-628.68 1852.05,-628.68 1852.05,-628.68 1936.2,-628.68 1936.2,-628.68 1942.2,-628.68 1948.2,-634.68 1948.2,-640.68 1948.2,-640.68 1948.2,-661.32 1948.2,-661.32 1948.2,-667.32 1942.2,-673.32 1936.2,-673.32"/>
<text xml:space="preserve" text-anchor="middle" x="1894.13" y="-659.5" font-family="Helvetica,sans-Serif" font-size="10.00">Pair Outputs</text>
<text xml:space="preserve" text-anchor="middle" x="1894.13" y="-647.5" font-family="Helvetica,sans-Serif" font-size="10.00">post_even / post_odd</text>
<text xml:space="preserve" text-anchor="middle" x="1894.13" y="-635.5" font-family="Helvetica,sans-Serif" font-size="10.00">ext_even / ext_odd</text>
</g>
<!-- pair_gamma -->
<g id="node6" class="node">
<title>pair_gamma</title>
<path fill="#fffbeb" stroke="#334155" d="M739.33,-232C739.33,-232 667.93,-232 667.93,-232 661.93,-232 655.93,-226 655.93,-220 655.93,-220 655.93,-208 655.93,-208 655.93,-202 661.93,-196 667.93,-196 667.93,-196 739.33,-196 739.33,-196 745.33,-196 751.33,-202 751.33,-208 751.33,-208 751.33,-220 751.33,-220 751.33,-226 745.33,-232 739.33,-232"/>
<text xml:space="preserve" text-anchor="middle" x="703.63" y="-216.5" font-family="Helvetica,sans-Serif" font-size="10.00">pair_gamma()</text>
<text xml:space="preserve" text-anchor="middle" x="703.63" y="-204.5" font-family="Helvetica,sans-Serif" font-size="10.00">16&#45;entry gamma_v</text>
</g>
<!-- bmu_even&#45;&gt;pair_gamma -->
<g id="edge3" class="edge">
<title>bmu_even&#45;&gt;pair_gamma</title>
<path fill="none" stroke="#475569" stroke-width="1.1" d="M419.88,-270.44C478.31,-258.77 582.97,-237.88 647.26,-225.05"/>
<polygon fill="#475569" stroke="#475569" stroke-width="1.1" points="647.65,-227.47 654.03,-223.7 646.69,-222.67 647.65,-227.47"/>
</g>
<!-- bmu_even&#45;&gt;alpha_mid -->
<g id="edge12" class="edge">
<title>bmu_even&#45;&gt;alpha_mid</title>
<path fill="none" stroke="#475569" stroke-width="1.1" d="M394.28,-297.18C450.29,-356.02 623.05,-537.5 623.05,-537.5 623.05,-537.5 648.05,-588 648.05,-588 648.05,-588 654.91,-592.02 663.76,-597.21"/>
<polygon fill="#475569" stroke="#475569" stroke-width="1.1" points="662.48,-599.3 669.76,-600.73 664.96,-595.07 662.48,-599.3"/>
<text xml:space="preserve" text-anchor="middle" x="581.43" y="-539.45" font-family="Helvetica,sans-Serif" font-size="9.00">g0</text>
</g>
<!-- bmu_even&#45;&gt;max_even -->
<g id="edge18" class="edge">
<title>bmu_even&#45;&gt;max_even</title>
<path fill="none" stroke="#475569" stroke-width="1.1" d="M419.76,-295.03C468,-313.1 539.8,-340 539.8,-340 539.8,-340 759.33,-381.5 759.33,-381.5 759.33,-381.5 887.95,-588 887.95,-588 887.95,-588 894.16,-591.94 902.23,-597.06"/>
<polygon fill="#475569" stroke="#475569" stroke-width="1.1" points="900.72,-599 907.94,-600.68 903.34,-594.86 900.72,-599"/>
<text xml:space="preserve" text-anchor="middle" x="703.63" y="-383.45" font-family="Helvetica,sans-Serif" font-size="9.00">g0</text>
</g>
<!-- bmu_odd&#45;&gt;pair_gamma -->
<g id="edge4" class="edge">
<title>bmu_odd&#45;&gt;pair_gamma</title>
<path fill="none" stroke="#475569" stroke-width="1.1" d="M419.88,-214C478.31,-214 582.97,-214 647.26,-214"/>
<polygon fill="#475569" stroke="#475569" stroke-width="1.1" points="647,-216.45 654,-214 647,-211.55 647,-216.45"/>
</g>
<!-- bmu_odd&#45;&gt;beta_mid -->
<g id="edge13" class="edge">
<title>bmu_odd&#45;&gt;beta_mid</title>
<path fill="none" stroke="#475569" stroke-width="1.1" d="M419.83,-224.26C460.29,-233.95 514.8,-247 514.8,-247 514.8,-247 539.8,-295 539.8,-295 539.8,-295 623.05,-436.5 623.05,-436.5 623.05,-436.5 648.05,-515 648.05,-515 648.05,-515 658.85,-522.92 670.85,-531.71"/>
<polygon fill="#475569" stroke="#475569" stroke-width="1.1" points="669.14,-533.49 676.23,-535.65 672.03,-529.54 669.14,-533.49"/>
<text xml:space="preserve" text-anchor="middle" x="581.43" y="-438.45" font-family="Helvetica,sans-Serif" font-size="9.00">g1</text>
</g>
<!-- bmu_odd&#45;&gt;max_odd -->
<g id="edge19" class="edge">
<title>bmu_odd&#45;&gt;max_odd</title>
<path fill="none" stroke="#475569" stroke-width="1.1" d="M419.83,-224.26C460.29,-233.95 514.8,-247 514.8,-247 514.8,-247 759.33,-343.5 759.33,-343.5 759.33,-343.5 862.95,-416 862.95,-416 862.95,-416 902.42,-488.71 924.26,-528.96"/>
<polygon fill="#475569" stroke="#475569" stroke-width="1.1" points="922.09,-530.1 927.59,-535.08 926.4,-527.76 922.09,-530.1"/>
<text xml:space="preserve" text-anchor="middle" x="703.63" y="-345.45" font-family="Helvetica,sans-Serif" font-size="9.00">g1</text>
</g>
<!-- pair_gamma&#45;&gt;acs -->
<g id="edge5" class="edge">
<title>pair_gamma&#45;&gt;acs</title>
<path fill="none" stroke="#475569" stroke-width="1.1" d="M733.29,-195.73C775.88,-168.58 855.83,-117.63 902.33,-87.99"/>
<polygon fill="#475569" stroke="#475569" stroke-width="1.1" points="903.51,-90.14 908.1,-84.31 900.88,-86.01 903.51,-90.14"/>
<text xml:space="preserve" text-anchor="middle" x="823.58" y="-163.5" font-family="Helvetica,sans-Serif" font-size="9.00">gamma_v</text>
</g>
<!-- pack_seed -->
<g id="node7" class="node">
<title>pack_seed</title>
<path fill="#fdf2f8" stroke="#334155" d="M104.65,-67C104.65,-67 28,-67 28,-67 22,-67 16,-61 16,-55 16,-55 16,-43 16,-43 16,-37 22,-31 28,-31 28,-31 104.65,-31 104.65,-31 110.65,-31 116.65,-37 116.65,-43 116.65,-43 116.65,-55 116.65,-55 116.65,-61 110.65,-67 104.65,-67"/>
<text xml:space="preserve" text-anchor="middle" x="66.33" y="-45.5" font-family="Helvetica,sans-Serif" font-size="10.00">pack_state_metric()</text>
</g>
<!-- alpha_seed_ram -->
<g id="node8" class="node">
<title>alpha_seed_ram</title>
<path fill="#fdf2f8" stroke="#334155" d="M412.05,-83C412.05,-83 339.9,-83 339.9,-83 333.9,-83 327.9,-77 327.9,-71 327.9,-71 327.9,-59 327.9,-59 327.9,-53 333.9,-47 339.9,-47 339.9,-47 412.05,-47 412.05,-47 418.05,-47 424.05,-53 424.05,-59 424.05,-59 424.05,-71 424.05,-71 424.05,-77 418.05,-83 412.05,-83"/>
<text xml:space="preserve" text-anchor="middle" x="375.98" y="-61.5" font-family="Helvetica,sans-Serif" font-size="10.00">alpha_seed BRAM</text>
</g>
<!-- pack_seed&#45;&gt;alpha_seed_ram -->
<g id="edge8" class="edge">
<title>pack_seed&#45;&gt;alpha_seed_ram</title>
<path fill="none" stroke="#475569" stroke-width="1.1" d="M117.1,-51.59C172.34,-54.46 261.28,-59.09 318.93,-62.09"/>
<polygon fill="#475569" stroke="#475569" stroke-width="1.1" points="318.77,-64.53 325.89,-62.45 319.02,-59.64 318.77,-64.53"/>
</g>
<!-- unpack_seed -->
<g id="node9" class="node">
<title>unpack_seed</title>
<path fill="#fdf2f8" stroke="#334155" d="M747.2,-83C747.2,-83 660.05,-83 660.05,-83 654.05,-83 648.05,-77 648.05,-71 648.05,-71 648.05,-59 648.05,-59 648.05,-53 654.05,-47 660.05,-47 660.05,-47 747.2,-47 747.2,-47 753.2,-47 759.2,-53 759.2,-59 759.2,-59 759.2,-71 759.2,-71 759.2,-77 753.2,-83 747.2,-83"/>
<text xml:space="preserve" text-anchor="middle" x="703.63" y="-61.5" font-family="Helvetica,sans-Serif" font-size="10.00">unpack_state_metric()</text>
</g>
<!-- alpha_seed_ram&#45;&gt;unpack_seed -->
<g id="edge9" class="edge">
<title>alpha_seed_ram&#45;&gt;unpack_seed</title>
<path fill="none" stroke="#475569" stroke-width="1.1" d="M424.33,-65C481.05,-65 576.3,-65 639.3,-65"/>
<polygon fill="#475569" stroke="#475569" stroke-width="1.1" points="638.93,-67.45 645.93,-65 638.93,-62.55 638.93,-67.45"/>
</g>
<!-- unpack_seed&#45;&gt;acs -->
<g id="edge10" class="edge">
<title>unpack_seed&#45;&gt;acs</title>
<path fill="none" stroke="#475569" stroke-width="1.1" d="M759.43,-65C796.07,-65 844.17,-65 881.27,-65"/>
<polygon fill="#475569" stroke="#475569" stroke-width="1.1" points="880.83,-67.45 887.83,-65 880.83,-62.55 880.83,-67.45"/>
<text xml:space="preserve" text-anchor="middle" x="823.58" y="-66.95" font-family="Helvetica,sans-Serif" font-size="9.00">window alpha start</text>
</g>
<!-- acs&#45;&gt;pack_seed -->
<g id="edge7" class="edge">
<title>acs&#45;&gt;pack_seed</title>
<path fill="none" stroke="#475569" stroke-width="1.1" d="M889.47,-56.26C836.45,-46.78 759.33,-33 759.33,-33 759.33,-33 237.15,-33 237.15,-33 237.15,-33 174.49,-38.9 125.29,-43.54"/>
<polygon fill="#475569" stroke="#475569" stroke-width="1.1" points="125.3,-41.08 118.56,-44.17 125.76,-45.96 125.3,-41.08"/>
<text xml:space="preserve" text-anchor="middle" x="581.43" y="-34.95" font-family="Helvetica,sans-Serif" font-size="9.00">forward alpha seeds</text>
</g>
<!-- local_buf -->
<g id="node11" class="node">
<title>local_buf</title>
<path fill="#fdf2f8" stroke="#334155" d="M1244.25,-83C1244.25,-83 1169.1,-83 1169.1,-83 1163.1,-83 1157.1,-77 1157.1,-71 1157.1,-71 1157.1,-59 1157.1,-59 1157.1,-53 1163.1,-47 1169.1,-47 1169.1,-47 1244.25,-47 1244.25,-47 1250.25,-47 1256.25,-53 1256.25,-59 1256.25,-59 1256.25,-71 1256.25,-71 1256.25,-77 1250.25,-83 1244.25,-83"/>
<text xml:space="preserve" text-anchor="middle" x="1206.68" y="-67.5" font-family="Helvetica,sans-Serif" font-size="10.00">alpha_local_mem</text>
<text xml:space="preserve" text-anchor="middle" x="1206.68" y="-55.5" font-family="Helvetica,sans-Serif" font-size="10.00">gamma_local_mem</text>
</g>
<!-- acs&#45;&gt;local_buf -->
<g id="edge11" class="edge">
<title>acs&#45;&gt;local_buf</title>
<path fill="none" stroke="#475569" stroke-width="1.1" d="M989.36,-65C1034.32,-65 1100.96,-65 1148.38,-65"/>
<polygon fill="#475569" stroke="#475569" stroke-width="1.1" points="1148.33,-67.45 1155.33,-65 1148.33,-62.55 1148.33,-67.45"/>
<text xml:space="preserve" text-anchor="middle" x="1072.85" y="-66.95" font-family="Helvetica,sans-Serif" font-size="9.00">LOCAL_FWD alpha/gamma</text>
</g>
<!-- alpha_mid&#45;&gt;max_odd -->
<g id="edge16" class="edge">
<title>alpha_mid&#45;&gt;max_odd</title>
<path fill="none" stroke="#475569" stroke-width="1.1" d="M741.75,-611.33C788.54,-600.39 862.95,-583 862.95,-583 862.95,-583 870.55,-580.18 880.94,-576.33"/>
<polygon fill="#475569" stroke="#475569" stroke-width="1.1" points="881.64,-578.68 887.35,-573.94 879.94,-574.08 881.64,-578.68"/>
<text xml:space="preserve" text-anchor="middle" x="823.58" y="-602.34" font-family="Helvetica,sans-Serif" font-size="9.00">alpha_mid</text>
</g>
<!-- beta_mid&#45;&gt;max_even -->
<g id="edge17" class="edge">
<title>beta_mid&#45;&gt;max_even</title>
<path fill="none" stroke="#475569" stroke-width="1.1" d="M741.75,-558.17C788.54,-562.16 862.95,-568.5 862.95,-568.5 862.95,-568.5 887.95,-588 887.95,-588 887.95,-588 894.16,-591.94 902.23,-597.06"/>
<polygon fill="#475569" stroke="#475569" stroke-width="1.1" points="900.72,-599 907.94,-600.68 903.34,-594.86 900.72,-599"/>
<text xml:space="preserve" text-anchor="middle" x="823.58" y="-570.45" font-family="Helvetica,sans-Serif" font-size="9.00">beta_mid</text>
</g>
<!-- post_diff -->
<g id="node16" class="node">
<title>post_diff</title>
<path fill="#ecfeff" stroke="#334155" d="M1246.5,-638C1246.5,-638 1166.85,-638 1166.85,-638 1160.85,-638 1154.85,-632 1154.85,-626 1154.85,-626 1154.85,-614 1154.85,-614 1154.85,-608 1160.85,-602 1166.85,-602 1166.85,-602 1246.5,-602 1246.5,-602 1252.5,-602 1258.5,-608 1258.5,-614 1258.5,-614 1258.5,-626 1258.5,-626 1258.5,-632 1252.5,-638 1246.5,-638"/>
<text xml:space="preserve" text-anchor="middle" x="1206.68" y="-622.5" font-family="Helvetica,sans-Serif" font-size="10.00">posterior subtractors</text>
<text xml:space="preserve" text-anchor="middle" x="1206.68" y="-610.5" font-family="Helvetica,sans-Serif" font-size="10.00">post1&#45;post0 paths</text>
</g>
<!-- max_even&#45;&gt;post_diff -->
<g id="edge22" class="edge">
<title>max_even&#45;&gt;post_diff</title>
<path fill="none" stroke="#475569" stroke-width="1.1" d="M991.23,-620C1035.42,-620 1099.48,-620 1146.07,-620"/>
<polygon fill="#475569" stroke="#475569" stroke-width="1.1" points="1145.9,-622.45 1152.9,-620 1145.9,-617.55 1145.9,-622.45"/>
<text xml:space="preserve" text-anchor="middle" x="1072.85" y="-621.95" font-family="Helvetica,sans-Serif" font-size="9.00">post_even path</text>
</g>
<!-- max_odd&#45;&gt;post_diff -->
<g id="edge23" class="edge">
<title>max_odd&#45;&gt;post_diff</title>
<path fill="none" stroke="#475569" stroke-width="1.1" d="M991.23,-567.46C1035.51,-578.31 1099.75,-594.05 1146.36,-605.47"/>
<polygon fill="#475569" stroke="#475569" stroke-width="1.1" points="1145.56,-607.79 1152.94,-607.08 1146.73,-603.03 1145.56,-607.79"/>
<text xml:space="preserve" text-anchor="middle" x="1072.85" y="-602.74" font-family="Helvetica,sans-Serif" font-size="9.00">post_odd path</text>
</g>
<!-- post_diff&#45;&gt;pair_out -->
<g id="edge27" class="edge">
<title>post_diff&#45;&gt;pair_out</title>
<path fill="none" stroke="#475569" stroke-width="1.1" d="M1258.67,-632.11C1272.39,-635.36 1283.5,-638 1283.5,-638 1283.5,-638 1379.75,-653 1379.75,-653 1379.75,-653 1737.8,-658 1737.8,-658 1737.8,-658 1815.05,-658 1815.05,-658 1815.05,-658 1821.75,-657.4 1831.23,-656.55"/>
<polygon fill="#475569" stroke="#475569" stroke-width="1.1" points="1831.34,-659 1838.1,-655.93 1830.9,-654.12 1831.34,-659"/>
<text xml:space="preserve" text-anchor="middle" x="1551.53" y="-657.91" font-family="Helvetica,sans-Serif" font-size="9.00">post_even / post_odd</text>
</g>
<!-- post_diff&#45;&gt;ext_diff -->
<g id="edge24" class="edge">
<title>post_diff&#45;&gt;ext_diff</title>
<path fill="none" stroke="#475569" stroke-width="1.1" d="M1258.73,-620C1292.23,-620 1336.15,-620 1371.15,-620"/>
<polygon fill="#475569" stroke="#475569" stroke-width="1.1" points="1370.72,-622.45 1377.72,-620 1370.72,-617.55 1370.72,-622.45"/>
<text xml:space="preserve" text-anchor="middle" x="1319.13" y="-621.95" font-family="Helvetica,sans-Serif" font-size="9.00">post0_v / post1_v</text>
</g>
<!-- scale_ext -->
<g id="node18" class="node">
<title>scale_ext</title>
<path fill="#ecfeff" stroke="#334155" d="M1700.8,-638C1700.8,-638 1632.4,-638 1632.4,-638 1626.4,-638 1620.4,-632 1620.4,-626 1620.4,-626 1620.4,-614 1620.4,-614 1620.4,-608 1626.4,-602 1632.4,-602 1632.4,-602 1700.8,-602 1700.8,-602 1706.8,-602 1712.8,-608 1712.8,-614 1712.8,-614 1712.8,-626 1712.8,-626 1712.8,-632 1706.8,-638 1700.8,-638"/>
<text xml:space="preserve" text-anchor="middle" x="1666.6" y="-622.5" font-family="Helvetica,sans-Serif" font-size="10.00">scale_ext()</text>
<text xml:space="preserve" text-anchor="middle" x="1666.6" y="-610.5" font-family="Helvetica,sans-Serif" font-size="10.00">11/16 + saturation</text>
</g>
<!-- ext_diff&#45;&gt;scale_ext -->
<g id="edge26" class="edge">
<title>ext_diff&#45;&gt;scale_ext</title>
<path fill="none" stroke="#475569" stroke-width="1.1" d="M1483.13,-620C1521.04,-620 1572.7,-620 1611.37,-620"/>
<polygon fill="#475569" stroke="#475569" stroke-width="1.1" points="1611.25,-622.45 1618.25,-620 1611.25,-617.55 1611.25,-622.45"/>
<text xml:space="preserve" text-anchor="middle" x="1551.53" y="-621.95" font-family="Helvetica,sans-Serif" font-size="9.00">ext0_v / ext1_v</text>
</g>
<!-- scale_ext&#45;&gt;pair_out -->
<g id="edge28" class="edge">
<title>scale_ext&#45;&gt;pair_out</title>
<path fill="none" stroke="#475569" stroke-width="1.1" d="M1713.24,-626.27C1747.22,-630.94 1793.99,-637.37 1831.33,-642.51"/>
<polygon fill="#475569" stroke="#475569" stroke-width="1.1" points="1830.71,-644.89 1837.98,-643.42 1831.37,-640.04 1830.71,-644.89"/>
<text xml:space="preserve" text-anchor="middle" x="1776.43" y="-642.04" font-family="Helvetica,sans-Serif" font-size="9.00">ext_even / ext_odd</text>
</g>
<!-- note0 -->
<g id="node19" class="node">
<title>note0</title>
<polygon fill="#fefce8" stroke="#eab308" points="508.8,-167.32 237.15,-167.32 237.15,-122.68 514.8,-122.68 514.8,-161.32 508.8,-167.32"/>
<polyline fill="none" stroke="#eab308" points="508.8,-167.32 508.8,-161.32"/>
<polyline fill="none" stroke="#eab308" points="514.8,-161.32 508.8,-161.32"/>
<text xml:space="preserve" text-anchor="middle" x="375.98" y="-153.5" font-family="Helvetica,sans-Serif" font-size="10.00">Two major arithmetic flows:</text>
<text xml:space="preserve" text-anchor="middle" x="375.98" y="-141.5" font-family="Helvetica,sans-Serif" font-size="10.00">1. BMU &#45;&gt; gamma &#45;&gt; ACS</text>
<text xml:space="preserve" text-anchor="middle" x="375.98" y="-129.5" font-family="Helvetica,sans-Serif" font-size="10.00">2. BMU &#45;&gt; mid&#45;state recon &#45;&gt; max trees &#45;&gt; subtract &#45;&gt; scale</text>
</g>
<!-- note0&#45;&gt;pair_gamma -->
<g id="edge29" class="edge">
<title>note0&#45;&gt;pair_gamma</title>
<path fill="none" stroke="#a16207" stroke-width="1.1" stroke-dasharray="1,5" d="M484.51,-167.78C542.49,-180.07 611.1,-194.61 655.67,-204.05"/>
</g>
</g>
</svg>
