<?xml version="1.0" encoding="UTF-8" standalone="no"?>
<!DOCTYPE svg PUBLIC "-//W3C//DTD SVG 1.1//EN"
 "http://www.w3.org/Graphics/SVG/1.1/DTD/svg11.dtd">
<!-- Generated by graphviz version 14.1.2 (0)
 -->
<!-- Title: batcher_master_units Pages: 1 -->
<svg width="975pt" height="372pt"
 viewBox="0.00 0.00 975.00 372.00" xmlns="http://www.w3.org/2000/svg" xmlns:xlink="http://www.w3.org/1999/xlink">
<g id="graph0" class="graph" transform="scale(1 1) rotate(0) translate(14.4 357.47)">
<title>batcher_master_units</title>
<polygon fill="white" stroke="none" points="-14.4,14.4 -14.4,-357.47 960.85,-357.47 960.85,14.4 -14.4,14.4"/>
<text xml:space="preserve" text-anchor="middle" x="473.23" y="-325.77" font-family="Helvetica,sans-Serif" font-size="14.00">batcher_master Internal Functional Units</text>
<g id="clust1" class="cluster">
<title>cluster_init</title>
<path fill="white" stroke="#93c5fd" d="M200.27,-170.32C200.27,-170.32 316.93,-170.32 316.93,-170.32 322.93,-170.32 328.93,-176.32 328.93,-182.32 328.93,-182.32 328.93,-299.32 328.93,-299.32 328.93,-305.32 322.93,-311.32 316.93,-311.32 316.93,-311.32 200.27,-311.32 200.27,-311.32 194.27,-311.32 188.27,-305.32 188.27,-299.32 188.27,-299.32 188.27,-182.32 188.27,-182.32 188.27,-176.32 194.27,-170.32 200.27,-170.32"/>
<text xml:space="preserve" text-anchor="middle" x="258.6" y="-294.02" font-family="Helvetica,sans-Serif" font-size="14.00">Initialization Units</text>
</g>
<g id="clust2" class="cluster">
<title>cluster_cells</title>
<path fill="white" stroke="#fcd34d" d="M199.52,-66.32C199.52,-66.32 317.68,-66.32 317.68,-66.32 323.68,-66.32 329.68,-72.32 329.68,-78.32 329.68,-78.32 329.68,-150.32 329.68,-150.32 329.68,-156.32 323.68,-162.32 317.68,-162.32 317.68,-162.32 199.52,-162.32 199.52,-162.32 193.52,-162.32 187.52,-156.32 187.52,-150.32 187.52,-150.32 187.52,-78.32 187.52,-78.32 187.52,-72.32 193.52,-66.32 199.52,-66.32"/>
<text xml:space="preserve" text-anchor="middle" x="258.6" y="-145.02" font-family="Helvetica,sans-Serif" font-size="14.00">Deep Primitive</text>
</g>
<g id="clust3" class="cluster">
<title>cluster_net</title>
<path fill="white" stroke="#f59e0b" d="M480.3,-109.32C480.3,-109.32 587.8,-109.32 587.8,-109.32 593.8,-109.32 599.8,-115.32 599.8,-121.32 599.8,-121.32 599.8,-173.32 599.8,-173.32 599.8,-179.32 593.8,-185.32 587.8,-185.32 587.8,-185.32 480.3,-185.32 480.3,-185.32 474.3,-185.32 468.3,-179.32 468.3,-173.32 468.3,-173.32 468.3,-121.32 468.3,-121.32 468.3,-115.32 474.3,-109.32 480.3,-109.32"/>
<text xml:space="preserve" text-anchor="middle" x="534.05" y="-168.02" font-family="Helvetica,sans-Serif" font-size="14.00">Fixed N=8 Network</text>
</g>
<g id="clust4" class="cluster">
<title>cluster_pack</title>
<path fill="white" stroke="#a7f3d0" d="M702.05,-44.32C702.05,-44.32 803.55,-44.32 803.55,-44.32 809.55,-44.32 815.55,-50.32 815.55,-56.32 815.55,-56.32 815.55,-238.32 815.55,-238.32 815.55,-244.32 809.55,-250.32 803.55,-250.32 803.55,-250.32 702.05,-250.32 702.05,-250.32 696.05,-250.32 690.05,-244.32 690.05,-238.32 690.05,-238.32 690.05,-56.32 690.05,-56.32 690.05,-50.32 696.05,-44.32 702.05,-44.32"/>
<text xml:space="preserve" text-anchor="middle" x="752.8" y="-233.02" font-family="Helvetica,sans-Serif" font-size="14.00">Output Pack Units</text>
</g>
<!-- addr_in -->
<g id="node1" class="node">
<title>addr_in</title>
<path fill="#f8fafc" stroke="#334155" d="M56.4,-279.32C56.4,-279.32 12,-279.32 12,-279.32 6,-279.32 0,-273.32 0,-267.32 0,-267.32 0,-255.32 0,-255.32 0,-249.32 6,-243.32 12,-243.32 12,-243.32 56.4,-243.32 56.4,-243.32 62.4,-243.32 68.4,-249.32 68.4,-255.32 68.4,-255.32 68.4,-267.32 68.4,-267.32 68.4,-273.32 62.4,-279.32 56.4,-279.32"/>
<text xml:space="preserve" text-anchor="middle" x="34.2" y="-257.82" font-family="Helvetica,sans-Serif" font-size="10.00">addr_in[0..7]</text>
</g>
<!-- unpack -->
<g id="node5" class="node">
<title>unpack</title>
<path fill="#eff6ff" stroke="#334155" d="M308.93,-279.32C308.93,-279.32 208.28,-279.32 208.28,-279.32 202.28,-279.32 196.28,-273.32 196.28,-267.32 196.28,-267.32 196.28,-255.32 196.28,-255.32 196.28,-249.32 202.28,-243.32 208.28,-243.32 208.28,-243.32 308.93,-243.32 308.93,-243.32 314.93,-243.32 320.93,-249.32 320.93,-255.32 320.93,-255.32 320.93,-267.32 320.93,-267.32 320.93,-273.32 314.93,-279.32 308.93,-279.32"/>
<text xml:space="preserve" text-anchor="middle" x="258.6" y="-257.82" font-family="Helvetica,sans-Serif" font-size="10.00">unpack addr_in &#45;&gt; addr_v</text>
</g>
<!-- addr_in&#45;&gt;unpack -->
<g id="edge1" class="edge">
<title>addr_in&#45;&gt;unpack</title>
<path fill="none" stroke="#475569" stroke-width="1.1" d="M68.5,-261.32C99.83,-261.32 147.76,-261.32 187.52,-261.32"/>
<polygon fill="#475569" stroke="#475569" stroke-width="1.1" points="187.2,-263.77 194.2,-261.32 187.2,-258.87 187.2,-263.77"/>
</g>
<!-- addr_out -->
<g id="node2" class="node">
<title>addr_out</title>
<path fill="#f8fafc" stroke="#334155" d="M934.45,-218.32C934.45,-218.32 870.55,-218.32 870.55,-218.32 864.55,-218.32 858.55,-212.32 858.55,-206.32 858.55,-206.32 858.55,-194.32 858.55,-194.32 858.55,-188.32 864.55,-182.32 870.55,-182.32 870.55,-182.32 934.45,-182.32 934.45,-182.32 940.45,-182.32 946.45,-188.32 946.45,-194.32 946.45,-194.32 946.45,-206.32 946.45,-206.32 946.45,-212.32 940.45,-218.32 934.45,-218.32"/>
<text xml:space="preserve" text-anchor="middle" x="902.5" y="-196.82" font-family="Helvetica,sans-Serif" font-size="10.00">addr_sorted[0..7]</text>
</g>
<!-- perm_out -->
<g id="node3" class="node">
<title>perm_out</title>
<path fill="#f8fafc" stroke="#334155" d="M929.2,-153.32C929.2,-153.32 875.8,-153.32 875.8,-153.32 869.8,-153.32 863.8,-147.32 863.8,-141.32 863.8,-141.32 863.8,-129.32 863.8,-129.32 863.8,-123.32 869.8,-117.32 875.8,-117.32 875.8,-117.32 929.2,-117.32 929.2,-117.32 935.2,-117.32 941.2,-123.32 941.2,-129.32 941.2,-129.32 941.2,-141.32 941.2,-141.32 941.2,-147.32 935.2,-153.32 929.2,-153.32"/>
<text xml:space="preserve" text-anchor="middle" x="902.5" y="-131.82" font-family="Helvetica,sans-Serif" font-size="10.00">perm_out[0..7]</text>
</g>
<!-- ctrl_out -->
<g id="node4" class="node">
<title>ctrl_out</title>
<path fill="#f8fafc" stroke="#334155" d="M926.2,-88.32C926.2,-88.32 878.8,-88.32 878.8,-88.32 872.8,-88.32 866.8,-82.32 866.8,-76.32 866.8,-76.32 866.8,-64.32 866.8,-64.32 866.8,-58.32 872.8,-52.32 878.8,-52.32 878.8,-52.32 926.2,-52.32 926.2,-52.32 932.2,-52.32 938.2,-58.32 938.2,-64.32 938.2,-64.32 938.2,-76.32 938.2,-76.32 938.2,-82.32 932.2,-88.32 926.2,-88.32"/>
<text xml:space="preserve" text-anchor="middle" x="902.5" y="-66.82" font-family="Helvetica,sans-Serif" font-size="10.00">ctrl_out[18:0]</text>
</g>
<!-- stages -->
<g id="node8" class="node">
<title>stages</title>
<path fill="#fffbeb" stroke="#334155" d="M579,-153.32C579,-153.32 488.1,-153.32 488.1,-153.32 482.1,-153.32 476.1,-147.32 476.1,-141.32 476.1,-141.32 476.1,-129.32 476.1,-129.32 476.1,-123.32 482.1,-117.32 488.1,-117.32 488.1,-117.32 579,-117.32 579,-117.32 585,-117.32 591,-123.32 591,-129.32 591,-129.32 591,-141.32 591,-141.32 591,-147.32 585,-153.32 579,-153.32"/>
<text xml:space="preserve" text-anchor="middle" x="533.55" y="-137.82" font-family="Helvetica,sans-Serif" font-size="10.00">19 compare&#45;swap cells</text>
<text xml:space="preserve" text-anchor="middle" x="533.55" y="-125.82" font-family="Helvetica,sans-Serif" font-size="10.00">arranged in 6 stages</text>
</g>
<!-- unpack&#45;&gt;stages -->
<g id="edge2" class="edge">
<title>unpack&#45;&gt;stages</title>
<path fill="none" stroke="#475569" stroke-width="1.1" d="M321.42,-247C358.22,-238.48 397.8,-229.32 397.8,-229.32 397.8,-229.32 459.67,-186.16 499.56,-158.33"/>
<polygon fill="#475569" stroke="#475569" stroke-width="1.1" points="500.54,-160.63 504.88,-154.62 497.74,-156.62 500.54,-160.63"/>
<text xml:space="preserve" text-anchor="middle" x="437.05" y="-213.29" font-family="Helvetica,sans-Serif" font-size="9.00">addr_v</text>
</g>
<!-- tag_init -->
<g id="node6" class="node">
<title>tag_init</title>
<path fill="#eff6ff" stroke="#334155" d="M278.93,-214.32C278.93,-214.32 238.28,-214.32 238.28,-214.32 232.28,-214.32 226.28,-208.32 226.28,-202.32 226.28,-202.32 226.28,-190.32 226.28,-190.32 226.28,-184.32 232.28,-178.32 238.28,-178.32 238.28,-178.32 278.93,-178.32 278.93,-178.32 284.93,-178.32 290.93,-184.32 290.93,-190.32 290.93,-190.32 290.93,-202.32 290.93,-202.32 290.93,-208.32 284.93,-214.32 278.93,-214.32"/>
<text xml:space="preserve" text-anchor="middle" x="258.6" y="-198.82" font-family="Helvetica,sans-Serif" font-size="10.00">lane&#45;tag init</text>
<text xml:space="preserve" text-anchor="middle" x="258.6" y="-186.82" font-family="Helvetica,sans-Serif" font-size="10.00">lane_v(i)=i</text>
</g>
<!-- tag_init&#45;&gt;stages -->
<g id="edge3" class="edge">
<title>tag_init&#45;&gt;stages</title>
<path fill="none" stroke="#475569" stroke-width="1.1" d="M291.31,-190.13C332.11,-182.15 397.8,-169.32 397.8,-169.32 397.8,-169.32 433.08,-160.42 467.54,-151.72"/>
<polygon fill="#475569" stroke="#475569" stroke-width="1.1" points="467.99,-154.14 474.18,-150.05 466.79,-149.38 467.99,-154.14"/>
<text xml:space="preserve" text-anchor="middle" x="437.05" y="-164.77" font-family="Helvetica,sans-Serif" font-size="9.00">lane_v</text>
</g>
<!-- cs_cell -->
<g id="node7" class="node">
<title>cs_cell</title>
<path fill="#fffbeb" stroke="#334155" d="M309.68,-130.64C309.68,-130.64 207.53,-130.64 207.53,-130.64 201.53,-130.64 195.53,-124.64 195.53,-118.64 195.53,-118.64 195.53,-86 195.53,-86 195.53,-80 201.53,-74 207.53,-74 207.53,-74 309.68,-74 309.68,-74 315.68,-74 321.68,-80 321.68,-86 321.68,-86 321.68,-118.64 321.68,-118.64 321.68,-124.64 315.68,-130.64 309.68,-130.64"/>
<text xml:space="preserve" text-anchor="middle" x="258.6" y="-116.82" font-family="Helvetica,sans-Serif" font-size="10.00">compare&#45;swap cell</text>
<text xml:space="preserve" text-anchor="middle" x="258.6" y="-104.82" font-family="Helvetica,sans-Serif" font-size="10.00">comparator + addr muxes</text>
<text xml:space="preserve" text-anchor="middle" x="258.6" y="-92.82" font-family="Helvetica,sans-Serif" font-size="10.00">+ lane&#45;tag muxes</text>
<text xml:space="preserve" text-anchor="middle" x="258.6" y="-80.82" font-family="Helvetica,sans-Serif" font-size="10.00">+ ctrl bit</text>
</g>
<!-- cs_cell&#45;&gt;stages -->
<g id="edge4" class="edge">
<title>cs_cell&#45;&gt;stages</title>
<path fill="none" stroke="#a16207" stroke-width="1.1" stroke-dasharray="1,5" d="M321.88,-109.85C368.14,-115.44 430.73,-123.01 475.65,-128.44"/>
</g>
<!-- pack_a -->
<g id="node9" class="node">
<title>pack_a</title>
<path fill="#f0fdf4" stroke="#334155" d="M774.12,-218.32C774.12,-218.32 730.47,-218.32 730.47,-218.32 724.47,-218.32 718.47,-212.32 718.47,-206.32 718.47,-206.32 718.47,-194.32 718.47,-194.32 718.47,-188.32 724.47,-182.32 730.47,-182.32 730.47,-182.32 774.12,-182.32 774.12,-182.32 780.12,-182.32 786.12,-188.32 786.12,-194.32 786.12,-194.32 786.12,-206.32 786.12,-206.32 786.12,-212.32 780.12,-218.32 774.12,-218.32"/>
<text xml:space="preserve" text-anchor="middle" x="752.3" y="-196.82" font-family="Helvetica,sans-Serif" font-size="10.00">pack addr_v</text>
</g>
<!-- stages&#45;&gt;pack_a -->
<g id="edge5" class="edge">
<title>stages&#45;&gt;pack_a</title>
<path fill="none" stroke="#475569" stroke-width="1.1" d="M591.5,-152.4C628.62,-163.53 676.21,-177.8 709.77,-187.87"/>
<polygon fill="#475569" stroke="#475569" stroke-width="1.1" points="708.98,-190.19 716.39,-189.85 710.39,-185.49 708.98,-190.19"/>
<text xml:space="preserve" text-anchor="middle" x="644.93" y="-177.5" font-family="Helvetica,sans-Serif" font-size="9.00">sorted addr_v</text>
</g>
<!-- pack_p -->
<g id="node10" class="node">
<title>pack_p</title>
<path fill="#f0fdf4" stroke="#334155" d="M773.75,-153.32C773.75,-153.32 730.85,-153.32 730.85,-153.32 724.85,-153.32 718.85,-147.32 718.85,-141.32 718.85,-141.32 718.85,-129.32 718.85,-129.32 718.85,-123.32 724.85,-117.32 730.85,-117.32 730.85,-117.32 773.75,-117.32 773.75,-117.32 779.75,-117.32 785.75,-123.32 785.75,-129.32 785.75,-129.32 785.75,-141.32 785.75,-141.32 785.75,-147.32 779.75,-153.32 773.75,-153.32"/>
<text xml:space="preserve" text-anchor="middle" x="752.3" y="-131.82" font-family="Helvetica,sans-Serif" font-size="10.00">pack lane_v</text>
</g>
<!-- stages&#45;&gt;pack_p -->
<g id="edge6" class="edge">
<title>stages&#45;&gt;pack_p</title>
<path fill="none" stroke="#475569" stroke-width="1.1" d="M591.5,-135.32C628.69,-135.32 676.4,-135.32 709.97,-135.32"/>
<polygon fill="#475569" stroke="#475569" stroke-width="1.1" points="709.95,-137.77 716.95,-135.32 709.95,-132.87 709.95,-137.77"/>
<text xml:space="preserve" text-anchor="middle" x="644.93" y="-137.27" font-family="Helvetica,sans-Serif" font-size="9.00">sorted lane_v</text>
</g>
<!-- pack_c -->
<g id="node11" class="node">
<title>pack_c</title>
<path fill="#f0fdf4" stroke="#334155" d="M773,-88.32C773,-88.32 731.6,-88.32 731.6,-88.32 725.6,-88.32 719.6,-82.32 719.6,-76.32 719.6,-76.32 719.6,-64.32 719.6,-64.32 719.6,-58.32 725.6,-52.32 731.6,-52.32 731.6,-52.32 773,-52.32 773,-52.32 779,-52.32 785,-58.32 785,-64.32 785,-64.32 785,-76.32 785,-76.32 785,-82.32 779,-88.32 773,-88.32"/>
<text xml:space="preserve" text-anchor="middle" x="752.3" y="-66.82" font-family="Helvetica,sans-Serif" font-size="10.00">pack c_tmp</text>
</g>
<!-- stages&#45;&gt;pack_c -->
<g id="edge7" class="edge">
<title>stages&#45;&gt;pack_c</title>
<path fill="none" stroke="#475569" stroke-width="1.1" d="M591.5,-118.24C629.08,-106.97 677.4,-92.48 711.02,-82.4"/>
<polygon fill="#475569" stroke="#475569" stroke-width="1.1" points="711.64,-84.77 717.64,-80.41 710.23,-80.08 711.64,-84.77"/>
<text xml:space="preserve" text-anchor="middle" x="644.93" y="-112.5" font-family="Helvetica,sans-Serif" font-size="9.00">cell swap bits</text>
</g>
<!-- pack_a&#45;&gt;addr_out -->
<g id="edge8" class="edge">
<title>pack_a&#45;&gt;addr_out</title>
<path fill="none" stroke="#475569" stroke-width="1.1" d="M786.56,-200.32C805.16,-200.32 828.76,-200.32 849.72,-200.32"/>
<polygon fill="#475569" stroke="#475569" stroke-width="1.1" points="849.55,-202.77 856.55,-200.32 849.55,-197.87 849.55,-202.77"/>
</g>
<!-- pack_p&#45;&gt;perm_out -->
<g id="edge9" class="edge">
<title>pack_p&#45;&gt;perm_out</title>
<path fill="none" stroke="#475569" stroke-width="1.1" d="M786.19,-135.32C806.37,-135.32 832.52,-135.32 854.81,-135.32"/>
<polygon fill="#475569" stroke="#475569" stroke-width="1.1" points="854.8,-137.77 861.8,-135.32 854.8,-132.87 854.8,-137.77"/>
</g>
<!-- pack_c&#45;&gt;ctrl_out -->
<g id="edge10" class="edge">
<title>pack_c&#45;&gt;ctrl_out</title>
<path fill="none" stroke="#475569" stroke-width="1.1" d="M785.46,-70.32C806.67,-70.32 834.72,-70.32 857.93,-70.32"/>
<polygon fill="#475569" stroke="#475569" stroke-width="1.1" points="857.89,-72.77 864.89,-70.32 857.89,-67.87 857.89,-72.77"/>
</g>
<!-- note0 -->
<g id="node12" class="node">
<title>note0</title>
<polygon fill="#fefce8" stroke="#eab308" points="391.8,-44.64 119.4,-44.64 119.4,0 397.8,0 397.8,-38.64 391.8,-44.64"/>
<polyline fill="none" stroke="#eab308" points="391.8,-44.64 391.8,-38.64"/>
<polyline fill="none" stroke="#eab308" points="397.8,-38.64 391.8,-38.64"/>
<text xml:space="preserve" text-anchor="middle" x="258.6" y="-30.82" font-family="Helvetica,sans-Serif" font-size="10.00">Purely combinational.</text>
<text xml:space="preserve" text-anchor="middle" x="258.6" y="-18.82" font-family="Helvetica,sans-Serif" font-size="10.00">No registers.</text>
<text xml:space="preserve" text-anchor="middle" x="258.6" y="-6.82" font-family="Helvetica,sans-Serif" font-size="10.00">The network sorts addresses and drags lane tags with them.</text>
</g>
<!-- note0&#45;&gt;stages -->
<g id="edge11" class="edge">
<title>note0&#45;&gt;stages</title>
<path fill="none" stroke="#a16207" stroke-width="1.1" stroke-dasharray="1,5" d="M344.76,-45.12C373.2,-52.73 397.8,-59.32 397.8,-59.32 397.8,-59.32 460.05,-94.43 499.93,-116.92"/>
</g>
</g>
</svg>
