<?xml version="1.0" encoding="UTF-8" standalone="no"?>
<!DOCTYPE svg PUBLIC "-//W3C//DTD SVG 1.1//EN"
 "http://www.w3.org/Graphics/SVG/1.1/DTD/svg11.dtd">
<!-- Generated by graphviz version 14.1.2 (0)
 -->
<!-- Title: batcher_master_net Pages: 1 -->
<svg width="1336pt" height="395pt"
 viewBox="0.00 0.00 1336.00 395.00" xmlns="http://www.w3.org/2000/svg" xmlns:xlink="http://www.w3.org/1999/xlink">
<g id="graph0" class="graph" transform="scale(1 1) rotate(0) translate(14.4 380.97)">
<title>batcher_master_net</title>
<polygon fill="white" stroke="none" points="-14.4,14.4 -14.4,-380.97 1321.6,-380.97 1321.6,14.4 -14.4,14.4"/>
<text xml:space="preserve" text-anchor="middle" x="653.6" y="-349.27" font-family="Helvetica,sans-Serif" font-size="14.00">batcher_master 6&#45;Stage Sorting Network</text>
<!-- inpair -->
<g id="node1" class="node">
<title>inpair</title>
<path fill="#f8fafc" stroke="#334155" d="M131.4,-314.32C131.4,-314.32 12,-314.32 12,-314.32 6,-314.32 0,-308.32 0,-302.32 0,-302.32 0,-290.32 0,-290.32 0,-284.32 6,-278.32 12,-278.32 12,-278.32 131.4,-278.32 131.4,-278.32 137.4,-278.32 143.4,-284.32 143.4,-290.32 143.4,-290.32 143.4,-302.32 143.4,-302.32 143.4,-308.32 137.4,-314.32 131.4,-314.32"/>
<text xml:space="preserve" text-anchor="middle" x="71.7" y="-292.82" font-family="Helvetica,sans-Serif" font-size="10.00">addr_v + lane_v input vectors</text>
</g>
<!-- s0 -->
<g id="node2" class="node">
<title>s0</title>
<path fill="#fffbeb" stroke="#334155" d="M250.3,-330.64C250.3,-330.64 210.4,-330.64 210.4,-330.64 204.4,-330.64 198.4,-324.64 198.4,-318.64 198.4,-318.64 198.4,-274 198.4,-274 198.4,-268 204.4,-262 210.4,-262 210.4,-262 250.3,-262 250.3,-262 256.3,-262 262.3,-268 262.3,-274 262.3,-274 262.3,-318.64 262.3,-318.64 262.3,-324.64 256.3,-330.64 250.3,-330.64"/>
<text xml:space="preserve" text-anchor="middle" x="230.35" y="-316.82" font-family="Helvetica,sans-Serif" font-size="10.00">Stage 0</text>
<text xml:space="preserve" text-anchor="middle" x="230.35" y="-304.82" font-family="Helvetica,sans-Serif" font-size="10.00">cs(0,1)&#45;&gt;c0</text>
<text xml:space="preserve" text-anchor="middle" x="230.35" y="-292.82" font-family="Helvetica,sans-Serif" font-size="10.00">cs(2,3)&#45;&gt;c1</text>
<text xml:space="preserve" text-anchor="middle" x="230.35" y="-280.82" font-family="Helvetica,sans-Serif" font-size="10.00">cs(4,5)&#45;&gt;c2</text>
<text xml:space="preserve" text-anchor="middle" x="230.35" y="-268.82" font-family="Helvetica,sans-Serif" font-size="10.00">cs(6,7)&#45;&gt;c3</text>
</g>
<!-- inpair&#45;&gt;s0 -->
<g id="edge1" class="edge">
<title>inpair&#45;&gt;s0</title>
<path fill="none" stroke="#475569" stroke-width="1.1" d="M143.69,-296.32C159.51,-296.32 175.74,-296.32 189.75,-296.32"/>
<polygon fill="#475569" stroke="#475569" stroke-width="1.1" points="189.5,-298.77 196.5,-296.32 189.5,-293.87 189.5,-298.77"/>
</g>
<!-- s1 -->
<g id="node3" class="node">
<title>s1</title>
<path fill="#fffbeb" stroke="#334155" d="M369.2,-294.64C369.2,-294.64 329.3,-294.64 329.3,-294.64 323.3,-294.64 317.3,-288.64 317.3,-282.64 317.3,-282.64 317.3,-238 317.3,-238 317.3,-232 323.3,-226 329.3,-226 329.3,-226 369.2,-226 369.2,-226 375.2,-226 381.2,-232 381.2,-238 381.2,-238 381.2,-282.64 381.2,-282.64 381.2,-288.64 375.2,-294.64 369.2,-294.64"/>
<text xml:space="preserve" text-anchor="middle" x="349.25" y="-280.82" font-family="Helvetica,sans-Serif" font-size="10.00">Stage 1</text>
<text xml:space="preserve" text-anchor="middle" x="349.25" y="-268.82" font-family="Helvetica,sans-Serif" font-size="10.00">cs(0,2)&#45;&gt;c4</text>
<text xml:space="preserve" text-anchor="middle" x="349.25" y="-256.82" font-family="Helvetica,sans-Serif" font-size="10.00">cs(1,3)&#45;&gt;c5</text>
<text xml:space="preserve" text-anchor="middle" x="349.25" y="-244.82" font-family="Helvetica,sans-Serif" font-size="10.00">cs(4,6)&#45;&gt;c6</text>
<text xml:space="preserve" text-anchor="middle" x="349.25" y="-232.82" font-family="Helvetica,sans-Serif" font-size="10.00">cs(5,7)&#45;&gt;c7</text>
</g>
<!-- s0&#45;&gt;s1 -->
<g id="edge2" class="edge">
<title>s0&#45;&gt;s1</title>
<path fill="none" stroke="#475569" stroke-width="1.1" d="M262.68,-286.67C276.83,-282.31 293.71,-277.12 308.72,-272.49"/>
<polygon fill="#475569" stroke="#475569" stroke-width="1.1" points="309.28,-274.89 315.25,-270.48 307.83,-270.2 309.28,-274.89"/>
</g>
<!-- ctrl -->
<g id="node9" class="node">
<title>ctrl</title>
<path fill="#f8fafc" stroke="#334155" d="M1295.2,-204.32C1295.2,-204.32 1187.8,-204.32 1187.8,-204.32 1181.8,-204.32 1175.8,-198.32 1175.8,-192.32 1175.8,-192.32 1175.8,-180.32 1175.8,-180.32 1175.8,-174.32 1181.8,-168.32 1187.8,-168.32 1187.8,-168.32 1295.2,-168.32 1295.2,-168.32 1301.2,-168.32 1307.2,-174.32 1307.2,-180.32 1307.2,-180.32 1307.2,-192.32 1307.2,-192.32 1307.2,-198.32 1301.2,-204.32 1295.2,-204.32"/>
<text xml:space="preserve" text-anchor="middle" x="1241.5" y="-188.82" font-family="Helvetica,sans-Serif" font-size="10.00">ctrl_out[18:0]</text>
<text xml:space="preserve" text-anchor="middle" x="1241.5" y="-176.82" font-family="Helvetica,sans-Serif" font-size="10.00">concatenated swap history</text>
</g>
<!-- s0&#45;&gt;ctrl -->
<g id="edge8" class="edge">
<title>s0&#45;&gt;ctrl</title>
<path fill="none" stroke="#475569" stroke-width="1.1" d="M262.68,-305.97C297.3,-316.63 348.25,-332.32 348.25,-332.32 348.25,-332.32 348.25,-332.32 1053.73,-332.32 1053.73,-332.32 1157.1,-251.52 1210.03,-210.14"/>
<polygon fill="#475569" stroke="#475569" stroke-width="1.1" points="1211.53,-212.08 1215.53,-205.84 1208.51,-208.22 1211.53,-212.08"/>
<text xml:space="preserve" text-anchor="middle" x="747.93" y="-334.27" font-family="Helvetica,sans-Serif" font-size="9.00">c0..c3</text>
</g>
<!-- s2 -->
<g id="node4" class="node">
<title>s2</title>
<path fill="#fffbeb" stroke="#334155" d="M567.23,-231.64C567.23,-231.64 527.33,-231.64 527.33,-231.64 521.33,-231.64 515.33,-225.64 515.33,-219.64 515.33,-219.64 515.33,-199 515.33,-199 515.33,-193 521.33,-187 527.33,-187 527.33,-187 567.23,-187 567.23,-187 573.23,-187 579.23,-193 579.23,-199 579.23,-199 579.23,-219.64 579.23,-219.64 579.23,-225.64 573.23,-231.64 567.23,-231.64"/>
<text xml:space="preserve" text-anchor="middle" x="547.28" y="-217.82" font-family="Helvetica,sans-Serif" font-size="10.00">Stage 2</text>
<text xml:space="preserve" text-anchor="middle" x="547.28" y="-205.82" font-family="Helvetica,sans-Serif" font-size="10.00">cs(1,2)&#45;&gt;c8</text>
<text xml:space="preserve" text-anchor="middle" x="547.28" y="-193.82" font-family="Helvetica,sans-Serif" font-size="10.00">cs(5,6)&#45;&gt;c9</text>
</g>
<!-- s1&#45;&gt;s2 -->
<g id="edge3" class="edge">
<title>s1&#45;&gt;s2</title>
<path fill="none" stroke="#475569" stroke-width="1.1" d="M381.31,-252.24C415.33,-243.39 469.98,-229.17 506.96,-219.55"/>
<polygon fill="#475569" stroke="#475569" stroke-width="1.1" points="507.27,-222 513.42,-217.87 506.03,-217.26 507.27,-222"/>
</g>
<!-- s1&#45;&gt;ctrl -->
<g id="edge9" class="edge">
<title>s1&#45;&gt;ctrl</title>
<path fill="none" stroke="#475569" stroke-width="1.1" d="M381.31,-261.75C436.58,-264.28 546.28,-269.32 546.28,-269.32 546.28,-269.32 546.28,-269.32 1053.73,-269.32 1053.73,-269.32 1136.09,-232.72 1191.43,-208.13"/>
<polygon fill="#475569" stroke="#475569" stroke-width="1.1" points="1192.13,-210.5 1197.53,-205.42 1190.14,-206.02 1192.13,-210.5"/>
<text xml:space="preserve" text-anchor="middle" x="821.5" y="-271.27" font-family="Helvetica,sans-Serif" font-size="9.00">c4..c7</text>
</g>
<!-- s3 -->
<g id="node5" class="node">
<title>s3</title>
<path fill="#fffbeb" stroke="#334155" d="M770.5,-179.64C770.5,-179.64 725.35,-179.64 725.35,-179.64 719.35,-179.64 713.35,-173.64 713.35,-167.64 713.35,-167.64 713.35,-123 713.35,-123 713.35,-117 719.35,-111 725.35,-111 725.35,-111 770.5,-111 770.5,-111 776.5,-111 782.5,-117 782.5,-123 782.5,-123 782.5,-167.64 782.5,-167.64 782.5,-173.64 776.5,-179.64 770.5,-179.64"/>
<text xml:space="preserve" text-anchor="middle" x="747.93" y="-165.82" font-family="Helvetica,sans-Serif" font-size="10.00">Stage 3</text>
<text xml:space="preserve" text-anchor="middle" x="747.93" y="-153.82" font-family="Helvetica,sans-Serif" font-size="10.00">cs(0,4)&#45;&gt;c10</text>
<text xml:space="preserve" text-anchor="middle" x="747.93" y="-141.82" font-family="Helvetica,sans-Serif" font-size="10.00">cs(1,5)&#45;&gt;c11</text>
<text xml:space="preserve" text-anchor="middle" x="747.93" y="-129.82" font-family="Helvetica,sans-Serif" font-size="10.00">cs(2,6)&#45;&gt;c12</text>
<text xml:space="preserve" text-anchor="middle" x="747.93" y="-117.82" font-family="Helvetica,sans-Serif" font-size="10.00">cs(3,7)&#45;&gt;c13</text>
</g>
<!-- s2&#45;&gt;s3 -->
<g id="edge4" class="edge">
<title>s2&#45;&gt;s3</title>
<path fill="none" stroke="#475569" stroke-width="1.1" d="M579.52,-199.67C612.07,-189.62 658.35,-175.32 658.35,-175.32 658.35,-175.32 682.04,-167.3 704.92,-159.55"/>
<polygon fill="#475569" stroke="#475569" stroke-width="1.1" points="705.51,-161.93 711.36,-157.37 703.94,-157.29 705.51,-161.93"/>
</g>
<!-- s2&#45;&gt;ctrl -->
<g id="edge10" class="edge">
<title>s2&#45;&gt;ctrl</title>
<path fill="none" stroke="#475569" stroke-width="1.1" d="M579.31,-210.73C635.18,-213.26 746.93,-218.32 746.93,-218.32 746.93,-218.32 746.93,-218.32 1053.73,-218.32 1053.73,-218.32 1114.82,-207.85 1167.13,-198.89"/>
<polygon fill="#475569" stroke="#475569" stroke-width="1.1" points="1167.31,-201.35 1173.8,-197.75 1166.48,-196.52 1167.31,-201.35"/>
<text xml:space="preserve" text-anchor="middle" x="895.08" y="-220.27" font-family="Helvetica,sans-Serif" font-size="9.00">c8..c9</text>
</g>
<!-- s4 -->
<g id="node6" class="node">
<title>s4</title>
<path fill="#fffbeb" stroke="#334155" d="M917.65,-117.64C917.65,-117.64 872.5,-117.64 872.5,-117.64 866.5,-117.64 860.5,-111.64 860.5,-105.64 860.5,-105.64 860.5,-85 860.5,-85 860.5,-79 866.5,-73 872.5,-73 872.5,-73 917.65,-73 917.65,-73 923.65,-73 929.65,-79 929.65,-85 929.65,-85 929.65,-105.64 929.65,-105.64 929.65,-111.64 923.65,-117.64 917.65,-117.64"/>
<text xml:space="preserve" text-anchor="middle" x="895.08" y="-103.82" font-family="Helvetica,sans-Serif" font-size="10.00">Stage 4</text>
<text xml:space="preserve" text-anchor="middle" x="895.08" y="-91.82" font-family="Helvetica,sans-Serif" font-size="10.00">cs(2,4)&#45;&gt;c14</text>
<text xml:space="preserve" text-anchor="middle" x="895.08" y="-79.82" font-family="Helvetica,sans-Serif" font-size="10.00">cs(3,5)&#45;&gt;c15</text>
</g>
<!-- s3&#45;&gt;s4 -->
<g id="edge5" class="edge">
<title>s3&#45;&gt;s4</title>
<path fill="none" stroke="#475569" stroke-width="1.1" d="M782.96,-133.6C803.54,-126.51 829.94,-117.41 851.85,-109.86"/>
<polygon fill="#475569" stroke="#475569" stroke-width="1.1" points="852.61,-112.19 858.43,-107.6 851.02,-107.56 852.61,-112.19"/>
</g>
<!-- s3&#45;&gt;ctrl -->
<g id="edge11" class="edge">
<title>s3&#45;&gt;ctrl</title>
<path fill="none" stroke="#475569" stroke-width="1.1" d="M782.71,-148.14C861.49,-154.71 1058.83,-171.17 1166.91,-180.18"/>
<polygon fill="#475569" stroke="#475569" stroke-width="1.1" points="1166.65,-182.62 1173.83,-180.76 1167.06,-177.74 1166.65,-182.62"/>
<text xml:space="preserve" text-anchor="middle" x="973.9" y="-167.3" font-family="Helvetica,sans-Serif" font-size="9.00">c10..c13</text>
</g>
<!-- s5 -->
<g id="node7" class="node">
<title>s5</title>
<path fill="#fffbeb" stroke="#334155" d="M1075.3,-56.64C1075.3,-56.64 1030.15,-56.64 1030.15,-56.64 1024.15,-56.64 1018.15,-50.64 1018.15,-44.64 1018.15,-44.64 1018.15,-12 1018.15,-12 1018.15,-6 1024.15,0 1030.15,0 1030.15,0 1075.3,0 1075.3,0 1081.3,0 1087.3,-6 1087.3,-12 1087.3,-12 1087.3,-44.64 1087.3,-44.64 1087.3,-50.64 1081.3,-56.64 1075.3,-56.64"/>
<text xml:space="preserve" text-anchor="middle" x="1052.73" y="-42.82" font-family="Helvetica,sans-Serif" font-size="10.00">Stage 5</text>
<text xml:space="preserve" text-anchor="middle" x="1052.73" y="-30.82" font-family="Helvetica,sans-Serif" font-size="10.00">cs(1,2)&#45;&gt;c16</text>
<text xml:space="preserve" text-anchor="middle" x="1052.73" y="-18.82" font-family="Helvetica,sans-Serif" font-size="10.00">cs(3,4)&#45;&gt;c17</text>
<text xml:space="preserve" text-anchor="middle" x="1052.73" y="-6.82" font-family="Helvetica,sans-Serif" font-size="10.00">cs(5,6)&#45;&gt;c18</text>
</g>
<!-- s4&#45;&gt;s5 -->
<g id="edge6" class="edge">
<title>s4&#45;&gt;s5</title>
<path fill="none" stroke="#475569" stroke-width="1.1" d="M929.85,-80.78C953.33,-70.68 984.78,-57.14 1009.85,-46.34"/>
<polygon fill="#475569" stroke="#475569" stroke-width="1.1" points="1010.76,-48.62 1016.22,-43.6 1008.82,-44.12 1010.76,-48.62"/>
</g>
<!-- s4&#45;&gt;ctrl -->
<g id="edge12" class="edge">
<title>s4&#45;&gt;ctrl</title>
<path fill="none" stroke="#475569" stroke-width="1.1" d="M929.82,-100.7C984.72,-109.46 1087.3,-125.82 1087.3,-125.82 1087.3,-125.82 1148.8,-136.32 1148.8,-136.32 1148.8,-136.32 1174.83,-150.51 1199.15,-163.77"/>
<polygon fill="#475569" stroke="#475569" stroke-width="1.1" points="1197.83,-165.85 1205.15,-167.05 1200.18,-161.54 1197.83,-165.85"/>
<text xml:space="preserve" text-anchor="middle" x="1052.73" y="-127.77" font-family="Helvetica,sans-Serif" font-size="9.00">c14..c15</text>
</g>
<!-- outpair -->
<g id="node8" class="node">
<title>outpair</title>
<path fill="#f8fafc" stroke="#334155" d="M1286.58,-46.32C1286.58,-46.32 1196.43,-46.32 1196.43,-46.32 1190.43,-46.32 1184.43,-40.32 1184.43,-34.32 1184.43,-34.32 1184.43,-22.32 1184.43,-22.32 1184.43,-16.32 1190.43,-10.32 1196.43,-10.32 1196.43,-10.32 1286.58,-10.32 1286.58,-10.32 1292.58,-10.32 1298.58,-16.32 1298.58,-22.32 1298.58,-22.32 1298.58,-34.32 1298.58,-34.32 1298.58,-40.32 1292.58,-46.32 1286.58,-46.32"/>
<text xml:space="preserve" text-anchor="middle" x="1241.5" y="-24.82" font-family="Helvetica,sans-Serif" font-size="10.00">sorted addr_v + lane_v</text>
</g>
<!-- s5&#45;&gt;outpair -->
<g id="edge7" class="edge">
<title>s5&#45;&gt;outpair</title>
<path fill="none" stroke="#475569" stroke-width="1.1" d="M1087.55,-28.32C1112.04,-28.32 1145.92,-28.32 1175.57,-28.32"/>
<polygon fill="#475569" stroke="#475569" stroke-width="1.1" points="1175.54,-30.77 1182.54,-28.32 1175.54,-25.87 1175.54,-30.77"/>
</g>
<!-- s5&#45;&gt;ctrl -->
<g id="edge13" class="edge">
<title>s5&#45;&gt;ctrl</title>
<path fill="none" stroke="#475569" stroke-width="1.1" d="M1087.78,-45.69C1115.06,-59.61 1148.8,-76.82 1148.8,-76.82 1148.8,-76.82 1192.83,-129.39 1219.87,-161.68"/>
<polygon fill="#475569" stroke="#475569" stroke-width="1.1" points="1217.92,-163.17 1224.29,-166.96 1221.67,-160.02 1217.92,-163.17"/>
<text xml:space="preserve" text-anchor="middle" x="1131.55" y="-78.77" font-family="Helvetica,sans-Serif" font-size="9.00">c16..c18</text>
</g>
<!-- note0 -->
<g id="node10" class="node">
<title>note0</title>
<polygon fill="#fefce8" stroke="#eab308" points="652.35,-162.32 436.2,-162.32 436.2,-126.32 658.35,-126.32 658.35,-156.32 652.35,-162.32"/>
<polyline fill="none" stroke="#eab308" points="652.35,-162.32 652.35,-156.32"/>
<polyline fill="none" stroke="#eab308" points="658.35,-156.32 652.35,-156.32"/>
<text xml:space="preserve" text-anchor="middle" x="547.28" y="-146.82" font-family="Helvetica,sans-Serif" font-size="10.00">This is the actual fixed compare&#45;swap schedule</text>
<text xml:space="preserve" text-anchor="middle" x="547.28" y="-134.82" font-family="Helvetica,sans-Serif" font-size="10.00">hard&#45;coded in batcher_master.vhd.</text>
</g>
<!-- note0&#45;&gt;s3 -->
<g id="edge14" class="edge">
<title>note0&#45;&gt;s3</title>
<path fill="none" stroke="#a16207" stroke-width="1.1" stroke-dasharray="1,5" d="M658.64,-144.88C678.46,-144.98 697.69,-145.07 713.12,-145.15"/>
</g>
</g>
</svg>
