<?xml version="1.0" encoding="UTF-8" standalone="no"?>
<!DOCTYPE svg PUBLIC "-//W3C//DTD SVG 1.1//EN"
 "http://www.w3.org/Graphics/SVG/1.1/DTD/svg11.dtd">
<!-- Generated by graphviz version 14.1.2 (0)
 -->
<!-- Title: batcher_slave_net Pages: 1 -->
<svg width="728pt" height="333pt"
 viewBox="0.00 0.00 728.00 333.00" xmlns="http://www.w3.org/2000/svg" xmlns:xlink="http://www.w3.org/1999/xlink">
<g id="graph0" class="graph" transform="scale(1 1) rotate(0) translate(14.4 318.15)">
<title>batcher_slave_net</title>
<polygon fill="white" stroke="none" points="-14.4,14.4 -14.4,-318.15 713.25,-318.15 713.25,14.4 -14.4,14.4"/>
<text xml:space="preserve" text-anchor="middle" x="349.43" y="-286.45" font-family="Helvetica,sans-Serif" font-size="14.00">batcher_slave Permutation Network</text>
<!-- perm -->
<g id="node1" class="node">
<title>perm</title>
<path fill="#f8fafc" stroke="#334155" d="M66.9,-219C66.9,-219 12,-219 12,-219 6,-219 0,-213 0,-207 0,-207 0,-195 0,-195 0,-189 6,-183 12,-183 12,-183 66.9,-183 66.9,-183 72.9,-183 78.9,-189 78.9,-195 78.9,-195 78.9,-207 78.9,-207 78.9,-213 72.9,-219 66.9,-219"/>
<text xml:space="preserve" text-anchor="middle" x="39.45" y="-197.5" font-family="Helvetica,sans-Serif" font-size="10.00">perm_in vector</text>
</g>
<!-- cell0 -->
<g id="node3" class="node">
<title>cell0</title>
<path fill="#fffbeb" stroke="#334155" d="M276.68,-219C276.68,-219 216.53,-219 216.53,-219 210.53,-219 204.53,-213 204.53,-207 204.53,-207 204.53,-195 204.53,-195 204.53,-189 210.53,-183 216.53,-183 216.53,-183 276.68,-183 276.68,-183 282.68,-183 288.68,-189 288.68,-195 288.68,-195 288.68,-207 288.68,-207 288.68,-213 282.68,-219 276.68,-219"/>
<text xml:space="preserve" text-anchor="middle" x="246.6" y="-197.5" font-family="Helvetica,sans-Serif" font-size="10.00">slot&#45;router cell 0</text>
</g>
<!-- perm&#45;&gt;cell0 -->
<g id="edge1" class="edge">
<title>perm&#45;&gt;cell0</title>
<path fill="none" stroke="#475569" stroke-width="1.1" d="M79.04,-201C112.13,-201 160.03,-201 195.97,-201"/>
<polygon fill="#475569" stroke="#475569" stroke-width="1.1" points="195.71,-203.45 202.71,-201 195.71,-198.55 195.71,-203.45"/>
</g>
<!-- cell1 -->
<g id="node4" class="node">
<title>cell1</title>
<path fill="#fffbeb" stroke="#334155" d="M276.68,-158C276.68,-158 216.53,-158 216.53,-158 210.53,-158 204.53,-152 204.53,-146 204.53,-146 204.53,-134 204.53,-134 204.53,-128 210.53,-122 216.53,-122 216.53,-122 276.68,-122 276.68,-122 282.68,-122 288.68,-128 288.68,-134 288.68,-134 288.68,-146 288.68,-146 288.68,-152 282.68,-158 276.68,-158"/>
<text xml:space="preserve" text-anchor="middle" x="246.6" y="-136.5" font-family="Helvetica,sans-Serif" font-size="10.00">slot&#45;router cell 1</text>
</g>
<!-- perm&#45;&gt;cell1 -->
<g id="edge2" class="edge">
<title>perm&#45;&gt;cell1</title>
<path fill="none" stroke="#475569" stroke-width="1.1" d="M79.39,-188.36C104.66,-180.17 132.9,-171 132.9,-171 132.9,-171 165.94,-161.91 196.24,-153.58"/>
<polygon fill="#475569" stroke="#475569" stroke-width="1.1" points="196.57,-156.03 202.67,-151.81 195.27,-151.3 196.57,-156.03"/>
</g>
<!-- cellx -->
<g id="node5" class="node">
<title>cellx</title>
<path fill="#fffbeb" stroke="#334155" d="M261.6,-97C261.6,-97 231.6,-97 231.6,-97 225.6,-97 219.6,-91 219.6,-85 219.6,-85 219.6,-73 219.6,-73 219.6,-67 225.6,-61 231.6,-61 231.6,-61 261.6,-61 261.6,-61 267.6,-61 273.6,-67 273.6,-73 273.6,-73 273.6,-85 273.6,-85 273.6,-91 267.6,-97 261.6,-97"/>
<text xml:space="preserve" text-anchor="middle" x="246.6" y="-75.5" font-family="Helvetica,sans-Serif" font-size="10.00">...</text>
</g>
<!-- perm&#45;&gt;cellx -->
<g id="edge3" class="edge">
<title>perm&#45;&gt;cellx</title>
<path fill="none" stroke="#475569" stroke-width="1.1" d="M64.14,-182.51C72.06,-176.34 78.9,-171 78.9,-171 78.9,-171 132.9,-110 132.9,-110 132.9,-110 177.91,-97.62 211.04,-88.51"/>
<polygon fill="#475569" stroke="#475569" stroke-width="1.1" points="211.47,-90.93 217.57,-86.71 210.17,-86.2 211.47,-90.93"/>
</g>
<!-- celln -->
<g id="node6" class="node">
<title>celln</title>
<path fill="#fffbeb" stroke="#334155" d="M287.93,-280C287.93,-280 205.28,-280 205.28,-280 199.28,-280 193.28,-274 193.28,-268 193.28,-268 193.28,-256 193.28,-256 193.28,-250 199.28,-244 205.28,-244 205.28,-244 287.93,-244 287.93,-244 293.93,-244 299.93,-250 299.93,-256 299.93,-256 299.93,-268 299.93,-268 299.93,-274 293.93,-280 287.93,-280"/>
<text xml:space="preserve" text-anchor="middle" x="246.6" y="-258.5" font-family="Helvetica,sans-Serif" font-size="10.00">slot&#45;router cell G_P&#45;1</text>
</g>
<!-- perm&#45;&gt;celln -->
<g id="edge4" class="edge">
<title>perm&#45;&gt;celln</title>
<path fill="none" stroke="#475569" stroke-width="1.1" d="M79.39,-214.06C104.66,-222.53 132.9,-232 132.9,-232 132.9,-232 158.07,-238.7 184.62,-245.77"/>
<polygon fill="#475569" stroke="#475569" stroke-width="1.1" points="183.88,-248.1 191.27,-247.54 185.14,-243.37 183.88,-248.1"/>
</g>
<!-- inbus -->
<g id="node2" class="node">
<title>inbus</title>
<path fill="#f8fafc" stroke="#334155" d="M58.65,-158C58.65,-158 20.25,-158 20.25,-158 14.25,-158 8.25,-152 8.25,-146 8.25,-146 8.25,-134 8.25,-134 8.25,-128 14.25,-122 20.25,-122 20.25,-122 58.65,-122 58.65,-122 64.65,-122 70.65,-128 70.65,-134 70.65,-134 70.65,-146 70.65,-146 70.65,-152 64.65,-158 58.65,-158"/>
<text xml:space="preserve" text-anchor="middle" x="39.45" y="-136.5" font-family="Helvetica,sans-Serif" font-size="10.00">in_v vector</text>
</g>
<!-- inbus&#45;&gt;cell0 -->
<g id="edge5" class="edge">
<title>inbus&#45;&gt;cell0</title>
<path fill="none" stroke="#475569" stroke-width="1.1" d="M70.98,-150.24C97.91,-159.27 132.9,-171 132.9,-171 132.9,-171 165.94,-179.8 196.24,-187.86"/>
<polygon fill="#475569" stroke="#475569" stroke-width="1.1" points="195.27,-190.14 202.67,-189.57 196.53,-185.4 195.27,-190.14"/>
</g>
<!-- inbus&#45;&gt;cell1 -->
<g id="edge6" class="edge">
<title>inbus&#45;&gt;cell1</title>
<path fill="none" stroke="#475569" stroke-width="1.1" d="M70.72,-140C103.57,-140 156.54,-140 195.59,-140"/>
<polygon fill="#475569" stroke="#475569" stroke-width="1.1" points="195.53,-142.45 202.53,-140 195.53,-137.55 195.53,-142.45"/>
</g>
<!-- inbus&#45;&gt;cellx -->
<g id="edge7" class="edge">
<title>inbus&#45;&gt;cellx</title>
<path fill="none" stroke="#475569" stroke-width="1.1" d="M70.98,-130.09C97.91,-121.36 132.9,-110 132.9,-110 132.9,-110 177.91,-97.62 211.04,-88.51"/>
<polygon fill="#475569" stroke="#475569" stroke-width="1.1" points="211.47,-90.93 217.57,-86.71 210.17,-86.2 211.47,-90.93"/>
</g>
<!-- inbus&#45;&gt;celln -->
<g id="edge8" class="edge">
<title>inbus&#45;&gt;celln</title>
<path fill="none" stroke="#475569" stroke-width="1.1" d="M63.26,-158.39C71.54,-165.07 78.9,-171 78.9,-171 78.9,-171 132.9,-232 132.9,-232 132.9,-232 158.07,-238.7 184.62,-245.77"/>
<polygon fill="#475569" stroke="#475569" stroke-width="1.1" points="183.88,-248.1 191.27,-247.54 185.14,-243.37 183.88,-248.1"/>
</g>
<!-- merge -->
<g id="node7" class="node">
<title>merge</title>
<path fill="#f0fdf4" stroke="#334155" d="M547.95,-158C547.95,-158 426.3,-158 426.3,-158 420.3,-158 414.3,-152 414.3,-146 414.3,-146 414.3,-134 414.3,-134 414.3,-128 420.3,-122 426.3,-122 426.3,-122 547.95,-122 547.95,-122 553.95,-122 559.95,-128 559.95,-134 559.95,-134 559.95,-146 559.95,-146 559.95,-152 553.95,-158 547.95,-158"/>
<text xml:space="preserve" text-anchor="middle" x="487.12" y="-136.5" font-family="Helvetica,sans-Serif" font-size="10.00">merge assignments into out_v</text>
</g>
<!-- cell0&#45;&gt;merge -->
<g id="edge9" class="edge">
<title>cell0&#45;&gt;merge</title>
<path fill="none" stroke="#475569" stroke-width="1.1" d="M289.15,-190.37C321.3,-182.15 366.79,-170.52 405.96,-160.5"/>
<polygon fill="#475569" stroke="#475569" stroke-width="1.1" points="406.43,-162.91 412.6,-158.8 405.21,-158.16 406.43,-162.91"/>
</g>
<!-- cell1&#45;&gt;merge -->
<g id="edge10" class="edge">
<title>cell1&#45;&gt;merge</title>
<path fill="none" stroke="#475569" stroke-width="1.1" d="M289.15,-140C321.3,-140 366.79,-140 405.96,-140"/>
<polygon fill="#475569" stroke="#475569" stroke-width="1.1" points="405.55,-142.45 412.55,-140 405.55,-137.55 405.55,-142.45"/>
</g>
<!-- cellx&#45;&gt;merge -->
<g id="edge11" class="edge">
<title>cellx&#45;&gt;merge</title>
<path fill="none" stroke="#475569" stroke-width="1.1" d="M274.04,-85.76C305.62,-93.84 359.93,-107.73 405.68,-119.43"/>
<polygon fill="#475569" stroke="#475569" stroke-width="1.1" points="404.82,-121.74 412.21,-121.1 406.03,-116.99 404.82,-121.74"/>
</g>
<!-- celln&#45;&gt;merge -->
<g id="edge12" class="edge">
<title>celln&#45;&gt;merge</title>
<path fill="none" stroke="#475569" stroke-width="1.1" d="M300.32,-247.97C329.65,-240.16 360.3,-232 360.3,-232 360.3,-232 416.97,-190.56 454.25,-163.31"/>
<polygon fill="#475569" stroke="#475569" stroke-width="1.1" points="455.42,-165.49 459.62,-159.38 452.52,-161.53 455.42,-165.49"/>
</g>
<!-- outbus -->
<g id="node8" class="node">
<title>outbus</title>
<path fill="#f8fafc" stroke="#334155" d="M686.85,-158C686.85,-158 625.95,-158 625.95,-158 619.95,-158 613.95,-152 613.95,-146 613.95,-146 613.95,-134 613.95,-134 613.95,-128 619.95,-122 625.95,-122 625.95,-122 686.85,-122 686.85,-122 692.85,-122 698.85,-128 698.85,-134 698.85,-134 698.85,-146 698.85,-146 698.85,-152 692.85,-158 686.85,-158"/>
<text xml:space="preserve" text-anchor="middle" x="656.4" y="-136.5" font-family="Helvetica,sans-Serif" font-size="10.00">out_v / data_out</text>
</g>
<!-- merge&#45;&gt;outbus -->
<g id="edge13" class="edge">
<title>merge&#45;&gt;outbus</title>
<path fill="none" stroke="#475569" stroke-width="1.1" d="M560.04,-140C575.14,-140 590.77,-140 604.89,-140"/>
<polygon fill="#475569" stroke="#475569" stroke-width="1.1" points="604.81,-142.45 611.81,-140 604.81,-137.55 604.81,-142.45"/>
</g>
<!-- note0 -->
<g id="node9" class="node">
<title>note0</title>
<polygon fill="#fefce8" stroke="#eab308" points="354.3,-36 132.9,-36 132.9,0 360.3,0 360.3,-30 354.3,-36"/>
<polyline fill="none" stroke="#eab308" points="354.3,-36 354.3,-30"/>
<polyline fill="none" stroke="#eab308" points="360.3,-30 354.3,-30"/>
<text xml:space="preserve" text-anchor="middle" x="246.6" y="-20.5" font-family="Helvetica,sans-Serif" font-size="10.00">The full slave is just replication of the</text>
<text xml:space="preserve" text-anchor="middle" x="246.6" y="-8.5" font-family="Helvetica,sans-Serif" font-size="10.00">per&#45;slot combinational router cell across all slots.</text>
</g>
<!-- note0&#45;&gt;merge -->
<g id="edge14" class="edge">
<title>note0&#45;&gt;merge</title>
<path fill="none" stroke="#a16207" stroke-width="1.1" stroke-dasharray="1,5" d="M314.79,-36.48C338.92,-43.12 360.3,-49 360.3,-49 360.3,-49 423.9,-94.99 460.66,-121.58"/>
</g>
</g>
</svg>
