<?xml version="1.0" encoding="UTF-8" standalone="no"?>
<!DOCTYPE svg PUBLIC "-//W3C//DTD SVG 1.1//EN"
 "http://www.w3.org/Graphics/SVG/1.1/DTD/svg11.dtd">
<!-- Generated by graphviz version 14.1.2 (0)
 -->
<!-- Title: batcher_slave_units Pages: 1 -->
<svg width="1241pt" height="410pt"
 viewBox="0.00 0.00 1241.00 410.00" xmlns="http://www.w3.org/2000/svg" xmlns:xlink="http://www.w3.org/1999/xlink">
<g id="graph0" class="graph" transform="scale(1 1) rotate(0) translate(14.4 395.15)">
<title>batcher_slave_units</title>
<polygon fill="white" stroke="none" points="-14.4,14.4 -14.4,-395.15 1226.15,-395.15 1226.15,14.4 -14.4,14.4"/>
<text xml:space="preserve" text-anchor="middle" x="605.88" y="-363.45" font-family="Helvetica,sans-Serif" font-size="14.00">batcher_slave Internal Functional Units</text>
<g id="clust1" class="cluster">
<title>cluster_unpack</title>
<path fill="white" stroke="#93c5fd" d="M417.17,-57C417.17,-57 522.58,-57 522.58,-57 528.58,-57 534.58,-63 534.58,-69 534.58,-69 534.58,-186 534.58,-186 534.58,-192 528.58,-198 522.58,-198 522.58,-198 417.17,-198 417.17,-198 411.17,-198 405.17,-192 405.17,-186 405.17,-186 405.17,-69 405.17,-69 405.17,-63 411.17,-57 417.17,-57"/>
<text xml:space="preserve" text-anchor="middle" x="469.88" y="-180.7" font-family="Helvetica,sans-Serif" font-size="14.00">Unpack / Init</text>
</g>
<g id="clust2" class="cluster">
<title>cluster_decode</title>
<path fill="white" stroke="#fcd34d" d="M148.9,-208C148.9,-208 515.08,-208 515.08,-208 521.08,-208 527.08,-214 527.08,-220 527.08,-220 527.08,-337 527.08,-337 527.08,-343 521.08,-349 515.08,-349 515.08,-349 148.9,-349 148.9,-349 142.9,-349 136.9,-343 136.9,-337 136.9,-337 136.9,-220 136.9,-220 136.9,-214 142.9,-208 148.9,-208"/>
<text xml:space="preserve" text-anchor="middle" x="331.99" y="-331.7" font-family="Helvetica,sans-Serif" font-size="14.00">Per&#45;Slot Decode Units</text>
</g>
<g id="clust3" class="cluster">
<title>cluster_route</title>
<path fill="white" stroke="#f59e0b" d="M730.95,-122C730.95,-122 893.95,-122 893.95,-122 899.95,-122 905.95,-128 905.95,-134 905.95,-134 905.95,-186 905.95,-186 905.95,-192 899.95,-198 893.95,-198 893.95,-198 730.95,-198 730.95,-198 724.95,-198 718.95,-192 718.95,-186 718.95,-186 718.95,-134 718.95,-134 718.95,-128 724.95,-122 730.95,-122"/>
<text xml:space="preserve" text-anchor="middle" x="812.45" y="-180.7" font-family="Helvetica,sans-Serif" font-size="14.00">Permutation Router Network</text>
</g>
<g id="clust4" class="cluster">
<title>cluster_pack</title>
<path fill="white" stroke="#a7f3d0" d="M952.95,-122C952.95,-122 1059.85,-122 1059.85,-122 1065.85,-122 1071.85,-128 1071.85,-134 1071.85,-134 1071.85,-186 1071.85,-186 1071.85,-192 1065.85,-198 1059.85,-198 1059.85,-198 952.95,-198 952.95,-198 946.95,-198 940.95,-192 940.95,-186 940.95,-186 940.95,-134 940.95,-134 940.95,-128 946.95,-122 952.95,-122"/>
<text xml:space="preserve" text-anchor="middle" x="1006.4" y="-180.7" font-family="Helvetica,sans-Serif" font-size="14.00">Output Pack</text>
</g>
<!-- perm_in -->
<g id="node1" class="node">
<title>perm_in</title>
<path fill="#f8fafc" stroke="#334155" d="M81.9,-317C81.9,-317 12,-317 12,-317 6,-317 0,-311 0,-305 0,-305 0,-293 0,-293 0,-287 6,-281 12,-281 12,-281 81.9,-281 81.9,-281 87.9,-281 93.9,-287 93.9,-293 93.9,-293 93.9,-305 93.9,-305 93.9,-311 87.9,-317 81.9,-317"/>
<text xml:space="preserve" text-anchor="middle" x="46.95" y="-295.5" font-family="Helvetica,sans-Serif" font-size="10.00">perm_in[0..G_P&#45;1]</text>
</g>
<!-- decode -->
<g id="node6" class="node">
<title>decode</title>
<path fill="#fffbeb" stroke="#334155" d="M292.8,-317C292.8,-317 156.9,-317 156.9,-317 150.9,-317 144.9,-311 144.9,-305 144.9,-305 144.9,-293 144.9,-293 144.9,-287 150.9,-281 156.9,-281 156.9,-281 292.8,-281 292.8,-281 298.8,-281 304.8,-287 304.8,-293 304.8,-293 304.8,-305 304.8,-305 304.8,-311 298.8,-317 292.8,-317"/>
<text xml:space="preserve" text-anchor="middle" x="224.85" y="-295.5" font-family="Helvetica,sans-Serif" font-size="10.00">decode perm_i from perm_in(slot)</text>
</g>
<!-- perm_in&#45;&gt;decode -->
<g id="edge2" class="edge">
<title>perm_in&#45;&gt;decode</title>
<path fill="none" stroke="#475569" stroke-width="1.1" d="M94.17,-299C107.1,-299 121.6,-299 136.09,-299"/>
<polygon fill="#475569" stroke="#475569" stroke-width="1.1" points="135.95,-301.45 142.95,-299 135.95,-296.55 135.95,-301.45"/>
</g>
<!-- data_in -->
<g id="node2" class="node">
<title>data_in</title>
<path fill="#f8fafc" stroke="#334155" d="M258.3,-166C258.3,-166 191.4,-166 191.4,-166 185.4,-166 179.4,-160 179.4,-154 179.4,-154 179.4,-142 179.4,-142 179.4,-136 185.4,-130 191.4,-130 191.4,-130 258.3,-130 258.3,-130 264.3,-130 270.3,-136 270.3,-142 270.3,-142 270.3,-154 270.3,-154 270.3,-160 264.3,-166 258.3,-166"/>
<text xml:space="preserve" text-anchor="middle" x="224.85" y="-144.5" font-family="Helvetica,sans-Serif" font-size="10.00">data_in[0..G_P&#45;1]</text>
</g>
<!-- unpack -->
<g id="node4" class="node">
<title>unpack</title>
<path fill="#eff6ff" stroke="#334155" d="M514.58,-166C514.58,-166 425.18,-166 425.18,-166 419.18,-166 413.18,-160 413.18,-154 413.18,-154 413.18,-142 413.18,-142 413.18,-136 419.18,-130 425.18,-130 425.18,-130 514.58,-130 514.58,-130 520.58,-130 526.58,-136 526.58,-142 526.58,-142 526.58,-154 526.58,-154 526.58,-160 520.58,-166 514.58,-166"/>
<text xml:space="preserve" text-anchor="middle" x="469.88" y="-144.5" font-family="Helvetica,sans-Serif" font-size="10.00">unpack data_in &#45;&gt; in_v</text>
</g>
<!-- data_in&#45;&gt;unpack -->
<g id="edge1" class="edge">
<title>data_in&#45;&gt;unpack</title>
<path fill="none" stroke="#475569" stroke-width="1.1" d="M270.71,-148C308.17,-148 362.07,-148 404.21,-148"/>
<polygon fill="#475569" stroke="#475569" stroke-width="1.1" points="404.07,-150.45 411.07,-148 404.07,-145.55 404.07,-150.45"/>
</g>
<!-- data_out -->
<g id="node3" class="node">
<title>data_out</title>
<path fill="#f8fafc" stroke="#334155" d="M1199.75,-166C1199.75,-166 1126.85,-166 1126.85,-166 1120.85,-166 1114.85,-160 1114.85,-154 1114.85,-154 1114.85,-142 1114.85,-142 1114.85,-136 1120.85,-130 1126.85,-130 1126.85,-130 1199.75,-130 1199.75,-130 1205.75,-130 1211.75,-136 1211.75,-142 1211.75,-142 1211.75,-154 1211.75,-154 1211.75,-160 1205.75,-166 1199.75,-166"/>
<text xml:space="preserve" text-anchor="middle" x="1163.3" y="-144.5" font-family="Helvetica,sans-Serif" font-size="10.00">data_out[0..G_P&#45;1]</text>
</g>
<!-- router -->
<g id="node9" class="node">
<title>router</title>
<path fill="#fffbeb" stroke="#334155" d="M863.03,-166C863.03,-166 760.88,-166 760.88,-166 754.88,-166 748.88,-160 748.88,-154 748.88,-154 748.88,-142 748.88,-142 748.88,-136 754.88,-130 760.88,-130 760.88,-130 863.03,-130 863.03,-130 869.03,-130 875.03,-136 875.03,-142 875.03,-142 875.03,-154 875.03,-154 875.03,-160 869.03,-166 863.03,-166"/>
<text xml:space="preserve" text-anchor="middle" x="811.95" y="-150.5" font-family="Helvetica,sans-Serif" font-size="10.00">replicated slot&#45;router cells</text>
<text xml:space="preserve" text-anchor="middle" x="811.95" y="-138.5" font-family="Helvetica,sans-Serif" font-size="10.00">forward or reverse</text>
</g>
<!-- unpack&#45;&gt;router -->
<g id="edge5" class="edge">
<title>unpack&#45;&gt;router</title>
<path fill="none" stroke="#475569" stroke-width="1.1" d="M527.03,-148C585.44,-148 677.02,-148 740.31,-148"/>
<polygon fill="#475569" stroke="#475569" stroke-width="1.1" points="739.99,-150.45 746.99,-148 739.99,-145.55 739.99,-150.45"/>
<text xml:space="preserve" text-anchor="middle" x="655.45" y="-149.95" font-family="Helvetica,sans-Serif" font-size="9.00">in_v</text>
</g>
<!-- zero -->
<g id="node5" class="node">
<title>zero</title>
<path fill="#eff6ff" stroke="#334155" d="M501.83,-101C501.83,-101 437.93,-101 437.93,-101 431.93,-101 425.93,-95 425.93,-89 425.93,-89 425.93,-77 425.93,-77 425.93,-71 431.93,-65 437.93,-65 437.93,-65 501.83,-65 501.83,-65 507.83,-65 513.83,-71 513.83,-77 513.83,-77 513.83,-89 513.83,-89 513.83,-95 507.83,-101 501.83,-101"/>
<text xml:space="preserve" text-anchor="middle" x="469.88" y="-79.5" font-family="Helvetica,sans-Serif" font-size="10.00">initialize out_v=0</text>
</g>
<!-- zero&#45;&gt;router -->
<g id="edge6" class="edge">
<title>zero&#45;&gt;router</title>
<path fill="none" stroke="#475569" stroke-width="1.1" d="M514.29,-91.3C571.33,-102.2 672.23,-121.49 740.33,-134.5"/>
<polygon fill="#475569" stroke="#475569" stroke-width="1.1" points="739.5,-136.84 746.83,-135.75 740.42,-132.02 739.5,-136.84"/>
<text xml:space="preserve" text-anchor="middle" x="655.45" y="-128.93" font-family="Helvetica,sans-Serif" font-size="9.00">out_v init</text>
</g>
<!-- check -->
<g id="node7" class="node">
<title>check</title>
<path fill="#fffbeb" stroke="#334155" d="M507.08,-314C507.08,-314 432.68,-314 432.68,-314 426.68,-314 420.68,-308 420.68,-302 420.68,-302 420.68,-290 420.68,-290 420.68,-284 426.68,-278 432.68,-278 432.68,-278 507.08,-278 507.08,-278 513.08,-278 519.08,-284 519.08,-290 519.08,-290 519.08,-302 519.08,-302 519.08,-308 513.08,-314 507.08,-314"/>
<text xml:space="preserve" text-anchor="middle" x="469.88" y="-298.5" font-family="Helvetica,sans-Serif" font-size="10.00">bounds check</text>
<text xml:space="preserve" text-anchor="middle" x="469.88" y="-286.5" font-family="Helvetica,sans-Serif" font-size="10.00">0 &lt;= perm_i &lt; G_P</text>
</g>
<!-- decode&#45;&gt;check -->
<g id="edge3" class="edge">
<title>decode&#45;&gt;check</title>
<path fill="none" stroke="#475569" stroke-width="1.1" d="M305.09,-298.02C339.93,-297.59 380.07,-297.1 411.89,-296.7"/>
<polygon fill="#475569" stroke="#475569" stroke-width="1.1" points="411.57,-299.16 418.54,-296.62 411.51,-294.26 411.57,-299.16"/>
</g>
<!-- check&#45;&gt;router -->
<g id="edge7" class="edge">
<title>check&#45;&gt;router</title>
<path fill="none" stroke="#475569" stroke-width="1.1" d="M519.32,-287.41C587.07,-275.38 701.95,-255 701.95,-255 701.95,-255 754.17,-203.74 786.32,-172.18"/>
<polygon fill="#475569" stroke="#475569" stroke-width="1.1" points="787.99,-173.97 791.27,-167.32 784.56,-170.47 787.99,-173.97"/>
<text xml:space="preserve" text-anchor="middle" x="655.45" y="-272.57" font-family="Helvetica,sans-Serif" font-size="9.00">valid assignments only</text>
</g>
<!-- mode -->
<g id="node8" class="node">
<title>mode</title>
<path fill="#fffbeb" stroke="#334155" d="M250.8,-252C250.8,-252 198.9,-252 198.9,-252 192.9,-252 186.9,-246 186.9,-240 186.9,-240 186.9,-228 186.9,-228 186.9,-222 192.9,-216 198.9,-216 198.9,-216 250.8,-216 250.8,-216 256.8,-216 262.8,-222 262.8,-228 262.8,-228 262.8,-240 262.8,-240 262.8,-246 256.8,-252 250.8,-252"/>
<text xml:space="preserve" text-anchor="middle" x="224.85" y="-236.5" font-family="Helvetica,sans-Serif" font-size="10.00">mode select</text>
<text xml:space="preserve" text-anchor="middle" x="224.85" y="-224.5" font-family="Helvetica,sans-Serif" font-size="10.00">G_REVERSE</text>
</g>
<!-- mode&#45;&gt;router -->
<g id="edge4" class="edge">
<title>mode&#45;&gt;router</title>
<path fill="none" stroke="#2563eb" stroke-width="1.1" stroke-dasharray="5,2" d="M263.16,-230.67C354.88,-222.47 583.95,-202 583.95,-202 583.95,-202 673.59,-180.68 740.21,-164.83"/>
<polygon fill="#2563eb" stroke="#2563eb" stroke-width="1.1" points="740.76,-167.22 747,-163.21 739.62,-162.45 740.76,-167.22"/>
<text xml:space="preserve" text-anchor="middle" x="469.88" y="-224.3" font-family="Helvetica,sans-Serif" font-size="9.00">forward / reverse</text>
</g>
<!-- repack -->
<g id="node10" class="node">
<title>repack</title>
<path fill="#f0fdf4" stroke="#334155" d="M1051.85,-166C1051.85,-166 960.95,-166 960.95,-166 954.95,-166 948.95,-160 948.95,-154 948.95,-154 948.95,-142 948.95,-142 948.95,-136 954.95,-130 960.95,-130 960.95,-130 1051.85,-130 1051.85,-130 1057.85,-130 1063.85,-136 1063.85,-142 1063.85,-142 1063.85,-154 1063.85,-154 1063.85,-160 1057.85,-166 1051.85,-166"/>
<text xml:space="preserve" text-anchor="middle" x="1006.4" y="-144.5" font-family="Helvetica,sans-Serif" font-size="10.00">pack out_v &#45;&gt; data_out</text>
</g>
<!-- router&#45;&gt;repack -->
<g id="edge8" class="edge">
<title>router&#45;&gt;repack</title>
<path fill="none" stroke="#475569" stroke-width="1.1" d="M875.43,-148C896.17,-148 919.31,-148 940.24,-148"/>
<polygon fill="#475569" stroke="#475569" stroke-width="1.1" points="940.09,-150.45 947.09,-148 940.09,-145.55 940.09,-150.45"/>
</g>
<!-- repack&#45;&gt;data_out -->
<g id="edge9" class="edge">
<title>repack&#45;&gt;data_out</title>
<path fill="none" stroke="#475569" stroke-width="1.1" d="M1064.2,-148C1077.86,-148 1092.44,-148 1106.07,-148"/>
<polygon fill="#475569" stroke="#475569" stroke-width="1.1" points="1105.75,-150.45 1112.75,-148 1105.75,-145.55 1105.75,-150.45"/>
</g>
<!-- note0 -->
<g id="node11" class="node">
<title>note0</title>
<polygon fill="#fefce8" stroke="#eab308" points="577.95,-36 355.8,-36 355.8,0 583.95,0 583.95,-30 577.95,-36"/>
<polyline fill="none" stroke="#eab308" points="577.95,-36 577.95,-30"/>
<polyline fill="none" stroke="#eab308" points="583.95,-30 577.95,-30"/>
<text xml:space="preserve" text-anchor="middle" x="469.88" y="-20.5" font-family="Helvetica,sans-Serif" font-size="10.00">Purely combinational crossbar.</text>
<text xml:space="preserve" text-anchor="middle" x="469.88" y="-8.5" font-family="Helvetica,sans-Serif" font-size="10.00">No sorting. Only permutation decode and routing.</text>
</g>
<!-- note0&#45;&gt;router -->
<g id="edge10" class="edge">
<title>note0&#45;&gt;router</title>
<path fill="none" stroke="#a16207" stroke-width="1.1" stroke-dasharray="1,5" d="M536,-36.43C561.13,-43.54 583.95,-50 583.95,-50 583.95,-50 702.5,-101.18 768.25,-129.57"/>
</g>
</g>
</svg>
