<?xml version="1.0" encoding="UTF-8" standalone="no"?>
<!DOCTYPE svg PUBLIC "-//W3C//DTD SVG 1.1//EN"
 "http://www.w3.org/Graphics/SVG/1.1/DTD/svg11.dtd">
<!-- Generated by graphviz version 14.1.2 (0)
 -->
<!-- Title: batcher_slave_cell Pages: 1 -->
<svg width="733pt" height="402pt"
 viewBox="0.00 0.00 733.00 402.00" xmlns="http://www.w3.org/2000/svg" xmlns:xlink="http://www.w3.org/1999/xlink">
<g id="graph0" class="graph" transform="scale(1 1) rotate(0) translate(14.4 387.47)">
<title>batcher_slave_cell</title>
<polygon fill="white" stroke="none" points="-14.4,14.4 -14.4,-387.47 718.5,-387.47 718.5,14.4 -14.4,14.4"/>
<text xml:space="preserve" text-anchor="middle" x="352.05" y="-355.77" font-family="Helvetica,sans-Serif" font-size="14.00">batcher_slave Per&#45;Slot Router Cell</text>
<!-- slot -->
<g id="node1" class="node">
<title>slot</title>
<path fill="#f8fafc" stroke="#334155" d="M241.93,-288.32C241.93,-288.32 209.53,-288.32 209.53,-288.32 203.53,-288.32 197.53,-282.32 197.53,-276.32 197.53,-276.32 197.53,-264.32 197.53,-264.32 197.53,-258.32 203.53,-252.32 209.53,-252.32 209.53,-252.32 241.93,-252.32 241.93,-252.32 247.93,-252.32 253.93,-258.32 253.93,-264.32 253.93,-264.32 253.93,-276.32 253.93,-276.32 253.93,-282.32 247.93,-288.32 241.93,-288.32"/>
<text xml:space="preserve" text-anchor="middle" x="225.73" y="-266.82" font-family="Helvetica,sans-Serif" font-size="10.00">slot index</text>
</g>
<!-- select -->
<g id="node8" class="node">
<title>select</title>
<path fill="#fffbeb" stroke="#334155" d="M526.45,-200.64C526.45,-200.64 392.8,-200.64 392.8,-200.64 386.8,-200.64 380.8,-194.64 380.8,-188.64 380.8,-188.64 380.8,-168 380.8,-168 380.8,-162 386.8,-156 392.8,-156 392.8,-156 526.45,-156 526.45,-156 532.45,-156 538.45,-162 538.45,-168 538.45,-168 538.45,-188.64 538.45,-188.64 538.45,-194.64 532.45,-200.64 526.45,-200.64"/>
<text xml:space="preserve" text-anchor="middle" x="459.63" y="-186.82" font-family="Helvetica,sans-Serif" font-size="10.00">assignment select</text>
<text xml:space="preserve" text-anchor="middle" x="459.63" y="-174.82" font-family="Helvetica,sans-Serif" font-size="10.00">forward: out_v(perm_i)=in_v(slot)</text>
<text xml:space="preserve" text-anchor="middle" x="459.63" y="-162.82" font-family="Helvetica,sans-Serif" font-size="10.00">reverse: out_v(slot)=in_v(perm_i)</text>
</g>
<!-- slot&#45;&gt;select -->
<g id="edge5" class="edge">
<title>slot&#45;&gt;select</title>
<path fill="none" stroke="#475569" stroke-width="1.1" d="M254.34,-262.36C285.17,-253.47 330.8,-240.32 330.8,-240.32 330.8,-240.32 369.24,-221.68 403.96,-204.84"/>
<polygon fill="#475569" stroke="#475569" stroke-width="1.1" points="405.03,-207.04 410.26,-201.78 402.89,-202.63 405.03,-207.04"/>
</g>
<!-- perm -->
<g id="node2" class="node">
<title>perm</title>
<path fill="#f8fafc" stroke="#334155" d="M58.65,-349.32C58.65,-349.32 12,-349.32 12,-349.32 6,-349.32 0,-343.32 0,-337.32 0,-337.32 0,-325.32 0,-325.32 0,-319.32 6,-313.32 12,-313.32 12,-313.32 58.65,-313.32 58.65,-313.32 64.65,-313.32 70.65,-319.32 70.65,-325.32 70.65,-325.32 70.65,-337.32 70.65,-337.32 70.65,-343.32 64.65,-349.32 58.65,-349.32"/>
<text xml:space="preserve" text-anchor="middle" x="35.33" y="-327.82" font-family="Helvetica,sans-Serif" font-size="10.00">perm_in(slot)</text>
</g>
<!-- decode -->
<g id="node5" class="node">
<title>decode</title>
<path fill="#fffbeb" stroke="#334155" d="M288.43,-349.32C288.43,-349.32 163.03,-349.32 163.03,-349.32 157.03,-349.32 151.03,-343.32 151.03,-337.32 151.03,-337.32 151.03,-325.32 151.03,-325.32 151.03,-319.32 157.03,-313.32 163.03,-313.32 163.03,-313.32 288.43,-313.32 288.43,-313.32 294.43,-313.32 300.43,-319.32 300.43,-325.32 300.43,-325.32 300.43,-337.32 300.43,-337.32 300.43,-343.32 294.43,-349.32 288.43,-349.32"/>
<text xml:space="preserve" text-anchor="middle" x="225.73" y="-327.82" font-family="Helvetica,sans-Serif" font-size="10.00">perm_i = decode(perm_in(slot))</text>
</g>
<!-- perm&#45;&gt;decode -->
<g id="edge1" class="edge">
<title>perm&#45;&gt;decode</title>
<path fill="none" stroke="#475569" stroke-width="1.1" d="M70.88,-331.32C90.92,-331.32 117.09,-331.32 142.13,-331.32"/>
<polygon fill="#475569" stroke="#475569" stroke-width="1.1" points="141.91,-333.77 148.91,-331.32 141.91,-328.87 141.91,-333.77"/>
</g>
<!-- inv -->
<g id="node3" class="node">
<title>inv</title>
<path fill="#f8fafc" stroke="#334155" d="M240.8,-227.32C240.8,-227.32 210.65,-227.32 210.65,-227.32 204.65,-227.32 198.65,-221.32 198.65,-215.32 198.65,-215.32 198.65,-203.32 198.65,-203.32 198.65,-197.32 204.65,-191.32 210.65,-191.32 210.65,-191.32 240.8,-191.32 240.8,-191.32 246.8,-191.32 252.8,-197.32 252.8,-203.32 252.8,-203.32 252.8,-215.32 252.8,-215.32 252.8,-221.32 246.8,-227.32 240.8,-227.32"/>
<text xml:space="preserve" text-anchor="middle" x="225.73" y="-205.82" font-family="Helvetica,sans-Serif" font-size="10.00">in_v(slot)</text>
</g>
<!-- inv&#45;&gt;select -->
<g id="edge6" class="edge">
<title>inv&#45;&gt;select</title>
<path fill="none" stroke="#475569" stroke-width="1.1" d="M252.88,-205.82C281.75,-201.96 329.76,-195.55 372.15,-189.88"/>
<polygon fill="#475569" stroke="#475569" stroke-width="1.1" points="372.28,-192.33 378.89,-188.98 371.63,-187.48 372.28,-192.33"/>
</g>
<!-- array_in -->
<g id="node4" class="node">
<title>array_in</title>
<path fill="#f8fafc" stroke="#334155" d="M247.55,-166.32C247.55,-166.32 203.9,-166.32 203.9,-166.32 197.9,-166.32 191.9,-160.32 191.9,-154.32 191.9,-154.32 191.9,-142.32 191.9,-142.32 191.9,-136.32 197.9,-130.32 203.9,-130.32 203.9,-130.32 247.55,-130.32 247.55,-130.32 253.55,-130.32 259.55,-136.32 259.55,-142.32 259.55,-142.32 259.55,-154.32 259.55,-154.32 259.55,-160.32 253.55,-166.32 247.55,-166.32"/>
<text xml:space="preserve" text-anchor="middle" x="225.73" y="-144.82" font-family="Helvetica,sans-Serif" font-size="10.00">in_v(perm_i)</text>
</g>
<!-- array_in&#45;&gt;select -->
<g id="edge7" class="edge">
<title>array_in&#45;&gt;select</title>
<path fill="none" stroke="#475569" stroke-width="1.1" d="M259.95,-152.62C289.18,-156.4 333.05,-162.07 372.13,-167.13"/>
<polygon fill="#475569" stroke="#475569" stroke-width="1.1" points="371.48,-169.52 378.74,-167.99 372.11,-164.66 371.48,-169.52"/>
</g>
<!-- check -->
<g id="node6" class="node">
<title>check</title>
<path fill="#fffbeb" stroke="#334155" d="M515.95,-305.32C515.95,-305.32 403.3,-305.32 403.3,-305.32 397.3,-305.32 391.3,-299.32 391.3,-293.32 391.3,-293.32 391.3,-281.32 391.3,-281.32 391.3,-275.32 397.3,-269.32 403.3,-269.32 403.3,-269.32 515.95,-269.32 515.95,-269.32 521.95,-269.32 527.95,-275.32 527.95,-281.32 527.95,-281.32 527.95,-293.32 527.95,-293.32 527.95,-299.32 521.95,-305.32 515.95,-305.32"/>
<text xml:space="preserve" text-anchor="middle" x="459.63" y="-283.82" font-family="Helvetica,sans-Serif" font-size="10.00">valid = (0 &lt;= perm_i &lt; G_P)</text>
</g>
<!-- decode&#45;&gt;check -->
<g id="edge2" class="edge">
<title>decode&#45;&gt;check</title>
<path fill="none" stroke="#475569" stroke-width="1.1" d="M300.74,-317.28C326.81,-312.33 356.16,-306.76 382.41,-301.78"/>
<polygon fill="#475569" stroke="#475569" stroke-width="1.1" points="382.76,-304.21 389.18,-300.5 381.85,-299.39 382.76,-304.21"/>
</g>
<!-- enable -->
<g id="node9" class="node">
<title>enable</title>
<path fill="#f0fdf4" stroke="#334155" d="M692.1,-228.32C692.1,-228.32 600.45,-228.32 600.45,-228.32 594.45,-228.32 588.45,-222.32 588.45,-216.32 588.45,-216.32 588.45,-204.32 588.45,-204.32 588.45,-198.32 594.45,-192.32 600.45,-192.32 600.45,-192.32 692.1,-192.32 692.1,-192.32 698.1,-192.32 704.1,-198.32 704.1,-204.32 704.1,-204.32 704.1,-216.32 704.1,-216.32 704.1,-222.32 698.1,-228.32 692.1,-228.32"/>
<text xml:space="preserve" text-anchor="middle" x="646.27" y="-212.82" font-family="Helvetica,sans-Serif" font-size="10.00">gated write/assignment</text>
<text xml:space="preserve" text-anchor="middle" x="646.27" y="-200.82" font-family="Helvetica,sans-Serif" font-size="10.00">only if valid</text>
</g>
<!-- check&#45;&gt;enable -->
<g id="edge3" class="edge">
<title>check&#45;&gt;enable</title>
<path fill="none" stroke="#475569" stroke-width="1.1" d="M504.85,-268.88C531.48,-257.77 565.51,-243.58 593.4,-231.95"/>
<polygon fill="#475569" stroke="#475569" stroke-width="1.1" points="594.03,-234.34 599.55,-229.39 592.15,-229.82 594.03,-234.34"/>
</g>
<!-- mode -->
<g id="node7" class="node">
<title>mode</title>
<path fill="#eff6ff" stroke="#334155" d="M251.68,-105.32C251.68,-105.32 199.78,-105.32 199.78,-105.32 193.78,-105.32 187.78,-99.32 187.78,-93.32 187.78,-93.32 187.78,-81.32 187.78,-81.32 187.78,-75.32 193.78,-69.32 199.78,-69.32 199.78,-69.32 251.68,-69.32 251.68,-69.32 257.68,-69.32 263.68,-75.32 263.68,-81.32 263.68,-81.32 263.68,-93.32 263.68,-93.32 263.68,-99.32 257.68,-105.32 251.68,-105.32"/>
<text xml:space="preserve" text-anchor="middle" x="225.73" y="-83.82" font-family="Helvetica,sans-Serif" font-size="10.00">G_REVERSE</text>
</g>
<!-- mode&#45;&gt;select -->
<g id="edge4" class="edge">
<title>mode&#45;&gt;select</title>
<path fill="none" stroke="#2563eb" stroke-width="1.1" stroke-dasharray="5,2" d="M264,-98.42C293.87,-107.32 330.8,-118.32 330.8,-118.32 330.8,-118.32 368.23,-135.89 402.58,-152.01"/>
<polygon fill="#2563eb" stroke="#2563eb" stroke-width="1.1" points="401.42,-154.17 408.79,-154.93 403.5,-149.74 401.42,-154.17"/>
</g>
<!-- select&#45;&gt;enable -->
<g id="edge8" class="edge">
<title>select&#45;&gt;enable</title>
<path fill="none" stroke="#475569" stroke-width="1.1" d="M538.93,-191.89C552.48,-194.24 566.44,-196.66 579.6,-198.94"/>
<polygon fill="#475569" stroke="#475569" stroke-width="1.1" points="579.17,-201.35 586.49,-200.13 580.01,-196.52 579.17,-201.35"/>
</g>
<!-- note0 -->
<g id="node10" class="node">
<title>note0</title>
<polygon fill="#fefce8" stroke="#eab308" points="324.8,-44.64 120.65,-44.64 120.65,0 330.8,0 330.8,-38.64 324.8,-44.64"/>
<polyline fill="none" stroke="#eab308" points="324.8,-44.64 324.8,-38.64"/>
<polyline fill="none" stroke="#eab308" points="330.8,-38.64 324.8,-38.64"/>
<text xml:space="preserve" text-anchor="middle" x="225.73" y="-30.82" font-family="Helvetica,sans-Serif" font-size="10.00">This is the slave&#39;s deep primitive.</text>
<text xml:space="preserve" text-anchor="middle" x="225.73" y="-18.82" font-family="Helvetica,sans-Serif" font-size="10.00">A decoded permutation index plus a mode bit</text>
<text xml:space="preserve" text-anchor="middle" x="225.73" y="-6.82" font-family="Helvetica,sans-Serif" font-size="10.00">select the assignment direction.</text>
</g>
<!-- note0&#45;&gt;select -->
<g id="edge9" class="edge">
<title>note0&#45;&gt;select</title>
<path fill="none" stroke="#a16207" stroke-width="1.1" stroke-dasharray="1,5" d="M294.4,-45.08C314.28,-51.76 330.8,-57.32 330.8,-57.32 330.8,-57.32 397.55,-120.51 434.58,-155.56"/>
</g>
</g>
</svg>
