<?xml version="1.0" encoding="UTF-8" standalone="no"?>
<!DOCTYPE svg PUBLIC "-//W3C//DTD SVG 1.1//EN"
 "http://www.w3.org/Graphics/SVG/1.1/DTD/svg11.dtd">
<!-- Generated by graphviz version 14.1.2 (0)
 -->
<!-- Title: batcher_master_cs Pages: 1 -->
<svg width="610pt" height="402pt"
 viewBox="0.00 0.00 610.00 402.00" xmlns="http://www.w3.org/2000/svg" xmlns:xlink="http://www.w3.org/1999/xlink">
<g id="graph0" class="graph" transform="scale(1 1) rotate(0) translate(14.4 387.15)">
<title>batcher_master_cs</title>
<polygon fill="white" stroke="none" points="-14.4,14.4 -14.4,-387.15 596,-387.15 596,14.4 -14.4,14.4"/>
<text xml:space="preserve" text-anchor="middle" x="290.8" y="-355.45" font-family="Helvetica,sans-Serif" font-size="14.00">batcher_master Compare&#45;Swap Cell</text>
<!-- aL -->
<g id="node1" class="node">
<title>aL</title>
<path fill="#f8fafc" stroke="#334155" d="M44.03,-349C44.03,-349 13.13,-349 13.13,-349 7.13,-349 1.13,-343 1.13,-337 1.13,-337 1.13,-325 1.13,-325 1.13,-319 7.13,-313 13.13,-313 13.13,-313 44.03,-313 44.03,-313 50.03,-313 56.03,-319 56.03,-325 56.03,-325 56.03,-337 56.03,-337 56.03,-343 50.03,-349 44.03,-349"/>
<text xml:space="preserve" text-anchor="middle" x="28.58" y="-327.5" font-family="Helvetica,sans-Serif" font-size="10.00">addr_v(L)</text>
</g>
<!-- cmp -->
<g id="node5" class="node">
<title>cmp</title>
<path fill="#fffbeb" stroke="#334155" d="M248.18,-247C248.18,-247 125.78,-247 125.78,-247 119.78,-247 113.78,-241 113.78,-235 113.78,-235 113.78,-223 113.78,-223 113.78,-217 119.78,-211 125.78,-211 125.78,-211 248.18,-211 248.18,-211 254.18,-211 260.18,-217 260.18,-223 260.18,-223 260.18,-235 260.18,-235 260.18,-241 254.18,-247 248.18,-247"/>
<text xml:space="preserve" text-anchor="middle" x="186.98" y="-225.5" font-family="Helvetica,sans-Serif" font-size="10.00">cmp = (addr_v(L) &gt; addr_v(R))</text>
</g>
<!-- aL&#45;&gt;cmp -->
<g id="edge1" class="edge">
<title>aL&#45;&gt;cmp</title>
<path fill="none" stroke="#475569" stroke-width="1.1" d="M56.46,-313.47C82.55,-296.45 122.27,-270.54 150.85,-251.91"/>
<polygon fill="#475569" stroke="#475569" stroke-width="1.1" points="151.94,-254.12 156.46,-248.25 149.26,-250.02 151.94,-254.12"/>
</g>
<!-- muxA -->
<g id="node6" class="node">
<title>muxA</title>
<path fill="#fffbeb" stroke="#334155" d="M459.2,-303C459.2,-303 375.8,-303 375.8,-303 369.8,-303 363.8,-297 363.8,-291 363.8,-291 363.8,-279 363.8,-279 363.8,-273 369.8,-267 375.8,-267 375.8,-267 459.2,-267 459.2,-267 465.2,-267 471.2,-273 471.2,-279 471.2,-279 471.2,-291 471.2,-291 471.2,-297 465.2,-303 459.2,-303"/>
<text xml:space="preserve" text-anchor="middle" x="417.5" y="-287.5" font-family="Helvetica,sans-Serif" font-size="10.00">address swap muxes</text>
<text xml:space="preserve" text-anchor="middle" x="417.5" y="-275.5" font-family="Helvetica,sans-Serif" font-size="10.00">if cmp swap aL/aR</text>
</g>
<!-- aL&#45;&gt;muxA -->
<g id="edge3" class="edge">
<title>aL&#45;&gt;muxA</title>
<path fill="none" stroke="#475569" stroke-width="1.1" d="M56.48,-328.3C131.71,-320.76 338.8,-300 338.8,-300 338.8,-300 345.47,-298.71 354.9,-296.89"/>
<polygon fill="#475569" stroke="#475569" stroke-width="1.1" points="355.34,-299.3 361.75,-295.57 354.41,-294.49 355.34,-299.3"/>
</g>
<!-- aR -->
<g id="node2" class="node">
<title>aR</title>
<path fill="#f8fafc" stroke="#334155" d="M45.15,-288C45.15,-288 12,-288 12,-288 6,-288 0,-282 0,-276 0,-276 0,-264 0,-264 0,-258 6,-252 12,-252 12,-252 45.15,-252 45.15,-252 51.15,-252 57.15,-258 57.15,-264 57.15,-264 57.15,-276 57.15,-276 57.15,-282 51.15,-288 45.15,-288"/>
<text xml:space="preserve" text-anchor="middle" x="28.58" y="-266.5" font-family="Helvetica,sans-Serif" font-size="10.00">addr_v(R)</text>
</g>
<!-- aR&#45;&gt;cmp -->
<g id="edge2" class="edge">
<title>aR&#45;&gt;cmp</title>
<path fill="none" stroke="#475569" stroke-width="1.1" d="M57.54,-262.67C71.63,-258.97 89.5,-254.29 107.4,-249.6"/>
<polygon fill="#475569" stroke="#475569" stroke-width="1.1" points="107.85,-252.01 114,-247.87 106.61,-247.27 107.85,-252.01"/>
</g>
<!-- aR&#45;&gt;muxA -->
<g id="edge4" class="edge">
<title>aR&#45;&gt;muxA</title>
<path fill="none" stroke="#475569" stroke-width="1.1" d="M57.4,-271.08C119.3,-273.48 269.64,-279.31 354.87,-282.61"/>
<polygon fill="#475569" stroke="#475569" stroke-width="1.1" points="354.66,-285.05 361.75,-282.88 354.85,-280.16 354.66,-285.05"/>
</g>
<!-- tL -->
<g id="node3" class="node">
<title>tL</title>
<path fill="#f8fafc" stroke="#334155" d="M202.05,-97C202.05,-97 171.9,-97 171.9,-97 165.9,-97 159.9,-91 159.9,-85 159.9,-85 159.9,-73 159.9,-73 159.9,-67 165.9,-61 171.9,-61 171.9,-61 202.05,-61 202.05,-61 208.05,-61 214.05,-67 214.05,-73 214.05,-73 214.05,-85 214.05,-85 214.05,-91 208.05,-97 202.05,-97"/>
<text xml:space="preserve" text-anchor="middle" x="186.98" y="-75.5" font-family="Helvetica,sans-Serif" font-size="10.00">lane_v(L)</text>
</g>
<!-- muxT -->
<g id="node7" class="node">
<title>muxT</title>
<path fill="#fffbeb" stroke="#334155" d="M451.7,-119C451.7,-119 383.3,-119 383.3,-119 377.3,-119 371.3,-113 371.3,-107 371.3,-107 371.3,-95 371.3,-95 371.3,-89 377.3,-83 383.3,-83 383.3,-83 451.7,-83 451.7,-83 457.7,-83 463.7,-89 463.7,-95 463.7,-95 463.7,-107 463.7,-107 463.7,-113 457.7,-119 451.7,-119"/>
<text xml:space="preserve" text-anchor="middle" x="417.5" y="-103.5" font-family="Helvetica,sans-Serif" font-size="10.00">tag swap muxes</text>
<text xml:space="preserve" text-anchor="middle" x="417.5" y="-91.5" font-family="Helvetica,sans-Serif" font-size="10.00">if cmp swap tL/tR</text>
</g>
<!-- tL&#45;&gt;muxT -->
<g id="edge5" class="edge">
<title>tL&#45;&gt;muxT</title>
<path fill="none" stroke="#475569" stroke-width="1.1" d="M214.19,-81.52C250.17,-84.99 315.71,-91.3 362.44,-95.8"/>
<polygon fill="#475569" stroke="#475569" stroke-width="1.1" points="362.07,-98.22 369.27,-96.45 362.54,-93.34 362.07,-98.22"/>
</g>
<!-- tR -->
<g id="node4" class="node">
<title>tR</title>
<path fill="#f8fafc" stroke="#334155" d="M203.18,-36C203.18,-36 170.78,-36 170.78,-36 164.78,-36 158.78,-30 158.78,-24 158.78,-24 158.78,-12 158.78,-12 158.78,-6 164.78,0 170.78,0 170.78,0 203.18,0 203.18,0 209.18,0 215.18,-6 215.18,-12 215.18,-12 215.18,-24 215.18,-24 215.18,-30 209.18,-36 203.18,-36"/>
<text xml:space="preserve" text-anchor="middle" x="186.98" y="-14.5" font-family="Helvetica,sans-Serif" font-size="10.00">lane_v(R)</text>
</g>
<!-- tR&#45;&gt;muxT -->
<g id="edge6" class="edge">
<title>tR&#45;&gt;muxT</title>
<path fill="none" stroke="#475569" stroke-width="1.1" d="M215.54,-28.01C251.94,-41.23 316.8,-64.79 362.99,-81.57"/>
<polygon fill="#475569" stroke="#475569" stroke-width="1.1" points="362.12,-83.86 369.54,-83.94 363.79,-79.25 362.12,-83.86"/>
</g>
<!-- cmp&#45;&gt;muxA -->
<g id="edge7" class="edge">
<title>cmp&#45;&gt;muxA</title>
<path fill="none" stroke="#2563eb" stroke-width="1.1" stroke-dasharray="5,2" d="M260.3,-241.71C299,-248.51 338.8,-255.5 338.8,-255.5 338.8,-255.5 348.11,-259.03 360.28,-263.66"/>
<polygon fill="#2563eb" stroke="#2563eb" stroke-width="1.1" points="359.2,-265.87 366.62,-266.06 360.94,-261.29 359.2,-265.87"/>
<text xml:space="preserve" text-anchor="middle" x="314.8" y="-257.45" font-family="Helvetica,sans-Serif" font-size="9.00">swap select</text>
</g>
<!-- cmp&#45;&gt;muxT -->
<g id="edge8" class="edge">
<title>cmp&#45;&gt;muxT</title>
<path fill="none" stroke="#2563eb" stroke-width="1.1" stroke-dasharray="5,2" d="M225.52,-210.67C245.42,-200.95 265.8,-191 265.8,-191 265.8,-191 333.77,-150.41 378.42,-123.74"/>
<polygon fill="#2563eb" stroke="#2563eb" stroke-width="1.1" points="379.46,-125.98 384.21,-120.28 376.94,-121.77 379.46,-125.98"/>
<text xml:space="preserve" text-anchor="middle" x="314.8" y="-177.86" font-family="Helvetica,sans-Serif" font-size="9.00">swap select</text>
</g>
<!-- ctrl -->
<g id="node8" class="node">
<title>ctrl</title>
<path fill="#eff6ff" stroke="#334155" d="M444.95,-235.32C444.95,-235.32 390.05,-235.32 390.05,-235.32 384.05,-235.32 378.05,-229.32 378.05,-223.32 378.05,-223.32 378.05,-202.68 378.05,-202.68 378.05,-196.68 384.05,-190.68 390.05,-190.68 390.05,-190.68 444.95,-190.68 444.95,-190.68 450.95,-190.68 456.95,-196.68 456.95,-202.68 456.95,-202.68 456.95,-223.32 456.95,-223.32 456.95,-229.32 450.95,-235.32 444.95,-235.32"/>
<text xml:space="preserve" text-anchor="middle" x="417.5" y="-221.5" font-family="Helvetica,sans-Serif" font-size="10.00">c_tmp(ctrl_idx)</text>
<text xml:space="preserve" text-anchor="middle" x="417.5" y="-209.5" font-family="Helvetica,sans-Serif" font-size="10.00">1 if swap</text>
<text xml:space="preserve" text-anchor="middle" x="417.5" y="-197.5" font-family="Helvetica,sans-Serif" font-size="10.00">0 otherwise</text>
</g>
<!-- cmp&#45;&gt;ctrl -->
<g id="edge9" class="edge">
<title>cmp&#45;&gt;ctrl</title>
<path fill="none" stroke="#475569" stroke-width="1.1" d="M260.6,-223.92C296.08,-221.43 337.76,-218.51 369.1,-216.32"/>
<polygon fill="#475569" stroke="#475569" stroke-width="1.1" points="369.18,-218.77 375.99,-215.84 368.83,-213.88 369.18,-218.77"/>
</g>
<!-- aL2 -->
<g id="node9" class="node">
<title>aL2</title>
<path fill="#f8fafc" stroke="#334155" d="M568.48,-333C568.48,-333 535.32,-333 535.32,-333 529.32,-333 523.32,-327 523.32,-321 523.32,-321 523.32,-309 523.32,-309 523.32,-303 529.32,-297 535.32,-297 535.32,-297 568.48,-297 568.48,-297 574.48,-297 580.48,-303 580.48,-309 580.48,-309 580.48,-321 580.48,-321 580.48,-327 574.48,-333 568.48,-333"/>
<text xml:space="preserve" text-anchor="middle" x="551.9" y="-311.5" font-family="Helvetica,sans-Serif" font-size="10.00">addr_v&#39;(L)</text>
</g>
<!-- muxA&#45;&gt;aL2 -->
<g id="edge10" class="edge">
<title>muxA&#45;&gt;aL2</title>
<path fill="none" stroke="#475569" stroke-width="1.1" d="M471.59,-297.03C485.99,-300.29 501.25,-303.75 514.5,-306.75"/>
<polygon fill="#475569" stroke="#475569" stroke-width="1.1" points="513.9,-309.13 521.26,-308.28 514.98,-304.35 513.9,-309.13"/>
</g>
<!-- aR2 -->
<g id="node10" class="node">
<title>aR2</title>
<path fill="#f8fafc" stroke="#334155" d="M569.6,-272C569.6,-272 534.2,-272 534.2,-272 528.2,-272 522.2,-266 522.2,-260 522.2,-260 522.2,-248 522.2,-248 522.2,-242 528.2,-236 534.2,-236 534.2,-236 569.6,-236 569.6,-236 575.6,-236 581.6,-242 581.6,-248 581.6,-248 581.6,-260 581.6,-260 581.6,-266 575.6,-272 569.6,-272"/>
<text xml:space="preserve" text-anchor="middle" x="551.9" y="-250.5" font-family="Helvetica,sans-Serif" font-size="10.00">addr_v&#39;(R)</text>
</g>
<!-- muxA&#45;&gt;aR2 -->
<g id="edge11" class="edge">
<title>muxA&#45;&gt;aR2</title>
<path fill="none" stroke="#475569" stroke-width="1.1" d="M471.59,-272.57C485.63,-269.28 500.5,-265.8 513.52,-262.75"/>
<polygon fill="#475569" stroke="#475569" stroke-width="1.1" points="513.9,-265.18 520.16,-261.2 512.78,-260.41 513.9,-265.18"/>
</g>
<!-- tL2 -->
<g id="node11" class="node">
<title>tL2</title>
<path fill="#f8fafc" stroke="#334155" d="M568.1,-150C568.1,-150 535.7,-150 535.7,-150 529.7,-150 523.7,-144 523.7,-138 523.7,-138 523.7,-126 523.7,-126 523.7,-120 529.7,-114 535.7,-114 535.7,-114 568.1,-114 568.1,-114 574.1,-114 580.1,-120 580.1,-126 580.1,-126 580.1,-138 580.1,-138 580.1,-144 574.1,-150 568.1,-150"/>
<text xml:space="preserve" text-anchor="middle" x="551.9" y="-128.5" font-family="Helvetica,sans-Serif" font-size="10.00">lane_v&#39;(L)</text>
</g>
<!-- muxT&#45;&gt;tL2 -->
<g id="edge12" class="edge">
<title>muxT&#45;&gt;tL2</title>
<path fill="none" stroke="#475569" stroke-width="1.1" d="M464.06,-111.67C480.73,-115.57 499.33,-119.92 515.02,-123.6"/>
<polygon fill="#475569" stroke="#475569" stroke-width="1.1" points="514.42,-125.98 521.8,-125.19 515.54,-121.2 514.42,-125.98"/>
</g>
<!-- tR2 -->
<g id="node12" class="node">
<title>tR2</title>
<path fill="#f8fafc" stroke="#334155" d="M569.23,-89C569.23,-89 534.57,-89 534.57,-89 528.57,-89 522.57,-83 522.57,-77 522.57,-77 522.57,-65 522.57,-65 522.57,-59 528.57,-53 534.57,-53 534.57,-53 569.23,-53 569.23,-53 575.23,-53 581.23,-59 581.23,-65 581.23,-65 581.23,-77 581.23,-77 581.23,-83 575.23,-89 569.23,-89"/>
<text xml:space="preserve" text-anchor="middle" x="551.9" y="-67.5" font-family="Helvetica,sans-Serif" font-size="10.00">lane_v&#39;(R)</text>
</g>
<!-- muxT&#45;&gt;tR2 -->
<g id="edge13" class="edge">
<title>muxT&#45;&gt;tR2</title>
<path fill="none" stroke="#475569" stroke-width="1.1" d="M464.06,-90.68C480.35,-86.99 498.48,-82.88 513.95,-79.37"/>
<polygon fill="#475569" stroke="#475569" stroke-width="1.1" points="514.33,-81.8 520.62,-77.86 513.25,-77.02 514.33,-81.8"/>
</g>
<!-- note0 -->
<g id="node13" class="node">
<title>note0</title>
<polygon fill="#fefce8" stroke="#eab308" points="259.8,-178.32 108.15,-178.32 108.15,-121.68 265.8,-121.68 265.8,-172.32 259.8,-178.32"/>
<polyline fill="none" stroke="#eab308" points="259.8,-178.32 259.8,-172.32"/>
<polyline fill="none" stroke="#eab308" points="265.8,-172.32 259.8,-172.32"/>
<text xml:space="preserve" text-anchor="middle" x="186.98" y="-164.5" font-family="Helvetica,sans-Serif" font-size="10.00">One deep cell updates both</text>
<text xml:space="preserve" text-anchor="middle" x="186.98" y="-152.5" font-family="Helvetica,sans-Serif" font-size="10.00">data and provenance.</text>
<text xml:space="preserve" text-anchor="middle" x="186.98" y="-140.5" font-family="Helvetica,sans-Serif" font-size="10.00">Address order changes,</text>
<text xml:space="preserve" text-anchor="middle" x="186.98" y="-128.5" font-family="Helvetica,sans-Serif" font-size="10.00">lane identity follows the address.</text>
</g>
<!-- note0&#45;&gt;muxT -->
<g id="edge14" class="edge">
<title>note0&#45;&gt;muxT</title>
<path fill="none" stroke="#a16207" stroke-width="1.1" stroke-dasharray="1,5" d="M265.98,-133.27C300.89,-125.79 340.84,-117.22 370.81,-110.8"/>
</g>
</g>
</svg>
