<?xml version="1.0" encoding="UTF-8" standalone="no"?>
<!DOCTYPE svg PUBLIC "-//W3C//DTD SVG 1.1//EN"
 "http://www.w3.org/Graphics/SVG/1.1/DTD/svg11.dtd">
<!-- Generated by graphviz version 14.1.2 (0)
 -->
<!-- Title: siso_index_addr Pages: 1 -->
<svg width="1677pt" height="602pt"
 viewBox="0.00 0.00 1677.00 602.00" xmlns="http://www.w3.org/2000/svg" xmlns:xlink="http://www.w3.org/1999/xlink">
<g id="graph0" class="graph" transform="scale(1 1) rotate(0) translate(14.4 587.47)">
<title>siso_index_addr</title>
<polygon fill="white" stroke="none" points="-14.4,14.4 -14.4,-587.47 1662.4,-587.47 1662.4,14.4 -14.4,14.4"/>
<text xml:space="preserve" text-anchor="middle" x="824" y="-555.77" font-family="Helvetica,sans-Serif" font-size="14.00">siso_maxlogmap Index And Address Control</text>
<g id="clust1" class="cluster">
<title>cluster_setup</title>
<path fill="white" stroke="#93c5fd" d="M130.9,-173.32C130.9,-173.32 450.95,-173.32 450.95,-173.32 456.95,-173.32 462.95,-179.32 462.95,-185.32 462.95,-185.32 462.95,-302.32 462.95,-302.32 462.95,-308.32 456.95,-314.32 450.95,-314.32 450.95,-314.32 130.9,-314.32 130.9,-314.32 124.9,-314.32 118.9,-308.32 118.9,-302.32 118.9,-302.32 118.9,-185.32 118.9,-185.32 118.9,-179.32 124.9,-173.32 130.9,-173.32"/>
<text xml:space="preserve" text-anchor="middle" x="290.93" y="-297.02" font-family="Helvetica,sans-Serif" font-size="14.00">Segment Setup</text>
</g>
<g id="clust2" class="cluster">
<title>cluster_regs</title>
<path fill="white" stroke="#bfdbfe" d="M673.95,-162.32C673.95,-162.32 782.95,-162.32 782.95,-162.32 788.95,-162.32 794.95,-168.32 794.95,-174.32 794.95,-174.32 794.95,-356.32 794.95,-356.32 794.95,-362.32 788.95,-368.32 782.95,-368.32 782.95,-368.32 673.95,-368.32 673.95,-368.32 667.95,-368.32 661.95,-362.32 661.95,-356.32 661.95,-356.32 661.95,-174.32 661.95,-174.32 661.95,-168.32 667.95,-162.32 673.95,-162.32"/>
<text xml:space="preserve" text-anchor="middle" x="728.45" y="-351.02" font-family="Helvetica,sans-Serif" font-size="14.00">Traversal Registers</text>
</g>
<g id="clust3" class="cluster">
<title>cluster_derive</title>
<path fill="white" stroke="#a7f3d0" d="M1008.2,-65.32C1008.2,-65.32 1215.6,-65.32 1215.6,-65.32 1221.6,-65.32 1227.6,-71.32 1227.6,-77.32 1227.6,-77.32 1227.6,-259.32 1227.6,-259.32 1227.6,-265.32 1221.6,-271.32 1215.6,-271.32 1215.6,-271.32 1008.2,-271.32 1008.2,-271.32 1002.2,-271.32 996.2,-265.32 996.2,-259.32 996.2,-259.32 996.2,-77.32 996.2,-77.32 996.2,-71.32 1002.2,-65.32 1008.2,-65.32"/>
<text xml:space="preserve" text-anchor="middle" x="1111.9" y="-254.02" font-family="Helvetica,sans-Serif" font-size="14.00">Derived Counters</text>
</g>
<g id="clust4" class="cluster">
<title>cluster_addr</title>
<path fill="white" stroke="#fcd34d" d="M1365.85,-285.32C1365.85,-285.32 1628,-285.32 1628,-285.32 1634,-285.32 1640,-291.32 1640,-297.32 1640,-297.32 1640,-529.32 1640,-529.32 1640,-535.32 1634,-541.32 1628,-541.32 1628,-541.32 1365.85,-541.32 1365.85,-541.32 1359.85,-541.32 1353.85,-535.32 1353.85,-529.32 1353.85,-529.32 1353.85,-297.32 1353.85,-297.32 1353.85,-291.32 1359.85,-285.32 1365.85,-285.32"/>
<text xml:space="preserve" text-anchor="middle" x="1496.93" y="-524.02" font-family="Helvetica,sans-Serif" font-size="14.00">Address Generation</text>
</g>
<!-- seg_in -->
<g id="node1" class="node">
<title>seg_in</title>
<path fill="#f8fafc" stroke="#334155" d="M63.9,-227.64C63.9,-227.64 12,-227.64 12,-227.64 6,-227.64 0,-221.64 0,-215.64 0,-215.64 0,-183 0,-183 0,-177 6,-171 12,-171 12,-171 63.9,-171 63.9,-171 69.9,-171 75.9,-177 75.9,-183 75.9,-183 75.9,-215.64 75.9,-215.64 75.9,-221.64 69.9,-227.64 63.9,-227.64"/>
<text xml:space="preserve" text-anchor="middle" x="37.95" y="-213.82" font-family="Helvetica,sans-Serif" font-size="10.00">seg_len</text>
<text xml:space="preserve" text-anchor="middle" x="37.95" y="-201.82" font-family="Helvetica,sans-Serif" font-size="10.00">G_SEG_MAX</text>
<text xml:space="preserve" text-anchor="middle" x="37.95" y="-189.82" font-family="Helvetica,sans-Serif" font-size="10.00">C_WINDOW</text>
<text xml:space="preserve" text-anchor="middle" x="37.95" y="-177.82" font-family="Helvetica,sans-Serif" font-size="10.00">C_PAIR_WIN</text>
</g>
<!-- seg_bits -->
<g id="node2" class="node">
<title>seg_bits</title>
<path fill="#eff6ff" stroke="#334155" d="M202.8,-217.32C202.8,-217.32 138.9,-217.32 138.9,-217.32 132.9,-217.32 126.9,-211.32 126.9,-205.32 126.9,-205.32 126.9,-193.32 126.9,-193.32 126.9,-187.32 132.9,-181.32 138.9,-181.32 138.9,-181.32 202.8,-181.32 202.8,-181.32 208.8,-181.32 214.8,-187.32 214.8,-193.32 214.8,-193.32 214.8,-205.32 214.8,-205.32 214.8,-211.32 208.8,-217.32 202.8,-217.32"/>
<text xml:space="preserve" text-anchor="middle" x="170.85" y="-201.82" font-family="Helvetica,sans-Serif" font-size="10.00">seg_bits_i</text>
<text xml:space="preserve" text-anchor="middle" x="170.85" y="-189.82" font-family="Helvetica,sans-Serif" font-size="10.00">clamped seg_len</text>
</g>
<!-- seg_in&#45;&gt;seg_bits -->
<g id="edge1" class="edge">
<title>seg_in&#45;&gt;seg_bits</title>
<path fill="none" stroke="#475569" stroke-width="1.1" d="M76.11,-199.32C89.13,-199.32 104,-199.32 118,-199.32"/>
<polygon fill="#475569" stroke="#475569" stroke-width="1.1" points="117.92,-201.77 124.92,-199.32 117.92,-196.87 117.92,-201.77"/>
</g>
<!-- pair_cnt -->
<g id="node3" class="node">
<title>pair_cnt</title>
<path fill="#eff6ff" stroke="#334155" d="M386.7,-282.32C386.7,-282.32 334.05,-282.32 334.05,-282.32 328.05,-282.32 322.05,-276.32 322.05,-270.32 322.05,-270.32 322.05,-258.32 322.05,-258.32 322.05,-252.32 328.05,-246.32 334.05,-246.32 334.05,-246.32 386.7,-246.32 386.7,-246.32 392.7,-246.32 398.7,-252.32 398.7,-258.32 398.7,-258.32 398.7,-270.32 398.7,-270.32 398.7,-276.32 392.7,-282.32 386.7,-282.32"/>
<text xml:space="preserve" text-anchor="middle" x="360.38" y="-266.82" font-family="Helvetica,sans-Serif" font-size="10.00">pair_cnt</text>
<text xml:space="preserve" text-anchor="middle" x="360.38" y="-254.82" font-family="Helvetica,sans-Serif" font-size="10.00">(seg_bits+1)/2</text>
</g>
<!-- seg_bits&#45;&gt;pair_cnt -->
<g id="edge2" class="edge">
<title>seg_bits&#45;&gt;pair_cnt</title>
<path fill="none" stroke="#475569" stroke-width="1.1" d="M214.87,-214.23C244.45,-224.49 283.67,-238.08 313.79,-248.52"/>
<polygon fill="#475569" stroke="#475569" stroke-width="1.1" points="312.64,-250.71 320.06,-250.69 314.25,-246.09 312.64,-250.71"/>
</g>
<!-- win_cnt -->
<g id="node4" class="node">
<title>win_cnt</title>
<path fill="#eff6ff" stroke="#334155" d="M442.95,-217.32C442.95,-217.32 277.8,-217.32 277.8,-217.32 271.8,-217.32 265.8,-211.32 265.8,-205.32 265.8,-205.32 265.8,-193.32 265.8,-193.32 265.8,-187.32 271.8,-181.32 277.8,-181.32 277.8,-181.32 442.95,-181.32 442.95,-181.32 448.95,-181.32 454.95,-187.32 454.95,-193.32 454.95,-193.32 454.95,-205.32 454.95,-205.32 454.95,-211.32 448.95,-217.32 442.95,-217.32"/>
<text xml:space="preserve" text-anchor="middle" x="360.38" y="-201.82" font-family="Helvetica,sans-Serif" font-size="10.00">win_cnt</text>
<text xml:space="preserve" text-anchor="middle" x="360.38" y="-189.82" font-family="Helvetica,sans-Serif" font-size="10.00">(seg_bits+C_WINDOW&#45;1)/C_WINDOW</text>
</g>
<!-- seg_bits&#45;&gt;win_cnt -->
<g id="edge3" class="edge">
<title>seg_bits&#45;&gt;win_cnt</title>
<path fill="none" stroke="#475569" stroke-width="1.1" d="M214.87,-199.32C227.65,-199.32 242.22,-199.32 257.08,-199.32"/>
<polygon fill="#475569" stroke="#475569" stroke-width="1.1" points="256.69,-201.77 263.69,-199.32 256.69,-196.87 256.69,-201.77"/>
</g>
<!-- win_pairs -->
<g id="node8" class="node">
<title>win_pairs</title>
<path fill="#f0fdf4" stroke="#334155" d="M1201.23,-174.32C1201.23,-174.32 1022.58,-174.32 1022.58,-174.32 1016.58,-174.32 1010.58,-168.32 1010.58,-162.32 1010.58,-162.32 1010.58,-150.32 1010.58,-150.32 1010.58,-144.32 1016.58,-138.32 1022.58,-138.32 1022.58,-138.32 1201.23,-138.32 1201.23,-138.32 1207.23,-138.32 1213.23,-144.32 1213.23,-150.32 1213.23,-150.32 1213.23,-162.32 1213.23,-162.32 1213.23,-168.32 1207.23,-174.32 1201.23,-174.32"/>
<text xml:space="preserve" text-anchor="middle" x="1111.9" y="-158.82" font-family="Helvetica,sans-Serif" font-size="10.00">window_pairs_for(work_win_idx,seg_bits_i)</text>
<text xml:space="preserve" text-anchor="middle" x="1111.9" y="-146.82" font-family="Helvetica,sans-Serif" font-size="10.00">current window pair count</text>
</g>
<!-- seg_bits&#45;&gt;win_pairs -->
<g id="edge4" class="edge">
<title>seg_bits&#45;&gt;win_pairs</title>
<path fill="none" stroke="#475569" stroke-width="1.1" d="M215.25,-184.08C239.87,-175.43 265.8,-166.32 265.8,-166.32 265.8,-166.32 811.95,-144.32 811.95,-144.32 811.95,-144.32 979.2,-144.32 979.2,-144.32 979.2,-144.32 988.3,-145.15 1001.72,-146.37"/>
<polygon fill="#475569" stroke="#475569" stroke-width="1.1" points="1001.23,-148.79 1008.42,-146.98 1001.67,-143.91 1001.23,-148.79"/>
</g>
<!-- next_win_pairs -->
<g id="node9" class="node">
<title>next_win_pairs</title>
<path fill="#f0fdf4" stroke="#334155" d="M1206.85,-109.32C1206.85,-109.32 1016.95,-109.32 1016.95,-109.32 1010.95,-109.32 1004.95,-103.32 1004.95,-97.32 1004.95,-97.32 1004.95,-85.32 1004.95,-85.32 1004.95,-79.32 1010.95,-73.32 1016.95,-73.32 1016.95,-73.32 1206.85,-73.32 1206.85,-73.32 1212.85,-73.32 1218.85,-79.32 1218.85,-85.32 1218.85,-85.32 1218.85,-97.32 1218.85,-97.32 1218.85,-103.32 1212.85,-109.32 1206.85,-109.32"/>
<text xml:space="preserve" text-anchor="middle" x="1111.9" y="-93.82" font-family="Helvetica,sans-Serif" font-size="10.00">window_pairs_for(work_win_idx+1,seg_bits_i)</text>
<text xml:space="preserve" text-anchor="middle" x="1111.9" y="-81.82" font-family="Helvetica,sans-Serif" font-size="10.00">next window pair count</text>
</g>
<!-- seg_bits&#45;&gt;next_win_pairs -->
<g id="edge5" class="edge">
<title>seg_bits&#45;&gt;next_win_pairs</title>
<path fill="none" stroke="#475569" stroke-width="1.1" d="M207.9,-180.9C234.4,-167.36 265.8,-151.32 265.8,-151.32 265.8,-151.32 811.95,-104.32 811.95,-104.32 811.95,-104.32 911.76,-99.98 996.04,-96.31"/>
<polygon fill="#475569" stroke="#475569" stroke-width="1.1" points="996.11,-98.76 1003,-96.01 995.9,-93.87 996.11,-98.76"/>
</g>
<!-- load_idx -->
<g id="node5" class="node">
<title>load_idx</title>
<path fill="#f8fbff" stroke="#334155" d="M756.9,-336.32C756.9,-336.32 699,-336.32 699,-336.32 693,-336.32 687,-330.32 687,-324.32 687,-324.32 687,-312.32 687,-312.32 687,-306.32 693,-300.32 699,-300.32 699,-300.32 756.9,-300.32 756.9,-300.32 762.9,-300.32 768.9,-306.32 768.9,-312.32 768.9,-312.32 768.9,-324.32 768.9,-324.32 768.9,-330.32 762.9,-336.32 756.9,-336.32"/>
<text xml:space="preserve" text-anchor="middle" x="727.95" y="-320.82" font-family="Helvetica,sans-Serif" font-size="10.00">load_idx</text>
<text xml:space="preserve" text-anchor="middle" x="727.95" y="-308.82" font-family="Helvetica,sans-Serif" font-size="10.00">LOAD traversal</text>
</g>
<!-- pair_cnt&#45;&gt;load_idx -->
<g id="edge17" class="edge">
<title>pair_cnt&#45;&gt;load_idx</title>
<path fill="none" stroke="#475569" stroke-width="1.1" d="M399.12,-269.9C465.87,-279.76 604.64,-300.25 678.41,-311.15"/>
<polygon fill="#475569" stroke="#475569" stroke-width="1.1" points="677.71,-313.52 684.99,-312.12 678.43,-308.68 677.71,-313.52"/>
<text xml:space="preserve" text-anchor="middle" x="562.45" y="-307.22" font-family="Helvetica,sans-Serif" font-size="9.00">LOAD stop condition</text>
</g>
<!-- work_win -->
<g id="node6" class="node">
<title>work_win</title>
<path fill="#f8fbff" stroke="#334155" d="M756.15,-271.32C756.15,-271.32 699.75,-271.32 699.75,-271.32 693.75,-271.32 687.75,-265.32 687.75,-259.32 687.75,-259.32 687.75,-247.32 687.75,-247.32 687.75,-241.32 693.75,-235.32 699.75,-235.32 699.75,-235.32 756.15,-235.32 756.15,-235.32 762.15,-235.32 768.15,-241.32 768.15,-247.32 768.15,-247.32 768.15,-259.32 768.15,-259.32 768.15,-265.32 762.15,-271.32 756.15,-271.32"/>
<text xml:space="preserve" text-anchor="middle" x="727.95" y="-255.82" font-family="Helvetica,sans-Serif" font-size="10.00">work_win_idx</text>
<text xml:space="preserve" text-anchor="middle" x="727.95" y="-243.82" font-family="Helvetica,sans-Serif" font-size="10.00">current window</text>
</g>
<!-- win_cnt&#45;&gt;work_win -->
<g id="edge18" class="edge">
<title>win_cnt&#45;&gt;work_win</title>
<path fill="none" stroke="#475569" stroke-width="1.1" d="M455.04,-213.16C526.68,-223.74 622.49,-237.89 679.17,-246.26"/>
<polygon fill="#475569" stroke="#475569" stroke-width="1.1" points="678.65,-248.66 685.93,-247.26 679.37,-243.81 678.65,-248.66"/>
<text xml:space="preserve" text-anchor="middle" x="562.45" y="-242.22" font-family="Helvetica,sans-Serif" font-size="9.00">FWD_SEEDS last window / reverse walk</text>
</g>
<!-- frame_addr -->
<g id="node11" class="node">
<title>frame_addr</title>
<path fill="#fffbeb" stroke="#334155" d="M1620,-435.64C1620,-435.64 1373.85,-435.64 1373.85,-435.64 1367.85,-435.64 1361.85,-429.64 1361.85,-423.64 1361.85,-423.64 1361.85,-379 1361.85,-379 1361.85,-373 1367.85,-367 1373.85,-367 1373.85,-367 1620,-367 1620,-367 1626,-367 1632,-373 1632,-379 1632,-379 1632,-423.64 1632,-423.64 1632,-429.64 1626,-435.64 1620,-435.64"/>
<text xml:space="preserve" text-anchor="middle" x="1496.93" y="-421.82" font-family="Helvetica,sans-Serif" font-size="10.00">frame_read_idx_v</text>
<text xml:space="preserve" text-anchor="middle" x="1496.93" y="-409.82" font-family="Helvetica,sans-Serif" font-size="10.00">DUMMY_FWD: work_local_idx</text>
<text xml:space="preserve" text-anchor="middle" x="1496.93" y="-397.82" font-family="Helvetica,sans-Serif" font-size="10.00">FWD_SEEDS: work_win*C_PAIR_WIN + work_local</text>
<text xml:space="preserve" text-anchor="middle" x="1496.93" y="-385.82" font-family="Helvetica,sans-Serif" font-size="10.00">DUMMY_BWD: (work_win+1)*C_PAIR_WIN + work_local</text>
<text xml:space="preserve" text-anchor="middle" x="1496.93" y="-373.82" font-family="Helvetica,sans-Serif" font-size="10.00">LOCAL_FWD: work_win*C_PAIR_WIN + work_local</text>
</g>
<!-- load_idx&#45;&gt;frame_addr -->
<g id="edge8" class="edge">
<title>load_idx&#45;&gt;frame_addr</title>
<path fill="none" stroke="#475569" stroke-width="1.1" d="M741.56,-336.7C764.77,-370.55 811.95,-439.32 811.95,-439.32 811.95,-439.32 1227.6,-439.32 1227.6,-439.32 1227.6,-439.32 1336.85,-433.32 1336.85,-433.32 1336.85,-433.32 1343.07,-432.07 1353.04,-430.06"/>
<polygon fill="#475569" stroke="#475569" stroke-width="1.1" points="1353.35,-432.5 1359.72,-428.72 1352.38,-427.7 1353.35,-432.5"/>
<text xml:space="preserve" text-anchor="middle" x="1111.9" y="-441.27" font-family="Helvetica,sans-Serif" font-size="9.00">LOAD uses in_pair_idx for writes</text>
</g>
<!-- work_win&#45;&gt;win_pairs -->
<g id="edge6" class="edge">
<title>work_win&#45;&gt;win_pairs</title>
<path fill="none" stroke="#475569" stroke-width="1.1" d="M768.6,-250.31C839.17,-244.95 979.2,-234.32 979.2,-234.32 979.2,-234.32 996.2,-188.32 996.2,-188.32 996.2,-188.32 1014.56,-183.2 1036.59,-177.05"/>
<polygon fill="#475569" stroke="#475569" stroke-width="1.1" points="1037.16,-179.44 1043.24,-175.2 1035.84,-174.72 1037.16,-179.44"/>
</g>
<!-- work_win&#45;&gt;next_win_pairs -->
<g id="edge7" class="edge">
<title>work_win&#45;&gt;next_win_pairs</title>
<path fill="none" stroke="#475569" stroke-width="1.1" d="M768.6,-240.01C839.17,-216.32 979.2,-169.32 979.2,-169.32 979.2,-169.32 996.2,-123.32 996.2,-123.32 996.2,-123.32 1014.56,-118.2 1036.59,-112.05"/>
<polygon fill="#475569" stroke="#475569" stroke-width="1.1" points="1037.16,-114.44 1043.24,-110.2 1035.84,-109.72 1037.16,-114.44"/>
</g>
<!-- global_pair -->
<g id="node10" class="node">
<title>global_pair</title>
<path fill="#f0fdf4" stroke="#334155" d="M1207.6,-239.32C1207.6,-239.32 1016.2,-239.32 1016.2,-239.32 1010.2,-239.32 1004.2,-233.32 1004.2,-227.32 1004.2,-227.32 1004.2,-215.32 1004.2,-215.32 1004.2,-209.32 1010.2,-203.32 1016.2,-203.32 1016.2,-203.32 1207.6,-203.32 1207.6,-203.32 1213.6,-203.32 1219.6,-209.32 1219.6,-215.32 1219.6,-215.32 1219.6,-227.32 1219.6,-227.32 1219.6,-233.32 1213.6,-239.32 1207.6,-239.32"/>
<text xml:space="preserve" text-anchor="middle" x="1111.9" y="-223.82" font-family="Helvetica,sans-Serif" font-size="10.00">global_pair_i</text>
<text xml:space="preserve" text-anchor="middle" x="1111.9" y="-211.82" font-family="Helvetica,sans-Serif" font-size="10.00">work_win_idx*C_PAIR_WIN + work_local_idx</text>
</g>
<!-- work_win&#45;&gt;global_pair -->
<g id="edge13" class="edge">
<title>work_win&#45;&gt;global_pair</title>
<path fill="none" stroke="#475569" stroke-width="1.1" d="M768.51,-260.95C789.88,-265.07 811.95,-269.32 811.95,-269.32 811.95,-269.32 979.2,-269.32 979.2,-269.32 979.2,-269.32 1017.25,-255.45 1052.44,-242.63"/>
<polygon fill="#475569" stroke="#475569" stroke-width="1.1" points="1053.06,-245.01 1058.79,-240.31 1051.38,-240.41 1053.06,-245.01"/>
</g>
<!-- work_win&#45;&gt;frame_addr -->
<g id="edge9" class="edge">
<title>work_win&#45;&gt;frame_addr</title>
<path fill="none" stroke="#475569" stroke-width="1.1" d="M765.81,-271.75C780.93,-279.31 794.95,-286.32 794.95,-286.32 794.95,-286.32 811.95,-317.32 811.95,-317.32 811.95,-317.32 1244.6,-388.32 1244.6,-388.32 1244.6,-388.32 1296.45,-391 1353.05,-393.93"/>
<polygon fill="#475569" stroke="#475569" stroke-width="1.1" points="1352.65,-396.36 1359.77,-394.28 1352.91,-391.47 1352.65,-396.36"/>
</g>
<!-- alpha_wr -->
<g id="node12" class="node">
<title>alpha_wr</title>
<path fill="#fffbeb" stroke="#334155" d="M1561.88,-509.64C1561.88,-509.64 1431.98,-509.64 1431.98,-509.64 1425.98,-509.64 1419.98,-503.64 1419.98,-497.64 1419.98,-497.64 1419.98,-477 1419.98,-477 1419.98,-471 1425.98,-465 1431.98,-465 1431.98,-465 1561.88,-465 1561.88,-465 1567.88,-465 1573.88,-471 1573.88,-477 1573.88,-477 1573.88,-497.64 1573.88,-497.64 1573.88,-503.64 1567.88,-509.64 1561.88,-509.64"/>
<text xml:space="preserve" text-anchor="middle" x="1496.93" y="-495.82" font-family="Helvetica,sans-Serif" font-size="10.00">alpha_seed_wr_addr</text>
<text xml:space="preserve" text-anchor="middle" x="1496.93" y="-483.82" font-family="Helvetica,sans-Serif" font-size="10.00">DUMMY_FWD: 0</text>
<text xml:space="preserve" text-anchor="middle" x="1496.93" y="-471.82" font-family="Helvetica,sans-Serif" font-size="10.00">FWD_SEEDS: work_win_idx+1</text>
</g>
<!-- work_win&#45;&gt;alpha_wr -->
<g id="edge11" class="edge">
<title>work_win&#45;&gt;alpha_wr</title>
<path fill="none" stroke="#475569" stroke-width="1.1" d="M765.81,-271.75C780.93,-279.31 794.95,-286.32 794.95,-286.32 794.95,-286.32 811.95,-353.32 811.95,-353.32 811.95,-353.32 1228.6,-434.95 1411.52,-470.78"/>
<polygon fill="#475569" stroke="#475569" stroke-width="1.1" points="1410.81,-473.14 1418.15,-472.08 1411.75,-468.33 1410.81,-473.14"/>
</g>
<!-- alpha_rd -->
<g id="node13" class="node">
<title>alpha_rd</title>
<path fill="#fffbeb" stroke="#334155" d="M1573.5,-337.64C1573.5,-337.64 1420.35,-337.64 1420.35,-337.64 1414.35,-337.64 1408.35,-331.64 1408.35,-325.64 1408.35,-325.64 1408.35,-305 1408.35,-305 1408.35,-299 1414.35,-293 1420.35,-293 1420.35,-293 1573.5,-293 1573.5,-293 1579.5,-293 1585.5,-299 1585.5,-305 1585.5,-305 1585.5,-325.64 1585.5,-325.64 1585.5,-331.64 1579.5,-337.64 1573.5,-337.64"/>
<text xml:space="preserve" text-anchor="middle" x="1496.93" y="-323.82" font-family="Helvetica,sans-Serif" font-size="10.00">alpha_seed_rd_addr</text>
<text xml:space="preserve" text-anchor="middle" x="1496.93" y="-311.82" font-family="Helvetica,sans-Serif" font-size="10.00">PREP_WINDOW or DUMMY_BWD:</text>
<text xml:space="preserve" text-anchor="middle" x="1496.93" y="-299.82" font-family="Helvetica,sans-Serif" font-size="10.00">work_win_idx</text>
</g>
<!-- work_win&#45;&gt;alpha_rd -->
<g id="edge12" class="edge">
<title>work_win&#45;&gt;alpha_rd</title>
<path fill="none" stroke="#475569" stroke-width="1.1" d="M768.51,-271.43C789.88,-281.22 811.95,-291.32 811.95,-291.32 811.95,-291.32 1244.6,-312.32 1244.6,-312.32 1244.6,-312.32 1328.58,-313.32 1399.45,-314.17"/>
<polygon fill="#475569" stroke="#475569" stroke-width="1.1" points="1399.33,-316.62 1406.36,-314.25 1399.39,-311.72 1399.33,-316.62"/>
</g>
<!-- work_local -->
<g id="node7" class="node">
<title>work_local</title>
<path fill="#f8fbff" stroke="#334155" d="M763.28,-206.32C763.28,-206.32 692.63,-206.32 692.63,-206.32 686.63,-206.32 680.63,-200.32 680.63,-194.32 680.63,-194.32 680.63,-182.32 680.63,-182.32 680.63,-176.32 686.63,-170.32 692.63,-170.32 692.63,-170.32 763.28,-170.32 763.28,-170.32 769.28,-170.32 775.28,-176.32 775.28,-182.32 775.28,-182.32 775.28,-194.32 775.28,-194.32 775.28,-200.32 769.28,-206.32 763.28,-206.32"/>
<text xml:space="preserve" text-anchor="middle" x="727.95" y="-190.82" font-family="Helvetica,sans-Serif" font-size="10.00">work_local_idx</text>
<text xml:space="preserve" text-anchor="middle" x="727.95" y="-178.82" font-family="Helvetica,sans-Serif" font-size="10.00">pair inside window</text>
</g>
<!-- work_local&#45;&gt;global_pair -->
<g id="edge14" class="edge">
<title>work_local&#45;&gt;global_pair</title>
<path fill="none" stroke="#475569" stroke-width="1.1" d="M775.4,-192.33C829.67,-197.02 921.44,-204.95 995.3,-211.33"/>
<polygon fill="#475569" stroke="#475569" stroke-width="1.1" points="994.91,-213.76 1002.1,-211.92 995.33,-208.88 994.91,-213.76"/>
</g>
<!-- work_local&#45;&gt;frame_addr -->
<g id="edge10" class="edge">
<title>work_local&#45;&gt;frame_addr</title>
<path fill="none" stroke="#475569" stroke-width="1.1" d="M770.45,-206.82C791.2,-216.07 811.95,-225.32 811.95,-225.32 811.95,-225.32 996.2,-278.32 996.2,-278.32 996.2,-278.32 1227.6,-341.32 1227.6,-341.32 1227.6,-341.32 1244.6,-347.32 1244.6,-347.32 1244.6,-347.32 1296.45,-358.46 1353.05,-370.62"/>
<polygon fill="#475569" stroke="#475569" stroke-width="1.1" points="1352.45,-373 1359.81,-372.07 1353.48,-368.21 1352.45,-373"/>
</g>
<!-- win_pairs&#45;&gt;work_local -->
<g id="edge16" class="edge">
<title>win_pairs&#45;&gt;work_local</title>
<path fill="none" stroke="#475569" stroke-width="1.1" d="M1010.08,-152.88C992.22,-152.26 979.2,-151.82 979.2,-151.82 979.2,-151.82 811.95,-151.82 811.95,-151.82 811.95,-151.82 796.31,-158.7 778.61,-166.48"/>
<polygon fill="#475569" stroke="#475569" stroke-width="1.1" points="777.88,-164.13 772.46,-169.19 779.85,-168.61 777.88,-164.13"/>
<text xml:space="preserve" text-anchor="middle" x="895.58" y="-153.77" font-family="Helvetica,sans-Serif" font-size="9.00">LOCAL_FWD / LOCAL_BWD boundaries</text>
</g>
<!-- next_win_pairs&#45;&gt;work_local -->
<g id="edge15" class="edge">
<title>next_win_pairs&#45;&gt;work_local</title>
<path fill="none" stroke="#475569" stroke-width="1.1" d="M1004.66,-106.42C918.73,-118.64 811.95,-133.82 811.95,-133.82 811.95,-133.82 786.85,-150.3 764.26,-165.13"/>
<polygon fill="#475569" stroke="#475569" stroke-width="1.1" points="762.95,-163.06 758.44,-168.95 765.64,-167.16 762.95,-163.06"/>
<text xml:space="preserve" text-anchor="middle" x="895.58" y="-135.77" font-family="Helvetica,sans-Serif" font-size="9.00">PREP_WINDOW sets last pair of Wm+1</text>
</g>
<!-- global_pair&#45;&gt;frame_addr -->
<g id="edge19" class="edge">
<title>global_pair&#45;&gt;frame_addr</title>
<path fill="none" stroke="#2563eb" stroke-width="1.1" stroke-dasharray="5,2" d="M1150.77,-239.81C1184.18,-256.12 1227.6,-277.32 1227.6,-277.32 1227.6,-277.32 1336.85,-333.82 1336.85,-333.82 1336.85,-333.82 1353.85,-352.32 1353.85,-352.32 1353.85,-352.32 1368,-357.2 1387.36,-363.88"/>
<polygon fill="#2563eb" stroke="#2563eb" stroke-width="1.1" points="1386.34,-366.12 1393.75,-366.08 1387.93,-361.48 1386.34,-366.12"/>
<text xml:space="preserve" text-anchor="middle" x="1290.73" y="-335.77" font-family="Helvetica,sans-Serif" font-size="9.00">same base expression</text>
</g>
<!-- note0 -->
<g id="node14" class="node">
<title>note0</title>
<polygon fill="#fefce8" stroke="#eab308" points="1210.98,-44.64 1006.83,-44.64 1006.83,0 1216.98,0 1216.98,-38.64 1210.98,-44.64"/>
<polyline fill="none" stroke="#eab308" points="1210.98,-44.64 1210.98,-38.64"/>
<polyline fill="none" stroke="#eab308" points="1216.98,-38.64 1210.98,-38.64"/>
<text xml:space="preserve" text-anchor="middle" x="1111.9" y="-30.82" font-family="Helvetica,sans-Serif" font-size="10.00">The controller manages two address spaces:</text>
<text xml:space="preserve" text-anchor="middle" x="1111.9" y="-18.82" font-family="Helvetica,sans-Serif" font-size="10.00">1. pair&#45;memory addresses</text>
<text xml:space="preserve" text-anchor="middle" x="1111.9" y="-6.82" font-family="Helvetica,sans-Serif" font-size="10.00">2. window alpha&#45;seed addresses</text>
</g>
<!-- note0&#45;&gt;alpha_rd -->
<g id="edge20" class="edge">
<title>note0&#45;&gt;alpha_rd</title>
<path fill="none" stroke="#a16207" stroke-width="1.1" stroke-dasharray="1,5" d="M1185.54,-45.12C1208.3,-52.26 1227.6,-58.32 1227.6,-58.32 1227.6,-58.32 1406.44,-229.62 1472.11,-292.51"/>
</g>
</g>
</svg>
