<?xml version="1.0" encoding="UTF-8" standalone="no"?>
<!DOCTYPE svg PUBLIC "-//W3C//DTD SVG 1.1//EN"
 "http://www.w3.org/Graphics/SVG/1.1/DTD/svg11.dtd">
<!-- Generated by graphviz version 14.1.2 (0)
 -->
<!-- Title: G Pages: 1 -->
<svg width="1045pt" height="186pt"
 viewBox="0.00 0.00 1045.00 186.00" xmlns="http://www.w3.org/2000/svg" xmlns:xlink="http://www.w3.org/1999/xlink">
<g id="graph0" class="graph" transform="scale(1 1) rotate(0) translate(4 182.25)">
<title>G</title>
<polygon fill="white" stroke="none" points="-4,4 -4,-182.25 1040.5,-182.25 1040.5,4 -4,4"/>
<text xml:space="preserve" text-anchor="middle" x="518.25" y="-155.25" font-family="Helvetica,sans-Serif" font-size="20.00">siso_maxlogmap &#45; Index and Address Control (Updated)</text>
<!-- setup -->
<g id="node1" class="node">
<title>setup</title>
<path fill="#d0e0e3" stroke="#555555" d="M12,-55.5C12,-55.5 188.25,-55.5 188.25,-55.5 194.25,-55.5 200.25,-61.5 200.25,-67.5 200.25,-67.5 200.25,-79.5 200.25,-79.5 200.25,-85.5 194.25,-91.5 188.25,-91.5 188.25,-91.5 12,-91.5 12,-91.5 6,-91.5 0,-85.5 0,-79.5 0,-79.5 0,-67.5 0,-67.5 0,-61.5 6,-55.5 12,-55.5"/>
<text xml:space="preserve" text-anchor="middle" x="46.62" y="-70.05" font-family="Helvetica,sans-Serif" font-size="11.00">Setup Registers</text>
<polyline fill="none" stroke="#555555" points="93.25,-56 93.25,-91.5"/>
<text xml:space="preserve" text-anchor="middle" x="120.38" y="-70.05" font-family="Helvetica,sans-Serif" font-size="11.00">pair_cnt</text>
<polyline fill="none" stroke="#555555" points="147.5,-56 147.5,-91.5"/>
<text xml:space="preserve" text-anchor="middle" x="173.88" y="-70.05" font-family="Helvetica,sans-Serif" font-size="11.00">win_cnt</text>
</g>
<!-- idx -->
<g id="node2" class="node">
<title>idx</title>
<path fill="#fff2cc" stroke="#555555" d="M248.25,-55.5C248.25,-55.5 556.75,-55.5 556.75,-55.5 562.75,-55.5 568.75,-61.5 568.75,-67.5 568.75,-67.5 568.75,-79.5 568.75,-79.5 568.75,-85.5 562.75,-91.5 556.75,-91.5 556.75,-91.5 248.25,-91.5 248.25,-91.5 242.25,-91.5 236.25,-85.5 236.25,-79.5 236.25,-79.5 236.25,-67.5 236.25,-67.5 236.25,-61.5 242.25,-55.5 248.25,-55.5"/>
<text xml:space="preserve" text-anchor="middle" x="290.75" y="-70.05" font-family="Helvetica,sans-Serif" font-size="11.00">Traversal Registers</text>
<polyline fill="none" stroke="#555555" points="345.25,-56 345.25,-91.5"/>
<text xml:space="preserve" text-anchor="middle" x="373.12" y="-70.05" font-family="Helvetica,sans-Serif" font-size="11.00">load_idx</text>
<polyline fill="none" stroke="#555555" points="401,-56 401,-91.5"/>
<text xml:space="preserve" text-anchor="middle" x="441.62" y="-70.05" font-family="Helvetica,sans-Serif" font-size="11.00">work_win_idx</text>
<polyline fill="none" stroke="#555555" points="482.25,-56 482.25,-91.5"/>
<text xml:space="preserve" text-anchor="middle" x="525.5" y="-70.05" font-family="Helvetica,sans-Serif" font-size="11.00">work_local_idx</text>
</g>
<!-- setup&#45;&gt;idx -->
<g id="edge1" class="edge">
<title>setup&#45;&gt;idx</title>
<path fill="none" stroke="black" d="M200.73,-73.5C208.45,-73.5 216.37,-73.5 224.39,-73.5"/>
<polygon fill="black" stroke="black" points="224.29,-77 234.29,-73.5 224.29,-70 224.29,-77"/>
</g>
<!-- addr0 -->
<g id="node3" class="node">
<title>addr0</title>
<path fill="#d9ead3" stroke="#555555" d="M631.75,-110.5C631.75,-110.5 1009.5,-110.5 1009.5,-110.5 1015.5,-110.5 1021.5,-116.5 1021.5,-122.5 1021.5,-122.5 1021.5,-134.5 1021.5,-134.5 1021.5,-140.5 1015.5,-146.5 1009.5,-146.5 1009.5,-146.5 631.75,-146.5 631.75,-146.5 625.75,-146.5 619.75,-140.5 619.75,-134.5 619.75,-134.5 619.75,-122.5 619.75,-122.5 619.75,-116.5 625.75,-110.5 631.75,-110.5"/>
<text xml:space="preserve" text-anchor="middle" x="699.38" y="-125.05" font-family="Helvetica,sans-Serif" font-size="11.00">Current Window Pair Address</text>
<polyline fill="none" stroke="#555555" points="779,-111 779,-146.5"/>
<text xml:space="preserve" text-anchor="middle" x="900.25" y="-125.05" font-family="Helvetica,sans-Serif" font-size="11.00">work_win_idx * C_PAIR_WIN + work_local_idx</text>
</g>
<!-- idx&#45;&gt;addr0 -->
<g id="edge2" class="edge">
<title>idx&#45;&gt;addr0</title>
<path fill="none" stroke="black" d="M534.46,-91.98C557.86,-95.2 582.02,-98.49 604.75,-101.5 622.34,-103.83 640.76,-106.22 659.08,-108.56"/>
<polygon fill="black" stroke="black" points="658.61,-112.03 668.98,-109.83 659.5,-105.09 658.61,-112.03"/>
</g>
<!-- addr1 -->
<g id="node4" class="node">
<title>addr1</title>
<path fill="#f4cccc" stroke="#555555" d="M616.75,-55.5C616.75,-55.5 1024.5,-55.5 1024.5,-55.5 1030.5,-55.5 1036.5,-61.5 1036.5,-67.5 1036.5,-67.5 1036.5,-79.5 1036.5,-79.5 1036.5,-85.5 1030.5,-91.5 1024.5,-91.5 1024.5,-91.5 616.75,-91.5 616.75,-91.5 610.75,-91.5 604.75,-85.5 604.75,-79.5 604.75,-79.5 604.75,-67.5 604.75,-67.5 604.75,-61.5 610.75,-55.5 616.75,-55.5"/>
<text xml:space="preserve" text-anchor="middle" x="686.25" y="-70.05" font-family="Helvetica,sans-Serif" font-size="11.00">Next Window Dummy Address</text>
<polyline fill="none" stroke="#555555" points="767.75,-56 767.75,-91.5"/>
<text xml:space="preserve" text-anchor="middle" x="902.12" y="-70.05" font-family="Helvetica,sans-Serif" font-size="11.00">(work_win_idx + 1) * C_PAIR_WIN + work_local_idx</text>
</g>
<!-- idx&#45;&gt;addr1 -->
<g id="edge3" class="edge">
<title>idx&#45;&gt;addr1</title>
<path fill="none" stroke="black" d="M569.16,-73.5C577.09,-73.5 585.11,-73.5 593.17,-73.5"/>
<polygon fill="black" stroke="black" points="593.07,-77 603.07,-73.5 593.07,-70 593.07,-77"/>
</g>
<!-- outidx -->
<g id="node5" class="node">
<title>outidx</title>
<path fill="#fce5cd" stroke="#555555" d="M661.38,-0.5C661.38,-0.5 979.88,-0.5 979.88,-0.5 985.88,-0.5 991.88,-6.5 991.88,-12.5 991.88,-12.5 991.88,-24.5 991.88,-24.5 991.88,-30.5 985.88,-36.5 979.88,-36.5 979.88,-36.5 661.38,-36.5 661.38,-36.5 655.38,-36.5 649.38,-30.5 649.38,-24.5 649.38,-24.5 649.38,-12.5 649.38,-12.5 649.38,-6.5 655.38,-0.5 661.38,-0.5"/>
<text xml:space="preserve" text-anchor="middle" x="699.38" y="-15.05" font-family="Helvetica,sans-Serif" font-size="11.00">Output Pair Index</text>
<polyline fill="none" stroke="#555555" points="749.38,-1 749.38,-36.5"/>
<text xml:space="preserve" text-anchor="middle" x="870.62" y="-15.05" font-family="Helvetica,sans-Serif" font-size="11.00">work_win_idx * C_PAIR_WIN + work_local_idx</text>
</g>
<!-- idx&#45;&gt;outidx -->
<g id="edge4" class="edge">
<title>idx&#45;&gt;outidx</title>
<path fill="none" stroke="black" d="M540.71,-55.02C562.14,-52.16 584.04,-49.24 604.75,-46.5 624.5,-43.89 645.27,-41.16 665.79,-38.47"/>
<polygon fill="black" stroke="black" points="666.2,-41.95 675.66,-37.18 665.29,-35.01 666.2,-41.95"/>
</g>
</g>
</svg>
