<?xml version="1.0" encoding="UTF-8" standalone="no"?>
<!DOCTYPE svg PUBLIC "-//W3C//DTD SVG 1.1//EN"
 "http://www.w3.org/Graphics/SVG/1.1/DTD/svg11.dtd">
<!-- Generated by graphviz version 14.1.2 (0)
 -->
<!-- Title: siso_state_actions Pages: 1 -->
<svg width="727pt" height="1593pt"
 viewBox="0.00 0.00 727.00 1593.00" xmlns="http://www.w3.org/2000/svg" xmlns:xlink="http://www.w3.org/1999/xlink">
<g id="graph0" class="graph" transform="scale(1 1) rotate(0) translate(14.4 1578.33)">
<title>siso_state_actions</title>
<polygon fill="white" stroke="none" points="-14.4,14.4 -14.4,-1578.33 712.4,-1578.33 712.4,14.4 -14.4,14.4"/>
<text xml:space="preserve" text-anchor="middle" x="349" y="-1546.63" font-family="Helvetica,sans-Serif" font-size="14.00">siso_maxlogmap State&#45;Action Control Decode</text>
<!-- defaults -->
<g id="node1" class="node">
<title>defaults</title>
<path fill="#fffbeb" stroke="#334155" d="M329.95,-1540.18C329.95,-1540.18 236.05,-1540.18 236.05,-1540.18 230.05,-1540.18 224.05,-1534.18 224.05,-1528.18 224.05,-1528.18 224.05,-1483.54 224.05,-1483.54 224.05,-1477.54 230.05,-1471.54 236.05,-1471.54 236.05,-1471.54 329.95,-1471.54 329.95,-1471.54 335.95,-1471.54 341.95,-1477.54 341.95,-1483.54 341.95,-1483.54 341.95,-1528.18 341.95,-1528.18 341.95,-1534.18 335.95,-1540.18 329.95,-1540.18"/>
<text xml:space="preserve" text-anchor="middle" x="283" y="-1526.36" font-family="Helvetica,sans-Serif" font-size="10.00">Every active cycle first:</text>
<text xml:space="preserve" text-anchor="middle" x="283" y="-1514.36" font-family="Helvetica,sans-Serif" font-size="10.00">out_valid_q&lt;=0</text>
<text xml:space="preserve" text-anchor="middle" x="283" y="-1502.36" font-family="Helvetica,sans-Serif" font-size="10.00">done_q&lt;=0</text>
<text xml:space="preserve" text-anchor="middle" x="283" y="-1490.36" font-family="Helvetica,sans-Serif" font-size="10.00">alpha_seed_rd_en&lt;=0</text>
<text xml:space="preserve" text-anchor="middle" x="283" y="-1478.36" font-family="Helvetica,sans-Serif" font-size="10.00">alpha_seed_wr_en&lt;=0</text>
</g>
<!-- idle -->
<g id="node2" class="node">
<title>idle</title>
<path fill="#f8fbff" stroke="#334155" d="M641.7,-1430.54C641.7,-1430.54 486.3,-1430.54 486.3,-1430.54 480.3,-1430.54 474.3,-1424.54 474.3,-1418.54 474.3,-1418.54 474.3,-1373.9 474.3,-1373.9 474.3,-1367.9 480.3,-1361.9 486.3,-1361.9 486.3,-1361.9 641.7,-1361.9 641.7,-1361.9 647.7,-1361.9 653.7,-1367.9 653.7,-1373.9 653.7,-1373.9 653.7,-1418.54 653.7,-1418.54 653.7,-1424.54 647.7,-1430.54 641.7,-1430.54"/>
<text xml:space="preserve" text-anchor="middle" x="564" y="-1416.72" font-family="Helvetica,sans-Serif" font-size="10.00">IDLE</text>
<text xml:space="preserve" text-anchor="middle" x="564" y="-1404.72" font-family="Helvetica,sans-Serif" font-size="10.00">&#45; wait for start</text>
<text xml:space="preserve" text-anchor="middle" x="564" y="-1392.72" font-family="Helvetica,sans-Serif" font-size="10.00">&#45; compute seg_bits_i/pair_cnt/win_cnt</text>
<text xml:space="preserve" text-anchor="middle" x="564" y="-1380.72" font-family="Helvetica,sans-Serif" font-size="10.00">&#45; load_idx&lt;=0</text>
<text xml:space="preserve" text-anchor="middle" x="564" y="-1368.72" font-family="Helvetica,sans-Serif" font-size="10.00">&#45; empty segment can pulse done</text>
</g>
<!-- defaults&#45;&gt;idle -->
<g id="edge1" class="edge">
<title>defaults&#45;&gt;idle</title>
<path fill="none" stroke="#2563eb" stroke-width="1.1" stroke-dasharray="5,2" d="M342.19,-1486.51C391.95,-1471.09 455,-1451.54 455,-1451.54 455,-1451.54 469.84,-1444.14 488.57,-1434.81"/>
<polygon fill="#2563eb" stroke="#2563eb" stroke-width="1.1" points="489.55,-1437.06 494.72,-1431.75 487.36,-1432.68 489.55,-1437.06"/>
</g>
<!-- load -->
<g id="node3" class="node">
<title>load</title>
<path fill="#f8fbff" stroke="#334155" d="M597.45,-1311.4C597.45,-1311.4 434.55,-1311.4 434.55,-1311.4 428.55,-1311.4 422.55,-1305.4 422.55,-1299.4 422.55,-1299.4 422.55,-1242.76 422.55,-1242.76 422.55,-1236.76 428.55,-1230.76 434.55,-1230.76 434.55,-1230.76 597.45,-1230.76 597.45,-1230.76 603.45,-1230.76 609.45,-1236.76 609.45,-1242.76 609.45,-1242.76 609.45,-1299.4 609.45,-1299.4 609.45,-1305.4 603.45,-1311.4 597.45,-1311.4"/>
<text xml:space="preserve" text-anchor="middle" x="516" y="-1297.58" font-family="Helvetica,sans-Serif" font-size="10.00">LOAD</text>
<text xml:space="preserve" text-anchor="middle" x="516" y="-1285.58" font-family="Helvetica,sans-Serif" font-size="10.00">&#45; if in_valid: write segment memories</text>
<text xml:space="preserve" text-anchor="middle" x="516" y="-1273.58" font-family="Helvetica,sans-Serif" font-size="10.00">&#45; if last pair: alpha_work&lt;=start_seed_v</text>
<text xml:space="preserve" text-anchor="middle" x="516" y="-1261.58" font-family="Helvetica,sans-Serif" font-size="10.00"> &#160;work_local_idx&lt;=0</text>
<text xml:space="preserve" text-anchor="middle" x="516" y="-1249.58" font-family="Helvetica,sans-Serif" font-size="10.00"> &#160;st&lt;=DUMMY_FWD</text>
<text xml:space="preserve" text-anchor="middle" x="516" y="-1237.58" font-family="Helvetica,sans-Serif" font-size="10.00">&#45; else load_idx++</text>
</g>
<!-- defaults&#45;&gt;load -->
<g id="edge2" class="edge">
<title>defaults&#45;&gt;load</title>
<path fill="none" stroke="#2563eb" stroke-width="1.1" stroke-dasharray="5,2" d="M342.44,-1478.67C373.04,-1465.18 404,-1451.54 404,-1451.54 404,-1451.54 453.67,-1371.95 486.85,-1318.78"/>
<polygon fill="#2563eb" stroke="#2563eb" stroke-width="1.1" points="488.91,-1320.11 490.54,-1312.88 484.76,-1317.52 488.91,-1320.11"/>
</g>
<!-- dummy_fwd -->
<g id="node4" class="node">
<title>dummy_fwd</title>
<path fill="#f8fbff" stroke="#334155" d="M504.08,-1180.26C504.08,-1180.26 383.93,-1180.26 383.93,-1180.26 377.93,-1180.26 371.93,-1174.26 371.93,-1168.26 371.93,-1168.26 371.93,-1075.62 371.93,-1075.62 371.93,-1069.62 377.93,-1063.62 383.93,-1063.62 383.93,-1063.62 504.08,-1063.62 504.08,-1063.62 510.08,-1063.62 516.08,-1069.62 516.08,-1075.62 516.08,-1075.62 516.08,-1168.26 516.08,-1168.26 516.08,-1174.26 510.08,-1180.26 504.08,-1180.26"/>
<text xml:space="preserve" text-anchor="middle" x="444" y="-1166.44" font-family="Helvetica,sans-Serif" font-size="10.00">DUMMY_FWD</text>
<text xml:space="preserve" text-anchor="middle" x="444" y="-1154.44" font-family="Helvetica,sans-Serif" font-size="10.00">&#45; frame_read_valid=1</text>
<text xml:space="preserve" text-anchor="middle" x="444" y="-1142.44" font-family="Helvetica,sans-Serif" font-size="10.00">&#45; ACS forward</text>
<text xml:space="preserve" text-anchor="middle" x="444" y="-1130.44" font-family="Helvetica,sans-Serif" font-size="10.00">&#45; if last pair of W0:</text>
<text xml:space="preserve" text-anchor="middle" x="444" y="-1118.44" font-family="Helvetica,sans-Serif" font-size="10.00"> &#160;alpha_seed_wr_en=1</text>
<text xml:space="preserve" text-anchor="middle" x="444" y="-1106.44" font-family="Helvetica,sans-Serif" font-size="10.00"> &#160;wr_addr=0</text>
<text xml:space="preserve" text-anchor="middle" x="444" y="-1094.44" font-family="Helvetica,sans-Serif" font-size="10.00"> &#160;wr_data=pack(start_seed_v)</text>
<text xml:space="preserve" text-anchor="middle" x="444" y="-1082.44" font-family="Helvetica,sans-Serif" font-size="10.00"> &#160;reset work_win/local</text>
<text xml:space="preserve" text-anchor="middle" x="444" y="-1070.44" font-family="Helvetica,sans-Serif" font-size="10.00"> &#160;st&lt;=FWD_SEEDS</text>
</g>
<!-- defaults&#45;&gt;dummy_fwd -->
<g id="edge3" class="edge">
<title>defaults&#45;&gt;dummy_fwd</title>
<path fill="none" stroke="#2563eb" stroke-width="1.1" stroke-dasharray="5,2" d="M327.33,-1471.09C341.22,-1460.51 353,-1451.54 353,-1451.54 353,-1451.54 410,-1230.76 410,-1230.76 410,-1230.76 416.18,-1211.17 423.27,-1188.68"/>
<polygon fill="#2563eb" stroke="#2563eb" stroke-width="1.1" points="425.54,-1189.64 425.3,-1182.23 420.86,-1188.16 425.54,-1189.64"/>
</g>
<!-- fwd_seeds -->
<g id="node5" class="node">
<title>fwd_seeds</title>
<path fill="#f8fbff" stroke="#334155" d="M449.2,-1013.12C449.2,-1013.12 332.8,-1013.12 332.8,-1013.12 326.8,-1013.12 320.8,-1007.12 320.8,-1001.12 320.8,-1001.12 320.8,-944.48 320.8,-944.48 320.8,-938.48 326.8,-932.48 332.8,-932.48 332.8,-932.48 449.2,-932.48 449.2,-932.48 455.2,-932.48 461.2,-938.48 461.2,-944.48 461.2,-944.48 461.2,-1001.12 461.2,-1001.12 461.2,-1007.12 455.2,-1013.12 449.2,-1013.12"/>
<text xml:space="preserve" text-anchor="middle" x="391" y="-999.3" font-family="Helvetica,sans-Serif" font-size="10.00">FWD_SEEDS</text>
<text xml:space="preserve" text-anchor="middle" x="391" y="-987.3" font-family="Helvetica,sans-Serif" font-size="10.00">&#45; frame_read_valid=1</text>
<text xml:space="preserve" text-anchor="middle" x="391" y="-975.3" font-family="Helvetica,sans-Serif" font-size="10.00">&#45; ACS forward</text>
<text xml:space="preserve" text-anchor="middle" x="391" y="-963.3" font-family="Helvetica,sans-Serif" font-size="10.00">&#45; if end of window:</text>
<text xml:space="preserve" text-anchor="middle" x="391" y="-951.3" font-family="Helvetica,sans-Serif" font-size="10.00"> &#160;either write next alpha seed</text>
<text xml:space="preserve" text-anchor="middle" x="391" y="-939.3" font-family="Helvetica,sans-Serif" font-size="10.00"> &#160;or st&lt;=PREP_WINDOW</text>
</g>
<!-- defaults&#45;&gt;fwd_seeds -->
<g id="edge4" class="edge">
<title>defaults&#45;&gt;fwd_seeds</title>
<path fill="none" stroke="#2563eb" stroke-width="1.1" stroke-dasharray="5,2" d="M299,-1471.1C313.95,-1439.53 334,-1397.22 334,-1397.22 334,-1397.22 334,-1397.22 334,-1120.94 334,-1120.94 355.89,-1064.45 372.53,-1021.47"/>
<polygon fill="#2563eb" stroke="#2563eb" stroke-width="1.1" points="374.73,-1022.58 374.97,-1015.17 370.16,-1020.81 374.73,-1022.58"/>
</g>
<!-- prep -->
<g id="node6" class="node">
<title>prep</title>
<path fill="#f8fbff" stroke="#334155" d="M459.45,-881.98C459.45,-881.98 308.55,-881.98 308.55,-881.98 302.55,-881.98 296.55,-875.98 296.55,-869.98 296.55,-869.98 296.55,-765.34 296.55,-765.34 296.55,-759.34 302.55,-753.34 308.55,-753.34 308.55,-753.34 459.45,-753.34 459.45,-753.34 465.45,-753.34 471.45,-759.34 471.45,-765.34 471.45,-765.34 471.45,-869.98 471.45,-869.98 471.45,-875.98 465.45,-881.98 459.45,-881.98"/>
<text xml:space="preserve" text-anchor="middle" x="384" y="-868.16" font-family="Helvetica,sans-Serif" font-size="10.00">PREP_WINDOW</text>
<text xml:space="preserve" text-anchor="middle" x="384" y="-856.16" font-family="Helvetica,sans-Serif" font-size="10.00">&#45; if interior window:</text>
<text xml:space="preserve" text-anchor="middle" x="384" y="-844.16" font-family="Helvetica,sans-Serif" font-size="10.00"> &#160;work_local_idx&lt;=last pair of Wm+1</text>
<text xml:space="preserve" text-anchor="middle" x="384" y="-832.16" font-family="Helvetica,sans-Serif" font-size="10.00"> &#160;beta_work&lt;=uniform</text>
<text xml:space="preserve" text-anchor="middle" x="384" y="-820.16" font-family="Helvetica,sans-Serif" font-size="10.00"> &#160;st&lt;=DUMMY_BWD</text>
<text xml:space="preserve" text-anchor="middle" x="384" y="-808.16" font-family="Helvetica,sans-Serif" font-size="10.00">&#45; else:</text>
<text xml:space="preserve" text-anchor="middle" x="384" y="-796.16" font-family="Helvetica,sans-Serif" font-size="10.00"> &#160;beta_seed_reg&lt;=end_seed_v</text>
<text xml:space="preserve" text-anchor="middle" x="384" y="-784.16" font-family="Helvetica,sans-Serif" font-size="10.00"> &#160;alpha_seed_rd_en=1</text>
<text xml:space="preserve" text-anchor="middle" x="384" y="-772.16" font-family="Helvetica,sans-Serif" font-size="10.00"> &#160;rd_addr=work_win_idx</text>
<text xml:space="preserve" text-anchor="middle" x="384" y="-760.16" font-family="Helvetica,sans-Serif" font-size="10.00"> &#160;st&lt;=LOAD_ALPHA_WAIT</text>
</g>
<!-- defaults&#45;&gt;prep -->
<g id="edge5" class="edge">
<title>defaults&#45;&gt;prep</title>
<path fill="none" stroke="#2563eb" stroke-width="1.1" stroke-dasharray="5,2" d="M283,-1471.1C283,-1439.53 283,-1397.22 283,-1397.22 283,-1397.22 283,-1397.22 283,-971.8 283,-971.8 308,-932.48 308,-932.48 308,-932.48 321.38,-912.45 336.91,-889.19"/>
<polygon fill="#2563eb" stroke="#2563eb" stroke-width="1.1" points="338.78,-890.79 340.63,-883.61 334.71,-888.07 338.78,-890.79"/>
</g>
<!-- dummy_bwd -->
<g id="node7" class="node">
<title>dummy_bwd</title>
<path fill="#f8fbff" stroke="#334155" d="M559.7,-702.84C559.7,-702.84 434.3,-702.84 434.3,-702.84 428.3,-702.84 422.3,-696.84 422.3,-690.84 422.3,-690.84 422.3,-610.2 422.3,-610.2 422.3,-604.2 428.3,-598.2 434.3,-598.2 434.3,-598.2 559.7,-598.2 559.7,-598.2 565.7,-598.2 571.7,-604.2 571.7,-610.2 571.7,-610.2 571.7,-690.84 571.7,-690.84 571.7,-696.84 565.7,-702.84 559.7,-702.84"/>
<text xml:space="preserve" text-anchor="middle" x="497" y="-689.02" font-family="Helvetica,sans-Serif" font-size="10.00">DUMMY_BWD</text>
<text xml:space="preserve" text-anchor="middle" x="497" y="-677.02" font-family="Helvetica,sans-Serif" font-size="10.00">&#45; frame_read_valid=1</text>
<text xml:space="preserve" text-anchor="middle" x="497" y="-665.02" font-family="Helvetica,sans-Serif" font-size="10.00">&#45; ACS backward</text>
<text xml:space="preserve" text-anchor="middle" x="497" y="-653.02" font-family="Helvetica,sans-Serif" font-size="10.00">&#45; if last backward step:</text>
<text xml:space="preserve" text-anchor="middle" x="497" y="-641.02" font-family="Helvetica,sans-Serif" font-size="10.00"> &#160;beta_seed_reg&lt;=beta_next_v</text>
<text xml:space="preserve" text-anchor="middle" x="497" y="-629.02" font-family="Helvetica,sans-Serif" font-size="10.00"> &#160;alpha_seed_rd_en=1</text>
<text xml:space="preserve" text-anchor="middle" x="497" y="-617.02" font-family="Helvetica,sans-Serif" font-size="10.00"> &#160;rd_addr=work_win_idx</text>
<text xml:space="preserve" text-anchor="middle" x="497" y="-605.02" font-family="Helvetica,sans-Serif" font-size="10.00"> &#160;st&lt;=LOAD_ALPHA_WAIT</text>
</g>
<!-- defaults&#45;&gt;dummy_bwd -->
<g id="edge6" class="edge">
<title>defaults&#45;&gt;dummy_bwd</title>
<path fill="none" stroke="#2563eb" stroke-width="1.1" stroke-dasharray="5,2" d="M342.42,-1493.33C450,-1472.45 666,-1430.54 666,-1430.54 666,-1430.54 698,-1397.22 698,-1397.22 698,-1397.22 698,-1397.22 698,-816.66 698,-816.66 624.75,-756.48 566.69,-708.77"/>
<polygon fill="#2563eb" stroke="#2563eb" stroke-width="1.1" points="568.3,-706.93 561.33,-704.38 565.19,-710.71 568.3,-706.93"/>
</g>
<!-- load_wait -->
<g id="node8" class="node">
<title>load_wait</title>
<path fill="#f8fbff" stroke="#334155" d="M328.2,-547.7C328.2,-547.7 235.8,-547.7 235.8,-547.7 229.8,-547.7 223.8,-541.7 223.8,-535.7 223.8,-535.7 223.8,-503.06 223.8,-503.06 223.8,-497.06 229.8,-491.06 235.8,-491.06 235.8,-491.06 328.2,-491.06 328.2,-491.06 334.2,-491.06 340.2,-497.06 340.2,-503.06 340.2,-503.06 340.2,-535.7 340.2,-535.7 340.2,-541.7 334.2,-547.7 328.2,-547.7"/>
<text xml:space="preserve" text-anchor="middle" x="282" y="-533.88" font-family="Helvetica,sans-Serif" font-size="10.00">LOAD_ALPHA_WAIT</text>
<text xml:space="preserve" text-anchor="middle" x="282" y="-521.88" font-family="Helvetica,sans-Serif" font-size="10.00">&#45; no datapath update</text>
<text xml:space="preserve" text-anchor="middle" x="282" y="-509.88" font-family="Helvetica,sans-Serif" font-size="10.00">&#45; absorb BRAM latency</text>
<text xml:space="preserve" text-anchor="middle" x="282" y="-497.88" font-family="Helvetica,sans-Serif" font-size="10.00">&#45; st&lt;=LOAD_ALPHA</text>
</g>
<!-- defaults&#45;&gt;load_wait -->
<g id="edge7" class="edge">
<title>defaults&#45;&gt;load_wait</title>
<path fill="none" stroke="#2563eb" stroke-width="1.1" stroke-dasharray="5,2" d="M267,-1471.1C252.05,-1439.53 232,-1397.22 232,-1397.22 232,-1397.22 232,-1397.22 232,-649.52 232,-649.52 253.43,-594.18 268.23,-555.96"/>
<polygon fill="#2563eb" stroke="#2563eb" stroke-width="1.1" points="270.43,-557.05 270.67,-549.64 265.86,-555.28 270.43,-557.05"/>
</g>
<!-- load_alpha -->
<g id="node9" class="node">
<title>load_alpha</title>
<path fill="#f8fbff" stroke="#334155" d="M334.2,-440.56C334.2,-440.56 151.8,-440.56 151.8,-440.56 145.8,-440.56 139.8,-434.56 139.8,-428.56 139.8,-428.56 139.8,-407.92 139.8,-407.92 139.8,-401.92 145.8,-395.92 151.8,-395.92 151.8,-395.92 334.2,-395.92 334.2,-395.92 340.2,-395.92 346.2,-401.92 346.2,-407.92 346.2,-407.92 346.2,-428.56 346.2,-428.56 346.2,-434.56 340.2,-440.56 334.2,-440.56"/>
<text xml:space="preserve" text-anchor="middle" x="243" y="-426.74" font-family="Helvetica,sans-Serif" font-size="10.00">LOAD_ALPHA</text>
<text xml:space="preserve" text-anchor="middle" x="243" y="-414.74" font-family="Helvetica,sans-Serif" font-size="10.00">&#45; alpha_work&lt;=unpack(alpha_seed_rd_data)</text>
<text xml:space="preserve" text-anchor="middle" x="243" y="-402.74" font-family="Helvetica,sans-Serif" font-size="10.00">&#45; st&lt;=LOCAL_FWD</text>
</g>
<!-- defaults&#45;&gt;load_alpha -->
<g id="edge8" class="edge">
<title>defaults&#45;&gt;load_alpha</title>
<path fill="none" stroke="#2563eb" stroke-width="1.1" stroke-dasharray="5,2" d="M251.01,-1471.1C221.09,-1439.53 181,-1397.22 181,-1397.22 181,-1397.22 181,-1397.22 181,-518.38 181,-518.38 206.76,-477.19 225.07,-447.91"/>
<polygon fill="#2563eb" stroke="#2563eb" stroke-width="1.1" points="227.03,-449.4 228.66,-442.16 222.88,-446.8 227.03,-449.4"/>
</g>
<!-- local_fwd -->
<g id="node10" class="node">
<title>local_fwd</title>
<path fill="#f8fbff" stroke="#334155" d="M325.2,-354.92C325.2,-354.92 136.8,-354.92 136.8,-354.92 130.8,-354.92 124.8,-348.92 124.8,-342.92 124.8,-342.92 124.8,-262.28 124.8,-262.28 124.8,-256.28 130.8,-250.28 136.8,-250.28 136.8,-250.28 325.2,-250.28 325.2,-250.28 331.2,-250.28 337.2,-256.28 337.2,-262.28 337.2,-262.28 337.2,-342.92 337.2,-342.92 337.2,-348.92 331.2,-354.92 325.2,-354.92"/>
<text xml:space="preserve" text-anchor="middle" x="231" y="-341.1" font-family="Helvetica,sans-Serif" font-size="10.00">LOCAL_FWD</text>
<text xml:space="preserve" text-anchor="middle" x="231" y="-329.1" font-family="Helvetica,sans-Serif" font-size="10.00">&#45; frame_read_valid=1</text>
<text xml:space="preserve" text-anchor="middle" x="231" y="-317.1" font-family="Helvetica,sans-Serif" font-size="10.00">&#45; write local alpha/gamma/sys/par/apri buffers</text>
<text xml:space="preserve" text-anchor="middle" x="231" y="-305.1" font-family="Helvetica,sans-Serif" font-size="10.00">&#45; ACS forward</text>
<text xml:space="preserve" text-anchor="middle" x="231" y="-293.1" font-family="Helvetica,sans-Serif" font-size="10.00">&#45; if last pair:</text>
<text xml:space="preserve" text-anchor="middle" x="231" y="-281.1" font-family="Helvetica,sans-Serif" font-size="10.00"> &#160;beta_work&lt;=beta_seed_reg</text>
<text xml:space="preserve" text-anchor="middle" x="231" y="-269.1" font-family="Helvetica,sans-Serif" font-size="10.00"> &#160;work_local_idx&lt;=last local pair</text>
<text xml:space="preserve" text-anchor="middle" x="231" y="-257.1" font-family="Helvetica,sans-Serif" font-size="10.00"> &#160;st&lt;=LOCAL_BWD</text>
</g>
<!-- defaults&#45;&gt;local_fwd -->
<g id="edge9" class="edge">
<title>defaults&#45;&gt;local_fwd</title>
<path fill="none" stroke="#2563eb" stroke-width="1.1" stroke-dasharray="5,2" d="M226.23,-1471.1C173.15,-1439.53 102,-1397.22 102,-1397.22 102,-1397.22 102,-1397.22 102,-417.24 102,-417.24 134,-389.05 166.12,-360.75"/>
<polygon fill="#2563eb" stroke="#2563eb" stroke-width="1.1" points="167.66,-362.67 171.29,-356.2 164.42,-358.99 167.66,-362.67"/>
</g>
<!-- local_bwd -->
<g id="node11" class="node">
<title>local_bwd</title>
<path fill="#f8fbff" stroke="#334155" d="M378.7,-199.78C378.7,-199.78 253.3,-199.78 253.3,-199.78 247.3,-199.78 241.3,-193.78 241.3,-187.78 241.3,-187.78 241.3,-107.14 241.3,-107.14 241.3,-101.14 247.3,-95.14 253.3,-95.14 253.3,-95.14 378.7,-95.14 378.7,-95.14 384.7,-95.14 390.7,-101.14 390.7,-107.14 390.7,-107.14 390.7,-187.78 390.7,-187.78 390.7,-193.78 384.7,-199.78 378.7,-199.78"/>
<text xml:space="preserve" text-anchor="middle" x="316" y="-185.96" font-family="Helvetica,sans-Serif" font-size="10.00">LOCAL_BWD</text>
<text xml:space="preserve" text-anchor="middle" x="316" y="-173.96" font-family="Helvetica,sans-Serif" font-size="10.00">&#45; extract_pair</text>
<text xml:space="preserve" text-anchor="middle" x="316" y="-161.96" font-family="Helvetica,sans-Serif" font-size="10.00">&#45; out_valid_q&lt;=1</text>
<text xml:space="preserve" text-anchor="middle" x="316" y="-149.96" font-family="Helvetica,sans-Serif" font-size="10.00">&#45; out_pair_idx_q&lt;=global_pair_i</text>
<text xml:space="preserve" text-anchor="middle" x="316" y="-137.96" font-family="Helvetica,sans-Serif" font-size="10.00">&#45; ACS backward</text>
<text xml:space="preserve" text-anchor="middle" x="316" y="-125.96" font-family="Helvetica,sans-Serif" font-size="10.00">&#45; if work_local_idx=0:</text>
<text xml:space="preserve" text-anchor="middle" x="316" y="-113.96" font-family="Helvetica,sans-Serif" font-size="10.00"> &#160;previous window or FINISH</text>
<text xml:space="preserve" text-anchor="middle" x="316" y="-101.96" font-family="Helvetica,sans-Serif" font-size="10.00">&#45; else work_local_idx&#45;&#45;</text>
</g>
<!-- defaults&#45;&gt;local_bwd -->
<g id="edge10" class="edge">
<title>defaults&#45;&gt;local_bwd</title>
<path fill="none" stroke="#2563eb" stroke-width="1.1" stroke-dasharray="5,2" d="M223.58,-1481.24C168.82,-1459.48 96,-1430.54 96,-1430.54 96,-1430.54 51,-1397.22 51,-1397.22 51,-1397.22 51,-1397.22 51,-301.6 51,-301.6 112,-250.28 112,-250.28 112,-250.28 176.79,-217.94 233.35,-189.71"/>
<polygon fill="#2563eb" stroke="#2563eb" stroke-width="1.1" points="234.25,-192 239.42,-186.68 232.06,-187.62 234.25,-192"/>
</g>
<!-- finish -->
<g id="node12" class="node">
<title>finish</title>
<path fill="#f8fbff" stroke="#334155" d="M338.57,-44.64C338.57,-44.64 293.43,-44.64 293.43,-44.64 287.43,-44.64 281.43,-38.64 281.43,-32.64 281.43,-32.64 281.43,-12 281.43,-12 281.43,-6 287.43,0 293.43,0 293.43,0 338.57,0 338.57,0 344.57,0 350.57,-6 350.57,-12 350.57,-12 350.57,-32.64 350.57,-32.64 350.57,-38.64 344.57,-44.64 338.57,-44.64"/>
<text xml:space="preserve" text-anchor="middle" x="316" y="-30.82" font-family="Helvetica,sans-Serif" font-size="10.00">FINISH</text>
<text xml:space="preserve" text-anchor="middle" x="316" y="-18.82" font-family="Helvetica,sans-Serif" font-size="10.00">&#45; done_q&lt;=1</text>
<text xml:space="preserve" text-anchor="middle" x="316" y="-6.82" font-family="Helvetica,sans-Serif" font-size="10.00">&#45; st&lt;=IDLE</text>
</g>
<!-- defaults&#45;&gt;finish -->
<g id="edge11" class="edge">
<title>defaults&#45;&gt;finish</title>
<path fill="none" stroke="#2563eb" stroke-width="1.1" stroke-dasharray="5,2" d="M223.56,-1486.3C153.06,-1464.28 45,-1430.54 45,-1430.54 45,-1430.54 0,-1397.22 0,-1397.22 0,-1397.22 0,-1397.22 0,-146.46 0,-146.46 186.48,-73.79 272.93,-40.1"/>
<polygon fill="#2563eb" stroke="#2563eb" stroke-width="1.1" points="273.79,-42.4 279.42,-37.57 272.01,-37.83 273.79,-42.4"/>
</g>
<!-- idle&#45;&gt;load -->
<g id="edge12" class="edge">
<title>idle&#45;&gt;load</title>
<path fill="none" stroke="#475569" stroke-width="1.1" d="M550.88,-1361.57C545.87,-1348.71 540.06,-1333.79 534.63,-1319.87"/>
<polygon fill="#475569" stroke="#475569" stroke-width="1.1" points="536.91,-1318.99 532.09,-1313.36 532.35,-1320.77 536.91,-1318.99"/>
<text xml:space="preserve" text-anchor="middle" x="567.25" y="-1333.35" font-family="Helvetica,sans-Serif" font-size="9.00">normal path</text>
</g>
<!-- load&#45;&gt;dummy_fwd -->
<g id="edge13" class="edge">
<title>load&#45;&gt;dummy_fwd</title>
<path fill="none" stroke="#475569" stroke-width="1.1" d="M496.52,-1230.26C490.17,-1217.29 482.94,-1202.53 475.93,-1188.19"/>
<polygon fill="#475569" stroke="#475569" stroke-width="1.1" points="478.3,-1187.45 473.02,-1182.24 473.9,-1189.61 478.3,-1187.45"/>
<text xml:space="preserve" text-anchor="middle" x="528.07" y="-1202.21" font-family="Helvetica,sans-Serif" font-size="9.00">after last loaded pair</text>
</g>
<!-- dummy_fwd&#45;&gt;fwd_seeds -->
<g id="edge14" class="edge">
<title>dummy_fwd&#45;&gt;fwd_seeds</title>
<path fill="none" stroke="#475569" stroke-width="1.1" d="M423.21,-1063.21C418.21,-1049.34 412.93,-1034.68 408.12,-1021.34"/>
<polygon fill="#475569" stroke="#475569" stroke-width="1.1" points="410.44,-1020.54 405.76,-1014.79 405.83,-1022.2 410.44,-1020.54"/>
<text xml:space="preserve" text-anchor="middle" x="432.79" y="-1035.07" font-family="Helvetica,sans-Serif" font-size="9.00">after W0</text>
</g>
<!-- fwd_seeds&#45;&gt;prep -->
<g id="edge15" class="edge">
<title>fwd_seeds&#45;&gt;prep</title>
<path fill="none" stroke="#475569" stroke-width="1.1" d="M389.2,-932.36C388.61,-919.62 387.95,-905.07 387.29,-890.73"/>
<polygon fill="#475569" stroke="#475569" stroke-width="1.1" points="389.75,-890.87 386.99,-883.99 384.86,-891.09 389.75,-890.87"/>
<text xml:space="preserve" text-anchor="middle" x="433.13" y="-903.93" font-family="Helvetica,sans-Serif" font-size="9.00">after global seed pass</text>
</g>
<!-- prep&#45;&gt;dummy_bwd -->
<g id="edge16" class="edge">
<title>prep&#45;&gt;dummy_bwd</title>
<path fill="none" stroke="#475569" stroke-width="1.1" d="M427.37,-753.28C437.1,-739.06 447.39,-724.03 456.98,-710.01"/>
<polygon fill="#475569" stroke="#475569" stroke-width="1.1" points="458.75,-711.75 460.68,-704.59 454.71,-708.99 458.75,-711.75"/>
<text xml:space="preserve" text-anchor="middle" x="478.39" y="-724.79" font-family="Helvetica,sans-Serif" font-size="9.00">interior window</text>
</g>
<!-- prep&#45;&gt;load_wait -->
<g id="edge17" class="edge">
<title>prep&#45;&gt;load_wait</title>
<path fill="none" stroke="#475569" stroke-width="1.1" d="M346.58,-753.09C331.24,-727.02 317,-702.84 317,-702.84 317,-702.84 299.15,-609.78 288.94,-556.58"/>
<polygon fill="#475569" stroke="#475569" stroke-width="1.1" points="291.35,-556.14 287.63,-549.73 286.54,-557.06 291.35,-556.14"/>
<text xml:space="preserve" text-anchor="middle" x="341" y="-647.22" font-family="Helvetica,sans-Serif" font-size="9.00">last window</text>
</g>
<!-- dummy_bwd&#45;&gt;load_wait -->
<g id="edge18" class="edge">
<title>dummy_bwd&#45;&gt;load_wait</title>
<path fill="none" stroke="#475569" stroke-width="1.1" d="M421.8,-604.35C393.25,-587.2 361.34,-568.03 335.22,-552.35"/>
<polygon fill="#475569" stroke="#475569" stroke-width="1.1" points="336.71,-550.38 329.44,-548.88 334.18,-554.58 336.71,-550.38"/>
<text xml:space="preserve" text-anchor="middle" x="409.63" y="-569.65" font-family="Helvetica,sans-Serif" font-size="9.00">beta seed ready</text>
</g>
<!-- load_wait&#45;&gt;load_alpha -->
<g id="edge19" class="edge">
<title>load_wait&#45;&gt;load_alpha</title>
<path fill="none" stroke="#475569" stroke-width="1.1" d="M271.14,-490.76C266.02,-477.76 259.91,-462.24 254.7,-448.98"/>
<polygon fill="#475569" stroke="#475569" stroke-width="1.1" points="257.04,-448.23 252.19,-442.61 252.48,-450.02 257.04,-448.23"/>
</g>
<!-- load_alpha&#45;&gt;local_fwd -->
<g id="edge20" class="edge">
<title>load_alpha&#45;&gt;local_fwd</title>
<path fill="none" stroke="#475569" stroke-width="1.1" d="M240.71,-395.6C239.74,-386.37 238.55,-375.11 237.34,-363.67"/>
<polygon fill="#475569" stroke="#475569" stroke-width="1.1" points="239.81,-363.7 236.64,-356.99 234.94,-364.21 239.81,-363.7"/>
</g>
<!-- local_fwd&#45;&gt;local_bwd -->
<g id="edge21" class="edge">
<title>local_fwd&#45;&gt;local_bwd</title>
<path fill="none" stroke="#475569" stroke-width="1.1" d="M247.47,-249.78C252.63,-233.54 257,-219.78 257,-219.78 257,-219.78 261.53,-214.31 268.08,-206.39"/>
<polygon fill="#475569" stroke="#475569" stroke-width="1.1" points="269.8,-208.15 272.37,-201.2 266.02,-205.03 269.8,-208.15"/>
<text xml:space="preserve" text-anchor="middle" x="306.5" y="-221.73" font-family="Helvetica,sans-Serif" font-size="9.00">window replay complete</text>
</g>
<!-- local_bwd&#45;&gt;prep -->
<g id="edge22" class="edge">
<title>local_bwd&#45;&gt;prep</title>
<path fill="none" stroke="#475569" stroke-width="1.1" d="M346.3,-199.91C352.92,-211.16 358,-219.78 358,-219.78 358,-219.78 384,-464.81 384,-464.81 384,-651.52 384,-651.52 384,-651.52 384,-651.52 384,-700.23 384,-744.75"/>
<polygon fill="#475569" stroke="#475569" stroke-width="1.1" points="381.55,-744.62 384,-751.62 386.45,-744.62 381.55,-744.62"/>
<text xml:space="preserve" text-anchor="middle" x="413.62" y="-462.51" font-family="Helvetica,sans-Serif" font-size="9.00">more windows</text>
</g>
<!-- local_bwd&#45;&gt;finish -->
<g id="edge23" class="edge">
<title>local_bwd&#45;&gt;finish</title>
<path fill="none" stroke="#475569" stroke-width="1.1" d="M316,-94.95C316,-80.84 316,-66.01 316,-53.53"/>
<polygon fill="#475569" stroke="#475569" stroke-width="1.1" points="318.45,-53.56 316,-46.56 313.55,-53.56 318.45,-53.56"/>
<text xml:space="preserve" text-anchor="middle" x="359.88" y="-66.59" font-family="Helvetica,sans-Serif" font-size="9.00">first window complete</text>
</g>
<!-- finish&#45;&gt;idle -->
<g id="edge24" class="edge">
<title>finish&#45;&gt;idle</title>
<path fill="none" stroke="#475569" stroke-width="1.1" d="M350.8,-36.27C435.78,-67.88 647,-146.46 647,-146.46 647,-1272.08 647,-1272.08 647,-1272.08 647,-1272.08 622,-1311.4 622,-1311.4 622,-1311.4 606.85,-1333.3 592.04,-1354.7"/>
<polygon fill="#475569" stroke="#475569" stroke-width="1.1" points="590.17,-1353.09 588.2,-1360.24 594.2,-1355.88 590.17,-1353.09"/>
</g>
<!-- note0 -->
<g id="node13" class="node">
<title>note0</title>
<polygon fill="#fef2f2" stroke="#f87171" points="602.58,-320.6 413.43,-320.6 413.43,-284.6 608.58,-284.6 608.58,-314.6 602.58,-320.6"/>
<polyline fill="none" stroke="#f87171" points="602.58,-320.6 602.58,-314.6"/>
<polyline fill="none" stroke="#f87171" points="608.58,-314.6 602.58,-314.6"/>
<text xml:space="preserve" text-anchor="middle" x="511" y="-305.1" font-family="Helvetica,sans-Serif" font-size="10.00">This figure is the state&#45;to&#45;actions decode,</text>
<text xml:space="preserve" text-anchor="middle" x="511" y="-293.1" font-family="Helvetica,sans-Serif" font-size="10.00">not only the state transition graph.</text>
</g>
<!-- note0&#45;&gt;local_bwd -->
<g id="edge25" class="edge">
<title>note0&#45;&gt;local_bwd</title>
<path fill="none" stroke="#dc2626" stroke-width="1.1" stroke-dasharray="1,5" d="M489.01,-284.33C463.11,-263.99 418.9,-229.27 381.66,-200.02"/>
</g>
</g>
</svg>
