<?xml version="1.0" encoding="UTF-8" standalone="no"?>
<!DOCTYPE svg PUBLIC "-//W3C//DTD SVG 1.1//EN"
 "http://www.w3.org/Graphics/SVG/1.1/DTD/svg11.dtd">
<!-- Generated by graphviz version 14.1.2 (0)
 -->
<!-- Title: siso_control_overview Pages: 1 -->
<svg width="1647pt" height="407pt"
 viewBox="0.00 0.00 1647.00 407.00" xmlns="http://www.w3.org/2000/svg" xmlns:xlink="http://www.w3.org/1999/xlink">
<g id="graph0" class="graph" transform="scale(1 1) rotate(0) translate(14.4 392.15)">
<title>siso_control_overview</title>
<polygon fill="white" stroke="none" points="-14.4,14.4 -14.4,-392.15 1632.9,-392.15 1632.9,14.4 -14.4,14.4"/>
<text xml:space="preserve" text-anchor="middle" x="809.25" y="-360.45" font-family="Helvetica,sans-Serif" font-size="14.00">siso_maxlogmap Internal Control Functional Units</text>
<g id="clust1" class="cluster">
<title>cluster_setup</title>
<path fill="white" stroke="#93c5fd" d="M130.9,-109C130.9,-109 351.8,-109 351.8,-109 357.8,-109 363.8,-115 363.8,-121 363.8,-121 363.8,-279 363.8,-279 363.8,-285 357.8,-291 351.8,-291 351.8,-291 130.9,-291 130.9,-291 124.9,-291 118.9,-285 118.9,-279 118.9,-279 118.9,-121 118.9,-121 118.9,-115 124.9,-109 130.9,-109"/>
<text xml:space="preserve" text-anchor="middle" x="241.35" y="-273.7" font-family="Helvetica,sans-Serif" font-size="14.00">Setup / Boundary Control</text>
</g>
<g id="clust2" class="cluster">
<title>cluster_core</title>
<path fill="white" stroke="#bfdbfe" d="M540.68,-177C540.68,-177 1073.1,-177 1073.1,-177 1079.1,-177 1085.1,-183 1085.1,-189 1085.1,-189 1085.1,-326 1085.1,-326 1085.1,-332 1079.1,-338 1073.1,-338 1073.1,-338 540.68,-338 540.68,-338 534.68,-338 528.68,-332 528.68,-326 528.68,-326 528.68,-189 528.68,-189 528.68,-183 534.68,-177 540.68,-177"/>
<text xml:space="preserve" text-anchor="middle" x="806.89" y="-320.7" font-family="Helvetica,sans-Serif" font-size="14.00">Core Control</text>
</g>
<g id="clust3" class="cluster">
<title>cluster_addr</title>
<path fill="white" stroke="#a7f3d0" d="M1276.6,-124C1276.6,-124 1442.6,-124 1442.6,-124 1448.6,-124 1454.6,-130 1454.6,-136 1454.6,-136 1454.6,-334 1454.6,-334 1454.6,-340 1448.6,-346 1442.6,-346 1442.6,-346 1276.6,-346 1276.6,-346 1270.6,-346 1264.6,-340 1264.6,-334 1264.6,-334 1264.6,-136 1264.6,-136 1264.6,-130 1270.6,-124 1276.6,-124"/>
<text xml:space="preserve" text-anchor="middle" x="1359.6" y="-328.7" font-family="Helvetica,sans-Serif" font-size="14.00">Address / Enable Generation</text>
</g>
<g id="clust4" class="cluster">
<title>cluster_pulse</title>
<path fill="white" stroke="#fcd34d" d="M942.2,-8C942.2,-8 1420.05,-8 1420.05,-8 1426.05,-8 1432.05,-14 1432.05,-20 1432.05,-20 1432.05,-104 1432.05,-104 1432.05,-110 1426.05,-116 1420.05,-116 1420.05,-116 942.2,-116 942.2,-116 936.2,-116 930.2,-110 930.2,-104 930.2,-104 930.2,-20 930.2,-20 930.2,-14 936.2,-8 942.2,-8"/>
<text xml:space="preserve" text-anchor="middle" x="1181.13" y="-98.7" font-family="Helvetica,sans-Serif" font-size="14.00">Pulse / Output Control</text>
</g>
<!-- ctrl_in -->
<g id="node1" class="node">
<title>ctrl_in</title>
<path fill="#f8fafc" stroke="#334155" d="M63.9,-233.32C63.9,-233.32 12,-233.32 12,-233.32 6,-233.32 0,-227.32 0,-221.32 0,-221.32 0,-152.68 0,-152.68 0,-146.68 6,-140.68 12,-140.68 12,-140.68 63.9,-140.68 63.9,-140.68 69.9,-140.68 75.9,-146.68 75.9,-152.68 75.9,-152.68 75.9,-221.32 75.9,-221.32 75.9,-227.32 69.9,-233.32 63.9,-233.32"/>
<text xml:space="preserve" text-anchor="middle" x="37.95" y="-219.5" font-family="Helvetica,sans-Serif" font-size="10.00">Control Inputs</text>
<text xml:space="preserve" text-anchor="middle" x="37.95" y="-207.5" font-family="Helvetica,sans-Serif" font-size="10.00">start</text>
<text xml:space="preserve" text-anchor="middle" x="37.95" y="-195.5" font-family="Helvetica,sans-Serif" font-size="10.00">seg_first</text>
<text xml:space="preserve" text-anchor="middle" x="37.95" y="-183.5" font-family="Helvetica,sans-Serif" font-size="10.00">seg_last</text>
<text xml:space="preserve" text-anchor="middle" x="37.95" y="-171.5" font-family="Helvetica,sans-Serif" font-size="10.00">seg_len</text>
<text xml:space="preserve" text-anchor="middle" x="37.95" y="-159.5" font-family="Helvetica,sans-Serif" font-size="10.00">in_valid</text>
<text xml:space="preserve" text-anchor="middle" x="37.95" y="-147.5" font-family="Helvetica,sans-Serif" font-size="10.00">in_pair_idx</text>
</g>
<!-- seg_setup -->
<g id="node3" class="node">
<title>seg_setup</title>
<path fill="#eff6ff" stroke="#334155" d="M343.8,-259.32C343.8,-259.32 138.9,-259.32 138.9,-259.32 132.9,-259.32 126.9,-253.32 126.9,-247.32 126.9,-247.32 126.9,-214.68 126.9,-214.68 126.9,-208.68 132.9,-202.68 138.9,-202.68 138.9,-202.68 343.8,-202.68 343.8,-202.68 349.8,-202.68 355.8,-208.68 355.8,-214.68 355.8,-214.68 355.8,-247.32 355.8,-247.32 355.8,-253.32 349.8,-259.32 343.8,-259.32"/>
<text xml:space="preserve" text-anchor="middle" x="241.35" y="-245.5" font-family="Helvetica,sans-Serif" font-size="10.00">Segment Setup Unit</text>
<text xml:space="preserve" text-anchor="middle" x="241.35" y="-233.5" font-family="Helvetica,sans-Serif" font-size="10.00">clamp seg_len</text>
<text xml:space="preserve" text-anchor="middle" x="241.35" y="-221.5" font-family="Helvetica,sans-Serif" font-size="10.00">pair_cnt=(seg_bits+1)/2</text>
<text xml:space="preserve" text-anchor="middle" x="241.35" y="-209.5" font-family="Helvetica,sans-Serif" font-size="10.00">win_cnt=(seg_bits+C_WINDOW&#45;1)/C_WINDOW</text>
</g>
<!-- ctrl_in&#45;&gt;seg_setup -->
<g id="edge1" class="edge">
<title>ctrl_in&#45;&gt;seg_setup</title>
<path fill="none" stroke="#475569" stroke-width="1.1" d="M76.36,-195.17C88.65,-197.86 103.04,-201 118.12,-204.3"/>
<polygon fill="#475569" stroke="#475569" stroke-width="1.1" points="117.57,-206.68 124.93,-205.78 118.61,-201.9 117.57,-206.68"/>
</g>
<!-- boundary -->
<g id="node4" class="node">
<title>boundary</title>
<path fill="#eff6ff" stroke="#334155" d="M307.05,-173.32C307.05,-173.32 175.65,-173.32 175.65,-173.32 169.65,-173.32 163.65,-167.32 163.65,-161.32 163.65,-161.32 163.65,-128.68 163.65,-128.68 163.65,-122.68 169.65,-116.68 175.65,-116.68 175.65,-116.68 307.05,-116.68 307.05,-116.68 313.05,-116.68 319.05,-122.68 319.05,-128.68 319.05,-128.68 319.05,-161.32 319.05,-161.32 319.05,-167.32 313.05,-173.32 307.05,-173.32"/>
<text xml:space="preserve" text-anchor="middle" x="241.35" y="-159.5" font-family="Helvetica,sans-Serif" font-size="10.00">Boundary Seed Selector</text>
<text xml:space="preserve" text-anchor="middle" x="241.35" y="-147.5" font-family="Helvetica,sans-Serif" font-size="10.00">start_seed_v</text>
<text xml:space="preserve" text-anchor="middle" x="241.35" y="-135.5" font-family="Helvetica,sans-Serif" font-size="10.00">end_seed_v</text>
<text xml:space="preserve" text-anchor="middle" x="241.35" y="-123.5" font-family="Helvetica,sans-Serif" font-size="10.00">uniform_state / terminated_state</text>
</g>
<!-- ctrl_in&#45;&gt;boundary -->
<g id="edge2" class="edge">
<title>ctrl_in&#45;&gt;boundary</title>
<path fill="none" stroke="#475569" stroke-width="1.1" d="M76.36,-179.2C98.52,-174.58 127.57,-168.52 155.05,-162.79"/>
<polygon fill="#475569" stroke="#475569" stroke-width="1.1" points="155.53,-165.19 161.88,-161.36 154.53,-160.39 155.53,-165.19"/>
</g>
<!-- ctrl_out -->
<g id="node2" class="node">
<title>ctrl_out</title>
<path fill="#f8fafc" stroke="#334155" d="M1606.5,-259.32C1606.5,-259.32 1509.6,-259.32 1509.6,-259.32 1503.6,-259.32 1497.6,-253.32 1497.6,-247.32 1497.6,-247.32 1497.6,-190.68 1497.6,-190.68 1497.6,-184.68 1503.6,-178.68 1509.6,-178.68 1509.6,-178.68 1606.5,-178.68 1606.5,-178.68 1612.5,-178.68 1618.5,-184.68 1618.5,-190.68 1618.5,-190.68 1618.5,-247.32 1618.5,-247.32 1618.5,-253.32 1612.5,-259.32 1606.5,-259.32"/>
<text xml:space="preserve" text-anchor="middle" x="1558.05" y="-245.5" font-family="Helvetica,sans-Serif" font-size="10.00">Controlled Endpoints</text>
<text xml:space="preserve" text-anchor="middle" x="1558.05" y="-233.5" font-family="Helvetica,sans-Serif" font-size="10.00">frame memory reads</text>
<text xml:space="preserve" text-anchor="middle" x="1558.05" y="-221.5" font-family="Helvetica,sans-Serif" font-size="10.00">segment memory writes</text>
<text xml:space="preserve" text-anchor="middle" x="1558.05" y="-209.5" font-family="Helvetica,sans-Serif" font-size="10.00">alpha_seed BRAM rd/wr</text>
<text xml:space="preserve" text-anchor="middle" x="1558.05" y="-197.5" font-family="Helvetica,sans-Serif" font-size="10.00">local buffer writes</text>
<text xml:space="preserve" text-anchor="middle" x="1558.05" y="-185.5" font-family="Helvetica,sans-Serif" font-size="10.00">out_valid_q / done_q</text>
</g>
<!-- fsm -->
<g id="node5" class="node">
<title>fsm</title>
<path fill="#f8fbff" stroke="#334155" d="M632.08,-221C632.08,-221 554.68,-221 554.68,-221 548.68,-221 542.68,-215 542.68,-209 542.68,-209 542.68,-197 542.68,-197 542.68,-191 548.68,-185 554.68,-185 554.68,-185 632.08,-185 632.08,-185 638.08,-185 644.08,-191 644.08,-197 644.08,-197 644.08,-209 644.08,-209 644.08,-215 638.08,-221 632.08,-221"/>
<text xml:space="preserve" text-anchor="middle" x="593.38" y="-205.5" font-family="Helvetica,sans-Serif" font-size="10.00">FSM State Register</text>
<text xml:space="preserve" text-anchor="middle" x="593.38" y="-193.5" font-family="Helvetica,sans-Serif" font-size="10.00">st</text>
</g>
<!-- seg_setup&#45;&gt;fsm -->
<g id="edge3" class="edge">
<title>seg_setup&#45;&gt;fsm</title>
<path fill="none" stroke="#475569" stroke-width="1.1" d="M355.99,-221.91C415.31,-217.16 485.4,-211.56 533.78,-207.69"/>
<polygon fill="#475569" stroke="#475569" stroke-width="1.1" points="533.8,-210.14 540.59,-207.14 533.41,-205.26 533.8,-210.14"/>
<text xml:space="preserve" text-anchor="middle" x="423.55" y="-221.46" font-family="Helvetica,sans-Serif" font-size="9.00">start setup</text>
</g>
<!-- loop_regs -->
<g id="node6" class="node">
<title>loop_regs</title>
<path fill="#f8fbff" stroke="#334155" d="M638.08,-306.32C638.08,-306.32 548.68,-306.32 548.68,-306.32 542.68,-306.32 536.68,-300.32 536.68,-294.32 536.68,-294.32 536.68,-261.68 536.68,-261.68 536.68,-255.68 542.68,-249.68 548.68,-249.68 548.68,-249.68 638.08,-249.68 638.08,-249.68 644.08,-249.68 650.08,-255.68 650.08,-261.68 650.08,-261.68 650.08,-294.32 650.08,-294.32 650.08,-300.32 644.08,-306.32 638.08,-306.32"/>
<text xml:space="preserve" text-anchor="middle" x="593.38" y="-292.5" font-family="Helvetica,sans-Serif" font-size="10.00">Loop / Index Registers</text>
<text xml:space="preserve" text-anchor="middle" x="593.38" y="-280.5" font-family="Helvetica,sans-Serif" font-size="10.00">load_idx</text>
<text xml:space="preserve" text-anchor="middle" x="593.38" y="-268.5" font-family="Helvetica,sans-Serif" font-size="10.00">work_win_idx</text>
<text xml:space="preserve" text-anchor="middle" x="593.38" y="-256.5" font-family="Helvetica,sans-Serif" font-size="10.00">work_local_idx</text>
</g>
<!-- seg_setup&#45;&gt;loop_regs -->
<g id="edge4" class="edge">
<title>seg_setup&#45;&gt;loop_regs</title>
<path fill="none" stroke="#475569" stroke-width="1.1" d="M355.99,-246.26C413.05,-253.92 480.08,-262.92 528.15,-269.38"/>
<polygon fill="#475569" stroke="#475569" stroke-width="1.1" points="527.69,-271.79 534.95,-270.29 528.34,-266.93 527.69,-271.79"/>
<text xml:space="preserve" text-anchor="middle" x="423.55" y="-262.04" font-family="Helvetica,sans-Serif" font-size="9.00">pair_cnt / win_cnt init</text>
</g>
<!-- action_decode -->
<g id="node7" class="node">
<title>action_decode</title>
<path fill="#f8fbff" stroke="#334155" d="M1065.1,-226C1065.1,-226 923.95,-226 923.95,-226 917.95,-226 911.95,-220 911.95,-214 911.95,-214 911.95,-202 911.95,-202 911.95,-196 917.95,-190 923.95,-190 923.95,-190 1065.1,-190 1065.1,-190 1071.1,-190 1077.1,-196 1077.1,-202 1077.1,-202 1077.1,-214 1077.1,-214 1077.1,-220 1071.1,-226 1065.1,-226"/>
<text xml:space="preserve" text-anchor="middle" x="994.53" y="-210.5" font-family="Helvetica,sans-Serif" font-size="10.00">State&#45;Action Decoder</text>
<text xml:space="preserve" text-anchor="middle" x="994.53" y="-198.5" font-family="Helvetica,sans-Serif" font-size="10.00">which state asserts which enables</text>
</g>
<!-- boundary&#45;&gt;action_decode -->
<g id="edge5" class="edge">
<title>boundary&#45;&gt;action_decode</title>
<path fill="none" stroke="#475569" stroke-width="1.1" d="M319.47,-147.64C448.81,-152.06 695.45,-160.5 695.45,-160.5 695.45,-160.5 815.56,-179.64 903.3,-193.62"/>
<polygon fill="#475569" stroke="#475569" stroke-width="1.1" points="902.74,-196.01 910.04,-194.7 903.51,-191.17 902.74,-196.01"/>
<text xml:space="preserve" text-anchor="middle" x="593.38" y="-162.45" font-family="Helvetica,sans-Serif" font-size="9.00">start_seed_v / end_seed_v</text>
</g>
<!-- fsm&#45;&gt;action_decode -->
<g id="edge6" class="edge">
<title>fsm&#45;&gt;action_decode</title>
<path fill="none" stroke="#475569" stroke-width="1.1" d="M644.52,-203.63C709.27,-204.44 823.12,-205.87 903.13,-206.87"/>
<polygon fill="#475569" stroke="#475569" stroke-width="1.1" points="903.05,-209.32 910.08,-206.95 903.11,-204.42 903.05,-209.32"/>
<text xml:space="preserve" text-anchor="middle" x="803.7" y="-208.61" font-family="Helvetica,sans-Serif" font-size="9.00">current state</text>
</g>
<!-- loop_regs&#45;&gt;action_decode -->
<g id="edge7" class="edge">
<title>loop_regs&#45;&gt;action_decode</title>
<path fill="none" stroke="#475569" stroke-width="1.1" d="M650.3,-268.19C715.92,-256.68 825.62,-237.45 903.32,-223.82"/>
<polygon fill="#475569" stroke="#475569" stroke-width="1.1" points="903.57,-226.26 910.05,-222.64 902.73,-221.44 903.57,-226.26"/>
<text xml:space="preserve" text-anchor="middle" x="803.7" y="-257.31" font-family="Helvetica,sans-Serif" font-size="9.00">load_idx / work_win_idx / work_local_idx</text>
</g>
<!-- action_decode&#45;&gt;ctrl_out -->
<g id="edge16" class="edge">
<title>action_decode&#45;&gt;ctrl_out</title>
<path fill="none" stroke="#475569" stroke-width="1.1" d="M1021.05,-226.44C1052.58,-249.22 1102.1,-285 1102.1,-285 1102.1,-285 1264.6,-350 1264.6,-350 1264.6,-350 1454.6,-350 1454.6,-350 1454.6,-350 1490.81,-303.7 1520.18,-266.15"/>
<polygon fill="#475569" stroke="#475569" stroke-width="1.1" points="1521.79,-268.07 1524.17,-261.04 1517.93,-265.05 1521.79,-268.07"/>
</g>
<!-- frame_sel -->
<g id="node8" class="node">
<title>frame_sel</title>
<path fill="#f0fdf4" stroke="#334155" d="M1400.8,-314.32C1400.8,-314.32 1317.4,-314.32 1317.4,-314.32 1311.4,-314.32 1305.4,-308.32 1305.4,-302.32 1305.4,-302.32 1305.4,-281.68 1305.4,-281.68 1305.4,-275.68 1311.4,-269.68 1317.4,-269.68 1317.4,-269.68 1400.8,-269.68 1400.8,-269.68 1406.8,-269.68 1412.8,-275.68 1412.8,-281.68 1412.8,-281.68 1412.8,-302.32 1412.8,-302.32 1412.8,-308.32 1406.8,-314.32 1400.8,-314.32"/>
<text xml:space="preserve" text-anchor="middle" x="1359.1" y="-300.5" font-family="Helvetica,sans-Serif" font-size="10.00">Frame Read Selector</text>
<text xml:space="preserve" text-anchor="middle" x="1359.1" y="-288.5" font-family="Helvetica,sans-Serif" font-size="10.00">frame_read_valid_v</text>
<text xml:space="preserve" text-anchor="middle" x="1359.1" y="-276.5" font-family="Helvetica,sans-Serif" font-size="10.00">frame_read_idx_v</text>
</g>
<!-- action_decode&#45;&gt;frame_sel -->
<g id="edge8" class="edge">
<title>action_decode&#45;&gt;frame_sel</title>
<path fill="none" stroke="#475569" stroke-width="1.1" d="M1065.72,-226.44C1085.67,-231.68 1102.1,-236 1102.1,-236 1102.1,-236 1221.23,-262.06 1296.96,-278.63"/>
<polygon fill="#475569" stroke="#475569" stroke-width="1.1" points="1296.07,-280.94 1303.43,-280.04 1297.12,-276.15 1296.07,-280.94"/>
<text xml:space="preserve" text-anchor="middle" x="1174.85" y="-269.3" font-family="Helvetica,sans-Serif" font-size="9.00">state&#45;dependent read policy</text>
</g>
<!-- win_len -->
<g id="node9" class="node">
<title>win_len</title>
<path fill="#f0fdf4" stroke="#334155" d="M1395.18,-241C1395.18,-241 1323.03,-241 1323.03,-241 1317.03,-241 1311.03,-235 1311.03,-229 1311.03,-229 1311.03,-217 1311.03,-217 1311.03,-211 1317.03,-205 1323.03,-205 1323.03,-205 1395.18,-205 1395.18,-205 1401.18,-205 1407.18,-211 1407.18,-217 1407.18,-217 1407.18,-229 1407.18,-229 1407.18,-235 1401.18,-241 1395.18,-241"/>
<text xml:space="preserve" text-anchor="middle" x="1359.1" y="-225.5" font-family="Helvetica,sans-Serif" font-size="10.00">window_pairs_for()</text>
<text xml:space="preserve" text-anchor="middle" x="1359.1" y="-213.5" font-family="Helvetica,sans-Serif" font-size="10.00">window pair count</text>
</g>
<!-- action_decode&#45;&gt;win_len -->
<g id="edge9" class="edge">
<title>action_decode&#45;&gt;win_len</title>
<path fill="none" stroke="#475569" stroke-width="1.1" d="M1077.35,-211.38C1145.93,-214.22 1242.01,-218.2 1302.12,-220.68"/>
<polygon fill="#475569" stroke="#475569" stroke-width="1.1" points="1301.96,-223.13 1309.06,-220.97 1302.16,-218.23 1301.96,-223.13"/>
<text xml:space="preserve" text-anchor="middle" x="1174.85" y="-220.1" font-family="Helvetica,sans-Serif" font-size="9.00">window traversal decisions</text>
</g>
<!-- alpha_ctrl -->
<g id="node10" class="node">
<title>alpha_ctrl</title>
<path fill="#f0fdf4" stroke="#334155" d="M1418.05,-176.32C1418.05,-176.32 1300.15,-176.32 1300.15,-176.32 1294.15,-176.32 1288.15,-170.32 1288.15,-164.32 1288.15,-164.32 1288.15,-143.68 1288.15,-143.68 1288.15,-137.68 1294.15,-131.68 1300.15,-131.68 1300.15,-131.68 1418.05,-131.68 1418.05,-131.68 1424.05,-131.68 1430.05,-137.68 1430.05,-143.68 1430.05,-143.68 1430.05,-164.32 1430.05,-164.32 1430.05,-170.32 1424.05,-176.32 1418.05,-176.32"/>
<text xml:space="preserve" text-anchor="middle" x="1359.1" y="-162.5" font-family="Helvetica,sans-Serif" font-size="10.00">Alpha&#45;Seed BRAM Controller</text>
<text xml:space="preserve" text-anchor="middle" x="1359.1" y="-150.5" font-family="Helvetica,sans-Serif" font-size="10.00">rd_en / wr_en</text>
<text xml:space="preserve" text-anchor="middle" x="1359.1" y="-138.5" font-family="Helvetica,sans-Serif" font-size="10.00">rd_addr / wr_addr</text>
</g>
<!-- action_decode&#45;&gt;alpha_ctrl -->
<g id="edge11" class="edge">
<title>action_decode&#45;&gt;alpha_ctrl</title>
<path fill="none" stroke="#475569" stroke-width="1.1" d="M1072.7,-189.54C1089.36,-185.55 1102.1,-182.5 1102.1,-182.5 1102.1,-182.5 1204.02,-171.15 1279.24,-162.78"/>
<polygon fill="#475569" stroke="#475569" stroke-width="1.1" points="1279.47,-165.22 1286.15,-162.01 1278.93,-160.35 1279.47,-165.22"/>
<text xml:space="preserve" text-anchor="middle" x="1174.85" y="-184.45" font-family="Helvetica,sans-Serif" font-size="9.00">BRAM rd/wr pulses</text>
</g>
<!-- out_ctrl -->
<g id="node12" class="node">
<title>out_ctrl</title>
<path fill="#fffbeb" stroke="#334155" d="M1412.05,-84.32C1412.05,-84.32 1306.15,-84.32 1306.15,-84.32 1300.15,-84.32 1294.15,-78.32 1294.15,-72.32 1294.15,-72.32 1294.15,-51.68 1294.15,-51.68 1294.15,-45.68 1300.15,-39.68 1306.15,-39.68 1306.15,-39.68 1412.05,-39.68 1412.05,-39.68 1418.05,-39.68 1424.05,-45.68 1424.05,-51.68 1424.05,-51.68 1424.05,-72.32 1424.05,-72.32 1424.05,-78.32 1418.05,-84.32 1412.05,-84.32"/>
<text xml:space="preserve" text-anchor="middle" x="1359.1" y="-70.5" font-family="Helvetica,sans-Serif" font-size="10.00">Output Pulse Control</text>
<text xml:space="preserve" text-anchor="middle" x="1359.1" y="-58.5" font-family="Helvetica,sans-Serif" font-size="10.00">LOCAL_BWD &#45;&gt; out_valid</text>
<text xml:space="preserve" text-anchor="middle" x="1359.1" y="-46.5" font-family="Helvetica,sans-Serif" font-size="10.00">FINISH &#45;&gt; done</text>
</g>
<!-- action_decode&#45;&gt;out_ctrl -->
<g id="edge13" class="edge">
<title>action_decode&#45;&gt;out_ctrl</title>
<path fill="none" stroke="#475569" stroke-width="1.1" d="M1028.95,-189.65C1060.21,-172.49 1102.1,-149.5 1102.1,-149.5 1102.1,-149.5 1209.99,-112.62 1285.69,-86.75"/>
<polygon fill="#475569" stroke="#475569" stroke-width="1.1" points="1286.42,-89.09 1292.26,-84.51 1284.84,-84.45 1286.42,-89.09"/>
<text xml:space="preserve" text-anchor="middle" x="1174.85" y="-151.45" font-family="Helvetica,sans-Serif" font-size="9.00">LOCAL_BWD / FINISH / zero&#45;length</text>
</g>
<!-- frame_sel&#45;&gt;ctrl_out -->
<g id="edge14" class="edge">
<title>frame_sel&#45;&gt;ctrl_out</title>
<path fill="none" stroke="#475569" stroke-width="1.1" d="M1413.14,-272.34C1436.58,-263.65 1464.42,-253.33 1489.33,-244.1"/>
<polygon fill="#475569" stroke="#475569" stroke-width="1.1" points="1490.04,-246.45 1495.75,-241.72 1488.34,-241.86 1490.04,-246.45"/>
</g>
<!-- win_len&#45;&gt;action_decode -->
<g id="edge10" class="edge">
<title>win_len&#45;&gt;action_decode</title>
<path fill="none" stroke="#475569" stroke-width="1.1" d="M1310.6,-212.9C1280.65,-206.53 1247.6,-199.5 1247.6,-199.5 1247.6,-199.5 1102.1,-199.5 1102.1,-199.5 1102.1,-199.5 1095.62,-200.02 1085.86,-200.8"/>
<polygon fill="#475569" stroke="#475569" stroke-width="1.1" points="1085.82,-198.34 1079.04,-201.34 1086.21,-203.22 1085.82,-198.34"/>
<text xml:space="preserve" text-anchor="middle" x="1174.85" y="-201.45" font-family="Helvetica,sans-Serif" font-size="9.00">win_pair_cnt_v</text>
</g>
<!-- alpha_ctrl&#45;&gt;ctrl_out -->
<g id="edge15" class="edge">
<title>alpha_ctrl&#45;&gt;ctrl_out</title>
<path fill="none" stroke="#475569" stroke-width="1.1" d="M1428.98,-176.73C1448.49,-183.17 1469.71,-190.18 1489.16,-196.59"/>
<polygon fill="#475569" stroke="#475569" stroke-width="1.1" points="1488.38,-198.92 1495.8,-198.78 1489.92,-194.26 1488.38,-198.92"/>
</g>
<!-- defaults -->
<g id="node11" class="node">
<title>defaults</title>
<path fill="#fffbeb" stroke="#334155" d="M1038.85,-84.32C1038.85,-84.32 950.2,-84.32 950.2,-84.32 944.2,-84.32 938.2,-78.32 938.2,-72.32 938.2,-72.32 938.2,-27.68 938.2,-27.68 938.2,-21.68 944.2,-15.68 950.2,-15.68 950.2,-15.68 1038.85,-15.68 1038.85,-15.68 1044.85,-15.68 1050.85,-21.68 1050.85,-27.68 1050.85,-27.68 1050.85,-72.32 1050.85,-72.32 1050.85,-78.32 1044.85,-84.32 1038.85,-84.32"/>
<text xml:space="preserve" text-anchor="middle" x="994.53" y="-70.5" font-family="Helvetica,sans-Serif" font-size="10.00">Default&#45;Clear Logic</text>
<text xml:space="preserve" text-anchor="middle" x="994.53" y="-58.5" font-family="Helvetica,sans-Serif" font-size="10.00">out_valid_q&lt;=0</text>
<text xml:space="preserve" text-anchor="middle" x="994.53" y="-46.5" font-family="Helvetica,sans-Serif" font-size="10.00">done_q&lt;=0</text>
<text xml:space="preserve" text-anchor="middle" x="994.53" y="-34.5" font-family="Helvetica,sans-Serif" font-size="10.00">alpha_seed_rd_en&lt;=0</text>
<text xml:space="preserve" text-anchor="middle" x="994.53" y="-22.5" font-family="Helvetica,sans-Serif" font-size="10.00">alpha_seed_wr_en&lt;=0</text>
</g>
<!-- defaults&#45;&gt;out_ctrl -->
<g id="edge12" class="edge">
<title>defaults&#45;&gt;out_ctrl</title>
<path fill="none" stroke="#475569" stroke-width="1.1" d="M1050.99,-51.84C1113.8,-53.91 1216.37,-57.31 1285.51,-59.6"/>
<polygon fill="#475569" stroke="#475569" stroke-width="1.1" points="1285.03,-62.03 1292.11,-59.82 1285.19,-57.14 1285.03,-62.03"/>
</g>
<!-- out_ctrl&#45;&gt;ctrl_out -->
<g id="edge17" class="edge">
<title>out_ctrl&#45;&gt;ctrl_out</title>
<path fill="none" stroke="#475569" stroke-width="1.1" d="M1399.08,-84.69C1425.11,-99.84 1454.6,-117 1454.6,-117 1454.6,-117 1483.2,-145.48 1510.18,-172.34"/>
<polygon fill="#475569" stroke="#475569" stroke-width="1.1" points="1508.4,-174.02 1515.08,-177.22 1511.85,-170.54 1508.4,-174.02"/>
</g>
<!-- note0 -->
<g id="node13" class="node">
<title>note0</title>
<polygon fill="#fefce8" stroke="#eab308" points="689.45,-87.32 491.3,-87.32 491.3,-42.68 695.45,-42.68 695.45,-81.32 689.45,-87.32"/>
<polyline fill="none" stroke="#eab308" points="689.45,-87.32 689.45,-81.32"/>
<polyline fill="none" stroke="#eab308" points="695.45,-81.32 689.45,-81.32"/>
<text xml:space="preserve" text-anchor="middle" x="593.38" y="-73.5" font-family="Helvetica,sans-Serif" font-size="10.00">The control unit is not only `st`.</text>
<text xml:space="preserve" text-anchor="middle" x="593.38" y="-61.5" font-family="Helvetica,sans-Serif" font-size="10.00">It is FSM + loop registers + address muxes</text>
<text xml:space="preserve" text-anchor="middle" x="593.38" y="-49.5" font-family="Helvetica,sans-Serif" font-size="10.00">+ BRAM handshake + pulse generation.</text>
</g>
<!-- note0&#45;&gt;action_decode -->
<g id="edge18" class="edge">
<title>note0&#45;&gt;action_decode</title>
<path fill="none" stroke="#a16207" stroke-width="1.1" stroke-dasharray="1,5" d="M695.88,-85.12C780.39,-101.87 886.95,-123 886.95,-123 886.95,-123 939.06,-164.56 970.4,-189.56"/>
</g>
</g>
</svg>
