<?xml version="1.0" encoding="UTF-8" standalone="no"?>
<!DOCTYPE svg PUBLIC "-//W3C//DTD SVG 1.1//EN"
 "http://www.w3.org/Graphics/SVG/1.1/DTD/svg11.dtd">
<!-- Generated by graphviz version 14.1.2 (0)
 -->
<!-- Title: siso_fsm_deep Pages: 1 -->
<svg width="745pt" height="971pt"
 viewBox="0.00 0.00 745.00 971.00" xmlns="http://www.w3.org/2000/svg" xmlns:xlink="http://www.w3.org/1999/xlink">
<g id="graph0" class="graph" transform="scale(1 1) rotate(0) translate(14.4 956.43)">
<title>siso_fsm_deep</title>
<polygon fill="white" stroke="none" points="-14.4,14.4 -14.4,-956.43 730.9,-956.43 730.9,14.4 -14.4,14.4"/>
<text xml:space="preserve" text-anchor="middle" x="358.25" y="-924.73" font-family="Helvetica,sans-Serif" font-size="14.00">siso_maxlogmap Deep FSM Control</text>
<!-- idle -->
<g id="node1" class="node">
<title>idle</title>
<path fill="#f8fbff" stroke="#334155" d="M509.7,-918.28C509.7,-918.28 354.3,-918.28 354.3,-918.28 348.3,-918.28 342.3,-912.28 342.3,-906.28 342.3,-906.28 342.3,-885.64 342.3,-885.64 342.3,-879.64 348.3,-873.64 354.3,-873.64 354.3,-873.64 509.7,-873.64 509.7,-873.64 515.7,-873.64 521.7,-879.64 521.7,-885.64 521.7,-885.64 521.7,-906.28 521.7,-906.28 521.7,-912.28 515.7,-918.28 509.7,-918.28"/>
<text xml:space="preserve" text-anchor="middle" x="432" y="-904.46" font-family="Helvetica,sans-Serif" font-size="10.00">IDLE</text>
<text xml:space="preserve" text-anchor="middle" x="432" y="-892.46" font-family="Helvetica,sans-Serif" font-size="10.00">capture seg_len</text>
<text xml:space="preserve" text-anchor="middle" x="432" y="-880.46" font-family="Helvetica,sans-Serif" font-size="10.00">compute seg_bits_i, pair_cnt, win_cnt</text>
</g>
<!-- idle&#45;&gt;idle -->
<g id="edge2" class="edge">
<title>idle&#45;&gt;idle</title>
<path fill="none" stroke="#475569" stroke-width="1.1" d="M521.92,-904.21C536.61,-903.03 546.7,-900.28 546.7,-895.96 546.7,-892.52 540.29,-890.07 530.26,-888.62"/>
<polygon fill="#475569" stroke="#475569" stroke-width="1.1" points="530.8,-886.22 523.58,-887.89 530.27,-891.09 530.8,-886.22"/>
<text xml:space="preserve" text-anchor="middle" x="561.7" y="-892.66" font-family="Helvetica,sans-Serif" font-size="9.00">no start</text>
</g>
<!-- load -->
<g id="node2" class="node">
<title>load</title>
<path fill="#f8fbff" stroke="#334155" d="M147.82,-818.82C147.82,-818.82 50.17,-818.82 50.17,-818.82 44.17,-818.82 38.17,-812.82 38.17,-806.82 38.17,-806.82 38.17,-794.82 38.17,-794.82 38.17,-788.82 44.17,-782.82 50.17,-782.82 50.17,-782.82 147.82,-782.82 147.82,-782.82 153.82,-782.82 159.82,-788.82 159.82,-794.82 159.82,-794.82 159.82,-806.82 159.82,-806.82 159.82,-812.82 153.82,-818.82 147.82,-818.82"/>
<text xml:space="preserve" text-anchor="middle" x="99" y="-803.32" font-family="Helvetica,sans-Serif" font-size="10.00">LOAD</text>
<text xml:space="preserve" text-anchor="middle" x="99" y="-791.32" font-family="Helvetica,sans-Serif" font-size="10.00">write segment memories</text>
</g>
<!-- idle&#45;&gt;load -->
<g id="edge1" class="edge">
<title>idle&#45;&gt;load</title>
<path fill="none" stroke="#475569" stroke-width="1.1" d="M354.35,-873.24C298.04,-857.49 222.57,-836.38 168.3,-821.2"/>
<polygon fill="#475569" stroke="#475569" stroke-width="1.1" points="169.12,-818.89 161.72,-819.36 167.8,-823.61 169.12,-818.89"/>
<text xml:space="preserve" text-anchor="middle" x="315.98" y="-845.09" font-family="Helvetica,sans-Serif" font-size="9.00">start and seg_len&gt;0</text>
</g>
<!-- finish -->
<g id="node11" class="node">
<title>finish</title>
<path fill="#f8fbff" stroke="#334155" d="M293.57,-36C293.57,-36 254.43,-36 254.43,-36 248.43,-36 242.43,-30 242.43,-24 242.43,-24 242.43,-12 242.43,-12 242.43,-6 248.43,0 254.43,0 254.43,0 293.57,0 293.57,0 299.57,0 305.57,-6 305.57,-12 305.57,-12 305.57,-24 305.57,-24 305.57,-30 299.57,-36 293.57,-36"/>
<text xml:space="preserve" text-anchor="middle" x="274" y="-20.5" font-family="Helvetica,sans-Serif" font-size="10.00">FINISH</text>
<text xml:space="preserve" text-anchor="middle" x="274" y="-8.5" font-family="Helvetica,sans-Serif" font-size="10.00">done_q&lt;=1</text>
</g>
<!-- idle&#45;&gt;finish -->
<g id="edge3" class="edge">
<title>idle&#45;&gt;finish</title>
<path fill="none" stroke="#475569" stroke-width="1.1" d="M341.9,-879.02C222.28,-857.86 26,-823.14 26,-823.14 26,-823.14 0,-801.82 0,-801.82 0,-801.82 0,-801.82 0,-103.5 0,-103.5 158.03,-54.77 234.06,-31.32"/>
<polygon fill="#475569" stroke="#475569" stroke-width="1.1" points="234.47,-33.75 240.44,-29.35 233.03,-29.07 234.47,-33.75"/>
<text xml:space="preserve" text-anchor="middle" x="43.12" y="-447.2" font-family="Helvetica,sans-Serif" font-size="9.00">start and seg_len&lt;=0</text>
</g>
<!-- load&#45;&gt;load -->
<g id="edge4" class="edge">
<title>load&#45;&gt;load</title>
<path fill="none" stroke="#475569" stroke-width="1.1" d="M159.94,-809.56C174.26,-808.84 184.82,-805.93 184.82,-800.82 184.82,-796.79 178.25,-794.12 168.44,-792.82"/>
<polygon fill="#475569" stroke="#475569" stroke-width="1.1" points="168.79,-790.4 161.6,-792.22 168.36,-795.28 168.79,-790.4"/>
<text xml:space="preserve" text-anchor="middle" x="234.7" y="-797.52" font-family="Helvetica,sans-Serif" font-size="9.00">in_valid and not last pair</text>
</g>
<!-- dummy_fwd -->
<g id="node3" class="node">
<title>dummy_fwd</title>
<path fill="#f8fbff" stroke="#334155" d="M421.7,-728C421.7,-728 314.3,-728 314.3,-728 308.3,-728 302.3,-722 302.3,-716 302.3,-716 302.3,-704 302.3,-704 302.3,-698 308.3,-692 314.3,-692 314.3,-692 421.7,-692 421.7,-692 427.7,-692 433.7,-698 433.7,-704 433.7,-704 433.7,-716 433.7,-716 433.7,-722 427.7,-728 421.7,-728"/>
<text xml:space="preserve" text-anchor="middle" x="368" y="-712.5" font-family="Helvetica,sans-Serif" font-size="10.00">DUMMY_FWD</text>
<text xml:space="preserve" text-anchor="middle" x="368" y="-700.5" font-family="Helvetica,sans-Serif" font-size="10.00">window&#45;0 warm&#45;up forward</text>
</g>
<!-- load&#45;&gt;dummy_fwd -->
<g id="edge5" class="edge">
<title>load&#45;&gt;dummy_fwd</title>
<path fill="none" stroke="#475569" stroke-width="1.1" d="M146.6,-782.42C187.77,-767.37 240.75,-748 240.75,-748 240.75,-748 269.69,-739.58 299.97,-730.78"/>
<polygon fill="#475569" stroke="#475569" stroke-width="1.1" points="300.46,-733.19 306.5,-728.88 299.1,-728.48 300.46,-733.19"/>
<text xml:space="preserve" text-anchor="middle" x="307.88" y="-749.95" font-family="Helvetica,sans-Serif" font-size="9.00">in_valid and load_idx=pair_cnt&#45;1</text>
</g>
<!-- dummy_fwd&#45;&gt;idle -->
<g id="edge6" class="edge">
<title>dummy_fwd&#45;&gt;idle</title>
<path fill="none" stroke="#475569" stroke-width="1.1" d="M403.28,-728.38C443.87,-748.38 505,-778.5 505,-778.5 505,-778.5 505,-823.14 505,-823.14 505,-823.14 480.48,-847.26 459.87,-867.54"/>
<polygon fill="#475569" stroke="#475569" stroke-width="1.1" points="458.36,-865.59 455.09,-872.24 461.8,-869.08 458.36,-865.59"/>
<text xml:space="preserve" text-anchor="middle" x="552.25" y="-797.52" font-family="Helvetica,sans-Serif" font-size="9.00">window_pairs_for(0)=0</text>
</g>
<!-- dummy_fwd&#45;&gt;dummy_fwd -->
<g id="edge7" class="edge">
<title>dummy_fwd&#45;&gt;dummy_fwd</title>
<path fill="none" stroke="#475569" stroke-width="1.1" d="M434.04,-717.87C448.33,-717.1 458.7,-714.48 458.7,-710 458.7,-706.47 452.25,-704.09 442.5,-702.86"/>
<polygon fill="#475569" stroke="#475569" stroke-width="1.1" points="442.88,-700.44 435.7,-702.27 442.46,-705.32 442.88,-700.44"/>
<text xml:space="preserve" text-anchor="middle" x="529.58" y="-706.7" font-family="Helvetica,sans-Serif" font-size="9.00">work_local_idx &lt; win_pair_cnt_v&#45;1</text>
</g>
<!-- fwd_seeds -->
<g id="node4" class="node">
<title>fwd_seeds</title>
<path fill="#f8fbff" stroke="#334155" d="M375.07,-641.5C375.07,-641.5 266.93,-641.5 266.93,-641.5 260.93,-641.5 254.93,-635.5 254.93,-629.5 254.93,-629.5 254.93,-617.5 254.93,-617.5 254.93,-611.5 260.93,-605.5 266.93,-605.5 266.93,-605.5 375.07,-605.5 375.07,-605.5 381.07,-605.5 387.07,-611.5 387.07,-617.5 387.07,-617.5 387.07,-629.5 387.07,-629.5 387.07,-635.5 381.07,-641.5 375.07,-641.5"/>
<text xml:space="preserve" text-anchor="middle" x="321" y="-626" font-family="Helvetica,sans-Serif" font-size="10.00">FWD_SEEDS</text>
<text xml:space="preserve" text-anchor="middle" x="321" y="-614" font-family="Helvetica,sans-Serif" font-size="10.00">compute/store alpha seeds</text>
</g>
<!-- dummy_fwd&#45;&gt;fwd_seeds -->
<g id="edge8" class="edge">
<title>dummy_fwd&#45;&gt;fwd_seeds</title>
<path fill="none" stroke="#475569" stroke-width="1.1" d="M358.49,-691.9C351.65,-679.61 342.34,-662.86 334.7,-649.13"/>
<polygon fill="#475569" stroke="#475569" stroke-width="1.1" points="337.01,-648.25 331.47,-643.32 332.73,-650.63 337.01,-648.25"/>
<text xml:space="preserve" text-anchor="middle" x="418.19" y="-663.45" font-family="Helvetica,sans-Serif" font-size="9.00">work_local_idx = win_pair_cnt_v&#45;1</text>
</g>
<!-- fwd_seeds&#45;&gt;fwd_seeds -->
<g id="edge9" class="edge">
<title>fwd_seeds&#45;&gt;fwd_seeds</title>
<path fill="none" stroke="#475569" stroke-width="1.1" d="M387.31,-631.37C401.67,-630.6 412.07,-627.98 412.07,-623.5 412.07,-619.97 405.59,-617.59 395.81,-616.36"/>
<polygon fill="#475569" stroke="#475569" stroke-width="1.1" points="396.15,-613.94 388.97,-615.77 395.73,-618.82 396.15,-613.94"/>
<text xml:space="preserve" text-anchor="middle" x="470.95" y="-625.45" font-family="Helvetica,sans-Serif" font-size="9.00">more pairs in current window</text>
<text xml:space="preserve" text-anchor="middle" x="470.95" y="-614.95" font-family="Helvetica,sans-Serif" font-size="9.00">or more windows after write</text>
</g>
<!-- prep -->
<g id="node5" class="node">
<title>prep</title>
<path fill="#f8fbff" stroke="#334155" d="M352.07,-555C352.07,-555 243.93,-555 243.93,-555 237.93,-555 231.93,-549 231.93,-543 231.93,-543 231.93,-531 231.93,-531 231.93,-525 237.93,-519 243.93,-519 243.93,-519 352.07,-519 352.07,-519 358.07,-519 364.07,-525 364.07,-531 364.07,-531 364.07,-543 364.07,-543 364.07,-549 358.07,-555 352.07,-555"/>
<text xml:space="preserve" text-anchor="middle" x="298" y="-539.5" font-family="Helvetica,sans-Serif" font-size="10.00">PREP_WINDOW</text>
<text xml:space="preserve" text-anchor="middle" x="298" y="-527.5" font-family="Helvetica,sans-Serif" font-size="10.00">choose beta&#45;boundary path</text>
</g>
<!-- fwd_seeds&#45;&gt;prep -->
<g id="edge10" class="edge">
<title>fwd_seeds&#45;&gt;prep</title>
<path fill="none" stroke="#475569" stroke-width="1.1" d="M316.35,-605.4C313.06,-593.34 308.61,-576.98 304.91,-563.4"/>
<polygon fill="#475569" stroke="#475569" stroke-width="1.1" points="307.37,-563.08 303.16,-556.97 302.64,-564.37 307.37,-563.08"/>
<text xml:space="preserve" text-anchor="middle" x="354.75" y="-576.95" font-family="Helvetica,sans-Serif" font-size="9.00">last seed phase done</text>
</g>
<!-- dummy_bwd -->
<g id="node6" class="node">
<title>dummy_bwd</title>
<path fill="#f8fbff" stroke="#334155" d="M519.2,-468.5C519.2,-468.5 432.8,-468.5 432.8,-468.5 426.8,-468.5 420.8,-462.5 420.8,-456.5 420.8,-456.5 420.8,-444.5 420.8,-444.5 420.8,-438.5 426.8,-432.5 432.8,-432.5 432.8,-432.5 519.2,-432.5 519.2,-432.5 525.2,-432.5 531.2,-438.5 531.2,-444.5 531.2,-444.5 531.2,-456.5 531.2,-456.5 531.2,-462.5 525.2,-468.5 519.2,-468.5"/>
<text xml:space="preserve" text-anchor="middle" x="476" y="-453" font-family="Helvetica,sans-Serif" font-size="10.00">DUMMY_BWD</text>
<text xml:space="preserve" text-anchor="middle" x="476" y="-441" font-family="Helvetica,sans-Serif" font-size="10.00">backward over Wm+1</text>
</g>
<!-- prep&#45;&gt;dummy_bwd -->
<g id="edge11" class="edge">
<title>prep&#45;&gt;dummy_bwd</title>
<path fill="none" stroke="#475569" stroke-width="1.1" d="M334.45,-518.7C362.55,-505.35 401.55,-486.84 431.5,-472.63"/>
<polygon fill="#475569" stroke="#475569" stroke-width="1.1" points="432.52,-474.85 437.79,-469.64 430.41,-470.43 432.52,-474.85"/>
<text xml:space="preserve" text-anchor="middle" x="450.53" y="-490.45" font-family="Helvetica,sans-Serif" font-size="9.00">work_win_idx &lt; win_cnt&#45;1</text>
</g>
<!-- load_wait -->
<g id="node7" class="node">
<title>load_wait</title>
<path fill="#f8fbff" stroke="#334155" d="M468.2,-382C468.2,-382 381.8,-382 381.8,-382 375.8,-382 369.8,-376 369.8,-370 369.8,-370 369.8,-358 369.8,-358 369.8,-352 375.8,-346 381.8,-346 381.8,-346 468.2,-346 468.2,-346 474.2,-346 480.2,-352 480.2,-358 480.2,-358 480.2,-370 480.2,-370 480.2,-376 474.2,-382 468.2,-382"/>
<text xml:space="preserve" text-anchor="middle" x="425" y="-366.5" font-family="Helvetica,sans-Serif" font-size="10.00">LOAD_ALPHA_WAIT</text>
<text xml:space="preserve" text-anchor="middle" x="425" y="-354.5" font-family="Helvetica,sans-Serif" font-size="10.00">BRAM latency absorb</text>
</g>
<!-- prep&#45;&gt;load_wait -->
<g id="edge12" class="edge">
<title>prep&#45;&gt;load_wait</title>
<path fill="none" stroke="#475569" stroke-width="1.1" d="M298.7,-518.91C299.91,-489.51 302.25,-432.5 302.25,-432.5 302.25,-432.5 349.99,-406.25 385.92,-386.49"/>
<polygon fill="#475569" stroke="#475569" stroke-width="1.1" points="386.98,-388.7 391.93,-383.19 384.62,-384.41 386.98,-388.7"/>
<text xml:space="preserve" text-anchor="middle" x="355.12" y="-447.2" font-family="Helvetica,sans-Serif" font-size="9.00">work_win_idx = win_cnt&#45;1</text>
</g>
<!-- dummy_bwd&#45;&gt;dummy_bwd -->
<g id="edge13" class="edge">
<title>dummy_bwd&#45;&gt;dummy_bwd</title>
<path fill="none" stroke="#475569" stroke-width="1.1" d="M531.47,-458.51C545.6,-457.99 556.2,-455.31 556.2,-450.5 556.2,-446.7 549.6,-444.24 539.88,-443.11"/>
<polygon fill="#475569" stroke="#475569" stroke-width="1.1" points="540.3,-440.68 533.13,-442.61 539.94,-445.57 540.3,-440.68"/>
<text xml:space="preserve" text-anchor="middle" x="594.45" y="-447.2" font-family="Helvetica,sans-Serif" font-size="9.00">work_local_idx &gt; 0</text>
</g>
<!-- dummy_bwd&#45;&gt;load_wait -->
<g id="edge14" class="edge">
<title>dummy_bwd&#45;&gt;load_wait</title>
<path fill="none" stroke="#475569" stroke-width="1.1" d="M465.68,-432.4C458.26,-420.11 448.15,-403.36 439.87,-389.63"/>
<polygon fill="#475569" stroke="#475569" stroke-width="1.1" points="442.06,-388.52 436.34,-383.79 437.86,-391.05 442.06,-388.52"/>
<text xml:space="preserve" text-anchor="middle" x="491.8" y="-403.95" font-family="Helvetica,sans-Serif" font-size="9.00">work_local_idx = 0</text>
</g>
<!-- load_alpha -->
<g id="node8" class="node">
<title>load_alpha</title>
<path fill="#f8fbff" stroke="#334155" d="M471.82,-295.5C471.82,-295.5 350.18,-295.5 350.18,-295.5 344.18,-295.5 338.18,-289.5 338.18,-283.5 338.18,-283.5 338.18,-271.5 338.18,-271.5 338.18,-265.5 344.18,-259.5 350.18,-259.5 350.18,-259.5 471.82,-259.5 471.82,-259.5 477.82,-259.5 483.82,-265.5 483.82,-271.5 483.82,-271.5 483.82,-283.5 483.82,-283.5 483.82,-289.5 477.82,-295.5 471.82,-295.5"/>
<text xml:space="preserve" text-anchor="middle" x="411" y="-280" font-family="Helvetica,sans-Serif" font-size="10.00">LOAD_ALPHA</text>
<text xml:space="preserve" text-anchor="middle" x="411" y="-268" font-family="Helvetica,sans-Serif" font-size="10.00">alpha_work&lt;=unpack(rd_data)</text>
</g>
<!-- load_wait&#45;&gt;load_alpha -->
<g id="edge15" class="edge">
<title>load_wait&#45;&gt;load_alpha</title>
<path fill="none" stroke="#475569" stroke-width="1.1" d="M422.17,-345.9C420.19,-333.95 417.51,-317.79 415.27,-304.28"/>
<polygon fill="#475569" stroke="#475569" stroke-width="1.1" points="417.71,-304.01 414.15,-297.51 412.88,-304.81 417.71,-304.01"/>
<text xml:space="preserve" text-anchor="middle" x="439.09" y="-317.45" font-family="Helvetica,sans-Serif" font-size="9.00">next cycle</text>
</g>
<!-- local_fwd -->
<g id="node9" class="node">
<title>local_fwd</title>
<path fill="#f8fbff" stroke="#334155" d="M436.95,-209C436.95,-209 307.05,-209 307.05,-209 301.05,-209 295.05,-203 295.05,-197 295.05,-197 295.05,-185 295.05,-185 295.05,-179 301.05,-173 307.05,-173 307.05,-173 436.95,-173 436.95,-173 442.95,-173 448.95,-179 448.95,-185 448.95,-185 448.95,-197 448.95,-197 448.95,-203 442.95,-209 436.95,-209"/>
<text xml:space="preserve" text-anchor="middle" x="372" y="-193.5" font-family="Helvetica,sans-Serif" font-size="10.00">LOCAL_FWD</text>
<text xml:space="preserve" text-anchor="middle" x="372" y="-181.5" font-family="Helvetica,sans-Serif" font-size="10.00">replay window + fill local buffers</text>
</g>
<!-- load_alpha&#45;&gt;local_fwd -->
<g id="edge16" class="edge">
<title>load_alpha&#45;&gt;local_fwd</title>
<path fill="none" stroke="#475569" stroke-width="1.1" d="M403.11,-259.4C397.49,-247.23 389.85,-230.67 383.55,-217.01"/>
<polygon fill="#475569" stroke="#475569" stroke-width="1.1" points="385.87,-216.21 380.71,-210.88 381.42,-218.26 385.87,-216.21"/>
<text xml:space="preserve" text-anchor="middle" x="415.21" y="-230.95" font-family="Helvetica,sans-Serif" font-size="9.00">immediate</text>
</g>
<!-- local_fwd&#45;&gt;local_fwd -->
<g id="edge17" class="edge">
<title>local_fwd&#45;&gt;local_fwd</title>
<path fill="none" stroke="#475569" stroke-width="1.1" d="M449.35,-198.69C463.79,-197.75 473.95,-195.18 473.95,-191 473.95,-187.7 467.62,-185.41 457.86,-184.12"/>
<polygon fill="#475569" stroke="#475569" stroke-width="1.1" points="458.21,-181.69 451.01,-183.47 457.74,-186.57 458.21,-181.69"/>
<text xml:space="preserve" text-anchor="middle" x="544.83" y="-187.7" font-family="Helvetica,sans-Serif" font-size="9.00">work_local_idx &lt; win_pair_cnt_v&#45;1</text>
</g>
<!-- local_bwd -->
<g id="node10" class="node">
<title>local_bwd</title>
<path fill="#f8fbff" stroke="#334155" d="M333.32,-122.5C333.32,-122.5 214.68,-122.5 214.68,-122.5 208.68,-122.5 202.68,-116.5 202.68,-110.5 202.68,-110.5 202.68,-98.5 202.68,-98.5 202.68,-92.5 208.68,-86.5 214.68,-86.5 214.68,-86.5 333.32,-86.5 333.32,-86.5 339.32,-86.5 345.32,-92.5 345.32,-98.5 345.32,-98.5 345.32,-110.5 345.32,-110.5 345.32,-116.5 339.32,-122.5 333.32,-122.5"/>
<text xml:space="preserve" text-anchor="middle" x="274" y="-107" font-family="Helvetica,sans-Serif" font-size="10.00">LOCAL_BWD</text>
<text xml:space="preserve" text-anchor="middle" x="274" y="-95" font-family="Helvetica,sans-Serif" font-size="10.00">extract outputs + update beta</text>
</g>
<!-- local_fwd&#45;&gt;local_bwd -->
<g id="edge18" class="edge">
<title>local_fwd&#45;&gt;local_bwd</title>
<path fill="none" stroke="#475569" stroke-width="1.1" d="M352.17,-172.9C337.26,-160.04 316.68,-142.3 300.38,-128.25"/>
<polygon fill="#475569" stroke="#475569" stroke-width="1.1" points="302.3,-126.67 295.4,-123.95 299.1,-130.38 302.3,-126.67"/>
<text xml:space="preserve" text-anchor="middle" x="399.74" y="-144.45" font-family="Helvetica,sans-Serif" font-size="9.00">work_local_idx = win_pair_cnt_v&#45;1</text>
</g>
<!-- local_bwd&#45;&gt;prep -->
<g id="edge20" class="edge">
<title>local_bwd&#45;&gt;prep</title>
<path fill="none" stroke="#475569" stroke-width="1.1" d="M264.49,-122.6C250.76,-147.29 227,-190 227,-190 227,-451.5 227,-451.5 227,-451.5 227,-451.5 257.24,-487.49 278.25,-512.49"/>
<polygon fill="#475569" stroke="#475569" stroke-width="1.1" points="276.18,-513.84 282.56,-517.63 279.93,-510.69 276.18,-513.84"/>
<text xml:space="preserve" text-anchor="middle" x="311" y="-317.45" font-family="Helvetica,sans-Serif" font-size="9.00">work_local_idx = 0 and work_win_idx &gt; 0</text>
</g>
<!-- local_bwd&#45;&gt;local_bwd -->
<g id="edge19" class="edge">
<title>local_bwd&#45;&gt;local_bwd</title>
<path fill="none" stroke="#475569" stroke-width="1.1" d="M345.41,-112.3C359.93,-111.45 370.32,-108.85 370.32,-104.5 370.32,-101.07 363.85,-98.72 353.99,-97.47"/>
<polygon fill="#475569" stroke="#475569" stroke-width="1.1" points="354.26,-95.04 347.07,-96.85 353.82,-99.92 354.26,-95.04"/>
<text xml:space="preserve" text-anchor="middle" x="408.57" y="-101.2" font-family="Helvetica,sans-Serif" font-size="9.00">work_local_idx &gt; 0</text>
</g>
<!-- local_bwd&#45;&gt;finish -->
<g id="edge21" class="edge">
<title>local_bwd&#45;&gt;finish</title>
<path fill="none" stroke="#475569" stroke-width="1.1" d="M274,-86.4C274,-74.45 274,-58.29 274,-44.78"/>
<polygon fill="#475569" stroke="#475569" stroke-width="1.1" points="276.45,-45.03 274,-38.03 271.55,-45.03 276.45,-45.03"/>
<text xml:space="preserve" text-anchor="middle" x="358" y="-57.95" font-family="Helvetica,sans-Serif" font-size="9.00">work_local_idx = 0 and work_win_idx = 0</text>
</g>
<!-- finish&#45;&gt;idle -->
<g id="edge22" class="edge">
<title>finish&#45;&gt;idle</title>
<path fill="none" stroke="#475569" stroke-width="1.1" d="M305.88,-25.7C400.96,-45.69 676,-103.5 676,-103.5 676,-801.82 676,-801.82 676,-801.82 676,-801.82 568.94,-842.69 496.66,-870.28"/>
<polygon fill="#475569" stroke="#475569" stroke-width="1.1" points="496.12,-867.86 490.45,-872.65 497.87,-872.44 496.12,-867.86"/>
<text xml:space="preserve" text-anchor="middle" x="696.25" y="-447.2" font-family="Helvetica,sans-Serif" font-size="9.00">next cycle</text>
</g>
<!-- note0 -->
<g id="node12" class="node">
<title>note0</title>
<polygon fill="#fefce8" stroke="#eab308" points="486.95,-823.14 303.05,-823.14 303.05,-778.5 492.95,-778.5 492.95,-817.14 486.95,-823.14"/>
<polyline fill="none" stroke="#eab308" points="486.95,-823.14 486.95,-817.14"/>
<polyline fill="none" stroke="#eab308" points="492.95,-817.14 486.95,-817.14"/>
<text xml:space="preserve" text-anchor="middle" x="398" y="-809.32" font-family="Helvetica,sans-Serif" font-size="10.00">Global schedule:</text>
<text xml:space="preserve" text-anchor="middle" x="398" y="-797.32" font-family="Helvetica,sans-Serif" font-size="10.00">LOAD &#45;&gt; forward seed prepass &#45;&gt;</text>
<text xml:space="preserve" text-anchor="middle" x="398" y="-785.32" font-family="Helvetica,sans-Serif" font-size="10.00">window&#45;by&#45;window reverse local decode</text>
</g>
<!-- note0&#45;&gt;dummy_fwd -->
<g id="edge23" class="edge">
<title>note0&#45;&gt;dummy_fwd</title>
<path fill="none" stroke="#a16207" stroke-width="1.1" stroke-dasharray="1,5" d="M390.74,-778.32C385.57,-763.02 378.72,-742.72 373.89,-728.43"/>
</g>
</g>
</svg>
