<?xml version="1.0" encoding="UTF-8" standalone="no"?>
<!DOCTYPE svg PUBLIC "-//W3C//DTD SVG 1.1//EN"
 "http://www.w3.org/Graphics/SVG/1.1/DTD/svg11.dtd">
<!-- Generated by graphviz version 14.1.2 (0)
 -->
<!-- Title: G Pages: 1 -->
<svg width="2280pt" height="131pt"
 viewBox="0.00 0.00 2280.00 131.00" xmlns="http://www.w3.org/2000/svg" xmlns:xlink="http://www.w3.org/1999/xlink">
<g id="graph0" class="graph" transform="scale(1 1) rotate(0) translate(4 127.25)">
<title>G</title>
<polygon fill="white" stroke="none" points="-4,4 -4,-127.25 2276,-127.25 2276,4 -4,4"/>
<text xml:space="preserve" text-anchor="middle" x="1136" y="-100.25" font-family="Helvetica,sans-Serif" font-size="20.00">siso_maxlogmap &#45; Internal Control Functional Units (Updated)</text>
<!-- setup -->
<g id="node1" class="node">
<title>setup</title>
<path fill="#d0e0e3" stroke="#555555" d="M12,-27.5C12,-27.5 301,-27.5 301,-27.5 307,-27.5 313,-33.5 313,-39.5 313,-39.5 313,-51.5 313,-51.5 313,-57.5 307,-63.5 301,-63.5 301,-63.5 12,-63.5 12,-63.5 6,-63.5 0,-57.5 0,-51.5 0,-51.5 0,-39.5 0,-39.5 0,-33.5 6,-27.5 12,-27.5"/>
<text xml:space="preserve" text-anchor="middle" x="45.5" y="-42.05" font-family="Helvetica,sans-Serif" font-size="11.00">Segment Setup</text>
<polyline fill="none" stroke="#555555" points="91,-28 91,-63.5"/>
<text xml:space="preserve" text-anchor="middle" x="118.12" y="-42.05" font-family="Helvetica,sans-Serif" font-size="11.00">pair_cnt</text>
<polyline fill="none" stroke="#555555" points="145.25,-28 145.25,-63.5"/>
<text xml:space="preserve" text-anchor="middle" x="171.62" y="-42.05" font-family="Helvetica,sans-Serif" font-size="11.00">win_cnt</text>
<polyline fill="none" stroke="#555555" points="198,-28 198,-63.5"/>
<text xml:space="preserve" text-anchor="middle" x="255.5" y="-42.05" font-family="Helvetica,sans-Serif" font-size="11.00">start/end seed select</text>
</g>
<!-- load -->
<g id="node2" class="node">
<title>load</title>
<path fill="#e8f0fe" stroke="#555555" d="M392.5,-55.5C392.5,-55.5 697.75,-55.5 697.75,-55.5 703.75,-55.5 709.75,-61.5 709.75,-67.5 709.75,-67.5 709.75,-79.5 709.75,-79.5 709.75,-85.5 703.75,-91.5 697.75,-91.5 697.75,-91.5 392.5,-91.5 392.5,-91.5 386.5,-91.5 380.5,-85.5 380.5,-79.5 380.5,-79.5 380.5,-67.5 380.5,-67.5 380.5,-61.5 386.5,-55.5 392.5,-55.5"/>
<text xml:space="preserve" text-anchor="middle" x="447" y="-70.05" font-family="Helvetica,sans-Serif" font-size="11.00">Optional Load Controller</text>
<polyline fill="none" stroke="#555555" points="513.5,-56 513.5,-91.5"/>
<text xml:space="preserve" text-anchor="middle" x="536.5" y="-70.05" font-family="Helvetica,sans-Serif" font-size="11.00">LOAD</text>
<polyline fill="none" stroke="#555555" points="559.5,-56 559.5,-91.5"/>
<text xml:space="preserve" text-anchor="middle" x="634.62" y="-70.05" font-family="Helvetica,sans-Serif" font-size="11.00">legacy segment RAM writes</text>
</g>
<!-- setup&#45;&gt;load -->
<g id="edge1" class="edge">
<title>setup&#45;&gt;load</title>
<path fill="none" stroke="black" d="M313.36,-56.79C331.6,-58.11 350.29,-59.46 368.77,-60.8"/>
<polygon fill="black" stroke="black" points="368.5,-64.29 378.73,-61.52 369.01,-57.31 368.5,-64.29"/>
</g>
<!-- fetch -->
<g id="node3" class="node">
<title>fetch</title>
<path fill="#fff2cc" stroke="#555555" d="M361,-0.5C361,-0.5 729.25,-0.5 729.25,-0.5 735.25,-0.5 741.25,-6.5 741.25,-12.5 741.25,-12.5 741.25,-24.5 741.25,-24.5 741.25,-30.5 735.25,-36.5 729.25,-36.5 729.25,-36.5 361,-36.5 361,-36.5 355,-36.5 349,-30.5 349,-24.5 349,-24.5 349,-12.5 349,-12.5 349,-6.5 355,-0.5 361,-0.5"/>
<text xml:space="preserve" text-anchor="middle" x="395.62" y="-15.05" font-family="Helvetica,sans-Serif" font-size="11.00">Fetch Controller</text>
<polyline fill="none" stroke="#555555" points="442.25,-1 442.25,-36.5"/>
<text xml:space="preserve" text-anchor="middle" x="508.75" y="-15.05" font-family="Helvetica,sans-Serif" font-size="11.00">FWD_REQ/FWD_WAIT</text>
<polyline fill="none" stroke="#555555" points="575.25,-1 575.25,-36.5"/>
<text xml:space="preserve" text-anchor="middle" x="658.25" y="-15.05" font-family="Helvetica,sans-Serif" font-size="11.00">DUMMY_REQ/DUMMY_WAIT</text>
</g>
<!-- setup&#45;&gt;fetch -->
<g id="edge2" class="edge">
<title>setup&#45;&gt;fetch</title>
<path fill="none" stroke="black" d="M313.36,-34.62C321.27,-34.06 329.27,-33.5 337.3,-32.94"/>
<polygon fill="black" stroke="black" points="337.42,-36.44 347.16,-32.26 336.94,-29.46 337.42,-36.44"/>
</g>
<!-- trav -->
<g id="node4" class="node">
<title>trav</title>
<path fill="#d9ead3" stroke="#555555" d="M789.25,-0.5C789.25,-0.5 1085.5,-0.5 1085.5,-0.5 1091.5,-0.5 1097.5,-6.5 1097.5,-12.5 1097.5,-12.5 1097.5,-24.5 1097.5,-24.5 1097.5,-30.5 1091.5,-36.5 1085.5,-36.5 1085.5,-36.5 789.25,-36.5 789.25,-36.5 783.25,-36.5 777.25,-30.5 777.25,-24.5 777.25,-24.5 777.25,-12.5 777.25,-12.5 777.25,-6.5 783.25,-0.5 789.25,-0.5"/>
<text xml:space="preserve" text-anchor="middle" x="853.5" y="-15.05" font-family="Helvetica,sans-Serif" font-size="11.00">Window Traversal Controller</text>
<polyline fill="none" stroke="#555555" points="929.75,-1 929.75,-36.5"/>
<text xml:space="preserve" text-anchor="middle" x="970.38" y="-15.05" font-family="Helvetica,sans-Serif" font-size="11.00">work_win_idx</text>
<polyline fill="none" stroke="#555555" points="1011,-1 1011,-36.5"/>
<text xml:space="preserve" text-anchor="middle" x="1054.25" y="-15.05" font-family="Helvetica,sans-Serif" font-size="11.00">work_local_idx</text>
</g>
<!-- fetch&#45;&gt;trav -->
<g id="edge3" class="edge">
<title>fetch&#45;&gt;trav</title>
<path fill="none" stroke="black" d="M741.54,-18.5C749.47,-18.5 757.4,-18.5 765.27,-18.5"/>
<polygon fill="black" stroke="black" points="765.25,-22 775.25,-18.5 765.25,-15 765.25,-22"/>
</g>
<!-- roll -->
<g id="node5" class="node">
<title>roll</title>
<path fill="#cfe2f3" stroke="#555555" d="M1145.5,-0.5C1145.5,-0.5 1527.5,-0.5 1527.5,-0.5 1533.5,-0.5 1539.5,-6.5 1539.5,-12.5 1539.5,-12.5 1539.5,-24.5 1539.5,-24.5 1539.5,-30.5 1533.5,-36.5 1527.5,-36.5 1527.5,-36.5 1145.5,-36.5 1145.5,-36.5 1139.5,-36.5 1133.5,-30.5 1133.5,-24.5 1133.5,-24.5 1133.5,-12.5 1133.5,-12.5 1133.5,-6.5 1139.5,-0.5 1145.5,-0.5"/>
<text xml:space="preserve" text-anchor="middle" x="1207.88" y="-15.05" font-family="Helvetica,sans-Serif" font-size="11.00">Rolling Boundary Controller</text>
<polyline fill="none" stroke="#555555" points="1282.25,-1 1282.25,-36.5"/>
<text xml:space="preserve" text-anchor="middle" x="1318" y="-15.05" font-family="Helvetica,sans-Serif" font-size="11.00">alpha_work</text>
<polyline fill="none" stroke="#555555" points="1353.75,-1 1353.75,-36.5"/>
<text xml:space="preserve" text-anchor="middle" x="1386.88" y="-15.05" font-family="Helvetica,sans-Serif" font-size="11.00">beta_work</text>
<polyline fill="none" stroke="#555555" points="1420,-1 1420,-36.5"/>
<text xml:space="preserve" text-anchor="middle" x="1479.75" y="-15.05" font-family="Helvetica,sans-Serif" font-size="11.00">next_alpha_seed_reg</text>
</g>
<!-- trav&#45;&gt;roll -->
<g id="edge4" class="edge">
<title>trav&#45;&gt;roll</title>
<path fill="none" stroke="black" d="M1097.9,-18.5C1105.81,-18.5 1113.82,-18.5 1121.85,-18.5"/>
<polygon fill="black" stroke="black" points="1121.71,-22 1131.71,-18.5 1121.71,-15 1121.71,-22"/>
</g>
<!-- cache -->
<g id="node6" class="node">
<title>cache</title>
<path fill="#cfe2f3" stroke="#555555" d="M1587.5,-24.5C1587.5,-24.5 1869.25,-24.5 1869.25,-24.5 1875.25,-24.5 1881.25,-30.5 1881.25,-36.5 1881.25,-36.5 1881.25,-48.5 1881.25,-48.5 1881.25,-54.5 1875.25,-60.5 1869.25,-60.5 1869.25,-60.5 1587.5,-60.5 1587.5,-60.5 1581.5,-60.5 1575.5,-54.5 1575.5,-48.5 1575.5,-48.5 1575.5,-36.5 1575.5,-36.5 1575.5,-30.5 1581.5,-24.5 1587.5,-24.5"/>
<text xml:space="preserve" text-anchor="middle" x="1652.88" y="-39.05" font-family="Helvetica,sans-Serif" font-size="11.00">Local Cache Write Controller</text>
<polyline fill="none" stroke="#555555" points="1730.25,-25 1730.25,-60.5"/>
<text xml:space="preserve" text-anchor="middle" x="1805.75" y="-39.05" font-family="Helvetica,sans-Serif" font-size="11.00">alpha/g0/g1/gamma/sys/apri</text>
</g>
<!-- roll&#45;&gt;cache -->
<g id="edge5" class="edge">
<title>roll&#45;&gt;cache</title>
<path fill="none" stroke="black" d="M1539.86,-30.96C1547.93,-31.45 1555.97,-31.95 1563.95,-32.44"/>
<polygon fill="black" stroke="black" points="1563.47,-35.92 1573.66,-33.04 1563.9,-28.93 1563.47,-35.92"/>
</g>
<!-- emit -->
<g id="node7" class="node">
<title>emit</title>
<path fill="#fce5cd" stroke="#555555" d="M1929.25,-0.5C1929.25,-0.5 2260,-0.5 2260,-0.5 2266,-0.5 2272,-6.5 2272,-12.5 2272,-12.5 2272,-24.5 2272,-24.5 2272,-30.5 2266,-36.5 2260,-36.5 2260,-36.5 1929.25,-36.5 1929.25,-36.5 1923.25,-36.5 1917.25,-30.5 1917.25,-24.5 1917.25,-24.5 1917.25,-12.5 1917.25,-12.5 1917.25,-6.5 1923.25,-0.5 1929.25,-0.5"/>
<text xml:space="preserve" text-anchor="middle" x="1978.88" y="-15.05" font-family="Helvetica,sans-Serif" font-size="11.00">Output Emit Controller</text>
<polyline fill="none" stroke="#555555" points="2040.5,-1 2040.5,-36.5"/>
<text xml:space="preserve" text-anchor="middle" x="2082.62" y="-15.05" font-family="Helvetica,sans-Serif" font-size="11.00">LOCAL_BWD</text>
<polyline fill="none" stroke="#555555" points="2124.75,-1 2124.75,-36.5"/>
<text xml:space="preserve" text-anchor="middle" x="2198.38" y="-15.05" font-family="Helvetica,sans-Serif" font-size="11.00">out_valid/out_pair_idx/done</text>
</g>
<!-- roll&#45;&gt;emit -->
<g id="edge6" class="edge">
<title>roll&#45;&gt;emit</title>
<path fill="none" stroke="black" d="M1539.73,-15.78C1551.83,-15.67 1563.83,-15.57 1575.5,-15.5 1711.39,-14.64 1745.36,-14.54 1881.25,-15.5 1889.24,-15.56 1897.39,-15.62 1905.63,-15.7"/>
<polygon fill="black" stroke="black" points="1905.36,-19.2 1915.39,-15.8 1905.42,-12.2 1905.36,-19.2"/>
</g>
<!-- cache&#45;&gt;emit -->
<g id="edge7" class="edge">
<title>cache&#45;&gt;emit</title>
<path fill="none" stroke="black" d="M1881.74,-32.46C1889.62,-31.94 1897.58,-31.42 1905.56,-30.89"/>
<polygon fill="black" stroke="black" points="1905.58,-34.4 1915.33,-30.25 1905.12,-27.41 1905.58,-34.4"/>
</g>
</g>
</svg>
