<?xml version="1.0" encoding="UTF-8" standalone="no"?>
<!DOCTYPE svg PUBLIC "-//W3C//DTD SVG 1.1//EN"
 "http://www.w3.org/Graphics/SVG/1.1/DTD/svg11.dtd">
<!-- Generated by graphviz version 14.1.2 (0)
 -->
<!-- Title: G Pages: 1 -->
<svg width="1496pt" height="310pt"
 viewBox="0.00 0.00 1496.00 310.00" xmlns="http://www.w3.org/2000/svg" xmlns:xlink="http://www.w3.org/1999/xlink">
<g id="graph0" class="graph" transform="scale(1 1) rotate(0) translate(4 306.25)">
<title>G</title>
<polygon fill="white" stroke="none" points="-4,4 -4,-306.25 1491.75,-306.25 1491.75,4 -4,4"/>
<text xml:space="preserve" text-anchor="middle" x="743.88" y="-279.25" font-family="Helvetica,sans-Serif" font-size="20.00">siso_maxlogmap &#45; Deep FSM Control (Updated)</text>
<!-- IDLE -->
<g id="node1" class="node">
<title>IDLE</title>
<path fill="#d0e0e3" stroke="#555555" d="M42,-66C42,-66 12,-66 12,-66 6,-66 0,-60 0,-54 0,-54 0,-42 0,-42 0,-36 6,-30 12,-30 12,-30 42,-30 42,-30 48,-30 54,-36 54,-42 54,-42 54,-54 54,-54 54,-60 48,-66 42,-66"/>
<text xml:space="preserve" text-anchor="middle" x="27" y="-44.3" font-family="Helvetica,sans-Serif" font-size="11.00">IDLE</text>
</g>
<!-- LOAD -->
<g id="node2" class="node">
<title>LOAD</title>
<path fill="#e8f0fe" stroke="#555555" d="M213.75,-119C213.75,-119 183.75,-119 183.75,-119 177.75,-119 171.75,-113 171.75,-107 171.75,-107 171.75,-95 171.75,-95 171.75,-89 177.75,-83 183.75,-83 183.75,-83 213.75,-83 213.75,-83 219.75,-83 225.75,-89 225.75,-95 225.75,-95 225.75,-107 225.75,-107 225.75,-113 219.75,-119 213.75,-119"/>
<text xml:space="preserve" text-anchor="middle" x="198.75" y="-97.3" font-family="Helvetica,sans-Serif" font-size="11.00">LOAD</text>
</g>
<!-- IDLE&#45;&gt;LOAD -->
<g id="edge1" class="edge">
<title>IDLE&#45;&gt;LOAD</title>
<path fill="none" stroke="black" d="M54.05,-56.32C59.95,-58.2 66.19,-60.17 72,-62 101.88,-71.39 135.8,-81.9 160.87,-89.64"/>
<polygon fill="black" stroke="black" points="159.69,-92.94 170.28,-92.54 161.75,-86.25 159.69,-92.94"/>
<text xml:space="preserve" text-anchor="middle" x="106.88" y="-86.5" font-family="Times New Roman,serif" font-size="14.00">legacy mode</text>
</g>
<!-- FWD_REQ -->
<g id="node3" class="node">
<title>FWD_REQ</title>
<path fill="#fff2cc" stroke="#555555" d="M369.25,-114C369.25,-114 321.75,-114 321.75,-114 315.75,-114 309.75,-108 309.75,-102 309.75,-102 309.75,-90 309.75,-90 309.75,-84 315.75,-78 321.75,-78 321.75,-78 369.25,-78 369.25,-78 375.25,-78 381.25,-84 381.25,-90 381.25,-90 381.25,-102 381.25,-102 381.25,-108 375.25,-114 369.25,-114"/>
<text xml:space="preserve" text-anchor="middle" x="345.5" y="-92.3" font-family="Helvetica,sans-Serif" font-size="11.00">FWD_REQ</text>
</g>
<!-- IDLE&#45;&gt;FWD_REQ -->
<g id="edge2" class="edge">
<title>IDLE&#45;&gt;FWD_REQ</title>
<path fill="none" stroke="black" d="M54.46,-46.68C94.54,-45.24 172.85,-44.63 237.75,-57.5 258.43,-61.6 280.47,-69 299.12,-76.22"/>
<polygon fill="black" stroke="black" points="297.69,-79.42 308.27,-79.87 300.28,-72.91 297.69,-79.42"/>
<text xml:space="preserve" text-anchor="middle" x="198.75" y="-60.7" font-family="Times New Roman,serif" font-size="14.00">external mode</text>
</g>
<!-- LOAD&#45;&gt;FWD_REQ -->
<g id="edge3" class="edge">
<title>LOAD&#45;&gt;FWD_REQ</title>
<path fill="none" stroke="black" d="M225.96,-100.09C246.06,-99.4 274.3,-98.42 298.18,-97.6"/>
<polygon fill="black" stroke="black" points="298.11,-101.1 307.98,-97.26 297.86,-94.11 298.11,-101.1"/>
<text xml:space="preserve" text-anchor="middle" x="273.75" y="-102.15" font-family="Times New Roman,serif" font-size="14.00">loaded</text>
</g>
<!-- FWD_WAIT -->
<g id="node4" class="node">
<title>FWD_WAIT</title>
<path fill="#fff2cc" stroke="#555555" d="M492.25,-218C492.25,-218 441.75,-218 441.75,-218 435.75,-218 429.75,-212 429.75,-206 429.75,-206 429.75,-194 429.75,-194 429.75,-188 435.75,-182 441.75,-182 441.75,-182 492.25,-182 492.25,-182 498.25,-182 504.25,-188 504.25,-194 504.25,-194 504.25,-206 504.25,-206 504.25,-212 498.25,-218 492.25,-218"/>
<text xml:space="preserve" text-anchor="middle" x="467" y="-196.3" font-family="Helvetica,sans-Serif" font-size="11.00">FWD_WAIT</text>
</g>
<!-- FWD_REQ&#45;&gt;FWD_WAIT -->
<g id="edge4" class="edge">
<title>FWD_REQ&#45;&gt;FWD_WAIT</title>
<path fill="none" stroke="black" d="M358.63,-114.33C368.46,-128.25 383.25,-147.28 399.25,-161 405.48,-166.35 412.55,-171.36 419.7,-175.91"/>
<polygon fill="black" stroke="black" points="417.76,-178.82 428.12,-181.01 421.38,-172.84 417.76,-178.82"/>
</g>
<!-- FWD_STEP -->
<g id="node5" class="node">
<title>FWD_STEP</title>
<path fill="#d9ead3" stroke="#555555" d="M617.5,-165C617.5,-165 564.75,-165 564.75,-165 558.75,-165 552.75,-159 552.75,-153 552.75,-153 552.75,-141 552.75,-141 552.75,-135 558.75,-129 564.75,-129 564.75,-129 617.5,-129 617.5,-129 623.5,-129 629.5,-135 629.5,-141 629.5,-141 629.5,-153 629.5,-153 629.5,-159 623.5,-165 617.5,-165"/>
<text xml:space="preserve" text-anchor="middle" x="591.12" y="-143.3" font-family="Helvetica,sans-Serif" font-size="11.00">FWD_STEP</text>
</g>
<!-- FWD_REQ&#45;&gt;FWD_STEP -->
<g id="edge5" class="edge">
<title>FWD_REQ&#45;&gt;FWD_STEP</title>
<path fill="none" stroke="black" stroke-dasharray="5,2" d="M381.41,-105.8C393.07,-108.93 406.18,-112.28 418.25,-115 459.49,-124.28 506.72,-132.94 541.22,-138.9"/>
<polygon fill="black" stroke="black" points="540.47,-142.32 550.92,-140.56 541.65,-135.42 540.47,-142.32"/>
<text xml:space="preserve" text-anchor="middle" x="467" y="-137.61" font-family="Times New Roman,serif" font-size="14.00">legacy RAM path</text>
</g>
<!-- FWD_WAIT&#45;&gt;FWD_STEP -->
<g id="edge6" class="edge">
<title>FWD_WAIT&#45;&gt;FWD_STEP</title>
<path fill="none" stroke="black" d="M504.64,-184.1C516.5,-178.95 529.82,-173.17 542.36,-167.73"/>
<polygon fill="black" stroke="black" points="543.5,-171.05 551.28,-163.86 540.71,-164.63 543.5,-171.05"/>
</g>
<!-- FWD_STEP&#45;&gt;FWD_REQ -->
<g id="edge7" class="edge">
<title>FWD_STEP&#45;&gt;FWD_REQ</title>
<path fill="none" stroke="black" d="M571.14,-128.55C557.11,-116.27 536.84,-101.19 515.75,-94.5 475.61,-81.76 427.38,-83.75 392.69,-87.98"/>
<polygon fill="black" stroke="black" points="392.42,-84.48 382.97,-89.28 393.35,-91.42 392.42,-84.48"/>
<text xml:space="preserve" text-anchor="middle" x="467" y="-97.7" font-family="Times New Roman,serif" font-size="14.00">same window</text>
</g>
<!-- DUMMY_REQ -->
<g id="node6" class="node">
<title>DUMMY_REQ</title>
<path fill="#f4cccc" stroke="#555555" d="M848.25,-191C848.25,-191 784.25,-191 784.25,-191 778.25,-191 772.25,-185 772.25,-179 772.25,-179 772.25,-167 772.25,-167 772.25,-161 778.25,-155 784.25,-155 784.25,-155 848.25,-155 848.25,-155 854.25,-155 860.25,-161 860.25,-167 860.25,-167 860.25,-179 860.25,-179 860.25,-185 854.25,-191 848.25,-191"/>
<text xml:space="preserve" text-anchor="middle" x="816.25" y="-169.3" font-family="Helvetica,sans-Serif" font-size="11.00">DUMMY_REQ</text>
</g>
<!-- FWD_STEP&#45;&gt;DUMMY_REQ -->
<g id="edge8" class="edge">
<title>FWD_STEP&#45;&gt;DUMMY_REQ</title>
<path fill="none" stroke="black" d="M629.98,-151.41C665.81,-155.59 720.01,-161.9 760.55,-166.63"/>
<polygon fill="black" stroke="black" points="760.02,-170.09 770.35,-167.77 760.83,-163.13 760.02,-170.09"/>
<text xml:space="preserve" text-anchor="middle" x="700" y="-168.52" font-family="Times New Roman,serif" font-size="14.00">next window exists</text>
</g>
<!-- LOCAL_BWD -->
<g id="node9" class="node">
<title>LOCAL_BWD</title>
<path fill="#fce5cd" stroke="#555555" d="M1342.25,-89C1342.25,-89 1282,-89 1282,-89 1276,-89 1270,-83 1270,-77 1270,-77 1270,-65 1270,-65 1270,-59 1276,-53 1282,-53 1282,-53 1342.25,-53 1342.25,-53 1348.25,-53 1354.25,-59 1354.25,-65 1354.25,-65 1354.25,-77 1354.25,-77 1354.25,-83 1348.25,-89 1342.25,-89"/>
<text xml:space="preserve" text-anchor="middle" x="1312.12" y="-67.3" font-family="Helvetica,sans-Serif" font-size="11.00">LOCAL_BWD</text>
</g>
<!-- FWD_STEP&#45;&gt;LOCAL_BWD -->
<g id="edge9" class="edge">
<title>FWD_STEP&#45;&gt;LOCAL_BWD</title>
<path fill="none" stroke="black" d="M629.78,-132.38C673.62,-116.69 748.56,-94 815.25,-94 815.25,-94 815.25,-94 1104.38,-94 1157.03,-94 1216.77,-86.54 1258.44,-80.12"/>
<polygon fill="black" stroke="black" points="1258.87,-83.59 1268.2,-78.58 1257.78,-76.68 1258.87,-83.59"/>
<text xml:space="preserve" text-anchor="middle" x="959.38" y="-97.2" font-family="Times New Roman,serif" font-size="14.00">last window</text>
</g>
<!-- DUMMY_WAIT -->
<g id="node7" class="node">
<title>DUMMY_WAIT</title>
<path fill="#f4cccc" stroke="#555555" d="M992.88,-271C992.88,-271 925.88,-271 925.88,-271 919.88,-271 913.88,-265 913.88,-259 913.88,-259 913.88,-247 913.88,-247 913.88,-241 919.88,-235 925.88,-235 925.88,-235 992.88,-235 992.88,-235 998.88,-235 1004.88,-241 1004.88,-247 1004.88,-247 1004.88,-259 1004.88,-259 1004.88,-265 998.88,-271 992.88,-271"/>
<text xml:space="preserve" text-anchor="middle" x="959.38" y="-249.3" font-family="Helvetica,sans-Serif" font-size="11.00">DUMMY_WAIT</text>
</g>
<!-- DUMMY_REQ&#45;&gt;DUMMY_WAIT -->
<g id="edge10" class="edge">
<title>DUMMY_REQ&#45;&gt;DUMMY_WAIT</title>
<path fill="none" stroke="black" d="M844,-191.47C854.97,-198.78 867.92,-207.08 880,-214 889.3,-219.33 899.42,-224.68 909.21,-229.64"/>
<polygon fill="black" stroke="black" points="907.37,-232.63 917.88,-233.97 910.5,-226.37 907.37,-232.63"/>
</g>
<!-- DUMMY_STEP -->
<g id="node8" class="node">
<title>DUMMY_STEP</title>
<path fill="#f4cccc" stroke="#555555" d="M1138,-200C1138,-200 1068.75,-200 1068.75,-200 1062.75,-200 1056.75,-194 1056.75,-188 1056.75,-188 1056.75,-176 1056.75,-176 1056.75,-170 1062.75,-164 1068.75,-164 1068.75,-164 1138,-164 1138,-164 1144,-164 1150,-170 1150,-176 1150,-176 1150,-188 1150,-188 1150,-194 1144,-200 1138,-200"/>
<text xml:space="preserve" text-anchor="middle" x="1103.38" y="-178.3" font-family="Helvetica,sans-Serif" font-size="11.00">DUMMY_STEP</text>
</g>
<!-- DUMMY_REQ&#45;&gt;DUMMY_STEP -->
<g id="edge11" class="edge">
<title>DUMMY_REQ&#45;&gt;DUMMY_STEP</title>
<path fill="none" stroke="black" stroke-dasharray="5,2" d="M860.55,-174.37C909.86,-175.92 990.61,-178.47 1045.09,-180.19"/>
<polygon fill="black" stroke="black" points="1044.68,-183.68 1054.78,-180.5 1044.9,-176.68 1044.68,-183.68"/>
<text xml:space="preserve" text-anchor="middle" x="959.38" y="-182.56" font-family="Times New Roman,serif" font-size="14.00">legacy RAM path</text>
</g>
<!-- DUMMY_WAIT&#45;&gt;DUMMY_STEP -->
<g id="edge12" class="edge">
<title>DUMMY_WAIT&#45;&gt;DUMMY_STEP</title>
<path fill="none" stroke="black" d="M997.47,-234.58C1010.52,-228.09 1025.29,-220.73 1038.75,-214 1044.21,-211.27 1049.93,-208.4 1055.61,-205.55"/>
<polygon fill="black" stroke="black" points="1057,-208.77 1064.36,-201.15 1053.86,-202.51 1057,-208.77"/>
</g>
<!-- DUMMY_STEP&#45;&gt;DUMMY_REQ -->
<g id="edge13" class="edge">
<title>DUMMY_STEP&#45;&gt;DUMMY_REQ</title>
<path fill="none" stroke="black" d="M1056.67,-164.56C1044.82,-160.81 1031.95,-157.41 1019.75,-155.5 966.73,-147.21 952.37,-149.85 899,-155.5 890.17,-156.43 880.89,-157.92 871.89,-159.64"/>
<polygon fill="black" stroke="black" points="871.26,-156.2 862.16,-161.63 872.66,-163.06 871.26,-156.2"/>
<text xml:space="preserve" text-anchor="middle" x="959.38" y="-158.7" font-family="Times New Roman,serif" font-size="14.00">continue next window</text>
</g>
<!-- DUMMY_STEP&#45;&gt;LOCAL_BWD -->
<g id="edge14" class="edge">
<title>DUMMY_STEP&#45;&gt;LOCAL_BWD</title>
<path fill="none" stroke="black" d="M1143.75,-163.51C1173.8,-149.11 1216.01,-128.22 1252,-108 1259.04,-104.04 1266.42,-99.64 1273.5,-95.29"/>
<polygon fill="black" stroke="black" points="1274.97,-98.49 1281.6,-90.23 1271.26,-92.55 1274.97,-98.49"/>
<text xml:space="preserve" text-anchor="middle" x="1210" y="-154.63" font-family="Times New Roman,serif" font-size="14.00">beta seed ready</text>
</g>
<!-- LOCAL_BWD&#45;&gt;FWD_REQ -->
<g id="edge16" class="edge">
<title>LOCAL_BWD&#45;&gt;FWD_REQ</title>
<path fill="none" stroke="black" d="M1269.7,-63.66C1228.06,-56.93 1161.98,-48 1104.38,-48 466,-48 466,-48 466,-48 437.31,-48 407.35,-60.06 384.6,-72.1"/>
<polygon fill="black" stroke="black" points="383.07,-68.94 376.02,-76.85 386.46,-75.07 383.07,-68.94"/>
<text xml:space="preserve" text-anchor="middle" x="816.25" y="-51.2" font-family="Times New Roman,serif" font-size="14.00">advance window</text>
</g>
<!-- LOCAL_BWD&#45;&gt;LOCAL_BWD -->
<g id="edge15" class="edge">
<title>LOCAL_BWD&#45;&gt;LOCAL_BWD</title>
<path fill="none" stroke="black" d="M1297.31,-89.15C1295.03,-98.54 1299.97,-107 1312.12,-107 1318.96,-107 1323.51,-104.32 1325.78,-100.31"/>
<polygon fill="black" stroke="black" points="1329.23,-100.97 1326.78,-90.66 1322.27,-100.25 1329.23,-100.97"/>
<text xml:space="preserve" text-anchor="middle" x="1312.12" y="-110.2" font-family="Times New Roman,serif" font-size="14.00">next pair</text>
</g>
<!-- FINISH -->
<g id="node10" class="node">
<title>FINISH</title>
<path fill="#ead1dc" stroke="#555555" d="M1475.75,-36C1475.75,-36 1445.75,-36 1445.75,-36 1439.75,-36 1433.75,-30 1433.75,-24 1433.75,-24 1433.75,-12 1433.75,-12 1433.75,-6 1439.75,0 1445.75,0 1445.75,0 1475.75,0 1475.75,0 1481.75,0 1487.75,-6 1487.75,-12 1487.75,-12 1487.75,-24 1487.75,-24 1487.75,-30 1481.75,-36 1475.75,-36"/>
<text xml:space="preserve" text-anchor="middle" x="1460.75" y="-14.3" font-family="Helvetica,sans-Serif" font-size="11.00">FINISH</text>
</g>
<!-- LOCAL_BWD&#45;&gt;FINISH -->
<g id="edge17" class="edge">
<title>LOCAL_BWD&#45;&gt;FINISH</title>
<path fill="none" stroke="black" d="M1354.75,-55.95C1376.14,-48.22 1401.98,-38.88 1422.67,-31.4"/>
<polygon fill="black" stroke="black" points="1423.64,-34.77 1431.85,-28.08 1421.26,-28.19 1423.64,-34.77"/>
<text xml:space="preserve" text-anchor="middle" x="1394" y="-52.45" font-family="Times New Roman,serif" font-size="14.00">last pair</text>
</g>
<!-- FINISH&#45;&gt;IDLE -->
<g id="edge18" class="edge">
<title>FINISH&#45;&gt;IDLE</title>
<path fill="none" stroke="black" d="M1433.36,-13.37C1404.07,-8.65 1355.38,-2 1313.12,-2 197.75,-2 197.75,-2 197.75,-2 150.64,-2 98.65,-18.71 64.78,-31.99"/>
<polygon fill="black" stroke="black" points="63.82,-28.6 55.85,-35.59 66.43,-35.1 63.82,-28.6"/>
</g>
</g>
</svg>
