<?xml version="1.0" encoding="UTF-8" standalone="no"?>
<!DOCTYPE svg PUBLIC "-//W3C//DTD SVG 1.1//EN"
 "http://www.w3.org/Graphics/SVG/1.1/DTD/svg11.dtd">
<!-- Generated by graphviz version 14.1.2 (0)
 -->
<!-- Title: G Pages: 1 -->
<svg width="799pt" height="308pt"
 viewBox="0.00 0.00 799.00 308.00" xmlns="http://www.w3.org/2000/svg" xmlns:xlink="http://www.w3.org/1999/xlink">
<g id="graph0" class="graph" transform="scale(1 1) rotate(0) translate(4 303.75)">
<title>G</title>
<polygon fill="white" stroke="none" points="-4,4 -4,-303.75 794.5,-303.75 794.5,4 -4,4"/>
<text xml:space="preserve" text-anchor="middle" x="395.25" y="-276.75" font-family="Helvetica,sans-Serif" font-size="20.00">siso_maxlogmap &#45; Index and Address Control (Updated)</text>
<!-- setup -->
<g id="node1" class="node">
<title>setup</title>
<path fill="#d0e0e3" stroke="#555555" d="M360.62,-203.5C360.62,-203.5 429.88,-203.5 429.88,-203.5 435.88,-203.5 441.88,-209.5 441.88,-215.5 441.88,-215.5 441.88,-256 441.88,-256 441.88,-262 435.88,-268 429.88,-268 429.88,-268 360.62,-268 360.62,-268 354.62,-268 348.62,-262 348.62,-256 348.62,-256 348.62,-215.5 348.62,-215.5 348.62,-209.5 354.62,-203.5 360.62,-203.5"/>
<text xml:space="preserve" text-anchor="middle" x="395.25" y="-253.55" font-family="Helvetica,sans-Serif" font-size="11.00">Setup Registers</text>
<polyline fill="none" stroke="#555555" points="348.62,-246.5 441.88,-246.5"/>
<text xml:space="preserve" text-anchor="middle" x="395.25" y="-232.05" font-family="Helvetica,sans-Serif" font-size="11.00">pair_cnt</text>
<polyline fill="none" stroke="#555555" points="348.62,-225 441.88,-225"/>
<text xml:space="preserve" text-anchor="middle" x="395.25" y="-210.55" font-family="Helvetica,sans-Serif" font-size="11.00">win_cnt</text>
</g>
<!-- idx -->
<g id="node2" class="node">
<title>idx</title>
<path fill="#fff2cc" stroke="#555555" d="M352.75,-80.5C352.75,-80.5 437.75,-80.5 437.75,-80.5 443.75,-80.5 449.75,-86.5 449.75,-92.5 449.75,-92.5 449.75,-154.5 449.75,-154.5 449.75,-160.5 443.75,-166.5 437.75,-166.5 437.75,-166.5 352.75,-166.5 352.75,-166.5 346.75,-166.5 340.75,-160.5 340.75,-154.5 340.75,-154.5 340.75,-92.5 340.75,-92.5 340.75,-86.5 346.75,-80.5 352.75,-80.5"/>
<text xml:space="preserve" text-anchor="middle" x="395.25" y="-152.05" font-family="Helvetica,sans-Serif" font-size="11.00">Traversal Registers</text>
<polyline fill="none" stroke="#555555" points="340.75,-145 449.75,-145"/>
<text xml:space="preserve" text-anchor="middle" x="395.25" y="-130.55" font-family="Helvetica,sans-Serif" font-size="11.00">load_idx</text>
<polyline fill="none" stroke="#555555" points="340.75,-123.5 449.75,-123.5"/>
<text xml:space="preserve" text-anchor="middle" x="395.25" y="-109.05" font-family="Helvetica,sans-Serif" font-size="11.00">work_win_idx</text>
<polyline fill="none" stroke="#555555" points="340.75,-102 449.75,-102"/>
<text xml:space="preserve" text-anchor="middle" x="395.25" y="-87.55" font-family="Helvetica,sans-Serif" font-size="11.00">work_local_idx</text>
</g>
<!-- setup&#45;&gt;idx -->
<g id="edge1" class="edge">
<title>setup&#45;&gt;idx</title>
<path fill="none" stroke="black" d="M395.25,-203.16C395.25,-195.37 395.25,-186.81 395.25,-178.3"/>
<polygon fill="black" stroke="black" points="398.75,-178.3 395.25,-168.3 391.75,-178.3 398.75,-178.3"/>
</g>
<!-- addr0 -->
<g id="node3" class="node">
<title>addr0</title>
<path fill="#d9ead3" stroke="#555555" d="M12,-0.5C12,-0.5 230.5,-0.5 230.5,-0.5 236.5,-0.5 242.5,-6.5 242.5,-12.5 242.5,-12.5 242.5,-31.5 242.5,-31.5 242.5,-37.5 236.5,-43.5 230.5,-43.5 230.5,-43.5 12,-43.5 12,-43.5 6,-43.5 0,-37.5 0,-31.5 0,-31.5 0,-12.5 0,-12.5 0,-6.5 6,-0.5 12,-0.5"/>
<text xml:space="preserve" text-anchor="middle" x="121.25" y="-29.05" font-family="Helvetica,sans-Serif" font-size="11.00">Current Window Pair Address</text>
<polyline fill="none" stroke="#555555" points="0,-22 242.5,-22"/>
<text xml:space="preserve" text-anchor="middle" x="121.25" y="-7.55" font-family="Helvetica,sans-Serif" font-size="11.00">work_win_idx * C_PAIR_WIN + work_local_idx</text>
</g>
<!-- idx&#45;&gt;addr0 -->
<g id="edge2" class="edge">
<title>idx&#45;&gt;addr0</title>
<path fill="none" stroke="black" d="M340.46,-102.6C296.99,-86.82 236.01,-64.67 189.39,-47.75"/>
<polygon fill="black" stroke="black" points="190.79,-44.53 180.2,-44.41 188.41,-51.11 190.79,-44.53"/>
</g>
<!-- addr1 -->
<g id="node4" class="node">
<title>addr1</title>
<path fill="#f4cccc" stroke="#555555" d="M272.88,-0.5C272.88,-0.5 517.62,-0.5 517.62,-0.5 523.62,-0.5 529.62,-6.5 529.62,-12.5 529.62,-12.5 529.62,-31.5 529.62,-31.5 529.62,-37.5 523.62,-43.5 517.62,-43.5 517.62,-43.5 272.88,-43.5 272.88,-43.5 266.88,-43.5 260.88,-37.5 260.88,-31.5 260.88,-31.5 260.88,-12.5 260.88,-12.5 260.88,-6.5 266.88,-0.5 272.88,-0.5"/>
<text xml:space="preserve" text-anchor="middle" x="395.25" y="-29.05" font-family="Helvetica,sans-Serif" font-size="11.00">Next Window Dummy Address</text>
<polyline fill="none" stroke="#555555" points="260.88,-22 529.62,-22"/>
<text xml:space="preserve" text-anchor="middle" x="395.25" y="-7.55" font-family="Helvetica,sans-Serif" font-size="11.00">(work_win_idx + 1) * C_PAIR_WIN + work_local_idx</text>
</g>
<!-- idx&#45;&gt;addr1 -->
<g id="edge3" class="edge">
<title>idx&#45;&gt;addr1</title>
<path fill="none" stroke="black" d="M395.25,-80.01C395.25,-71.74 395.25,-63.18 395.25,-55.3"/>
<polygon fill="black" stroke="black" points="398.75,-55.49 395.25,-45.49 391.75,-55.49 398.75,-55.49"/>
</g>
<!-- outidx -->
<g id="node5" class="node">
<title>outidx</title>
<path fill="#fce5cd" stroke="#555555" d="M560,-0.5C560,-0.5 778.5,-0.5 778.5,-0.5 784.5,-0.5 790.5,-6.5 790.5,-12.5 790.5,-12.5 790.5,-31.5 790.5,-31.5 790.5,-37.5 784.5,-43.5 778.5,-43.5 778.5,-43.5 560,-43.5 560,-43.5 554,-43.5 548,-37.5 548,-31.5 548,-31.5 548,-12.5 548,-12.5 548,-6.5 554,-0.5 560,-0.5"/>
<text xml:space="preserve" text-anchor="middle" x="669.25" y="-29.05" font-family="Helvetica,sans-Serif" font-size="11.00">Output Pair Index</text>
<polyline fill="none" stroke="#555555" points="548,-22 790.5,-22"/>
<text xml:space="preserve" text-anchor="middle" x="669.25" y="-7.55" font-family="Helvetica,sans-Serif" font-size="11.00">work_win_idx * C_PAIR_WIN + work_local_idx</text>
</g>
<!-- idx&#45;&gt;outidx -->
<g id="edge4" class="edge">
<title>idx&#45;&gt;outidx</title>
<path fill="none" stroke="black" d="M450.04,-102.6C493.51,-86.82 554.49,-64.67 601.11,-47.75"/>
<polygon fill="black" stroke="black" points="602.09,-51.11 610.3,-44.41 599.71,-44.53 602.09,-51.11"/>
</g>
</g>
</svg>
