<?xml version="1.0" encoding="UTF-8" standalone="no"?>
<!DOCTYPE svg PUBLIC "-//W3C//DTD SVG 1.1//EN"
 "http://www.w3.org/Graphics/SVG/1.1/DTD/svg11.dtd">
<!-- Generated by graphviz version 14.1.2 (0)
 -->
<!-- Title: G Pages: 1 -->
<svg width="641pt" height="810pt"
 viewBox="0.00 0.00 641.00 810.00" xmlns="http://www.w3.org/2000/svg" xmlns:xlink="http://www.w3.org/1999/xlink">
<g id="graph0" class="graph" transform="scale(1 1) rotate(0) translate(4 805.75)">
<title>G</title>
<polygon fill="white" stroke="none" points="-4,4 -4,-805.75 636.5,-805.75 636.5,4 -4,4"/>
<text xml:space="preserve" text-anchor="middle" x="316.25" y="-778.75" font-family="Helvetica,sans-Serif" font-size="20.00">siso_maxlogmap &#45; Deep FSM Control (Updated)</text>
<!-- IDLE -->
<g id="node1" class="node">
<title>IDLE</title>
<path fill="#d0e0e3" stroke="#555555" d="M508.5,-770.5C508.5,-770.5 478.5,-770.5 478.5,-770.5 472.5,-770.5 466.5,-764.5 466.5,-758.5 466.5,-758.5 466.5,-746.5 466.5,-746.5 466.5,-740.5 472.5,-734.5 478.5,-734.5 478.5,-734.5 508.5,-734.5 508.5,-734.5 514.5,-734.5 520.5,-740.5 520.5,-746.5 520.5,-746.5 520.5,-758.5 520.5,-758.5 520.5,-764.5 514.5,-770.5 508.5,-770.5"/>
<text xml:space="preserve" text-anchor="middle" x="493.5" y="-748.8" font-family="Helvetica,sans-Serif" font-size="11.00">IDLE</text>
</g>
<!-- LOAD -->
<g id="node2" class="node">
<title>LOAD</title>
<path fill="#e8f0fe" stroke="#555555" d="M423.5,-682C423.5,-682 393.5,-682 393.5,-682 387.5,-682 381.5,-676 381.5,-670 381.5,-670 381.5,-658 381.5,-658 381.5,-652 387.5,-646 393.5,-646 393.5,-646 423.5,-646 423.5,-646 429.5,-646 435.5,-652 435.5,-658 435.5,-658 435.5,-670 435.5,-670 435.5,-676 429.5,-682 423.5,-682"/>
<text xml:space="preserve" text-anchor="middle" x="408.5" y="-660.3" font-family="Helvetica,sans-Serif" font-size="11.00">LOAD</text>
</g>
<!-- IDLE&#45;&gt;LOAD -->
<g id="edge1" class="edge">
<title>IDLE&#45;&gt;LOAD</title>
<path fill="none" stroke="black" d="M466.39,-747.94C447.11,-743.84 422.47,-735.1 409.75,-716.5 405.21,-709.85 403.7,-701.51 403.67,-693.49"/>
<polygon fill="black" stroke="black" points="407.14,-693.93 404.37,-683.71 400.16,-693.43 407.14,-693.93"/>
<text xml:space="preserve" text-anchor="middle" x="444.62" y="-703.2" font-family="Times New Roman,serif" font-size="14.00">legacy mode</text>
</g>
<!-- FWD_REQ -->
<g id="node3" class="node">
<title>FWD_REQ</title>
<path fill="#fff2cc" stroke="#555555" d="M432.25,-593.5C432.25,-593.5 384.75,-593.5 384.75,-593.5 378.75,-593.5 372.75,-587.5 372.75,-581.5 372.75,-581.5 372.75,-569.5 372.75,-569.5 372.75,-563.5 378.75,-557.5 384.75,-557.5 384.75,-557.5 432.25,-557.5 432.25,-557.5 438.25,-557.5 444.25,-563.5 444.25,-569.5 444.25,-569.5 444.25,-581.5 444.25,-581.5 444.25,-587.5 438.25,-593.5 432.25,-593.5"/>
<text xml:space="preserve" text-anchor="middle" x="408.5" y="-571.8" font-family="Helvetica,sans-Serif" font-size="11.00">FWD_REQ</text>
</g>
<!-- IDLE&#45;&gt;FWD_REQ -->
<g id="edge2" class="edge">
<title>IDLE&#45;&gt;FWD_REQ</title>
<path fill="none" stroke="black" d="M491.14,-734.2C486.67,-706.32 474.95,-650.63 448.5,-611.5 446.19,-608.09 443.48,-604.8 440.56,-601.7"/>
<polygon fill="black" stroke="black" points="443.25,-599.43 433.62,-595.02 438.4,-604.48 443.25,-599.43"/>
<text xml:space="preserve" text-anchor="middle" x="517.98" y="-658.95" font-family="Times New Roman,serif" font-size="14.00">external mode</text>
</g>
<!-- LOAD&#45;&gt;FWD_REQ -->
<g id="edge3" class="edge">
<title>LOAD&#45;&gt;FWD_REQ</title>
<path fill="none" stroke="black" d="M408.5,-645.91C408.5,-634.26 408.5,-618.55 408.5,-605.02"/>
<polygon fill="black" stroke="black" points="412,-605.36 408.5,-595.36 405,-605.36 412,-605.36"/>
<text xml:space="preserve" text-anchor="middle" x="426.5" y="-614.7" font-family="Times New Roman,serif" font-size="14.00">loaded</text>
</g>
<!-- FWD_WAIT -->
<g id="node4" class="node">
<title>FWD_WAIT</title>
<path fill="#fff2cc" stroke="#555555" d="M226.75,-520.5C226.75,-520.5 176.25,-520.5 176.25,-520.5 170.25,-520.5 164.25,-514.5 164.25,-508.5 164.25,-508.5 164.25,-496.5 164.25,-496.5 164.25,-490.5 170.25,-484.5 176.25,-484.5 176.25,-484.5 226.75,-484.5 226.75,-484.5 232.75,-484.5 238.75,-490.5 238.75,-496.5 238.75,-496.5 238.75,-508.5 238.75,-508.5 238.75,-514.5 232.75,-520.5 226.75,-520.5"/>
<text xml:space="preserve" text-anchor="middle" x="201.5" y="-498.8" font-family="Helvetica,sans-Serif" font-size="11.00">FWD_WAIT</text>
</g>
<!-- FWD_REQ&#45;&gt;FWD_WAIT -->
<g id="edge4" class="edge">
<title>FWD_REQ&#45;&gt;FWD_WAIT</title>
<path fill="none" stroke="black" d="M372.54,-569.26C341.94,-564.05 297.25,-554.61 260.5,-539.5 252.15,-536.07 243.61,-531.54 235.72,-526.87"/>
<polygon fill="black" stroke="black" points="237.76,-524.01 227.41,-521.73 234.07,-529.96 237.76,-524.01"/>
</g>
<!-- FWD_STEP -->
<g id="node5" class="node">
<title>FWD_STEP</title>
<path fill="#d9ead3" stroke="#555555" d="M300.88,-447.5C300.88,-447.5 248.12,-447.5 248.12,-447.5 242.12,-447.5 236.12,-441.5 236.12,-435.5 236.12,-435.5 236.12,-423.5 236.12,-423.5 236.12,-417.5 242.12,-411.5 248.12,-411.5 248.12,-411.5 300.88,-411.5 300.88,-411.5 306.88,-411.5 312.88,-417.5 312.88,-423.5 312.88,-423.5 312.88,-435.5 312.88,-435.5 312.88,-441.5 306.88,-447.5 300.88,-447.5"/>
<text xml:space="preserve" text-anchor="middle" x="274.5" y="-425.8" font-family="Helvetica,sans-Serif" font-size="11.00">FWD_STEP</text>
</g>
<!-- FWD_REQ&#45;&gt;FWD_STEP -->
<g id="edge5" class="edge">
<title>FWD_REQ&#45;&gt;FWD_STEP</title>
<path fill="none" stroke="black" stroke-dasharray="5,2" d="M372.46,-567.78C345.22,-560.75 309.2,-546.9 289,-520.5 275.76,-503.2 272.57,-478.48 272.44,-459.33"/>
<polygon fill="black" stroke="black" points="275.94,-459.55 272.68,-449.47 268.94,-459.39 275.94,-459.55"/>
<text xml:space="preserve" text-anchor="middle" x="337.75" y="-497.45" font-family="Times New Roman,serif" font-size="14.00">legacy RAM path</text>
</g>
<!-- FWD_WAIT&#45;&gt;FWD_STEP -->
<g id="edge6" class="edge">
<title>FWD_WAIT&#45;&gt;FWD_STEP</title>
<path fill="none" stroke="black" d="M219.17,-484.31C227.98,-475.74 238.81,-465.21 248.54,-455.74"/>
<polygon fill="black" stroke="black" points="250.93,-458.31 255.65,-448.83 246.04,-453.29 250.93,-458.31"/>
</g>
<!-- FWD_STEP&#45;&gt;FWD_REQ -->
<g id="edge7" class="edge">
<title>FWD_STEP&#45;&gt;FWD_REQ</title>
<path fill="none" stroke="black" d="M313.35,-440.02C337.79,-447.97 368.09,-461.77 386.5,-484.5 400.52,-501.81 405.81,-526.72 407.71,-545.95"/>
<polygon fill="black" stroke="black" points="404.21,-546.11 408.41,-555.84 411.19,-545.62 404.21,-546.11"/>
<text xml:space="preserve" text-anchor="middle" x="440.92" y="-497.45" font-family="Times New Roman,serif" font-size="14.00">same window</text>
</g>
<!-- DUMMY_REQ -->
<g id="node6" class="node">
<title>DUMMY_REQ</title>
<path fill="#f4cccc" stroke="#555555" d="M226.5,-359C226.5,-359 162.5,-359 162.5,-359 156.5,-359 150.5,-353 150.5,-347 150.5,-347 150.5,-335 150.5,-335 150.5,-329 156.5,-323 162.5,-323 162.5,-323 226.5,-323 226.5,-323 232.5,-323 238.5,-329 238.5,-335 238.5,-335 238.5,-347 238.5,-347 238.5,-353 232.5,-359 226.5,-359"/>
<text xml:space="preserve" text-anchor="middle" x="194.5" y="-337.3" font-family="Helvetica,sans-Serif" font-size="11.00">DUMMY_REQ</text>
</g>
<!-- FWD_STEP&#45;&gt;DUMMY_REQ -->
<g id="edge8" class="edge">
<title>FWD_STEP&#45;&gt;DUMMY_REQ</title>
<path fill="none" stroke="black" d="M258.69,-411.41C247.16,-398.93 231.31,-381.8 218.25,-367.68"/>
<polygon fill="black" stroke="black" points="220.93,-365.43 211.57,-360.46 215.79,-370.18 220.93,-365.43"/>
<text xml:space="preserve" text-anchor="middle" x="294.17" y="-380.2" font-family="Times New Roman,serif" font-size="14.00">next window exists</text>
</g>
<!-- LOCAL_BWD -->
<g id="node9" class="node">
<title>LOCAL_BWD</title>
<path fill="#fce5cd" stroke="#555555" d="M487.62,-124.5C487.62,-124.5 427.38,-124.5 427.38,-124.5 421.38,-124.5 415.38,-118.5 415.38,-112.5 415.38,-112.5 415.38,-100.5 415.38,-100.5 415.38,-94.5 421.38,-88.5 427.38,-88.5 427.38,-88.5 487.62,-88.5 487.62,-88.5 493.62,-88.5 499.62,-94.5 499.62,-100.5 499.62,-100.5 499.62,-112.5 499.62,-112.5 499.62,-118.5 493.62,-124.5 487.62,-124.5"/>
<text xml:space="preserve" text-anchor="middle" x="457.5" y="-102.8" font-family="Helvetica,sans-Serif" font-size="11.00">LOCAL_BWD</text>
</g>
<!-- FWD_STEP&#45;&gt;LOCAL_BWD -->
<g id="edge9" class="edge">
<title>FWD_STEP&#45;&gt;LOCAL_BWD</title>
<path fill="none" stroke="black" d="M313.09,-422.4C355.74,-413.2 418.5,-391.29 418.5,-342 418.5,-342 418.5,-342 418.5,-194 418.5,-172.58 428.56,-150.61 438.46,-134.17"/>
<polygon fill="black" stroke="black" points="441.26,-136.29 443.7,-125.97 435.36,-132.51 441.26,-136.29"/>
<text xml:space="preserve" text-anchor="middle" x="451.5" y="-262.95" font-family="Times New Roman,serif" font-size="14.00">last window</text>
</g>
<!-- DUMMY_WAIT -->
<g id="node7" class="node">
<title>DUMMY_WAIT</title>
<path fill="#f4cccc" stroke="#555555" d="M79,-286C79,-286 12,-286 12,-286 6,-286 0,-280 0,-274 0,-274 0,-262 0,-262 0,-256 6,-250 12,-250 12,-250 79,-250 79,-250 85,-250 91,-256 91,-262 91,-262 91,-274 91,-274 91,-280 85,-286 79,-286"/>
<text xml:space="preserve" text-anchor="middle" x="45.5" y="-264.3" font-family="Helvetica,sans-Serif" font-size="11.00">DUMMY_WAIT</text>
</g>
<!-- DUMMY_REQ&#45;&gt;DUMMY_WAIT -->
<g id="edge10" class="edge">
<title>DUMMY_REQ&#45;&gt;DUMMY_WAIT</title>
<path fill="none" stroke="black" d="M152.59,-322.64C139.94,-317.2 126.07,-311.03 113.5,-305 104.84,-300.85 95.69,-296.19 87,-291.63"/>
<polygon fill="black" stroke="black" points="88.87,-288.67 78.4,-287.08 85.6,-294.86 88.87,-288.67"/>
</g>
<!-- DUMMY_STEP -->
<g id="node8" class="node">
<title>DUMMY_STEP</title>
<path fill="#f4cccc" stroke="#555555" d="M210.12,-213C210.12,-213 140.88,-213 140.88,-213 134.88,-213 128.88,-207 128.88,-201 128.88,-201 128.88,-189 128.88,-189 128.88,-183 134.88,-177 140.88,-177 140.88,-177 210.12,-177 210.12,-177 216.12,-177 222.12,-183 222.12,-189 222.12,-189 222.12,-201 222.12,-201 222.12,-207 216.12,-213 210.12,-213"/>
<text xml:space="preserve" text-anchor="middle" x="175.5" y="-191.3" font-family="Helvetica,sans-Serif" font-size="11.00">DUMMY_STEP</text>
</g>
<!-- DUMMY_REQ&#45;&gt;DUMMY_STEP -->
<g id="edge11" class="edge">
<title>DUMMY_REQ&#45;&gt;DUMMY_STEP</title>
<path fill="none" stroke="black" stroke-dasharray="5,2" d="M170.51,-322.54C159.61,-313.1 147.85,-300.42 142,-286 133.43,-264.88 143.56,-240.66 154.87,-222.67"/>
<polygon fill="black" stroke="black" points="157.6,-224.87 160.31,-214.62 151.81,-220.94 157.6,-224.87"/>
<text xml:space="preserve" text-anchor="middle" x="190.75" y="-262.95" font-family="Times New Roman,serif" font-size="14.00">legacy RAM path</text>
</g>
<!-- DUMMY_WAIT&#45;&gt;DUMMY_STEP -->
<g id="edge12" class="edge">
<title>DUMMY_WAIT&#45;&gt;DUMMY_STEP</title>
<path fill="none" stroke="black" d="M77.3,-249.63C94.22,-240.39 115.24,-228.91 133.49,-218.95"/>
<polygon fill="black" stroke="black" points="135.15,-222.03 142.25,-214.16 131.79,-215.88 135.15,-222.03"/>
</g>
<!-- DUMMY_STEP&#45;&gt;DUMMY_REQ -->
<g id="edge13" class="edge">
<title>DUMMY_STEP&#45;&gt;DUMMY_REQ</title>
<path fill="none" stroke="black" d="M205.95,-213.3C218.82,-222.4 232.46,-234.84 239.5,-250 246.24,-264.51 244.95,-270.96 239.5,-286 235.78,-296.28 229.15,-305.98 222.1,-314.24"/>
<polygon fill="black" stroke="black" points="219.63,-311.76 215.44,-321.5 224.78,-316.5 219.63,-311.76"/>
<text xml:space="preserve" text-anchor="middle" x="304.46" y="-262.95" font-family="Times New Roman,serif" font-size="14.00">continue next window</text>
</g>
<!-- DUMMY_STEP&#45;&gt;LOCAL_BWD -->
<g id="edge14" class="edge">
<title>DUMMY_STEP&#45;&gt;LOCAL_BWD</title>
<path fill="none" stroke="black" d="M221.18,-176.57C249.55,-166.05 286.9,-152.74 320.5,-142.5 347.81,-134.18 378.58,-126.2 404.03,-119.96"/>
<polygon fill="black" stroke="black" points="404.58,-123.43 413.48,-117.67 402.93,-116.63 404.58,-123.43"/>
<text xml:space="preserve" text-anchor="middle" x="362.5" y="-145.7" font-family="Times New Roman,serif" font-size="14.00">beta seed ready</text>
</g>
<!-- LOCAL_BWD&#45;&gt;FWD_REQ -->
<g id="edge16" class="edge">
<title>LOCAL_BWD&#45;&gt;FWD_REQ</title>
<path fill="none" stroke="black" d="M476.74,-124.7C492.6,-140.86 512.5,-166.59 512.5,-194 512.5,-503.5 512.5,-503.5 512.5,-503.5 512.5,-533.32 482.98,-551.52 455.39,-562.01"/>
<polygon fill="black" stroke="black" points="454.29,-558.69 446.01,-565.3 456.61,-565.3 454.29,-558.69"/>
<text xml:space="preserve" text-anchor="middle" x="558.25" y="-335.95" font-family="Times New Roman,serif" font-size="14.00">advance window</text>
</g>
<!-- LOCAL_BWD&#45;&gt;LOCAL_BWD -->
<g id="edge15" class="edge">
<title>LOCAL_BWD&#45;&gt;LOCAL_BWD</title>
<path fill="none" stroke="black" d="M499.92,-114.65C510.09,-114.01 517.62,-111.3 517.62,-106.5 517.62,-103.73 515.11,-101.65 511.02,-100.27"/>
<polygon fill="black" stroke="black" points="511.86,-96.86 501.41,-98.61 510.67,-103.76 511.86,-96.86"/>
<text xml:space="preserve" text-anchor="middle" x="541.62" y="-101.45" font-family="Times New Roman,serif" font-size="14.00">next pair</text>
</g>
<!-- FINISH -->
<g id="node10" class="node">
<title>FINISH</title>
<path fill="#ead1dc" stroke="#555555" d="M579.5,-36C579.5,-36 549.5,-36 549.5,-36 543.5,-36 537.5,-30 537.5,-24 537.5,-24 537.5,-12 537.5,-12 537.5,-6 543.5,0 549.5,0 549.5,0 579.5,0 579.5,0 585.5,0 591.5,-6 591.5,-12 591.5,-12 591.5,-24 591.5,-24 591.5,-30 585.5,-36 579.5,-36"/>
<text xml:space="preserve" text-anchor="middle" x="564.5" y="-14.3" font-family="Helvetica,sans-Serif" font-size="11.00">FINISH</text>
</g>
<!-- LOCAL_BWD&#45;&gt;FINISH -->
<g id="edge17" class="edge">
<title>LOCAL_BWD&#45;&gt;FINISH</title>
<path fill="none" stroke="black" d="M478.9,-88.2C494.79,-75.36 516.68,-57.66 534.34,-43.38"/>
<polygon fill="black" stroke="black" points="536.39,-46.23 541.96,-37.22 531.99,-40.78 536.39,-46.23"/>
<text xml:space="preserve" text-anchor="middle" x="542.33" y="-57.2" font-family="Times New Roman,serif" font-size="14.00">last pair</text>
</g>
<!-- FINISH&#45;&gt;IDLE -->
<g id="edge18" class="edge">
<title>FINISH&#45;&gt;IDLE</title>
<path fill="none" stroke="black" d="M589.82,-36.47C609.15,-52.07 632.5,-76.85 632.5,-105.5 632.5,-665 632.5,-665 632.5,-665 632.5,-712.54 573.15,-734.89 532.02,-744.66"/>
<polygon fill="black" stroke="black" points="531.45,-741.2 522.44,-746.77 532.96,-748.04 531.45,-741.2"/>
</g>
</g>
</svg>
