<?xml version="1.0" encoding="UTF-8" standalone="no"?>
<!DOCTYPE svg PUBLIC "-//W3C//DTD SVG 1.1//EN"
 "http://www.w3.org/Graphics/SVG/1.1/DTD/svg11.dtd">
<!-- Generated by graphviz version 14.1.2 (0)
 -->
<!-- Title: G Pages: 1 -->
<svg width="458pt" height="799pt"
 viewBox="0.00 0.00 458.00 799.00" xmlns="http://www.w3.org/2000/svg" xmlns:xlink="http://www.w3.org/1999/xlink">
<g id="graph0" class="graph" transform="scale(1 1) rotate(0) translate(4 795.25)">
<title>G</title>
<polygon fill="white" stroke="none" points="-4,4 -4,-795.25 454.25,-795.25 454.25,4 -4,4"/>
<text xml:space="preserve" text-anchor="middle" x="225.12" y="-768.25" font-family="Helvetica,sans-Serif" font-size="20.00">siso_maxlogmap &#45; State to Action Map (Updated)</text>
<!-- s0 -->
<g id="node1" class="node">
<title>s0</title>
<path fill="#d0e0e3" stroke="#555555" d="M166.12,-679.5C166.12,-679.5 284.12,-679.5 284.12,-679.5 290.12,-679.5 296.12,-685.5 296.12,-691.5 296.12,-691.5 296.12,-747.5 296.12,-747.5 296.12,-753.5 290.12,-759.5 284.12,-759.5 284.12,-759.5 166.12,-759.5 166.12,-759.5 160.12,-759.5 154.12,-753.5 154.12,-747.5 154.12,-747.5 154.12,-691.5 154.12,-691.5 154.12,-685.5 160.12,-679.5 166.12,-679.5"/>
<text xml:space="preserve" text-anchor="middle" x="225.12" y="-746" font-family="Helvetica,sans-Serif" font-size="10.00">IDLE</text>
<polyline fill="none" stroke="#555555" points="154.12,-739.5 296.12,-739.5"/>
<text xml:space="preserve" text-anchor="middle" x="225.12" y="-726" font-family="Helvetica,sans-Serif" font-size="10.00">compute pair_cnt/win_cnt</text>
<polyline fill="none" stroke="#555555" points="154.12,-719.5 296.12,-719.5"/>
<text xml:space="preserve" text-anchor="middle" x="225.12" y="-706" font-family="Helvetica,sans-Serif" font-size="10.00">select start seed</text>
<polyline fill="none" stroke="#555555" points="154.12,-699.5 296.12,-699.5"/>
<text xml:space="preserve" text-anchor="middle" x="225.12" y="-686" font-family="Helvetica,sans-Serif" font-size="10.00">choose LOAD or FWD_REQ</text>
</g>
<!-- s1 -->
<g id="node2" class="node">
<title>s1</title>
<path fill="#e8f0fe" stroke="#555555" d="M167.25,-582.5C167.25,-582.5 283,-582.5 283,-582.5 289,-582.5 295,-588.5 295,-594.5 295,-594.5 295,-630.5 295,-630.5 295,-636.5 289,-642.5 283,-642.5 283,-642.5 167.25,-642.5 167.25,-642.5 161.25,-642.5 155.25,-636.5 155.25,-630.5 155.25,-630.5 155.25,-594.5 155.25,-594.5 155.25,-588.5 161.25,-582.5 167.25,-582.5"/>
<text xml:space="preserve" text-anchor="middle" x="225.12" y="-629" font-family="Helvetica,sans-Serif" font-size="10.00">LOAD</text>
<polyline fill="none" stroke="#555555" points="155.25,-622.5 295,-622.5"/>
<text xml:space="preserve" text-anchor="middle" x="225.12" y="-609" font-family="Helvetica,sans-Serif" font-size="10.00">write legacy segment RAMs</text>
<polyline fill="none" stroke="#555555" points="155.25,-602.5 295,-602.5"/>
<text xml:space="preserve" text-anchor="middle" x="225.12" y="-589" font-family="Helvetica,sans-Serif" font-size="10.00">advance load_idx</text>
</g>
<!-- s0&#45;&gt;s1 -->
<!-- s2 -->
<g id="node3" class="node">
<title>s2</title>
<path fill="#fff2cc" stroke="#555555" d="M162.75,-485.5C162.75,-485.5 287.5,-485.5 287.5,-485.5 293.5,-485.5 299.5,-491.5 299.5,-497.5 299.5,-497.5 299.5,-533.5 299.5,-533.5 299.5,-539.5 293.5,-545.5 287.5,-545.5 287.5,-545.5 162.75,-545.5 162.75,-545.5 156.75,-545.5 150.75,-539.5 150.75,-533.5 150.75,-533.5 150.75,-497.5 150.75,-497.5 150.75,-491.5 156.75,-485.5 162.75,-485.5"/>
<text xml:space="preserve" text-anchor="middle" x="225.12" y="-532" font-family="Helvetica,sans-Serif" font-size="10.00">FWD_REQ/FWD_WAIT</text>
<polyline fill="none" stroke="#555555" points="150.75,-525.5 299.5,-525.5"/>
<text xml:space="preserve" text-anchor="middle" x="225.12" y="-512" font-family="Helvetica,sans-Serif" font-size="10.00">issue/read current&#45;window pair</text>
<polyline fill="none" stroke="#555555" points="150.75,-505.5 299.5,-505.5"/>
<text xml:space="preserve" text-anchor="middle" x="225.12" y="-492" font-family="Helvetica,sans-Serif" font-size="10.00">latch fetched pair</text>
</g>
<!-- s1&#45;&gt;s2 -->
<!-- s3 -->
<g id="node4" class="node">
<title>s3</title>
<path fill="#d9ead3" stroke="#555555" d="M179.25,-368.5C179.25,-368.5 271,-368.5 271,-368.5 277,-368.5 283,-374.5 283,-380.5 283,-380.5 283,-436.5 283,-436.5 283,-442.5 277,-448.5 271,-448.5 271,-448.5 179.25,-448.5 179.25,-448.5 173.25,-448.5 167.25,-442.5 167.25,-436.5 167.25,-436.5 167.25,-380.5 167.25,-380.5 167.25,-374.5 173.25,-368.5 179.25,-368.5"/>
<text xml:space="preserve" text-anchor="middle" x="225.12" y="-435" font-family="Helvetica,sans-Serif" font-size="10.00">FWD_STEP</text>
<polyline fill="none" stroke="#555555" points="167.25,-428.5 283,-428.5"/>
<text xml:space="preserve" text-anchor="middle" x="225.12" y="-415" font-family="Helvetica,sans-Serif" font-size="10.00">compute g0/g1/gamma</text>
<polyline fill="none" stroke="#555555" points="167.25,-408.5 283,-408.5"/>
<text xml:space="preserve" text-anchor="middle" x="225.12" y="-395" font-family="Helvetica,sans-Serif" font-size="10.00">store local caches</text>
<polyline fill="none" stroke="#555555" points="167.25,-388.5 283,-388.5"/>
<text xml:space="preserve" text-anchor="middle" x="225.12" y="-375" font-family="Helvetica,sans-Serif" font-size="10.00">advance alpha</text>
</g>
<!-- s2&#45;&gt;s3 -->
<!-- s4 -->
<g id="node5" class="node">
<title>s4</title>
<path fill="#f4cccc" stroke="#555555" d="M160.88,-291.5C160.88,-291.5 289.38,-291.5 289.38,-291.5 295.38,-291.5 301.38,-297.5 301.38,-303.5 301.38,-303.5 301.38,-319.5 301.38,-319.5 301.38,-325.5 295.38,-331.5 289.38,-331.5 289.38,-331.5 160.88,-331.5 160.88,-331.5 154.88,-331.5 148.88,-325.5 148.88,-319.5 148.88,-319.5 148.88,-303.5 148.88,-303.5 148.88,-297.5 154.88,-291.5 160.88,-291.5"/>
<text xml:space="preserve" text-anchor="middle" x="225.12" y="-318" font-family="Helvetica,sans-Serif" font-size="10.00">DUMMY_REQ/DUMMY_WAIT</text>
<polyline fill="none" stroke="#555555" points="148.88,-311.5 301.38,-311.5"/>
<text xml:space="preserve" text-anchor="middle" x="225.12" y="-298" font-family="Helvetica,sans-Serif" font-size="10.00">issue/read next&#45;window pair</text>
</g>
<!-- s3&#45;&gt;s4 -->
<!-- s5 -->
<g id="node6" class="node">
<title>s5</title>
<path fill="#f4cccc" stroke="#555555" d="M160.88,-194.5C160.88,-194.5 289.38,-194.5 289.38,-194.5 295.38,-194.5 301.38,-200.5 301.38,-206.5 301.38,-206.5 301.38,-242.5 301.38,-242.5 301.38,-248.5 295.38,-254.5 289.38,-254.5 289.38,-254.5 160.88,-254.5 160.88,-254.5 154.88,-254.5 148.88,-248.5 148.88,-242.5 148.88,-242.5 148.88,-206.5 148.88,-206.5 148.88,-200.5 154.88,-194.5 160.88,-194.5"/>
<text xml:space="preserve" text-anchor="middle" x="225.12" y="-241" font-family="Helvetica,sans-Serif" font-size="10.00">DUMMY_STEP</text>
<polyline fill="none" stroke="#555555" points="148.88,-234.5 301.38,-234.5"/>
<text xml:space="preserve" text-anchor="middle" x="225.12" y="-221" font-family="Helvetica,sans-Serif" font-size="10.00">backward ACS on next window</text>
<polyline fill="none" stroke="#555555" points="148.88,-214.5 301.38,-214.5"/>
<text xml:space="preserve" text-anchor="middle" x="225.12" y="-201" font-family="Helvetica,sans-Serif" font-size="10.00">derive beta seed</text>
</g>
<!-- s4&#45;&gt;s5 -->
<!-- s6 -->
<g id="node7" class="node">
<title>s6</title>
<path fill="#fce5cd" stroke="#555555" d="M182.25,-77.5C182.25,-77.5 268,-77.5 268,-77.5 274,-77.5 280,-83.5 280,-89.5 280,-89.5 280,-145.5 280,-145.5 280,-151.5 274,-157.5 268,-157.5 268,-157.5 182.25,-157.5 182.25,-157.5 176.25,-157.5 170.25,-151.5 170.25,-145.5 170.25,-145.5 170.25,-89.5 170.25,-89.5 170.25,-83.5 176.25,-77.5 182.25,-77.5"/>
<text xml:space="preserve" text-anchor="middle" x="225.12" y="-144" font-family="Helvetica,sans-Serif" font-size="10.00">LOCAL_BWD</text>
<polyline fill="none" stroke="#555555" points="170.25,-137.5 280,-137.5"/>
<text xml:space="preserve" text-anchor="middle" x="225.12" y="-124" font-family="Helvetica,sans-Serif" font-size="10.00">extract_pair_precomp</text>
<polyline fill="none" stroke="#555555" points="170.25,-117.5 280,-117.5"/>
<text xml:space="preserve" text-anchor="middle" x="225.12" y="-104" font-family="Helvetica,sans-Serif" font-size="10.00">emit ext/post</text>
<polyline fill="none" stroke="#555555" points="170.25,-97.5 280,-97.5"/>
<text xml:space="preserve" text-anchor="middle" x="225.12" y="-84" font-family="Helvetica,sans-Serif" font-size="10.00">update beta</text>
</g>
<!-- s5&#45;&gt;s6 -->
<!-- s7 -->
<g id="node8" class="node">
<title>s7</title>
<path fill="#ead1dc" stroke="#555555" d="M205.5,-0.5C205.5,-0.5 244.75,-0.5 244.75,-0.5 250.75,-0.5 256.75,-6.5 256.75,-12.5 256.75,-12.5 256.75,-28.5 256.75,-28.5 256.75,-34.5 250.75,-40.5 244.75,-40.5 244.75,-40.5 205.5,-40.5 205.5,-40.5 199.5,-40.5 193.5,-34.5 193.5,-28.5 193.5,-28.5 193.5,-12.5 193.5,-12.5 193.5,-6.5 199.5,-0.5 205.5,-0.5"/>
<text xml:space="preserve" text-anchor="middle" x="225.12" y="-27" font-family="Helvetica,sans-Serif" font-size="10.00">FINISH</text>
<polyline fill="none" stroke="#555555" points="193.5,-20.5 256.75,-20.5"/>
<text xml:space="preserve" text-anchor="middle" x="225.12" y="-7" font-family="Helvetica,sans-Serif" font-size="10.00">pulse done</text>
</g>
<!-- s6&#45;&gt;s7 -->
</g>
</svg>
