<?xml version="1.0" encoding="UTF-8" standalone="no"?>
<!DOCTYPE svg PUBLIC "-//W3C//DTD SVG 1.1//EN"
 "http://www.w3.org/Graphics/SVG/1.1/DTD/svg11.dtd">
<!-- Generated by graphviz version 14.1.2 (0)
 -->
<!-- Title: G Pages: 1 -->
<svg width="570pt" height="634pt"
 viewBox="0.00 0.00 570.00 634.00" xmlns="http://www.w3.org/2000/svg" xmlns:xlink="http://www.w3.org/1999/xlink">
<g id="graph0" class="graph" transform="scale(1 1) rotate(0) translate(4 629.75)">
<title>G</title>
<polygon fill="white" stroke="none" points="-4,4 -4,-629.75 566,-629.75 566,4 -4,4"/>
<text xml:space="preserve" text-anchor="middle" x="281" y="-602.75" font-family="Helvetica,sans-Serif" font-size="20.00">siso_maxlogmap &#45; Internal Control Functional Units (Updated)</text>
<!-- setup -->
<g id="node1" class="node">
<title>setup</title>
<path fill="#d0e0e3" stroke="#555555" d="M231.56,-508C231.56,-508 322.56,-508 322.56,-508 328.56,-508 334.56,-514 334.56,-520 334.56,-520 334.56,-582 334.56,-582 334.56,-588 328.56,-594 322.56,-594 322.56,-594 231.56,-594 231.56,-594 225.56,-594 219.56,-588 219.56,-582 219.56,-582 219.56,-520 219.56,-520 219.56,-514 225.56,-508 231.56,-508"/>
<text xml:space="preserve" text-anchor="middle" x="277.06" y="-579.55" font-family="Helvetica,sans-Serif" font-size="11.00">Segment Setup</text>
<polyline fill="none" stroke="#555555" points="219.56,-572.5 334.56,-572.5"/>
<text xml:space="preserve" text-anchor="middle" x="277.06" y="-558.05" font-family="Helvetica,sans-Serif" font-size="11.00">pair_cnt</text>
<polyline fill="none" stroke="#555555" points="219.56,-551 334.56,-551"/>
<text xml:space="preserve" text-anchor="middle" x="277.06" y="-536.55" font-family="Helvetica,sans-Serif" font-size="11.00">win_cnt</text>
<polyline fill="none" stroke="#555555" points="219.56,-529.5 334.56,-529.5"/>
<text xml:space="preserve" text-anchor="middle" x="277.06" y="-515.05" font-family="Helvetica,sans-Serif" font-size="11.00">start/end seed select</text>
</g>
<!-- load -->
<g id="node2" class="node">
<title>load</title>
<path fill="#e8f0fe" stroke="#555555" d="M125.94,-406.5C125.94,-406.5 252.19,-406.5 252.19,-406.5 258.19,-406.5 264.19,-412.5 264.19,-418.5 264.19,-418.5 264.19,-459 264.19,-459 264.19,-465 258.19,-471 252.19,-471 252.19,-471 125.94,-471 125.94,-471 119.94,-471 113.94,-465 113.94,-459 113.94,-459 113.94,-418.5 113.94,-418.5 113.94,-412.5 119.94,-406.5 125.94,-406.5"/>
<text xml:space="preserve" text-anchor="middle" x="189.06" y="-456.55" font-family="Helvetica,sans-Serif" font-size="11.00">Optional Load Controller</text>
<polyline fill="none" stroke="#555555" points="113.94,-449.5 264.19,-449.5"/>
<text xml:space="preserve" text-anchor="middle" x="189.06" y="-435.05" font-family="Helvetica,sans-Serif" font-size="11.00">LOAD</text>
<polyline fill="none" stroke="#555555" points="113.94,-428 264.19,-428"/>
<text xml:space="preserve" text-anchor="middle" x="189.06" y="-413.55" font-family="Helvetica,sans-Serif" font-size="11.00">legacy segment RAM writes</text>
</g>
<!-- setup&#45;&gt;load -->
<g id="edge1" class="edge">
<title>setup&#45;&gt;load</title>
<path fill="none" stroke="black" d="M243.29,-507.69C236.02,-498.58 228.36,-488.98 221.15,-479.95"/>
<polygon fill="black" stroke="black" points="224.05,-477.97 215.08,-472.34 218.58,-482.34 224.05,-477.97"/>
</g>
<!-- fetch -->
<g id="node3" class="node">
<title>fetch</title>
<path fill="#fff2cc" stroke="#555555" d="M294.06,-406.5C294.06,-406.5 436.06,-406.5 436.06,-406.5 442.06,-406.5 448.06,-412.5 448.06,-418.5 448.06,-418.5 448.06,-459 448.06,-459 448.06,-465 442.06,-471 436.06,-471 436.06,-471 294.06,-471 294.06,-471 288.06,-471 282.06,-465 282.06,-459 282.06,-459 282.06,-418.5 282.06,-418.5 282.06,-412.5 288.06,-406.5 294.06,-406.5"/>
<text xml:space="preserve" text-anchor="middle" x="365.06" y="-456.55" font-family="Helvetica,sans-Serif" font-size="11.00">Fetch Controller</text>
<polyline fill="none" stroke="#555555" points="282.06,-449.5 448.06,-449.5"/>
<text xml:space="preserve" text-anchor="middle" x="365.06" y="-435.05" font-family="Helvetica,sans-Serif" font-size="11.00">FWD_REQ/FWD_WAIT</text>
<polyline fill="none" stroke="#555555" points="282.06,-428 448.06,-428"/>
<text xml:space="preserve" text-anchor="middle" x="365.06" y="-413.55" font-family="Helvetica,sans-Serif" font-size="11.00">DUMMY_REQ/DUMMY_WAIT</text>
</g>
<!-- setup&#45;&gt;fetch -->
<g id="edge2" class="edge">
<title>setup&#45;&gt;fetch</title>
<path fill="none" stroke="black" d="M310.83,-507.69C318.1,-498.58 325.77,-488.98 332.97,-479.95"/>
<polygon fill="black" stroke="black" points="335.55,-482.34 339.05,-472.34 330.07,-477.97 335.55,-482.34"/>
</g>
<!-- trav -->
<g id="node4" class="node">
<title>trav</title>
<path fill="#d9ead3" stroke="#555555" d="M300.81,-305C300.81,-305 429.31,-305 429.31,-305 435.31,-305 441.31,-311 441.31,-317 441.31,-317 441.31,-357.5 441.31,-357.5 441.31,-363.5 435.31,-369.5 429.31,-369.5 429.31,-369.5 300.81,-369.5 300.81,-369.5 294.81,-369.5 288.81,-363.5 288.81,-357.5 288.81,-357.5 288.81,-317 288.81,-317 288.81,-311 294.81,-305 300.81,-305"/>
<text xml:space="preserve" text-anchor="middle" x="365.06" y="-355.05" font-family="Helvetica,sans-Serif" font-size="11.00">Window Traversal Controller</text>
<polyline fill="none" stroke="#555555" points="288.81,-348 441.31,-348"/>
<text xml:space="preserve" text-anchor="middle" x="365.06" y="-333.55" font-family="Helvetica,sans-Serif" font-size="11.00">work_win_idx</text>
<polyline fill="none" stroke="#555555" points="288.81,-326.5 441.31,-326.5"/>
<text xml:space="preserve" text-anchor="middle" x="365.06" y="-312.05" font-family="Helvetica,sans-Serif" font-size="11.00">work_local_idx</text>
</g>
<!-- fetch&#45;&gt;trav -->
<g id="edge3" class="edge">
<title>fetch&#45;&gt;trav</title>
<path fill="none" stroke="black" d="M365.06,-406.27C365.06,-398.28 365.06,-389.57 365.06,-381.12"/>
<polygon fill="black" stroke="black" points="368.56,-381.38 365.06,-371.38 361.56,-381.38 368.56,-381.38"/>
</g>
<!-- roll -->
<g id="node5" class="node">
<title>roll</title>
<path fill="#cfe2f3" stroke="#555555" d="M302.69,-182C302.69,-182 427.44,-182 427.44,-182 433.44,-182 439.44,-188 439.44,-194 439.44,-194 439.44,-256 439.44,-256 439.44,-262 433.44,-268 427.44,-268 427.44,-268 302.69,-268 302.69,-268 296.69,-268 290.69,-262 290.69,-256 290.69,-256 290.69,-194 290.69,-194 290.69,-188 296.69,-182 302.69,-182"/>
<text xml:space="preserve" text-anchor="middle" x="365.06" y="-253.55" font-family="Helvetica,sans-Serif" font-size="11.00">Rolling Boundary Controller</text>
<polyline fill="none" stroke="#555555" points="290.69,-246.5 439.44,-246.5"/>
<text xml:space="preserve" text-anchor="middle" x="365.06" y="-232.05" font-family="Helvetica,sans-Serif" font-size="11.00">alpha_work</text>
<polyline fill="none" stroke="#555555" points="290.69,-225 439.44,-225"/>
<text xml:space="preserve" text-anchor="middle" x="365.06" y="-210.55" font-family="Helvetica,sans-Serif" font-size="11.00">beta_work</text>
<polyline fill="none" stroke="#555555" points="290.69,-203.5 439.44,-203.5"/>
<text xml:space="preserve" text-anchor="middle" x="365.06" y="-189.05" font-family="Helvetica,sans-Serif" font-size="11.00">next_alpha_seed_reg</text>
</g>
<!-- trav&#45;&gt;roll -->
<g id="edge4" class="edge">
<title>trav&#45;&gt;roll</title>
<path fill="none" stroke="black" d="M365.06,-304.66C365.06,-296.87 365.06,-288.31 365.06,-279.8"/>
<polygon fill="black" stroke="black" points="368.56,-279.8 365.06,-269.8 361.56,-279.8 368.56,-279.8"/>
</g>
<!-- cache -->
<g id="node6" class="node">
<title>cache</title>
<path fill="#cfe2f3" stroke="#555555" d="M247.69,-102C247.69,-102 378.44,-102 378.44,-102 384.44,-102 390.44,-108 390.44,-114 390.44,-114 390.44,-133 390.44,-133 390.44,-139 384.44,-145 378.44,-145 378.44,-145 247.69,-145 247.69,-145 241.69,-145 235.69,-139 235.69,-133 235.69,-133 235.69,-114 235.69,-114 235.69,-108 241.69,-102 247.69,-102"/>
<text xml:space="preserve" text-anchor="middle" x="313.06" y="-130.55" font-family="Helvetica,sans-Serif" font-size="11.00">Local Cache Write Controller</text>
<polyline fill="none" stroke="#555555" points="235.69,-123.5 390.44,-123.5"/>
<text xml:space="preserve" text-anchor="middle" x="313.06" y="-109.05" font-family="Helvetica,sans-Serif" font-size="11.00">alpha/g0/g1/gamma/sys/apri</text>
</g>
<!-- roll&#45;&gt;cache -->
<g id="edge5" class="edge">
<title>roll&#45;&gt;cache</title>
<path fill="none" stroke="black" d="M342.86,-181.51C338.28,-172.75 333.54,-163.68 329.22,-155.42"/>
<polygon fill="black" stroke="black" points="332.46,-154.06 324.72,-146.82 326.25,-157.3 332.46,-154.06"/>
</g>
<!-- emit -->
<g id="node7" class="node">
<title>emit</title>
<path fill="#fce5cd" stroke="#555555" d="M303.44,-0.5C303.44,-0.5 426.69,-0.5 426.69,-0.5 432.69,-0.5 438.69,-6.5 438.69,-12.5 438.69,-12.5 438.69,-53 438.69,-53 438.69,-59 432.69,-65 426.69,-65 426.69,-65 303.44,-65 303.44,-65 297.44,-65 291.44,-59 291.44,-53 291.44,-53 291.44,-12.5 291.44,-12.5 291.44,-6.5 297.44,-0.5 303.44,-0.5"/>
<text xml:space="preserve" text-anchor="middle" x="365.06" y="-50.55" font-family="Helvetica,sans-Serif" font-size="11.00">Output Emit Controller</text>
<polyline fill="none" stroke="#555555" points="291.44,-43.5 438.69,-43.5"/>
<text xml:space="preserve" text-anchor="middle" x="365.06" y="-29.05" font-family="Helvetica,sans-Serif" font-size="11.00">LOCAL_BWD</text>
<polyline fill="none" stroke="#555555" points="291.44,-22 438.69,-22"/>
<text xml:space="preserve" text-anchor="middle" x="365.06" y="-7.55" font-family="Helvetica,sans-Serif" font-size="11.00">out_valid/out_pair_idx/done</text>
</g>
<!-- roll&#45;&gt;emit -->
<g id="edge6" class="edge">
<title>roll&#45;&gt;emit</title>
<path fill="none" stroke="black" d="M387.05,-181.85C392,-170.37 396.53,-157.72 399.06,-145.5 403.03,-126.35 403.57,-120.53 399.06,-101.5 396.99,-92.77 393.61,-83.88 389.77,-75.54"/>
<polygon fill="black" stroke="black" points="392.96,-74.08 385.38,-66.67 386.68,-77.19 392.96,-74.08"/>
</g>
<!-- cache&#45;&gt;emit -->
<g id="edge7" class="edge">
<title>cache&#45;&gt;emit</title>
<path fill="none" stroke="black" d="M325.12,-101.92C329.79,-93.94 335.32,-84.52 340.74,-75.26"/>
<polygon fill="black" stroke="black" points="343.75,-77.06 345.78,-66.66 337.71,-73.52 343.75,-77.06"/>
</g>
</g>
</svg>
