<?xml version="1.0" encoding="UTF-8" standalone="no"?>
<!DOCTYPE svg PUBLIC "-//W3C//DTD SVG 1.1//EN"
 "http://www.w3.org/Graphics/SVG/1.1/DTD/svg11.dtd">
<!-- Generated by graphviz version 14.1.2 (0)
 -->
<!-- Title: BATCHER_SLAVE_PERMUTATION_NETWORK_CELL_LEVEL Pages: 1 -->
<svg width="749pt" height="525pt"
 viewBox="0.00 0.00 749.00 525.00" xmlns="http://www.w3.org/2000/svg" xmlns:xlink="http://www.w3.org/1999/xlink">
<g id="graph0" class="graph" transform="scale(1 1) rotate(0) translate(4 520.5)">
<title>BATCHER_SLAVE_PERMUTATION_NETWORK_CELL_LEVEL</title>
<polygon fill="white" stroke="none" points="-4,4 -4,-520.5 745.24,-520.5 745.24,4 -4,4"/>
<!-- title -->
<g id="node1" class="node">
<title>title</title>
<path fill="#eef5fb" stroke="none" d="M432.24,-516.5C432.24,-516.5 272.24,-516.5 272.24,-516.5 266.24,-516.5 260.24,-510.5 260.24,-504.5 260.24,-504.5 260.24,-492.5 260.24,-492.5 260.24,-486.5 266.24,-480.5 272.24,-480.5 272.24,-480.5 432.24,-480.5 432.24,-480.5 438.24,-480.5 444.24,-486.5 444.24,-492.5 444.24,-492.5 444.24,-504.5 444.24,-504.5 444.24,-510.5 438.24,-516.5 432.24,-516.5"/>
<text xml:space="preserve" text-anchor="middle" x="352.24" y="-495" font-family="Helvetica,sans-Serif" font-size="10.00">batcher_slave: Router&#45;Cell Replication</text>
</g>
<!-- note -->
<g id="node2" class="node">
<title>note</title>
<polygon fill="#fff4cc" stroke="#9c6500" points="480.99,-429.5 217.49,-429.5 217.49,-385.5 486.99,-385.5 486.99,-423.5 480.99,-429.5"/>
<polyline fill="none" stroke="#9c6500" points="480.99,-429.5 480.99,-423.5"/>
<polyline fill="none" stroke="#9c6500" points="486.99,-423.5 480.99,-423.5"/>
<text xml:space="preserve" text-anchor="middle" x="352.24" y="-416" font-family="Helvetica,sans-Serif" font-size="10.00">The slave is a bank of per&#45;slot router cells.</text>
<text xml:space="preserve" text-anchor="middle" x="352.24" y="-404" font-family="Helvetica,sans-Serif" font-size="10.00">Generic RTL uses G_P cells; the paper case uses 8 cells.</text>
<text xml:space="preserve" text-anchor="middle" x="352.24" y="-392" font-family="Helvetica,sans-Serif" font-size="10.00">The figure shows the first cells, ..., and the last cell.</text>
</g>
<!-- title&#45;&gt;note -->
<!-- perm_bus -->
<g id="node3" class="node">
<title>perm_bus</title>
<path fill="#d9ebf7" stroke="#1f4e79" d="M156.47,-334.5C156.47,-334.5 46.47,-334.5 46.47,-334.5 40.47,-334.5 31.63,-329.22 28.78,-323.94 28.78,-323.94 5.69,-281.06 5.69,-281.06 2.85,-275.78 6,-270.5 12,-270.5 12,-270.5 122,-270.5 122,-270.5 128,-270.5 136.85,-275.78 139.69,-281.06 139.69,-281.06 162.78,-323.94 162.78,-323.94 165.63,-329.22 162.47,-334.5 156.47,-334.5"/>
<text xml:space="preserve" text-anchor="middle" x="84.24" y="-305" font-family="Helvetica,sans-Serif" font-size="10.00">perm_in</text>
<text xml:space="preserve" text-anchor="middle" x="84.24" y="-293" font-family="Helvetica,sans-Serif" font-size="10.00">8 slices shown</text>
</g>
<!-- note&#45;&gt;perm_bus -->
<!-- data_bus -->
<g id="node4" class="node">
<title>data_bus</title>
<path fill="#d9ebf7" stroke="#1f4e79" d="M729.24,-334.5C729.24,-334.5 562.34,-334.5 562.34,-334.5 556.34,-334.5 546.69,-329.74 543.04,-324.98 543.04,-324.98 508.54,-280.02 508.54,-280.02 504.88,-275.26 507.23,-270.5 513.23,-270.5 513.23,-270.5 680.13,-270.5 680.13,-270.5 686.13,-270.5 695.78,-275.26 699.44,-280.02 699.44,-280.02 733.94,-324.98 733.94,-324.98 737.59,-329.74 735.24,-334.5 729.24,-334.5"/>
<text xml:space="preserve" text-anchor="middle" x="621.24" y="-305" font-family="Helvetica,sans-Serif" font-size="10.00">data_in</text>
<text xml:space="preserve" text-anchor="middle" x="621.24" y="-293" font-family="Helvetica,sans-Serif" font-size="10.00">8 payload lanes shown</text>
</g>
<!-- note&#45;&gt;data_bus -->
<!-- r0 -->
<g id="node5" class="node">
<title>r0</title>
<path fill="#eef5fb" stroke="#1f4e79" d="M191.49,-210C191.49,-210 122.99,-210 122.99,-210 116.99,-210 110.99,-204 110.99,-198 110.99,-198 110.99,-186 110.99,-186 110.99,-180 116.99,-174 122.99,-174 122.99,-174 191.49,-174 191.49,-174 197.49,-174 203.49,-180 203.49,-186 203.49,-186 203.49,-198 203.49,-198 203.49,-204 197.49,-210 191.49,-210"/>
<text xml:space="preserve" text-anchor="middle" x="157.24" y="-194.5" font-family="Helvetica,sans-Serif" font-size="10.00">RouterCell(slot 0)</text>
<text xml:space="preserve" text-anchor="middle" x="157.24" y="-182.5" font-family="Helvetica,sans-Serif" font-size="10.00">1 of 8</text>
</g>
<!-- perm_bus&#45;&gt;r0 -->
<g id="edge4" class="edge">
<title>perm_bus&#45;&gt;r0</title>
<path fill="none" stroke="#1f4e79" d="M82.84,-270.23C82.27,-257.4 81.74,-245.5 81.74,-245.5 81.74,-245.5 81.74,-235 81.74,-235 81.74,-235 100.1,-224.79 118.71,-214.43"/>
<polygon fill="#1f4e79" stroke="#1f4e79" points="119.84,-216.61 124.77,-211.06 117.46,-212.32 119.84,-216.61"/>
<text xml:space="preserve" text-anchor="middle" x="106.49" y="-236.95" font-family="Helvetica,sans-Serif" font-size="9.00">perm slice 0</text>
</g>
<!-- r1 -->
<g id="node6" class="node">
<title>r1</title>
<path fill="#eef5fb" stroke="#1f4e79" d="M492.49,-210C492.49,-210 423.99,-210 423.99,-210 417.99,-210 411.99,-204 411.99,-198 411.99,-198 411.99,-186 411.99,-186 411.99,-180 417.99,-174 423.99,-174 423.99,-174 492.49,-174 492.49,-174 498.49,-174 504.49,-180 504.49,-186 504.49,-186 504.49,-198 504.49,-198 504.49,-204 498.49,-210 492.49,-210"/>
<text xml:space="preserve" text-anchor="middle" x="458.24" y="-194.5" font-family="Helvetica,sans-Serif" font-size="10.00">RouterCell(slot 1)</text>
<text xml:space="preserve" text-anchor="middle" x="458.24" y="-182.5" font-family="Helvetica,sans-Serif" font-size="10.00">2 of 8</text>
</g>
<!-- perm_bus&#45;&gt;r1 -->
<g id="edge5" class="edge">
<title>perm_bus&#45;&gt;r1</title>
<path fill="none" stroke="#1f4e79" d="M141.52,-283.92C164.32,-276.92 185.24,-270.5 185.24,-270.5 185.24,-270.5 386.24,-245.5 386.24,-245.5 386.24,-245.5 407.91,-229.7 427.47,-215.43"/>
<polygon fill="#1f4e79" stroke="#1f4e79" points="428.83,-217.48 433.04,-211.37 425.94,-213.52 428.83,-217.48"/>
<text xml:space="preserve" text-anchor="middle" x="424.76" y="-236.95" font-family="Helvetica,sans-Serif" font-size="9.00">perm slice 1</text>
</g>
<!-- r7 -->
<g id="node8" class="node">
<title>r7</title>
<path fill="#eef5fb" stroke="#1f4e79" d="M316.49,-210C316.49,-210 247.99,-210 247.99,-210 241.99,-210 235.99,-204 235.99,-198 235.99,-198 235.99,-186 235.99,-186 235.99,-180 241.99,-174 247.99,-174 247.99,-174 316.49,-174 316.49,-174 322.49,-174 328.49,-180 328.49,-186 328.49,-186 328.49,-198 328.49,-198 328.49,-204 322.49,-210 316.49,-210"/>
<text xml:space="preserve" text-anchor="middle" x="282.24" y="-194.5" font-family="Helvetica,sans-Serif" font-size="10.00">RouterCell(slot 7)</text>
<text xml:space="preserve" text-anchor="middle" x="282.24" y="-182.5" font-family="Helvetica,sans-Serif" font-size="10.00">8 of 8</text>
</g>
<!-- perm_bus&#45;&gt;r7 -->
<g id="edge6" class="edge">
<title>perm_bus&#45;&gt;r7</title>
<path fill="none" stroke="#1f4e79" d="M135.74,-273.28C169.37,-254.85 212.58,-231.17 243.33,-214.32"/>
<polygon fill="#1f4e79" stroke="#1f4e79" points="244.19,-216.64 249.15,-211.13 241.84,-212.34 244.19,-216.64"/>
<text xml:space="preserve" text-anchor="middle" x="225.72" y="-236.95" font-family="Helvetica,sans-Serif" font-size="9.00">perm slice 7</text>
</g>
<!-- data_bus&#45;&gt;r0 -->
<g id="edge7" class="edge">
<title>data_bus&#45;&gt;r0</title>
<path fill="none" stroke="#1f4e79" d="M503.86,-274.75C492.58,-272.17 485.24,-270.5 485.24,-270.5 485.24,-270.5 329.49,-245.5 329.49,-245.5 329.49,-245.5 262.25,-225.01 211.79,-209.63"/>
<polygon fill="#1f4e79" stroke="#1f4e79" points="212.71,-207.35 205.3,-207.65 211.28,-212.03 212.71,-207.35"/>
<text xml:space="preserve" text-anchor="middle" x="353.86" y="-236.95" font-family="Helvetica,sans-Serif" font-size="9.00">lane bundle</text>
</g>
<!-- data_bus&#45;&gt;r1 -->
<g id="edge8" class="edge">
<title>data_bus&#45;&gt;r1</title>
<path fill="none" stroke="#1f4e79" d="M610.41,-270.2C604.44,-252.95 598.24,-235 598.24,-235 598.24,-235 551.96,-221.12 512.61,-209.31"/>
<polygon fill="#1f4e79" stroke="#1f4e79" points="513.71,-207.09 506.3,-207.42 512.3,-211.78 513.71,-207.09"/>
<text xml:space="preserve" text-anchor="middle" x="625.95" y="-236.95" font-family="Helvetica,sans-Serif" font-size="9.00">lane bundle</text>
</g>
<!-- data_bus&#45;&gt;r7 -->
<g id="edge9" class="edge">
<title>data_bus&#45;&gt;r7</title>
<path fill="none" stroke="#1f4e79" d="M554.45,-270C518.01,-252.81 480.24,-235 480.24,-235 480.24,-235 395.6,-217.05 336.99,-204.62"/>
<polygon fill="#1f4e79" stroke="#1f4e79" points="337.75,-202.27 330.39,-203.21 336.73,-207.06 337.75,-202.27"/>
<text xml:space="preserve" text-anchor="middle" x="525.08" y="-236.95" font-family="Helvetica,sans-Serif" font-size="9.00">lane bundle</text>
</g>
<!-- merge -->
<g id="node9" class="node">
<title>merge</title>
<path fill="#eef5fb" stroke="#1f4e79" d="M325.11,-123C325.11,-123 239.36,-123 239.36,-123 233.36,-123 227.36,-117 227.36,-111 227.36,-111 227.36,-99 227.36,-99 227.36,-93 233.36,-87 239.36,-87 239.36,-87 325.11,-87 325.11,-87 331.11,-87 337.11,-93 337.11,-99 337.11,-99 337.11,-111 337.11,-111 337.11,-117 331.11,-123 325.11,-123"/>
<text xml:space="preserve" text-anchor="middle" x="282.24" y="-107.5" font-family="Helvetica,sans-Serif" font-size="10.00">out_v Merge / Pack</text>
<text xml:space="preserve" text-anchor="middle" x="282.24" y="-95.5" font-family="Helvetica,sans-Serif" font-size="10.00">collect routed outputs</text>
</g>
<!-- r0&#45;&gt;merge -->
<g id="edge13" class="edge">
<title>r0&#45;&gt;merge</title>
<path fill="none" stroke="#1f4e79" d="M182.83,-173.59C202.21,-160.42 228.97,-142.22 249.84,-128.03"/>
<polygon fill="#1f4e79" stroke="#1f4e79" points="251.01,-130.2 255.42,-124.23 248.26,-126.14 251.01,-130.2"/>
</g>
<!-- r1&#45;&gt;merge -->
<g id="edge14" class="edge">
<title>r1&#45;&gt;merge</title>
<path fill="none" stroke="#1f4e79" d="M422.2,-173.59C394.2,-160.07 355.26,-141.27 325.57,-126.93"/>
<polygon fill="#1f4e79" stroke="#1f4e79" points="326.96,-124.88 319.59,-124.04 324.83,-129.29 326.96,-124.88"/>
</g>
<!-- rdots -->
<g id="node7" class="node">
<title>rdots</title>
<path fill="#eef5fb" stroke="none" d="M578.24,-210C578.24,-210 548.24,-210 548.24,-210 542.24,-210 536.24,-204 536.24,-198 536.24,-198 536.24,-186 536.24,-186 536.24,-180 542.24,-174 548.24,-174 548.24,-174 578.24,-174 578.24,-174 584.24,-174 590.24,-180 590.24,-186 590.24,-186 590.24,-198 590.24,-198 590.24,-204 584.24,-210 578.24,-210"/>
<text xml:space="preserve" text-anchor="middle" x="563.24" y="-188.5" font-family="Helvetica,sans-Serif" font-size="10.00">...</text>
</g>
<!-- r7&#45;&gt;merge -->
<g id="edge15" class="edge">
<title>r7&#45;&gt;merge</title>
<path fill="none" stroke="#1f4e79" d="M282.24,-173.8C282.24,-161.78 282.24,-145.52 282.24,-131.94"/>
<polygon fill="#1f4e79" stroke="#1f4e79" points="284.69,-131.98 282.24,-124.98 279.79,-131.98 284.69,-131.98"/>
</g>
<!-- out_bus -->
<g id="node10" class="node">
<title>out_bus</title>
<path fill="#d9ebf7" stroke="#1f4e79" d="M317.41,-36C317.41,-36 266.37,-36 266.37,-36 260.37,-36 251.53,-30.71 248.7,-25.42 248.7,-25.42 240.74,-10.58 240.74,-10.58 237.9,-5.29 241.07,0 247.07,0 247.07,0 298.1,0 298.1,0 304.1,0 312.94,-5.29 315.77,-10.58 315.77,-10.58 323.74,-25.42 323.74,-25.42 326.57,-30.71 323.41,-36 317.41,-36"/>
<text xml:space="preserve" text-anchor="middle" x="282.24" y="-14.5" font-family="Helvetica,sans-Serif" font-size="10.00">data_out</text>
</g>
<!-- merge&#45;&gt;out_bus -->
<g id="edge16" class="edge">
<title>merge&#45;&gt;out_bus</title>
<path fill="none" stroke="#1f4e79" d="M282.24,-86.8C282.24,-74.78 282.24,-58.52 282.24,-44.94"/>
<polygon fill="#1f4e79" stroke="#1f4e79" points="284.69,-44.98 282.24,-37.98 279.79,-44.98 284.69,-44.98"/>
</g>
<!-- mode -->
<g id="node11" class="node">
<title>mode</title>
<path fill="#fce4d6" stroke="#c55a11" d="M457.69,-320.5C457.69,-320.5 267.8,-320.5 267.8,-320.5 261.8,-320.5 250.78,-317.21 245.76,-313.93 245.76,-313.93 210.82,-291.07 210.82,-291.07 205.8,-287.79 206.78,-284.5 212.78,-284.5 212.78,-284.5 402.67,-284.5 402.67,-284.5 408.67,-284.5 419.69,-287.79 424.71,-291.07 424.71,-291.07 459.65,-313.93 459.65,-313.93 464.67,-317.21 463.69,-320.5 457.69,-320.5"/>
<text xml:space="preserve" text-anchor="middle" x="335.24" y="-299" font-family="Helvetica,sans-Serif" font-size="10.00">G_REVERSE to all router cells</text>
</g>
<!-- mode&#45;&gt;r0 -->
<g id="edge10" class="edge">
<title>mode&#45;&gt;r0</title>
<path fill="none" stroke="#1f4e79" d="M286.11,-284.09C239.73,-267.65 177.24,-245.5 177.24,-245.5 177.24,-245.5 171.98,-231.7 166.86,-218.25"/>
<polygon fill="#1f4e79" stroke="#1f4e79" points="169.22,-217.57 164.43,-211.9 164.64,-219.31 169.22,-217.57"/>
</g>
<!-- mode&#45;&gt;r1 -->
<g id="edge11" class="edge">
<title>mode&#45;&gt;r1</title>
<path fill="none" stroke="#1f4e79" d="M378.14,-284.09C418.65,-267.65 473.24,-245.5 473.24,-245.5 473.24,-245.5 473.24,-235 473.24,-235 473.24,-235 470.4,-227.05 467.19,-218.07"/>
<polygon fill="#1f4e79" stroke="#1f4e79" points="469.51,-217.28 464.85,-211.51 464.89,-218.92 469.51,-217.28"/>
</g>
<!-- mode&#45;&gt;r7 -->
<g id="edge12" class="edge">
<title>mode&#45;&gt;r7</title>
<path fill="none" stroke="#1f4e79" d="M325.29,-284.09C315.89,-267.65 303.24,-245.5 303.24,-245.5 303.24,-245.5 297.72,-231.7 292.34,-218.25"/>
<polygon fill="#1f4e79" stroke="#1f4e79" points="294.67,-217.48 289.79,-211.89 290.12,-219.3 294.67,-217.48"/>
</g>
</g>
</svg>
