<?xml version="1.0" encoding="UTF-8" standalone="no"?>
<!DOCTYPE svg PUBLIC "-//W3C//DTD SVG 1.1//EN"
 "http://www.w3.org/Graphics/SVG/1.1/DTD/svg11.dtd">
<!-- Generated by graphviz version 14.1.2 (0)
 -->
<!-- Title: BATCHER_MASTER_COMPARE_SWAP_CELL_LEVEL Pages: 1 -->
<svg width="754pt" height="545pt"
 viewBox="0.00 0.00 754.00 545.00" xmlns="http://www.w3.org/2000/svg" xmlns:xlink="http://www.w3.org/1999/xlink">
<g id="graph0" class="graph" transform="scale(1 1) rotate(0) translate(4 540.5)">
<title>BATCHER_MASTER_COMPARE_SWAP_CELL_LEVEL</title>
<polygon fill="white" stroke="none" points="-4,4 -4,-540.5 749.5,-540.5 749.5,4 -4,4"/>
<!-- title -->
<g id="node1" class="node">
<title>title</title>
<text xml:space="preserve" text-anchor="middle" x="325.5" y="-515" font-family="Helvetica,sans-Serif" font-size="10.00">batcher_master: Compare&#45;Swap Primitive Cell</text>
</g>
<!-- note -->
<g id="node2" class="node">
<title>note</title>
<polygon fill="#fff4cc" stroke="#9c6500" points="418.62,-445.5 226.38,-445.5 226.38,-401.5 424.62,-401.5 424.62,-439.5 418.62,-445.5"/>
<polyline fill="none" stroke="#9c6500" points="418.62,-445.5 418.62,-439.5"/>
<polyline fill="none" stroke="#9c6500" points="424.62,-439.5 418.62,-439.5"/>
<text xml:space="preserve" text-anchor="middle" x="325.5" y="-432" font-family="Helvetica,sans-Serif" font-size="10.00">One cell = 1 comparator + 4 muxes.</text>
<text xml:space="preserve" text-anchor="middle" x="325.5" y="-420" font-family="Helvetica,sans-Serif" font-size="10.00">The full master instantiates 19 such cells.</text>
<text xml:space="preserve" text-anchor="middle" x="325.5" y="-408" font-family="Helvetica,sans-Serif" font-size="10.00">ctrl_out(c_k) is the comparator result.</text>
</g>
<!-- title&#45;&gt;note -->
<!-- addr_l -->
<g id="node3" class="node">
<title>addr_l</title>
<polygon fill="#d9ebf7" stroke="#1f4e79" points="164.4,-346.5 100.93,-346.5 84.6,-310.5 148.07,-310.5 164.4,-346.5"/>
<text xml:space="preserve" text-anchor="middle" x="124.5" y="-325" font-family="Helvetica,sans-Serif" font-size="10.00">addr_L</text>
</g>
<!-- note&#45;&gt;addr_l -->
<!-- addr_r -->
<g id="node4" class="node">
<title>addr_r</title>
<polygon fill="#d9ebf7" stroke="#1f4e79" points="289.38,-346.5 222.76,-346.5 205.62,-310.5 272.24,-310.5 289.38,-346.5"/>
<text xml:space="preserve" text-anchor="middle" x="247.5" y="-325" font-family="Helvetica,sans-Serif" font-size="10.00">addr_R</text>
</g>
<!-- note&#45;&gt;addr_r -->
<!-- lane_l -->
<g id="node5" class="node">
<title>lane_l</title>
<polygon fill="#d9ebf7" stroke="#1f4e79" points="584.73,-255.5 522.32,-255.5 506.27,-219.5 568.68,-219.5 584.73,-255.5"/>
<text xml:space="preserve" text-anchor="middle" x="545.5" y="-234" font-family="Helvetica,sans-Serif" font-size="10.00">lane_L</text>
</g>
<!-- note&#45;&gt;lane_l -->
<!-- lane_r -->
<g id="node6" class="node">
<title>lane_r</title>
<polygon fill="#d9ebf7" stroke="#1f4e79" points="702.72,-255.5 637.15,-255.5 620.28,-219.5 685.85,-219.5 702.72,-255.5"/>
<text xml:space="preserve" text-anchor="middle" x="661.5" y="-234" font-family="Helvetica,sans-Serif" font-size="10.00">lane_R</text>
</g>
<!-- note&#45;&gt;lane_r -->
<!-- cmp -->
<g id="node7" class="node">
<title>cmp</title>
<polygon fill="#fde9d9" stroke="#c55a11" points="312.5,-255.5 285.5,-237.5 312.5,-219.5 339.5,-237.5 312.5,-255.5"/>
<text xml:space="preserve" text-anchor="middle" x="312.5" y="-234" font-family="Helvetica,sans-Serif" font-size="10.00">&gt;</text>
</g>
<!-- addr_l&#45;&gt;cmp -->
<g id="edge6" class="edge">
<title>addr_l&#45;&gt;cmp</title>
<path fill="none" stroke="#1f4e79" d="M150.64,-315.12C187.79,-297.54 255.2,-265.63 290.15,-249.08"/>
<polygon fill="#1f4e79" stroke="#1f4e79" points="290.85,-251.46 296.12,-246.25 288.75,-247.03 290.85,-251.46"/>
</g>
<!-- mux_al -->
<g id="node9" class="node">
<title>mux_al</title>
<polygon fill="#e2f0d9" stroke="#548235" points="75.24,-155 19.76,-155 0,-91 95,-91 75.24,-155"/>
<text xml:space="preserve" text-anchor="middle" x="47.5" y="-125.5" font-family="Helvetica,sans-Serif" font-size="10.00">MUX</text>
<text xml:space="preserve" text-anchor="middle" x="47.5" y="-113.5" font-family="Helvetica,sans-Serif" font-size="10.00">addr&#39;_L</text>
</g>
<!-- addr_l&#45;&gt;mux_al -->
<g id="edge13" class="edge">
<title>addr_l&#45;&gt;mux_al</title>
<path fill="none" stroke="#1f4e79" d="M96.48,-310.07C62.22,-288.76 8.75,-255.5 8.75,-255.5 8.75,-255.5 8.75,-219.5 8.75,-219.5 8.75,-219.5 19.5,-182 19.5,-182 19.5,-182 23.63,-173.45 28.72,-162.91"/>
<polygon fill="#1f4e79" stroke="#1f4e79" points="30.86,-164.11 31.69,-156.74 26.45,-161.98 30.86,-164.11"/>
<text xml:space="preserve" text-anchor="middle" x="15.12" y="-234.2" font-family="Helvetica,sans-Serif" font-size="9.00">in0</text>
</g>
<!-- mux_ar -->
<g id="node10" class="node">
<title>mux_ar</title>
<polygon fill="#e2f0d9" stroke="#548235" points="224.55,-155 166.45,-155 145.75,-91 245.25,-91 224.55,-155"/>
<text xml:space="preserve" text-anchor="middle" x="195.5" y="-125.5" font-family="Helvetica,sans-Serif" font-size="10.00">MUX</text>
<text xml:space="preserve" text-anchor="middle" x="195.5" y="-113.5" font-family="Helvetica,sans-Serif" font-size="10.00">addr&#39;_R</text>
</g>
<!-- addr_l&#45;&gt;mux_ar -->
<g id="edge16" class="edge">
<title>addr_l&#45;&gt;mux_ar</title>
<path fill="none" stroke="#1f4e79" d="M130.55,-310.15C141.82,-277.85 166.28,-207.74 181.76,-163.39"/>
<polygon fill="#1f4e79" stroke="#1f4e79" points="184.05,-164.26 184.04,-156.85 179.42,-162.65 184.05,-164.26"/>
<text xml:space="preserve" text-anchor="middle" x="168.44" y="-234.2" font-family="Helvetica,sans-Serif" font-size="9.00">in1</text>
</g>
<!-- addr_r&#45;&gt;cmp -->
<g id="edge7" class="edge">
<title>addr_r&#45;&gt;cmp</title>
<path fill="none" stroke="#1f4e79" d="M260.03,-310.34C271.23,-295.01 287.59,-272.61 299.06,-256.91"/>
<polygon fill="#1f4e79" stroke="#1f4e79" points="300.9,-258.54 303.05,-251.44 296.94,-255.65 300.9,-258.54"/>
</g>
<!-- addr_r&#45;&gt;mux_al -->
<g id="edge14" class="edge">
<title>addr_r&#45;&gt;mux_al</title>
<path fill="none" stroke="#1f4e79" d="M218.51,-310.07C183.07,-288.76 127.75,-255.5 127.75,-255.5 127.75,-255.5 94.7,-201.35 71.02,-162.55"/>
<polygon fill="#1f4e79" stroke="#1f4e79" points="73.25,-161.49 67.51,-156.79 69.07,-164.04 73.25,-161.49"/>
<text xml:space="preserve" text-anchor="middle" x="134.12" y="-234.2" font-family="Helvetica,sans-Serif" font-size="9.00">in1</text>
</g>
<!-- addr_r&#45;&gt;mux_ar -->
<g id="edge15" class="edge">
<title>addr_r&#45;&gt;mux_ar</title>
<path fill="none" stroke="#1f4e79" d="M243.07,-310.15C234.83,-277.91 216.97,-208.04 205.63,-163.66"/>
<polygon fill="#1f4e79" stroke="#1f4e79" points="208.01,-163.06 203.9,-156.88 203.26,-164.27 208.01,-163.06"/>
<text xml:space="preserve" text-anchor="middle" x="235.36" y="-234.2" font-family="Helvetica,sans-Serif" font-size="9.00">in0</text>
</g>
<!-- mux_ll -->
<g id="node11" class="node">
<title>mux_ll</title>
<polygon fill="#e2f0d9" stroke="#548235" points="591.8,-155 537.2,-155 517.75,-91 611.25,-91 591.8,-155"/>
<text xml:space="preserve" text-anchor="middle" x="564.5" y="-125.5" font-family="Helvetica,sans-Serif" font-size="10.00">MUX</text>
<text xml:space="preserve" text-anchor="middle" x="564.5" y="-113.5" font-family="Helvetica,sans-Serif" font-size="10.00">lane&#39;_L</text>
</g>
<!-- lane_l&#45;&gt;mux_ll -->
<g id="edge17" class="edge">
<title>lane_l&#45;&gt;mux_ll</title>
<path fill="none" stroke="#1f4e79" d="M548.39,-219.41C550.88,-204.64 554.59,-182.7 557.81,-163.58"/>
<polygon fill="#1f4e79" stroke="#1f4e79" points="560.21,-164.12 558.96,-156.81 555.38,-163.3 560.21,-164.12"/>
<text xml:space="preserve" text-anchor="middle" x="560.81" y="-183.95" font-family="Helvetica,sans-Serif" font-size="9.00">in0</text>
</g>
<!-- mux_lr -->
<g id="node12" class="node">
<title>mux_lr</title>
<polygon fill="#e2f0d9" stroke="#548235" points="725.12,-155 667.88,-155 647.5,-91 745.5,-91 725.12,-155"/>
<text xml:space="preserve" text-anchor="middle" x="696.5" y="-125.5" font-family="Helvetica,sans-Serif" font-size="10.00">MUX</text>
<text xml:space="preserve" text-anchor="middle" x="696.5" y="-113.5" font-family="Helvetica,sans-Serif" font-size="10.00">lane&#39;_R</text>
</g>
<!-- lane_l&#45;&gt;mux_lr -->
<g id="edge20" class="edge">
<title>lane_l&#45;&gt;mux_lr</title>
<path fill="none" stroke="#1f4e79" d="M571.5,-224.82C600.54,-211.79 643.5,-192.5 643.5,-192.5 643.5,-192.5 654.99,-177.65 667.27,-161.78"/>
<polygon fill="#1f4e79" stroke="#1f4e79" points="668.9,-163.68 671.25,-156.64 665.02,-160.68 668.9,-163.68"/>
<text xml:space="preserve" text-anchor="middle" x="657.57" y="-183.95" font-family="Helvetica,sans-Serif" font-size="9.00">in1</text>
</g>
<!-- lane_r&#45;&gt;mux_ll -->
<g id="edge18" class="edge">
<title>lane_r&#45;&gt;mux_ll</title>
<path fill="none" stroke="#1f4e79" d="M646.77,-219.41C633.57,-204.11 613.75,-181.11 596.86,-161.54"/>
<polygon fill="#1f4e79" stroke="#1f4e79" points="598.91,-160.16 592.49,-156.46 595.2,-163.36 598.91,-160.16"/>
<text xml:space="preserve" text-anchor="middle" x="628.06" y="-183.95" font-family="Helvetica,sans-Serif" font-size="9.00">in1</text>
</g>
<!-- lane_r&#45;&gt;mux_lr -->
<g id="edge19" class="edge">
<title>lane_r&#45;&gt;mux_lr</title>
<path fill="none" stroke="#1f4e79" d="M676.12,-219.11C686.47,-206.81 698.5,-192.5 698.5,-192.5 698.5,-192.5 698.5,-182 698.5,-182 698.5,-182 698.22,-173.93 697.87,-163.82"/>
<polygon fill="#1f4e79" stroke="#1f4e79" points="700.32,-163.8 697.63,-156.89 695.43,-163.97 700.32,-163.8"/>
<text xml:space="preserve" text-anchor="middle" x="704.88" y="-183.95" font-family="Helvetica,sans-Serif" font-size="9.00">in0</text>
</g>
<!-- ctrl -->
<g id="node8" class="node">
<title>ctrl</title>
<polygon fill="#fce4d6" stroke="#c55a11" points="426.07,-155 310.63,-155 280.93,-91 396.37,-91 426.07,-155"/>
<text xml:space="preserve" text-anchor="middle" x="353.5" y="-125.5" font-family="Helvetica,sans-Serif" font-size="10.00">ctrl_out(c_k)</text>
<text xml:space="preserve" text-anchor="middle" x="353.5" y="-113.5" font-family="Helvetica,sans-Serif" font-size="10.00">= swap</text>
</g>
<!-- cmp&#45;&gt;ctrl -->
<g id="edge8" class="edge">
<title>cmp&#45;&gt;ctrl</title>
<path fill="none" stroke="#1f4e79" d="M317.53,-222.71C322.91,-207.93 331.7,-183.81 339.25,-163.11"/>
<polygon fill="#1f4e79" stroke="#1f4e79" points="341.45,-164.21 341.55,-156.8 336.85,-162.53 341.45,-164.21"/>
<text xml:space="preserve" text-anchor="middle" x="342.65" y="-183.95" font-family="Helvetica,sans-Serif" font-size="9.00">swap</text>
</g>
<!-- cmp&#45;&gt;mux_al -->
<g id="edge9" class="edge">
<title>cmp&#45;&gt;mux_al</title>
<path fill="none" stroke="#1f4e79" d="M296.72,-229.8C256.3,-212.64 148.07,-166.7 88.4,-141.36"/>
<polygon fill="#1f4e79" stroke="#1f4e79" points="89.46,-139.15 82.06,-138.67 87.54,-143.66 89.46,-139.15"/>
<text xml:space="preserve" text-anchor="middle" x="223.24" y="-183.95" font-family="Helvetica,sans-Serif" font-size="9.00">sel=swap</text>
</g>
<!-- cmp&#45;&gt;mux_ar -->
<g id="edge10" class="edge">
<title>cmp&#45;&gt;mux_ar</title>
<path fill="none" stroke="#1f4e79" d="M301.7,-226.12C285.85,-210.87 255.53,-181.72 231.33,-158.46"/>
<polygon fill="#1f4e79" stroke="#1f4e79" points="233.16,-156.81 226.42,-153.73 229.77,-160.35 233.16,-156.81"/>
<text xml:space="preserve" text-anchor="middle" x="283.98" y="-183.95" font-family="Helvetica,sans-Serif" font-size="9.00">sel=swap</text>
</g>
<!-- cmp&#45;&gt;mux_ll -->
<g id="edge11" class="edge">
<title>cmp&#45;&gt;mux_ll</title>
<path fill="none" stroke="#1f4e79" d="M326.83,-228.69C354.48,-213.62 412.5,-182 412.5,-182 412.5,-182 478.26,-156.91 523.28,-139.73"/>
<polygon fill="#1f4e79" stroke="#1f4e79" points="524.06,-142.05 529.73,-137.27 522.32,-137.47 524.06,-142.05"/>
<text xml:space="preserve" text-anchor="middle" x="432" y="-183.95" font-family="Helvetica,sans-Serif" font-size="9.00">sel=swap</text>
</g>
<!-- cmp&#45;&gt;mux_lr -->
<g id="edge12" class="edge">
<title>cmp&#45;&gt;mux_lr</title>
<path fill="none" stroke="#1f4e79" d="M331.01,-231.27C379.31,-217.63 505.5,-182 505.5,-182 505.5,-182 629.5,-155 629.5,-155 629.5,-155 641.24,-149.57 654.89,-143.25"/>
<polygon fill="#1f4e79" stroke="#1f4e79" points="655.91,-145.48 661.23,-140.32 653.85,-141.03 655.91,-145.48"/>
<text xml:space="preserve" text-anchor="middle" x="525" y="-183.95" font-family="Helvetica,sans-Serif" font-size="9.00">sel=swap</text>
</g>
<!-- out_al -->
<g id="node13" class="node">
<title>out_al</title>
<polygon fill="#d9ebf7" stroke="#1f4e79" points="89.38,-36 22.76,-36 5.62,0 72.24,0 89.38,-36"/>
<text xml:space="preserve" text-anchor="middle" x="47.5" y="-14.5" font-family="Helvetica,sans-Serif" font-size="10.00">addr&#39;_L</text>
</g>
<!-- mux_al&#45;&gt;out_al -->
<g id="edge21" class="edge">
<title>mux_al&#45;&gt;out_al</title>
<path fill="none" stroke="#1f4e79" d="M47.5,-90.54C47.5,-75.74 47.5,-58.33 47.5,-44.39"/>
<polygon fill="#1f4e79" stroke="#1f4e79" points="49.95,-44.73 47.5,-37.73 45.05,-44.73 49.95,-44.73"/>
</g>
<!-- out_ar -->
<g id="node14" class="node">
<title>out_ar</title>
<polygon fill="#d9ebf7" stroke="#1f4e79" points="239.36,-36 169.59,-36 151.64,0 221.41,0 239.36,-36"/>
<text xml:space="preserve" text-anchor="middle" x="195.5" y="-14.5" font-family="Helvetica,sans-Serif" font-size="10.00">addr&#39;_R</text>
</g>
<!-- mux_ar&#45;&gt;out_ar -->
<g id="edge22" class="edge">
<title>mux_ar&#45;&gt;out_ar</title>
<path fill="none" stroke="#1f4e79" d="M195.5,-90.54C195.5,-75.74 195.5,-58.33 195.5,-44.39"/>
<polygon fill="#1f4e79" stroke="#1f4e79" points="197.95,-44.73 195.5,-37.73 193.05,-44.73 197.95,-44.73"/>
</g>
<!-- out_ll -->
<g id="node15" class="node">
<title>out_ll</title>
<polygon fill="#d9ebf7" stroke="#1f4e79" points="605.72,-36 540.15,-36 523.28,0 588.85,0 605.72,-36"/>
<text xml:space="preserve" text-anchor="middle" x="564.5" y="-14.5" font-family="Helvetica,sans-Serif" font-size="10.00">lane&#39;_L</text>
</g>
<!-- mux_ll&#45;&gt;out_ll -->
<g id="edge23" class="edge">
<title>mux_ll&#45;&gt;out_ll</title>
<path fill="none" stroke="#1f4e79" d="M564.5,-90.54C564.5,-75.74 564.5,-58.33 564.5,-44.39"/>
<polygon fill="#1f4e79" stroke="#1f4e79" points="566.95,-44.73 564.5,-37.73 562.05,-44.73 566.95,-44.73"/>
</g>
<!-- out_lr -->
<g id="node16" class="node">
<title>out_lr</title>
<polygon fill="#d9ebf7" stroke="#1f4e79" points="739.7,-36 670.98,-36 653.3,0 722.02,0 739.7,-36"/>
<text xml:space="preserve" text-anchor="middle" x="696.5" y="-14.5" font-family="Helvetica,sans-Serif" font-size="10.00">lane&#39;_R</text>
</g>
<!-- mux_lr&#45;&gt;out_lr -->
<g id="edge24" class="edge">
<title>mux_lr&#45;&gt;out_lr</title>
<path fill="none" stroke="#1f4e79" d="M696.5,-90.54C696.5,-75.74 696.5,-58.33 696.5,-44.39"/>
<polygon fill="#1f4e79" stroke="#1f4e79" points="698.95,-44.73 696.5,-37.73 694.05,-44.73 698.95,-44.73"/>
</g>
</g>
</svg>
