<?xml version="1.0" encoding="UTF-8" standalone="no"?>
<!DOCTYPE svg PUBLIC "-//W3C//DTD SVG 1.1//EN"
 "http://www.w3.org/Graphics/SVG/1.1/DTD/svg11.dtd">
<!-- Generated by graphviz version 14.1.2 (0)
 -->
<!-- Title: BATCHER_MASTER_SORTING_NETWORK_CELL_LEVEL Pages: 1 -->
<svg width="683pt" height="1040pt"
 viewBox="0.00 0.00 683.00 1040.00" xmlns="http://www.w3.org/2000/svg" xmlns:xlink="http://www.w3.org/1999/xlink">
<g id="graph0" class="graph" transform="scale(1 1) rotate(0) translate(4 1035.5)">
<title>BATCHER_MASTER_SORTING_NETWORK_CELL_LEVEL</title>
<polygon fill="white" stroke="none" points="-4,4 -4,-1035.5 679,-1035.5 679,4 -4,4"/>
<!-- title -->
<g id="node1" class="node">
<title>title</title>
<path fill="#eef5fb" stroke="none" d="M293.75,-1031.5C293.75,-1031.5 72.25,-1031.5 72.25,-1031.5 66.25,-1031.5 60.25,-1025.5 60.25,-1019.5 60.25,-1019.5 60.25,-1007.5 60.25,-1007.5 60.25,-1001.5 66.25,-995.5 72.25,-995.5 72.25,-995.5 293.75,-995.5 293.75,-995.5 299.75,-995.5 305.75,-1001.5 305.75,-1007.5 305.75,-1007.5 305.75,-1019.5 305.75,-1019.5 305.75,-1025.5 299.75,-1031.5 293.75,-1031.5"/>
<text xml:space="preserve" text-anchor="middle" x="183" y="-1010" font-family="Helvetica,sans-Serif" font-size="10.00">batcher_master: 19&#45;Cell Sorting Network Replication</text>
</g>
<!-- note -->
<g id="node2" class="node">
<title>note</title>
<polygon fill="#fff4cc" stroke="#9c6500" points="312.12,-944.5 47.88,-944.5 47.88,-900.5 318.12,-900.5 318.12,-938.5 312.12,-944.5"/>
<polyline fill="none" stroke="#9c6500" points="312.12,-944.5 312.12,-938.5"/>
<polyline fill="none" stroke="#9c6500" points="318.12,-938.5 312.12,-938.5"/>
<text xml:space="preserve" text-anchor="middle" x="183" y="-931" font-family="Helvetica,sans-Serif" font-size="10.00">Each stage is built from the compare&#45;swap cell.</text>
<text xml:space="preserve" text-anchor="middle" x="183" y="-919" font-family="Helvetica,sans-Serif" font-size="10.00">The figure shows repeated cells with ... where convenient.</text>
<text xml:space="preserve" text-anchor="middle" x="183" y="-907" font-family="Helvetica,sans-Serif" font-size="10.00">Total cells = 19.</text>
</g>
<!-- title&#45;&gt;note -->
<!-- inbus -->
<g id="node3" class="node">
<title>inbus</title>
<path fill="#d9ebf7" stroke="#1f4e79" d="M241.24,-849.5C241.24,-849.5 153.5,-849.5 153.5,-849.5 147.5,-849.5 139.05,-844.03 136.59,-838.55 136.59,-838.55 117.68,-796.45 117.68,-796.45 115.22,-790.97 118.76,-785.5 124.76,-785.5 124.76,-785.5 212.5,-785.5 212.5,-785.5 218.5,-785.5 226.95,-790.97 229.41,-796.45 229.41,-796.45 248.32,-838.55 248.32,-838.55 250.78,-844.03 247.24,-849.5 241.24,-849.5"/>
<text xml:space="preserve" text-anchor="middle" x="183" y="-820" font-family="Helvetica,sans-Serif" font-size="10.00">addr_v(0..7)</text>
<text xml:space="preserve" text-anchor="middle" x="183" y="-808" font-family="Helvetica,sans-Serif" font-size="10.00">lane_v(0..7)</text>
</g>
<!-- note&#45;&gt;inbus -->
<g id="edge2" class="edge">
<title>note&#45;&gt;inbus</title>
<path fill="none" stroke="#1f4e79" d="M183,-900.16C183,-888.04 183,-872.48 183,-858.21"/>
<polygon fill="#1f4e79" stroke="#1f4e79" points="185.45,-858.5 183,-851.5 180.55,-858.5 185.45,-858.5"/>
</g>
<!-- s0a -->
<g id="node4" class="node">
<title>s0a</title>
<path fill="#eef5fb" stroke="#1f4e79" d="M98,-728.5C98,-728.5 68,-728.5 68,-728.5 62,-728.5 56,-722.5 56,-716.5 56,-716.5 56,-696.5 56,-696.5 56,-690.5 62,-684.5 68,-684.5 68,-684.5 98,-684.5 98,-684.5 104,-684.5 110,-690.5 110,-696.5 110,-696.5 110,-716.5 110,-716.5 110,-722.5 104,-728.5 98,-728.5"/>
<text xml:space="preserve" text-anchor="middle" x="83" y="-715" font-family="Helvetica,sans-Serif" font-size="10.00">Stage 0</text>
<text xml:space="preserve" text-anchor="middle" x="83" y="-703" font-family="Helvetica,sans-Serif" font-size="10.00">CS(0,1)</text>
<text xml:space="preserve" text-anchor="middle" x="83" y="-691" font-family="Helvetica,sans-Serif" font-size="10.00">Cell 0</text>
</g>
<!-- inbus&#45;&gt;s0a -->
<g id="edge3" class="edge">
<title>inbus&#45;&gt;s0a</title>
<path fill="none" stroke="#1f4e79" d="M154.34,-785.26C139.67,-769.27 121.98,-749.98 107.88,-734.62"/>
<polygon fill="#1f4e79" stroke="#1f4e79" points="110.03,-733.34 103.5,-729.84 106.42,-736.66 110.03,-733.34"/>
</g>
<!-- s0b -->
<g id="node5" class="node">
<title>s0b</title>
<path fill="#eef5fb" stroke="#1f4e79" d="M284,-728.5C284,-728.5 254,-728.5 254,-728.5 248,-728.5 242,-722.5 242,-716.5 242,-716.5 242,-696.5 242,-696.5 242,-690.5 248,-684.5 254,-684.5 254,-684.5 284,-684.5 284,-684.5 290,-684.5 296,-690.5 296,-696.5 296,-696.5 296,-716.5 296,-716.5 296,-722.5 290,-728.5 284,-728.5"/>
<text xml:space="preserve" text-anchor="middle" x="269" y="-715" font-family="Helvetica,sans-Serif" font-size="10.00">Stage 0</text>
<text xml:space="preserve" text-anchor="middle" x="269" y="-703" font-family="Helvetica,sans-Serif" font-size="10.00">CS(2,3)</text>
<text xml:space="preserve" text-anchor="middle" x="269" y="-691" font-family="Helvetica,sans-Serif" font-size="10.00">Cell 1</text>
</g>
<!-- inbus&#45;&gt;s0b -->
<g id="edge4" class="edge">
<title>inbus&#45;&gt;s0b</title>
<path fill="none" stroke="#1f4e79" d="M207.64,-785.26C220.15,-769.41 235.21,-750.33 247.28,-735.03"/>
<polygon fill="#1f4e79" stroke="#1f4e79" points="248.9,-736.93 251.32,-729.91 245.06,-733.89 248.9,-736.93"/>
</g>
<!-- s0d -->
<g id="node7" class="node">
<title>s0d</title>
<path fill="#eef5fb" stroke="#1f4e79" d="M198,-734.5C198,-734.5 168,-734.5 168,-734.5 162,-734.5 156,-728.5 156,-722.5 156,-722.5 156,-690.5 156,-690.5 156,-684.5 162,-678.5 168,-678.5 168,-678.5 198,-678.5 198,-678.5 204,-678.5 210,-684.5 210,-690.5 210,-690.5 210,-722.5 210,-722.5 210,-728.5 204,-734.5 198,-734.5"/>
<text xml:space="preserve" text-anchor="middle" x="183" y="-721" font-family="Helvetica,sans-Serif" font-size="10.00">Stage 0</text>
<text xml:space="preserve" text-anchor="middle" x="183" y="-709" font-family="Helvetica,sans-Serif" font-size="10.00">CS(6,7)</text>
<text xml:space="preserve" text-anchor="middle" x="183" y="-697" font-family="Helvetica,sans-Serif" font-size="10.00">Cell 3</text>
<text xml:space="preserve" text-anchor="middle" x="183" y="-685" font-family="Helvetica,sans-Serif" font-size="10.00">4 total</text>
</g>
<!-- inbus&#45;&gt;s0d -->
<g id="edge5" class="edge">
<title>inbus&#45;&gt;s0d</title>
<path fill="none" stroke="#1f4e79" d="M183,-785.26C183,-772.03 183,-756.55 183,-742.89"/>
<polygon fill="#1f4e79" stroke="#1f4e79" points="185.45,-743.18 183,-736.18 180.55,-743.18 185.45,-743.18"/>
</g>
<!-- s1a -->
<g id="node8" class="node">
<title>s1a</title>
<path fill="#eef5fb" stroke="#1f4e79" d="M98,-621.5C98,-621.5 68,-621.5 68,-621.5 62,-621.5 56,-615.5 56,-609.5 56,-609.5 56,-589.5 56,-589.5 56,-583.5 62,-577.5 68,-577.5 68,-577.5 98,-577.5 98,-577.5 104,-577.5 110,-583.5 110,-589.5 110,-589.5 110,-609.5 110,-609.5 110,-615.5 104,-621.5 98,-621.5"/>
<text xml:space="preserve" text-anchor="middle" x="83" y="-608" font-family="Helvetica,sans-Serif" font-size="10.00">Stage 1</text>
<text xml:space="preserve" text-anchor="middle" x="83" y="-596" font-family="Helvetica,sans-Serif" font-size="10.00">CS(0,2)</text>
<text xml:space="preserve" text-anchor="middle" x="83" y="-584" font-family="Helvetica,sans-Serif" font-size="10.00">Cell 4</text>
</g>
<!-- s0a&#45;&gt;s1a -->
<g id="edge6" class="edge">
<title>s0a&#45;&gt;s1a</title>
<path fill="none" stroke="#1f4e79" d="M83,-684.25C83,-668.6 83,-647.11 83,-629.82"/>
<polygon fill="#1f4e79" stroke="#1f4e79" points="85.45,-630.23 83,-623.23 80.55,-630.23 85.45,-630.23"/>
</g>
<!-- ctrl -->
<g id="node26" class="node">
<title>ctrl</title>
<path fill="#fce4d6" stroke="#c55a11" d="M303.49,-50C303.49,-50 119.91,-50 119.91,-50 113.91,-50 102.94,-46.65 97.96,-43.29 97.96,-43.29 64.46,-20.71 64.46,-20.71 59.49,-17.35 60.51,-14 66.51,-14 66.51,-14 250.09,-14 250.09,-14 256.09,-14 267.06,-17.35 272.04,-20.71 272.04,-20.71 305.54,-43.29 305.54,-43.29 310.51,-46.65 309.49,-50 303.49,-50"/>
<text xml:space="preserve" text-anchor="middle" x="185" y="-28.5" font-family="Helvetica,sans-Serif" font-size="10.00">ctrl_out = {c[0], c[1], ..., c[18]}</text>
</g>
<!-- s0a&#45;&gt;ctrl -->
<g id="edge19" class="edge">
<title>s0a&#45;&gt;ctrl</title>
<path fill="none" stroke="#1f4e79" stroke-dasharray="5,2" d="M66.2,-684.25C41.95,-653.57 0,-600.5 0,-600.5 0,-600.5 0,-600.5 0,-151.5 0,-151.5 97.31,-89.17 150.78,-54.92"/>
<polygon fill="#1f4e79" stroke="#1f4e79" points="151.86,-57.14 156.43,-51.3 149.21,-53.01 151.86,-57.14"/>
<text xml:space="preserve" text-anchor="middle" x="10.88" y="-382.2" font-family="Helvetica,sans-Serif" font-size="9.00">c[0:3]</text>
</g>
<!-- s1b -->
<g id="node9" class="node">
<title>s1b</title>
<path fill="#eef5fb" stroke="#1f4e79" d="M284,-621.5C284,-621.5 254,-621.5 254,-621.5 248,-621.5 242,-615.5 242,-609.5 242,-609.5 242,-589.5 242,-589.5 242,-583.5 248,-577.5 254,-577.5 254,-577.5 284,-577.5 284,-577.5 290,-577.5 296,-583.5 296,-589.5 296,-589.5 296,-609.5 296,-609.5 296,-615.5 290,-621.5 284,-621.5"/>
<text xml:space="preserve" text-anchor="middle" x="269" y="-608" font-family="Helvetica,sans-Serif" font-size="10.00">Stage 1</text>
<text xml:space="preserve" text-anchor="middle" x="269" y="-596" font-family="Helvetica,sans-Serif" font-size="10.00">CS(1,3)</text>
<text xml:space="preserve" text-anchor="middle" x="269" y="-584" font-family="Helvetica,sans-Serif" font-size="10.00">Cell 5</text>
</g>
<!-- s0b&#45;&gt;s1b -->
<g id="edge7" class="edge">
<title>s0b&#45;&gt;s1b</title>
<path fill="none" stroke="#1f4e79" d="M269,-684.25C269,-668.6 269,-647.11 269,-629.82"/>
<polygon fill="#1f4e79" stroke="#1f4e79" points="271.45,-630.23 269,-623.23 266.55,-630.23 271.45,-630.23"/>
</g>
<!-- s0dots -->
<g id="node6" class="node">
<title>s0dots</title>
<path fill="#eef5fb" stroke="none" d="M370,-724.5C370,-724.5 340,-724.5 340,-724.5 334,-724.5 328,-718.5 328,-712.5 328,-712.5 328,-700.5 328,-700.5 328,-694.5 334,-688.5 340,-688.5 340,-688.5 370,-688.5 370,-688.5 376,-688.5 382,-694.5 382,-700.5 382,-700.5 382,-712.5 382,-712.5 382,-718.5 376,-724.5 370,-724.5"/>
<text xml:space="preserve" text-anchor="middle" x="355" y="-703" font-family="Helvetica,sans-Serif" font-size="10.00">...</text>
</g>
<!-- s1d -->
<g id="node11" class="node">
<title>s1d</title>
<path fill="#eef5fb" stroke="#1f4e79" d="M198,-627.5C198,-627.5 168,-627.5 168,-627.5 162,-627.5 156,-621.5 156,-615.5 156,-615.5 156,-583.5 156,-583.5 156,-577.5 162,-571.5 168,-571.5 168,-571.5 198,-571.5 198,-571.5 204,-571.5 210,-577.5 210,-583.5 210,-583.5 210,-615.5 210,-615.5 210,-621.5 204,-627.5 198,-627.5"/>
<text xml:space="preserve" text-anchor="middle" x="183" y="-614" font-family="Helvetica,sans-Serif" font-size="10.00">Stage 1</text>
<text xml:space="preserve" text-anchor="middle" x="183" y="-602" font-family="Helvetica,sans-Serif" font-size="10.00">CS(5,7)</text>
<text xml:space="preserve" text-anchor="middle" x="183" y="-590" font-family="Helvetica,sans-Serif" font-size="10.00">Cell 7</text>
<text xml:space="preserve" text-anchor="middle" x="183" y="-578" font-family="Helvetica,sans-Serif" font-size="10.00">4 total</text>
</g>
<!-- s0d&#45;&gt;s1d -->
<g id="edge8" class="edge">
<title>s0d&#45;&gt;s1d</title>
<path fill="none" stroke="#1f4e79" d="M183,-678.19C183,-665.3 183,-649.77 183,-635.99"/>
<polygon fill="#1f4e79" stroke="#1f4e79" points="185.45,-636.19 183,-629.19 180.55,-636.19 185.45,-636.19"/>
</g>
<!-- s2a -->
<g id="node12" class="node">
<title>s2a</title>
<path fill="#eef5fb" stroke="#1f4e79" d="M176,-514.5C176,-514.5 146,-514.5 146,-514.5 140,-514.5 134,-508.5 134,-502.5 134,-502.5 134,-482.5 134,-482.5 134,-476.5 140,-470.5 146,-470.5 146,-470.5 176,-470.5 176,-470.5 182,-470.5 188,-476.5 188,-482.5 188,-482.5 188,-502.5 188,-502.5 188,-508.5 182,-514.5 176,-514.5"/>
<text xml:space="preserve" text-anchor="middle" x="161" y="-501" font-family="Helvetica,sans-Serif" font-size="10.00">Stage 2</text>
<text xml:space="preserve" text-anchor="middle" x="161" y="-489" font-family="Helvetica,sans-Serif" font-size="10.00">CS(1,2)</text>
<text xml:space="preserve" text-anchor="middle" x="161" y="-477" font-family="Helvetica,sans-Serif" font-size="10.00">Cell 8</text>
</g>
<!-- s1a&#45;&gt;s2a -->
<g id="edge9" class="edge">
<title>s1a&#45;&gt;s2a</title>
<path fill="none" stroke="#1f4e79" d="M98.78,-577.25C110.73,-561.17 127.25,-538.94 140.26,-521.42"/>
<polygon fill="#1f4e79" stroke="#1f4e79" points="142.13,-523.01 144.34,-515.93 138.2,-520.09 142.13,-523.01"/>
</g>
<!-- s1a&#45;&gt;ctrl -->
<g id="edge20" class="edge">
<title>s1a&#45;&gt;ctrl</title>
<path fill="none" stroke="#1f4e79" stroke-dasharray="5,2" d="M80.57,-577.25C77.07,-546.57 71,-493.5 71,-493.5 71,-493.5 71,-493.5 71,-151.5 71,-151.5 129.02,-91.19 162.28,-56.62"/>
<polygon fill="#1f4e79" stroke="#1f4e79" points="164.04,-58.32 167.13,-51.58 160.51,-54.92 164.04,-58.32"/>
<text xml:space="preserve" text-anchor="middle" x="81.88" y="-323.95" font-family="Helvetica,sans-Serif" font-size="9.00">c[4:7]</text>
</g>
<!-- s1dots -->
<g id="node10" class="node">
<title>s1dots</title>
<path fill="#eef5fb" stroke="none" d="M370,-617.5C370,-617.5 340,-617.5 340,-617.5 334,-617.5 328,-611.5 328,-605.5 328,-605.5 328,-593.5 328,-593.5 328,-587.5 334,-581.5 340,-581.5 340,-581.5 370,-581.5 370,-581.5 376,-581.5 382,-587.5 382,-593.5 382,-593.5 382,-605.5 382,-605.5 382,-611.5 376,-617.5 370,-617.5"/>
<text xml:space="preserve" text-anchor="middle" x="355" y="-596" font-family="Helvetica,sans-Serif" font-size="10.00">...</text>
</g>
<!-- s2b -->
<g id="node14" class="node">
<title>s2b</title>
<path fill="#eef5fb" stroke="#1f4e79" d="M300,-520.5C300,-520.5 270,-520.5 270,-520.5 264,-520.5 258,-514.5 258,-508.5 258,-508.5 258,-476.5 258,-476.5 258,-470.5 264,-464.5 270,-464.5 270,-464.5 300,-464.5 300,-464.5 306,-464.5 312,-470.5 312,-476.5 312,-476.5 312,-508.5 312,-508.5 312,-514.5 306,-520.5 300,-520.5"/>
<text xml:space="preserve" text-anchor="middle" x="285" y="-507" font-family="Helvetica,sans-Serif" font-size="10.00">Stage 2</text>
<text xml:space="preserve" text-anchor="middle" x="285" y="-495" font-family="Helvetica,sans-Serif" font-size="10.00">CS(5,6)</text>
<text xml:space="preserve" text-anchor="middle" x="285" y="-483" font-family="Helvetica,sans-Serif" font-size="10.00">Cell 9</text>
<text xml:space="preserve" text-anchor="middle" x="285" y="-471" font-family="Helvetica,sans-Serif" font-size="10.00">2 total</text>
</g>
<!-- s1d&#45;&gt;s2b -->
<g id="edge10" class="edge">
<title>s1d&#45;&gt;s2b</title>
<path fill="none" stroke="#1f4e79" d="M209.53,-571.19C222.76,-557.58 238.85,-541 252.78,-526.67"/>
<polygon fill="#1f4e79" stroke="#1f4e79" points="254.43,-528.49 257.55,-521.76 250.91,-525.08 254.43,-528.49"/>
</g>
<!-- s3a -->
<g id="node15" class="node">
<title>s3a</title>
<path fill="#eef5fb" stroke="#1f4e79" d="M243,-407.5C243,-407.5 213,-407.5 213,-407.5 207,-407.5 201,-401.5 201,-395.5 201,-395.5 201,-375.5 201,-375.5 201,-369.5 207,-363.5 213,-363.5 213,-363.5 243,-363.5 243,-363.5 249,-363.5 255,-369.5 255,-375.5 255,-375.5 255,-395.5 255,-395.5 255,-401.5 249,-407.5 243,-407.5"/>
<text xml:space="preserve" text-anchor="middle" x="228" y="-394" font-family="Helvetica,sans-Serif" font-size="10.00">Stage 3</text>
<text xml:space="preserve" text-anchor="middle" x="228" y="-382" font-family="Helvetica,sans-Serif" font-size="10.00">CS(0,4)</text>
<text xml:space="preserve" text-anchor="middle" x="228" y="-370" font-family="Helvetica,sans-Serif" font-size="10.00">Cell 10</text>
</g>
<!-- s2a&#45;&gt;s3a -->
<g id="edge11" class="edge">
<title>s2a&#45;&gt;s3a</title>
<path fill="none" stroke="#1f4e79" d="M174.56,-470.25C184.73,-454.31 198.76,-432.33 209.89,-414.88"/>
<polygon fill="#1f4e79" stroke="#1f4e79" points="211.95,-416.21 213.65,-408.99 207.82,-413.58 211.95,-416.21"/>
</g>
<!-- s3b -->
<g id="node16" class="node">
<title>s3b</title>
<path fill="#eef5fb" stroke="#1f4e79" d="M415,-407.5C415,-407.5 385,-407.5 385,-407.5 379,-407.5 373,-401.5 373,-395.5 373,-395.5 373,-375.5 373,-375.5 373,-369.5 379,-363.5 385,-363.5 385,-363.5 415,-363.5 415,-363.5 421,-363.5 427,-369.5 427,-375.5 427,-375.5 427,-395.5 427,-395.5 427,-401.5 421,-407.5 415,-407.5"/>
<text xml:space="preserve" text-anchor="middle" x="400" y="-394" font-family="Helvetica,sans-Serif" font-size="10.00">Stage 3</text>
<text xml:space="preserve" text-anchor="middle" x="400" y="-382" font-family="Helvetica,sans-Serif" font-size="10.00">CS(1,5)</text>
<text xml:space="preserve" text-anchor="middle" x="400" y="-370" font-family="Helvetica,sans-Serif" font-size="10.00">Cell 11</text>
</g>
<!-- s2a&#45;&gt;s3b -->
<g id="edge12" class="edge">
<title>s2a&#45;&gt;s3b</title>
<path fill="none" stroke="#1f4e79" d="M188.25,-480.65C242.11,-459.22 357,-413.5 357,-413.5 357,-413.5 360.51,-411.3 365.52,-408.15"/>
<polygon fill="#1f4e79" stroke="#1f4e79" points="366.62,-410.35 371.24,-404.56 364.01,-406.2 366.62,-410.35"/>
</g>
<!-- s2a&#45;&gt;ctrl -->
<g id="edge21" class="edge">
<title>s2a&#45;&gt;ctrl</title>
<path fill="none" stroke="#1f4e79" stroke-dasharray="5,2" d="M159.18,-470.25C156.55,-439.57 152,-386.5 152,-386.5 152,-386.5 152,-386.5 152,-151.5 152,-151.5 168.24,-93.17 177.94,-58.36"/>
<polygon fill="#1f4e79" stroke="#1f4e79" points="180.21,-59.34 179.72,-51.94 175.49,-58.03 180.21,-59.34"/>
<text xml:space="preserve" text-anchor="middle" x="162.88" y="-265.7" font-family="Helvetica,sans-Serif" font-size="9.00">c[8:9]</text>
</g>
<!-- s2dots -->
<g id="node13" class="node">
<title>s2dots</title>
<path fill="#eef5fb" stroke="none" d="M386,-510.5C386,-510.5 356,-510.5 356,-510.5 350,-510.5 344,-504.5 344,-498.5 344,-498.5 344,-486.5 344,-486.5 344,-480.5 350,-474.5 356,-474.5 356,-474.5 386,-474.5 386,-474.5 392,-474.5 398,-480.5 398,-486.5 398,-486.5 398,-498.5 398,-498.5 398,-504.5 392,-510.5 386,-510.5"/>
<text xml:space="preserve" text-anchor="middle" x="371" y="-489" font-family="Helvetica,sans-Serif" font-size="10.00">...</text>
</g>
<!-- s3d -->
<g id="node18" class="node">
<title>s3d</title>
<path fill="#eef5fb" stroke="#1f4e79" d="M329,-413.5C329,-413.5 299,-413.5 299,-413.5 293,-413.5 287,-407.5 287,-401.5 287,-401.5 287,-369.5 287,-369.5 287,-363.5 293,-357.5 299,-357.5 299,-357.5 329,-357.5 329,-357.5 335,-357.5 341,-363.5 341,-369.5 341,-369.5 341,-401.5 341,-401.5 341,-407.5 335,-413.5 329,-413.5"/>
<text xml:space="preserve" text-anchor="middle" x="314" y="-400" font-family="Helvetica,sans-Serif" font-size="10.00">Stage 3</text>
<text xml:space="preserve" text-anchor="middle" x="314" y="-388" font-family="Helvetica,sans-Serif" font-size="10.00">CS(3,7)</text>
<text xml:space="preserve" text-anchor="middle" x="314" y="-376" font-family="Helvetica,sans-Serif" font-size="10.00">Cell 13</text>
<text xml:space="preserve" text-anchor="middle" x="314" y="-364" font-family="Helvetica,sans-Serif" font-size="10.00">4 total</text>
</g>
<!-- s2b&#45;&gt;s3d -->
<g id="edge13" class="edge">
<title>s2b&#45;&gt;s3d</title>
<path fill="none" stroke="#1f4e79" d="M292.54,-464.19C296.14,-451.18 300.47,-435.48 304.31,-421.6"/>
<polygon fill="#1f4e79" stroke="#1f4e79" points="306.59,-422.54 306.09,-415.14 301.87,-421.23 306.59,-422.54"/>
</g>
<!-- s4a -->
<g id="node19" class="node">
<title>s4a</title>
<path fill="#eef5fb" stroke="#1f4e79" d="M329,-291C329,-291 299,-291 299,-291 293,-291 287,-285 287,-279 287,-279 287,-259 287,-259 287,-253 293,-247 299,-247 299,-247 329,-247 329,-247 335,-247 341,-253 341,-259 341,-259 341,-279 341,-279 341,-285 335,-291 329,-291"/>
<text xml:space="preserve" text-anchor="middle" x="314" y="-277.5" font-family="Helvetica,sans-Serif" font-size="10.00">Stage 4</text>
<text xml:space="preserve" text-anchor="middle" x="314" y="-265.5" font-family="Helvetica,sans-Serif" font-size="10.00">CS(2,4)</text>
<text xml:space="preserve" text-anchor="middle" x="314" y="-253.5" font-family="Helvetica,sans-Serif" font-size="10.00">Cell 14</text>
</g>
<!-- s3a&#45;&gt;s4a -->
<g id="edge14" class="edge">
<title>s3a&#45;&gt;s4a</title>
<path fill="none" stroke="#1f4e79" d="M243.97,-363.23C257.85,-344.75 278.05,-317.87 293.19,-297.71"/>
<polygon fill="#1f4e79" stroke="#1f4e79" points="294.96,-299.43 297.2,-292.36 291.04,-296.49 294.96,-299.43"/>
</g>
<!-- s3a&#45;&gt;ctrl -->
<g id="edge22" class="edge">
<title>s3a&#45;&gt;ctrl</title>
<path fill="none" stroke="#1f4e79" stroke-dasharray="5,2" d="M225.37,-363.04C217.85,-301.56 196.25,-124.93 188.13,-58.59"/>
<polygon fill="#1f4e79" stroke="#1f4e79" points="190.59,-58.5 187.31,-51.85 185.72,-59.09 190.59,-58.5"/>
<text xml:space="preserve" text-anchor="middle" x="223.12" y="-207.45" font-family="Helvetica,sans-Serif" font-size="9.00">c[10:13]</text>
</g>
<!-- s3dots -->
<g id="node17" class="node">
<title>s3dots</title>
<path fill="#eef5fb" stroke="none" d="M501,-403.5C501,-403.5 471,-403.5 471,-403.5 465,-403.5 459,-397.5 459,-391.5 459,-391.5 459,-379.5 459,-379.5 459,-373.5 465,-367.5 471,-367.5 471,-367.5 501,-367.5 501,-367.5 507,-367.5 513,-373.5 513,-379.5 513,-379.5 513,-391.5 513,-391.5 513,-397.5 507,-403.5 501,-403.5"/>
<text xml:space="preserve" text-anchor="middle" x="486" y="-382" font-family="Helvetica,sans-Serif" font-size="10.00">...</text>
</g>
<!-- s4b -->
<g id="node21" class="node">
<title>s4b</title>
<path fill="#eef5fb" stroke="#1f4e79" d="M423,-297C423,-297 393,-297 393,-297 387,-297 381,-291 381,-285 381,-285 381,-253 381,-253 381,-247 387,-241 393,-241 393,-241 423,-241 423,-241 429,-241 435,-247 435,-253 435,-253 435,-285 435,-285 435,-291 429,-297 423,-297"/>
<text xml:space="preserve" text-anchor="middle" x="408" y="-283.5" font-family="Helvetica,sans-Serif" font-size="10.00">Stage 4</text>
<text xml:space="preserve" text-anchor="middle" x="408" y="-271.5" font-family="Helvetica,sans-Serif" font-size="10.00">CS(3,5)</text>
<text xml:space="preserve" text-anchor="middle" x="408" y="-259.5" font-family="Helvetica,sans-Serif" font-size="10.00">Cell 15</text>
<text xml:space="preserve" text-anchor="middle" x="408" y="-247.5" font-family="Helvetica,sans-Serif" font-size="10.00">2 total</text>
</g>
<!-- s3d&#45;&gt;s4b -->
<g id="edge15" class="edge">
<title>s3d&#45;&gt;s4b</title>
<path fill="none" stroke="#1f4e79" d="M336.52,-357.07C349.65,-341.07 366.33,-320.75 380.28,-303.77"/>
<polygon fill="#1f4e79" stroke="#1f4e79" points="382.16,-305.34 384.71,-298.37 378.37,-302.23 382.16,-305.34"/>
</g>
<!-- s5a -->
<g id="node22" class="node">
<title>s5a</title>
<path fill="#eef5fb" stroke="#1f4e79" d="M405,-174.5C405,-174.5 375,-174.5 375,-174.5 369,-174.5 363,-168.5 363,-162.5 363,-162.5 363,-142.5 363,-142.5 363,-136.5 369,-130.5 375,-130.5 375,-130.5 405,-130.5 405,-130.5 411,-130.5 417,-136.5 417,-142.5 417,-142.5 417,-162.5 417,-162.5 417,-168.5 411,-174.5 405,-174.5"/>
<text xml:space="preserve" text-anchor="middle" x="390" y="-161" font-family="Helvetica,sans-Serif" font-size="10.00">Stage 5</text>
<text xml:space="preserve" text-anchor="middle" x="390" y="-149" font-family="Helvetica,sans-Serif" font-size="10.00">CS(1,2)</text>
<text xml:space="preserve" text-anchor="middle" x="390" y="-137" font-family="Helvetica,sans-Serif" font-size="10.00">Cell 16</text>
</g>
<!-- s4a&#45;&gt;s5a -->
<g id="edge16" class="edge">
<title>s4a&#45;&gt;s5a</title>
<path fill="none" stroke="#1f4e79" d="M328.12,-246.73C340.27,-228.42 357.92,-201.83 371.26,-181.74"/>
<polygon fill="#1f4e79" stroke="#1f4e79" points="373.29,-183.1 375.12,-175.92 369.21,-180.39 373.29,-183.1"/>
</g>
<!-- s5b -->
<g id="node23" class="node">
<title>s5b</title>
<path fill="#eef5fb" stroke="#1f4e79" d="M491,-174.5C491,-174.5 461,-174.5 461,-174.5 455,-174.5 449,-168.5 449,-162.5 449,-162.5 449,-142.5 449,-142.5 449,-136.5 455,-130.5 461,-130.5 461,-130.5 491,-130.5 491,-130.5 497,-130.5 503,-136.5 503,-142.5 503,-142.5 503,-162.5 503,-162.5 503,-168.5 497,-174.5 491,-174.5"/>
<text xml:space="preserve" text-anchor="middle" x="476" y="-161" font-family="Helvetica,sans-Serif" font-size="10.00">Stage 5</text>
<text xml:space="preserve" text-anchor="middle" x="476" y="-149" font-family="Helvetica,sans-Serif" font-size="10.00">CS(3,4)</text>
<text xml:space="preserve" text-anchor="middle" x="476" y="-137" font-family="Helvetica,sans-Serif" font-size="10.00">Cell 17</text>
</g>
<!-- s4a&#45;&gt;s5b -->
<g id="edge17" class="edge">
<title>s4a&#45;&gt;s5b</title>
<path fill="none" stroke="#1f4e79" d="M341.48,-248.58C369.14,-229.03 411.88,-198.82 441.74,-177.72"/>
<polygon fill="#1f4e79" stroke="#1f4e79" points="443.12,-179.74 447.42,-173.7 440.29,-175.74 443.12,-179.74"/>
</g>
<!-- s4a&#45;&gt;ctrl -->
<g id="edge23" class="edge">
<title>s4a&#45;&gt;ctrl</title>
<path fill="none" stroke="#1f4e79" stroke-dasharray="5,2" d="M305.58,-246.76C286.77,-199.35 243,-89 243,-89 243,-89 224.8,-71.43 208.79,-55.97"/>
<polygon fill="#1f4e79" stroke="#1f4e79" points="210.86,-54.56 204.12,-51.46 207.46,-58.09 210.86,-54.56"/>
<text xml:space="preserve" text-anchor="middle" x="294.62" y="-149.2" font-family="Helvetica,sans-Serif" font-size="9.00">c[14:15]</text>
</g>
<!-- s4dots -->
<g id="node20" class="node">
<title>s4dots</title>
<path fill="#eef5fb" stroke="none" d="M509,-287C509,-287 479,-287 479,-287 473,-287 467,-281 467,-275 467,-275 467,-263 467,-263 467,-257 473,-251 479,-251 479,-251 509,-251 509,-251 515,-251 521,-257 521,-263 521,-263 521,-275 521,-275 521,-281 515,-287 509,-287"/>
<text xml:space="preserve" text-anchor="middle" x="494" y="-265.5" font-family="Helvetica,sans-Serif" font-size="10.00">...</text>
</g>
<!-- s5c -->
<g id="node25" class="node">
<title>s5c</title>
<path fill="#eef5fb" stroke="#1f4e79" d="M577,-180.5C577,-180.5 547,-180.5 547,-180.5 541,-180.5 535,-174.5 535,-168.5 535,-168.5 535,-136.5 535,-136.5 535,-130.5 541,-124.5 547,-124.5 547,-124.5 577,-124.5 577,-124.5 583,-124.5 589,-130.5 589,-136.5 589,-136.5 589,-168.5 589,-168.5 589,-174.5 583,-180.5 577,-180.5"/>
<text xml:space="preserve" text-anchor="middle" x="562" y="-167" font-family="Helvetica,sans-Serif" font-size="10.00">Stage 5</text>
<text xml:space="preserve" text-anchor="middle" x="562" y="-155" font-family="Helvetica,sans-Serif" font-size="10.00">CS(5,6)</text>
<text xml:space="preserve" text-anchor="middle" x="562" y="-143" font-family="Helvetica,sans-Serif" font-size="10.00">Cell 18</text>
<text xml:space="preserve" text-anchor="middle" x="562" y="-131" font-family="Helvetica,sans-Serif" font-size="10.00">3 total</text>
</g>
<!-- s4b&#45;&gt;s5c -->
<g id="edge18" class="edge">
<title>s4b&#45;&gt;s5c</title>
<path fill="none" stroke="#1f4e79" d="M435.18,-247.79C461.08,-228.54 500.16,-199.48 528.09,-178.71"/>
<polygon fill="#1f4e79" stroke="#1f4e79" points="529.21,-180.94 533.36,-174.79 526.28,-177 529.21,-180.94"/>
</g>
<!-- s5a&#45;&gt;ctrl -->
<g id="edge24" class="edge">
<title>s5a&#45;&gt;ctrl</title>
<path fill="none" stroke="#1f4e79" stroke-dasharray="5,2" d="M367.66,-130.34C348.51,-112.21 324,-89 324,-89 324,-89 275.68,-69.53 236.02,-53.55"/>
<polygon fill="#1f4e79" stroke="#1f4e79" points="237.03,-51.32 229.62,-50.98 235.2,-55.87 237.03,-51.32"/>
<text xml:space="preserve" text-anchor="middle" x="351.19" y="-90.95" font-family="Helvetica,sans-Serif" font-size="9.00">c[16:18]</text>
</g>
<!-- outbus -->
<g id="node27" class="node">
<title>outbus</title>
<path fill="#d9ebf7" stroke="#1f4e79" d="M533.46,-64C533.46,-64 446.96,-64 446.96,-64 440.96,-64 432.53,-58.52 430.09,-53.03 430.09,-53.03 411.41,-10.97 411.41,-10.97 408.97,-5.48 412.54,0 418.54,0 418.54,0 505.04,0 505.04,0 511.04,0 519.47,-5.48 521.91,-10.97 521.91,-10.97 540.59,-53.03 540.59,-53.03 543.03,-58.52 539.46,-64 533.46,-64"/>
<text xml:space="preserve" text-anchor="middle" x="476" y="-34.5" font-family="Helvetica,sans-Serif" font-size="10.00">addr_sorted</text>
<text xml:space="preserve" text-anchor="middle" x="476" y="-22.5" font-family="Helvetica,sans-Serif" font-size="10.00">perm_out</text>
</g>
<!-- s5a&#45;&gt;outbus -->
<g id="edge25" class="edge">
<title>s5a&#45;&gt;outbus</title>
<path fill="none" stroke="#1f4e79" d="M405.57,-130.04C417.52,-113.57 434.33,-90.42 448.52,-70.86"/>
<polygon fill="#1f4e79" stroke="#1f4e79" points="450.4,-72.44 452.53,-65.34 446.44,-69.56 450.4,-72.44"/>
</g>
<!-- s5b&#45;&gt;outbus -->
<g id="edge26" class="edge">
<title>s5b&#45;&gt;outbus</title>
<path fill="none" stroke="#1f4e79" d="M476,-130.04C476,-114.01 476,-91.63 476,-72.41"/>
<polygon fill="#1f4e79" stroke="#1f4e79" points="478.45,-72.63 476,-65.63 473.55,-72.63 478.45,-72.63"/>
</g>
<!-- s5dots -->
<g id="node24" class="node">
<title>s5dots</title>
<path fill="#eef5fb" stroke="none" d="M663,-170.5C663,-170.5 633,-170.5 633,-170.5 627,-170.5 621,-164.5 621,-158.5 621,-158.5 621,-146.5 621,-146.5 621,-140.5 627,-134.5 633,-134.5 633,-134.5 663,-134.5 663,-134.5 669,-134.5 675,-140.5 675,-146.5 675,-146.5 675,-158.5 675,-158.5 675,-164.5 669,-170.5 663,-170.5"/>
<text xml:space="preserve" text-anchor="middle" x="648" y="-149" font-family="Helvetica,sans-Serif" font-size="10.00">...</text>
</g>
<!-- s5c&#45;&gt;outbus -->
<g id="edge27" class="edge">
<title>s5c&#45;&gt;outbus</title>
<path fill="none" stroke="#1f4e79" d="M542.05,-124.02C530.58,-108.2 515.99,-88.1 503.44,-70.81"/>
<polygon fill="#1f4e79" stroke="#1f4e79" points="505.55,-69.55 499.46,-65.32 501.59,-72.43 505.55,-69.55"/>
</g>
</g>
</svg>
