<?xml version="1.0" encoding="UTF-8" standalone="no"?>
<!DOCTYPE svg PUBLIC "-//W3C//DTD SVG 1.1//EN"
 "http://www.w3.org/Graphics/SVG/1.1/DTD/svg11.dtd">
<!-- Generated by graphviz version 14.1.2 (0)
 -->
<!-- Title: BATCHER_SLAVE_SLOT_ROUTER_CELL_LEVEL Pages: 1 -->
<svg width="1181pt" height="727pt"
 viewBox="0.00 0.00 1181.00 727.00" xmlns="http://www.w3.org/2000/svg" xmlns:xlink="http://www.w3.org/1999/xlink">
<g id="graph0" class="graph" transform="scale(1 1) rotate(0) translate(4 722.5)">
<title>BATCHER_SLAVE_SLOT_ROUTER_CELL_LEVEL</title>
<polygon fill="white" stroke="none" points="-4,4 -4,-722.5 1177.35,-722.5 1177.35,4 -4,4"/>
<!-- title -->
<g id="node1" class="node">
<title>title</title>
<text xml:space="preserve" text-anchor="middle" x="341.35" y="-697" font-family="Helvetica,sans-Serif" font-size="10.00">batcher_slave: Per&#45;Slot Router Cell</text>
</g>
<!-- note -->
<g id="node2" class="node">
<title>note</title>
<polygon fill="#fff4cc" stroke="#9c6500" points="455.85,-631.5 220.85,-631.5 220.85,-587.5 461.85,-587.5 461.85,-625.5 455.85,-631.5"/>
<polyline fill="none" stroke="#9c6500" points="455.85,-631.5 455.85,-625.5"/>
<polyline fill="none" stroke="#9c6500" points="461.85,-625.5 455.85,-625.5"/>
<text xml:space="preserve" text-anchor="middle" x="341.35" y="-618" font-family="Helvetica,sans-Serif" font-size="10.00">One router cell is replicated G_P times.</text>
<text xml:space="preserve" text-anchor="middle" x="341.35" y="-606" font-family="Helvetica,sans-Serif" font-size="10.00">For the paper&#45;aligned decoder, G_P = 8.</text>
<text xml:space="preserve" text-anchor="middle" x="341.35" y="-594" font-family="Helvetica,sans-Serif" font-size="10.00">The cell contains both branches present in the RTL.</text>
</g>
<!-- title&#45;&gt;note -->
<!-- permk -->
<g id="node3" class="node">
<title>permk</title>
<polygon fill="#d9ebf7" stroke="#1f4e79" points="405.05,-536.5 303.71,-536.5 277.65,-500.5 378.98,-500.5 405.05,-536.5"/>
<text xml:space="preserve" text-anchor="middle" x="341.35" y="-515" font-family="Helvetica,sans-Serif" font-size="10.00">perm_in(slot)</text>
</g>
<!-- note&#45;&gt;permk -->
<!-- decode -->
<g id="node10" class="node">
<title>decode</title>
<path fill="#eef5fb" stroke="#1f4e79" d="M370.35,-449.5C370.35,-449.5 312.35,-449.5 312.35,-449.5 306.35,-449.5 300.35,-443.5 300.35,-437.5 300.35,-437.5 300.35,-425.5 300.35,-425.5 300.35,-419.5 306.35,-413.5 312.35,-413.5 312.35,-413.5 370.35,-413.5 370.35,-413.5 376.35,-413.5 382.35,-419.5 382.35,-425.5 382.35,-425.5 382.35,-437.5 382.35,-437.5 382.35,-443.5 376.35,-449.5 370.35,-449.5"/>
<text xml:space="preserve" text-anchor="middle" x="341.35" y="-428" font-family="Helvetica,sans-Serif" font-size="10.00">perm_i Decode</text>
</g>
<!-- permk&#45;&gt;decode -->
<g id="edge3" class="edge">
<title>permk&#45;&gt;decode</title>
<path fill="none" stroke="#1f4e79" d="M341.35,-500.3C341.35,-488.28 341.35,-472.02 341.35,-458.44"/>
<polygon fill="#1f4e79" stroke="#1f4e79" points="343.8,-458.48 341.35,-451.48 338.9,-458.48 343.8,-458.48"/>
</g>
<!-- mode -->
<g id="node4" class="node">
<title>mode</title>
<polygon fill="#fce4d6" stroke="#c55a11" points="713.68,-353 604.98,-353 577.02,-317 685.71,-317 713.68,-353"/>
<text xml:space="preserve" text-anchor="middle" x="645.35" y="-331.5" font-family="Helvetica,sans-Serif" font-size="10.00">G_REVERSE</text>
</g>
<!-- fwd -->
<g id="node12" class="node">
<title>fwd</title>
<path fill="#e2f0d9" stroke="#548235" d="M312.1,-216.5C312.1,-216.5 150.6,-216.5 150.6,-216.5 144.6,-216.5 138.6,-210.5 138.6,-204.5 138.6,-204.5 138.6,-148.5 138.6,-148.5 138.6,-142.5 144.6,-136.5 150.6,-136.5 150.6,-136.5 312.1,-136.5 312.1,-136.5 318.1,-136.5 324.1,-142.5 324.1,-148.5 324.1,-148.5 324.1,-204.5 324.1,-204.5 324.1,-210.5 318.1,-216.5 312.1,-216.5"/>
<text xml:space="preserve" text-anchor="middle" x="231.35" y="-203" font-family="Helvetica,sans-Serif" font-size="10.00">Forward Branch</text>
<text xml:space="preserve" text-anchor="middle" x="231.35" y="-191" font-family="Helvetica,sans-Serif" font-size="10.00">1&#45;of&#45;G_P destination decode / DEMUX</text>
<text xml:space="preserve" text-anchor="middle" x="231.35" y="-179" font-family="Helvetica,sans-Serif" font-size="10.00">input = in_v(slot)</text>
<text xml:space="preserve" text-anchor="middle" x="231.35" y="-167" font-family="Helvetica,sans-Serif" font-size="10.00">select = perm_i</text>
<text xml:space="preserve" text-anchor="middle" x="231.35" y="-155" font-family="Helvetica,sans-Serif" font-size="10.00">en = valid</text>
<text xml:space="preserve" text-anchor="middle" x="231.35" y="-143" font-family="Helvetica,sans-Serif" font-size="10.00">active when G_REVERSE = 0</text>
</g>
<!-- mode&#45;&gt;fwd -->
<g id="edge8" class="edge">
<title>mode&#45;&gt;fwd</title>
<path fill="none" stroke="#1f4e79" d="M579.57,-320.69C568.95,-318.54 561.35,-317 561.35,-317 561.35,-317 386.85,-292 386.85,-292 386.85,-292 335.27,-254.02 291.53,-221.81"/>
<polygon fill="#1f4e79" stroke="#1f4e79" points="293.17,-219.98 286.08,-217.8 290.26,-223.93 293.17,-219.98"/>
<text xml:space="preserve" text-anchor="middle" x="407.1" y="-283.45" font-family="Helvetica,sans-Serif" font-size="9.00">0 enables</text>
</g>
<!-- rev -->
<g id="node13" class="node">
<title>rev</title>
<polygon fill="#e2f0d9" stroke="#548235" points="747.09,-256.5 571.6,-256.5 509.1,-96.5 809.6,-96.5 747.09,-256.5"/>
<text xml:space="preserve" text-anchor="middle" x="659.35" y="-203" font-family="Helvetica,sans-Serif" font-size="10.00">Reverse Branch</text>
<text xml:space="preserve" text-anchor="middle" x="659.35" y="-191" font-family="Helvetica,sans-Serif" font-size="10.00">G_P:1 source MUX</text>
<text xml:space="preserve" text-anchor="middle" x="659.35" y="-179" font-family="Helvetica,sans-Serif" font-size="10.00">inputs = in_v(0..G_P&#45;1)</text>
<text xml:space="preserve" text-anchor="middle" x="659.35" y="-167" font-family="Helvetica,sans-Serif" font-size="10.00">select = perm_i</text>
<text xml:space="preserve" text-anchor="middle" x="659.35" y="-155" font-family="Helvetica,sans-Serif" font-size="10.00">valid gate</text>
<text xml:space="preserve" text-anchor="middle" x="659.35" y="-143" font-family="Helvetica,sans-Serif" font-size="10.00">active when G_REVERSE = 1</text>
</g>
<!-- mode&#45;&gt;rev -->
<g id="edge14" class="edge">
<title>mode&#45;&gt;rev</title>
<path fill="none" stroke="#1f4e79" d="M646.9,-316.65C648.06,-303.7 649.74,-284.92 651.49,-265.33"/>
<polygon fill="#1f4e79" stroke="#1f4e79" points="653.92,-265.6 652.11,-258.41 649.04,-265.16 653.92,-265.6"/>
<text xml:space="preserve" text-anchor="middle" x="670.12" y="-283.45" font-family="Helvetica,sans-Serif" font-size="9.00">1 enables</text>
</g>
<!-- in_slot -->
<g id="node5" class="node">
<title>in_slot</title>
<polygon fill="#d9ebf7" stroke="#1f4e79" points="217.5,-353 139.31,-353 119.19,-317 197.38,-317 217.5,-353"/>
<text xml:space="preserve" text-anchor="middle" x="168.35" y="-331.5" font-family="Helvetica,sans-Serif" font-size="10.00">in_v(slot)</text>
</g>
<!-- in_slot&#45;&gt;fwd -->
<g id="edge5" class="edge">
<title>in_slot&#45;&gt;fwd</title>
<path fill="none" stroke="#1f4e79" d="M171.68,-316.52C174.58,-301.25 178.35,-281.5 178.35,-281.5 178.35,-281.5 193.48,-251.81 207.57,-224.16"/>
<polygon fill="#1f4e79" stroke="#1f4e79" points="209.63,-225.52 210.62,-218.17 205.26,-223.29 209.63,-225.52"/>
<text xml:space="preserve" text-anchor="middle" x="187.35" y="-283.45" font-family="Helvetica,sans-Serif" font-size="9.00">data</text>
</g>
<!-- src0 -->
<g id="node6" class="node">
<title>src0</title>
<polygon fill="#d9ebf7" stroke="#1f4e79" points="1087.24,-353 1023.78,-353 1007.45,-317 1070.92,-317 1087.24,-353"/>
<text xml:space="preserve" text-anchor="middle" x="1047.35" y="-331.5" font-family="Helvetica,sans-Serif" font-size="10.00">in_v(0)</text>
</g>
<!-- src0&#45;&gt;rev -->
<g id="edge9" class="edge">
<title>src0&#45;&gt;rev</title>
<path fill="none" stroke="#1f4e79" d="M1016.38,-316.52C989.32,-301.25 954.35,-281.5 954.35,-281.5 954.35,-281.5 855.13,-246.52 771.78,-217.14"/>
<polygon fill="#1f4e79" stroke="#1f4e79" points="772.61,-214.83 765.19,-214.82 770.98,-219.45 772.61,-214.83"/>
<text xml:space="preserve" text-anchor="middle" x="978.51" y="-283.45" font-family="Helvetica,sans-Serif" font-size="9.00">in0</text>
</g>
<!-- src1 -->
<g id="node7" class="node">
<title>src1</title>
<polygon fill="#d9ebf7" stroke="#1f4e79" points="545.24,-353 481.78,-353 465.45,-317 528.92,-317 545.24,-353"/>
<text xml:space="preserve" text-anchor="middle" x="505.35" y="-331.5" font-family="Helvetica,sans-Serif" font-size="10.00">in_v(1)</text>
</g>
<!-- src1&#45;&gt;rev -->
<g id="edge10" class="edge">
<title>src1&#45;&gt;rev</title>
<path fill="none" stroke="#1f4e79" d="M522.42,-316.65C535.67,-303.18 555.13,-283.4 575.25,-262.97"/>
<polygon fill="#1f4e79" stroke="#1f4e79" points="576.99,-264.69 580.15,-257.98 573.5,-261.25 576.99,-264.69"/>
<text xml:space="preserve" text-anchor="middle" x="561.53" y="-283.45" font-family="Helvetica,sans-Serif" font-size="9.00">in1</text>
</g>
<!-- srcdots -->
<g id="node8" class="node">
<title>srcdots</title>
<text xml:space="preserve" text-anchor="middle" x="1146.35" y="-331.5" font-family="Helvetica,sans-Serif" font-size="10.00">...</text>
</g>
<!-- srcn -->
<g id="node9" class="node">
<title>srcn</title>
<polygon fill="#d9ebf7" stroke="#1f4e79" points="865.08,-353 770.06,-353 745.61,-317 840.64,-317 865.08,-353"/>
<text xml:space="preserve" text-anchor="middle" x="805.35" y="-331.5" font-family="Helvetica,sans-Serif" font-size="10.00">in_v(G_P&#45;1)</text>
</g>
<!-- srcn&#45;&gt;rev -->
<g id="edge11" class="edge">
<title>srcn&#45;&gt;rev</title>
<path fill="none" stroke="#1f4e79" d="M789.16,-316.65C776.6,-303.18 758.15,-283.4 739.08,-262.97"/>
<polygon fill="#1f4e79" stroke="#1f4e79" points="741.02,-261.45 734.45,-258.01 737.43,-264.8 741.02,-261.45"/>
<text xml:space="preserve" text-anchor="middle" x="782.08" y="-283.45" font-family="Helvetica,sans-Serif" font-size="9.00">in(G_P&#45;1)</text>
</g>
<!-- valid -->
<g id="node11" class="node">
<title>valid</title>
<polygon fill="#fde9d9" stroke="#c55a11" points="341.35,-353 249.29,-335 341.35,-317 433.4,-335 341.35,-353"/>
<text xml:space="preserve" text-anchor="middle" x="341.35" y="-331.5" font-family="Helvetica,sans-Serif" font-size="10.00">0 &lt;= perm_i &lt; G_P ?</text>
</g>
<!-- decode&#45;&gt;valid -->
<g id="edge4" class="edge">
<title>decode&#45;&gt;valid</title>
<path fill="none" stroke="#1f4e79" d="M341.35,-413.17C341.35,-398.65 341.35,-377.72 341.35,-361.33"/>
<polygon fill="#1f4e79" stroke="#1f4e79" points="343.8,-361.74 341.35,-354.74 338.9,-361.74 343.8,-361.74"/>
<text xml:space="preserve" text-anchor="middle" x="355.6" y="-379.95" font-family="Helvetica,sans-Serif" font-size="9.00">perm_i</text>
</g>
<!-- decode&#45;&gt;fwd -->
<g id="edge6" class="edge">
<title>decode&#45;&gt;fwd</title>
<path fill="none" stroke="#1f4e79" d="M300.09,-419.23C221.39,-397.74 57.6,-353 57.6,-353 57.6,-353 57.6,-317 57.6,-317 57.6,-317 125.19,-262.73 176.06,-221.89"/>
<polygon fill="#1f4e79" stroke="#1f4e79" points="177.38,-223.97 181.3,-217.68 174.31,-220.15 177.38,-223.97"/>
<text xml:space="preserve" text-anchor="middle" x="80.47" y="-331.7" font-family="Helvetica,sans-Serif" font-size="9.00">sel=perm_i</text>
</g>
<!-- decode&#45;&gt;rev -->
<g id="edge12" class="edge">
<title>decode&#45;&gt;rev</title>
<path fill="none" stroke="#1f4e79" d="M382.82,-424.55C509.27,-406.4 881.35,-353 881.35,-353 881.35,-353 881.35,-317 881.35,-317 881.35,-317 820.04,-278.48 761.86,-241.92"/>
<polygon fill="#1f4e79" stroke="#1f4e79" points="763.29,-239.93 756.06,-238.28 760.69,-244.07 763.29,-239.93"/>
<text xml:space="preserve" text-anchor="middle" x="904.22" y="-331.7" font-family="Helvetica,sans-Serif" font-size="9.00">sel=perm_i</text>
</g>
<!-- valid&#45;&gt;fwd -->
<g id="edge7" class="edge">
<title>valid&#45;&gt;fwd</title>
<path fill="none" stroke="#1f4e79" d="M313.98,-321.96C285.76,-309.55 245.85,-292 245.85,-292 245.85,-292 241.37,-256.63 237.39,-225.21"/>
<polygon fill="#1f4e79" stroke="#1f4e79" points="239.84,-225.04 236.53,-218.41 234.98,-225.66 239.84,-225.04"/>
<text xml:space="preserve" text-anchor="middle" x="251.1" y="-283.45" font-family="Helvetica,sans-Serif" font-size="9.00">en</text>
</g>
<!-- valid&#45;&gt;rev -->
<g id="edge13" class="edge">
<title>valid&#45;&gt;rev</title>
<path fill="none" stroke="#1f4e79" d="M366.56,-321.59C406.31,-302.03 485.82,-262.9 551.95,-230.35"/>
<polygon fill="#1f4e79" stroke="#1f4e79" points="552.98,-232.58 558.18,-227.29 550.82,-228.18 552.98,-232.58"/>
<text xml:space="preserve" text-anchor="middle" x="453.96" y="-283.45" font-family="Helvetica,sans-Serif" font-size="9.00">valid</text>
</g>
<!-- out0 -->
<g id="node14" class="node">
<title>out0</title>
<polygon fill="#d9ebf7" stroke="#1f4e79" points="132.69,-36 27.15,-36 0,0 105.54,0 132.69,-36"/>
<text xml:space="preserve" text-anchor="middle" x="66.35" y="-14.5" font-family="Helvetica,sans-Serif" font-size="10.00">write out_v(0)</text>
</g>
<!-- fwd&#45;&gt;out0 -->
<g id="edge15" class="edge">
<title>fwd&#45;&gt;out0</title>
<path fill="none" stroke="#1f4e79" d="M189.71,-136.01C158.42,-106.33 116.64,-66.71 90.62,-42.03"/>
<polygon fill="#1f4e79" stroke="#1f4e79" points="92.55,-40.47 85.78,-37.43 89.18,-44.03 92.55,-40.47"/>
<text xml:space="preserve" text-anchor="middle" x="142.59" y="-62.95" font-family="Helvetica,sans-Serif" font-size="9.00">if perm_i=0</text>
</g>
<!-- out1 -->
<g id="node15" class="node">
<title>out1</title>
<polygon fill="#d9ebf7" stroke="#1f4e79" points="297.69,-36 192.15,-36 165,0 270.54,0 297.69,-36"/>
<text xml:space="preserve" text-anchor="middle" x="231.35" y="-14.5" font-family="Helvetica,sans-Serif" font-size="10.00">write out_v(1)</text>
</g>
<!-- fwd&#45;&gt;out1 -->
<g id="edge16" class="edge">
<title>fwd&#45;&gt;out1</title>
<path fill="none" stroke="#1f4e79" d="M231.35,-136.01C231.35,-107.46 231.35,-69.7 231.35,-44.9"/>
<polygon fill="#1f4e79" stroke="#1f4e79" points="233.8,-44.91 231.35,-37.91 228.9,-44.91 233.8,-44.91"/>
<text xml:space="preserve" text-anchor="middle" x="254.22" y="-62.95" font-family="Helvetica,sans-Serif" font-size="9.00">if perm_i=1</text>
</g>
<!-- outn -->
<g id="node17" class="node">
<title>outn</title>
<polygon fill="#d9ebf7" stroke="#1f4e79" points="502.53,-36 365.43,-36 330.16,0 467.26,0 502.53,-36"/>
<text xml:space="preserve" text-anchor="middle" x="416.35" y="-14.5" font-family="Helvetica,sans-Serif" font-size="10.00">write out_v(G_P&#45;1)</text>
</g>
<!-- fwd&#45;&gt;outn -->
<g id="edge17" class="edge">
<title>fwd&#45;&gt;outn</title>
<path fill="none" stroke="#1f4e79" d="M278.03,-136.01C313.26,-106.21 360.35,-66.37 389.49,-41.72"/>
<polygon fill="#1f4e79" stroke="#1f4e79" points="390.87,-43.76 394.63,-37.37 387.7,-40.02 390.87,-43.76"/>
<text xml:space="preserve" text-anchor="middle" x="395.06" y="-62.95" font-family="Helvetica,sans-Serif" font-size="9.00">if perm_i=G_P&#45;1</text>
</g>
<!-- outslot -->
<g id="node18" class="node">
<title>outslot</title>
<polygon fill="#d9ebf7" stroke="#1f4e79" points="734.95,-36 614.68,-36 583.74,0 704.01,0 734.95,-36"/>
<text xml:space="preserve" text-anchor="middle" x="659.35" y="-14.5" font-family="Helvetica,sans-Serif" font-size="10.00">write out_v(slot)</text>
</g>
<!-- rev&#45;&gt;outslot -->
<g id="edge18" class="edge">
<title>rev&#45;&gt;outslot</title>
<path fill="none" stroke="#1f4e79" d="M659.35,-96.33C659.35,-77.62 659.35,-58.98 659.35,-44.69"/>
<polygon fill="#1f4e79" stroke="#1f4e79" points="661.8,-44.91 659.35,-37.91 656.9,-44.91 661.8,-44.91"/>
<text xml:space="preserve" text-anchor="middle" x="691.6" y="-62.95" font-family="Helvetica,sans-Serif" font-size="9.00">selected source</text>
</g>
<!-- outdots -->
<g id="node16" class="node">
<title>outdots</title>
<text xml:space="preserve" text-anchor="middle" x="794.35" y="-14.5" font-family="Helvetica,sans-Serif" font-size="10.00">...</text>
</g>
</g>
</svg>
