<?xml version="1.0" encoding="UTF-8" standalone="no"?>
<!DOCTYPE svg PUBLIC "-//W3C//DTD SVG 1.1//EN"
 "http://www.w3.org/Graphics/SVG/1.1/DTD/svg11.dtd">
<!-- Generated by graphviz version 14.1.2 (0)
 -->
<!-- Title: BATCHER_MASTER_BLOCK_SPLIT Pages: 1 -->
<svg width="460pt" height="693pt"
 viewBox="0.00 0.00 460.00 693.00" xmlns="http://www.w3.org/2000/svg" xmlns:xlink="http://www.w3.org/1999/xlink">
<g id="graph0" class="graph" transform="scale(1 1) rotate(0) translate(4 689)">
<title>BATCHER_MASTER_BLOCK_SPLIT</title>
<polygon fill="white" stroke="none" points="-4,4 -4,-689 456.16,-689 456.16,4 -4,4"/>
<!-- title -->
<g id="node1" class="node">
<title>title</title>
<path fill="#eef5fb" stroke="none" d="M212.66,-685C212.66,-685 78.91,-685 78.91,-685 72.91,-685 66.91,-679 66.91,-673 66.91,-673 66.91,-661 66.91,-661 66.91,-655 72.91,-649 78.91,-649 78.91,-649 212.66,-649 212.66,-649 218.66,-649 224.66,-655 224.66,-661 224.66,-661 224.66,-673 224.66,-673 224.66,-679 218.66,-685 212.66,-685"/>
<text xml:space="preserve" text-anchor="middle" x="145.79" y="-663.5" font-family="Helvetica,sans-Serif" font-size="10.00">batcher_master: RTL Block Split</text>
</g>
<!-- note -->
<g id="node2" class="node">
<title>note</title>
<polygon fill="#fff4cc" stroke="#9c6500" points="267.04,-598 18.54,-598 18.54,-554 273.04,-554 273.04,-592 267.04,-598"/>
<polyline fill="none" stroke="#9c6500" points="267.04,-598 267.04,-592"/>
<polyline fill="none" stroke="#9c6500" points="273.04,-592 267.04,-592"/>
<text xml:space="preserve" text-anchor="middle" x="145.79" y="-584.5" font-family="Helvetica,sans-Serif" font-size="10.00">Specialized for N = 8 lanes.</text>
<text xml:space="preserve" text-anchor="middle" x="145.79" y="-572.5" font-family="Helvetica,sans-Serif" font-size="10.00">Block split comes directly from rtl/batcher_master.vhd.</text>
<text xml:space="preserve" text-anchor="middle" x="145.79" y="-560.5" font-family="Helvetica,sans-Serif" font-size="10.00">Compare&#45;swap fabric = 19 cells across 6 stages.</text>
</g>
<!-- title&#45;&gt;note -->
<!-- addr_in -->
<g id="node3" class="node">
<title>addr_in</title>
<path fill="#d9ebf7" stroke="#1f4e79" d="M226.58,-503C226.58,-503 102.97,-503 102.97,-503 96.97,-503 87.91,-497.84 84.85,-492.68 84.85,-492.68 59.12,-449.32 59.12,-449.32 56.06,-444.16 59,-439 65,-439 65,-439 188.61,-439 188.61,-439 194.61,-439 203.67,-444.16 206.73,-449.32 206.73,-449.32 232.46,-492.68 232.46,-492.68 235.52,-497.84 232.58,-503 226.58,-503"/>
<text xml:space="preserve" text-anchor="middle" x="145.79" y="-473.5" font-family="Helvetica,sans-Serif" font-size="10.00">addr_in</text>
<text xml:space="preserve" text-anchor="middle" x="145.79" y="-461.5" font-family="Helvetica,sans-Serif" font-size="10.00">8 x G_ADDR_W</text>
</g>
<!-- note&#45;&gt;addr_in -->
<g id="edge2" class="edge">
<title>note&#45;&gt;addr_in</title>
<path fill="none" stroke="#1f4e79" d="M145.79,-553.66C145.79,-541.54 145.79,-525.98 145.79,-511.71"/>
<polygon fill="#1f4e79" stroke="#1f4e79" points="148.24,-512 145.79,-505 143.34,-512 148.24,-512"/>
</g>
<!-- unpack -->
<g id="node4" class="node">
<title>unpack</title>
<path fill="#eef5fb" stroke="#1f4e79" d="M177.41,-388C177.41,-388 114.16,-388 114.16,-388 108.16,-388 102.16,-382 102.16,-376 102.16,-376 102.16,-356 102.16,-356 102.16,-350 108.16,-344 114.16,-344 114.16,-344 177.41,-344 177.41,-344 183.41,-344 189.41,-350 189.41,-356 189.41,-356 189.41,-376 189.41,-376 189.41,-382 183.41,-388 177.41,-388"/>
<text xml:space="preserve" text-anchor="middle" x="145.79" y="-374.5" font-family="Helvetica,sans-Serif" font-size="10.00">Input Unpack</text>
<text xml:space="preserve" text-anchor="middle" x="145.79" y="-362.5" font-family="Helvetica,sans-Serif" font-size="10.00">8 address slices</text>
<text xml:space="preserve" text-anchor="middle" x="145.79" y="-350.5" font-family="Helvetica,sans-Serif" font-size="10.00">addr_v(0..7)</text>
</g>
<!-- addr_in&#45;&gt;unpack -->
<g id="edge3" class="edge">
<title>addr_in&#45;&gt;unpack</title>
<path fill="none" stroke="#1f4e79" d="M145.79,-438.54C145.79,-425.24 145.79,-409.83 145.79,-396.73"/>
<polygon fill="#1f4e79" stroke="#1f4e79" points="148.24,-397.01 145.79,-390.01 143.34,-397.01 148.24,-397.01"/>
</g>
<!-- fabric -->
<g id="node6" class="node">
<title>fabric</title>
<path fill="#eef5fb" stroke="#1f4e79" d="M327.91,-283.5C327.91,-283.5 213.66,-283.5 213.66,-283.5 207.66,-283.5 201.66,-277.5 201.66,-271.5 201.66,-271.5 201.66,-251.5 201.66,-251.5 201.66,-245.5 207.66,-239.5 213.66,-239.5 213.66,-239.5 327.91,-239.5 327.91,-239.5 333.91,-239.5 339.91,-245.5 339.91,-251.5 339.91,-251.5 339.91,-271.5 339.91,-271.5 339.91,-277.5 333.91,-283.5 327.91,-283.5"/>
<text xml:space="preserve" text-anchor="middle" x="270.79" y="-270" font-family="Helvetica,sans-Serif" font-size="10.00">Compare&#45;Swap Fabric</text>
<text xml:space="preserve" text-anchor="middle" x="270.79" y="-258" font-family="Helvetica,sans-Serif" font-size="10.00">6 Batcher stages</text>
<text xml:space="preserve" text-anchor="middle" x="270.79" y="-246" font-family="Helvetica,sans-Serif" font-size="10.00">19 compare&#45;swap cells total</text>
</g>
<!-- unpack&#45;&gt;fabric -->
<g id="edge4" class="edge">
<title>unpack&#45;&gt;fabric</title>
<path fill="none" stroke="#1f4e79" d="M171.31,-343.64C190.42,-327.64 213.29,-308.5 213.29,-308.5 213.29,-308.5 224.92,-299.19 237.73,-288.95"/>
<polygon fill="#1f4e79" stroke="#1f4e79" points="238.94,-291.12 242.88,-284.83 235.88,-287.29 238.94,-291.12"/>
<text xml:space="preserve" text-anchor="middle" x="238.04" y="-310.45" font-family="Helvetica,sans-Serif" font-size="9.00">addr_v(0..7)</text>
</g>
<!-- taginit -->
<g id="node5" class="node">
<title>taginit</title>
<path fill="#eef5fb" stroke="#1f4e79" d="M307.66,-388C307.66,-388 233.91,-388 233.91,-388 227.91,-388 221.91,-382 221.91,-376 221.91,-376 221.91,-356 221.91,-356 221.91,-350 227.91,-344 233.91,-344 233.91,-344 307.66,-344 307.66,-344 313.66,-344 319.66,-350 319.66,-356 319.66,-356 319.66,-376 319.66,-376 319.66,-382 313.66,-388 307.66,-388"/>
<text xml:space="preserve" text-anchor="middle" x="270.79" y="-374.5" font-family="Helvetica,sans-Serif" font-size="10.00">Lane&#45;Tag Initializer</text>
<text xml:space="preserve" text-anchor="middle" x="270.79" y="-362.5" font-family="Helvetica,sans-Serif" font-size="10.00">lane_v(i) := i</text>
<text xml:space="preserve" text-anchor="middle" x="270.79" y="-350.5" font-family="Helvetica,sans-Serif" font-size="10.00">8 constants total</text>
</g>
<!-- taginit&#45;&gt;fabric -->
<g id="edge5" class="edge">
<title>taginit&#45;&gt;fabric</title>
<path fill="none" stroke="#1f4e79" d="M270.79,-343.76C270.79,-328.78 270.79,-308.52 270.79,-291.98"/>
<polygon fill="#1f4e79" stroke="#1f4e79" points="273.24,-292.22 270.79,-285.22 268.34,-292.22 273.24,-292.22"/>
<text xml:space="preserve" text-anchor="middle" x="295.16" y="-310.45" font-family="Helvetica,sans-Serif" font-size="9.00">lane_v(0..7)</text>
</g>
<!-- pack -->
<g id="node8" class="node">
<title>pack</title>
<path fill="#eef5fb" stroke="#1f4e79" d="M219.16,-175C219.16,-175 172.41,-175 172.41,-175 166.41,-175 160.41,-169 160.41,-163 160.41,-163 160.41,-131 160.41,-131 160.41,-125 166.41,-119 172.41,-119 172.41,-119 219.16,-119 219.16,-119 225.16,-119 231.16,-125 231.16,-131 231.16,-131 231.16,-163 231.16,-163 231.16,-169 225.16,-175 219.16,-175"/>
<text xml:space="preserve" text-anchor="middle" x="195.79" y="-161.5" font-family="Helvetica,sans-Serif" font-size="10.00">Output Pack</text>
<text xml:space="preserve" text-anchor="middle" x="195.79" y="-149.5" font-family="Helvetica,sans-Serif" font-size="10.00">addr_sorted</text>
<text xml:space="preserve" text-anchor="middle" x="195.79" y="-137.5" font-family="Helvetica,sans-Serif" font-size="10.00">perm_out</text>
<text xml:space="preserve" text-anchor="middle" x="195.79" y="-125.5" font-family="Helvetica,sans-Serif" font-size="10.00">ctrl_out</text>
</g>
<!-- fabric&#45;&gt;pack -->
<g id="edge6" class="edge">
<title>fabric&#45;&gt;pack</title>
<path fill="none" stroke="#1f4e79" d="M234.41,-239.12C213.98,-227.1 192.54,-214.5 192.54,-214.5 192.54,-214.5 192.54,-204 192.54,-204 192.54,-204 193.08,-194.65 193.72,-183.59"/>
<polygon fill="#1f4e79" stroke="#1f4e79" points="196.16,-183.99 194.11,-176.85 191.26,-183.7 196.16,-183.99"/>
<text xml:space="preserve" text-anchor="middle" x="249.16" y="-205.95" font-family="Helvetica,sans-Serif" font-size="9.00">sorted addr_v + final lane_v</text>
</g>
<!-- ctrl_out -->
<g id="node11" class="node">
<title>ctrl_out</title>
<path fill="#d9ebf7" stroke="#1f4e79" d="M407.92,-179C407.92,-179 314,-179 314,-179 308,-179 299.43,-173.58 296.86,-168.16 296.86,-168.16 276.8,-125.84 276.8,-125.84 274.23,-120.42 277.66,-115 283.66,-115 283.66,-115 377.58,-115 377.58,-115 383.58,-115 392.15,-120.42 394.72,-125.84 394.72,-125.84 414.78,-168.16 414.78,-168.16 417.35,-173.58 413.92,-179 407.92,-179"/>
<text xml:space="preserve" text-anchor="middle" x="345.79" y="-149.5" font-family="Helvetica,sans-Serif" font-size="10.00">ctrl_out</text>
<text xml:space="preserve" text-anchor="middle" x="345.79" y="-137.5" font-family="Helvetica,sans-Serif" font-size="10.00">19 swap bits</text>
</g>
<!-- fabric&#45;&gt;ctrl_out -->
<g id="edge7" class="edge">
<title>fabric&#45;&gt;ctrl_out</title>
<path fill="none" stroke="#1f4e79" d="M288.92,-239.12C299.1,-227.1 309.79,-214.5 309.79,-214.5 309.79,-214.5 316.97,-201.24 324.91,-186.57"/>
<polygon fill="#1f4e79" stroke="#1f4e79" points="326.95,-187.96 328.12,-180.63 322.64,-185.62 326.95,-187.96"/>
<text xml:space="preserve" text-anchor="middle" x="328.51" y="-205.95" font-family="Helvetica,sans-Serif" font-size="9.00">c[18:0]</text>
</g>
<!-- stage_note -->
<g id="node7" class="node">
<title>stage_note</title>
<polygon fill="#f5f5f5" stroke="#666666" points="446.16,-388 351.41,-388 351.41,-344 452.16,-344 452.16,-382 446.16,-388"/>
<polyline fill="none" stroke="#666666" points="446.16,-388 446.16,-382"/>
<polyline fill="none" stroke="#666666" points="452.16,-382 446.16,-382"/>
<text xml:space="preserve" text-anchor="middle" x="401.79" y="-374.5" font-family="Helvetica,sans-Serif" font-size="10.00">Stage counts:</text>
<text xml:space="preserve" text-anchor="middle" x="401.79" y="-362.5" font-family="Helvetica,sans-Serif" font-size="10.00">S0=4, S1=4, S2=2,</text>
<text xml:space="preserve" text-anchor="middle" x="401.79" y="-350.5" font-family="Helvetica,sans-Serif" font-size="10.00">S3=4, S4=2, S5=3</text>
</g>
<!-- stage_note&#45;&gt;fabric -->
<g id="edge10" class="edge">
<title>stage_note&#45;&gt;fabric</title>
<path fill="none" stroke="#1f4e79" stroke-dasharray="5,2" d="M374.33,-343.51C351.97,-326.02 320.56,-301.45 298.22,-283.96"/>
</g>
<!-- addr_sorted -->
<g id="node9" class="node">
<title>addr_sorted</title>
<path fill="#d9ebf7" stroke="#1f4e79" d="M173.58,-64C173.58,-64 49.97,-64 49.97,-64 43.97,-64 34.91,-58.84 31.85,-53.68 31.85,-53.68 6.12,-10.32 6.12,-10.32 3.06,-5.16 6,0 12,0 12,0 135.61,0 135.61,0 141.61,0 150.67,-5.16 153.73,-10.32 153.73,-10.32 179.46,-53.68 179.46,-53.68 182.52,-58.84 179.58,-64 173.58,-64"/>
<text xml:space="preserve" text-anchor="middle" x="92.79" y="-34.5" font-family="Helvetica,sans-Serif" font-size="10.00">addr_sorted</text>
<text xml:space="preserve" text-anchor="middle" x="92.79" y="-22.5" font-family="Helvetica,sans-Serif" font-size="10.00">8 x G_ADDR_W</text>
</g>
<!-- pack&#45;&gt;addr_sorted -->
<g id="edge8" class="edge">
<title>pack&#45;&gt;addr_sorted</title>
<path fill="none" stroke="#1f4e79" d="M170.86,-118.65C157.61,-104.11 141.14,-86.04 126.74,-70.25"/>
<polygon fill="#1f4e79" stroke="#1f4e79" points="128.68,-68.73 122.15,-65.21 125.05,-72.04 128.68,-68.73"/>
</g>
<!-- perm_out -->
<g id="node10" class="node">
<title>perm_out</title>
<path fill="#d9ebf7" stroke="#1f4e79" d="M369.69,-64C369.69,-64 263.4,-64 263.4,-64 257.4,-64 248.62,-58.68 245.84,-53.37 245.84,-53.37 223.45,-10.63 223.45,-10.63 220.67,-5.32 223.89,0 229.89,0 229.89,0 336.18,0 336.18,0 342.18,0 350.96,-5.32 353.74,-10.63 353.74,-10.63 376.13,-53.37 376.13,-53.37 378.91,-58.68 375.69,-64 369.69,-64"/>
<text xml:space="preserve" text-anchor="middle" x="299.79" y="-34.5" font-family="Helvetica,sans-Serif" font-size="10.00">perm_out</text>
<text xml:space="preserve" text-anchor="middle" x="299.79" y="-22.5" font-family="Helvetica,sans-Serif" font-size="10.00">8 x G_SEL_W</text>
</g>
<!-- pack&#45;&gt;perm_out -->
<g id="edge9" class="edge">
<title>pack&#45;&gt;perm_out</title>
<path fill="none" stroke="#1f4e79" d="M220.96,-118.65C234.34,-104.11 250.97,-86.04 265.51,-70.25"/>
<polygon fill="#1f4e79" stroke="#1f4e79" points="267.21,-72.02 270.15,-65.21 263.61,-68.7 267.21,-72.02"/>
</g>
</g>
</svg>
