<?xml version="1.0" encoding="UTF-8" standalone="no"?>
<!DOCTYPE svg PUBLIC "-//W3C//DTD SVG 1.1//EN"
 "http://www.w3.org/Graphics/SVG/1.1/DTD/svg11.dtd">
<!-- Generated by graphviz version 14.1.2 (0)
 -->
<!-- Title: BATCHER_SLAVE_BLOCK_SPLIT Pages: 1 -->
<svg width="525pt" height="795pt"
 viewBox="0.00 0.00 525.00 795.00" xmlns="http://www.w3.org/2000/svg" xmlns:xlink="http://www.w3.org/1999/xlink">
<g id="graph0" class="graph" transform="scale(1 1) rotate(0) translate(4 791)">
<title>BATCHER_SLAVE_BLOCK_SPLIT</title>
<polygon fill="white" stroke="none" points="-4,4 -4,-791 521.01,-791 521.01,4 -4,4"/>
<!-- title -->
<g id="node1" class="node">
<title>title</title>
<path fill="#eef5fb" stroke="none" d="M275.18,-787C275.18,-787 148.18,-787 148.18,-787 142.18,-787 136.18,-781 136.18,-775 136.18,-775 136.18,-763 136.18,-763 136.18,-757 142.18,-751 148.18,-751 148.18,-751 275.18,-751 275.18,-751 281.18,-751 287.18,-757 287.18,-763 287.18,-763 287.18,-775 287.18,-775 287.18,-781 281.18,-787 275.18,-787"/>
<text xml:space="preserve" text-anchor="middle" x="211.68" y="-765.5" font-family="Helvetica,sans-Serif" font-size="10.00">batcher_slave: RTL Block Split</text>
</g>
<!-- note -->
<g id="node2" class="node">
<title>note</title>
<polygon fill="#fff4cc" stroke="#9c6500" points="324.3,-700 93.05,-700 93.05,-656 330.3,-656 330.3,-694 324.3,-700"/>
<polyline fill="none" stroke="#9c6500" points="324.3,-700 324.3,-694"/>
<polyline fill="none" stroke="#9c6500" points="330.3,-694 324.3,-694"/>
<text xml:space="preserve" text-anchor="middle" x="211.68" y="-686.5" font-family="Helvetica,sans-Serif" font-size="10.00">Generic in G_P and G_DATA_W.</text>
<text xml:space="preserve" text-anchor="middle" x="211.68" y="-674.5" font-family="Helvetica,sans-Serif" font-size="10.00">Paper&#45;aligned parallel case uses G_P = 8.</text>
<text xml:space="preserve" text-anchor="middle" x="211.68" y="-662.5" font-family="Helvetica,sans-Serif" font-size="10.00">No registers: pure combinational permutation logic.</text>
</g>
<!-- title&#45;&gt;note -->
<!-- perm_in -->
<g id="node3" class="node">
<title>perm_in</title>
<path fill="#d9ebf7" stroke="#1f4e79" d="M181.35,-605C181.35,-605 51.56,-605 51.56,-605 45.56,-605 36.41,-599.9 33.25,-594.79 33.25,-594.79 6.31,-551.21 6.31,-551.21 3.15,-546.1 6,-541 12,-541 12,-541 141.79,-541 141.79,-541 147.79,-541 156.95,-546.1 160.1,-551.21 160.1,-551.21 187.04,-594.79 187.04,-594.79 190.2,-599.9 187.35,-605 181.35,-605"/>
<text xml:space="preserve" text-anchor="middle" x="96.68" y="-575.5" font-family="Helvetica,sans-Serif" font-size="10.00">perm_in</text>
<text xml:space="preserve" text-anchor="middle" x="96.68" y="-563.5" font-family="Helvetica,sans-Serif" font-size="10.00">G_P x G_SEL_W</text>
</g>
<!-- note&#45;&gt;perm_in -->
<!-- data_in -->
<g id="node4" class="node">
<title>data_in</title>
<path fill="#d9ebf7" stroke="#1f4e79" d="M420.35,-605C420.35,-605 279.43,-605 279.43,-605 273.43,-605 264.11,-600 260.8,-595 260.8,-595 231.63,-551 231.63,-551 228.32,-546 231,-541 237,-541 237,-541 377.93,-541 377.93,-541 383.93,-541 393.24,-546 396.56,-551 396.56,-551 425.72,-595 425.72,-595 429.04,-600 426.35,-605 420.35,-605"/>
<text xml:space="preserve" text-anchor="middle" x="328.68" y="-575.5" font-family="Helvetica,sans-Serif" font-size="10.00">data_in</text>
<text xml:space="preserve" text-anchor="middle" x="328.68" y="-563.5" font-family="Helvetica,sans-Serif" font-size="10.00">G_P x G_DATA_W</text>
</g>
<!-- note&#45;&gt;data_in -->
<!-- decode -->
<g id="node6" class="node">
<title>decode</title>
<path fill="#eef5fb" stroke="#1f4e79" d="M167.68,-490C167.68,-490 61.68,-490 61.68,-490 55.68,-490 49.68,-484 49.68,-478 49.68,-478 49.68,-458 49.68,-458 49.68,-452 55.68,-446 61.68,-446 61.68,-446 167.68,-446 167.68,-446 173.68,-446 179.68,-452 179.68,-458 179.68,-458 179.68,-478 179.68,-478 179.68,-484 173.68,-490 167.68,-490"/>
<text xml:space="preserve" text-anchor="middle" x="114.68" y="-476.5" font-family="Helvetica,sans-Serif" font-size="10.00">Permutation Slice Decode</text>
<text xml:space="preserve" text-anchor="middle" x="114.68" y="-464.5" font-family="Helvetica,sans-Serif" font-size="10.00">perm_i per slot</text>
<text xml:space="preserve" text-anchor="middle" x="114.68" y="-452.5" font-family="Helvetica,sans-Serif" font-size="10.00">G_P total decodes</text>
</g>
<!-- perm_in&#45;&gt;decode -->
<g id="edge5" class="edge">
<title>perm_in&#45;&gt;decode</title>
<path fill="none" stroke="#1f4e79" d="M102.18,-540.54C104.5,-527.24 107.19,-511.83 109.48,-498.73"/>
<polygon fill="#1f4e79" stroke="#1f4e79" points="111.87,-499.3 110.66,-491.99 107.04,-498.46 111.87,-499.3"/>
</g>
<!-- unpack -->
<g id="node5" class="node">
<title>unpack</title>
<path fill="#eef5fb" stroke="#1f4e79" d="M356.68,-421C356.68,-421 292.68,-421 292.68,-421 286.68,-421 280.68,-415 280.68,-409 280.68,-409 280.68,-397 280.68,-397 280.68,-391 286.68,-385 292.68,-385 292.68,-385 356.68,-385 356.68,-385 362.68,-385 368.68,-391 368.68,-397 368.68,-397 368.68,-409 368.68,-409 368.68,-415 362.68,-421 356.68,-421"/>
<text xml:space="preserve" text-anchor="middle" x="324.68" y="-405.5" font-family="Helvetica,sans-Serif" font-size="10.00">Payload Unpack</text>
<text xml:space="preserve" text-anchor="middle" x="324.68" y="-393.5" font-family="Helvetica,sans-Serif" font-size="10.00">in_v(0..G_P&#45;1)</text>
</g>
<!-- data_in&#45;&gt;unpack -->
<g id="edge4" class="edge">
<title>data_in&#45;&gt;unpack</title>
<path fill="none" stroke="#1f4e79" d="M327.93,-540.79C327.17,-508.67 325.99,-459.21 325.28,-429.39"/>
<polygon fill="#1f4e79" stroke="#1f4e79" points="327.74,-429.63 325.12,-422.69 322.84,-429.74 327.74,-429.63"/>
</g>
<!-- router -->
<g id="node8" class="node">
<title>router</title>
<path fill="#eef5fb" stroke="#1f4e79" d="M345.3,-255.5C345.3,-255.5 204.05,-255.5 204.05,-255.5 198.05,-255.5 192.05,-249.5 192.05,-243.5 192.05,-243.5 192.05,-223.5 192.05,-223.5 192.05,-217.5 198.05,-211.5 204.05,-211.5 204.05,-211.5 345.3,-211.5 345.3,-211.5 351.3,-211.5 357.3,-217.5 357.3,-223.5 357.3,-223.5 357.3,-243.5 357.3,-243.5 357.3,-249.5 351.3,-255.5 345.3,-255.5"/>
<text xml:space="preserve" text-anchor="middle" x="274.68" y="-242" font-family="Helvetica,sans-Serif" font-size="10.00">Mode&#45;Controlled Router Cell Bank</text>
<text xml:space="preserve" text-anchor="middle" x="274.68" y="-230" font-family="Helvetica,sans-Serif" font-size="10.00">Forward branch + Reverse branch</text>
<text xml:space="preserve" text-anchor="middle" x="274.68" y="-218" font-family="Helvetica,sans-Serif" font-size="10.00">G_P total router cells</text>
</g>
<!-- unpack&#45;&gt;router -->
<g id="edge7" class="edge">
<title>unpack&#45;&gt;router</title>
<path fill="none" stroke="#1f4e79" d="M319.51,-384.71C310.99,-356.15 293.88,-298.83 283.44,-263.85"/>
<polygon fill="#1f4e79" stroke="#1f4e79" points="285.84,-263.35 281.49,-257.34 281.15,-264.75 285.84,-263.35"/>
<text xml:space="preserve" text-anchor="middle" x="325.53" y="-334.7" font-family="Helvetica,sans-Serif" font-size="9.00">in_v(*)</text>
</g>
<!-- valid -->
<g id="node7" class="node">
<title>valid</title>
<path fill="#eef5fb" stroke="#1f4e79" d="M152.68,-360C152.68,-360 76.68,-360 76.68,-360 70.68,-360 64.68,-354 64.68,-348 64.68,-348 64.68,-328 64.68,-328 64.68,-322 70.68,-316 76.68,-316 76.68,-316 152.68,-316 152.68,-316 158.68,-316 164.68,-322 164.68,-328 164.68,-328 164.68,-348 164.68,-348 164.68,-354 158.68,-360 152.68,-360"/>
<text xml:space="preserve" text-anchor="middle" x="114.68" y="-346.5" font-family="Helvetica,sans-Serif" font-size="10.00">Validity Check</text>
<text xml:space="preserve" text-anchor="middle" x="114.68" y="-334.5" font-family="Helvetica,sans-Serif" font-size="10.00">0 &lt;= perm_i &lt; G_P</text>
<text xml:space="preserve" text-anchor="middle" x="114.68" y="-322.5" font-family="Helvetica,sans-Serif" font-size="10.00">G_P total checks</text>
</g>
<!-- decode&#45;&gt;valid -->
<g id="edge6" class="edge">
<title>decode&#45;&gt;valid</title>
<path fill="none" stroke="#1f4e79" d="M114.68,-445.58C114.68,-424.53 114.68,-392.25 114.68,-368.73"/>
<polygon fill="#1f4e79" stroke="#1f4e79" points="117.13,-369.01 114.68,-362.01 112.23,-369.01 117.13,-369.01"/>
<text xml:space="preserve" text-anchor="middle" x="128.93" y="-399.7" font-family="Helvetica,sans-Serif" font-size="9.00">perm_i</text>
</g>
<!-- decode&#45;&gt;router -->
<g id="edge9" class="edge">
<title>decode&#45;&gt;router</title>
<path fill="none" stroke="#1f4e79" d="M131.41,-445.62C140.81,-433.6 150.68,-421 150.68,-421 150.68,-421 221.1,-315.08 255.8,-262.89"/>
<polygon fill="#1f4e79" stroke="#1f4e79" points="257.78,-264.34 259.61,-257.15 253.7,-261.63 257.78,-264.34"/>
<text xml:space="preserve" text-anchor="middle" x="233.12" y="-334.7" font-family="Helvetica,sans-Serif" font-size="9.00">perm_i</text>
</g>
<!-- valid&#45;&gt;router -->
<g id="edge8" class="edge">
<title>valid&#45;&gt;router</title>
<path fill="none" stroke="#1f4e79" d="M140.95,-315.64C160.63,-299.64 184.18,-280.5 184.18,-280.5 184.18,-280.5 204.02,-270.41 225.12,-259.69"/>
<polygon fill="#1f4e79" stroke="#1f4e79" points="226.13,-261.93 231.26,-256.57 223.91,-257.56 226.13,-261.93"/>
<text xml:space="preserve" text-anchor="middle" x="193.93" y="-282.45" font-family="Helvetica,sans-Serif" font-size="9.00">valid</text>
</g>
<!-- pack -->
<g id="node9" class="node">
<title>pack</title>
<path fill="#eef5fb" stroke="#1f4e79" d="M308.93,-151C308.93,-151 240.43,-151 240.43,-151 234.43,-151 228.43,-145 228.43,-139 228.43,-139 228.43,-127 228.43,-127 228.43,-121 234.43,-115 240.43,-115 240.43,-115 308.93,-115 308.93,-115 314.93,-115 320.93,-121 320.93,-127 320.93,-127 320.93,-139 320.93,-139 320.93,-145 314.93,-151 308.93,-151"/>
<text xml:space="preserve" text-anchor="middle" x="274.68" y="-135.5" font-family="Helvetica,sans-Serif" font-size="10.00">Output Pack</text>
<text xml:space="preserve" text-anchor="middle" x="274.68" y="-123.5" font-family="Helvetica,sans-Serif" font-size="10.00">out_v &#45;&gt; data_out</text>
</g>
<!-- router&#45;&gt;pack -->
<g id="edge11" class="edge">
<title>router&#45;&gt;pack</title>
<path fill="none" stroke="#1f4e79" d="M274.68,-211.13C274.68,-196.04 274.68,-175.75 274.68,-159.77"/>
<polygon fill="#1f4e79" stroke="#1f4e79" points="277.13,-159.91 274.68,-152.91 272.23,-159.91 277.13,-159.91"/>
<text xml:space="preserve" text-anchor="middle" x="290.8" y="-177.95" font-family="Helvetica,sans-Serif" font-size="9.00">out_v(*)</text>
</g>
<!-- data_out -->
<g id="node11" class="node">
<title>data_out</title>
<path fill="#d9ebf7" stroke="#1f4e79" d="M366.35,-64C366.35,-64 225.43,-64 225.43,-64 219.43,-64 210.11,-59 206.8,-54 206.8,-54 177.63,-10 177.63,-10 174.32,-5 177,0 183,0 183,0 323.93,0 323.93,0 329.93,0 339.24,-5 342.56,-10 342.56,-10 371.72,-54 371.72,-54 375.04,-59 372.35,-64 366.35,-64"/>
<text xml:space="preserve" text-anchor="middle" x="274.68" y="-34.5" font-family="Helvetica,sans-Serif" font-size="10.00">data_out</text>
<text xml:space="preserve" text-anchor="middle" x="274.68" y="-22.5" font-family="Helvetica,sans-Serif" font-size="10.00">G_P x G_DATA_W</text>
</g>
<!-- pack&#45;&gt;data_out -->
<g id="edge12" class="edge">
<title>pack&#45;&gt;data_out</title>
<path fill="none" stroke="#1f4e79" d="M274.68,-114.76C274.68,-103.18 274.68,-87.43 274.68,-72.85"/>
<polygon fill="#1f4e79" stroke="#1f4e79" points="277.13,-72.95 274.68,-65.95 272.23,-72.95 277.13,-72.95"/>
</g>
<!-- mode -->
<g id="node10" class="node">
<title>mode</title>
<path fill="#fce4d6" stroke="#c55a11" d="M505.01,-356C505.01,-356 420.31,-356 420.31,-356 414.31,-356 404.63,-351.26 400.95,-346.52 400.95,-346.52 387.71,-329.48 387.71,-329.48 384.03,-324.74 386.35,-320 392.35,-320 392.35,-320 477.04,-320 477.04,-320 483.04,-320 492.73,-324.74 496.41,-329.48 496.41,-329.48 509.65,-346.52 509.65,-346.52 513.33,-351.26 511.01,-356 505.01,-356"/>
<text xml:space="preserve" text-anchor="middle" x="448.68" y="-334.5" font-family="Helvetica,sans-Serif" font-size="10.00">G_REVERSE</text>
</g>
<!-- mode&#45;&gt;router -->
<g id="edge10" class="edge">
<title>mode&#45;&gt;router</title>
<path fill="none" stroke="#1f4e79" d="M419.16,-319.61C391.4,-303.26 349.5,-278.57 317.96,-259.99"/>
<polygon fill="#1f4e79" stroke="#1f4e79" points="319.57,-258.1 312.29,-256.66 317.08,-262.32 319.57,-258.1"/>
<text xml:space="preserve" text-anchor="middle" x="378.52" y="-282.45" font-family="Helvetica,sans-Serif" font-size="9.00">mode</text>
</g>
</g>
</svg>
