<?xml version="1.0" encoding="UTF-8" standalone="no"?>
<!DOCTYPE svg PUBLIC "-//W3C//DTD SVG 1.1//EN"
 "http://www.w3.org/Graphics/SVG/1.1/DTD/svg11.dtd">
<!-- Generated by graphviz version 14.1.2 (0)
 -->
<!-- Title: turbo_parallel8_datapath Pages: 1 -->
<svg width="1802pt" height="622pt"
 viewBox="0.00 0.00 1802.00 622.00" xmlns="http://www.w3.org/2000/svg" xmlns:xlink="http://www.w3.org/1999/xlink">
<g id="graph0" class="graph" transform="scale(1 1) rotate(0) translate(14.4 607.15)">
<title>turbo_parallel8_datapath</title>
<polygon fill="white" stroke="none" points="-14.4,14.4 -14.4,-607.15 1787.3,-607.15 1787.3,14.4 -14.4,14.4"/>
<text xml:space="preserve" text-anchor="middle" x="886.45" y="-575.45" font-family="Helvetica,sans-Serif" font-size="14.00">turbo_decoder_top_parallel8_backup Datapath</text>
<g id="clust1" class="cluster">
<title>cluster_load</title>
<path fill="white" stroke="#86efac" d="M201.4,-239C201.4,-239 459.95,-239 459.95,-239 465.95,-239 471.95,-245 471.95,-251 471.95,-251 471.95,-311 471.95,-311 471.95,-317 465.95,-323 459.95,-323 459.95,-323 201.4,-323 201.4,-323 195.4,-323 189.4,-317 189.4,-311 189.4,-311 189.4,-251 189.4,-251 189.4,-245 195.4,-239 201.4,-239"/>
<text xml:space="preserve" text-anchor="middle" x="330.68" y="-305.7" font-family="Helvetica,sans-Serif" font-size="14.00">Load Scatter</text>
</g>
<g id="clust2" class="cluster">
<title>cluster_mem</title>
<path fill="white" stroke="#a7f3d0" d="M562.95,-48C562.95,-48 695.95,-48 695.95,-48 701.95,-48 707.95,-54 707.95,-60 707.95,-60 707.95,-372 707.95,-372 707.95,-378 701.95,-384 695.95,-384 695.95,-384 562.95,-384 562.95,-384 556.95,-384 550.95,-378 550.95,-372 550.95,-372 550.95,-60 550.95,-60 550.95,-54 556.95,-48 562.95,-48"/>
<text xml:space="preserve" text-anchor="middle" x="629.45" y="-366.7" font-family="Helvetica,sans-Serif" font-size="14.00">Banked Row Memories</text>
</g>
<g id="clust3" class="cluster">
<title>cluster_run1</title>
<path fill="white" stroke="#fcd34d" d="M864.4,-175C864.4,-175 974.9,-175 974.9,-175 980.9,-175 986.9,-181 986.9,-187 986.9,-187 986.9,-259 986.9,-259 986.9,-265 980.9,-271 974.9,-271 974.9,-271 864.4,-271 864.4,-271 858.4,-271 852.4,-265 852.4,-259 852.4,-259 852.4,-187 852.4,-187 852.4,-181 858.4,-175 864.4,-175"/>
<text xml:space="preserve" text-anchor="middle" x="919.65" y="-253.7" font-family="Helvetica,sans-Serif" font-size="14.00">Run&#45;1 Natural Feed</text>
</g>
<g id="clust4" class="cluster">
<title>cluster_run2</title>
<path fill="white" stroke="#fde68a" d="M571.38,-392C571.38,-392 1271.68,-392 1271.68,-392 1277.68,-392 1283.68,-398 1283.68,-404 1283.68,-404 1283.68,-549 1283.68,-549 1283.68,-555 1277.68,-561 1271.68,-561 1271.68,-561 571.38,-561 571.38,-561 565.38,-561 559.38,-555 559.38,-549 559.38,-549 559.38,-404 559.38,-404 559.38,-398 565.38,-392 571.38,-392"/>
<text xml:space="preserve" text-anchor="middle" x="921.53" y="-543.7" font-family="Helvetica,sans-Serif" font-size="14.00">Run&#45;2 Interleaved Feed</text>
</g>
<g id="clust5" class="cluster">
<title>cluster_core</title>
<path fill="white" stroke="#c4b5fd" d="M1149.6,-255C1149.6,-255 1272.1,-255 1272.1,-255 1278.1,-255 1284.1,-261 1284.1,-267 1284.1,-267 1284.1,-319 1284.1,-319 1284.1,-325 1278.1,-331 1272.1,-331 1272.1,-331 1149.6,-331 1149.6,-331 1143.6,-331 1137.6,-325 1137.6,-319 1137.6,-319 1137.6,-267 1137.6,-267 1137.6,-261 1143.6,-255 1149.6,-255"/>
<text xml:space="preserve" text-anchor="middle" x="1210.85" y="-313.7" font-family="Helvetica,sans-Serif" font-size="14.00">Parallel Decode Array</text>
</g>
<g id="clust6" class="cluster">
<title>cluster_wb</title>
<path fill="white" stroke="#67e8f9" d="M1427.6,-190C1427.6,-190 1752.9,-190 1752.9,-190 1758.9,-190 1764.9,-196 1764.9,-202 1764.9,-202 1764.9,-319 1764.9,-319 1764.9,-325 1758.9,-331 1752.9,-331 1752.9,-331 1427.6,-331 1427.6,-331 1421.6,-331 1415.6,-325 1415.6,-319 1415.6,-319 1415.6,-202 1415.6,-202 1415.6,-196 1421.6,-190 1427.6,-190"/>
<text xml:space="preserve" text-anchor="middle" x="1590.25" y="-313.7" font-family="Helvetica,sans-Serif" font-size="14.00">Writeback</text>
</g>
<!-- frame_in -->
<g id="node1" class="node">
<title>frame_in</title>
<path fill="#f8fafc" stroke="#334155" d="M134.4,-291.32C134.4,-291.32 12,-291.32 12,-291.32 6,-291.32 0,-285.32 0,-279.32 0,-279.32 0,-258.68 0,-258.68 0,-252.68 6,-246.68 12,-246.68 12,-246.68 134.4,-246.68 134.4,-246.68 140.4,-246.68 146.4,-252.68 146.4,-258.68 146.4,-258.68 146.4,-279.32 146.4,-279.32 146.4,-285.32 140.4,-291.32 134.4,-291.32"/>
<text xml:space="preserve" text-anchor="middle" x="73.2" y="-277.5" font-family="Helvetica,sans-Serif" font-size="10.00">Scalar Input Stream</text>
<text xml:space="preserve" text-anchor="middle" x="73.2" y="-265.5" font-family="Helvetica,sans-Serif" font-size="10.00">in_idx</text>
<text xml:space="preserve" text-anchor="middle" x="73.2" y="-253.5" font-family="Helvetica,sans-Serif" font-size="10.00">l_sys_in / l_par1_in / l_par2_in</text>
</g>
<!-- load_map -->
<g id="node3" class="node">
<title>load_map</title>
<path fill="#f0fdf4" stroke="#334155" d="M323.55,-291.32C323.55,-291.32 209.4,-291.32 209.4,-291.32 203.4,-291.32 197.4,-285.32 197.4,-279.32 197.4,-279.32 197.4,-258.68 197.4,-258.68 197.4,-252.68 203.4,-246.68 209.4,-246.68 209.4,-246.68 323.55,-246.68 323.55,-246.68 329.55,-246.68 335.55,-252.68 335.55,-258.68 335.55,-258.68 335.55,-279.32 335.55,-279.32 335.55,-285.32 329.55,-291.32 323.55,-291.32"/>
<text xml:space="preserve" text-anchor="middle" x="266.48" y="-277.5" font-family="Helvetica,sans-Serif" font-size="10.00">lane_i / row_i / pair_i</text>
<text xml:space="preserve" text-anchor="middle" x="266.48" y="-265.5" font-family="Helvetica,sans-Serif" font-size="10.00">load_even_en / load_odd_en</text>
<text xml:space="preserve" text-anchor="middle" x="266.48" y="-253.5" font-family="Helvetica,sans-Serif" font-size="10.00">load_lane_we</text>
</g>
<!-- frame_in&#45;&gt;load_map -->
<g id="edge1" class="edge">
<title>frame_in&#45;&gt;load_map</title>
<path fill="none" stroke="#475569" stroke-width="1.1" d="M146.79,-269C160.44,-269 174.76,-269 188.54,-269"/>
<polygon fill="#475569" stroke="#475569" stroke-width="1.1" points="188.37,-271.45 195.37,-269 188.37,-266.55 188.37,-271.45"/>
</g>
<!-- frame_out -->
<g id="node2" class="node">
<title>frame_out</title>
<path fill="#f8fafc" stroke="#334155" d="M1252.8,-84.32C1252.8,-84.32 1167.9,-84.32 1167.9,-84.32 1161.9,-84.32 1155.9,-78.32 1155.9,-72.32 1155.9,-72.32 1155.9,-51.68 1155.9,-51.68 1155.9,-45.68 1161.9,-39.68 1167.9,-39.68 1167.9,-39.68 1252.8,-39.68 1252.8,-39.68 1258.8,-39.68 1264.8,-45.68 1264.8,-51.68 1264.8,-51.68 1264.8,-72.32 1264.8,-72.32 1264.8,-78.32 1258.8,-84.32 1252.8,-84.32"/>
<text xml:space="preserve" text-anchor="middle" x="1210.35" y="-70.5" font-family="Helvetica,sans-Serif" font-size="10.00">Scalar Output Stream</text>
<text xml:space="preserve" text-anchor="middle" x="1210.35" y="-58.5" font-family="Helvetica,sans-Serif" font-size="10.00">out_idx</text>
<text xml:space="preserve" text-anchor="middle" x="1210.35" y="-46.5" font-family="Helvetica,sans-Serif" font-size="10.00">l_post</text>
</g>
<!-- load_bus -->
<g id="node4" class="node">
<title>load_bus</title>
<path fill="#f0fdf4" stroke="#334155" d="M451.95,-291.32C451.95,-291.32 398.55,-291.32 398.55,-291.32 392.55,-291.32 386.55,-285.32 386.55,-279.32 386.55,-279.32 386.55,-258.68 386.55,-258.68 386.55,-252.68 392.55,-246.68 398.55,-246.68 398.55,-246.68 451.95,-246.68 451.95,-246.68 457.95,-246.68 463.95,-252.68 463.95,-258.68 463.95,-258.68 463.95,-279.32 463.95,-279.32 463.95,-285.32 457.95,-291.32 451.95,-291.32"/>
<text xml:space="preserve" text-anchor="middle" x="425.25" y="-277.5" font-family="Helvetica,sans-Serif" font-size="10.00">load_sys_bus</text>
<text xml:space="preserve" text-anchor="middle" x="425.25" y="-265.5" font-family="Helvetica,sans-Serif" font-size="10.00">load_par1_bus</text>
<text xml:space="preserve" text-anchor="middle" x="425.25" y="-253.5" font-family="Helvetica,sans-Serif" font-size="10.00">load_par2_bus</text>
</g>
<!-- load_map&#45;&gt;load_bus -->
<g id="edge2" class="edge">
<title>load_map&#45;&gt;load_bus</title>
<path fill="none" stroke="#475569" stroke-width="1.1" d="M335.78,-269C350,-269 364.66,-269 377.86,-269"/>
<polygon fill="#475569" stroke="#475569" stroke-width="1.1" points="377.64,-271.45 384.64,-269 377.64,-266.55 377.64,-271.45"/>
</g>
<!-- sys_mem -->
<g id="node5" class="node">
<title>sys_mem</title>
<path fill="#f0fdf4" stroke="#334155" d="M671.03,-287C671.03,-287 586.88,-287 586.88,-287 580.88,-287 574.88,-281 574.88,-275 574.88,-275 574.88,-263 574.88,-263 574.88,-257 580.88,-251 586.88,-251 586.88,-251 671.03,-251 671.03,-251 677.03,-251 683.03,-257 683.03,-263 683.03,-263 683.03,-275 683.03,-275 683.03,-281 677.03,-287 671.03,-287"/>
<text xml:space="preserve" text-anchor="middle" x="628.95" y="-265.5" font-family="Helvetica,sans-Serif" font-size="10.00">sys_even/odd rd0/rd1</text>
</g>
<!-- load_bus&#45;&gt;sys_mem -->
<g id="edge3" class="edge">
<title>load_bus&#45;&gt;sys_mem</title>
<path fill="none" stroke="#475569" stroke-width="1.1" d="M464.19,-269C492.91,-269 532.96,-269 566.27,-269"/>
<polygon fill="#475569" stroke="#475569" stroke-width="1.1" points="565.91,-271.45 572.91,-269 565.91,-266.55 565.91,-271.45"/>
<text xml:space="preserve" text-anchor="middle" x="511.45" y="-270.95" font-family="Helvetica,sans-Serif" font-size="9.00">sys writes</text>
</g>
<!-- par1_mem -->
<g id="node6" class="node">
<title>par1_mem</title>
<path fill="#f0fdf4" stroke="#334155" d="M656.03,-157C656.03,-157 601.88,-157 601.88,-157 595.88,-157 589.88,-151 589.88,-145 589.88,-145 589.88,-133 589.88,-133 589.88,-127 595.88,-121 601.88,-121 601.88,-121 656.03,-121 656.03,-121 662.03,-121 668.03,-127 668.03,-133 668.03,-133 668.03,-145 668.03,-145 668.03,-151 662.03,-157 656.03,-157"/>
<text xml:space="preserve" text-anchor="middle" x="628.95" y="-135.5" font-family="Helvetica,sans-Serif" font-size="10.00">par1_even/odd</text>
</g>
<!-- load_bus&#45;&gt;par1_mem -->
<g id="edge4" class="edge">
<title>load_bus&#45;&gt;par1_mem</title>
<path fill="none" stroke="#475569" stroke-width="1.1" d="M455.49,-246.26C492.34,-217.59 550.95,-172 550.95,-172 550.95,-172 565.43,-165.8 581.83,-158.77"/>
<polygon fill="#475569" stroke="#475569" stroke-width="1.1" points="582.45,-161.17 587.92,-156.16 580.52,-156.66 582.45,-161.17"/>
<text xml:space="preserve" text-anchor="middle" x="511.45" y="-219.54" font-family="Helvetica,sans-Serif" font-size="9.00">par1 writes</text>
</g>
<!-- par2_mem -->
<g id="node7" class="node">
<title>par2_mem</title>
<path fill="#f0fdf4" stroke="#334155" d="M656.03,-352C656.03,-352 601.88,-352 601.88,-352 595.88,-352 589.88,-346 589.88,-340 589.88,-340 589.88,-328 589.88,-328 589.88,-322 595.88,-316 601.88,-316 601.88,-316 656.03,-316 656.03,-316 662.03,-316 668.03,-322 668.03,-328 668.03,-328 668.03,-340 668.03,-340 668.03,-346 662.03,-352 656.03,-352"/>
<text xml:space="preserve" text-anchor="middle" x="628.95" y="-330.5" font-family="Helvetica,sans-Serif" font-size="10.00">par2_even/odd</text>
</g>
<!-- load_bus&#45;&gt;par2_mem -->
<g id="edge5" class="edge">
<title>load_bus&#45;&gt;par2_mem</title>
<path fill="none" stroke="#475569" stroke-width="1.1" d="M464.19,-281.23C497.5,-291.96 546.06,-307.61 581.66,-319.08"/>
<polygon fill="#475569" stroke="#475569" stroke-width="1.1" points="580.5,-321.28 587.91,-321.1 582,-316.62 580.5,-321.28"/>
<text xml:space="preserve" text-anchor="middle" x="511.45" y="-305.4" font-family="Helvetica,sans-Serif" font-size="9.00">par2 writes</text>
</g>
<!-- run1_feed -->
<g id="node10" class="node">
<title>run1_feed</title>
<path fill="#fffbeb" stroke="#334155" d="M965.73,-239.32C965.73,-239.32 872.58,-239.32 872.58,-239.32 866.58,-239.32 860.58,-233.32 860.58,-227.32 860.58,-227.32 860.58,-194.68 860.58,-194.68 860.58,-188.68 866.58,-182.68 872.58,-182.68 872.58,-182.68 965.73,-182.68 965.73,-182.68 971.73,-182.68 977.73,-188.68 977.73,-194.68 977.73,-194.68 977.73,-227.32 977.73,-227.32 977.73,-233.32 971.73,-239.32 965.73,-239.32"/>
<text xml:space="preserve" text-anchor="middle" x="919.15" y="-225.5" font-family="Helvetica,sans-Serif" font-size="10.00">run1 feed mux</text>
<text xml:space="preserve" text-anchor="middle" x="919.15" y="-213.5" font-family="Helvetica,sans-Serif" font-size="10.00">sys from sys memories</text>
<text xml:space="preserve" text-anchor="middle" x="919.15" y="-201.5" font-family="Helvetica,sans-Serif" font-size="10.00">par from par1</text>
<text xml:space="preserve" text-anchor="middle" x="919.15" y="-189.5" font-family="Helvetica,sans-Serif" font-size="10.00">apri from ext or zero</text>
</g>
<!-- sys_mem&#45;&gt;run1_feed -->
<g id="edge6" class="edge">
<title>sys_mem&#45;&gt;run1_feed</title>
<path fill="none" stroke="#475569" stroke-width="1.1" d="M683.48,-258.23C731.05,-248.65 800.77,-234.62 851.85,-224.34"/>
<polygon fill="#475569" stroke="#475569" stroke-width="1.1" points="852.19,-226.77 858.57,-222.99 851.23,-221.97 852.19,-226.77"/>
<text xml:space="preserve" text-anchor="middle" x="776.7" y="-248.85" font-family="Helvetica,sans-Serif" font-size="9.00">sys rows</text>
</g>
<!-- phase2_sel -->
<g id="node14" class="node">
<title>phase2_sel</title>
<path fill="#fffbeb" stroke="#334155" d="M980.35,-449C980.35,-449 857.95,-449 857.95,-449 851.95,-449 845.95,-443 845.95,-437 845.95,-437 845.95,-425 845.95,-425 845.95,-419 851.95,-413 857.95,-413 857.95,-413 980.35,-413 980.35,-413 986.35,-413 992.35,-419 992.35,-425 992.35,-425 992.35,-437 992.35,-437 992.35,-443 986.35,-449 980.35,-449"/>
<text xml:space="preserve" text-anchor="middle" x="919.15" y="-433.5" font-family="Helvetica,sans-Serif" font-size="10.00">choose physical even/odd row</text>
<text xml:space="preserve" text-anchor="middle" x="919.15" y="-421.5" font-family="Helvetica,sans-Serif" font-size="10.00">for sys and apri</text>
</g>
<!-- sys_mem&#45;&gt;phase2_sel -->
<g id="edge13" class="edge">
<title>sys_mem&#45;&gt;phase2_sel</title>
<path fill="none" stroke="#475569" stroke-width="1.1" d="M673.51,-287.43C691.38,-294.99 707.95,-302 707.95,-302 707.95,-302 732.45,-372 732.45,-372 732.45,-372 798.69,-393.05 852.05,-410"/>
<polygon fill="#475569" stroke="#475569" stroke-width="1.1" points="851.16,-412.29 858.57,-412.07 852.64,-407.62 851.16,-412.29"/>
<text xml:space="preserve" text-anchor="middle" x="776.7" y="-401.68" font-family="Helvetica,sans-Serif" font-size="9.00">run2 sys source rows</text>
</g>
<!-- par1_mem&#45;&gt;run1_feed -->
<g id="edge7" class="edge">
<title>par1_mem&#45;&gt;run1_feed</title>
<path fill="none" stroke="#475569" stroke-width="1.1" d="M668.52,-148.64C715.37,-160.34 795.18,-180.28 851.94,-194.46"/>
<polygon fill="#475569" stroke="#475569" stroke-width="1.1" points="851.14,-196.78 858.52,-196.1 852.33,-192.03 851.14,-196.78"/>
<text xml:space="preserve" text-anchor="middle" x="776.7" y="-187.61" font-family="Helvetica,sans-Serif" font-size="9.00">par1 rows</text>
</g>
<!-- siso_array -->
<g id="node17" class="node">
<title>siso_array</title>
<path fill="#f5f3ff" stroke="#334155" d="M1250.55,-299C1250.55,-299 1170.15,-299 1170.15,-299 1164.15,-299 1158.15,-293 1158.15,-287 1158.15,-287 1158.15,-275 1158.15,-275 1158.15,-269 1164.15,-263 1170.15,-263 1170.15,-263 1250.55,-263 1250.55,-263 1256.55,-263 1262.55,-269 1262.55,-275 1262.55,-275 1262.55,-287 1262.55,-287 1262.55,-293 1256.55,-299 1250.55,-299"/>
<text xml:space="preserve" text-anchor="middle" x="1210.35" y="-277.5" font-family="Helvetica,sans-Serif" font-size="10.00">8 x siso_maxlogmap</text>
</g>
<!-- par2_mem&#45;&gt;siso_array -->
<g id="edge18" class="edge">
<title>par2_mem&#45;&gt;siso_array</title>
<path fill="none" stroke="#475569" stroke-width="1.1" d="M668.41,-330.48C767.27,-321.44 1030.75,-297.34 1149.66,-286.46"/>
<polygon fill="#475569" stroke="#475569" stroke-width="1.1" points="1149.56,-288.93 1156.31,-285.85 1149.11,-284.05 1149.56,-288.93"/>
<text xml:space="preserve" text-anchor="middle" x="919.15" y="-315.58" font-family="Helvetica,sans-Serif" font-size="9.00">run2 parity lanes</text>
</g>
<!-- ext_mem -->
<g id="node8" class="node">
<title>ext_mem</title>
<path fill="#f0fdf4" stroke="#334155" d="M669.9,-222C669.9,-222 588,-222 588,-222 582,-222 576,-216 576,-210 576,-210 576,-198 576,-198 576,-192 582,-186 588,-186 588,-186 669.9,-186 669.9,-186 675.9,-186 681.9,-192 681.9,-198 681.9,-198 681.9,-210 681.9,-210 681.9,-216 675.9,-222 669.9,-222"/>
<text xml:space="preserve" text-anchor="middle" x="628.95" y="-200.5" font-family="Helvetica,sans-Serif" font-size="10.00">ext_even/odd rd0/rd1</text>
</g>
<!-- ext_mem&#45;&gt;run1_feed -->
<g id="edge8" class="edge">
<title>ext_mem&#45;&gt;run1_feed</title>
<path fill="none" stroke="#475569" stroke-width="1.1" d="M682.14,-205.27C729.7,-206.42 800.18,-208.13 851.73,-209.39"/>
<polygon fill="#475569" stroke="#475569" stroke-width="1.1" points="851.44,-211.83 858.49,-209.55 851.56,-206.93 851.44,-211.83"/>
<text xml:space="preserve" text-anchor="middle" x="776.7" y="-210.49" font-family="Helvetica,sans-Serif" font-size="9.00">ext rows or zeros</text>
</g>
<!-- ext_mem&#45;&gt;phase2_sel -->
<g id="edge14" class="edge">
<title>ext_mem&#45;&gt;phase2_sel</title>
<path fill="none" stroke="#475569" stroke-width="1.1" d="M673.51,-222.43C691.38,-229.99 707.95,-237 707.95,-237 707.95,-237 732.45,-264 732.45,-264 732.45,-264 820.95,-358.5 820.95,-358.5 820.95,-358.5 845.95,-399 845.95,-399 845.95,-399 856.13,-403.51 868.85,-409.15"/>
<polygon fill="#475569" stroke="#475569" stroke-width="1.1" points="867.65,-411.3 875.05,-411.9 869.64,-406.82 867.65,-411.3"/>
<text xml:space="preserve" text-anchor="middle" x="776.7" y="-360.45" font-family="Helvetica,sans-Serif" font-size="9.00">run2 apri source rows</text>
</g>
<!-- final_mem -->
<g id="node9" class="node">
<title>final_mem</title>
<path fill="#f0fdf4" stroke="#334155" d="M655.65,-92C655.65,-92 602.25,-92 602.25,-92 596.25,-92 590.25,-86 590.25,-80 590.25,-80 590.25,-68 590.25,-68 590.25,-62 596.25,-56 602.25,-56 602.25,-56 655.65,-56 655.65,-56 661.65,-56 667.65,-62 667.65,-68 667.65,-68 667.65,-80 667.65,-80 667.65,-86 661.65,-92 655.65,-92"/>
<text xml:space="preserve" text-anchor="middle" x="628.95" y="-70.5" font-family="Helvetica,sans-Serif" font-size="10.00">final_even/odd</text>
</g>
<!-- serializer -->
<g id="node21" class="node">
<title>serializer</title>
<path fill="#ecfeff" stroke="#334155" d="M968.73,-90.32C968.73,-90.32 869.58,-90.32 869.58,-90.32 863.58,-90.32 857.58,-84.32 857.58,-78.32 857.58,-78.32 857.58,-57.68 857.58,-57.68 857.58,-51.68 863.58,-45.68 869.58,-45.68 869.58,-45.68 968.73,-45.68 968.73,-45.68 974.73,-45.68 980.73,-51.68 980.73,-57.68 980.73,-57.68 980.73,-78.32 980.73,-78.32 980.73,-84.32 974.73,-90.32 968.73,-90.32"/>
<text xml:space="preserve" text-anchor="middle" x="919.15" y="-76.5" font-family="Helvetica,sans-Serif" font-size="10.00">Final Serializer</text>
<text xml:space="preserve" text-anchor="middle" x="919.15" y="-64.5" font-family="Helvetica,sans-Serif" font-size="10.00">read final_even/odd rows</text>
<text xml:space="preserve" text-anchor="middle" x="919.15" y="-52.5" font-family="Helvetica,sans-Serif" font-size="10.00">emit scalar output</text>
</g>
<!-- final_mem&#45;&gt;serializer -->
<g id="edge26" class="edge">
<title>final_mem&#45;&gt;serializer</title>
<path fill="none" stroke="#475569" stroke-width="1.1" d="M667.92,-73.21C713.79,-72.25 791.85,-70.63 848.61,-69.45"/>
<polygon fill="#475569" stroke="#475569" stroke-width="1.1" points="848.57,-71.9 855.51,-69.3 848.47,-67 848.57,-71.9"/>
</g>
<!-- run1_feed&#45;&gt;siso_array -->
<g id="edge9" class="edge">
<title>run1_feed&#45;&gt;siso_array</title>
<path fill="none" stroke="#475569" stroke-width="1.1" d="M977.98,-225C1027.79,-237.05 1099.4,-254.39 1149.72,-266.57"/>
<polygon fill="#475569" stroke="#475569" stroke-width="1.1" points="1148.92,-268.89 1156.3,-268.16 1150.08,-264.13 1148.92,-268.89"/>
<text xml:space="preserve" text-anchor="middle" x="1064.98" y="-258.31" font-family="Helvetica,sans-Serif" font-size="9.00">run1 lane inputs</text>
</g>
<!-- qpp_even -->
<g id="node11" class="node">
<title>qpp_even</title>
<path fill="#fffbeb" stroke="#334155" d="M678.53,-527C678.53,-527 579.38,-527 579.38,-527 573.38,-527 567.38,-521 567.38,-515 567.38,-515 567.38,-503 567.38,-503 567.38,-497 573.38,-491 579.38,-491 579.38,-491 678.53,-491 678.53,-491 684.53,-491 690.53,-497 690.53,-503 690.53,-503 690.53,-515 690.53,-515 690.53,-521 684.53,-527 678.53,-527"/>
<text xml:space="preserve" text-anchor="middle" x="628.95" y="-505.5" font-family="Helvetica,sans-Serif" font-size="10.00">QPP scheduler even row</text>
</g>
<!-- batch_m -->
<g id="node13" class="node">
<title>batch_m</title>
<path fill="#fffbeb" stroke="#334155" d="M967.98,-518C967.98,-518 870.33,-518 870.33,-518 864.33,-518 858.33,-512 858.33,-506 858.33,-506 858.33,-494 858.33,-494 858.33,-488 864.33,-482 870.33,-482 870.33,-482 967.98,-482 967.98,-482 973.98,-482 979.98,-488 979.98,-494 979.98,-494 979.98,-506 979.98,-506 979.98,-512 973.98,-518 967.98,-518"/>
<text xml:space="preserve" text-anchor="middle" x="919.15" y="-502.5" font-family="Helvetica,sans-Serif" font-size="10.00">2 x batcher_master</text>
<text xml:space="preserve" text-anchor="middle" x="919.15" y="-490.5" font-family="Helvetica,sans-Serif" font-size="10.00">sort even/odd addresses</text>
</g>
<!-- qpp_even&#45;&gt;batch_m -->
<g id="edge10" class="edge">
<title>qpp_even&#45;&gt;batch_m</title>
<path fill="none" stroke="#475569" stroke-width="1.1" d="M690.72,-507.1C737.14,-505.65 801.15,-503.65 849.44,-502.15"/>
<polygon fill="#475569" stroke="#475569" stroke-width="1.1" points="849.38,-504.6 856.3,-501.93 849.22,-499.7 849.38,-504.6"/>
<text xml:space="preserve" text-anchor="middle" x="776.7" y="-507.52" font-family="Helvetica,sans-Serif" font-size="9.00">even addr_vec</text>
</g>
<!-- qpp_odd -->
<g id="node12" class="node">
<title>qpp_odd</title>
<path fill="#fffbeb" stroke="#334155" d="M675.9,-462C675.9,-462 582,-462 582,-462 576,-462 570,-456 570,-450 570,-450 570,-438 570,-438 570,-432 576,-426 582,-426 582,-426 675.9,-426 675.9,-426 681.9,-426 687.9,-432 687.9,-438 687.9,-438 687.9,-450 687.9,-450 687.9,-456 681.9,-462 675.9,-462"/>
<text xml:space="preserve" text-anchor="middle" x="628.95" y="-440.5" font-family="Helvetica,sans-Serif" font-size="10.00">QPP scheduler odd row</text>
</g>
<!-- qpp_odd&#45;&gt;batch_m -->
<g id="edge11" class="edge">
<title>qpp_odd&#45;&gt;batch_m</title>
<path fill="none" stroke="#475569" stroke-width="1.1" d="M688.27,-455.33C734.92,-464.4 800.42,-477.12 849.57,-486.67"/>
<polygon fill="#475569" stroke="#475569" stroke-width="1.1" points="848.96,-489.05 856.3,-487.98 849.89,-484.24 848.96,-489.05"/>
<text xml:space="preserve" text-anchor="middle" x="776.7" y="-482.24" font-family="Helvetica,sans-Serif" font-size="9.00">odd addr_vec</text>
</g>
<!-- feed_router -->
<g id="node15" class="node">
<title>feed_router</title>
<path fill="#fffbeb" stroke="#334155" d="M1263.68,-441C1263.68,-441 1157.03,-441 1157.03,-441 1151.03,-441 1145.03,-435 1145.03,-429 1145.03,-429 1145.03,-417 1145.03,-417 1145.03,-411 1151.03,-405 1157.03,-405 1157.03,-405 1263.68,-405 1263.68,-405 1269.68,-405 1275.68,-411 1275.68,-417 1275.68,-417 1275.68,-429 1275.68,-429 1275.68,-435 1269.68,-441 1263.68,-441"/>
<text xml:space="preserve" text-anchor="middle" x="1210.35" y="-425.5" font-family="Helvetica,sans-Serif" font-size="10.00">4 x batcher_slave</text>
<text xml:space="preserve" text-anchor="middle" x="1210.35" y="-413.5" font-family="Helvetica,sans-Serif" font-size="10.00">route sys/apri to lane order</text>
</g>
<!-- batch_m&#45;&gt;feed_router -->
<g id="edge16" class="edge">
<title>batch_m&#45;&gt;feed_router</title>
<path fill="none" stroke="#475569" stroke-width="1.1" d="M980.42,-483.95C1025.8,-471.87 1088.22,-455.25 1136.42,-442.42"/>
<polygon fill="#475569" stroke="#475569" stroke-width="1.1" points="1136.89,-444.83 1143.02,-440.66 1135.63,-440.09 1136.89,-444.83"/>
<text xml:space="preserve" text-anchor="middle" x="1064.98" y="-474.85" font-family="Helvetica,sans-Serif" font-size="9.00">perm_even / perm_odd</text>
</g>
<!-- perm_hist -->
<g id="node16" class="node">
<title>perm_hist</title>
<path fill="#fffbeb" stroke="#334155" d="M1262.55,-517C1262.55,-517 1158.15,-517 1158.15,-517 1152.15,-517 1146.15,-511 1146.15,-505 1146.15,-505 1146.15,-493 1146.15,-493 1146.15,-487 1152.15,-481 1158.15,-481 1158.15,-481 1262.55,-481 1262.55,-481 1268.55,-481 1274.55,-487 1274.55,-493 1274.55,-493 1274.55,-505 1274.55,-505 1274.55,-511 1268.55,-517 1262.55,-517"/>
<text xml:space="preserve" text-anchor="middle" x="1210.35" y="-501.5" font-family="Helvetica,sans-Serif" font-size="10.00">perm_even/odd_mem</text>
<text xml:space="preserve" text-anchor="middle" x="1210.35" y="-489.5" font-family="Helvetica,sans-Serif" font-size="10.00">row_base_even/odd_mem</text>
</g>
<!-- batch_m&#45;&gt;perm_hist -->
<g id="edge12" class="edge">
<title>batch_m&#45;&gt;perm_hist</title>
<path fill="none" stroke="#475569" stroke-width="1.1" d="M980.42,-499.79C1026.1,-499.63 1089.04,-499.42 1137.36,-499.25"/>
<polygon fill="#475569" stroke="#475569" stroke-width="1.1" points="1137.24,-501.7 1144.23,-499.23 1137.23,-496.8 1137.24,-501.7"/>
<text xml:space="preserve" text-anchor="middle" x="1064.98" y="-501.6" font-family="Helvetica,sans-Serif" font-size="9.00">perm + row_base</text>
</g>
<!-- phase2_sel&#45;&gt;feed_router -->
<g id="edge15" class="edge">
<title>phase2_sel&#45;&gt;feed_router</title>
<path fill="none" stroke="#475569" stroke-width="1.1" d="M992.75,-428.99C1036.52,-427.78 1092.09,-426.24 1135.99,-425.03"/>
<polygon fill="#475569" stroke="#475569" stroke-width="1.1" points="1136.02,-427.48 1142.95,-424.84 1135.88,-422.58 1136.02,-427.48"/>
<text xml:space="preserve" text-anchor="middle" x="1064.98" y="-430.13" font-family="Helvetica,sans-Serif" font-size="9.00">sorted rows</text>
</g>
<!-- feed_router&#45;&gt;siso_array -->
<g id="edge17" class="edge">
<title>feed_router&#45;&gt;siso_array</title>
<path fill="none" stroke="#475569" stroke-width="1.1" d="M1210.35,-404.8C1210.35,-380.23 1210.35,-336.28 1210.35,-307.9"/>
<polygon fill="#475569" stroke="#475569" stroke-width="1.1" points="1212.8,-307.94 1210.35,-300.94 1207.9,-307.94 1212.8,-307.94"/>
<text xml:space="preserve" text-anchor="middle" x="1202.1" y="-348.7" font-family="Helvetica,sans-Serif" font-size="9.00">run2 sys/apri lanes</text>
</g>
<!-- wb_unslave -->
<g id="node19" class="node">
<title>wb_unslave</title>
<path fill="#ecfeff" stroke="#334155" d="M1543.75,-299C1543.75,-299 1435.6,-299 1435.6,-299 1429.6,-299 1423.6,-293 1423.6,-287 1423.6,-287 1423.6,-275 1423.6,-275 1423.6,-269 1429.6,-263 1435.6,-263 1435.6,-263 1543.75,-263 1543.75,-263 1549.75,-263 1555.75,-269 1555.75,-275 1555.75,-275 1555.75,-287 1555.75,-287 1555.75,-293 1549.75,-299 1543.75,-299"/>
<text xml:space="preserve" text-anchor="middle" x="1489.68" y="-283.5" font-family="Helvetica,sans-Serif" font-size="10.00">run2 reverse batcher_slave</text>
<text xml:space="preserve" text-anchor="middle" x="1489.68" y="-271.5" font-family="Helvetica,sans-Serif" font-size="10.00">unsort ext/post</text>
</g>
<!-- perm_hist&#45;&gt;wb_unslave -->
<g id="edge21" class="edge">
<title>perm_hist&#45;&gt;wb_unslave</title>
<path fill="none" stroke="#475569" stroke-width="1.1" d="M1242.62,-480.51C1262.34,-468.86 1284.1,-456 1284.1,-456 1284.1,-456 1404.65,-352.88 1460.67,-304.96"/>
<polygon fill="#475569" stroke="#475569" stroke-width="1.1" points="1462.18,-306.89 1465.9,-300.48 1458.99,-303.17 1462.18,-306.89"/>
<text xml:space="preserve" text-anchor="middle" x="1349.85" y="-442.98" font-family="Helvetica,sans-Serif" font-size="9.00">stored route context</text>
</g>
<!-- wb_direct -->
<g id="node18" class="node">
<title>wb_direct</title>
<path fill="#ecfeff" stroke="#334155" d="M1530.25,-234C1530.25,-234 1449.1,-234 1449.1,-234 1443.1,-234 1437.1,-228 1437.1,-222 1437.1,-222 1437.1,-210 1437.1,-210 1437.1,-204 1443.1,-198 1449.1,-198 1449.1,-198 1530.25,-198 1530.25,-198 1536.25,-198 1542.25,-204 1542.25,-210 1542.25,-210 1542.25,-222 1542.25,-222 1542.25,-228 1536.25,-234 1530.25,-234"/>
<text xml:space="preserve" text-anchor="middle" x="1489.68" y="-218.5" font-family="Helvetica,sans-Serif" font-size="10.00">run1 direct writeback</text>
<text xml:space="preserve" text-anchor="middle" x="1489.68" y="-206.5" font-family="Helvetica,sans-Serif" font-size="10.00">pair&#45;row indexed</text>
</g>
<!-- siso_array&#45;&gt;wb_direct -->
<g id="edge19" class="edge">
<title>siso_array&#45;&gt;wb_direct</title>
<path fill="none" stroke="#475569" stroke-width="1.1" d="M1262.86,-268.93C1309.8,-257.92 1379.15,-241.67 1428.59,-230.08"/>
<polygon fill="#475569" stroke="#475569" stroke-width="1.1" points="1429.09,-232.48 1435.35,-228.5 1427.97,-227.71 1429.09,-232.48"/>
<text xml:space="preserve" text-anchor="middle" x="1349.85" y="-260.07" font-family="Helvetica,sans-Serif" font-size="9.00">run1 ext/post</text>
</g>
<!-- siso_array&#45;&gt;wb_unslave -->
<g id="edge20" class="edge">
<title>siso_array&#45;&gt;wb_unslave</title>
<path fill="none" stroke="#475569" stroke-width="1.1" d="M1262.86,-281C1305.57,-281 1366.82,-281 1414.76,-281"/>
<polygon fill="#475569" stroke="#475569" stroke-width="1.1" points="1414.58,-283.45 1421.58,-281 1414.58,-278.55 1414.58,-283.45"/>
<text xml:space="preserve" text-anchor="middle" x="1349.85" y="-282.95" font-family="Helvetica,sans-Serif" font-size="9.00">run2 lane&#45;order ext/post</text>
</g>
<!-- wb_merge -->
<g id="node20" class="node">
<title>wb_merge</title>
<path fill="#ecfeff" stroke="#334155" d="M1744.9,-242.32C1744.9,-242.32 1618.75,-242.32 1618.75,-242.32 1612.75,-242.32 1606.75,-236.32 1606.75,-230.32 1606.75,-230.32 1606.75,-209.68 1606.75,-209.68 1606.75,-203.68 1612.75,-197.68 1618.75,-197.68 1618.75,-197.68 1744.9,-197.68 1744.9,-197.68 1750.9,-197.68 1756.9,-203.68 1756.9,-209.68 1756.9,-209.68 1756.9,-230.32 1756.9,-230.32 1756.9,-236.32 1750.9,-242.32 1744.9,-242.32"/>
<text xml:space="preserve" text-anchor="middle" x="1681.83" y="-228.5" font-family="Helvetica,sans-Serif" font-size="10.00">writeback merge</text>
<text xml:space="preserve" text-anchor="middle" x="1681.83" y="-216.5" font-family="Helvetica,sans-Serif" font-size="10.00">write ext memories</text>
<text xml:space="preserve" text-anchor="middle" x="1681.83" y="-204.5" font-family="Helvetica,sans-Serif" font-size="10.00">write final memories if last_half</text>
</g>
<!-- wb_direct&#45;&gt;wb_merge -->
<g id="edge22" class="edge">
<title>wb_direct&#45;&gt;wb_merge</title>
<path fill="none" stroke="#475569" stroke-width="1.1" d="M1542.63,-217.09C1559.7,-217.45 1579.12,-217.86 1597.9,-218.26"/>
<polygon fill="#475569" stroke="#475569" stroke-width="1.1" points="1597.76,-220.7 1604.81,-218.4 1597.86,-215.8 1597.76,-220.7"/>
</g>
<!-- wb_unslave&#45;&gt;wb_merge -->
<g id="edge23" class="edge">
<title>wb_unslave&#45;&gt;wb_merge</title>
<path fill="none" stroke="#475569" stroke-width="1.1" d="M1548.24,-262.53C1565.12,-257.12 1583.86,-251.1 1601.83,-245.34"/>
<polygon fill="#475569" stroke="#475569" stroke-width="1.1" points="1602.51,-247.7 1608.43,-243.22 1601.01,-243.03 1602.51,-247.7"/>
</g>
<!-- wb_merge&#45;&gt;ext_mem -->
<g id="edge24" class="edge">
<title>wb_merge&#45;&gt;ext_mem</title>
<path fill="none" stroke="#475569" stroke-width="1.1" d="M1606.26,-198.54C1579.48,-190.83 1555.75,-184 1555.75,-184 1555.75,-184 820.95,-159 820.95,-159 820.95,-159 732.45,-159 732.45,-159 732.45,-159 707.95,-172 707.95,-172 707.95,-172 696.74,-176.6 682.83,-182.31"/>
<polygon fill="#475569" stroke="#475569" stroke-width="1.1" points="681.96,-180.02 676.41,-184.94 683.82,-184.55 681.96,-180.02"/>
<text xml:space="preserve" text-anchor="middle" x="1210.35" y="-176.51" font-family="Helvetica,sans-Serif" font-size="9.00">extrinsic writes</text>
</g>
<!-- wb_merge&#45;&gt;final_mem -->
<g id="edge25" class="edge">
<title>wb_merge&#45;&gt;final_mem</title>
<path fill="none" stroke="#475569" stroke-width="1.1" d="M1661.19,-197.28C1612.61,-141.08 1490.68,0 1490.68,0 918.15,0 918.15,0 918.15,0 918.15,0 757.41,-41.27 676.02,-62.17"/>
<polygon fill="#475569" stroke="#475569" stroke-width="1.1" points="675.71,-59.72 669.54,-63.84 676.93,-64.47 675.71,-59.72"/>
<text xml:space="preserve" text-anchor="middle" x="1210.35" y="-1.95" font-family="Helvetica,sans-Serif" font-size="9.00">posterior writes</text>
</g>
<!-- serializer&#45;&gt;frame_out -->
<g id="edge27" class="edge">
<title>serializer&#45;&gt;frame_out</title>
<path fill="none" stroke="#475569" stroke-width="1.1" d="M981.13,-66.73C1029.9,-65.72 1098.02,-64.31 1147.12,-63.29"/>
<polygon fill="#475569" stroke="#475569" stroke-width="1.1" points="1147.14,-65.74 1154.09,-63.15 1147.04,-60.84 1147.14,-65.74"/>
</g>
<!-- note0 -->
<g id="node22" class="node">
<title>note0</title>
<polygon fill="#fefce8" stroke="#eab308" points="981.1,-384 851.2,-384 851.2,-348 987.1,-348 987.1,-378 981.1,-384"/>
<polyline fill="none" stroke="#eab308" points="981.1,-384 981.1,-378"/>
<polyline fill="none" stroke="#eab308" points="987.1,-378 981.1,-378"/>
<text xml:space="preserve" text-anchor="middle" x="919.15" y="-368.5" font-family="Helvetica,sans-Serif" font-size="10.00">run1 is direct.</text>
<text xml:space="preserve" text-anchor="middle" x="919.15" y="-356.5" font-family="Helvetica,sans-Serif" font-size="10.00">run2 is routed and unsorted.</text>
</g>
<!-- note0&#45;&gt;feed_router -->
<g id="edge28" class="edge">
<title>note0&#45;&gt;feed_router</title>
<path fill="none" stroke="#a16207" stroke-width="1.1" stroke-dasharray="1,5" d="M987.59,-379.29C1034.99,-388.63 1098.04,-401.06 1144.79,-410.28"/>
</g>
</g>
</svg>
