<?xml version="1.0" encoding="UTF-8" standalone="no"?>
<!DOCTYPE svg PUBLIC "-//W3C//DTD SVG 1.1//EN"
 "http://www.w3.org/Graphics/SVG/1.1/DTD/svg11.dtd">
<!-- Generated by graphviz version 14.1.2 (0)
 -->
<!-- Title: G Pages: 1 -->
<svg width="721pt" height="1556pt"
 viewBox="0.00 0.00 721.00 1556.00" xmlns="http://www.w3.org/2000/svg" xmlns:xlink="http://www.w3.org/1999/xlink">
<g id="graph0" class="graph" transform="scale(1 1) rotate(0) translate(4 1552.25)">
<title>G</title>
<polygon fill="white" stroke="none" points="-4,4 -4,-1552.25 717,-1552.25 717,4 -4,4"/>
<text xml:space="preserve" text-anchor="middle" x="356.5" y="-1525.25" font-family="Helvetica,sans-Serif" font-size="20.00">turbo_decoder_top_parallel8_backup &#45; Datapath</text>
<!-- frame -->
<g id="node1" class="node">
<title>frame</title>
<path fill="#e8f0fe" stroke="#555555" d="M161.88,-1452C161.88,-1452 298.62,-1452 298.62,-1452 304.62,-1452 310.62,-1458 310.62,-1464 310.62,-1464 310.62,-1504.5 310.62,-1504.5 310.62,-1510.5 304.62,-1516.5 298.62,-1516.5 298.62,-1516.5 161.88,-1516.5 161.88,-1516.5 155.88,-1516.5 149.88,-1510.5 149.88,-1504.5 149.88,-1504.5 149.88,-1464 149.88,-1464 149.88,-1458 155.88,-1452 161.88,-1452"/>
<text xml:space="preserve" text-anchor="middle" x="230.25" y="-1502.05" font-family="Helvetica,sans-Serif" font-size="11.00">Scalar Frame Stream</text>
<polyline fill="none" stroke="#555555" points="149.88,-1495 310.62,-1495"/>
<text xml:space="preserve" text-anchor="middle" x="230.25" y="-1480.55" font-family="Helvetica,sans-Serif" font-size="11.00">in_idx</text>
<polyline fill="none" stroke="#555555" points="149.88,-1473.5 310.62,-1473.5"/>
<text xml:space="preserve" text-anchor="middle" x="230.25" y="-1459.05" font-family="Helvetica,sans-Serif" font-size="11.00">l_sys_in / l_par1_in / l_par2_in</text>
</g>
<!-- scatter -->
<g id="node2" class="node">
<title>scatter</title>
<path fill="#e8f0fe" stroke="#555555" d="M182.88,-1328C182.88,-1328 277.62,-1328 277.62,-1328 283.62,-1328 289.62,-1334 289.62,-1340 289.62,-1340 289.62,-1402 289.62,-1402 289.62,-1408 283.62,-1414 277.62,-1414 277.62,-1414 182.88,-1414 182.88,-1414 176.88,-1414 170.88,-1408 170.88,-1402 170.88,-1402 170.88,-1340 170.88,-1340 170.88,-1334 176.88,-1328 182.88,-1328"/>
<text xml:space="preserve" text-anchor="middle" x="230.25" y="-1399.55" font-family="Helvetica,sans-Serif" font-size="11.00">Load Scatter</text>
<polyline fill="none" stroke="#555555" points="170.88,-1392.5 289.62,-1392.5"/>
<text xml:space="preserve" text-anchor="middle" x="230.25" y="-1378.05" font-family="Helvetica,sans-Serif" font-size="11.00">lane_i / row_i / pair_i</text>
<polyline fill="none" stroke="#555555" points="170.88,-1371 289.62,-1371"/>
<text xml:space="preserve" text-anchor="middle" x="230.25" y="-1356.55" font-family="Helvetica,sans-Serif" font-size="11.00">load_even / load_odd</text>
<polyline fill="none" stroke="#555555" points="170.88,-1349.5 289.62,-1349.5"/>
<text xml:space="preserve" text-anchor="middle" x="230.25" y="-1335.05" font-family="Helvetica,sans-Serif" font-size="11.00">load_lane_we</text>
</g>
<!-- frame&#45;&gt;scatter -->
<g id="edge1" class="edge">
<title>frame&#45;&gt;scatter</title>
<path fill="none" stroke="#444444" d="M230.25,-1451.67C230.25,-1443.63 230.25,-1434.76 230.25,-1425.94"/>
<polygon fill="#444444" stroke="#444444" points="233.75,-1425.98 230.25,-1415.98 226.75,-1425.98 233.75,-1425.98"/>
</g>
<!-- chmem -->
<g id="node3" class="node">
<title>chmem</title>
<path fill="#d9ead3" stroke="#555555" d="M171.62,-1150C171.62,-1150 288.88,-1150 288.88,-1150 294.88,-1150 300.88,-1156 300.88,-1162 300.88,-1162 300.88,-1267 300.88,-1267 300.88,-1273 294.88,-1279 288.88,-1279 288.88,-1279 171.62,-1279 171.62,-1279 165.62,-1279 159.62,-1273 159.62,-1267 159.62,-1267 159.62,-1162 159.62,-1162 159.62,-1156 165.62,-1150 171.62,-1150"/>
<text xml:space="preserve" text-anchor="middle" x="230.25" y="-1264.55" font-family="Helvetica,sans-Serif" font-size="11.00">Channel / State Memories</text>
<polyline fill="none" stroke="#555555" points="159.62,-1257.5 300.88,-1257.5"/>
<text xml:space="preserve" text-anchor="middle" x="230.25" y="-1243.05" font-family="Helvetica,sans-Serif" font-size="11.00">sys_even / sys_odd</text>
<polyline fill="none" stroke="#555555" points="159.62,-1236 300.88,-1236"/>
<text xml:space="preserve" text-anchor="middle" x="230.25" y="-1221.55" font-family="Helvetica,sans-Serif" font-size="11.00">par1_even / par1_odd</text>
<polyline fill="none" stroke="#555555" points="159.62,-1214.5 300.88,-1214.5"/>
<text xml:space="preserve" text-anchor="middle" x="230.25" y="-1200.05" font-family="Helvetica,sans-Serif" font-size="11.00">par2_even / par2_odd</text>
<polyline fill="none" stroke="#555555" points="159.62,-1193 300.88,-1193"/>
<text xml:space="preserve" text-anchor="middle" x="230.25" y="-1178.55" font-family="Helvetica,sans-Serif" font-size="11.00">ext_even / ext_odd</text>
<polyline fill="none" stroke="#555555" points="159.62,-1171.5 300.88,-1171.5"/>
<text xml:space="preserve" text-anchor="middle" x="230.25" y="-1157.05" font-family="Helvetica,sans-Serif" font-size="11.00">final_even / final_odd</text>
</g>
<!-- scatter&#45;&gt;chmem -->
<g id="edge2" class="edge">
<title>scatter&#45;&gt;chmem</title>
<path fill="none" stroke="#444444" d="M230.25,-1327.78C230.25,-1316.24 230.25,-1303.38 230.25,-1290.59"/>
<polygon fill="#444444" stroke="#444444" points="233.75,-1290.93 230.25,-1280.93 226.75,-1290.93 233.75,-1290.93"/>
<text xml:space="preserve" text-anchor="middle" x="253.88" y="-1300" font-family="Helvetica,sans-Serif" font-size="10.00">load writes</text>
</g>
<!-- run1 -->
<g id="node4" class="node">
<title>run1</title>
<path fill="#fff2cc" stroke="#555555" d="M237.88,-931.5C237.88,-931.5 332.62,-931.5 332.62,-931.5 338.62,-931.5 344.62,-937.5 344.62,-943.5 344.62,-943.5 344.62,-1005.5 344.62,-1005.5 344.62,-1011.5 338.62,-1017.5 332.62,-1017.5 332.62,-1017.5 237.88,-1017.5 237.88,-1017.5 231.88,-1017.5 225.88,-1011.5 225.88,-1005.5 225.88,-1005.5 225.88,-943.5 225.88,-943.5 225.88,-937.5 231.88,-931.5 237.88,-931.5"/>
<text xml:space="preserve" text-anchor="middle" x="285.25" y="-1003.05" font-family="Helvetica,sans-Serif" font-size="11.00">Run&#45;1 Natural Feed</text>
<polyline fill="none" stroke="#555555" points="225.88,-996 344.62,-996"/>
<text xml:space="preserve" text-anchor="middle" x="285.25" y="-981.55" font-family="Helvetica,sans-Serif" font-size="11.00">sys from natural rows</text>
<polyline fill="none" stroke="#555555" points="225.88,-974.5 344.62,-974.5"/>
<text xml:space="preserve" text-anchor="middle" x="285.25" y="-960.05" font-family="Helvetica,sans-Serif" font-size="11.00">par from par1</text>
<polyline fill="none" stroke="#555555" points="225.88,-953 344.62,-953"/>
<text xml:space="preserve" text-anchor="middle" x="285.25" y="-938.55" font-family="Helvetica,sans-Serif" font-size="11.00">apri from ext or zero</text>
</g>
<!-- chmem&#45;&gt;run1 -->
<g id="edge3" class="edge">
<title>chmem&#45;&gt;run1</title>
<path fill="none" stroke="#444444" d="M244.99,-1149.72C253.72,-1111.95 264.65,-1064.64 272.92,-1028.86"/>
<polygon fill="#444444" stroke="#444444" points="276.32,-1029.68 275.16,-1019.15 269.5,-1028.1 276.32,-1029.68"/>
<text xml:space="preserve" text-anchor="middle" x="284.9" y="-1122" font-family="Helvetica,sans-Serif" font-size="10.00">sys / par1 / ext</text>
</g>
<!-- qpp -->
<g id="node5" class="node">
<title>qpp</title>
<path fill="#fff2cc" stroke="#555555" d="M431.62,-1036.5C431.62,-1036.5 560.88,-1036.5 560.88,-1036.5 566.88,-1036.5 572.88,-1042.5 572.88,-1048.5 572.88,-1048.5 572.88,-1089 572.88,-1089 572.88,-1095 566.88,-1101 560.88,-1101 560.88,-1101 431.62,-1101 431.62,-1101 425.62,-1101 419.62,-1095 419.62,-1089 419.62,-1089 419.62,-1048.5 419.62,-1048.5 419.62,-1042.5 425.62,-1036.5 431.62,-1036.5"/>
<text xml:space="preserve" text-anchor="middle" x="496.25" y="-1086.55" font-family="Helvetica,sans-Serif" font-size="11.00">Run&#45;2 Address Generation</text>
<polyline fill="none" stroke="#555555" points="419.62,-1079.5 572.88,-1079.5"/>
<text xml:space="preserve" text-anchor="middle" x="496.25" y="-1065.05" font-family="Helvetica,sans-Serif" font-size="11.00">qpp_parallel_scheduler even</text>
<polyline fill="none" stroke="#555555" points="419.62,-1058 572.88,-1058"/>
<text xml:space="preserve" text-anchor="middle" x="496.25" y="-1043.55" font-family="Helvetica,sans-Serif" font-size="11.00">qpp_parallel_scheduler odd</text>
</g>
<!-- chmem&#45;&gt;qpp -->
<g id="edge5" class="edge">
<title>chmem&#45;&gt;qpp</title>
<path fill="none" stroke="#444444" stroke-dasharray="5,2" d="M301.35,-1180.55C331.31,-1166.16 366.33,-1148.68 397.25,-1131.5 410.72,-1124.02 424.92,-1115.53 438.23,-1107.3"/>
<polygon fill="#444444" stroke="#444444" points="439.82,-1110.43 446.46,-1102.17 436.12,-1104.49 439.82,-1110.43"/>
<text xml:space="preserve" text-anchor="middle" x="459.36" y="-1122" font-family="Helvetica,sans-Serif" font-size="10.00">seg_len / memories</text>
</g>
<!-- phys -->
<g id="node7" class="node">
<title>phys</title>
<path fill="#fff2cc" stroke="#555555" d="M362.62,-713C362.62,-713 485.88,-713 485.88,-713 491.88,-713 497.88,-719 497.88,-725 497.88,-725 497.88,-765.5 497.88,-765.5 497.88,-771.5 491.88,-777.5 485.88,-777.5 485.88,-777.5 362.62,-777.5 362.62,-777.5 356.62,-777.5 350.62,-771.5 350.62,-765.5 350.62,-765.5 350.62,-725 350.62,-725 350.62,-719 356.62,-713 362.62,-713"/>
<text xml:space="preserve" text-anchor="middle" x="424.25" y="-763.05" font-family="Helvetica,sans-Serif" font-size="11.00">Run&#45;2 Physical Row Select</text>
<polyline fill="none" stroke="#555555" points="350.62,-756 497.88,-756"/>
<text xml:space="preserve" text-anchor="middle" x="424.25" y="-741.55" font-family="Helvetica,sans-Serif" font-size="11.00">choose even/odd sys row</text>
<polyline fill="none" stroke="#555555" points="350.62,-734.5 497.88,-734.5"/>
<text xml:space="preserve" text-anchor="middle" x="424.25" y="-720.05" font-family="Helvetica,sans-Serif" font-size="11.00">choose even/odd ext row</text>
</g>
<!-- chmem&#45;&gt;phys -->
<g id="edge8" class="edge">
<title>chmem&#45;&gt;phys</title>
<path fill="none" stroke="#444444" d="M301.24,-1158.29C309.11,-1149.96 316.39,-1140.96 322.25,-1131.5 391,-1020.54 413.81,-863.9 421.06,-789.17"/>
<polygon fill="#444444" stroke="#444444" points="424.53,-789.68 421.96,-779.4 417.56,-789.04 424.53,-789.68"/>
<text xml:space="preserve" text-anchor="middle" x="436.57" y="-971" font-family="Helvetica,sans-Serif" font-size="10.00">run2 sys/ext rows</text>
</g>
<!-- siso -->
<g id="node10" class="node">
<title>siso</title>
<path fill="#d9ead3" stroke="#555555" d="M217.5,-432.5C217.5,-432.5 307,-432.5 307,-432.5 313,-432.5 319,-438.5 319,-444.5 319,-444.5 319,-463.5 319,-463.5 319,-469.5 313,-475.5 307,-475.5 307,-475.5 217.5,-475.5 217.5,-475.5 211.5,-475.5 205.5,-469.5 205.5,-463.5 205.5,-463.5 205.5,-444.5 205.5,-444.5 205.5,-438.5 211.5,-432.5 217.5,-432.5"/>
<text xml:space="preserve" text-anchor="middle" x="262.25" y="-461.05" font-family="Helvetica,sans-Serif" font-size="11.00">Parallel SISO Array</text>
<polyline fill="none" stroke="#555555" points="205.5,-454 319,-454"/>
<text xml:space="preserve" text-anchor="middle" x="262.25" y="-439.55" font-family="Helvetica,sans-Serif" font-size="11.00">8 x siso_maxlogmap</text>
</g>
<!-- chmem&#45;&gt;siso -->
<g id="edge13" class="edge">
<title>chmem&#45;&gt;siso</title>
<path fill="none" stroke="#444444" stroke-dasharray="5,2" d="M228.21,-1149.67C227.08,-1111.48 225.81,-1061.96 225.25,-1018 224.76,-979.34 224.75,-969.66 225.25,-931 226.03,-870.98 225.04,-855.91 228.75,-796 235.81,-682.13 251.09,-547.49 258.32,-487.11"/>
<polygon fill="#444444" stroke="#444444" points="261.79,-487.57 259.51,-477.22 254.84,-486.73 261.79,-487.57"/>
<text xml:space="preserve" text-anchor="middle" x="249" y="-798.5" font-family="Helvetica,sans-Serif" font-size="10.00">run2 par2</text>
</g>
<!-- run1&#45;&gt;siso -->
<g id="edge4" class="edge">
<title>run1&#45;&gt;siso</title>
<path fill="none" stroke="#444444" d="M282,-931.19C279.07,-891.61 274.82,-830.83 272.25,-778 267.06,-671.54 264.07,-545.2 262.87,-487.12"/>
<polygon fill="#444444" stroke="#444444" points="266.37,-487.23 262.67,-477.31 259.37,-487.38 266.37,-487.23"/>
<text xml:space="preserve" text-anchor="middle" x="306.75" y="-741.75" font-family="Helvetica,sans-Serif" font-size="10.00">run1 lane inputs</text>
</g>
<!-- batchm -->
<g id="node6" class="node">
<title>batchm</title>
<path fill="#fff2cc" stroke="#555555" d="M473.38,-826.5C473.38,-826.5 589.12,-826.5 589.12,-826.5 595.12,-826.5 601.12,-832.5 601.12,-838.5 601.12,-838.5 601.12,-900.5 601.12,-900.5 601.12,-906.5 595.12,-912.5 589.12,-912.5 589.12,-912.5 473.38,-912.5 473.38,-912.5 467.38,-912.5 461.38,-906.5 461.38,-900.5 461.38,-900.5 461.38,-838.5 461.38,-838.5 461.38,-832.5 467.38,-826.5 473.38,-826.5"/>
<text xml:space="preserve" text-anchor="middle" x="531.25" y="-898.05" font-family="Helvetica,sans-Serif" font-size="11.00">Run&#45;2 Address Sort</text>
<polyline fill="none" stroke="#555555" points="461.38,-891 601.12,-891"/>
<text xml:space="preserve" text-anchor="middle" x="531.25" y="-876.55" font-family="Helvetica,sans-Serif" font-size="11.00">batcher_master even</text>
<polyline fill="none" stroke="#555555" points="461.38,-869.5 601.12,-869.5"/>
<text xml:space="preserve" text-anchor="middle" x="531.25" y="-855.05" font-family="Helvetica,sans-Serif" font-size="11.00">batcher_master odd</text>
<polyline fill="none" stroke="#555555" points="461.38,-848 601.12,-848"/>
<text xml:space="preserve" text-anchor="middle" x="531.25" y="-833.55" font-family="Helvetica,sans-Serif" font-size="11.00">perm + row_base capture</text>
</g>
<!-- qpp&#45;&gt;batchm -->
<g id="edge6" class="edge">
<title>qpp&#45;&gt;batchm</title>
<path fill="none" stroke="#444444" d="M501.87,-1036.06C507.23,-1005.89 515.39,-959.9 521.75,-924.04"/>
<polygon fill="#444444" stroke="#444444" points="525.18,-924.74 523.48,-914.28 518.29,-923.52 525.18,-924.74"/>
<text xml:space="preserve" text-anchor="middle" x="561.18" y="-971" font-family="Helvetica,sans-Serif" font-size="10.00">addr_vec even/odd</text>
</g>
<!-- batchm&#45;&gt;phys -->
<g id="edge7" class="edge">
<title>batchm&#45;&gt;phys</title>
<path fill="none" stroke="#444444" d="M460.91,-830.7C452.73,-824.01 445.19,-816.44 439.25,-808 435.21,-802.26 432.25,-795.55 430.08,-788.72"/>
<polygon fill="#444444" stroke="#444444" points="433.58,-788.26 427.67,-779.46 426.8,-790.02 433.58,-788.26"/>
<text xml:space="preserve" text-anchor="middle" x="479.75" y="-798.5" font-family="Helvetica,sans-Serif" font-size="10.00">sorted row context</text>
</g>
<!-- route -->
<g id="node8" class="node">
<title>route</title>
<path fill="#fff2cc" stroke="#555555" d="M371.25,-524.5C371.25,-524.5 477.25,-524.5 477.25,-524.5 483.25,-524.5 489.25,-530.5 489.25,-536.5 489.25,-536.5 489.25,-598.5 489.25,-598.5 489.25,-604.5 483.25,-610.5 477.25,-610.5 477.25,-610.5 371.25,-610.5 371.25,-610.5 365.25,-610.5 359.25,-604.5 359.25,-598.5 359.25,-598.5 359.25,-536.5 359.25,-536.5 359.25,-530.5 365.25,-524.5 371.25,-524.5"/>
<text xml:space="preserve" text-anchor="middle" x="424.25" y="-596.05" font-family="Helvetica,sans-Serif" font-size="11.00">Run&#45;2 Forward Routing</text>
<polyline fill="none" stroke="#555555" points="359.25,-589 489.25,-589"/>
<text xml:space="preserve" text-anchor="middle" x="424.25" y="-574.55" font-family="Helvetica,sans-Serif" font-size="11.00">4 x batcher_slave</text>
<polyline fill="none" stroke="#555555" points="359.25,-567.5 489.25,-567.5"/>
<text xml:space="preserve" text-anchor="middle" x="424.25" y="-553.05" font-family="Helvetica,sans-Serif" font-size="11.00">sys even/odd</text>
<polyline fill="none" stroke="#555555" points="359.25,-546 489.25,-546"/>
<text xml:space="preserve" text-anchor="middle" x="424.25" y="-531.55" font-family="Helvetica,sans-Serif" font-size="11.00">apri even/odd</text>
</g>
<!-- batchm&#45;&gt;route -->
<g id="edge10" class="edge">
<title>batchm&#45;&gt;route</title>
<path fill="none" stroke="#444444" d="M533.05,-826.03C534.84,-766.37 535.04,-661.39 516.25,-629 511.56,-620.92 505.31,-613.72 498.26,-607.36"/>
<polygon fill="#444444" stroke="#444444" points="500.78,-604.9 490.84,-601.23 496.32,-610.3 500.78,-604.9"/>
<text xml:space="preserve" text-anchor="middle" x="583.7" y="-741.75" font-family="Helvetica,sans-Serif" font-size="10.00">perm_even / perm_odd</text>
</g>
<!-- hist -->
<g id="node9" class="node">
<title>hist</title>
<path fill="#fff2cc" stroke="#555555" d="M581.5,-629.5C581.5,-629.5 701,-629.5 701,-629.5 707,-629.5 713,-635.5 713,-641.5 713,-641.5 713,-682 713,-682 713,-688 707,-694 701,-694 701,-694 581.5,-694 581.5,-694 575.5,-694 569.5,-688 569.5,-682 569.5,-682 569.5,-641.5 569.5,-641.5 569.5,-635.5 575.5,-629.5 581.5,-629.5"/>
<text xml:space="preserve" text-anchor="middle" x="641.25" y="-679.55" font-family="Helvetica,sans-Serif" font-size="11.00">Stored Route Context</text>
<polyline fill="none" stroke="#555555" points="569.5,-672.5 713,-672.5"/>
<text xml:space="preserve" text-anchor="middle" x="641.25" y="-658.05" font-family="Helvetica,sans-Serif" font-size="11.00">perm_even/odd_mem</text>
<polyline fill="none" stroke="#555555" points="569.5,-651 713,-651"/>
<text xml:space="preserve" text-anchor="middle" x="641.25" y="-636.55" font-family="Helvetica,sans-Serif" font-size="11.00">row_base_even/odd_mem</text>
</g>
<!-- batchm&#45;&gt;hist -->
<g id="edge11" class="edge">
<title>batchm&#45;&gt;hist</title>
<path fill="none" stroke="#444444" d="M599,-826.03C614.68,-812.69 629.36,-796.54 638.25,-778 648.94,-755.72 650.02,-728.12 648.27,-705.51"/>
<polygon fill="#444444" stroke="#444444" points="651.76,-705.31 647.28,-695.71 644.8,-706.01 651.76,-705.31"/>
<text xml:space="preserve" text-anchor="middle" x="665" y="-798.5" font-family="Helvetica,sans-Serif" font-size="10.00">perm + row_base</text>
</g>
<!-- phys&#45;&gt;route -->
<g id="edge9" class="edge">
<title>phys&#45;&gt;route</title>
<path fill="none" stroke="#444444" d="M424.25,-712.83C424.25,-687.73 424.25,-651.96 424.25,-622.32"/>
<polygon fill="#444444" stroke="#444444" points="427.75,-622.39 424.25,-612.39 420.75,-622.39 427.75,-622.39"/>
<text xml:space="preserve" text-anchor="middle" x="468.12" y="-658.25" font-family="Helvetica,sans-Serif" font-size="10.00">sorted payload rows</text>
</g>
<!-- route&#45;&gt;siso -->
<g id="edge12" class="edge">
<title>route&#45;&gt;siso</title>
<path fill="none" stroke="#444444" d="M362.54,-524.03C342.23,-510.05 320.2,-494.88 301.97,-482.34"/>
<polygon fill="#444444" stroke="#444444" points="304.01,-479.5 293.79,-476.71 300.05,-485.26 304.01,-479.5"/>
<text xml:space="preserve" text-anchor="middle" x="374.8" y="-496.5" font-family="Helvetica,sans-Serif" font-size="10.00">run2 sys/apri lanes</text>
</g>
<!-- wb2 -->
<g id="node12" class="node">
<title>wb2</title>
<path fill="#fce5cd" stroke="#555555" d="M176.62,-319C176.62,-319 347.88,-319 347.88,-319 353.88,-319 359.88,-325 359.88,-331 359.88,-331 359.88,-371.5 359.88,-371.5 359.88,-377.5 353.88,-383.5 347.88,-383.5 347.88,-383.5 176.62,-383.5 176.62,-383.5 170.62,-383.5 164.62,-377.5 164.62,-371.5 164.62,-371.5 164.62,-331 164.62,-331 164.62,-325 170.62,-319 176.62,-319"/>
<text xml:space="preserve" text-anchor="middle" x="262.25" y="-369.05" font-family="Helvetica,sans-Serif" font-size="11.00">Run&#45;2 Writeback</text>
<polyline fill="none" stroke="#555555" points="164.62,-362 359.88,-362"/>
<text xml:space="preserve" text-anchor="middle" x="262.25" y="-347.55" font-family="Helvetica,sans-Serif" font-size="11.00">reverse batcher_slave on ext/post</text>
<polyline fill="none" stroke="#555555" points="164.62,-340.5 359.88,-340.5"/>
<text xml:space="preserve" text-anchor="middle" x="262.25" y="-326.05" font-family="Helvetica,sans-Serif" font-size="11.00">row_base&#45;driven destination mapping</text>
</g>
<!-- hist&#45;&gt;wb2 -->
<g id="edge16" class="edge">
<title>hist&#45;&gt;wb2</title>
<path fill="none" stroke="#444444" d="M614.6,-629.41C568.74,-576.97 470.09,-470.45 369.25,-402 362.67,-397.53 355.62,-393.27 348.39,-389.26"/>
<polygon fill="#444444" stroke="#444444" points="350.27,-386.3 339.8,-384.67 346.97,-392.47 350.27,-386.3"/>
<text xml:space="preserve" text-anchor="middle" x="539.1" y="-496.5" font-family="Helvetica,sans-Serif" font-size="10.00">stored route context</text>
</g>
<!-- wb1 -->
<g id="node11" class="node">
<title>wb1</title>
<path fill="#fce5cd" stroke="#555555" d="M12,-319C12,-319 134.5,-319 134.5,-319 140.5,-319 146.5,-325 146.5,-331 146.5,-331 146.5,-371.5 146.5,-371.5 146.5,-377.5 140.5,-383.5 134.5,-383.5 134.5,-383.5 12,-383.5 12,-383.5 6,-383.5 0,-377.5 0,-371.5 0,-371.5 0,-331 0,-331 0,-325 6,-319 12,-319"/>
<text xml:space="preserve" text-anchor="middle" x="73.25" y="-369.05" font-family="Helvetica,sans-Serif" font-size="11.00">Run&#45;1 Writeback</text>
<polyline fill="none" stroke="#555555" points="0,-362 146.5,-362"/>
<text xml:space="preserve" text-anchor="middle" x="73.25" y="-347.55" font-family="Helvetica,sans-Serif" font-size="11.00">direct ext_even / ext_odd</text>
<polyline fill="none" stroke="#555555" points="0,-340.5 146.5,-340.5"/>
<text xml:space="preserve" text-anchor="middle" x="73.25" y="-326.05" font-family="Helvetica,sans-Serif" font-size="11.00">direct final_even / final_odd</text>
</g>
<!-- siso&#45;&gt;wb1 -->
<g id="edge14" class="edge">
<title>siso&#45;&gt;wb1</title>
<path fill="none" stroke="#444444" d="M223.09,-432.12C199.79,-419.7 169.55,-403.58 142.35,-389.08"/>
<polygon fill="#444444" stroke="#444444" points="144.29,-386.15 133.82,-384.54 140.99,-392.33 144.29,-386.15"/>
<text xml:space="preserve" text-anchor="middle" x="213.18" y="-404.5" font-family="Helvetica,sans-Serif" font-size="10.00">run1 ext/post</text>
</g>
<!-- siso&#45;&gt;wb2 -->
<g id="edge15" class="edge">
<title>siso&#45;&gt;wb2</title>
<path fill="none" stroke="#444444" d="M262.25,-432.12C262.25,-421.45 262.25,-408.04 262.25,-395.27"/>
<polygon fill="#444444" stroke="#444444" points="265.75,-395.34 262.25,-385.34 258.75,-395.34 265.75,-395.34"/>
<text xml:space="preserve" text-anchor="middle" x="313.62" y="-404.5" font-family="Helvetica,sans-Serif" font-size="10.00">run2 lane&#45;order ext/post</text>
</g>
<!-- wb1&#45;&gt;chmem -->
<g id="edge17" class="edge">
<title>wb1&#45;&gt;chmem</title>
<path fill="none" stroke="#444444" d="M70.39,-383.98C68.85,-403.81 67.25,-429.87 67.25,-453 67.25,-1069.75 67.25,-1069.75 67.25,-1069.75 67.25,-1118.3 108.44,-1154.37 149.4,-1178.23"/>
<polygon fill="#444444" stroke="#444444" points="147.47,-1181.16 157.91,-1182.99 150.89,-1175.05 147.47,-1181.16"/>
<text xml:space="preserve" text-anchor="middle" x="88.62" y="-741.75" font-family="Helvetica,sans-Serif" font-size="10.00">ext writes</text>
</g>
<!-- finalm -->
<g id="node13" class="node">
<title>finalm</title>
<path fill="#ead1dc" stroke="#555555" d="M111.25,-227C111.25,-227 223.25,-227 223.25,-227 229.25,-227 235.25,-233 235.25,-239 235.25,-239 235.25,-258 235.25,-258 235.25,-264 229.25,-270 223.25,-270 223.25,-270 111.25,-270 111.25,-270 105.25,-270 99.25,-264 99.25,-258 99.25,-258 99.25,-239 99.25,-239 99.25,-233 105.25,-227 111.25,-227"/>
<text xml:space="preserve" text-anchor="middle" x="167.25" y="-255.55" font-family="Helvetica,sans-Serif" font-size="11.00">Final Posterior Memories</text>
<polyline fill="none" stroke="#555555" points="99.25,-248.5 235.25,-248.5"/>
<text xml:space="preserve" text-anchor="middle" x="167.25" y="-234.05" font-family="Helvetica,sans-Serif" font-size="11.00">final_even / final_odd</text>
</g>
<!-- wb1&#45;&gt;finalm -->
<g id="edge19" class="edge">
<title>wb1&#45;&gt;finalm</title>
<path fill="none" stroke="#444444" d="M102.73,-318.65C114.63,-305.89 128.28,-291.27 139.95,-278.76"/>
<polygon fill="#444444" stroke="#444444" points="142.37,-281.3 146.63,-271.6 137.25,-276.52 142.37,-281.3"/>
<text xml:space="preserve" text-anchor="middle" x="152.29" y="-291" font-family="Helvetica,sans-Serif" font-size="10.00">final writes</text>
</g>
<!-- wb2&#45;&gt;chmem -->
<g id="edge18" class="edge">
<title>wb2&#45;&gt;chmem</title>
<path fill="none" stroke="#444444" d="M185.26,-383.77C177.51,-389.06 170.29,-395.12 164.25,-402 148.4,-420.07 146.25,-428.96 146.25,-453 146.25,-1069.75 146.25,-1069.75 146.25,-1069.75 146.25,-1094.44 155.6,-1118.66 168.06,-1139.97"/>
<polygon fill="#444444" stroke="#444444" points="164.96,-1141.6 173.19,-1148.26 170.91,-1137.91 164.96,-1141.6"/>
<text xml:space="preserve" text-anchor="middle" x="167.62" y="-741.75" font-family="Helvetica,sans-Serif" font-size="10.00">ext writes</text>
</g>
<!-- wb2&#45;&gt;finalm -->
<g id="edge20" class="edge">
<title>wb2&#45;&gt;finalm</title>
<path fill="none" stroke="#444444" d="M232.45,-318.65C220.43,-305.89 206.63,-291.27 194.84,-278.76"/>
<polygon fill="#444444" stroke="#444444" points="197.49,-276.47 188.08,-271.59 192.39,-281.27 197.49,-276.47"/>
<text xml:space="preserve" text-anchor="middle" x="238.38" y="-291" font-family="Helvetica,sans-Serif" font-size="10.00">final writes</text>
</g>
<!-- ser -->
<g id="node14" class="node">
<title>ser</title>
<path fill="#ead1dc" stroke="#555555" d="M108.25,-103C108.25,-103 226.25,-103 226.25,-103 232.25,-103 238.25,-109 238.25,-115 238.25,-115 238.25,-177 238.25,-177 238.25,-183 232.25,-189 226.25,-189 226.25,-189 108.25,-189 108.25,-189 102.25,-189 96.25,-183 96.25,-177 96.25,-177 96.25,-115 96.25,-115 96.25,-109 102.25,-103 108.25,-103"/>
<text xml:space="preserve" text-anchor="middle" x="167.25" y="-174.55" font-family="Helvetica,sans-Serif" font-size="11.00">Serializer</text>
<polyline fill="none" stroke="#555555" points="96.25,-167.5 238.25,-167.5"/>
<text xml:space="preserve" text-anchor="middle" x="167.25" y="-153.05" font-family="Helvetica,sans-Serif" font-size="11.00">lane = idx / seg_bits</text>
<polyline fill="none" stroke="#555555" points="96.25,-146 238.25,-146"/>
<text xml:space="preserve" text-anchor="middle" x="167.25" y="-131.55" font-family="Helvetica,sans-Serif" font-size="11.00">row = idx mod seg_bits</text>
<polyline fill="none" stroke="#555555" points="96.25,-124.5 238.25,-124.5"/>
<text xml:space="preserve" text-anchor="middle" x="167.25" y="-110.05" font-family="Helvetica,sans-Serif" font-size="11.00">select even / odd posterior</text>
</g>
<!-- finalm&#45;&gt;ser -->
<g id="edge21" class="edge">
<title>finalm&#45;&gt;ser</title>
<path fill="none" stroke="#444444" d="M167.25,-226.68C167.25,-218.99 167.25,-209.89 167.25,-200.63"/>
<polygon fill="#444444" stroke="#444444" points="170.75,-200.87 167.25,-190.87 163.75,-200.87 170.75,-200.87"/>
</g>
<!-- out -->
<g id="node15" class="node">
<title>out</title>
<path fill="#ead1dc" stroke="#555555" d="M138.25,-0.5C138.25,-0.5 196.25,-0.5 196.25,-0.5 202.25,-0.5 208.25,-6.5 208.25,-12.5 208.25,-12.5 208.25,-53 208.25,-53 208.25,-59 202.25,-65 196.25,-65 196.25,-65 138.25,-65 138.25,-65 132.25,-65 126.25,-59 126.25,-53 126.25,-53 126.25,-12.5 126.25,-12.5 126.25,-6.5 132.25,-0.5 138.25,-0.5"/>
<text xml:space="preserve" text-anchor="middle" x="167.25" y="-50.55" font-family="Helvetica,sans-Serif" font-size="11.00">Scalar Output</text>
<polyline fill="none" stroke="#555555" points="126.25,-43.5 208.25,-43.5"/>
<text xml:space="preserve" text-anchor="middle" x="167.25" y="-29.05" font-family="Helvetica,sans-Serif" font-size="11.00">out_idx</text>
<polyline fill="none" stroke="#555555" points="126.25,-22 208.25,-22"/>
<text xml:space="preserve" text-anchor="middle" x="167.25" y="-7.55" font-family="Helvetica,sans-Serif" font-size="11.00">l_post</text>
</g>
<!-- ser&#45;&gt;out -->
<g id="edge22" class="edge">
<title>ser&#45;&gt;out</title>
<path fill="none" stroke="#444444" d="M167.25,-102.62C167.25,-94.1 167.25,-85.13 167.25,-76.58"/>
<polygon fill="#444444" stroke="#444444" points="170.75,-76.79 167.25,-66.79 163.75,-76.79 170.75,-76.79"/>
</g>
</g>
</svg>
