<?xml version="1.0" encoding="UTF-8" standalone="no"?>
<!DOCTYPE svg PUBLIC "-//W3C//DTD SVG 1.1//EN"
 "http://www.w3.org/Graphics/SVG/1.1/DTD/svg11.dtd">
<!-- Generated by graphviz version 14.1.2 (0)
 -->
<!-- Title: G Pages: 1 -->
<svg width="1106pt" height="1507pt"
 viewBox="0.00 0.00 1106.00 1507.00" xmlns="http://www.w3.org/2000/svg" xmlns:xlink="http://www.w3.org/1999/xlink">
<g id="graph0" class="graph" transform="scale(1 1) rotate(0) translate(4 1502.75)">
<title>G</title>
<polygon fill="white" stroke="none" points="-4,4 -4,-1502.75 1101.75,-1502.75 1101.75,4 -4,4"/>
<text xml:space="preserve" text-anchor="middle" x="548.88" y="-1475.75" font-family="Helvetica,sans-Serif" font-size="20.00">turbo_decoder_top_parallel8_backup &#45; Architecture</text>
<!-- in -->
<g id="node1" class="node">
<title>in</title>
<path fill="#e8f0fe" stroke="#555555" d="M339.12,-1316.5C339.12,-1316.5 475.88,-1316.5 475.88,-1316.5 481.88,-1316.5 487.88,-1322.5 487.88,-1328.5 487.88,-1328.5 487.88,-1455 487.88,-1455 487.88,-1461 481.88,-1467 475.88,-1467 475.88,-1467 339.12,-1467 339.12,-1467 333.12,-1467 327.12,-1461 327.12,-1455 327.12,-1455 327.12,-1328.5 327.12,-1328.5 327.12,-1322.5 333.12,-1316.5 339.12,-1316.5"/>
<text xml:space="preserve" text-anchor="middle" x="407.5" y="-1452.55" font-family="Helvetica,sans-Serif" font-size="11.00">Top Inputs</text>
<polyline fill="none" stroke="#555555" points="327.12,-1445.5 487.88,-1445.5"/>
<text xml:space="preserve" text-anchor="middle" x="407.5" y="-1431.05" font-family="Helvetica,sans-Serif" font-size="11.00">start</text>
<polyline fill="none" stroke="#555555" points="327.12,-1424 487.88,-1424"/>
<text xml:space="preserve" text-anchor="middle" x="407.5" y="-1409.55" font-family="Helvetica,sans-Serif" font-size="11.00">n_half_iter</text>
<polyline fill="none" stroke="#555555" points="327.12,-1402.5 487.88,-1402.5"/>
<text xml:space="preserve" text-anchor="middle" x="407.5" y="-1388.05" font-family="Helvetica,sans-Serif" font-size="11.00">k_len</text>
<polyline fill="none" stroke="#555555" points="327.12,-1381 487.88,-1381"/>
<text xml:space="preserve" text-anchor="middle" x="407.5" y="-1366.55" font-family="Helvetica,sans-Serif" font-size="11.00">f1 / f2</text>
<polyline fill="none" stroke="#555555" points="327.12,-1359.5 487.88,-1359.5"/>
<text xml:space="preserve" text-anchor="middle" x="407.5" y="-1345.05" font-family="Helvetica,sans-Serif" font-size="11.00">in_valid / in_idx</text>
<polyline fill="none" stroke="#555555" points="327.12,-1338 487.88,-1338"/>
<text xml:space="preserve" text-anchor="middle" x="407.5" y="-1323.55" font-family="Helvetica,sans-Serif" font-size="11.00">l_sys_in / l_par1_in / l_par2_in</text>
</g>
<!-- iter -->
<g id="node2" class="node">
<title>iter</title>
<path fill="#d0e0e3" stroke="#555555" d="M167.88,-1160C167.88,-1160 249.12,-1160 249.12,-1160 255.12,-1160 261.12,-1166 261.12,-1172 261.12,-1172 261.12,-1255.5 261.12,-1255.5 261.12,-1261.5 255.12,-1267.5 249.12,-1267.5 249.12,-1267.5 167.88,-1267.5 167.88,-1267.5 161.88,-1267.5 155.88,-1261.5 155.88,-1255.5 155.88,-1255.5 155.88,-1172 155.88,-1172 155.88,-1166 161.88,-1160 167.88,-1160"/>
<text xml:space="preserve" text-anchor="middle" x="208.5" y="-1253.05" font-family="Helvetica,sans-Serif" font-size="11.00">Iteration Control</text>
<polyline fill="none" stroke="#555555" points="155.88,-1246 261.12,-1246"/>
<text xml:space="preserve" text-anchor="middle" x="208.5" y="-1231.55" font-family="Helvetica,sans-Serif" font-size="11.00">turbo_iteration_ctrl</text>
<polyline fill="none" stroke="#555555" points="155.88,-1224.5 261.12,-1224.5"/>
<text xml:space="preserve" text-anchor="middle" x="208.5" y="-1210.05" font-family="Helvetica,sans-Serif" font-size="11.00">run1 / run2</text>
<polyline fill="none" stroke="#555555" points="155.88,-1203 261.12,-1203"/>
<text xml:space="preserve" text-anchor="middle" x="208.5" y="-1188.55" font-family="Helvetica,sans-Serif" font-size="11.00">last_half</text>
<polyline fill="none" stroke="#555555" points="155.88,-1181.5 261.12,-1181.5"/>
<text xml:space="preserve" text-anchor="middle" x="208.5" y="-1167.05" font-family="Helvetica,sans-Serif" font-size="11.00">ctrl_done</text>
</g>
<!-- in&#45;&gt;iter -->
<g id="edge1" class="edge">
<title>in&#45;&gt;iter</title>
<path fill="none" stroke="#444444" d="M326.85,-1319.42C307.79,-1302.56 287.77,-1284.86 269.73,-1268.9"/>
<polygon fill="#444444" stroke="#444444" points="272.54,-1266.71 262.73,-1262.71 267.9,-1271.96 272.54,-1266.71"/>
<text xml:space="preserve" text-anchor="middle" x="338.78" y="-1288.5" font-family="Helvetica,sans-Serif" font-size="10.00">start / n_half_iter</text>
</g>
<!-- sched -->
<g id="node3" class="node">
<title>sched</title>
<path fill="#d0e0e3" stroke="#555555" d="M510.38,-907C510.38,-907 660.62,-907 660.62,-907 666.62,-907 672.62,-913 672.62,-919 672.62,-919 672.62,-1024 672.62,-1024 672.62,-1030 666.62,-1036 660.62,-1036 660.62,-1036 510.38,-1036 510.38,-1036 504.38,-1036 498.38,-1030 498.38,-1024 498.38,-1024 498.38,-919 498.38,-919 498.38,-913 504.38,-907 510.38,-907"/>
<text xml:space="preserve" text-anchor="middle" x="585.5" y="-1021.55" font-family="Helvetica,sans-Serif" font-size="11.00">Top Scheduler</text>
<polyline fill="none" stroke="#555555" points="498.38,-1014.5 672.62,-1014.5"/>
<text xml:space="preserve" text-anchor="middle" x="585.5" y="-1000.05" font-family="Helvetica,sans-Serif" font-size="11.00">frame_bits / seg_bits / pair_count</text>
<polyline fill="none" stroke="#555555" points="498.38,-993 672.62,-993"/>
<text xml:space="preserve" text-anchor="middle" x="585.5" y="-978.55" font-family="Helvetica,sans-Serif" font-size="11.00">issue_active / issue_pair_idx</text>
<polyline fill="none" stroke="#555555" points="498.38,-971.5 672.62,-971.5"/>
<text xml:space="preserve" text-anchor="middle" x="585.5" y="-957.05" font-family="Helvetica,sans-Serif" font-size="11.00">feed_pipe_valid</text>
<polyline fill="none" stroke="#555555" points="498.38,-950 672.62,-950"/>
<text xml:space="preserve" text-anchor="middle" x="585.5" y="-935.55" font-family="Helvetica,sans-Serif" font-size="11.00">all_done reduction</text>
<polyline fill="none" stroke="#555555" points="498.38,-928.5 672.62,-928.5"/>
<text xml:space="preserve" text-anchor="middle" x="585.5" y="-914.05" font-family="Helvetica,sans-Serif" font-size="11.00">serializer start</text>
</g>
<!-- in&#45;&gt;sched -->
<g id="edge2" class="edge">
<title>in&#45;&gt;sched</title>
<path fill="none" stroke="#444444" d="M482.8,-1316.12C487.07,-1310.22 491.03,-1304.16 494.5,-1298 539.17,-1218.7 563.12,-1116 575.05,-1047.36"/>
<polygon fill="#444444" stroke="#444444" points="578.47,-1048.16 576.69,-1037.72 571.57,-1047 578.47,-1048.16"/>
<text xml:space="preserve" text-anchor="middle" x="578.37" y="-1210.25" font-family="Helvetica,sans-Serif" font-size="10.00">k_len / f1 / f2</text>
</g>
<!-- load -->
<g id="node4" class="node">
<title>load</title>
<path fill="#e8f0fe" stroke="#555555" d="M333.5,-1055C333.5,-1055 481.5,-1055 481.5,-1055 487.5,-1055 493.5,-1061 493.5,-1067 493.5,-1067 493.5,-1129 493.5,-1129 493.5,-1135 487.5,-1141 481.5,-1141 481.5,-1141 333.5,-1141 333.5,-1141 327.5,-1141 321.5,-1135 321.5,-1129 321.5,-1129 321.5,-1067 321.5,-1067 321.5,-1061 327.5,-1055 333.5,-1055"/>
<text xml:space="preserve" text-anchor="middle" x="407.5" y="-1126.55" font-family="Helvetica,sans-Serif" font-size="11.00">Input Scatter</text>
<polyline fill="none" stroke="#555555" points="321.5,-1119.5 493.5,-1119.5"/>
<text xml:space="preserve" text-anchor="middle" x="407.5" y="-1105.05" font-family="Helvetica,sans-Serif" font-size="11.00">lane_i / row_i / pair_i</text>
<polyline fill="none" stroke="#555555" points="321.5,-1098 493.5,-1098"/>
<text xml:space="preserve" text-anchor="middle" x="407.5" y="-1083.55" font-family="Helvetica,sans-Serif" font-size="11.00">load_even_en / load_odd_en</text>
<polyline fill="none" stroke="#555555" points="321.5,-1076.5 493.5,-1076.5"/>
<text xml:space="preserve" text-anchor="middle" x="407.5" y="-1062.05" font-family="Helvetica,sans-Serif" font-size="11.00">load_sys / load_par1 / load_par2</text>
</g>
<!-- in&#45;&gt;load -->
<g id="edge3" class="edge">
<title>in&#45;&gt;load</title>
<path fill="none" stroke="#444444" d="M407.5,-1316.37C407.5,-1265.28 407.5,-1198.63 407.5,-1152.68"/>
<polygon fill="#444444" stroke="#444444" points="411,-1152.68 407.5,-1142.68 404,-1152.68 411,-1152.68"/>
<text xml:space="preserve" text-anchor="middle" x="449.12" y="-1288.5" font-family="Helvetica,sans-Serif" font-size="10.00">scalar input stream</text>
</g>
<!-- iter&#45;&gt;sched -->
<g id="edge4" class="edge">
<title>iter&#45;&gt;sched</title>
<path fill="none" stroke="#444444" d="M205.29,-1159.69C204.12,-1119.52 205.79,-1068.87 220.25,-1054.5 241.12,-1033.75 456.53,-1045.66 484.5,-1036.5 485.49,-1036.18 486.49,-1035.84 487.48,-1035.49"/>
<polygon fill="#444444" stroke="#444444" points="488.62,-1038.8 496.67,-1031.9 486.08,-1032.28 488.62,-1038.8"/>
<text xml:space="preserve" text-anchor="middle" x="266.38" y="-1094.5" font-family="Helvetica,sans-Serif" font-size="10.00">run1 / run2 / last_half</text>
</g>
<!-- ser -->
<g id="node13" class="node">
<title>ser</title>
<path fill="#ead1dc" stroke="#555555" d="M12,-594C12,-594 151,-594 151,-594 157,-594 163,-600 163,-606 163,-606 163,-668 163,-668 163,-674 157,-680 151,-680 151,-680 12,-680 12,-680 6,-680 0,-674 0,-668 0,-668 0,-606 0,-606 0,-600 6,-594 12,-594"/>
<text xml:space="preserve" text-anchor="middle" x="81.5" y="-665.55" font-family="Helvetica,sans-Serif" font-size="11.00">Output Serializer</text>
<polyline fill="none" stroke="#555555" points="0,-658.5 163,-658.5"/>
<text xml:space="preserve" text-anchor="middle" x="81.5" y="-644.05" font-family="Helvetica,sans-Serif" font-size="11.00">ser_issue_idx 0..K&#45;1</text>
<polyline fill="none" stroke="#555555" points="0,-637 163,-637"/>
<text xml:space="preserve" text-anchor="middle" x="81.5" y="-622.55" font-family="Helvetica,sans-Serif" font-size="11.00">select lane / row / parity</text>
<polyline fill="none" stroke="#555555" points="0,-615.5 163,-615.5"/>
<text xml:space="preserve" text-anchor="middle" x="81.5" y="-601.05" font-family="Helvetica,sans-Serif" font-size="11.00">emit out_valid / out_idx / l_post</text>
</g>
<!-- iter&#45;&gt;ser -->
<g id="edge21" class="edge">
<title>iter&#45;&gt;ser</title>
<path fill="none" stroke="#444444" stroke-dasharray="5,2" d="M183.84,-1159.54C181.5,-1153.53 179.33,-1147.43 177.5,-1141.5 128.1,-981.47 99.45,-784.62 87.74,-691.57"/>
<polygon fill="#444444" stroke="#444444" points="91.22,-691.2 86.52,-681.71 84.28,-692.07 91.22,-691.2"/>
<text xml:space="preserve" text-anchor="middle" x="135.74" y="-879" font-family="Helvetica,sans-Serif" font-size="10.00">last_half</text>
</g>
<!-- out -->
<g id="node14" class="node">
<title>out</title>
<path fill="#ead1dc" stroke="#555555" d="M118.62,-437.5C118.62,-437.5 168.38,-437.5 168.38,-437.5 174.38,-437.5 180.38,-443.5 180.38,-449.5 180.38,-449.5 180.38,-533 180.38,-533 180.38,-539 174.38,-545 168.38,-545 168.38,-545 118.62,-545 118.62,-545 112.62,-545 106.62,-539 106.62,-533 106.62,-533 106.62,-449.5 106.62,-449.5 106.62,-443.5 112.62,-437.5 118.62,-437.5"/>
<text xml:space="preserve" text-anchor="middle" x="143.5" y="-530.55" font-family="Helvetica,sans-Serif" font-size="11.00">Top Outputs</text>
<polyline fill="none" stroke="#555555" points="106.62,-523.5 180.38,-523.5"/>
<text xml:space="preserve" text-anchor="middle" x="143.5" y="-509.05" font-family="Helvetica,sans-Serif" font-size="11.00">out_valid</text>
<polyline fill="none" stroke="#555555" points="106.62,-502 180.38,-502"/>
<text xml:space="preserve" text-anchor="middle" x="143.5" y="-487.55" font-family="Helvetica,sans-Serif" font-size="11.00">out_idx</text>
<polyline fill="none" stroke="#555555" points="106.62,-480.5 180.38,-480.5"/>
<text xml:space="preserve" text-anchor="middle" x="143.5" y="-466.05" font-family="Helvetica,sans-Serif" font-size="11.00">l_post</text>
<polyline fill="none" stroke="#555555" points="106.62,-459 180.38,-459"/>
<text xml:space="preserve" text-anchor="middle" x="143.5" y="-444.55" font-family="Helvetica,sans-Serif" font-size="11.00">done</text>
</g>
<!-- iter&#45;&gt;out -->
<g id="edge23" class="edge">
<title>iter&#45;&gt;out</title>
<path fill="none" stroke="#444444" stroke-dasharray="5,2" d="M202.6,-1159.86C197.69,-1111.23 191.5,-1037.1 191.5,-972.5 191.5,-972.5 191.5,-972.5 191.5,-636 191.5,-603.18 187.76,-594.67 177.5,-563.5 176.67,-560.97 175.77,-558.42 174.81,-555.86"/>
<polygon fill="#444444" stroke="#444444" points="178.13,-554.74 171.18,-546.74 171.63,-557.33 178.13,-554.74"/>
<text xml:space="preserve" text-anchor="middle" x="202" y="-790" font-family="Helvetica,sans-Serif" font-size="10.00">done</text>
</g>
<!-- mem -->
<g id="node5" class="node">
<title>mem</title>
<path fill="#d9ead3" stroke="#555555" d="M343.62,-729C343.62,-729 441.38,-729 441.38,-729 447.38,-729 453.38,-735 453.38,-741 453.38,-741 453.38,-846 453.38,-846 453.38,-852 447.38,-858 441.38,-858 441.38,-858 343.62,-858 343.62,-858 337.62,-858 331.62,-852 331.62,-846 331.62,-846 331.62,-741 331.62,-741 331.62,-735 337.62,-729 343.62,-729"/>
<text xml:space="preserve" text-anchor="middle" x="392.5" y="-843.55" font-family="Helvetica,sans-Serif" font-size="11.00">Row&#45;Memory Shell</text>
<polyline fill="none" stroke="#555555" points="331.62,-836.5 453.38,-836.5"/>
<text xml:space="preserve" text-anchor="middle" x="392.5" y="-822.05" font-family="Helvetica,sans-Serif" font-size="11.00">sys_even / sys_odd</text>
<polyline fill="none" stroke="#555555" points="331.62,-815 453.38,-815"/>
<text xml:space="preserve" text-anchor="middle" x="392.5" y="-800.55" font-family="Helvetica,sans-Serif" font-size="11.00">par1_even / par1_odd</text>
<polyline fill="none" stroke="#555555" points="331.62,-793.5 453.38,-793.5"/>
<text xml:space="preserve" text-anchor="middle" x="392.5" y="-779.05" font-family="Helvetica,sans-Serif" font-size="11.00">par2_even / par2_odd</text>
<polyline fill="none" stroke="#555555" points="331.62,-772 453.38,-772"/>
<text xml:space="preserve" text-anchor="middle" x="392.5" y="-757.55" font-family="Helvetica,sans-Serif" font-size="11.00">ext_even / ext_odd</text>
<polyline fill="none" stroke="#555555" points="331.62,-750.5 453.38,-750.5"/>
<text xml:space="preserve" text-anchor="middle" x="392.5" y="-736.05" font-family="Helvetica,sans-Serif" font-size="11.00">final_even / final_odd</text>
</g>
<!-- sched&#45;&gt;mem -->
<g id="edge6" class="edge">
<title>sched&#45;&gt;mem</title>
<path fill="none" stroke="#444444" stroke-dasharray="5,2" d="M515.55,-906.71C498.12,-890.82 479.44,-873.78 462.03,-857.91"/>
<polygon fill="#444444" stroke="#444444" points="464.46,-855.39 454.72,-851.24 459.75,-860.56 464.46,-855.39"/>
<text xml:space="preserve" text-anchor="middle" x="525.54" y="-879" font-family="Helvetica,sans-Serif" font-size="10.00">pair&#45;row reads</text>
</g>
<!-- qpp -->
<g id="node6" class="node">
<title>qpp</title>
<path fill="#fff2cc" stroke="#555555" d="M573.12,-750.5C573.12,-750.5 709.88,-750.5 709.88,-750.5 715.88,-750.5 721.88,-756.5 721.88,-762.5 721.88,-762.5 721.88,-824.5 721.88,-824.5 721.88,-830.5 715.88,-836.5 709.88,-836.5 709.88,-836.5 573.12,-836.5 573.12,-836.5 567.12,-836.5 561.12,-830.5 561.12,-824.5 561.12,-824.5 561.12,-762.5 561.12,-762.5 561.12,-756.5 567.12,-750.5 573.12,-750.5"/>
<text xml:space="preserve" text-anchor="middle" x="641.5" y="-822.05" font-family="Helvetica,sans-Serif" font-size="11.00">Phase&#45;2 QPP Path</text>
<polyline fill="none" stroke="#555555" points="561.12,-815 721.88,-815"/>
<text xml:space="preserve" text-anchor="middle" x="641.5" y="-800.55" font-family="Helvetica,sans-Serif" font-size="11.00">qpp_parallel_scheduler even</text>
<polyline fill="none" stroke="#555555" points="561.12,-793.5 721.88,-793.5"/>
<text xml:space="preserve" text-anchor="middle" x="641.5" y="-779.05" font-family="Helvetica,sans-Serif" font-size="11.00">qpp_parallel_scheduler odd</text>
<polyline fill="none" stroke="#555555" points="561.12,-772 721.88,-772"/>
<text xml:space="preserve" text-anchor="middle" x="641.5" y="-757.55" font-family="Helvetica,sans-Serif" font-size="11.00">addr_vec / row_base / row_ok</text>
</g>
<!-- sched&#45;&gt;qpp -->
<g id="edge7" class="edge">
<title>sched&#45;&gt;qpp</title>
<path fill="none" stroke="#444444" stroke-dasharray="5,2" d="M605.72,-906.96C611.9,-887.54 618.62,-866.4 624.56,-847.74"/>
<polygon fill="#444444" stroke="#444444" points="627.89,-848.82 627.59,-838.22 621.22,-846.69 627.89,-848.82"/>
<text xml:space="preserve" text-anchor="middle" x="650.8" y="-879" font-family="Helvetica,sans-Serif" font-size="10.00">run2 row indices</text>
</g>
<!-- siso -->
<g id="node11" class="node">
<title>siso</title>
<path fill="#d9ead3" stroke="#555555" d="M477.38,-135.5C477.38,-135.5 573.62,-135.5 573.62,-135.5 579.62,-135.5 585.62,-141.5 585.62,-147.5 585.62,-147.5 585.62,-188 585.62,-188 585.62,-194 579.62,-200 573.62,-200 573.62,-200 477.38,-200 477.38,-200 471.38,-200 465.38,-194 465.38,-188 465.38,-188 465.38,-147.5 465.38,-147.5 465.38,-141.5 471.38,-135.5 477.38,-135.5"/>
<text xml:space="preserve" text-anchor="middle" x="525.5" y="-185.55" font-family="Helvetica,sans-Serif" font-size="11.00">Parallel Decode Core</text>
<polyline fill="none" stroke="#555555" points="465.38,-178.5 585.62,-178.5"/>
<text xml:space="preserve" text-anchor="middle" x="525.5" y="-164.05" font-family="Helvetica,sans-Serif" font-size="11.00">8 x siso_maxlogmap</text>
<polyline fill="none" stroke="#555555" points="465.38,-157 585.62,-157"/>
<text xml:space="preserve" text-anchor="middle" x="525.5" y="-142.55" font-family="Helvetica,sans-Serif" font-size="11.00">one segment per lane</text>
</g>
<!-- sched&#45;&gt;siso -->
<g id="edge17" class="edge">
<title>sched&#45;&gt;siso</title>
<path fill="none" stroke="#444444" stroke-dasharray="5,2" d="M673.11,-965.1C779.67,-953.25 945.5,-915.38 945.5,-794.5 945.5,-794.5 945.5,-794.5 945.5,-291 945.5,-238.59 900.64,-239.23 852.5,-218.5 769.73,-182.86 665.57,-172.22 597.34,-169.32"/>
<polygon fill="#444444" stroke="#444444" points="597.5,-165.83 587.38,-168.95 597.24,-172.82 597.5,-165.83"/>
<text xml:space="preserve" text-anchor="middle" x="1021.62" y="-566" font-family="Helvetica,sans-Serif" font-size="10.00">core_start / core_in_valid / pair_idx</text>
</g>
<!-- load&#45;&gt;mem -->
<g id="edge5" class="edge">
<title>load&#45;&gt;mem</title>
<path fill="none" stroke="#444444" d="M403.17,-1054.71C402.64,-1048.61 402.14,-1042.4 401.75,-1036.5 398.04,-980.79 395.69,-917.75 394.29,-869.99"/>
<polygon fill="#444444" stroke="#444444" points="397.79,-869.91 394,-860.01 390.79,-870.11 397.79,-869.91"/>
<text xml:space="preserve" text-anchor="middle" x="445.62" y="-968" font-family="Helvetica,sans-Serif" font-size="10.00">channel / parity load</text>
</g>
<!-- phase2sel -->
<g id="node8" class="node">
<title>phase2sel</title>
<path fill="#fff2cc" stroke="#555555" d="M559.75,-459C559.75,-459 673.25,-459 673.25,-459 679.25,-459 685.25,-465 685.25,-471 685.25,-471 685.25,-511.5 685.25,-511.5 685.25,-517.5 679.25,-523.5 673.25,-523.5 673.25,-523.5 559.75,-523.5 559.75,-523.5 553.75,-523.5 547.75,-517.5 547.75,-511.5 547.75,-511.5 547.75,-471 547.75,-471 547.75,-465 553.75,-459 559.75,-459"/>
<text xml:space="preserve" text-anchor="middle" x="616.5" y="-509.05" font-family="Helvetica,sans-Serif" font-size="11.00">Phase&#45;2 Source Select</text>
<polyline fill="none" stroke="#555555" points="547.75,-502 685.25,-502"/>
<text xml:space="preserve" text-anchor="middle" x="616.5" y="-487.55" font-family="Helvetica,sans-Serif" font-size="11.00">choose even/odd sys row</text>
<polyline fill="none" stroke="#555555" points="547.75,-480.5 685.25,-480.5"/>
<text xml:space="preserve" text-anchor="middle" x="616.5" y="-466.05" font-family="Helvetica,sans-Serif" font-size="11.00">choose even/odd ext row</text>
</g>
<!-- mem&#45;&gt;phase2sel -->
<g id="edge11" class="edge">
<title>mem&#45;&gt;phase2sel</title>
<path fill="none" stroke="#444444" d="M453.76,-754.89C471.24,-742.25 489.35,-727.09 503.5,-710.5 516,-695.84 567.13,-593.19 596.15,-534.03"/>
<polygon fill="#444444" stroke="#444444" points="599.2,-535.75 600.45,-525.23 592.91,-532.67 599.2,-535.75"/>
<text xml:space="preserve" text-anchor="middle" x="605.65" y="-633.5" font-family="Helvetica,sans-Serif" font-size="10.00">run2 sys/ext rows</text>
</g>
<!-- mem&#45;&gt;siso -->
<g id="edge14" class="edge">
<title>mem&#45;&gt;siso</title>
<path fill="none" stroke="#444444" d="M382.23,-728.53C372.93,-656.28 364.46,-535.91 391.75,-437 394.23,-428.02 398.5,-427.42 402.5,-419 443.22,-333.35 424.44,-298.42 475.5,-218.5 477.57,-215.25 479.89,-212.06 482.37,-208.94"/>
<polygon fill="#444444" stroke="#444444" points="484.83,-211.44 488.68,-201.56 479.52,-206.88 484.83,-211.44"/>
<text xml:space="preserve" text-anchor="middle" x="429.62" y="-487.75" font-family="Helvetica,sans-Serif" font-size="10.00">run1 sys/par1/ext</text>
</g>
<!-- mem&#45;&gt;siso -->
<g id="edge16" class="edge">
<title>mem&#45;&gt;siso</title>
<path fill="none" stroke="#444444" stroke-dasharray="5,2" d="M453.66,-729.74C473.03,-703.53 489.5,-671.41 489.5,-638 489.5,-638 489.5,-638 489.5,-291 489.5,-263.59 497.93,-234.08 506.63,-210.92"/>
<polygon fill="#444444" stroke="#444444" points="509.8,-212.43 510.2,-201.84 503.29,-209.87 509.8,-212.43"/>
<text xml:space="preserve" text-anchor="middle" x="509.75" y="-487.75" font-family="Helvetica,sans-Serif" font-size="10.00">run2 par2</text>
</g>
<!-- mem&#45;&gt;ser -->
<g id="edge22" class="edge">
<title>mem&#45;&gt;ser</title>
<path fill="none" stroke="#444444" d="M331.25,-762.68C299.57,-747.2 260.29,-727.92 225.25,-710.5 208.41,-702.12 190.49,-693.14 173.22,-684.45"/>
<polygon fill="#444444" stroke="#444444" points="175,-681.43 164.49,-680.06 171.85,-687.68 175,-681.43"/>
<text xml:space="preserve" text-anchor="middle" x="271.38" y="-701" font-family="Helvetica,sans-Serif" font-size="10.00">final_even / final_odd</text>
</g>
<!-- batchm -->
<g id="node7" class="node">
<title>batchm</title>
<path fill="#fff2cc" stroke="#555555" d="M666.88,-594C666.88,-594 760.12,-594 760.12,-594 766.12,-594 772.12,-600 772.12,-606 772.12,-606 772.12,-668 772.12,-668 772.12,-674 766.12,-680 760.12,-680 760.12,-680 666.88,-680 666.88,-680 660.88,-680 654.88,-674 654.88,-668 654.88,-668 654.88,-606 654.88,-606 654.88,-600 660.88,-594 666.88,-594"/>
<text xml:space="preserve" text-anchor="middle" x="713.5" y="-665.55" font-family="Helvetica,sans-Serif" font-size="11.00">Batcher Masters</text>
<polyline fill="none" stroke="#555555" points="654.88,-658.5 772.12,-658.5"/>
<text xml:space="preserve" text-anchor="middle" x="713.5" y="-644.05" font-family="Helvetica,sans-Serif" font-size="11.00">batcher_master even</text>
<polyline fill="none" stroke="#555555" points="654.88,-637 772.12,-637"/>
<text xml:space="preserve" text-anchor="middle" x="713.5" y="-622.55" font-family="Helvetica,sans-Serif" font-size="11.00">batcher_master odd</text>
<polyline fill="none" stroke="#555555" points="654.88,-615.5 772.12,-615.5"/>
<text xml:space="preserve" text-anchor="middle" x="713.5" y="-601.05" font-family="Helvetica,sans-Serif" font-size="11.00">perm_out / ctrl_out</text>
</g>
<!-- qpp&#45;&gt;batchm -->
<g id="edge8" class="edge">
<title>qpp&#45;&gt;batchm</title>
<path fill="none" stroke="#444444" d="M661.17,-750.28C669.75,-731.88 679.9,-710.11 688.96,-690.66"/>
<polygon fill="#444444" stroke="#444444" points="692.03,-692.35 693.09,-681.81 685.69,-689.39 692.03,-692.35"/>
<text xml:space="preserve" text-anchor="middle" x="725.2" y="-701" font-family="Helvetica,sans-Serif" font-size="10.00">addr_vec even/odd</text>
</g>
<!-- batchm&#45;&gt;phase2sel -->
<g id="edge9" class="edge">
<title>batchm&#45;&gt;phase2sel</title>
<path fill="none" stroke="#444444" d="M654.74,-605.43C643.74,-597.14 633.52,-587.17 626.5,-575.5 619.29,-563.51 616.09,-548.79 614.89,-535.08"/>
<polygon fill="#444444" stroke="#444444" points="618.4,-535.21 614.4,-525.4 611.41,-535.56 618.4,-535.21"/>
<text xml:space="preserve" text-anchor="middle" x="667" y="-566" font-family="Helvetica,sans-Serif" font-size="10.00">sorted row context</text>
</g>
<!-- batchs -->
<g id="node9" class="node">
<title>batchs</title>
<path fill="#fff2cc" stroke="#555555" d="M562.38,-249C562.38,-249 670.62,-249 670.62,-249 676.62,-249 682.62,-255 682.62,-261 682.62,-261 682.62,-323 682.62,-323 682.62,-329 676.62,-335 670.62,-335 670.62,-335 562.38,-335 562.38,-335 556.38,-335 550.38,-329 550.38,-323 550.38,-323 550.38,-261 550.38,-261 550.38,-255 556.38,-249 562.38,-249"/>
<text xml:space="preserve" text-anchor="middle" x="616.5" y="-320.55" font-family="Helvetica,sans-Serif" font-size="11.00">Forward Batcher Slaves</text>
<polyline fill="none" stroke="#555555" points="550.38,-313.5 682.62,-313.5"/>
<text xml:space="preserve" text-anchor="middle" x="616.5" y="-299.05" font-family="Helvetica,sans-Serif" font-size="11.00">sys even/odd routing</text>
<polyline fill="none" stroke="#555555" points="550.38,-292 682.62,-292"/>
<text xml:space="preserve" text-anchor="middle" x="616.5" y="-277.55" font-family="Helvetica,sans-Serif" font-size="11.00">apri even/odd routing</text>
<polyline fill="none" stroke="#555555" points="550.38,-270.5 682.62,-270.5"/>
<text xml:space="preserve" text-anchor="middle" x="616.5" y="-256.05" font-family="Helvetica,sans-Serif" font-size="11.00">lane&#45;order feed</text>
</g>
<!-- batchm&#45;&gt;batchs -->
<g id="edge13" class="edge">
<title>batchm&#45;&gt;batchs</title>
<path fill="none" stroke="#444444" d="M714.74,-593.71C716.59,-520.03 718.74,-373.95 707.5,-353.5 703.32,-345.9 697.74,-339.09 691.38,-333.02"/>
<polygon fill="#444444" stroke="#444444" points="693.95,-330.62 684.1,-326.72 689.37,-335.92 693.95,-330.62"/>
<text xml:space="preserve" text-anchor="middle" x="766.1" y="-487.75" font-family="Helvetica,sans-Serif" font-size="10.00">perm_even / perm_odd</text>
</g>
<!-- hist -->
<g id="node10" class="node">
<title>hist</title>
<path fill="#fff2cc" stroke="#555555" d="M759.12,-354C759.12,-354 907.88,-354 907.88,-354 913.88,-354 919.88,-360 919.88,-366 919.88,-366 919.88,-406.5 919.88,-406.5 919.88,-412.5 913.88,-418.5 907.88,-418.5 907.88,-418.5 759.12,-418.5 759.12,-418.5 753.12,-418.5 747.12,-412.5 747.12,-406.5 747.12,-406.5 747.12,-366 747.12,-366 747.12,-360 753.12,-354 759.12,-354"/>
<text xml:space="preserve" text-anchor="middle" x="833.5" y="-404.05" font-family="Helvetica,sans-Serif" font-size="11.00">Permutation History</text>
<polyline fill="none" stroke="#555555" points="747.12,-397 919.88,-397"/>
<text xml:space="preserve" text-anchor="middle" x="833.5" y="-382.55" font-family="Helvetica,sans-Serif" font-size="11.00">perm_even / perm_odd</text>
<polyline fill="none" stroke="#555555" points="747.12,-375.5 919.88,-375.5"/>
<text xml:space="preserve" text-anchor="middle" x="833.5" y="-361.05" font-family="Helvetica,sans-Serif" font-size="11.00">row_base_even / row_base_odd</text>
</g>
<!-- batchm&#45;&gt;hist -->
<g id="edge10" class="edge">
<title>batchm&#45;&gt;hist</title>
<path fill="none" stroke="#444444" d="M772.59,-602.68C793.01,-587.95 813.71,-568.67 825.5,-545.5 843.7,-509.75 843.76,-463.39 840.44,-430.1"/>
<polygon fill="#444444" stroke="#444444" points="843.95,-429.95 839.33,-420.41 836.99,-430.75 843.95,-429.95"/>
<text xml:space="preserve" text-anchor="middle" x="850.01" y="-566" font-family="Helvetica,sans-Serif" font-size="10.00">perm / row_base</text>
</g>
<!-- phase2sel&#45;&gt;batchs -->
<g id="edge12" class="edge">
<title>phase2sel&#45;&gt;batchs</title>
<path fill="none" stroke="#444444" d="M616.5,-458.56C616.5,-428.39 616.5,-382.4 616.5,-346.54"/>
<polygon fill="#444444" stroke="#444444" points="620,-346.8 616.5,-336.8 613,-346.8 620,-346.8"/>
<text xml:space="preserve" text-anchor="middle" x="660.38" y="-382.75" font-family="Helvetica,sans-Serif" font-size="10.00">sorted payload rows</text>
</g>
<!-- batchs&#45;&gt;siso -->
<g id="edge15" class="edge">
<title>batchs&#45;&gt;siso</title>
<path fill="none" stroke="#444444" d="M584.93,-248.59C575.43,-235.82 565.03,-221.85 555.63,-209.22"/>
<polygon fill="#444444" stroke="#444444" points="558.66,-207.44 549.88,-201.51 553.05,-211.62 558.66,-207.44"/>
<text xml:space="preserve" text-anchor="middle" x="599.12" y="-221" font-family="Helvetica,sans-Serif" font-size="10.00">run2 sys/apri</text>
</g>
<!-- wb -->
<g id="node12" class="node">
<title>wb</title>
<path fill="#fce5cd" stroke="#555555" d="M464.25,-0.5C464.25,-0.5 586.75,-0.5 586.75,-0.5 592.75,-0.5 598.75,-6.5 598.75,-12.5 598.75,-12.5 598.75,-74.5 598.75,-74.5 598.75,-80.5 592.75,-86.5 586.75,-86.5 586.75,-86.5 464.25,-86.5 464.25,-86.5 458.25,-86.5 452.25,-80.5 452.25,-74.5 452.25,-74.5 452.25,-12.5 452.25,-12.5 452.25,-6.5 458.25,-0.5 464.25,-0.5"/>
<text xml:space="preserve" text-anchor="middle" x="525.5" y="-72.05" font-family="Helvetica,sans-Serif" font-size="11.00">Writeback Network</text>
<polyline fill="none" stroke="#555555" points="452.25,-65 598.75,-65"/>
<text xml:space="preserve" text-anchor="middle" x="525.5" y="-50.55" font-family="Helvetica,sans-Serif" font-size="11.00">run1 direct pair&#45;row write</text>
<polyline fill="none" stroke="#555555" points="452.25,-43.5 598.75,-43.5"/>
<text xml:space="preserve" text-anchor="middle" x="525.5" y="-29.05" font-family="Helvetica,sans-Serif" font-size="11.00">run2 reverse batcher_slave</text>
<polyline fill="none" stroke="#555555" points="452.25,-22 598.75,-22"/>
<text xml:space="preserve" text-anchor="middle" x="525.5" y="-7.55" font-family="Helvetica,sans-Serif" font-size="11.00">ext / final memory writes</text>
</g>
<!-- hist&#45;&gt;wb -->
<g id="edge19" class="edge">
<title>hist&#45;&gt;wb</title>
<path fill="none" stroke="#444444" d="M821.82,-353.63C799.37,-296.74 745.05,-176.43 663.5,-105 647.89,-91.33 628.71,-80.32 609.67,-71.64"/>
<polygon fill="#444444" stroke="#444444" points="611.08,-68.44 600.51,-67.66 608.29,-74.86 611.08,-68.44"/>
<text xml:space="preserve" text-anchor="middle" x="804.52" y="-221" font-family="Helvetica,sans-Serif" font-size="10.00">stored route context</text>
</g>
<!-- siso&#45;&gt;wb -->
<g id="edge18" class="edge">
<title>siso&#45;&gt;wb</title>
<path fill="none" stroke="#444444" d="M525.5,-135.27C525.5,-124 525.5,-110.96 525.5,-98.34"/>
<polygon fill="#444444" stroke="#444444" points="529,-98.45 525.5,-88.45 522,-98.45 529,-98.45"/>
<text xml:space="preserve" text-anchor="middle" x="592.62" y="-107.5" font-family="Helvetica,sans-Serif" font-size="10.00">ext_even/odd + post_even/odd</text>
</g>
<!-- wb&#45;&gt;mem -->
<g id="edge20" class="edge">
<title>wb&#45;&gt;mem</title>
<path fill="none" stroke="#444444" d="M451.88,-59.71C397,-75.86 331.5,-107.53 331.5,-166.75 331.5,-638 331.5,-638 331.5,-638 331.5,-665.25 339.81,-693.44 350.3,-718.15"/>
<polygon fill="#444444" stroke="#444444" points="347.03,-719.42 354.29,-727.14 353.43,-716.58 347.03,-719.42"/>
<text xml:space="preserve" text-anchor="middle" x="366.38" y="-382.75" font-family="Helvetica,sans-Serif" font-size="10.00">ext / final writes</text>
</g>
<!-- ser&#45;&gt;out -->
<g id="edge24" class="edge">
<title>ser&#45;&gt;out</title>
<path fill="none" stroke="#444444" d="M86.88,-593.76C88.96,-583.62 91.83,-572.98 95.75,-563.5 97.25,-559.88 98.94,-556.25 100.77,-552.66"/>
<polygon fill="#444444" stroke="#444444" points="103.8,-554.42 105.54,-543.97 97.66,-551.06 103.8,-554.42"/>
<text xml:space="preserve" text-anchor="middle" x="136.62" y="-566" font-family="Helvetica,sans-Serif" font-size="10.00">serialized posterior</text>
</g>
</g>
</svg>
