<?xml version="1.0" encoding="UTF-8" standalone="no"?>
<!DOCTYPE svg PUBLIC "-//W3C//DTD SVG 1.1//EN"
 "http://www.w3.org/Graphics/SVG/1.1/DTD/svg11.dtd">
<!-- Generated by graphviz version 14.1.2 (0)
 -->
<!-- Title: turbo_parallel8_control Pages: 1 -->
<svg width="1534pt" height="1162pt"
 viewBox="0.00 0.00 1534.00 1162.00" xmlns="http://www.w3.org/2000/svg" xmlns:xlink="http://www.w3.org/1999/xlink">
<g id="graph0" class="graph" transform="scale(1 1) rotate(0) translate(14.4 1147.91)">
<title>turbo_parallel8_control</title>
<polygon fill="white" stroke="none" points="-14.4,14.4 -14.4,-1147.91 1519.4,-1147.91 1519.4,14.4 -14.4,14.4"/>
<text xml:space="preserve" text-anchor="middle" x="752.5" y="-1116.21" font-family="Helvetica,sans-Serif" font-size="14.00">turbo_decoder_top_parallel8_backup Control / Schedule</text>
<g id="clust1" class="cluster">
<title>cluster_iter</title>
<path fill="white" stroke="#93c5fd" d="M873.75,-503.88C873.75,-503.88 1394.75,-503.88 1394.75,-503.88 1400.75,-503.88 1406.75,-509.88 1406.75,-515.88 1406.75,-515.88 1406.75,-972.3 1406.75,-972.3 1406.75,-978.3 1400.75,-984.3 1394.75,-984.3 1394.75,-984.3 873.75,-984.3 873.75,-984.3 867.75,-984.3 861.75,-978.3 861.75,-972.3 861.75,-972.3 861.75,-515.88 861.75,-515.88 861.75,-509.88 867.75,-503.88 873.75,-503.88"/>
<text xml:space="preserve" text-anchor="middle" x="1134.25" y="-967" font-family="Helvetica,sans-Serif" font-size="14.00">turbo_iteration_ctrl</text>
</g>
<g id="clust2" class="cluster">
<title>cluster_sched</title>
<path fill="white" stroke="#bfdbfe" d="M97.75,-103.14C97.75,-103.14 246.75,-103.14 246.75,-103.14 252.75,-103.14 258.75,-109.14 258.75,-115.14 258.75,-115.14 258.75,-988.62 258.75,-988.62 258.75,-994.62 252.75,-1000.62 246.75,-1000.62 246.75,-1000.62 97.75,-1000.62 97.75,-1000.62 91.75,-1000.62 85.75,-994.62 85.75,-988.62 85.75,-988.62 85.75,-115.14 85.75,-115.14 85.75,-109.14 91.75,-103.14 97.75,-103.14"/>
<text xml:space="preserve" text-anchor="middle" x="172.25" y="-983.32" font-family="Helvetica,sans-Serif" font-size="14.00">Main Top&#45;Level Scheduler</text>
</g>
<g id="clust3" class="cluster">
<title>cluster_side</title>
<path fill="white" stroke="#a7f3d0" d="M278.75,-493.56C278.75,-493.56 841.75,-493.56 841.75,-493.56 847.75,-493.56 853.75,-499.56 853.75,-505.56 853.75,-505.56 853.75,-601.7 853.75,-601.7 853.75,-607.7 847.75,-613.7 841.75,-613.7 841.75,-613.7 278.75,-613.7 278.75,-613.7 272.75,-613.7 266.75,-607.7 266.75,-601.7 266.75,-601.7 266.75,-505.56 266.75,-505.56 266.75,-499.56 272.75,-493.56 278.75,-493.56"/>
<text xml:space="preserve" text-anchor="middle" x="560.25" y="-596.4" font-family="Helvetica,sans-Serif" font-size="14.00">Controlled Actions</text>
</g>
<!-- inputs -->
<g id="node1" class="node">
<title>inputs</title>
<path fill="#f8fafc" stroke="#334155" d="M201.7,-1109.76C201.7,-1109.76 143.8,-1109.76 143.8,-1109.76 137.8,-1109.76 131.8,-1103.76 131.8,-1097.76 131.8,-1097.76 131.8,-1053.12 131.8,-1053.12 131.8,-1047.12 137.8,-1041.12 143.8,-1041.12 143.8,-1041.12 201.7,-1041.12 201.7,-1041.12 207.7,-1041.12 213.7,-1047.12 213.7,-1053.12 213.7,-1053.12 213.7,-1097.76 213.7,-1097.76 213.7,-1103.76 207.7,-1109.76 201.7,-1109.76"/>
<text xml:space="preserve" text-anchor="middle" x="172.75" y="-1095.94" font-family="Helvetica,sans-Serif" font-size="10.00">Top Inputs</text>
<text xml:space="preserve" text-anchor="middle" x="172.75" y="-1083.94" font-family="Helvetica,sans-Serif" font-size="10.00">start</text>
<text xml:space="preserve" text-anchor="middle" x="172.75" y="-1071.94" font-family="Helvetica,sans-Serif" font-size="10.00">n_half_iter</text>
<text xml:space="preserve" text-anchor="middle" x="172.75" y="-1059.94" font-family="Helvetica,sans-Serif" font-size="10.00">k_len</text>
<text xml:space="preserve" text-anchor="middle" x="172.75" y="-1047.94" font-family="Helvetica,sans-Serif" font-size="10.00">in_valid / in_idx</text>
</g>
<!-- idle -->
<g id="node3" class="node">
<title>idle</title>
<path fill="#eff6ff" stroke="#334155" d="M1174.75,-928.8C1174.75,-928.8 1144.75,-928.8 1144.75,-928.8 1138.75,-928.8 1132.75,-922.8 1132.75,-916.8 1132.75,-916.8 1132.75,-904.8 1132.75,-904.8 1132.75,-898.8 1138.75,-892.8 1144.75,-892.8 1144.75,-892.8 1174.75,-892.8 1174.75,-892.8 1180.75,-892.8 1186.75,-898.8 1186.75,-904.8 1186.75,-904.8 1186.75,-916.8 1186.75,-916.8 1186.75,-922.8 1180.75,-928.8 1174.75,-928.8"/>
<text xml:space="preserve" text-anchor="middle" x="1159.75" y="-907.3" font-family="Helvetica,sans-Serif" font-size="10.00">IDLE</text>
</g>
<!-- inputs&#45;&gt;idle -->
<g id="edge2" class="edge">
<title>inputs&#45;&gt;idle</title>
<path fill="none" stroke="#2563eb" stroke-width="1.1" stroke-dasharray="5,2" d="M213.9,-1067.66C376.47,-1040.87 972.43,-942.67 1124.33,-917.64"/>
<polygon fill="#2563eb" stroke="#2563eb" stroke-width="1.1" points="1124.31,-920.12 1130.82,-916.57 1123.52,-915.29 1124.31,-920.12"/>
<text xml:space="preserve" text-anchor="middle" x="557.45" y="-1010.57" font-family="Helvetica,sans-Serif" font-size="9.00">start</text>
</g>
<!-- init -->
<g id="node7" class="node">
<title>init</title>
<path fill="#f8fbff" stroke="#334155" d="M232.45,-945.12C232.45,-945.12 113.05,-945.12 113.05,-945.12 107.05,-945.12 101.05,-939.12 101.05,-933.12 101.05,-933.12 101.05,-888.48 101.05,-888.48 101.05,-882.48 107.05,-876.48 113.05,-876.48 113.05,-876.48 232.45,-876.48 232.45,-876.48 238.45,-876.48 244.45,-882.48 244.45,-888.48 244.45,-888.48 244.45,-933.12 244.45,-933.12 244.45,-939.12 238.45,-945.12 232.45,-945.12"/>
<text xml:space="preserve" text-anchor="middle" x="172.75" y="-931.3" font-family="Helvetica,sans-Serif" font-size="10.00">Start Capture</text>
<text xml:space="preserve" text-anchor="middle" x="172.75" y="-919.3" font-family="Helvetica,sans-Serif" font-size="10.00">frame_bits &lt;= K</text>
<text xml:space="preserve" text-anchor="middle" x="172.75" y="-907.3" font-family="Helvetica,sans-Serif" font-size="10.00">seg_bits &lt;= K/8</text>
<text xml:space="preserve" text-anchor="middle" x="172.75" y="-895.3" font-family="Helvetica,sans-Serif" font-size="10.00">pair_count &lt;= ceil(seg_bits/2)</text>
<text xml:space="preserve" text-anchor="middle" x="172.75" y="-883.3" font-family="Helvetica,sans-Serif" font-size="10.00">first_run1_pending &lt;= 1</text>
</g>
<!-- inputs&#45;&gt;init -->
<g id="edge3" class="edge">
<title>inputs&#45;&gt;init</title>
<path fill="none" stroke="#2563eb" stroke-width="1.1" stroke-dasharray="5,2" d="M172.75,-1040.74C172.75,-1015.55 172.75,-980.96 172.75,-953.94"/>
<polygon fill="#2563eb" stroke="#2563eb" stroke-width="1.1" points="175.2,-954.12 172.75,-947.12 170.3,-954.12 175.2,-954.12"/>
<text xml:space="preserve" text-anchor="middle" x="184" y="-1010.57" font-family="Helvetica,sans-Serif" font-size="9.00">k_len</text>
</g>
<!-- load_proc -->
<g id="node15" class="node">
<title>load_proc</title>
<path fill="#f0fdf4" stroke="#334155" d="M442.82,-547.88C442.82,-547.88 286.68,-547.88 286.68,-547.88 280.68,-547.88 274.68,-541.88 274.68,-535.88 274.68,-535.88 274.68,-523.88 274.68,-523.88 274.68,-517.88 280.68,-511.88 286.68,-511.88 286.68,-511.88 442.82,-511.88 442.82,-511.88 448.82,-511.88 454.82,-517.88 454.82,-523.88 454.82,-523.88 454.82,-535.88 454.82,-535.88 454.82,-541.88 448.82,-547.88 442.82,-547.88"/>
<text xml:space="preserve" text-anchor="middle" x="364.75" y="-532.38" font-family="Helvetica,sans-Serif" font-size="10.00">Input Load Process</text>
<text xml:space="preserve" text-anchor="middle" x="364.75" y="-520.38" font-family="Helvetica,sans-Serif" font-size="10.00">scatter scalar load into lane memories</text>
</g>
<!-- inputs&#45;&gt;load_proc -->
<g id="edge1" class="edge">
<title>inputs&#45;&gt;load_proc</title>
<path fill="none" stroke="#2563eb" stroke-width="1.1" stroke-dasharray="5,2" d="M131.52,-1042.06C106.26,-1022.23 78.75,-1000.62 78.75,-1000.62 78.75,-1000.62 0,-821.98 0,-821.98 0,-821.98 0,-753.34 0,-753.34 0,-753.34 78.75,-654.2 78.75,-654.2 78.75,-654.2 262.75,-632.2 262.75,-632.2 262.75,-632.2 311.21,-584.07 341.32,-554.15"/>
<polygon fill="#2563eb" stroke="#2563eb" stroke-width="1.1" points="343.03,-555.91 346.27,-549.24 339.57,-552.44 343.03,-555.91"/>
<text xml:space="preserve" text-anchor="middle" x="39.38" y="-784.36" font-family="Helvetica,sans-Serif" font-size="9.00">external frame load</text>
</g>
<!-- outputs -->
<g id="node2" class="node">
<title>outputs</title>
<path fill="#f8fafc" stroke="#334155" d="M817.58,-56.64C817.58,-56.64 773.92,-56.64 773.92,-56.64 767.92,-56.64 761.92,-50.64 761.92,-44.64 761.92,-44.64 761.92,-12 761.92,-12 761.92,-6 767.92,0 773.92,0 773.92,0 817.58,0 817.58,0 823.58,0 829.58,-6 829.58,-12 829.58,-12 829.58,-44.64 829.58,-44.64 829.58,-50.64 823.58,-56.64 817.58,-56.64"/>
<text xml:space="preserve" text-anchor="middle" x="795.75" y="-42.82" font-family="Helvetica,sans-Serif" font-size="10.00">Top Outputs</text>
<text xml:space="preserve" text-anchor="middle" x="795.75" y="-30.82" font-family="Helvetica,sans-Serif" font-size="10.00">out_valid</text>
<text xml:space="preserve" text-anchor="middle" x="795.75" y="-18.82" font-family="Helvetica,sans-Serif" font-size="10.00">out_idx</text>
<text xml:space="preserve" text-anchor="middle" x="795.75" y="-6.82" font-family="Helvetica,sans-Serif" font-size="10.00">done</text>
</g>
<!-- run1 -->
<g id="node4" class="node">
<title>run1</title>
<path fill="#eff6ff" stroke="#334155" d="M1074.75,-805.66C1074.75,-805.66 1044.75,-805.66 1044.75,-805.66 1038.75,-805.66 1032.75,-799.66 1032.75,-793.66 1032.75,-793.66 1032.75,-781.66 1032.75,-781.66 1032.75,-775.66 1038.75,-769.66 1044.75,-769.66 1044.75,-769.66 1074.75,-769.66 1074.75,-769.66 1080.75,-769.66 1086.75,-775.66 1086.75,-781.66 1086.75,-781.66 1086.75,-793.66 1086.75,-793.66 1086.75,-799.66 1080.75,-805.66 1074.75,-805.66"/>
<text xml:space="preserve" text-anchor="middle" x="1059.75" y="-784.16" font-family="Helvetica,sans-Serif" font-size="10.00">RUN1</text>
</g>
<!-- idle&#45;&gt;run1 -->
<g id="edge4" class="edge">
<title>idle&#45;&gt;run1</title>
<path fill="none" stroke="#475569" stroke-width="1.1" d="M1145.42,-892.44C1128.12,-871.48 1098.93,-836.12 1079.5,-812.58"/>
<polygon fill="#475569" stroke="#475569" stroke-width="1.1" points="1081.46,-811.11 1075.11,-807.27 1077.68,-814.23 1081.46,-811.11"/>
<text xml:space="preserve" text-anchor="middle" x="1160.75" y="-845.93" font-family="Helvetica,sans-Serif" font-size="9.00">start and n_half_iter &gt; 0</text>
</g>
<!-- finish -->
<g id="node6" class="node">
<title>finish</title>
<path fill="#eff6ff" stroke="#334155" d="M1100.75,-547.88C1100.75,-547.88 1070.75,-547.88 1070.75,-547.88 1064.75,-547.88 1058.75,-541.88 1058.75,-535.88 1058.75,-535.88 1058.75,-523.88 1058.75,-523.88 1058.75,-517.88 1064.75,-511.88 1070.75,-511.88 1070.75,-511.88 1100.75,-511.88 1100.75,-511.88 1106.75,-511.88 1112.75,-517.88 1112.75,-523.88 1112.75,-523.88 1112.75,-535.88 1112.75,-535.88 1112.75,-541.88 1106.75,-547.88 1100.75,-547.88"/>
<text xml:space="preserve" text-anchor="middle" x="1085.75" y="-526.38" font-family="Helvetica,sans-Serif" font-size="10.00">FINISH</text>
</g>
<!-- idle&#45;&gt;finish -->
<g id="edge5" class="edge">
<title>idle&#45;&gt;finish</title>
<path fill="none" stroke="#475569" stroke-width="1.1" d="M1177.16,-892.6C1193.6,-876.36 1215.75,-854.48 1215.75,-854.48 1215.75,-854.48 1222.75,-698.84 1222.75,-698.84 1222.75,-698.84 1222.75,-654.2 1222.75,-654.2 1222.75,-654.2 1150.76,-589.4 1111.15,-553.74"/>
<polygon fill="#475569" stroke="#475569" stroke-width="1.1" points="1113.17,-552.26 1106.33,-549.4 1109.89,-555.91 1113.17,-552.26"/>
<text xml:space="preserve" text-anchor="middle" x="1269.75" y="-722.79" font-family="Helvetica,sans-Serif" font-size="9.00">start and n_half_iter = 0</text>
</g>
<!-- run2 -->
<g id="node5" class="node">
<title>run2</title>
<path fill="#eff6ff" stroke="#334155" d="M912.75,-694.52C912.75,-694.52 882.75,-694.52 882.75,-694.52 876.75,-694.52 870.75,-688.52 870.75,-682.52 870.75,-682.52 870.75,-670.52 870.75,-670.52 870.75,-664.52 876.75,-658.52 882.75,-658.52 882.75,-658.52 912.75,-658.52 912.75,-658.52 918.75,-658.52 924.75,-664.52 924.75,-670.52 924.75,-670.52 924.75,-682.52 924.75,-682.52 924.75,-688.52 918.75,-694.52 912.75,-694.52"/>
<text xml:space="preserve" text-anchor="middle" x="897.75" y="-673.02" font-family="Helvetica,sans-Serif" font-size="10.00">RUN2</text>
</g>
<!-- run1&#45;&gt;run2 -->
<g id="edge6" class="edge">
<title>run1&#45;&gt;run2</title>
<path fill="none" stroke="#475569" stroke-width="1.1" d="M1032.51,-777.4C986.18,-761.65 897,-731.34 897,-731.34 897,-731.34 897,-720.84 897,-720.84 897,-720.84 897.14,-712.58 897.3,-703.27"/>
<polygon fill="#475569" stroke="#475569" stroke-width="1.1" points="899.75,-703.35 897.42,-696.31 894.85,-703.26 899.75,-703.35"/>
<text xml:space="preserve" text-anchor="middle" x="960.38" y="-722.79" font-family="Helvetica,sans-Serif" font-size="9.00">phase1_done and not last_half</text>
</g>
<!-- run1&#45;&gt;finish -->
<g id="edge7" class="edge">
<title>run1&#45;&gt;finish</title>
<path fill="none" stroke="#475569" stroke-width="1.1" d="M1087.05,-772.41C1118.45,-756.02 1165.75,-731.34 1165.75,-731.34 1165.75,-731.34 1165.75,-720.84 1165.75,-720.84 1165.75,-720.84 1108,-698.84 1108,-698.84 1108,-698.84 1095.41,-603.78 1089.17,-556.69"/>
<polygon fill="#475569" stroke="#475569" stroke-width="1.1" points="1091.61,-556.49 1088.27,-549.87 1086.76,-557.13 1091.61,-556.49"/>
<text xml:space="preserve" text-anchor="middle" x="1163.88" y="-673.22" font-family="Helvetica,sans-Serif" font-size="9.00">phase1_done and last_half</text>
</g>
<!-- run_edge -->
<g id="node8" class="node">
<title>run_edge</title>
<path fill="#f8fbff" stroke="#334155" d="M239.2,-821.98C239.2,-821.98 136.3,-821.98 136.3,-821.98 130.3,-821.98 124.3,-815.98 124.3,-809.98 124.3,-809.98 124.3,-765.34 124.3,-765.34 124.3,-759.34 130.3,-753.34 136.3,-753.34 136.3,-753.34 239.2,-753.34 239.2,-753.34 245.2,-753.34 251.2,-759.34 251.2,-765.34 251.2,-765.34 251.2,-809.98 251.2,-809.98 251.2,-815.98 245.2,-821.98 239.2,-821.98"/>
<text xml:space="preserve" text-anchor="middle" x="187.75" y="-808.16" font-family="Helvetica,sans-Serif" font-size="10.00">Run Edge Actions</text>
<text xml:space="preserve" text-anchor="middle" x="187.75" y="-796.16" font-family="Helvetica,sans-Serif" font-size="10.00">issue_active &lt;= 1</text>
<text xml:space="preserve" text-anchor="middle" x="187.75" y="-784.16" font-family="Helvetica,sans-Serif" font-size="10.00">issue_pair_idx &lt;= 0</text>
<text xml:space="preserve" text-anchor="middle" x="187.75" y="-772.16" font-family="Helvetica,sans-Serif" font-size="10.00">pulse core_start[0:7]</text>
<text xml:space="preserve" text-anchor="middle" x="187.75" y="-760.16" font-family="Helvetica,sans-Serif" font-size="10.00">core_seg_len &lt;= seg_bits</text>
</g>
<!-- run1&#45;&gt;run_edge -->
<g id="edge11" class="edge">
<title>run1&#45;&gt;run_edge</title>
<path fill="none" stroke="#2563eb" stroke-width="1.1" stroke-dasharray="5,2" d="M1032.46,-787.66C914,-787.66 442.09,-787.66 259.97,-787.66"/>
<polygon fill="#2563eb" stroke="#2563eb" stroke-width="1.1" points="260.18,-785.21 253.18,-787.66 260.18,-790.11 260.18,-785.21"/>
<text xml:space="preserve" text-anchor="middle" x="641.98" y="-792.61" font-family="Helvetica,sans-Serif" font-size="9.00">rising edge of run1</text>
</g>
<!-- run1_actions -->
<g id="node16" class="node">
<title>run1_actions</title>
<path fill="#f0fdf4" stroke="#334155" d="M573.45,-547.88C573.45,-547.88 496.05,-547.88 496.05,-547.88 490.05,-547.88 484.05,-541.88 484.05,-535.88 484.05,-535.88 484.05,-523.88 484.05,-523.88 484.05,-517.88 490.05,-511.88 496.05,-511.88 496.05,-511.88 573.45,-511.88 573.45,-511.88 579.45,-511.88 585.45,-517.88 585.45,-523.88 585.45,-523.88 585.45,-535.88 585.45,-535.88 585.45,-541.88 579.45,-547.88 573.45,-547.88"/>
<text xml:space="preserve" text-anchor="middle" x="534.75" y="-532.38" font-family="Helvetica,sans-Serif" font-size="10.00">RUN1 feed</text>
<text xml:space="preserve" text-anchor="middle" x="534.75" y="-520.38" font-family="Helvetica,sans-Serif" font-size="10.00">sys/par1/ext&#45;or&#45;zero</text>
</g>
<!-- run1&#45;&gt;run1_actions -->
<g id="edge18" class="edge">
<title>run1&#45;&gt;run1_actions</title>
<path fill="none" stroke="#2563eb" stroke-width="1.1" stroke-dasharray="5,2" d="M1032.44,-777.77C984.38,-762.13 889.75,-731.34 889.75,-731.34 889.75,-731.34 809.5,-698.84 809.5,-698.84 809.5,-698.84 600.75,-613.7 600.75,-613.7 600.75,-613.7 573.18,-579.11 553.68,-554.64"/>
<polygon fill="#2563eb" stroke="#2563eb" stroke-width="1.1" points="555.74,-553.29 549.46,-549.34 551.91,-556.34 555.74,-553.29"/>
<text xml:space="preserve" text-anchor="middle" x="833.12" y="-673.22" font-family="Helvetica,sans-Serif" font-size="9.00">mode=run1</text>
</g>
<!-- run2&#45;&gt;run1 -->
<g id="edge8" class="edge">
<title>run2&#45;&gt;run1</title>
<path fill="none" stroke="#475569" stroke-width="1.1" d="M925.11,-686.71C962.97,-699.42 1026.75,-720.84 1026.75,-720.84 1026.75,-720.84 1037.89,-743.06 1047.23,-761.68"/>
<polygon fill="#475569" stroke="#475569" stroke-width="1.1" points="1045.01,-762.72 1050.33,-767.88 1049.39,-760.52 1045.01,-762.72"/>
<text xml:space="preserve" text-anchor="middle" x="1094.92" y="-722.79" font-family="Helvetica,sans-Serif" font-size="9.00">phase2_done and not last_half</text>
</g>
<!-- run2&#45;&gt;finish -->
<g id="edge9" class="edge">
<title>run2&#45;&gt;finish</title>
<path fill="none" stroke="#475569" stroke-width="1.1" d="M919.72,-658.19C939.67,-642.46 966,-621.7 966,-621.7 966,-621.7 1020.67,-580.24 1056.13,-553.34"/>
<polygon fill="#475569" stroke="#475569" stroke-width="1.1" points="1057.52,-555.36 1061.62,-549.18 1054.56,-551.46 1057.52,-555.36"/>
<text xml:space="preserve" text-anchor="middle" x="1021.88" y="-623.65" font-family="Helvetica,sans-Serif" font-size="9.00">phase2_done and last_half</text>
</g>
<!-- run2&#45;&gt;run_edge -->
<g id="edge12" class="edge">
<title>run2&#45;&gt;run_edge</title>
<path fill="none" stroke="#2563eb" stroke-width="1.1" stroke-dasharray="5,2" d="M870.52,-681.71C769.56,-697.23 414.51,-751.8 260.23,-775.52"/>
<polygon fill="#2563eb" stroke="#2563eb" stroke-width="1.1" points="259.89,-773.09 253.34,-776.58 260.63,-777.94 259.89,-773.09"/>
<text xml:space="preserve" text-anchor="middle" x="644.59" y="-722.79" font-family="Helvetica,sans-Serif" font-size="9.00">rising edge of run2</text>
</g>
<!-- run2_actions -->
<g id="node17" class="node">
<title>run2_actions</title>
<path fill="#f0fdf4" stroke="#334155" d="M708.7,-552.2C708.7,-552.2 626.8,-552.2 626.8,-552.2 620.8,-552.2 614.8,-546.2 614.8,-540.2 614.8,-540.2 614.8,-519.56 614.8,-519.56 614.8,-513.56 620.8,-507.56 626.8,-507.56 626.8,-507.56 708.7,-507.56 708.7,-507.56 714.7,-507.56 720.7,-513.56 720.7,-519.56 720.7,-519.56 720.7,-540.2 720.7,-540.2 720.7,-546.2 714.7,-552.2 708.7,-552.2"/>
<text xml:space="preserve" text-anchor="middle" x="667.75" y="-538.38" font-family="Helvetica,sans-Serif" font-size="10.00">RUN2 feed</text>
<text xml:space="preserve" text-anchor="middle" x="667.75" y="-526.38" font-family="Helvetica,sans-Serif" font-size="10.00">QPP + Batcher route</text>
<text xml:space="preserve" text-anchor="middle" x="667.75" y="-514.38" font-family="Helvetica,sans-Serif" font-size="10.00">store perm history</text>
</g>
<!-- run2&#45;&gt;run2_actions -->
<g id="edge19" class="edge">
<title>run2&#45;&gt;run2_actions</title>
<path fill="none" stroke="#2563eb" stroke-width="1.1" stroke-dasharray="5,2" d="M870.47,-665.17C824.07,-647.57 734.75,-613.7 734.75,-613.7 734.75,-613.7 710.06,-583.19 690.66,-559.2"/>
<polygon fill="#2563eb" stroke="#2563eb" stroke-width="1.1" points="692.71,-557.84 686.4,-553.93 688.9,-560.92 692.71,-557.84"/>
<text xml:space="preserve" text-anchor="middle" x="806.54" y="-623.65" font-family="Helvetica,sans-Serif" font-size="9.00">mode=run2</text>
</g>
<!-- finish&#45;&gt;outputs -->
<g id="edge29" class="edge">
<title>finish&#45;&gt;outputs</title>
<path fill="none" stroke="#2563eb" stroke-width="1.1" stroke-dasharray="5,2" d="M1078.12,-511.38C1065.28,-481.96 1040.75,-425.74 1040.75,-425.74 1040.75,-425.74 1040.75,-425.74 1040.75,-138.46 1040.75,-138.46 907.94,-79.3 837.88,-48.09"/>
<polygon fill="#2563eb" stroke="#2563eb" stroke-width="1.1" points="838.99,-45.9 831.59,-45.29 836.99,-50.37 838.99,-45.9"/>
<text xml:space="preserve" text-anchor="middle" x="1063.62" y="-281.37" font-family="Helvetica,sans-Serif" font-size="9.00">done pulse</text>
</g>
<!-- finish&#45;&gt;idle -->
<g id="edge10" class="edge">
<title>finish&#45;&gt;idle</title>
<path fill="none" stroke="#475569" stroke-width="1.1" d="M1107.65,-548.18C1141.02,-574.53 1200.75,-621.7 1200.75,-621.7 1200.75,-621.7 1324.75,-720.84 1324.75,-720.84 1324.75,-720.84 1324.75,-731.34 1324.75,-731.34 1324.75,-731.34 1223.75,-854.48 1223.75,-854.48 1223.75,-854.48 1203.67,-871.84 1186.01,-887.1"/>
<polygon fill="#475569" stroke="#475569" stroke-width="1.1" points="1184.6,-885.08 1180.91,-891.51 1187.81,-888.79 1184.6,-885.08"/>
<text xml:space="preserve" text-anchor="middle" x="1345" y="-722.79" font-family="Helvetica,sans-Serif" font-size="9.00">next cycle</text>
</g>
<!-- init&#45;&gt;run_edge -->
<g id="edge13" class="edge">
<title>init&#45;&gt;run_edge</title>
<path fill="none" stroke="#2563eb" stroke-width="1.1" stroke-dasharray="5,2" d="M176.93,-876.06C178.67,-862.01 180.71,-845.55 182.54,-830.73"/>
<polygon fill="#2563eb" stroke="#2563eb" stroke-width="1.1" points="184.96,-831.12 183.39,-823.88 180.1,-830.52 184.96,-831.12"/>
<text xml:space="preserve" text-anchor="middle" x="214.82" y="-845.93" font-family="Helvetica,sans-Serif" font-size="9.00">initialized counts</text>
</g>
<!-- issue_loop -->
<g id="node9" class="node">
<title>issue_loop</title>
<path fill="#f8fbff" stroke="#334155" d="M231.95,-698.84C231.95,-698.84 115.55,-698.84 115.55,-698.84 109.55,-698.84 103.55,-692.84 103.55,-686.84 103.55,-686.84 103.55,-666.2 103.55,-666.2 103.55,-660.2 109.55,-654.2 115.55,-654.2 115.55,-654.2 231.95,-654.2 231.95,-654.2 237.95,-654.2 243.95,-660.2 243.95,-666.2 243.95,-666.2 243.95,-686.84 243.95,-686.84 243.95,-692.84 237.95,-698.84 231.95,-698.84"/>
<text xml:space="preserve" text-anchor="middle" x="173.75" y="-685.02" font-family="Helvetica,sans-Serif" font-size="10.00">Issue Loop</text>
<text xml:space="preserve" text-anchor="middle" x="173.75" y="-673.02" font-family="Helvetica,sans-Serif" font-size="10.00">step pair_row 0..pair_count&#45;1</text>
<text xml:space="preserve" text-anchor="middle" x="173.75" y="-661.02" font-family="Helvetica,sans-Serif" font-size="10.00">trigger memory reads</text>
</g>
<!-- run_edge&#45;&gt;issue_loop -->
<g id="edge14" class="edge">
<title>run_edge&#45;&gt;issue_loop</title>
<path fill="none" stroke="#475569" stroke-width="1.1" d="M183.44,-753.02C181.57,-738.5 179.41,-721.65 177.6,-707.55"/>
<polygon fill="#475569" stroke="#475569" stroke-width="1.1" points="180.06,-707.46 176.74,-700.83 175.2,-708.08 180.06,-707.46"/>
</g>
<!-- feed_pipe -->
<g id="node10" class="node">
<title>feed_pipe</title>
<path fill="#f8fbff" stroke="#334155" d="M233.2,-558.2C233.2,-558.2 166.3,-558.2 166.3,-558.2 160.3,-558.2 154.3,-552.2 154.3,-546.2 154.3,-546.2 154.3,-513.56 154.3,-513.56 154.3,-507.56 160.3,-501.56 166.3,-501.56 166.3,-501.56 233.2,-501.56 233.2,-501.56 239.2,-501.56 245.2,-507.56 245.2,-513.56 245.2,-513.56 245.2,-546.2 245.2,-546.2 245.2,-552.2 239.2,-558.2 233.2,-558.2"/>
<text xml:space="preserve" text-anchor="middle" x="199.75" y="-544.38" font-family="Helvetica,sans-Serif" font-size="10.00">Feed Pipe</text>
<text xml:space="preserve" text-anchor="middle" x="199.75" y="-532.38" font-family="Helvetica,sans-Serif" font-size="10.00">feed_pipe_valid</text>
<text xml:space="preserve" text-anchor="middle" x="199.75" y="-520.38" font-family="Helvetica,sans-Serif" font-size="10.00">core_in_valid[0:7]</text>
<text xml:space="preserve" text-anchor="middle" x="199.75" y="-508.38" font-family="Helvetica,sans-Serif" font-size="10.00">core_in_pair_idx</text>
</g>
<!-- issue_loop&#45;&gt;feed_pipe -->
<g id="edge15" class="edge">
<title>issue_loop&#45;&gt;feed_pipe</title>
<path fill="none" stroke="#475569" stroke-width="1.1" d="M177.64,-653.87C181.76,-630.97 188.32,-594.45 193.23,-567.15"/>
<polygon fill="#475569" stroke="#475569" stroke-width="1.1" points="195.64,-567.6 194.47,-560.27 190.82,-566.73 195.64,-567.6"/>
<text xml:space="preserve" text-anchor="middle" x="212.53" y="-623.65" font-family="Helvetica,sans-Serif" font-size="9.00">one cycle later</text>
</g>
<!-- all_done -->
<g id="node11" class="node">
<title>all_done</title>
<path fill="#f8fbff" stroke="#334155" d="M236.95,-447.06C236.95,-447.06 126.55,-447.06 126.55,-447.06 120.55,-447.06 114.55,-441.06 114.55,-435.06 114.55,-435.06 114.55,-414.42 114.55,-414.42 114.55,-408.42 120.55,-402.42 126.55,-402.42 126.55,-402.42 236.95,-402.42 236.95,-402.42 242.95,-402.42 248.95,-408.42 248.95,-414.42 248.95,-414.42 248.95,-435.06 248.95,-435.06 248.95,-441.06 242.95,-447.06 236.95,-447.06"/>
<text xml:space="preserve" text-anchor="middle" x="181.75" y="-433.24" font-family="Helvetica,sans-Serif" font-size="10.00">Lane Completion Check</text>
<text xml:space="preserve" text-anchor="middle" x="181.75" y="-421.24" font-family="Helvetica,sans-Serif" font-size="10.00">assert output alignment</text>
<text xml:space="preserve" text-anchor="middle" x="181.75" y="-409.24" font-family="Helvetica,sans-Serif" font-size="10.00">all_done = AND(core_done)</text>
</g>
<!-- feed_pipe&#45;&gt;all_done -->
<g id="edge16" class="edge">
<title>feed_pipe&#45;&gt;all_done</title>
<path fill="none" stroke="#475569" stroke-width="1.1" d="M194.93,-501.24C192.45,-487.07 189.44,-469.81 186.92,-455.37"/>
<polygon fill="#475569" stroke="#475569" stroke-width="1.1" points="189.41,-455.35 185.79,-448.88 184.58,-456.2 189.41,-455.35"/>
<text xml:space="preserve" text-anchor="middle" x="240.25" y="-471.01" font-family="Helvetica,sans-Serif" font-size="9.00">cores running in parallel</text>
</g>
<!-- wb_proc -->
<g id="node18" class="node">
<title>wb_proc</title>
<path fill="#f0fdf4" stroke="#334155" d="M834.2,-558.2C834.2,-558.2 761.3,-558.2 761.3,-558.2 755.3,-558.2 749.3,-552.2 749.3,-546.2 749.3,-546.2 749.3,-513.56 749.3,-513.56 749.3,-507.56 755.3,-501.56 761.3,-501.56 761.3,-501.56 834.2,-501.56 834.2,-501.56 840.2,-501.56 846.2,-507.56 846.2,-513.56 846.2,-513.56 846.2,-546.2 846.2,-546.2 846.2,-552.2 840.2,-558.2 834.2,-558.2"/>
<text xml:space="preserve" text-anchor="middle" x="797.75" y="-544.38" font-family="Helvetica,sans-Serif" font-size="10.00">Writeback Process</text>
<text xml:space="preserve" text-anchor="middle" x="797.75" y="-532.38" font-family="Helvetica,sans-Serif" font-size="10.00">run1 direct</text>
<text xml:space="preserve" text-anchor="middle" x="797.75" y="-520.38" font-family="Helvetica,sans-Serif" font-size="10.00">run2 unslaved</text>
<text xml:space="preserve" text-anchor="middle" x="797.75" y="-508.38" font-family="Helvetica,sans-Serif" font-size="10.00">write ext/final</text>
</g>
<!-- feed_pipe&#45;&gt;wb_proc -->
<g id="edge22" class="edge">
<title>feed_pipe&#45;&gt;wb_proc</title>
<path fill="none" stroke="#2563eb" stroke-width="1.1" stroke-dasharray="5,2" d="M221.75,-558.56C238.88,-580.89 259.75,-608.11 259.75,-608.11 259.75,-608.11 734.75,-608.11 734.75,-608.11 734.75,-608.11 752.6,-585.95 769.29,-565.21"/>
<polygon fill="#2563eb" stroke="#2563eb" stroke-width="1.1" points="771.12,-566.85 773.6,-559.86 767.31,-563.78 771.12,-566.85"/>
<text xml:space="preserve" text-anchor="middle" x="471.75" y="-623.65" font-family="Helvetica,sans-Serif" font-size="9.00">outputs later return from SISOs</text>
</g>
<!-- phase_done -->
<g id="node12" class="node">
<title>phase_done</title>
<path fill="#f8fbff" stroke="#334155" d="M239.2,-347.92C239.2,-347.92 124.3,-347.92 124.3,-347.92 118.3,-347.92 112.3,-341.92 112.3,-335.92 112.3,-335.92 112.3,-323.92 112.3,-323.92 112.3,-317.92 118.3,-311.92 124.3,-311.92 124.3,-311.92 239.2,-311.92 239.2,-311.92 245.2,-311.92 251.2,-317.92 251.2,-323.92 251.2,-323.92 251.2,-335.92 251.2,-335.92 251.2,-341.92 245.2,-347.92 239.2,-347.92"/>
<text xml:space="preserve" text-anchor="middle" x="181.75" y="-332.42" font-family="Helvetica,sans-Serif" font-size="10.00">phase1_done / phase2_done</text>
<text xml:space="preserve" text-anchor="middle" x="181.75" y="-320.42" font-family="Helvetica,sans-Serif" font-size="10.00">back to iteration controller</text>
</g>
<!-- all_done&#45;&gt;phase_done -->
<g id="edge17" class="edge">
<title>all_done&#45;&gt;phase_done</title>
<path fill="none" stroke="#475569" stroke-width="1.1" d="M181.75,-402.21C181.75,-388.64 181.75,-371.04 181.75,-356.72"/>
<polygon fill="#475569" stroke="#475569" stroke-width="1.1" points="184.2,-356.96 181.75,-349.96 179.3,-356.96 184.2,-356.96"/>
<text xml:space="preserve" text-anchor="middle" x="210.62" y="-371.87" font-family="Helvetica,sans-Serif" font-size="9.00">all cores done</text>
</g>
<!-- all_done&#45;&gt;wb_proc -->
<g id="edge23" class="edge">
<title>all_done&#45;&gt;wb_proc</title>
<path fill="none" stroke="#2563eb" stroke-width="1.1" stroke-dasharray="5,2" d="M249.28,-434.02C396.8,-452.11 734.75,-493.56 734.75,-493.56 734.75,-493.56 737.46,-495.08 741.75,-497.49"/>
<polygon fill="#2563eb" stroke="#2563eb" stroke-width="1.1" points="740.29,-499.47 747.59,-500.76 742.69,-495.2 740.29,-499.47"/>
<text xml:space="preserve" text-anchor="middle" x="687.3" y="-471.01" font-family="Helvetica,sans-Serif" font-size="9.00">writeback completed by pair stream</text>
</g>
<!-- phase_done&#45;&gt;run1 -->
<g id="edge24" class="edge">
<title>phase_done&#45;&gt;run1</title>
<path fill="none" stroke="#2563eb" stroke-width="1.1" stroke-dasharray="5,2" d="M251.35,-336.14C512.45,-355.73 1418.75,-423.74 1418.75,-423.74 1418.75,-677.52 1418.75,-677.52 1418.75,-677.52 1418.75,-677.52 1372.75,-731.34 1372.75,-731.34 1372.75,-731.34 1177.61,-765.83 1095.49,-780.34"/>
<polygon fill="#2563eb" stroke="#2563eb" stroke-width="1.1" points="1095.09,-777.93 1088.62,-781.56 1095.94,-782.75 1095.09,-777.93"/>
<text xml:space="preserve" text-anchor="middle" x="1461.88" y="-526.58" font-family="Helvetica,sans-Serif" font-size="9.00">controller handshake</text>
</g>
<!-- phase_done&#45;&gt;run2 -->
<g id="edge25" class="edge">
<title>phase_done&#45;&gt;run2</title>
<path fill="none" stroke="#2563eb" stroke-width="1.1" stroke-dasharray="5,2" d="M251.44,-347.38C406.56,-384.01 766.75,-469.06 766.75,-469.06 766.75,-469.06 860.75,-493.56 860.75,-493.56 860.75,-493.56 882.28,-599.43 892.49,-649.66"/>
<polygon fill="#2563eb" stroke="#2563eb" stroke-width="1.1" points="890.07,-650.07 893.87,-656.44 894.88,-649.09 890.07,-650.07"/>
<text xml:space="preserve" text-anchor="middle" x="849.31" y="-471.01" font-family="Helvetica,sans-Serif" font-size="9.00">controller handshake</text>
</g>
<!-- ser_start -->
<g id="node13" class="node">
<title>ser_start</title>
<path fill="#f8fbff" stroke="#334155" d="M233.7,-257.42C233.7,-257.42 139.8,-257.42 139.8,-257.42 133.8,-257.42 127.8,-251.42 127.8,-245.42 127.8,-245.42 127.8,-224.78 127.8,-224.78 127.8,-218.78 133.8,-212.78 139.8,-212.78 139.8,-212.78 233.7,-212.78 233.7,-212.78 239.7,-212.78 245.7,-218.78 245.7,-224.78 245.7,-224.78 245.7,-245.42 245.7,-245.42 245.7,-251.42 239.7,-257.42 233.7,-257.42"/>
<text xml:space="preserve" text-anchor="middle" x="186.75" y="-243.6" font-family="Helvetica,sans-Serif" font-size="10.00">If last_half and all_done</text>
<text xml:space="preserve" text-anchor="middle" x="186.75" y="-231.6" font-family="Helvetica,sans-Serif" font-size="10.00">ser_issue_active &lt;= 1</text>
<text xml:space="preserve" text-anchor="middle" x="186.75" y="-219.6" font-family="Helvetica,sans-Serif" font-size="10.00">ser_issue_idx &lt;= 0</text>
</g>
<!-- phase_done&#45;&gt;ser_start -->
<g id="edge26" class="edge">
<title>phase_done&#45;&gt;ser_start</title>
<path fill="none" stroke="#2563eb" stroke-width="1.1" stroke-dasharray="5,2" d="M182.69,-311.46C183.38,-298.73 184.32,-281.16 185.13,-266.19"/>
<polygon fill="#2563eb" stroke="#2563eb" stroke-width="1.1" points="187.57,-266.51 185.5,-259.39 182.67,-266.25 187.57,-266.51"/>
<text xml:space="preserve" text-anchor="middle" x="205.02" y="-281.37" font-family="Helvetica,sans-Serif" font-size="9.00">if last_half</text>
</g>
<!-- ser_loop -->
<g id="node14" class="node">
<title>ser_loop</title>
<path fill="#f8fbff" stroke="#334155" d="M236.45,-167.78C236.45,-167.78 141.05,-167.78 141.05,-167.78 135.05,-167.78 129.05,-161.78 129.05,-155.78 129.05,-155.78 129.05,-123.14 129.05,-123.14 129.05,-117.14 135.05,-111.14 141.05,-111.14 141.05,-111.14 236.45,-111.14 236.45,-111.14 242.45,-111.14 248.45,-117.14 248.45,-123.14 248.45,-123.14 248.45,-155.78 248.45,-155.78 248.45,-161.78 242.45,-167.78 236.45,-167.78"/>
<text xml:space="preserve" text-anchor="middle" x="188.75" y="-153.96" font-family="Helvetica,sans-Serif" font-size="10.00">Serializer Loop</text>
<text xml:space="preserve" text-anchor="middle" x="188.75" y="-141.96" font-family="Helvetica,sans-Serif" font-size="10.00">ser_issue_idx 0..K&#45;1</text>
<text xml:space="preserve" text-anchor="middle" x="188.75" y="-129.96" font-family="Helvetica,sans-Serif" font-size="10.00">select lane / row / parity</text>
<text xml:space="preserve" text-anchor="middle" x="188.75" y="-117.96" font-family="Helvetica,sans-Serif" font-size="10.00">emit out_valid + out_idx</text>
</g>
<!-- ser_start&#45;&gt;ser_loop -->
<g id="edge27" class="edge">
<title>ser_start&#45;&gt;ser_loop</title>
<path fill="none" stroke="#475569" stroke-width="1.1" d="M187.21,-212.38C187.44,-201.77 187.72,-188.72 187.98,-176.67"/>
<polygon fill="#475569" stroke="#475569" stroke-width="1.1" points="190.42,-176.83 188.12,-169.78 185.52,-176.72 190.42,-176.83"/>
</g>
<!-- ser_loop&#45;&gt;outputs -->
<g id="edge28" class="edge">
<title>ser_loop&#45;&gt;outputs</title>
<path fill="none" stroke="#475569" stroke-width="1.1" d="M248.89,-127.65C371.5,-105.6 647.7,-55.94 753.45,-36.93"/>
<polygon fill="#475569" stroke="#475569" stroke-width="1.1" points="753.57,-39.39 760.02,-35.74 752.7,-34.57 753.57,-39.39"/>
<text xml:space="preserve" text-anchor="middle" x="564.45" y="-80.59" font-family="Helvetica,sans-Serif" font-size="9.00">serialized posterior stream</text>
</g>
<!-- run1_actions&#45;&gt;feed_pipe -->
<g id="edge20" class="edge">
<title>run1_actions&#45;&gt;feed_pipe</title>
<path fill="none" stroke="#2563eb" stroke-width="1.1" stroke-dasharray="5,2" d="M519.67,-548.02C500.47,-571.13 469.75,-608.11 469.75,-608.11 469.75,-608.11 259.75,-608.11 259.75,-608.11 259.75,-608.11 242.75,-585.95 226.85,-565.21"/>
<polygon fill="#2563eb" stroke="#2563eb" stroke-width="1.1" points="228.97,-563.95 222.76,-559.88 225.08,-566.93 228.97,-563.95"/>
<text xml:space="preserve" text-anchor="middle" x="382.75" y="-623.65" font-family="Helvetica,sans-Serif" font-size="9.00">direct feed</text>
</g>
<!-- run2_actions&#45;&gt;feed_pipe -->
<g id="edge21" class="edge">
<title>run2_actions&#45;&gt;feed_pipe</title>
<path fill="none" stroke="#2563eb" stroke-width="1.1" stroke-dasharray="5,2" d="M648.08,-552.51C628,-575.61 599.75,-608.11 599.75,-608.11 599.75,-608.11 259.75,-608.11 259.75,-608.11 259.75,-608.11 242.75,-585.95 226.85,-565.21"/>
<polygon fill="#2563eb" stroke="#2563eb" stroke-width="1.1" points="228.97,-563.95 222.76,-559.88 225.08,-566.93 228.97,-563.95"/>
<text xml:space="preserve" text-anchor="middle" x="562.75" y="-623.65" font-family="Helvetica,sans-Serif" font-size="9.00">routed feed</text>
</g>
<!-- note0 -->
<g id="node19" class="node">
<title>note0</title>
<polygon fill="#fefce8" stroke="#eab308" points="440.45,-933.12 273.05,-933.12 273.05,-888.48 446.45,-888.48 446.45,-927.12 440.45,-933.12"/>
<polyline fill="none" stroke="#eab308" points="440.45,-933.12 440.45,-927.12"/>
<polyline fill="none" stroke="#eab308" points="446.45,-927.12 440.45,-927.12"/>
<text xml:space="preserve" text-anchor="middle" x="359.75" y="-919.3" font-family="Helvetica,sans-Serif" font-size="10.00">Top has no explicit local FSM enum.</text>
<text xml:space="preserve" text-anchor="middle" x="359.75" y="-907.3" font-family="Helvetica,sans-Serif" font-size="10.00">Control = turbo_iteration_ctrl</text>
<text xml:space="preserve" text-anchor="middle" x="359.75" y="-895.3" font-family="Helvetica,sans-Serif" font-size="10.00">+ sequential scheduler process.</text>
</g>
<!-- note0&#45;&gt;run_edge -->
<g id="edge30" class="edge">
<title>note0&#45;&gt;run_edge</title>
<path fill="none" stroke="#a16207" stroke-width="1.1" stroke-dasharray="1,5" d="M329,-888.14C303.1,-869.9 265.62,-843.5 235.77,-822.48"/>
</g>
<!-- note1 -->
<g id="node20" class="node">
<title>note1</title>
<polygon fill="#fef2f2" stroke="#f87171" points="428.07,-698.84 273.43,-698.84 273.43,-654.2 434.07,-654.2 434.07,-692.84 428.07,-698.84"/>
<polyline fill="none" stroke="#f87171" points="428.07,-698.84 428.07,-692.84"/>
<polyline fill="none" stroke="#f87171" points="434.07,-692.84 428.07,-692.84"/>
<text xml:space="preserve" text-anchor="middle" x="353.75" y="-685.02" font-family="Helvetica,sans-Serif" font-size="10.00">first_run1_pending:</text>
<text xml:space="preserve" text-anchor="middle" x="353.75" y="-673.02" font-family="Helvetica,sans-Serif" font-size="10.00">first RUN1 uses zero apriori,</text>
<text xml:space="preserve" text-anchor="middle" x="353.75" y="-661.02" font-family="Helvetica,sans-Serif" font-size="10.00">later RUN1 uses stored extrinsic.</text>
</g>
<!-- note1&#45;&gt;run1_actions -->
<g id="edge31" class="edge">
<title>note1&#45;&gt;run1_actions</title>
<path fill="none" stroke="#dc2626" stroke-width="1.1" stroke-dasharray="1,5" d="M356.56,-653.94C358.5,-638.97 360.75,-621.7 360.75,-621.7 360.75,-621.7 469.75,-613.7 469.75,-613.7 469.75,-613.7 502.24,-572.3 521.28,-548.04"/>
</g>
</g>
</svg>
