<?xml version="1.0" encoding="UTF-8" standalone="no"?>
<!DOCTYPE svg PUBLIC "-//W3C//DTD SVG 1.1//EN"
 "http://www.w3.org/Graphics/SVG/1.1/DTD/svg11.dtd">
<!-- Generated by graphviz version 14.1.2 (0)
 -->
<!-- Title: G Pages: 1 -->
<svg width="686pt" height="991pt"
 viewBox="0.00 0.00 686.00 991.00" xmlns="http://www.w3.org/2000/svg" xmlns:xlink="http://www.w3.org/1999/xlink">
<g id="graph0" class="graph" transform="scale(1 1) rotate(0) translate(4 987.25)">
<title>G</title>
<polygon fill="white" stroke="none" points="-4,4 -4,-987.25 681.62,-987.25 681.62,4 -4,4"/>
<text xml:space="preserve" text-anchor="middle" x="338.81" y="-960.25" font-family="Helvetica,sans-Serif" font-size="20.00">turbo_decoder_top_parallel8_backup &#45; Control / Schedule</text>
<!-- IDLE -->
<g id="node1" class="node">
<title>IDLE</title>
<path fill="#d0e0e3" stroke="#555555" d="M638.62,-952C638.62,-952 608.62,-952 608.62,-952 602.62,-952 596.62,-946 596.62,-940 596.62,-940 596.62,-928 596.62,-928 596.62,-922 602.62,-916 608.62,-916 608.62,-916 638.62,-916 638.62,-916 644.62,-916 650.62,-922 650.62,-928 650.62,-928 650.62,-940 650.62,-940 650.62,-946 644.62,-952 638.62,-952"/>
<text xml:space="preserve" text-anchor="middle" x="623.62" y="-930.3" font-family="Helvetica,sans-Serif" font-size="11.00">IDLE</text>
</g>
<!-- INIT -->
<g id="node2" class="node">
<title>INIT</title>
<path fill="#e8f0fe" stroke="#555555" d="M637.5,-868C637.5,-868 503.75,-868 503.75,-868 497.75,-868 491.75,-862 491.75,-856 491.75,-856 491.75,-804.5 491.75,-804.5 491.75,-798.5 497.75,-792.5 503.75,-792.5 503.75,-792.5 637.5,-792.5 637.5,-792.5 643.5,-792.5 649.5,-798.5 649.5,-804.5 649.5,-804.5 649.5,-856 649.5,-856 649.5,-862 643.5,-868 637.5,-868"/>
<text xml:space="preserve" text-anchor="middle" x="570.62" y="-853.55" font-family="Helvetica,sans-Serif" font-size="11.00">INIT</text>
<text xml:space="preserve" text-anchor="middle" x="570.62" y="-840.05" font-family="Helvetica,sans-Serif" font-size="11.00">frame_bits &lt;= K</text>
<text xml:space="preserve" text-anchor="middle" x="570.62" y="-826.55" font-family="Helvetica,sans-Serif" font-size="11.00">seg_bits &lt;= K/8</text>
<text xml:space="preserve" text-anchor="middle" x="570.62" y="-813.05" font-family="Helvetica,sans-Serif" font-size="11.00">pair_count &lt;= ceil(seg_bits/2)</text>
<text xml:space="preserve" text-anchor="middle" x="570.62" y="-799.55" font-family="Helvetica,sans-Serif" font-size="11.00">first_run1_pending &lt;= 1</text>
</g>
<!-- IDLE&#45;&gt;INIT -->
<g id="edge1" class="edge">
<title>IDLE&#45;&gt;INIT</title>
<path fill="none" stroke="#444444" d="M614.63,-915.74C609.27,-905.44 602.17,-891.81 595.24,-878.51"/>
<polygon fill="#444444" stroke="#444444" points="598.43,-877.06 590.71,-869.81 592.22,-880.29 598.43,-877.06"/>
<text xml:space="preserve" text-anchor="middle" x="614.72" y="-888.5" font-family="Helvetica,sans-Serif" font-size="10.00">start</text>
</g>
<!-- RUN1 -->
<g id="node3" class="node">
<title>RUN1</title>
<path fill="#fff2cc" stroke="#555555" d="M458.25,-744.5C458.25,-744.5 395,-744.5 395,-744.5 389,-744.5 383,-738.5 383,-732.5 383,-732.5 383,-720.5 383,-720.5 383,-714.5 389,-708.5 395,-708.5 395,-708.5 458.25,-708.5 458.25,-708.5 464.25,-708.5 470.25,-714.5 470.25,-720.5 470.25,-720.5 470.25,-732.5 470.25,-732.5 470.25,-738.5 464.25,-744.5 458.25,-744.5"/>
<text xml:space="preserve" text-anchor="middle" x="426.62" y="-729.55" font-family="Helvetica,sans-Serif" font-size="11.00">RUN1</text>
<text xml:space="preserve" text-anchor="middle" x="426.62" y="-716.05" font-family="Helvetica,sans-Serif" font-size="11.00">run_siso_1 = 1</text>
</g>
<!-- INIT&#45;&gt;RUN1 -->
<g id="edge2" class="edge">
<title>INIT&#45;&gt;RUN1</title>
<path fill="none" stroke="#444444" d="M518.23,-792.23C498.96,-778.61 477.66,-763.56 460.46,-751.4"/>
<polygon fill="#444444" stroke="#444444" points="462.78,-748.76 452.59,-745.85 458.74,-754.48 462.78,-748.76"/>
<text xml:space="preserve" text-anchor="middle" x="521.13" y="-765" font-family="Helvetica,sans-Serif" font-size="10.00">n_half_iter &gt; 0</text>
</g>
<!-- FINISH -->
<g id="node13" class="node">
<title>FINISH</title>
<path fill="#ead1dc" stroke="#555555" d="M618.5,-36C618.5,-36 556.75,-36 556.75,-36 550.75,-36 544.75,-30 544.75,-24 544.75,-24 544.75,-12 544.75,-12 544.75,-6 550.75,0 556.75,0 556.75,0 618.5,0 618.5,0 624.5,0 630.5,-6 630.5,-12 630.5,-12 630.5,-24 630.5,-24 630.5,-30 624.5,-36 618.5,-36"/>
<text xml:space="preserve" text-anchor="middle" x="587.62" y="-14.3" font-family="Helvetica,sans-Serif" font-size="11.00">FINISH / done</text>
</g>
<!-- INIT&#45;&gt;FINISH -->
<g id="edge3" class="edge">
<title>INIT&#45;&gt;FINISH</title>
<path fill="none" stroke="#444444" d="M579.82,-792.29C583.83,-773.09 587.62,-749.17 587.62,-727.5 587.62,-727.5 587.62,-727.5 587.62,-114 587.62,-91.68 587.62,-66.4 587.62,-47.54"/>
<polygon fill="#444444" stroke="#444444" points="591.13,-47.68 587.63,-37.68 584.13,-47.68 591.13,-47.68"/>
<text xml:space="preserve" text-anchor="middle" x="618.75" y="-410.25" font-family="Helvetica,sans-Serif" font-size="10.00">n_half_iter = 0</text>
</g>
<!-- RUN_EDGE -->
<g id="node5" class="node">
<title>RUN_EDGE</title>
<path fill="#e8f0fe" stroke="#555555" d="M281.5,-660.5C281.5,-660.5 165.75,-660.5 165.75,-660.5 159.75,-660.5 153.75,-654.5 153.75,-648.5 153.75,-648.5 153.75,-597 153.75,-597 153.75,-591 159.75,-585 165.75,-585 165.75,-585 281.5,-585 281.5,-585 287.5,-585 293.5,-591 293.5,-597 293.5,-597 293.5,-648.5 293.5,-648.5 293.5,-654.5 287.5,-660.5 281.5,-660.5"/>
<text xml:space="preserve" text-anchor="middle" x="223.62" y="-646.05" font-family="Helvetica,sans-Serif" font-size="11.00">RUN_EDGE</text>
<text xml:space="preserve" text-anchor="middle" x="223.62" y="-632.55" font-family="Helvetica,sans-Serif" font-size="11.00">issue_active &lt;= 1</text>
<text xml:space="preserve" text-anchor="middle" x="223.62" y="-619.05" font-family="Helvetica,sans-Serif" font-size="11.00">issue_pair_idx &lt;= 0</text>
<text xml:space="preserve" text-anchor="middle" x="223.62" y="-605.55" font-family="Helvetica,sans-Serif" font-size="11.00">pulse core_start[0:7]</text>
<text xml:space="preserve" text-anchor="middle" x="223.62" y="-592.05" font-family="Helvetica,sans-Serif" font-size="11.00">core_seg_len &lt;= seg_bits</text>
</g>
<!-- RUN1&#45;&gt;RUN_EDGE -->
<g id="edge4" class="edge">
<title>RUN1&#45;&gt;RUN_EDGE</title>
<path fill="none" stroke="#444444" d="M382.72,-711.2C366.6,-705.43 348.38,-698.29 332.38,-690.5 317.97,-683.49 303.03,-675.11 289,-666.7"/>
<polygon fill="#444444" stroke="#444444" points="291.11,-663.89 280.74,-661.68 287.47,-669.87 291.11,-663.89"/>
<text xml:space="preserve" text-anchor="middle" x="372.5" y="-681" font-family="Helvetica,sans-Serif" font-size="10.00">rising edge of run1</text>
</g>
<!-- RUN2 -->
<g id="node4" class="node">
<title>RUN2</title>
<path fill="#fff2cc" stroke="#555555" d="M75.25,-232C75.25,-232 12,-232 12,-232 6,-232 0,-226 0,-220 0,-220 0,-208 0,-208 0,-202 6,-196 12,-196 12,-196 75.25,-196 75.25,-196 81.25,-196 87.25,-202 87.25,-208 87.25,-208 87.25,-220 87.25,-220 87.25,-226 81.25,-232 75.25,-232"/>
<text xml:space="preserve" text-anchor="middle" x="43.62" y="-217.05" font-family="Helvetica,sans-Serif" font-size="11.00">RUN2</text>
<text xml:space="preserve" text-anchor="middle" x="43.62" y="-203.55" font-family="Helvetica,sans-Serif" font-size="11.00">run_siso_2 = 1</text>
</g>
<!-- RUN2&#45;&gt;RUN_EDGE -->
<g id="edge5" class="edge">
<title>RUN2&#45;&gt;RUN_EDGE</title>
<path fill="none" stroke="#444444" d="M32.55,-232.15C21.02,-251.69 4.62,-284.98 4.62,-316.25 4.62,-518 4.62,-518 4.62,-518 4.62,-581.2 80.04,-605.96 142.36,-615.62"/>
<polygon fill="#444444" stroke="#444444" points="141.54,-619.04 151.93,-616.99 142.53,-612.11 141.54,-619.04"/>
<text xml:space="preserve" text-anchor="middle" x="44.75" y="-410.25" font-family="Helvetica,sans-Serif" font-size="10.00">rising edge of run2</text>
</g>
<!-- ISSUE -->
<g id="node6" class="node">
<title>ISSUE</title>
<path fill="#d9ead3" stroke="#555555" d="M295,-548C295,-548 152.25,-548 152.25,-548 146.25,-548 140.25,-542 140.25,-536 140.25,-536 140.25,-498 140.25,-498 140.25,-492 146.25,-486 152.25,-486 152.25,-486 295,-486 295,-486 301,-486 307,-492 307,-498 307,-498 307,-536 307,-536 307,-542 301,-548 295,-548"/>
<text xml:space="preserve" text-anchor="middle" x="223.62" y="-533.55" font-family="Helvetica,sans-Serif" font-size="11.00">ISSUE / FEED</text>
<text xml:space="preserve" text-anchor="middle" x="223.62" y="-520.05" font-family="Helvetica,sans-Serif" font-size="11.00">step pair_row 0..pair_count&#45;1</text>
<text xml:space="preserve" text-anchor="middle" x="223.62" y="-506.55" font-family="Helvetica,sans-Serif" font-size="11.00">feed_pipe_valid</text>
<text xml:space="preserve" text-anchor="middle" x="223.62" y="-493.05" font-family="Helvetica,sans-Serif" font-size="11.00">core_in_valid / core_in_pair_idx</text>
</g>
<!-- RUN_EDGE&#45;&gt;ISSUE -->
<g id="edge6" class="edge">
<title>RUN_EDGE&#45;&gt;ISSUE</title>
<path fill="none" stroke="#444444" d="M223.62,-584.59C223.62,-576.52 223.62,-567.95 223.62,-559.72"/>
<polygon fill="#444444" stroke="#444444" points="227.13,-559.93 223.63,-549.93 220.13,-559.93 227.13,-559.93"/>
</g>
<!-- FEED1 -->
<g id="node7" class="node">
<title>FEED1</title>
<path fill="#d9ead3" stroke="#555555" d="M202.62,-431.75C202.62,-431.75 114.62,-431.75 114.62,-431.75 108.62,-431.75 102.62,-425.75 102.62,-419.75 102.62,-419.75 102.62,-407.75 102.62,-407.75 102.62,-401.75 108.62,-395.75 114.62,-395.75 114.62,-395.75 202.62,-395.75 202.62,-395.75 208.62,-395.75 214.62,-401.75 214.62,-407.75 214.62,-407.75 214.62,-419.75 214.62,-419.75 214.62,-425.75 208.62,-431.75 202.62,-431.75"/>
<text xml:space="preserve" text-anchor="middle" x="158.62" y="-416.8" font-family="Helvetica,sans-Serif" font-size="11.00">RUN1 Feed Select</text>
<text xml:space="preserve" text-anchor="middle" x="158.62" y="-403.3" font-family="Helvetica,sans-Serif" font-size="11.00">sys/par1/ext&#45;or&#45;zero</text>
</g>
<!-- ISSUE&#45;&gt;FEED1 -->
<g id="edge7" class="edge">
<title>ISSUE&#45;&gt;FEED1</title>
<path fill="none" stroke="#444444" d="M204.12,-485.62C195.18,-471.7 184.67,-455.32 176.01,-441.83"/>
<polygon fill="#444444" stroke="#444444" points="178.96,-439.95 170.61,-433.43 173.07,-443.73 178.96,-439.95"/>
<text xml:space="preserve" text-anchor="middle" x="213.62" y="-458.5" font-family="Helvetica,sans-Serif" font-size="10.00">when run1</text>
</g>
<!-- FEED2 -->
<g id="node8" class="node">
<title>FEED2</title>
<path fill="#d9ead3" stroke="#555555" d="M387,-438C387,-438 244.25,-438 244.25,-438 238.25,-438 232.25,-432 232.25,-426 232.25,-426 232.25,-401.5 232.25,-401.5 232.25,-395.5 238.25,-389.5 244.25,-389.5 244.25,-389.5 387,-389.5 387,-389.5 393,-389.5 399,-395.5 399,-401.5 399,-401.5 399,-426 399,-426 399,-432 393,-438 387,-438"/>
<text xml:space="preserve" text-anchor="middle" x="315.62" y="-423.55" font-family="Helvetica,sans-Serif" font-size="11.00">RUN2 Feed Select</text>
<text xml:space="preserve" text-anchor="middle" x="315.62" y="-410.05" font-family="Helvetica,sans-Serif" font-size="11.00">QPP scheduler + Batcher route</text>
<text xml:space="preserve" text-anchor="middle" x="315.62" y="-396.55" font-family="Helvetica,sans-Serif" font-size="11.00">store perm / row_base history</text>
</g>
<!-- ISSUE&#45;&gt;FEED2 -->
<g id="edge8" class="edge">
<title>ISSUE&#45;&gt;FEED2</title>
<path fill="none" stroke="#444444" d="M251.23,-485.62C262.41,-473.32 275.33,-459.1 286.64,-446.65"/>
<polygon fill="#444444" stroke="#444444" points="289.03,-449.22 293.16,-439.47 283.85,-444.52 289.03,-449.22"/>
<text xml:space="preserve" text-anchor="middle" x="300.37" y="-458.5" font-family="Helvetica,sans-Serif" font-size="10.00">when run2</text>
</g>
<!-- DONECHK -->
<g id="node9" class="node">
<title>DONECHK</title>
<path fill="#fce5cd" stroke="#555555" d="M379.12,-341.5C379.12,-341.5 252.12,-341.5 252.12,-341.5 246.12,-341.5 240.12,-335.5 240.12,-329.5 240.12,-329.5 240.12,-305 240.12,-305 240.12,-299 246.12,-293 252.12,-293 252.12,-293 379.12,-293 379.12,-293 385.12,-293 391.12,-299 391.12,-305 391.12,-305 391.12,-329.5 391.12,-329.5 391.12,-335.5 385.12,-341.5 379.12,-341.5"/>
<text xml:space="preserve" text-anchor="middle" x="315.62" y="-327.05" font-family="Helvetica,sans-Serif" font-size="11.00">DONE CHECK</text>
<text xml:space="preserve" text-anchor="middle" x="315.62" y="-313.55" font-family="Helvetica,sans-Serif" font-size="11.00">assert output alignment</text>
<text xml:space="preserve" text-anchor="middle" x="315.62" y="-300.05" font-family="Helvetica,sans-Serif" font-size="11.00">all_done = AND(core_done)</text>
</g>
<!-- FEED1&#45;&gt;DONECHK -->
<g id="edge9" class="edge">
<title>FEED1&#45;&gt;DONECHK</title>
<path fill="none" stroke="#444444" d="M182.39,-395.45C197.6,-384.65 217.92,-370.71 236.62,-359.5 243.56,-355.34 250.95,-351.16 258.33,-347.15"/>
<polygon fill="#444444" stroke="#444444" points="259.84,-350.31 267,-342.5 256.54,-344.14 259.84,-350.31"/>
<text xml:space="preserve" text-anchor="middle" x="274.12" y="-362" font-family="Helvetica,sans-Serif" font-size="10.00">8 SISO lanes run</text>
</g>
<!-- FEED2&#45;&gt;DONECHK -->
<g id="edge10" class="edge">
<title>FEED2&#45;&gt;DONECHK</title>
<path fill="none" stroke="#444444" d="M315.62,-389.39C315.62,-378.57 315.62,-365.48 315.62,-353.49"/>
<polygon fill="#444444" stroke="#444444" points="319.13,-353.51 315.63,-343.51 312.13,-353.51 319.13,-353.51"/>
<text xml:space="preserve" text-anchor="middle" x="353.12" y="-362" font-family="Helvetica,sans-Serif" font-size="10.00">8 SISO lanes run</text>
</g>
<!-- DONECHK&#45;&gt;RUN1 -->
<g id="edge13" class="edge">
<title>DONECHK&#45;&gt;RUN1</title>
<path fill="none" stroke="#444444" d="M372.43,-341.94C399.74,-357.47 426.62,-380.86 426.62,-412.75 426.62,-623.75 426.62,-623.75 426.62,-623.75 426.62,-648.44 426.62,-676.51 426.62,-696.9"/>
<polygon fill="#444444" stroke="#444444" points="423.13,-696.7 426.63,-706.7 430.13,-696.7 423.13,-696.7"/>
<text xml:space="preserve" text-anchor="middle" x="493" y="-513.5" font-family="Helvetica,sans-Serif" font-size="10.00">phase2_done and not last_half</text>
</g>
<!-- DONECHK&#45;&gt;RUN2 -->
<g id="edge12" class="edge">
<title>DONECHK&#45;&gt;RUN2</title>
<path fill="none" stroke="#444444" d="M239.83,-295.22C219.84,-289.18 198.4,-282.25 178.88,-275 148.71,-263.81 115.69,-249.21 89.83,-237.21"/>
<polygon fill="#444444" stroke="#444444" points="91.48,-234.12 80.94,-233.06 88.52,-240.46 91.48,-234.12"/>
<text xml:space="preserve" text-anchor="middle" x="245.25" y="-265.5" font-family="Helvetica,sans-Serif" font-size="10.00">phase1_done and not last_half</text>
</g>
<!-- WB -->
<g id="node10" class="node">
<title>WB</title>
<path fill="#fce5cd" stroke="#555555" d="M359.25,-245C359.25,-245 272,-245 272,-245 266,-245 260,-239 260,-233 260,-233 260,-195 260,-195 260,-189 266,-183 272,-183 272,-183 359.25,-183 359.25,-183 365.25,-183 371.25,-189 371.25,-195 371.25,-195 371.25,-233 371.25,-233 371.25,-239 365.25,-245 359.25,-245"/>
<text xml:space="preserve" text-anchor="middle" x="315.62" y="-230.55" font-family="Helvetica,sans-Serif" font-size="11.00">WRITEBACK</text>
<text xml:space="preserve" text-anchor="middle" x="315.62" y="-217.05" font-family="Helvetica,sans-Serif" font-size="11.00">run1 direct</text>
<text xml:space="preserve" text-anchor="middle" x="315.62" y="-203.55" font-family="Helvetica,sans-Serif" font-size="11.00">run2 reverse&#45;routed</text>
<text xml:space="preserve" text-anchor="middle" x="315.62" y="-190.05" font-family="Helvetica,sans-Serif" font-size="11.00">write ext / final</text>
</g>
<!-- DONECHK&#45;&gt;WB -->
<g id="edge11" class="edge">
<title>DONECHK&#45;&gt;WB</title>
<path fill="none" stroke="#444444" d="M315.62,-292.51C315.62,-281.79 315.62,-268.81 315.62,-256.56"/>
<polygon fill="#444444" stroke="#444444" points="319.13,-256.64 315.63,-246.64 312.13,-256.64 319.13,-256.64"/>
<text xml:space="preserve" text-anchor="middle" x="333.62" y="-265.5" font-family="Helvetica,sans-Serif" font-size="10.00">all_done</text>
</g>
<!-- SERSTART -->
<g id="node11" class="node">
<title>SERSTART</title>
<path fill="#ead1dc" stroke="#555555" d="M511.88,-245C511.88,-245 407.38,-245 407.38,-245 401.38,-245 395.38,-239 395.38,-233 395.38,-233 395.38,-195 395.38,-195 395.38,-189 401.38,-183 407.38,-183 407.38,-183 511.88,-183 511.88,-183 517.88,-183 523.88,-189 523.88,-195 523.88,-195 523.88,-233 523.88,-233 523.88,-239 517.88,-245 511.88,-245"/>
<text xml:space="preserve" text-anchor="middle" x="459.62" y="-230.55" font-family="Helvetica,sans-Serif" font-size="11.00">SER_START</text>
<text xml:space="preserve" text-anchor="middle" x="459.62" y="-217.05" font-family="Helvetica,sans-Serif" font-size="11.00">if last_half and all_done</text>
<text xml:space="preserve" text-anchor="middle" x="459.62" y="-203.55" font-family="Helvetica,sans-Serif" font-size="11.00">ser_issue_active &lt;= 1</text>
<text xml:space="preserve" text-anchor="middle" x="459.62" y="-190.05" font-family="Helvetica,sans-Serif" font-size="11.00">ser_issue_idx &lt;= 0</text>
</g>
<!-- DONECHK&#45;&gt;SERSTART -->
<g id="edge14" class="edge">
<title>DONECHK&#45;&gt;SERSTART</title>
<path fill="none" stroke="#444444" d="M349.39,-292.51C366.6,-280.41 387.93,-265.41 407.22,-251.84"/>
<polygon fill="#444444" stroke="#444444" points="409.1,-254.8 415.27,-246.19 405.07,-249.08 409.1,-254.8"/>
<text xml:space="preserve" text-anchor="middle" x="406" y="-265.5" font-family="Helvetica,sans-Serif" font-size="10.00">last_half</text>
</g>
<!-- SERLOOP -->
<g id="node12" class="node">
<title>SERLOOP</title>
<path fill="#ead1dc" stroke="#555555" d="M542.25,-146C542.25,-146 437,-146 437,-146 431,-146 425,-140 425,-134 425,-134 425,-96 425,-96 425,-90 431,-84 437,-84 437,-84 542.25,-84 542.25,-84 548.25,-84 554.25,-90 554.25,-96 554.25,-96 554.25,-134 554.25,-134 554.25,-140 548.25,-146 542.25,-146"/>
<text xml:space="preserve" text-anchor="middle" x="489.62" y="-131.55" font-family="Helvetica,sans-Serif" font-size="11.00">SER_LOOP</text>
<text xml:space="preserve" text-anchor="middle" x="489.62" y="-118.05" font-family="Helvetica,sans-Serif" font-size="11.00">ser_issue_idx 0..K&#45;1</text>
<text xml:space="preserve" text-anchor="middle" x="489.62" y="-104.55" font-family="Helvetica,sans-Serif" font-size="11.00">select lane / row / parity</text>
<text xml:space="preserve" text-anchor="middle" x="489.62" y="-91.05" font-family="Helvetica,sans-Serif" font-size="11.00">emit out_valid / out_idx</text>
</g>
<!-- SERSTART&#45;&gt;SERLOOP -->
<g id="edge15" class="edge">
<title>SERSTART&#45;&gt;SERLOOP</title>
<path fill="none" stroke="#444444" d="M469.03,-182.57C471.52,-174.54 474.24,-165.73 476.87,-157.23"/>
<polygon fill="#444444" stroke="#444444" points="480.19,-158.35 479.8,-147.76 473.5,-156.28 480.19,-158.35"/>
</g>
<!-- SERLOOP&#45;&gt;FINISH -->
<g id="edge16" class="edge">
<title>SERLOOP&#45;&gt;FINISH</title>
<path fill="none" stroke="#444444" d="M487.83,-83.51C488.68,-73.22 491.36,-62.26 497.88,-54 506.86,-42.6 520.08,-34.91 533.61,-29.72"/>
<polygon fill="#444444" stroke="#444444" points="534.67,-33.06 543.03,-26.55 532.43,-26.42 534.67,-33.06"/>
<text xml:space="preserve" text-anchor="middle" x="535.75" y="-56.5" font-family="Helvetica,sans-Serif" font-size="10.00">last serialized idx</text>
</g>
<!-- FINISH&#45;&gt;IDLE -->
<g id="edge17" class="edge">
<title>FINISH&#45;&gt;IDLE</title>
<path fill="none" stroke="#444444" d="M620.37,-36.36C646.1,-52.63 677.62,-79.58 677.62,-114 677.62,-831.25 677.62,-831.25 677.62,-831.25 677.62,-859.44 661.26,-887.43 646.55,-906.89"/>
<polygon fill="#444444" stroke="#444444" points="643.95,-904.53 640.48,-914.54 649.43,-908.89 643.95,-904.53"/>
</g>
</g>
</svg>
