<?xml version="1.0" encoding="UTF-8" standalone="no"?>
<!DOCTYPE svg PUBLIC "-//W3C//DTD SVG 1.1//EN"
 "http://www.w3.org/Graphics/SVG/1.1/DTD/svg11.dtd">
<!-- Generated by graphviz version 14.1.2 (0)
 -->
<!-- Title: G Pages: 1 -->
<svg width="1287pt" height="434pt"
 viewBox="0.00 0.00 1287.00 434.00" xmlns="http://www.w3.org/2000/svg" xmlns:xlink="http://www.w3.org/1999/xlink">
<g id="graph0" class="graph" transform="scale(1 1) rotate(0) translate(4 430.25)">
<title>G</title>
<polygon fill="white" stroke="none" points="-4,4 -4,-430.25 1283.24,-430.25 1283.24,4 -4,4"/>
<text xml:space="preserve" text-anchor="middle" x="639.62" y="-403.25" font-family="Helvetica,sans-Serif" font-size="20.00">turbo_decoder_top &#45; QPP Recurrence Engine</text>
<!-- curr -->
<g id="node1" class="node">
<title>curr</title>
<polygon fill="#d9ebf7" stroke="#1f4e79" points="462.81,-395 365.39,-395 340.33,-359 437.75,-359 462.81,-395"/>
<text xml:space="preserve" text-anchor="middle" x="401.57" y="-373.3" font-family="Helvetica,sans-Serif" font-size="11.00">qpp_curr_i</text>
</g>
<!-- add1 -->
<g id="node6" class="node">
<title>add1</title>
<ellipse fill="#e2f0d9" stroke="#548235" cx="507.57" cy="-293" rx="18" ry="18"/>
<text xml:space="preserve" text-anchor="middle" x="507.57" y="-289.3" font-family="Helvetica,sans-Serif" font-size="11.00">+</text>
</g>
<!-- curr&#45;&gt;add1 -->
<g id="edge2" class="edge">
<title>curr&#45;&gt;add1</title>
<path fill="none" stroke="#444444" d="M424.05,-358.61C441.96,-344.76 466.91,-325.45 484.87,-311.56"/>
<polygon fill="#444444" stroke="#444444" points="486.59,-314.65 492.36,-305.77 482.31,-309.12 486.59,-314.65"/>
<text xml:space="preserve" text-anchor="middle" x="467.29" y="-331.5" font-family="Helvetica,sans-Serif" font-size="10.00">in0</text>
</g>
<!-- nat_idx -->
<g id="node18" class="node">
<title>nat_idx</title>
<polygon fill="#d9ebf7" stroke="#1f4e79" points="367.01,-311 277.23,-311 254.13,-275 343.91,-275 367.01,-311"/>
<text xml:space="preserve" text-anchor="middle" x="310.57" y="-289.3" font-family="Helvetica,sans-Serif" font-size="11.00">nat_idx_v</text>
</g>
<!-- curr&#45;&gt;nat_idx -->
<g id="edge1" class="edge">
<title>curr&#45;&gt;nat_idx</title>
<path fill="none" stroke="#444444" d="M382.27,-358.61C369.48,-347.09 352.5,-331.79 338.28,-318.97"/>
<polygon fill="#444444" stroke="#444444" points="340.74,-316.47 330.96,-312.38 336.05,-321.67 340.74,-316.47"/>
</g>
<!-- delta -->
<g id="node2" class="node">
<title>delta</title>
<polygon fill="#d9ebf7" stroke="#1f4e79" points="637.92,-395 533.96,-395 507.22,-359 611.18,-359 637.92,-395"/>
<text xml:space="preserve" text-anchor="middle" x="572.57" y="-373.3" font-family="Helvetica,sans-Serif" font-size="11.00">qpp_delta_i</text>
</g>
<!-- delta&#45;&gt;add1 -->
<g id="edge3" class="edge">
<title>delta&#45;&gt;add1</title>
<path fill="none" stroke="#444444" d="M558.78,-358.61C549.13,-346.43 536.13,-330.03 525.64,-316.8"/>
<polygon fill="#444444" stroke="#444444" points="528.43,-314.68 519.48,-309.02 522.95,-319.03 528.43,-314.68"/>
<text xml:space="preserve" text-anchor="middle" x="550.34" y="-331.5" font-family="Helvetica,sans-Serif" font-size="10.00">in1</text>
</g>
<!-- add2 -->
<g id="node10" class="node">
<title>add2</title>
<ellipse fill="#e2f0d9" stroke="#548235" cx="794.57" cy="-293" rx="18" ry="18"/>
<text xml:space="preserve" text-anchor="middle" x="794.57" y="-289.3" font-family="Helvetica,sans-Serif" font-size="11.00">+</text>
</g>
<!-- delta&#45;&gt;add2 -->
<g id="edge12" class="edge">
<title>delta&#45;&gt;add2</title>
<path fill="none" stroke="#444444" d="M613.03,-361.06C657.76,-344.53 728.6,-318.37 767.23,-304.1"/>
<polygon fill="#444444" stroke="#444444" points="768.09,-307.51 776.25,-300.77 765.66,-300.95 768.09,-307.51"/>
<text xml:space="preserve" text-anchor="middle" x="703.24" y="-331.5" font-family="Helvetica,sans-Serif" font-size="10.00">in0</text>
</g>
<!-- step -->
<g id="node3" class="node">
<title>step</title>
<polygon fill="#d9ebf7" stroke="#1f4e79" points="857.18,-395 757.58,-395 731.96,-359 831.56,-359 857.18,-395"/>
<text xml:space="preserve" text-anchor="middle" x="794.57" y="-373.3" font-family="Helvetica,sans-Serif" font-size="11.00">qpp_step_i</text>
</g>
<!-- step&#45;&gt;add2 -->
<g id="edge13" class="edge">
<title>step&#45;&gt;add2</title>
<path fill="none" stroke="#444444" d="M794.57,-358.61C794.57,-348.17 794.57,-334.64 794.57,-322.66"/>
<polygon fill="#444444" stroke="#444444" points="798.07,-322.88 794.57,-312.88 791.07,-322.88 798.07,-322.88"/>
<text xml:space="preserve" text-anchor="middle" x="800.94" y="-331.5" font-family="Helvetica,sans-Serif" font-size="10.00">in1</text>
</g>
<!-- frame -->
<g id="node4" class="node">
<title>frame</title>
<polygon fill="#d9ebf7" stroke="#1f4e79" points="730.17,-311 592.41,-311 556.97,-275 694.73,-275 730.17,-311"/>
<text xml:space="preserve" text-anchor="middle" x="643.57" y="-289.3" font-family="Helvetica,sans-Serif" font-size="11.00">frame_bits_i = K</text>
</g>
<!-- cmp1 -->
<g id="node7" class="node">
<title>cmp1</title>
<polygon fill="#fde9d9" stroke="#c55a11" points="507.57,-227 438.58,-209 507.57,-191 576.55,-209 507.57,-227"/>
<text xml:space="preserve" text-anchor="middle" x="507.57" y="-205.3" font-family="Helvetica,sans-Serif" font-size="11.00">sum1 &gt;= K ?</text>
</g>
<!-- frame&#45;&gt;cmp1 -->
<g id="edge6" class="edge">
<title>frame&#45;&gt;cmp1</title>
<path fill="none" stroke="#444444" d="M614.73,-274.61C591.91,-260.85 560.16,-241.71 537.15,-227.83"/>
<polygon fill="#444444" stroke="#444444" points="539.23,-225 528.86,-222.84 535.62,-231 539.23,-225"/>
</g>
<!-- sub1 -->
<g id="node8" class="node">
<title>sub1</title>
<ellipse fill="#e2f0d9" stroke="#548235" cx="612.57" cy="-209" rx="18" ry="18"/>
<text xml:space="preserve" text-anchor="middle" x="612.57" y="-205.3" font-family="Helvetica,sans-Serif" font-size="11.00">&#45;</text>
</g>
<!-- frame&#45;&gt;sub1 -->
<g id="edge7" class="edge">
<title>frame&#45;&gt;sub1</title>
<path fill="none" stroke="#444444" d="M636.99,-274.61C632.86,-263.67 627.43,-249.32 622.75,-236.93"/>
<polygon fill="#444444" stroke="#444444" points="626.06,-235.78 619.25,-227.67 619.51,-238.26 626.06,-235.78"/>
<text xml:space="preserve" text-anchor="middle" x="636.3" y="-247.5" font-family="Helvetica,sans-Serif" font-size="10.00">in1</text>
</g>
<!-- cmp2 -->
<g id="node11" class="node">
<title>cmp2</title>
<polygon fill="#fde9d9" stroke="#c55a11" points="717.57,-227 648.58,-209 717.57,-191 786.55,-209 717.57,-227"/>
<text xml:space="preserve" text-anchor="middle" x="717.57" y="-205.3" font-family="Helvetica,sans-Serif" font-size="11.00">sum2 &gt;= K ?</text>
</g>
<!-- frame&#45;&gt;cmp2 -->
<g id="edge16" class="edge">
<title>frame&#45;&gt;cmp2</title>
<path fill="none" stroke="#444444" d="M659.26,-274.61C670.4,-262.27 685.44,-245.6 697.46,-232.28"/>
<polygon fill="#444444" stroke="#444444" points="699.73,-234.99 703.83,-225.22 694.54,-230.3 699.73,-234.99"/>
</g>
<!-- sub2 -->
<g id="node12" class="node">
<title>sub2</title>
<ellipse fill="#e2f0d9" stroke="#548235" cx="822.57" cy="-209" rx="18" ry="18"/>
<text xml:space="preserve" text-anchor="middle" x="822.57" y="-205.3" font-family="Helvetica,sans-Serif" font-size="11.00">&#45;</text>
</g>
<!-- frame&#45;&gt;sub2 -->
<g id="edge17" class="edge">
<title>frame&#45;&gt;sub2</title>
<path fill="none" stroke="#444444" d="M689.33,-274.63C719.96,-262.47 760.87,-245.2 795.57,-227 796.32,-226.6 797.08,-226.2 797.85,-225.78"/>
<polygon fill="#444444" stroke="#444444" points="799.55,-228.83 806.38,-220.73 795.99,-222.81 799.55,-228.83"/>
<text xml:space="preserve" text-anchor="middle" x="761.15" y="-247.5" font-family="Helvetica,sans-Serif" font-size="10.00">in1</text>
</g>
<!-- issue -->
<g id="node5" class="node">
<title>issue</title>
<polygon fill="#d9ebf7" stroke="#1f4e79" points="1123.74,-395 991.43,-395 957.4,-359 1089.71,-359 1123.74,-395"/>
<text xml:space="preserve" text-anchor="middle" x="1040.57" y="-373.3" font-family="Helvetica,sans-Serif" font-size="11.00">perm_issue_idx</text>
</g>
<!-- div_issue -->
<g id="node16" class="node">
<title>div_issue</title>
<path fill="#eef5fb" stroke="#1f4e79" d="M1036.32,-311C1036.32,-311 892.82,-311 892.82,-311 886.82,-311 880.82,-305 880.82,-299 880.82,-299 880.82,-287 880.82,-287 880.82,-281 886.82,-275 892.82,-275 892.82,-275 1036.32,-275 1036.32,-275 1042.32,-275 1048.32,-281 1048.32,-287 1048.32,-287 1048.32,-299 1048.32,-299 1048.32,-305 1042.32,-311 1036.32,-311"/>
<text xml:space="preserve" text-anchor="middle" x="964.57" y="-296.05" font-family="Helvetica,sans-Serif" font-size="11.00">DIV2</text>
<text xml:space="preserve" text-anchor="middle" x="964.57" y="-282.55" font-family="Helvetica,sans-Serif" font-size="11.00">issue_pair = perm_issue_idx / 2</text>
</g>
<!-- issue&#45;&gt;div_issue -->
<g id="edge26" class="edge">
<title>issue&#45;&gt;div_issue</title>
<path fill="none" stroke="#444444" d="M1024.45,-358.61C1013.97,-347.3 1000.13,-332.36 988.39,-319.7"/>
<polygon fill="#444444" stroke="#444444" points="991.06,-317.43 981.69,-312.48 985.92,-322.19 991.06,-317.43"/>
</g>
<!-- odd_issue -->
<g id="node17" class="node">
<title>odd_issue</title>
<polygon fill="#fde9d9" stroke="#c55a11" points="1172.57,-311 1065.9,-293 1172.57,-275 1279.24,-293 1172.57,-311"/>
<text xml:space="preserve" text-anchor="middle" x="1172.57" y="-289.3" font-family="Helvetica,sans-Serif" font-size="11.00">perm_issue_idx odd ?</text>
</g>
<!-- issue&#45;&gt;odd_issue -->
<g id="edge27" class="edge">
<title>issue&#45;&gt;odd_issue</title>
<path fill="none" stroke="#444444" d="M1068.56,-358.61C1089.83,-345.4 1119.07,-327.23 1141.14,-313.53"/>
<polygon fill="#444444" stroke="#444444" points="1142.78,-316.62 1149.43,-308.37 1139.09,-310.68 1142.78,-316.62"/>
</g>
<!-- add1&#45;&gt;cmp1 -->
<g id="edge4" class="edge">
<title>add1&#45;&gt;cmp1</title>
<path fill="none" stroke="#444444" d="M507.57,-274.61C507.57,-264.17 507.57,-250.64 507.57,-238.66"/>
<polygon fill="#444444" stroke="#444444" points="511.07,-238.88 507.57,-228.88 504.07,-238.88 511.07,-238.88"/>
</g>
<!-- add1&#45;&gt;sub1 -->
<g id="edge5" class="edge">
<title>add1&#45;&gt;sub1</title>
<path fill="none" stroke="#444444" d="M521.3,-281.28C538.65,-267.73 568.78,-244.2 589.65,-227.9"/>
<polygon fill="#444444" stroke="#444444" points="591.58,-230.83 597.31,-221.92 587.28,-225.31 591.58,-230.83"/>
<text xml:space="preserve" text-anchor="middle" x="572.73" y="-247.5" font-family="Helvetica,sans-Serif" font-size="10.00">in0</text>
</g>
<!-- mux1 -->
<g id="node9" class="node">
<title>mux1</title>
<polygon fill="#e2f0d9" stroke="#548235" points="561.21,-143 461.93,-143 426.57,-73 596.57,-73 561.21,-143"/>
<text xml:space="preserve" text-anchor="middle" x="511.57" y="-111.05" font-family="Helvetica,sans-Serif" font-size="11.00">MUX</text>
<text xml:space="preserve" text-anchor="middle" x="511.57" y="-97.55" font-family="Helvetica,sans-Serif" font-size="11.00">qpp_curr_next</text>
</g>
<!-- add1&#45;&gt;mux1 -->
<g id="edge9" class="edge">
<title>add1&#45;&gt;mux1</title>
<path fill="none" stroke="#444444" d="M490.72,-285.66C469.03,-276.46 432.32,-257.17 416.82,-227 409.51,-212.77 410.17,-205.55 416.82,-191 424.5,-174.21 437.5,-159.53 451.45,-147.42"/>
<polygon fill="#444444" stroke="#444444" points="453.55,-150.23 459.05,-141.18 449.1,-144.82 453.55,-150.23"/>
<text xml:space="preserve" text-anchor="middle" x="423.19" y="-205.5" font-family="Helvetica,sans-Serif" font-size="10.00">in0</text>
</g>
<!-- cmp1&#45;&gt;mux1 -->
<g id="edge10" class="edge">
<title>cmp1&#45;&gt;mux1</title>
<path fill="none" stroke="#444444" d="M508.27,-190.76C508.67,-180.64 509.21,-167.35 509.73,-154.43"/>
<polygon fill="#444444" stroke="#444444" points="513.22,-154.91 510.12,-144.77 506.22,-154.62 513.22,-154.91"/>
<text xml:space="preserve" text-anchor="middle" x="515.82" y="-163.5" font-family="Helvetica,sans-Serif" font-size="10.00">sel</text>
</g>
<!-- sub1&#45;&gt;mux1 -->
<g id="edge8" class="edge">
<title>sub1&#45;&gt;mux1</title>
<path fill="none" stroke="#444444" d="M600.18,-195.86C588.78,-184.68 571.17,-167.42 554.64,-151.22"/>
<polygon fill="#444444" stroke="#444444" points="557.32,-148.94 547.73,-144.44 552.42,-153.94 557.32,-148.94"/>
<text xml:space="preserve" text-anchor="middle" x="580.46" y="-163.5" font-family="Helvetica,sans-Serif" font-size="10.00">in1</text>
</g>
<!-- currn -->
<g id="node19" class="node">
<title>currn</title>
<polygon fill="#d9ebf7" stroke="#1f4e79" points="589.26,-36 465.67,-36 433.88,0 557.47,0 589.26,-36"/>
<text xml:space="preserve" text-anchor="middle" x="511.57" y="-14.3" font-family="Helvetica,sans-Serif" font-size="11.00">qpp_curr_next</text>
</g>
<!-- mux1&#45;&gt;currn -->
<g id="edge11" class="edge">
<title>mux1&#45;&gt;currn</title>
<path fill="none" stroke="#444444" d="M511.57,-72.72C511.57,-64.39 511.57,-55.57 511.57,-47.54"/>
<polygon fill="#444444" stroke="#444444" points="515.07,-47.63 511.57,-37.63 508.07,-47.63 515.07,-47.63"/>
</g>
<!-- add2&#45;&gt;cmp2 -->
<g id="edge14" class="edge">
<title>add2&#45;&gt;cmp2</title>
<path fill="none" stroke="#444444" d="M782.54,-279.19C770.73,-266.61 752.48,-247.18 738.32,-232.1"/>
<polygon fill="#444444" stroke="#444444" points="740.98,-229.81 731.58,-224.92 735.87,-234.61 740.98,-229.81"/>
</g>
<!-- add2&#45;&gt;sub2 -->
<g id="edge15" class="edge">
<title>add2&#45;&gt;sub2</title>
<path fill="none" stroke="#444444" d="M800.24,-275.41C803.95,-264.51 808.91,-250.01 813.2,-237.43"/>
<polygon fill="#444444" stroke="#444444" points="816.5,-238.6 816.42,-228 809.88,-236.33 816.5,-238.6"/>
<text xml:space="preserve" text-anchor="middle" x="816.62" y="-247.5" font-family="Helvetica,sans-Serif" font-size="10.00">in0</text>
</g>
<!-- mux2 -->
<g id="node13" class="node">
<title>mux2</title>
<polygon fill="#e2f0d9" stroke="#548235" points="874.84,-143 770.3,-143 733.07,-73 912.07,-73 874.84,-143"/>
<text xml:space="preserve" text-anchor="middle" x="822.57" y="-111.05" font-family="Helvetica,sans-Serif" font-size="11.00">MUX</text>
<text xml:space="preserve" text-anchor="middle" x="822.57" y="-97.55" font-family="Helvetica,sans-Serif" font-size="11.00">qpp_delta_next</text>
</g>
<!-- add2&#45;&gt;mux2 -->
<g id="edge19" class="edge">
<title>add2&#45;&gt;mux2</title>
<path fill="none" stroke="#444444" d="M808.51,-281.1C822.14,-269.44 841.92,-249.54 849.57,-227 857.6,-203.31 852.33,-176.14 844.39,-153.85"/>
<polygon fill="#444444" stroke="#444444" points="847.74,-152.81 840.87,-144.75 841.21,-155.34 847.74,-152.81"/>
<text xml:space="preserve" text-anchor="middle" x="859.95" y="-205.5" font-family="Helvetica,sans-Serif" font-size="10.00">in0</text>
</g>
<!-- cmp2&#45;&gt;mux2 -->
<g id="edge20" class="edge">
<title>cmp2&#45;&gt;mux2</title>
<path fill="none" stroke="#444444" d="M731.73,-194.65C743.66,-183.4 761.4,-166.68 778.04,-150.98"/>
<polygon fill="#444444" stroke="#444444" points="780.12,-153.84 784.99,-144.43 775.32,-148.74 780.12,-153.84"/>
<text xml:space="preserve" text-anchor="middle" x="773.3" y="-163.5" font-family="Helvetica,sans-Serif" font-size="10.00">sel</text>
</g>
<!-- sub2&#45;&gt;mux2 -->
<g id="edge18" class="edge">
<title>sub2&#45;&gt;mux2</title>
<path fill="none" stroke="#444444" d="M822.57,-190.76C822.57,-180.64 822.57,-167.35 822.57,-154.43"/>
<polygon fill="#444444" stroke="#444444" points="826.07,-154.77 822.57,-144.77 819.07,-154.77 826.07,-154.77"/>
<text xml:space="preserve" text-anchor="middle" x="828.94" y="-163.5" font-family="Helvetica,sans-Serif" font-size="10.00">in1</text>
</g>
<!-- deltan -->
<g id="node20" class="node">
<title>deltan</title>
<polygon fill="#d9ebf7" stroke="#1f4e79" points="904.37,-36 774.24,-36 740.77,0 870.9,0 904.37,-36"/>
<text xml:space="preserve" text-anchor="middle" x="822.57" y="-14.3" font-family="Helvetica,sans-Serif" font-size="11.00">qpp_delta_next</text>
</g>
<!-- mux2&#45;&gt;deltan -->
<g id="edge21" class="edge">
<title>mux2&#45;&gt;deltan</title>
<path fill="none" stroke="#444444" d="M822.57,-72.72C822.57,-64.39 822.57,-55.57 822.57,-47.54"/>
<polygon fill="#444444" stroke="#444444" points="826.07,-47.63 822.57,-37.63 819.07,-47.63 826.07,-47.63"/>
</g>
<!-- div_nat -->
<g id="node14" class="node">
<title>div_nat</title>
<path fill="#eef5fb" stroke="#1f4e79" d="M356.82,-227C356.82,-227 264.32,-227 264.32,-227 258.32,-227 252.32,-221 252.32,-215 252.32,-215 252.32,-203 252.32,-203 252.32,-197 258.32,-191 264.32,-191 264.32,-191 356.82,-191 356.82,-191 362.82,-191 368.82,-197 368.82,-203 368.82,-203 368.82,-215 368.82,-215 368.82,-221 362.82,-227 356.82,-227"/>
<text xml:space="preserve" text-anchor="middle" x="310.57" y="-212.05" font-family="Helvetica,sans-Serif" font-size="11.00">DIV2</text>
<text xml:space="preserve" text-anchor="middle" x="310.57" y="-198.55" font-family="Helvetica,sans-Serif" font-size="11.00">dst_pair = nat_idx / 2</text>
</g>
<!-- dstpair -->
<g id="node21" class="node">
<title>dstpair</title>
<polygon fill="#d9ebf7" stroke="#1f4e79" points="408.14,-126 252.93,-126 213,-90 368.21,-90 408.14,-126"/>
<text xml:space="preserve" text-anchor="middle" x="310.57" y="-104.3" font-family="Helvetica,sans-Serif" font-size="11.00">perm_req_dst_pair</text>
</g>
<!-- div_nat&#45;&gt;dstpair -->
<g id="edge24" class="edge">
<title>div_nat&#45;&gt;dstpair</title>
<path fill="none" stroke="#444444" d="M310.57,-190.76C310.57,-176.08 310.57,-154.71 310.57,-137.5"/>
<polygon fill="#444444" stroke="#444444" points="314.07,-137.89 310.57,-127.89 307.07,-137.89 314.07,-137.89"/>
</g>
<!-- odd_nat -->
<g id="node15" class="node">
<title>odd_nat</title>
<polygon fill="#fde9d9" stroke="#c55a11" points="130.57,-227 59.6,-209 130.57,-191 201.54,-209 130.57,-227"/>
<text xml:space="preserve" text-anchor="middle" x="130.57" y="-205.3" font-family="Helvetica,sans-Serif" font-size="11.00">nat_idx odd ?</text>
</g>
<!-- dstodd -->
<g id="node22" class="node">
<title>dstodd</title>
<polygon fill="#fce4d6" stroke="#c55a11" points="195.14,-126 39.93,-126 0,-90 155.21,-90 195.14,-126"/>
<text xml:space="preserve" text-anchor="middle" x="97.57" y="-104.3" font-family="Helvetica,sans-Serif" font-size="11.00">perm_req_dst_odd</text>
</g>
<!-- odd_nat&#45;&gt;dstodd -->
<g id="edge25" class="edge">
<title>odd_nat&#45;&gt;dstodd</title>
<path fill="none" stroke="#444444" d="M125.27,-192.09C120.34,-177.3 112.88,-154.92 106.94,-137.11"/>
<polygon fill="#444444" stroke="#444444" points="110.26,-136.01 103.78,-127.63 103.62,-138.23 110.26,-136.01"/>
</g>
<!-- srcodd -->
<g id="node23" class="node">
<title>srcodd</title>
<polygon fill="#fce4d6" stroke="#c55a11" points="1270.14,-227 1114.93,-227 1075,-191 1230.21,-191 1270.14,-227"/>
<text xml:space="preserve" text-anchor="middle" x="1172.57" y="-205.3" font-family="Helvetica,sans-Serif" font-size="11.00">perm_req_src_odd</text>
</g>
<!-- odd_issue&#45;&gt;srcodd -->
<g id="edge28" class="edge">
<title>odd_issue&#45;&gt;srcodd</title>
<path fill="none" stroke="#444444" d="M1172.57,-274.61C1172.57,-264.17 1172.57,-250.64 1172.57,-238.66"/>
<polygon fill="#444444" stroke="#444444" points="1176.07,-238.88 1172.57,-228.88 1169.07,-238.88 1176.07,-238.88"/>
</g>
<!-- nat_idx&#45;&gt;div_nat -->
<g id="edge22" class="edge">
<title>nat_idx&#45;&gt;div_nat</title>
<path fill="none" stroke="#444444" d="M310.57,-274.61C310.57,-264.17 310.57,-250.64 310.57,-238.66"/>
<polygon fill="#444444" stroke="#444444" points="314.07,-238.88 310.57,-228.88 307.07,-238.88 314.07,-238.88"/>
</g>
<!-- nat_idx&#45;&gt;odd_nat -->
<g id="edge23" class="edge">
<title>nat_idx&#45;&gt;odd_nat</title>
<path fill="none" stroke="#444444" d="M272.4,-274.61C240.73,-260.19 196.09,-239.85 165.39,-225.86"/>
<polygon fill="#444444" stroke="#444444" points="167.08,-222.79 156.53,-221.83 164.18,-229.16 167.08,-222.79"/>
</g>
</g>
</svg>
