<?xml version="1.0" encoding="UTF-8" standalone="no"?>
<!DOCTYPE svg PUBLIC "-//W3C//DTD SVG 1.1//EN"
 "http://www.w3.org/Graphics/SVG/1.1/DTD/svg11.dtd">
<!-- Generated by graphviz version 14.1.2 (0)
 -->
<!-- Title: G Pages: 1 -->
<svg width="1172pt" height="521pt"
 viewBox="0.00 0.00 1172.00 521.00" xmlns="http://www.w3.org/2000/svg" xmlns:xlink="http://www.w3.org/1999/xlink">
<g id="graph0" class="graph" transform="scale(1 1) rotate(0) translate(4 516.62)">
<title>G</title>
<polygon fill="white" stroke="none" points="-4,4 -4,-516.62 1167.75,-516.62 1167.75,4 -4,4"/>
<text xml:space="preserve" text-anchor="middle" x="581.88" y="-489.62" font-family="Helvetica,sans-Serif" font-size="20.00">turbo_decoder_top &#45; Input Load Scatter</text>
<!-- idx -->
<g id="node1" class="node">
<title>idx</title>
<polygon fill="#d9ebf7" stroke="#1f4e79" points="725.24,-481.37 661.63,-481.37 645.26,-445.37 708.87,-445.37 725.24,-481.37"/>
<text xml:space="preserve" text-anchor="middle" x="685.25" y="-459.67" font-family="Helvetica,sans-Serif" font-size="11.00">in_idx</text>
</g>
<!-- div2 -->
<g id="node6" class="node">
<title>div2</title>
<path fill="#eef5fb" stroke="#1f4e79" d="M855.75,-209.5C855.75,-209.5 770.75,-209.5 770.75,-209.5 764.75,-209.5 758.75,-203.5 758.75,-197.5 758.75,-197.5 758.75,-185.5 758.75,-185.5 758.75,-179.5 764.75,-173.5 770.75,-173.5 770.75,-173.5 855.75,-173.5 855.75,-173.5 861.75,-173.5 867.75,-179.5 867.75,-185.5 867.75,-185.5 867.75,-197.5 867.75,-197.5 867.75,-203.5 861.75,-209.5 855.75,-209.5"/>
<text xml:space="preserve" text-anchor="middle" x="813.25" y="-194.55" font-family="Helvetica,sans-Serif" font-size="11.00">DIV2</text>
<text xml:space="preserve" text-anchor="middle" x="813.25" y="-181.05" font-family="Helvetica,sans-Serif" font-size="11.00">pair_idx = in_idx / 2</text>
</g>
<!-- idx&#45;&gt;div2 -->
<g id="edge1" class="edge">
<title>idx&#45;&gt;div2</title>
<path fill="none" stroke="#444444" d="M715.74,-459.78C747.87,-455.25 796.97,-442.76 820.25,-408.37 858.94,-351.22 838.38,-264.66 823.77,-220.53"/>
<polygon fill="#444444" stroke="#444444" points="827.11,-219.49 820.53,-211.19 820.5,-221.79 827.11,-219.49"/>
</g>
<!-- odd -->
<g id="node7" class="node">
<title>odd</title>
<polygon fill="#fde9d9" stroke="#c55a11" points="498.25,-317.44 433.23,-299.44 498.25,-281.44 563.27,-299.44 498.25,-317.44"/>
<text xml:space="preserve" text-anchor="middle" x="498.25" y="-295.74" font-family="Helvetica,sans-Serif" font-size="11.00">in_idx odd ?</text>
</g>
<!-- idx&#45;&gt;odd -->
<g id="edge2" class="edge">
<title>idx&#45;&gt;odd</title>
<path fill="none" stroke="#444444" d="M651.48,-460.11C590.02,-455.22 463.79,-441.31 437.25,-408.37 414.78,-380.48 447.29,-343.25 472.8,-320.6"/>
<polygon fill="#444444" stroke="#444444" points="474.94,-323.38 480.28,-314.22 470.4,-318.05 474.94,-323.38"/>
</g>
<!-- range -->
<g id="node8" class="node">
<title>range</title>
<polygon fill="#fde9d9" stroke="#c55a11" points="685.25,-408.37 559.4,-390.37 685.25,-372.37 811.1,-390.37 685.25,-408.37"/>
<text xml:space="preserve" text-anchor="middle" x="685.25" y="-386.67" font-family="Helvetica,sans-Serif" font-size="11.00">0 &lt;= in_idx &lt; G_K_MAX ?</text>
</g>
<!-- idx&#45;&gt;range -->
<g id="edge3" class="edge">
<title>idx&#45;&gt;range</title>
<path fill="none" stroke="#444444" d="M685.25,-445.18C685.25,-437.6 685.25,-428.47 685.25,-419.91"/>
<polygon fill="#444444" stroke="#444444" points="688.75,-419.91 685.25,-409.91 681.75,-419.91 688.75,-419.91"/>
</g>
<!-- sys -->
<g id="node2" class="node">
<title>sys</title>
<polygon fill="#d9ebf7" stroke="#1f4e79" points="273.83,-209.5 194.96,-209.5 174.67,-173.5 253.54,-173.5 273.83,-209.5"/>
<text xml:space="preserve" text-anchor="middle" x="224.25" y="-187.8" font-family="Helvetica,sans-Serif" font-size="11.00">l_sys_in</text>
</g>
<!-- nat_e -->
<g id="node14" class="node">
<title>nat_e</title>
<path fill="#f8f6ef" stroke="#555555" d="M405.88,-0.5C405.88,-0.5 524.62,-0.5 524.62,-0.5 530.62,-0.5 536.62,-6.5 536.62,-12.5 536.62,-12.5 536.62,-96 536.62,-96 536.62,-102 530.62,-108 524.62,-108 524.62,-108 405.88,-108 405.88,-108 399.88,-108 393.88,-102 393.88,-96 393.88,-96 393.88,-12.5 393.88,-12.5 393.88,-6.5 399.88,-0.5 405.88,-0.5"/>
<text xml:space="preserve" text-anchor="middle" x="465.25" y="-93.55" font-family="Helvetica,sans-Serif" font-size="11.00">Even Natural Banks</text>
<polyline fill="none" stroke="#555555" points="393.88,-86.5 536.62,-86.5"/>
<text xml:space="preserve" text-anchor="middle" x="465.25" y="-72.05" font-family="Helvetica,sans-Serif" font-size="11.00">SYS_NAT_E = l_sys_in</text>
<polyline fill="none" stroke="#555555" points="393.88,-65 536.62,-65"/>
<text xml:space="preserve" text-anchor="middle" x="465.25" y="-50.55" font-family="Helvetica,sans-Serif" font-size="11.00">PAR1_NAT_E = l_par1_in</text>
<polyline fill="none" stroke="#555555" points="393.88,-43.5 536.62,-43.5"/>
<text xml:space="preserve" text-anchor="middle" x="465.25" y="-29.05" font-family="Helvetica,sans-Serif" font-size="11.00">EXT_NAT_E = 0</text>
<polyline fill="none" stroke="#555555" points="393.88,-22 536.62,-22"/>
<text xml:space="preserve" text-anchor="middle" x="465.25" y="-7.55" font-family="Helvetica,sans-Serif" font-size="11.00">FINAL_NAT_E = 0</text>
</g>
<!-- sys&#45;&gt;nat_e -->
<g id="edge18" class="edge">
<title>sys&#45;&gt;nat_e</title>
<path fill="none" stroke="#444444" d="M249.68,-173.09C259.74,-166.96 271.65,-160.58 283.25,-156.5 332.46,-139.18 354.16,-164.75 399.25,-138.5 408.93,-132.86 417.74,-125.21 425.53,-116.82"/>
<polygon fill="#444444" stroke="#444444" points="428.09,-119.22 432,-109.38 422.8,-114.63 428.09,-119.22"/>
</g>
<!-- nat_o -->
<g id="node15" class="node">
<title>nat_o</title>
<path fill="#f8f6ef" stroke="#555555" d="M204.5,-0.5C204.5,-0.5 324,-0.5 324,-0.5 330,-0.5 336,-6.5 336,-12.5 336,-12.5 336,-96 336,-96 336,-102 330,-108 324,-108 324,-108 204.5,-108 204.5,-108 198.5,-108 192.5,-102 192.5,-96 192.5,-96 192.5,-12.5 192.5,-12.5 192.5,-6.5 198.5,-0.5 204.5,-0.5"/>
<text xml:space="preserve" text-anchor="middle" x="264.25" y="-93.55" font-family="Helvetica,sans-Serif" font-size="11.00">Odd Natural Banks</text>
<polyline fill="none" stroke="#555555" points="192.5,-86.5 336,-86.5"/>
<text xml:space="preserve" text-anchor="middle" x="264.25" y="-72.05" font-family="Helvetica,sans-Serif" font-size="11.00">SYS_NAT_O = l_sys_in</text>
<polyline fill="none" stroke="#555555" points="192.5,-65 336,-65"/>
<text xml:space="preserve" text-anchor="middle" x="264.25" y="-50.55" font-family="Helvetica,sans-Serif" font-size="11.00">PAR1_NAT_O = l_par1_in</text>
<polyline fill="none" stroke="#555555" points="192.5,-43.5 336,-43.5"/>
<text xml:space="preserve" text-anchor="middle" x="264.25" y="-29.05" font-family="Helvetica,sans-Serif" font-size="11.00">EXT_NAT_O = 0</text>
<polyline fill="none" stroke="#555555" points="192.5,-22 336,-22"/>
<text xml:space="preserve" text-anchor="middle" x="264.25" y="-7.55" font-family="Helvetica,sans-Serif" font-size="11.00">FINAL_NAT_O = 0</text>
</g>
<!-- sys&#45;&gt;nat_o -->
<g id="edge19" class="edge">
<title>sys&#45;&gt;nat_o</title>
<path fill="none" stroke="#444444" d="M229.4,-173.1C233.47,-159.31 239.44,-139.15 245.28,-119.38"/>
<polygon fill="#444444" stroke="#444444" points="248.6,-120.52 248.08,-109.94 241.88,-118.53 248.6,-120.52"/>
</g>
<!-- par1 -->
<g id="node3" class="node">
<title>par1</title>
<polygon fill="#d9ebf7" stroke="#1f4e79" points="402.32,-209.5 314.72,-209.5 292.18,-173.5 379.78,-173.5 402.32,-209.5"/>
<text xml:space="preserve" text-anchor="middle" x="347.25" y="-187.8" font-family="Helvetica,sans-Serif" font-size="11.00">l_par1_in</text>
</g>
<!-- par1&#45;&gt;nat_e -->
<g id="edge20" class="edge">
<title>par1&#45;&gt;nat_e</title>
<path fill="none" stroke="#444444" d="M380.3,-173.42C401.14,-162.12 425.52,-147.73 433.25,-138.5 438.31,-132.46 442.62,-125.53 446.28,-118.31"/>
<polygon fill="#444444" stroke="#444444" points="449.24,-120.25 450.24,-109.71 442.88,-117.32 449.24,-120.25"/>
</g>
<!-- par1&#45;&gt;nat_o -->
<g id="edge21" class="edge">
<title>par1&#45;&gt;nat_o</title>
<path fill="none" stroke="#444444" d="M336.57,-173.1C327.95,-159.05 315.28,-138.4 302.93,-118.28"/>
<polygon fill="#444444" stroke="#444444" points="305.92,-116.47 297.71,-109.78 299.96,-120.13 305.92,-116.47"/>
</g>
<!-- par2 -->
<g id="node4" class="node">
<title>par2</title>
<polygon fill="#d9ebf7" stroke="#1f4e79" points="996.32,-209.5 908.72,-209.5 886.18,-173.5 973.78,-173.5 996.32,-209.5"/>
<text xml:space="preserve" text-anchor="middle" x="941.25" y="-187.8" font-family="Helvetica,sans-Serif" font-size="11.00">l_par2_in</text>
</g>
<!-- int_e -->
<g id="node16" class="node">
<title>int_e</title>
<path fill="#f8f6ef" stroke="#555555" d="M740.75,-11.25C740.75,-11.25 855.75,-11.25 855.75,-11.25 861.75,-11.25 867.75,-17.25 867.75,-23.25 867.75,-23.25 867.75,-85.25 867.75,-85.25 867.75,-91.25 861.75,-97.25 855.75,-97.25 855.75,-97.25 740.75,-97.25 740.75,-97.25 734.75,-97.25 728.75,-91.25 728.75,-85.25 728.75,-85.25 728.75,-23.25 728.75,-23.25 728.75,-17.25 734.75,-11.25 740.75,-11.25"/>
<text xml:space="preserve" text-anchor="middle" x="798.25" y="-82.8" font-family="Helvetica,sans-Serif" font-size="11.00">Even Interleaved Banks</text>
<polyline fill="none" stroke="#555555" points="728.75,-75.75 867.75,-75.75"/>
<text xml:space="preserve" text-anchor="middle" x="798.25" y="-61.3" font-family="Helvetica,sans-Serif" font-size="11.00">PAR2_INT_E = l_par2_in</text>
<polyline fill="none" stroke="#555555" points="728.75,-54.25 867.75,-54.25"/>
<text xml:space="preserve" text-anchor="middle" x="798.25" y="-39.8" font-family="Helvetica,sans-Serif" font-size="11.00">EXT_INT_E = 0</text>
<polyline fill="none" stroke="#555555" points="728.75,-32.75 867.75,-32.75"/>
<text xml:space="preserve" text-anchor="middle" x="798.25" y="-18.3" font-family="Helvetica,sans-Serif" font-size="11.00">POST_INT_E = 0</text>
</g>
<!-- par2&#45;&gt;int_e -->
<g id="edge22" class="edge">
<title>par2&#45;&gt;int_e</title>
<path fill="none" stroke="#444444" d="M918.03,-173.22C905.32,-163.45 889.51,-150.76 876.25,-138.5 865.24,-128.32 853.92,-116.88 843.44,-105.82"/>
<polygon fill="#444444" stroke="#444444" points="846.03,-103.47 836.64,-98.56 840.93,-108.25 846.03,-103.47"/>
</g>
<!-- int_o -->
<g id="node17" class="node">
<title>int_o</title>
<path fill="#f8f6ef" stroke="#555555" d="M897.38,-11.25C897.38,-11.25 1013.12,-11.25 1013.12,-11.25 1019.12,-11.25 1025.12,-17.25 1025.12,-23.25 1025.12,-23.25 1025.12,-85.25 1025.12,-85.25 1025.12,-91.25 1019.12,-97.25 1013.12,-97.25 1013.12,-97.25 897.38,-97.25 897.38,-97.25 891.38,-97.25 885.38,-91.25 885.38,-85.25 885.38,-85.25 885.38,-23.25 885.38,-23.25 885.38,-17.25 891.38,-11.25 897.38,-11.25"/>
<text xml:space="preserve" text-anchor="middle" x="955.25" y="-82.8" font-family="Helvetica,sans-Serif" font-size="11.00">Odd Interleaved Banks</text>
<polyline fill="none" stroke="#555555" points="885.38,-75.75 1025.12,-75.75"/>
<text xml:space="preserve" text-anchor="middle" x="955.25" y="-61.3" font-family="Helvetica,sans-Serif" font-size="11.00">PAR2_INT_O = l_par2_in</text>
<polyline fill="none" stroke="#555555" points="885.38,-54.25 1025.12,-54.25"/>
<text xml:space="preserve" text-anchor="middle" x="955.25" y="-39.8" font-family="Helvetica,sans-Serif" font-size="11.00">EXT_INT_O = 0</text>
<polyline fill="none" stroke="#555555" points="885.38,-32.75 1025.12,-32.75"/>
<text xml:space="preserve" text-anchor="middle" x="955.25" y="-18.3" font-family="Helvetica,sans-Serif" font-size="11.00">POST_INT_O = 0</text>
</g>
<!-- par2&#45;&gt;int_o -->
<g id="edge23" class="edge">
<title>par2&#45;&gt;int_o</title>
<path fill="none" stroke="#444444" d="M943.05,-173.1C944.73,-156.86 947.33,-131.78 949.69,-108.92"/>
<polygon fill="#444444" stroke="#444444" points="953.16,-109.39 950.71,-99.08 946.2,-108.67 953.16,-109.39"/>
</g>
<!-- inval -->
<g id="node5" class="node">
<title>inval</title>
<polygon fill="#fce4d6" stroke="#c55a11" points="541.78,-408.37 466.17,-408.37 446.72,-372.37 522.33,-372.37 541.78,-408.37"/>
<text xml:space="preserve" text-anchor="middle" x="494.25" y="-386.67" font-family="Helvetica,sans-Serif" font-size="11.00">in_valid</text>
</g>
<!-- gate -->
<g id="node9" class="node">
<title>gate</title>
<ellipse fill="#e2f0d9" stroke="#548235" cx="619.25" cy="-299.44" rx="24.94" ry="24.94"/>
<text xml:space="preserve" text-anchor="middle" x="619.25" y="-295.74" font-family="Helvetica,sans-Serif" font-size="11.00">AND</text>
</g>
<!-- inval&#45;&gt;gate -->
<g id="edge4" class="edge">
<title>inval&#45;&gt;gate</title>
<path fill="none" stroke="#444444" d="M518.65,-372.01C538.98,-357.55 568.01,-336.89 589.67,-321.48"/>
<polygon fill="#444444" stroke="#444444" points="591.69,-324.34 597.81,-315.69 587.63,-318.64 591.69,-324.34"/>
<text xml:space="preserve" text-anchor="middle" x="573.25" y="-344.87" font-family="Helvetica,sans-Serif" font-size="10.00">in_valid</text>
</g>
<!-- div2&#45;&gt;nat_e -->
<g id="edge14" class="edge">
<title>div2&#45;&gt;nat_e</title>
<path fill="none" stroke="#444444" d="M784.45,-173.12C773.94,-167.27 761.8,-161.08 750.25,-156.5 721.39,-145.05 712.29,-148.06 682.75,-138.5 637.55,-123.87 588.02,-105.13 547.66,-89.14"/>
<polygon fill="#444444" stroke="#444444" points="549.06,-85.93 538.48,-85.48 546.47,-92.43 549.06,-85.93"/>
<text xml:space="preserve" text-anchor="middle" x="700" y="-129" font-family="Helvetica,sans-Serif" font-size="10.00">wr_addr</text>
</g>
<!-- div2&#45;&gt;nat_o -->
<g id="edge15" class="edge">
<title>div2&#45;&gt;nat_o</title>
<path fill="none" stroke="#444444" d="M787.07,-173.05C776.15,-166.67 763.04,-160.13 750.25,-156.5 618.99,-119.21 576.08,-171.79 443.75,-138.5 410.53,-130.14 375.95,-115.66 346.11,-101.1"/>
<polygon fill="#444444" stroke="#444444" points="348.05,-98.15 337.54,-96.84 344.94,-104.42 348.05,-98.15"/>
<text xml:space="preserve" text-anchor="middle" x="461" y="-129" font-family="Helvetica,sans-Serif" font-size="10.00">wr_addr</text>
</g>
<!-- div2&#45;&gt;int_e -->
<g id="edge16" class="edge">
<title>div2&#45;&gt;int_e</title>
<path fill="none" stroke="#444444" d="M811.32,-173.1C809.52,-156.86 806.74,-131.78 804.2,-108.92"/>
<polygon fill="#444444" stroke="#444444" points="807.69,-108.64 803.11,-99.08 800.74,-109.41 807.69,-108.64"/>
<text xml:space="preserve" text-anchor="middle" x="824.34" y="-129" font-family="Helvetica,sans-Serif" font-size="10.00">wr_addr</text>
</g>
<!-- div2&#45;&gt;int_o -->
<g id="edge17" class="edge">
<title>div2&#45;&gt;int_o</title>
<path fill="none" stroke="#444444" d="M831.52,-173.1C849.42,-156.04 877.57,-129.24 902.5,-105.49"/>
<polygon fill="#444444" stroke="#444444" points="904.89,-108.05 909.71,-98.62 900.06,-102.99 904.89,-108.05"/>
<text xml:space="preserve" text-anchor="middle" x="897.24" y="-129" font-family="Helvetica,sans-Serif" font-size="10.00">wr_addr</text>
</g>
<!-- we_nat_e -->
<g id="node10" class="node">
<title>we_nat_e</title>
<polygon fill="#e2f0d9" stroke="#548235" points="543.51,-226.5 452.99,-226.5 420.75,-156.5 575.75,-156.5 543.51,-226.5"/>
<text xml:space="preserve" text-anchor="middle" x="498.25" y="-194.55" font-family="Helvetica,sans-Serif" font-size="11.00">MUX</text>
<text xml:space="preserve" text-anchor="middle" x="498.25" y="-181.05" font-family="Helvetica,sans-Serif" font-size="11.00">write NAT_E</text>
</g>
<!-- odd&#45;&gt;we_nat_e -->
<g id="edge10" class="edge">
<title>odd&#45;&gt;we_nat_e</title>
<path fill="none" stroke="#444444" d="M498.25,-280.94C498.25,-269.23 498.25,-253.25 498.25,-238.08"/>
<polygon fill="#444444" stroke="#444444" points="501.75,-238.25 498.25,-228.25 494.75,-238.25 501.75,-238.25"/>
<text xml:space="preserve" text-anchor="middle" x="504.62" y="-247" font-family="Helvetica,sans-Serif" font-size="10.00">sel</text>
</g>
<!-- we_nat_o -->
<g id="node11" class="node">
<title>we_nat_o</title>
<polygon fill="#e2f0d9" stroke="#548235" points="123.95,-226.5 32.55,-226.5 0,-156.5 156.5,-156.5 123.95,-226.5"/>
<text xml:space="preserve" text-anchor="middle" x="78.25" y="-194.55" font-family="Helvetica,sans-Serif" font-size="11.00">MUX</text>
<text xml:space="preserve" text-anchor="middle" x="78.25" y="-181.05" font-family="Helvetica,sans-Serif" font-size="11.00">write NAT_O</text>
</g>
<!-- odd&#45;&gt;we_nat_o -->
<g id="edge11" class="edge">
<title>odd&#45;&gt;we_nat_o</title>
<path fill="none" stroke="#444444" d="M458.52,-291.97C395.55,-281.26 269.31,-257.85 165.25,-226.5 157.15,-224.06 148.74,-221.2 140.49,-218.2"/>
<polygon fill="#444444" stroke="#444444" points="141.77,-214.94 131.18,-214.72 139.32,-221.5 141.77,-214.94"/>
<text xml:space="preserve" text-anchor="middle" x="280.25" y="-247" font-family="Helvetica,sans-Serif" font-size="10.00">sel</text>
</g>
<!-- we_int_e -->
<g id="node12" class="node">
<title>we_int_e</title>
<polygon fill="#e2f0d9" stroke="#548235" points="710.32,-226.5 624.18,-226.5 593.5,-156.5 741,-156.5 710.32,-226.5"/>
<text xml:space="preserve" text-anchor="middle" x="667.25" y="-194.55" font-family="Helvetica,sans-Serif" font-size="11.00">MUX</text>
<text xml:space="preserve" text-anchor="middle" x="667.25" y="-181.05" font-family="Helvetica,sans-Serif" font-size="11.00">write INT_E</text>
</g>
<!-- odd&#45;&gt;we_int_e -->
<g id="edge12" class="edge">
<title>odd&#45;&gt;we_int_e</title>
<path fill="none" stroke="#444444" d="M520.52,-287.13C536.09,-279.03 557.25,-267.62 575.25,-256.5 587.91,-248.68 601.22,-239.82 613.66,-231.23"/>
<polygon fill="#444444" stroke="#444444" points="615.53,-234.2 621.74,-225.61 611.53,-228.45 615.53,-234.2"/>
<text xml:space="preserve" text-anchor="middle" x="599.69" y="-247" font-family="Helvetica,sans-Serif" font-size="10.00">sel</text>
</g>
<!-- we_int_o -->
<g id="node13" class="node">
<title>we_int_o</title>
<polygon fill="#e2f0d9" stroke="#548235" points="1132.76,-226.5 1045.74,-226.5 1014.75,-156.5 1163.75,-156.5 1132.76,-226.5"/>
<text xml:space="preserve" text-anchor="middle" x="1089.25" y="-194.55" font-family="Helvetica,sans-Serif" font-size="11.00">MUX</text>
<text xml:space="preserve" text-anchor="middle" x="1089.25" y="-181.05" font-family="Helvetica,sans-Serif" font-size="11.00">write INT_O</text>
</g>
<!-- odd&#45;&gt;we_int_o -->
<g id="edge13" class="edge">
<title>odd&#45;&gt;we_int_o</title>
<path fill="none" stroke="#444444" d="M527.38,-289.21C544.15,-284.2 565.72,-278.28 585.25,-274.5 769.71,-238.81 823.17,-272.84 1005.25,-226.5 1013.31,-224.45 1021.62,-221.8 1029.73,-218.88"/>
<polygon fill="#444444" stroke="#444444" points="1030.71,-222.25 1038.83,-215.45 1028.24,-215.7 1030.71,-222.25"/>
<text xml:space="preserve" text-anchor="middle" x="924.29" y="-247" font-family="Helvetica,sans-Serif" font-size="10.00">sel</text>
</g>
<!-- range&#45;&gt;gate -->
<g id="edge5" class="edge">
<title>range&#45;&gt;gate</title>
<path fill="none" stroke="#444444" d="M673.75,-373.88C664.58,-361.52 651.47,-343.86 640.41,-328.96"/>
<polygon fill="#444444" stroke="#444444" points="643.52,-327.26 634.75,-321.32 637.9,-331.44 643.52,-327.26"/>
<text xml:space="preserve" text-anchor="middle" x="678.04" y="-344.87" font-family="Helvetica,sans-Serif" font-size="10.00">range_ok</text>
</g>
<!-- gate&#45;&gt;we_nat_e -->
<g id="edge6" class="edge">
<title>gate&#45;&gt;we_nat_e</title>
<path fill="none" stroke="#444444" d="M597.7,-286.36C584.73,-278.61 568.21,-267.9 555,-256.5 547.49,-250.02 540.03,-242.56 533.11,-235.07"/>
<polygon fill="#444444" stroke="#444444" points="536.14,-233.21 526.85,-228.11 530.93,-237.89 536.14,-233.21"/>
<text xml:space="preserve" text-anchor="middle" x="565.12" y="-247" font-family="Helvetica,sans-Serif" font-size="10.00">valid</text>
</g>
<!-- gate&#45;&gt;we_nat_o -->
<g id="edge7" class="edge">
<title>gate&#45;&gt;we_nat_o</title>
<path fill="none" stroke="#444444" d="M598.39,-285.81C590.47,-281.56 581.19,-277.21 572.25,-274.5 485.09,-248.09 253.6,-248.59 165.25,-226.5 157.05,-224.45 148.57,-221.82 140.28,-218.94"/>
<polygon fill="#444444" stroke="#444444" points="141.54,-215.68 130.95,-215.55 139.15,-222.25 141.54,-215.68"/>
<text xml:space="preserve" text-anchor="middle" x="463.78" y="-247" font-family="Helvetica,sans-Serif" font-size="10.00">valid</text>
</g>
<!-- gate&#45;&gt;we_int_e -->
<g id="edge8" class="edge">
<title>gate&#45;&gt;we_int_e</title>
<path fill="none" stroke="#444444" d="M629.31,-276.23C634.48,-264.82 640.97,-250.49 647.12,-236.94"/>
<polygon fill="#444444" stroke="#444444" points="650.15,-238.71 651.09,-228.16 643.78,-235.82 650.15,-238.71"/>
<text xml:space="preserve" text-anchor="middle" x="653.38" y="-247" font-family="Helvetica,sans-Serif" font-size="10.00">valid</text>
</g>
<!-- gate&#45;&gt;we_int_o -->
<g id="edge9" class="edge">
<title>gate&#45;&gt;we_int_o</title>
<path fill="none" stroke="#444444" d="M644.56,-297.13C717.63,-293.13 927.84,-279.84 992.25,-256.5 1007.82,-250.86 1023.37,-242.26 1037.32,-233.18"/>
<polygon fill="#444444" stroke="#444444" points="1039.12,-236.18 1045.45,-227.69 1035.2,-230.38 1039.12,-236.18"/>
<text xml:space="preserve" text-anchor="middle" x="1028.3" y="-247" font-family="Helvetica,sans-Serif" font-size="10.00">valid</text>
</g>
<!-- we_nat_e&#45;&gt;nat_e -->
<g id="edge24" class="edge">
<title>we_nat_e&#45;&gt;nat_e</title>
<path fill="none" stroke="#444444" d="M489.84,-156.02C487.1,-144.82 483.98,-132.01 480.89,-119.37"/>
<polygon fill="#444444" stroke="#444444" points="484.33,-118.7 478.56,-109.81 477.53,-120.36 484.33,-118.7"/>
<text xml:space="preserve" text-anchor="middle" x="510.96" y="-129" font-family="Helvetica,sans-Serif" font-size="10.00">enable even</text>
</g>
<!-- we_nat_o&#45;&gt;nat_o -->
<g id="edge25" class="edge">
<title>we_nat_o&#45;&gt;nat_o</title>
<path fill="none" stroke="#444444" d="M125.67,-156.02C143.14,-143.32 163.45,-128.54 183.06,-114.29"/>
<polygon fill="#444444" stroke="#444444" points="185.05,-117.16 191.08,-108.45 180.94,-111.5 185.05,-117.16"/>
<text xml:space="preserve" text-anchor="middle" x="189.3" y="-129" font-family="Helvetica,sans-Serif" font-size="10.00">enable odd</text>
</g>
<!-- we_int_e&#45;&gt;int_e -->
<g id="edge26" class="edge">
<title>we_int_e&#45;&gt;int_e</title>
<path fill="none" stroke="#444444" d="M700.65,-156.02C715.5,-140.69 733.28,-122.33 749.57,-105.51"/>
<polygon fill="#444444" stroke="#444444" points="751.93,-108.1 756.37,-98.49 746.9,-103.23 751.93,-108.1"/>
<text xml:space="preserve" text-anchor="middle" x="755.07" y="-129" font-family="Helvetica,sans-Serif" font-size="10.00">enable even</text>
</g>
<!-- we_int_o&#45;&gt;int_o -->
<g id="edge27" class="edge">
<title>we_int_o&#45;&gt;int_o</title>
<path fill="none" stroke="#444444" d="M1055.09,-156.02C1039.9,-140.69 1021.71,-122.33 1005.05,-105.51"/>
<polygon fill="#444444" stroke="#444444" points="1007.6,-103.11 998.07,-98.47 1002.63,-108.04 1007.6,-103.11"/>
<text xml:space="preserve" text-anchor="middle" x="1057.88" y="-129" font-family="Helvetica,sans-Serif" font-size="10.00">enable odd</text>
</g>
</g>
</svg>
