<?xml version="1.0" encoding="UTF-8" standalone="no"?>
<!DOCTYPE svg PUBLIC "-//W3C//DTD SVG 1.1//EN"
 "http://www.w3.org/Graphics/SVG/1.1/DTD/svg11.dtd">
<!-- Generated by graphviz version 14.1.2 (0)
 -->
<!-- Title: G Pages: 1 -->
<svg width="1327pt" height="457pt"
 viewBox="0.00 0.00 1327.00 457.00" xmlns="http://www.w3.org/2000/svg" xmlns:xlink="http://www.w3.org/1999/xlink">
<g id="graph0" class="graph" transform="scale(1 1) rotate(0) translate(4 453.25)">
<title>G</title>
<polygon fill="white" stroke="none" points="-4,4 -4,-453.25 1322.79,-453.25 1322.79,4 -4,4"/>
<text xml:space="preserve" text-anchor="middle" x="659.4" y="-426.25" font-family="Helvetica,sans-Serif" font-size="20.00">turbo_decoder_top &#45; Serializer</text>
<!-- idx -->
<g id="node1" class="node">
<title>idx</title>
<polygon fill="#d9ebf7" stroke="#1f4e79" points="630.93,-418 512.79,-418 482.4,-382 600.54,-382 630.93,-418"/>
<text xml:space="preserve" text-anchor="middle" x="556.67" y="-396.3" font-family="Helvetica,sans-Serif" font-size="11.00">ser_issue_idx</text>
</g>
<!-- cmp -->
<g id="node3" class="node">
<title>cmp</title>
<polygon fill="#fde9d9" stroke="#c55a11" points="214.67,-345 72.29,-327 214.67,-309 357.04,-327 214.67,-345"/>
<text xml:space="preserve" text-anchor="middle" x="214.67" y="-323.3" font-family="Helvetica,sans-Serif" font-size="11.00">ser_issue_idx &lt; frame_bits_i ?</text>
</g>
<!-- idx&#45;&gt;cmp -->
<g id="edge1" class="edge">
<title>idx&#45;&gt;cmp</title>
<path fill="none" stroke="#444444" d="M483.3,-383.77C422.3,-371.11 336.38,-353.27 278.26,-341.2"/>
<polygon fill="#444444" stroke="#444444" points="279.01,-337.78 268.51,-339.18 277.59,-344.64 279.01,-337.78"/>
</g>
<!-- div2 -->
<g id="node4" class="node">
<title>div2</title>
<path fill="#eef5fb" stroke="#1f4e79" d="M518.29,-345C518.29,-345 467.04,-345 467.04,-345 461.04,-345 455.04,-339 455.04,-333 455.04,-333 455.04,-321 455.04,-321 455.04,-315 461.04,-309 467.04,-309 467.04,-309 518.29,-309 518.29,-309 524.29,-309 530.29,-315 530.29,-321 530.29,-321 530.29,-333 530.29,-333 530.29,-339 524.29,-345 518.29,-345"/>
<text xml:space="preserve" text-anchor="middle" x="492.67" y="-330.05" font-family="Helvetica,sans-Serif" font-size="11.00">DIV2</text>
<text xml:space="preserve" text-anchor="middle" x="492.67" y="-316.55" font-family="Helvetica,sans-Serif" font-size="11.00">pair = idx / 2</text>
</g>
<!-- idx&#45;&gt;div2 -->
<g id="edge3" class="edge">
<title>idx&#45;&gt;div2</title>
<path fill="none" stroke="#444444" d="M541.17,-381.81C533.47,-373.27 524.01,-362.77 515.49,-353.32"/>
<polygon fill="#444444" stroke="#444444" points="518.32,-351.24 509.03,-346.15 513.12,-355.92 518.32,-351.24"/>
</g>
<!-- odd -->
<g id="node5" class="node">
<title>odd</title>
<polygon fill="#fde9d9" stroke="#c55a11" points="620.67,-345 568.21,-327 620.67,-309 673.12,-327 620.67,-345"/>
<text xml:space="preserve" text-anchor="middle" x="620.67" y="-323.3" font-family="Helvetica,sans-Serif" font-size="11.00">idx odd ?</text>
</g>
<!-- idx&#45;&gt;odd -->
<g id="edge4" class="edge">
<title>idx&#45;&gt;odd</title>
<path fill="none" stroke="#444444" d="M572.16,-381.81C580.86,-372.16 591.8,-360.03 601.08,-349.72"/>
<polygon fill="#444444" stroke="#444444" points="603.61,-352.15 607.71,-342.37 598.41,-347.46 603.61,-352.15"/>
</g>
<!-- pidx -->
<g id="node9" class="node">
<title>pidx</title>
<path fill="#eef5fb" stroke="#1f4e79" d="M1129.29,-345C1129.29,-345 1060.04,-345 1060.04,-345 1054.04,-345 1048.04,-339 1048.04,-333 1048.04,-333 1048.04,-321 1048.04,-321 1048.04,-315 1054.04,-309 1060.04,-309 1060.04,-309 1129.29,-309 1129.29,-309 1135.29,-309 1141.29,-315 1141.29,-321 1141.29,-321 1141.29,-333 1141.29,-333 1141.29,-339 1135.29,-345 1129.29,-345"/>
<text xml:space="preserve" text-anchor="middle" x="1094.67" y="-323.3" font-family="Helvetica,sans-Serif" font-size="11.00">ser_pipe_idx FF</text>
</g>
<!-- idx&#45;&gt;pidx -->
<g id="edge8" class="edge">
<title>idx&#45;&gt;pidx</title>
<path fill="none" stroke="#444444" d="M609.23,-392.06C710.28,-378.73 930.94,-349.61 1036.35,-335.7"/>
<polygon fill="#444444" stroke="#444444" points="1036.75,-339.17 1046.21,-334.4 1035.83,-332.23 1036.75,-339.17"/>
</g>
<!-- frame -->
<g id="node2" class="node">
<title>frame</title>
<polygon fill="#d9ebf7" stroke="#1f4e79" points="282.76,-418 174.44,-418 146.57,-382 254.89,-382 282.76,-418"/>
<text xml:space="preserve" text-anchor="middle" x="214.67" y="-396.3" font-family="Helvetica,sans-Serif" font-size="11.00">frame_bits_i</text>
</g>
<!-- frame&#45;&gt;cmp -->
<g id="edge2" class="edge">
<title>frame&#45;&gt;cmp</title>
<path fill="none" stroke="#444444" d="M214.67,-381.81C214.67,-374.23 214.67,-365.1 214.67,-356.54"/>
<polygon fill="#444444" stroke="#444444" points="218.17,-356.54 214.67,-346.54 211.17,-356.54 218.17,-356.54"/>
</g>
<!-- pvalid -->
<g id="node8" class="node">
<title>pvalid</title>
<path fill="#eef5fb" stroke="#1f4e79" d="M103.42,-244C103.42,-244 25.92,-244 25.92,-244 19.92,-244 13.92,-238 13.92,-232 13.92,-232 13.92,-220 13.92,-220 13.92,-214 19.92,-208 25.92,-208 25.92,-208 103.42,-208 103.42,-208 109.42,-208 115.42,-214 115.42,-220 115.42,-220 115.42,-232 115.42,-232 115.42,-238 109.42,-244 103.42,-244"/>
<text xml:space="preserve" text-anchor="middle" x="64.67" y="-222.3" font-family="Helvetica,sans-Serif" font-size="11.00">ser_pipe_valid FF</text>
</g>
<!-- cmp&#45;&gt;pvalid -->
<g id="edge7" class="edge">
<title>cmp&#45;&gt;pvalid</title>
<path fill="none" stroke="#444444" d="M192.53,-311.39C168.22,-295.35 128.84,-269.36 100.2,-250.45"/>
<polygon fill="#444444" stroke="#444444" points="102.47,-247.76 92.2,-245.17 98.61,-253.6 102.47,-247.76"/>
<text xml:space="preserve" text-anchor="middle" x="167.64" y="-281.5" font-family="Helvetica,sans-Serif" font-size="10.00">valid</text>
</g>
<!-- rdmuxe -->
<g id="node6" class="node">
<title>rdmuxe</title>
<polygon fill="#e2f0d9" stroke="#548235" points="312.95,-261 180.38,-261 133.17,-191 360.17,-191 312.95,-261"/>
<text xml:space="preserve" text-anchor="middle" x="246.67" y="-229.05" font-family="Helvetica,sans-Serif" font-size="11.00">MUX</text>
<text xml:space="preserve" text-anchor="middle" x="246.67" y="-215.55" font-family="Helvetica,sans-Serif" font-size="11.00">FINAL_NAT_E read</text>
</g>
<!-- div2&#45;&gt;rdmuxe -->
<g id="edge5" class="edge">
<title>div2&#45;&gt;rdmuxe</title>
<path fill="none" stroke="#444444" d="M454.77,-310.75C421.02,-297.17 370.52,-276.85 327.72,-259.62"/>
<polygon fill="#444444" stroke="#444444" points="329.29,-256.48 318.71,-255.99 326.68,-262.97 329.29,-256.48"/>
<text xml:space="preserve" text-anchor="middle" x="415.06" y="-281.5" font-family="Helvetica,sans-Serif" font-size="10.00">rd_addr</text>
</g>
<!-- rdmuxo -->
<g id="node7" class="node">
<title>rdmuxo</title>
<polygon fill="#e2f0d9" stroke="#548235" points="559.39,-261 425.94,-261 378.42,-191 606.92,-191 559.39,-261"/>
<text xml:space="preserve" text-anchor="middle" x="492.67" y="-229.05" font-family="Helvetica,sans-Serif" font-size="11.00">MUX</text>
<text xml:space="preserve" text-anchor="middle" x="492.67" y="-215.55" font-family="Helvetica,sans-Serif" font-size="11.00">FINAL_NAT_O read</text>
</g>
<!-- div2&#45;&gt;rdmuxo -->
<g id="edge6" class="edge">
<title>div2&#45;&gt;rdmuxo</title>
<path fill="none" stroke="#444444" d="M492.67,-308.76C492.67,-298.64 492.67,-285.35 492.67,-272.43"/>
<polygon fill="#444444" stroke="#444444" points="496.17,-272.77 492.67,-262.77 489.17,-272.77 496.17,-272.77"/>
<text xml:space="preserve" text-anchor="middle" x="508.79" y="-281.5" font-family="Helvetica,sans-Serif" font-size="10.00">rd_addr</text>
</g>
<!-- podd -->
<g id="node10" class="node">
<title>podd</title>
<path fill="#eef5fb" stroke="#1f4e79" d="M724.29,-244C724.29,-244 637.04,-244 637.04,-244 631.04,-244 625.04,-238 625.04,-232 625.04,-232 625.04,-220 625.04,-220 625.04,-214 631.04,-208 637.04,-208 637.04,-208 724.29,-208 724.29,-208 730.29,-208 736.29,-214 736.29,-220 736.29,-220 736.29,-232 736.29,-232 736.29,-238 730.29,-244 724.29,-244"/>
<text xml:space="preserve" text-anchor="middle" x="680.67" y="-222.3" font-family="Helvetica,sans-Serif" font-size="11.00">ser_pipe_is_odd FF</text>
</g>
<!-- odd&#45;&gt;podd -->
<g id="edge9" class="edge">
<title>odd&#45;&gt;podd</title>
<path fill="none" stroke="#444444" d="M629.26,-311.82C638.34,-296.84 652.87,-272.86 664.17,-254.22"/>
<polygon fill="#444444" stroke="#444444" points="667.09,-256.16 669.28,-245.79 661.1,-252.53 667.09,-256.16"/>
</g>
<!-- outv -->
<g id="node16" class="node">
<title>outv</title>
<polygon fill="#fce4d6" stroke="#c55a11" points="129.33,-126 26.46,-126 0,-90 102.87,-90 129.33,-126"/>
<text xml:space="preserve" text-anchor="middle" x="64.67" y="-104.3" font-family="Helvetica,sans-Serif" font-size="11.00">out_valid_q</text>
</g>
<!-- pvalid&#45;&gt;outv -->
<g id="edge11" class="edge">
<title>pvalid&#45;&gt;outv</title>
<path fill="none" stroke="#444444" d="M64.67,-207.63C64.67,-189.18 64.67,-159.7 64.67,-137.77"/>
<polygon fill="#444444" stroke="#444444" points="68.17,-138 64.67,-128 61.17,-138 68.17,-138"/>
</g>
<!-- outidx -->
<g id="node15" class="node">
<title>outidx</title>
<polygon fill="#d9ebf7" stroke="#1f4e79" points="1318.79,-244 1227.92,-244 1204.54,-208 1295.41,-208 1318.79,-244"/>
<text xml:space="preserve" text-anchor="middle" x="1261.67" y="-222.3" font-family="Helvetica,sans-Serif" font-size="11.00">out_idx_q</text>
</g>
<!-- pidx&#45;&gt;outidx -->
<g id="edge10" class="edge">
<title>pidx&#45;&gt;outidx</title>
<path fill="none" stroke="#444444" d="M1124.14,-308.53C1151.48,-292.32 1192.36,-268.08 1222.45,-250.25"/>
<polygon fill="#444444" stroke="#444444" points="1224.09,-253.34 1230.91,-245.23 1220.52,-247.32 1224.09,-253.34"/>
</g>
<!-- outmux -->
<g id="node13" class="node">
<title>outmux</title>
<polygon fill="#e2f0d9" stroke="#548235" points="890.66,-143 824.67,-143 801.17,-73 914.17,-73 890.66,-143"/>
<text xml:space="preserve" text-anchor="middle" x="857.67" y="-111.05" font-family="Helvetica,sans-Serif" font-size="11.00">MUX</text>
<text xml:space="preserve" text-anchor="middle" x="857.67" y="-97.55" font-family="Helvetica,sans-Serif" font-size="11.00">l_post_q</text>
</g>
<!-- podd&#45;&gt;outmux -->
<g id="edge14" class="edge">
<title>podd&#45;&gt;outmux</title>
<path fill="none" stroke="#444444" d="M707.16,-207.63C734.73,-189.57 778.41,-160.94 811.63,-139.17"/>
<polygon fill="#444444" stroke="#444444" points="813.43,-142.18 819.87,-133.77 809.59,-136.32 813.43,-142.18"/>
<text xml:space="preserve" text-anchor="middle" x="780.85" y="-163.5" font-family="Helvetica,sans-Serif" font-size="10.00">sel</text>
</g>
<!-- poste -->
<g id="node11" class="node">
<title>poste</title>
<polygon fill="#d9ebf7" stroke="#1f4e79" points="960.72,-244 796.78,-244 754.61,-208 918.55,-208 960.72,-244"/>
<text xml:space="preserve" text-anchor="middle" x="857.67" y="-222.3" font-family="Helvetica,sans-Serif" font-size="11.00">FINAL_NAT_E data</text>
</g>
<!-- poste&#45;&gt;outmux -->
<g id="edge12" class="edge">
<title>poste&#45;&gt;outmux</title>
<path fill="none" stroke="#444444" d="M857.67,-207.63C857.67,-193.61 857.67,-173.21 857.67,-154.6"/>
<polygon fill="#444444" stroke="#444444" points="861.17,-154.82 857.67,-144.82 854.17,-154.82 861.17,-154.82"/>
<text xml:space="preserve" text-anchor="middle" x="864.04" y="-163.5" font-family="Helvetica,sans-Serif" font-size="10.00">in0</text>
</g>
<!-- posto -->
<g id="node12" class="node">
<title>posto</title>
<polygon fill="#d9ebf7" stroke="#1f4e79" points="1186.4,-244 1021.38,-244 978.93,-208 1143.95,-208 1186.4,-244"/>
<text xml:space="preserve" text-anchor="middle" x="1082.67" y="-222.3" font-family="Helvetica,sans-Serif" font-size="11.00">FINAL_NAT_O data</text>
</g>
<!-- posto&#45;&gt;outmux -->
<g id="edge13" class="edge">
<title>posto&#45;&gt;outmux</title>
<path fill="none" stroke="#444444" d="M1048.98,-207.63C1010.96,-188.03 948.8,-155.99 905.7,-133.77"/>
<polygon fill="#444444" stroke="#444444" points="907.56,-130.79 897.07,-129.32 904.35,-137.01 907.56,-130.79"/>
<text xml:space="preserve" text-anchor="middle" x="983.29" y="-163.5" font-family="Helvetica,sans-Serif" font-size="10.00">in1</text>
</g>
<!-- lpost -->
<g id="node14" class="node">
<title>lpost</title>
<polygon fill="#d9ebf7" stroke="#1f4e79" points="909.31,-36 827.16,-36 806.02,0 888.17,0 909.31,-36"/>
<text xml:space="preserve" text-anchor="middle" x="857.67" y="-14.3" font-family="Helvetica,sans-Serif" font-size="11.00">l_post_q</text>
</g>
<!-- outmux&#45;&gt;lpost -->
<g id="edge15" class="edge">
<title>outmux&#45;&gt;lpost</title>
<path fill="none" stroke="#444444" d="M857.67,-72.72C857.67,-64.39 857.67,-55.57 857.67,-47.54"/>
<polygon fill="#444444" stroke="#444444" points="861.17,-47.63 857.67,-37.63 854.17,-47.63 861.17,-47.63"/>
</g>
</g>
</svg>
