<?xml version="1.0" encoding="UTF-8" standalone="no"?>
<!DOCTYPE svg PUBLIC "-//W3C//DTD SVG 1.1//EN"
 "http://www.w3.org/Graphics/SVG/1.1/DTD/svg11.dtd">
<!-- Generated by graphviz version 14.1.2 (0)
 -->
<!-- Title: G Pages: 1 -->
<svg width="1054pt" height="395pt"
 viewBox="0.00 0.00 1054.00 395.00" xmlns="http://www.w3.org/2000/svg" xmlns:xlink="http://www.w3.org/1999/xlink">
<g id="graph0" class="graph" transform="scale(1 1) rotate(0) translate(4 391.25)">
<title>G</title>
<polygon fill="white" stroke="none" points="-4,4 -4,-391.25 1050.36,-391.25 1050.36,4 -4,4"/>
<text xml:space="preserve" text-anchor="middle" x="523.18" y="-364.25" font-family="Helvetica,sans-Serif" font-size="20.00">turbo_decoder_top &#45; Permutation&#45;Copy Engine</text>
<!-- srcodd -->
<g id="node1" class="node">
<title>srcodd</title>
<polygon fill="#fce4d6" stroke="#c55a11" points="744.25,-356 589.04,-356 549.11,-320 704.32,-320 744.25,-356"/>
<text xml:space="preserve" text-anchor="middle" x="646.68" y="-334.3" font-family="Helvetica,sans-Serif" font-size="11.00">perm_req_src_odd</text>
</g>
<!-- src_mux -->
<g id="node7" class="node">
<title>src_mux</title>
<polygon fill="#e2f0d9" stroke="#548235" points="518.63,-272 430.73,-272 399.43,-202 549.93,-202 518.63,-272"/>
<text xml:space="preserve" text-anchor="middle" x="474.68" y="-240.05" font-family="Helvetica,sans-Serif" font-size="11.00">MUX</text>
<text xml:space="preserve" text-anchor="middle" x="474.68" y="-226.55" font-family="Helvetica,sans-Serif" font-size="11.00">source_data</text>
</g>
<!-- srcodd&#45;&gt;src_mux -->
<g id="edge1" class="edge">
<title>srcodd&#45;&gt;src_mux</title>
<path fill="none" stroke="#444444" d="M616.33,-319.53C592.95,-306.07 559.95,-287.08 531.69,-270.81"/>
<polygon fill="#444444" stroke="#444444" points="533.64,-267.9 523.23,-265.94 530.15,-273.96 533.64,-267.9"/>
<text xml:space="preserve" text-anchor="middle" x="587.52" y="-292.5" font-family="Helvetica,sans-Serif" font-size="10.00">sel</text>
</g>
<!-- psrc -->
<g id="node9" class="node">
<title>psrc</title>
<path fill="#eef5fb" stroke="#1f4e79" d="M683.56,-255C683.56,-255 579.81,-255 579.81,-255 573.81,-255 567.81,-249 567.81,-243 567.81,-243 567.81,-231 567.81,-231 567.81,-225 573.81,-219 579.81,-219 579.81,-219 683.56,-219 683.56,-219 689.56,-219 695.56,-225 695.56,-231 695.56,-231 695.56,-243 695.56,-243 695.56,-249 689.56,-255 683.56,-255"/>
<text xml:space="preserve" text-anchor="middle" x="631.68" y="-233.3" font-family="Helvetica,sans-Serif" font-size="11.00">perm_pipe_src_odd FF</text>
</g>
<!-- srcodd&#45;&gt;psrc -->
<g id="edge5" class="edge">
<title>srcodd&#45;&gt;psrc</title>
<path fill="none" stroke="#444444" d="M644.07,-319.76C641.85,-305.08 638.61,-283.71 636,-266.5"/>
<polygon fill="#444444" stroke="#444444" points="639.5,-266.24 634.54,-256.88 632.58,-267.29 639.5,-266.24"/>
</g>
<!-- dstodd -->
<g id="node2" class="node">
<title>dstodd</title>
<polygon fill="#fce4d6" stroke="#c55a11" points="203.36,-356 41.61,-356 0,-320 161.75,-320 203.36,-356"/>
<text xml:space="preserve" text-anchor="middle" x="101.68" y="-334.3" font-family="Helvetica,sans-Serif" font-size="11.00">perm_pipe_dst_odd</text>
</g>
<!-- pdst -->
<g id="node10" class="node">
<title>pdst</title>
<path fill="#eef5fb" stroke="#1f4e79" d="M369.56,-255C369.56,-255 265.81,-255 265.81,-255 259.81,-255 253.81,-249 253.81,-243 253.81,-243 253.81,-231 253.81,-231 253.81,-225 259.81,-219 265.81,-219 265.81,-219 369.56,-219 369.56,-219 375.56,-219 381.56,-225 381.56,-231 381.56,-231 381.56,-243 381.56,-243 381.56,-249 375.56,-255 369.56,-255"/>
<text xml:space="preserve" text-anchor="middle" x="317.68" y="-233.3" font-family="Helvetica,sans-Serif" font-size="11.00">perm_pipe_dst_odd FF</text>
</g>
<!-- dstodd&#45;&gt;pdst -->
<g id="edge6" class="edge">
<title>dstodd&#45;&gt;pdst</title>
<path fill="none" stroke="#444444" d="M139.8,-319.53C175.86,-303 230.12,-278.13 269.23,-260.21"/>
<polygon fill="#444444" stroke="#444444" points="270.57,-263.44 278.21,-256.09 267.66,-257.08 270.57,-263.44"/>
</g>
<!-- dstpair -->
<g id="node3" class="node">
<title>dstpair</title>
<polygon fill="#d9ebf7" stroke="#1f4e79" points="1046.36,-255 884.61,-255 843,-219 1004.75,-219 1046.36,-255"/>
<text xml:space="preserve" text-anchor="middle" x="944.68" y="-233.3" font-family="Helvetica,sans-Serif" font-size="11.00">perm_pipe_dst_pair</text>
</g>
<!-- ppair -->
<g id="node11" class="node">
<title>ppair</title>
<path fill="#eef5fb" stroke="#1f4e79" d="M881.56,-137C881.56,-137 777.81,-137 777.81,-137 771.81,-137 765.81,-131 765.81,-125 765.81,-125 765.81,-113 765.81,-113 765.81,-107 771.81,-101 777.81,-101 777.81,-101 881.56,-101 881.56,-101 887.56,-101 893.56,-107 893.56,-113 893.56,-113 893.56,-125 893.56,-125 893.56,-131 887.56,-137 881.56,-137"/>
<text xml:space="preserve" text-anchor="middle" x="829.68" y="-115.3" font-family="Helvetica,sans-Serif" font-size="11.00">perm_pipe_dst_pair FF</text>
</g>
<!-- dstpair&#45;&gt;ppair -->
<g id="edge7" class="edge">
<title>dstpair&#45;&gt;ppair</title>
<path fill="none" stroke="#444444" d="M927.47,-218.63C908.24,-199.24 876.95,-167.67 854.95,-145.49"/>
<polygon fill="#444444" stroke="#444444" points="857.61,-143.2 848.08,-138.56 852.64,-148.13 857.61,-143.2"/>
</g>
<!-- validreq -->
<g id="node4" class="node">
<title>validreq</title>
<polygon fill="#fce4d6" stroke="#c55a11" points="927.17,-356 795.95,-356 762.19,-320 893.41,-320 927.17,-356"/>
<text xml:space="preserve" text-anchor="middle" x="844.68" y="-334.3" font-family="Helvetica,sans-Serif" font-size="11.00">perm_req_valid</text>
</g>
<!-- pvalid -->
<g id="node8" class="node">
<title>pvalid</title>
<path fill="#eef5fb" stroke="#1f4e79" d="M813.31,-255C813.31,-255 726.06,-255 726.06,-255 720.06,-255 714.06,-249 714.06,-243 714.06,-243 714.06,-231 714.06,-231 714.06,-225 720.06,-219 726.06,-219 726.06,-219 813.31,-219 813.31,-219 819.31,-219 825.31,-225 825.31,-231 825.31,-231 825.31,-243 825.31,-243 825.31,-249 819.31,-255 813.31,-255"/>
<text xml:space="preserve" text-anchor="middle" x="769.68" y="-233.3" font-family="Helvetica,sans-Serif" font-size="11.00">perm_pipe_valid FF</text>
</g>
<!-- validreq&#45;&gt;pvalid -->
<g id="edge4" class="edge">
<title>validreq&#45;&gt;pvalid</title>
<path fill="none" stroke="#444444" d="M831.62,-319.76C820.07,-304.52 803.06,-282.06 789.78,-264.53"/>
<polygon fill="#444444" stroke="#444444" points="792.59,-262.44 783.76,-256.59 787.01,-266.67 792.59,-262.44"/>
</g>
<!-- src_even -->
<g id="node5" class="node">
<title>src_even</title>
<polygon fill="#d9ebf7" stroke="#1f4e79" points="531.57,-356 415.62,-356 385.79,-320 501.74,-320 531.57,-356"/>
<text xml:space="preserve" text-anchor="middle" x="458.68" y="-334.3" font-family="Helvetica,sans-Serif" font-size="11.00">SRC_E bank</text>
</g>
<!-- src_even&#45;&gt;src_mux -->
<g id="edge2" class="edge">
<title>src_even&#45;&gt;src_mux</title>
<path fill="none" stroke="#444444" d="M461.47,-319.76C463.1,-309.64 465.25,-296.35 467.34,-283.43"/>
<polygon fill="#444444" stroke="#444444" points="470.76,-284.19 468.9,-273.75 463.85,-283.07 470.76,-284.19"/>
<text xml:space="preserve" text-anchor="middle" x="472.58" y="-292.5" font-family="Helvetica,sans-Serif" font-size="10.00">in0</text>
</g>
<!-- src_odd -->
<g id="node6" class="node">
<title>src_odd</title>
<polygon fill="#d9ebf7" stroke="#1f4e79" points="368.26,-356 251.21,-356 221.11,-320 338.15,-320 368.26,-356"/>
<text xml:space="preserve" text-anchor="middle" x="294.68" y="-334.3" font-family="Helvetica,sans-Serif" font-size="11.00">SRC_O bank</text>
</g>
<!-- src_odd&#45;&gt;src_mux -->
<g id="edge3" class="edge">
<title>src_odd&#45;&gt;src_mux</title>
<path fill="none" stroke="#444444" d="M326.45,-319.53C351.47,-305.76 387.03,-286.21 417.04,-269.7"/>
<polygon fill="#444444" stroke="#444444" points="418.59,-272.85 425.66,-264.96 415.21,-266.71 418.59,-272.85"/>
<text xml:space="preserve" text-anchor="middle" x="385.66" y="-292.5" font-family="Helvetica,sans-Serif" font-size="10.00">in1</text>
</g>
<!-- dst_mux_e -->
<g id="node12" class="node">
<title>dst_mux_e</title>
<polygon fill="#e2f0d9" stroke="#548235" points="526.51,-154 422.85,-154 385.93,-84 563.43,-84 526.51,-154"/>
<text xml:space="preserve" text-anchor="middle" x="474.68" y="-122.05" font-family="Helvetica,sans-Serif" font-size="11.00">MUX</text>
<text xml:space="preserve" text-anchor="middle" x="474.68" y="-108.55" font-family="Helvetica,sans-Serif" font-size="11.00">dst_even_write</text>
</g>
<!-- src_mux&#45;&gt;dst_mux_e -->
<g id="edge12" class="edge">
<title>src_mux&#45;&gt;dst_mux_e</title>
<path fill="none" stroke="#444444" d="M474.68,-201.51C474.68,-190.17 474.68,-177.39 474.68,-165.38"/>
<polygon fill="#444444" stroke="#444444" points="478.18,-165.67 474.68,-155.67 471.18,-165.67 478.18,-165.67"/>
<text xml:space="preserve" text-anchor="middle" x="484.06" y="-174.5" font-family="Helvetica,sans-Serif" font-size="10.00">data</text>
</g>
<!-- dst_mux_o -->
<g id="node13" class="node">
<title>dst_mux_o</title>
<polygon fill="#e2f0d9" stroke="#548235" points="713.45,-154 615.92,-154 581.18,-84 748.18,-84 713.45,-154"/>
<text xml:space="preserve" text-anchor="middle" x="664.68" y="-122.05" font-family="Helvetica,sans-Serif" font-size="11.00">MUX</text>
<text xml:space="preserve" text-anchor="middle" x="664.68" y="-108.55" font-family="Helvetica,sans-Serif" font-size="11.00">dst_odd_write</text>
</g>
<!-- src_mux&#45;&gt;dst_mux_o -->
<g id="edge13" class="edge">
<title>src_mux&#45;&gt;dst_mux_o</title>
<path fill="none" stroke="#444444" d="M548.39,-206.41C562.47,-199.72 576.82,-192.16 589.68,-184 599.97,-177.47 610.34,-169.62 619.95,-161.69"/>
<polygon fill="#444444" stroke="#444444" points="622.01,-164.53 627.38,-155.4 617.48,-159.19 622.01,-164.53"/>
<text xml:space="preserve" text-anchor="middle" x="614.55" y="-174.5" font-family="Helvetica,sans-Serif" font-size="10.00">data</text>
</g>
<!-- pvalid&#45;&gt;dst_mux_e -->
<g id="edge8" class="edge">
<title>pvalid&#45;&gt;dst_mux_e</title>
<path fill="none" stroke="#444444" d="M737.96,-218.51C727.49,-212.98 715.7,-207.01 704.68,-202 647.86,-176.16 631.84,-173.94 572.68,-154 563.57,-150.93 553.99,-147.66 544.54,-144.41"/>
<polygon fill="#444444" stroke="#444444" points="545.99,-141.2 535.39,-141.25 543.7,-147.82 545.99,-141.2"/>
<text xml:space="preserve" text-anchor="middle" x="670.04" y="-174.5" font-family="Helvetica,sans-Serif" font-size="10.00">valid</text>
</g>
<!-- pvalid&#45;&gt;dst_mux_o -->
<g id="edge9" class="edge">
<title>pvalid&#45;&gt;dst_mux_o</title>
<path fill="none" stroke="#444444" d="M755.23,-218.66C744.29,-205.65 728.78,-187.5 714.68,-172 711.91,-168.95 709.02,-165.82 706.09,-162.69"/>
<polygon fill="#444444" stroke="#444444" points="708.75,-160.4 699.34,-155.53 703.66,-165.21 708.75,-160.4"/>
<text xml:space="preserve" text-anchor="middle" x="734.03" y="-174.5" font-family="Helvetica,sans-Serif" font-size="10.00">valid</text>
</g>
<!-- pdst&#45;&gt;dst_mux_e -->
<g id="edge10" class="edge">
<title>pdst&#45;&gt;dst_mux_e</title>
<path fill="none" stroke="#444444" d="M341.19,-218.63C361.78,-203.42 392.53,-180.7 419.33,-160.9"/>
<polygon fill="#444444" stroke="#444444" points="421.06,-163.97 427.03,-155.21 416.9,-158.34 421.06,-163.97"/>
<text xml:space="preserve" text-anchor="middle" x="407.26" y="-174.5" font-family="Helvetica,sans-Serif" font-size="10.00">sel</text>
</g>
<!-- pdst&#45;&gt;dst_mux_o -->
<g id="edge11" class="edge">
<title>pdst&#45;&gt;dst_mux_o</title>
<path fill="none" stroke="#444444" d="M350,-218.66C362.43,-212.61 376.93,-206.27 390.68,-202 436.73,-187.69 451.16,-196.69 497.68,-184 532.25,-174.57 569.58,-160.64 600.17,-148.18"/>
<polygon fill="#444444" stroke="#444444" points="601.38,-151.47 609.29,-144.42 598.71,-144.99 601.38,-151.47"/>
<text xml:space="preserve" text-anchor="middle" x="541.49" y="-174.5" font-family="Helvetica,sans-Serif" font-size="10.00">sel</text>
</g>
<!-- dst_even -->
<g id="node14" class="node">
<title>dst_even</title>
<polygon fill="#d9ebf7" stroke="#1f4e79" points="631.2,-36 517.43,-36 488.16,0 601.93,0 631.2,-36"/>
<text xml:space="preserve" text-anchor="middle" x="559.68" y="-14.3" font-family="Helvetica,sans-Serif" font-size="11.00">DST_E bank</text>
</g>
<!-- ppair&#45;&gt;dst_even -->
<g id="edge14" class="edge">
<title>ppair&#45;&gt;dst_even</title>
<path fill="none" stroke="#444444" d="M807.03,-100.63C784.77,-83.85 752.1,-60.11 737.68,-54 732.83,-51.94 684.32,-42.45 639.17,-33.88"/>
<polygon fill="#444444" stroke="#444444" points="640.06,-30.48 629.58,-32.06 638.75,-37.36 640.06,-30.48"/>
<text xml:space="preserve" text-anchor="middle" x="775.54" y="-56.5" font-family="Helvetica,sans-Serif" font-size="10.00">wr_addr</text>
</g>
<!-- dst_odd -->
<g id="node15" class="node">
<title>dst_odd</title>
<polygon fill="#d9ebf7" stroke="#1f4e79" points="805.89,-36 691.02,-36 661.48,0 776.34,0 805.89,-36"/>
<text xml:space="preserve" text-anchor="middle" x="733.68" y="-14.3" font-family="Helvetica,sans-Serif" font-size="11.00">DST_O bank</text>
</g>
<!-- ppair&#45;&gt;dst_odd -->
<g id="edge15" class="edge">
<title>ppair&#45;&gt;dst_odd</title>
<path fill="none" stroke="#444444" d="M824.63,-100.77C819.82,-86.78 811.41,-67.28 798.68,-54 794.53,-49.66 789.71,-45.74 784.62,-42.22"/>
<polygon fill="#444444" stroke="#444444" points="786.85,-39.49 776.52,-37.14 783.13,-45.42 786.85,-39.49"/>
<text xml:space="preserve" text-anchor="middle" x="824.38" y="-56.5" font-family="Helvetica,sans-Serif" font-size="10.00">wr_addr</text>
</g>
<!-- dst_mux_e&#45;&gt;dst_even -->
<g id="edge16" class="edge">
<title>dst_mux_e&#45;&gt;dst_even</title>
<path fill="none" stroke="#444444" d="M504.17,-83.65C515.1,-70.92 527.3,-56.72 537.47,-44.87"/>
<polygon fill="#444444" stroke="#444444" points="539.95,-47.35 543.81,-37.48 534.64,-42.79 539.95,-47.35"/>
<text xml:space="preserve" text-anchor="middle" x="553.55" y="-56.5" font-family="Helvetica,sans-Serif" font-size="10.00">enable/write</text>
</g>
<!-- dst_mux_o&#45;&gt;dst_odd -->
<g id="edge17" class="edge">
<title>dst_mux_o&#45;&gt;dst_odd</title>
<path fill="none" stroke="#444444" d="M671.38,-83.55C674.46,-73.4 678.88,-62.69 685.18,-54 687.93,-50.22 691.21,-46.68 694.74,-43.43"/>
<polygon fill="#444444" stroke="#444444" points="696.68,-46.37 702.18,-37.31 692.23,-40.96 696.68,-46.37"/>
<text xml:space="preserve" text-anchor="middle" x="711.43" y="-56.5" font-family="Helvetica,sans-Serif" font-size="10.00">enable/write</text>
</g>
</g>
</svg>
