<?xml version="1.0" encoding="UTF-8" standalone="no"?>
<!DOCTYPE svg PUBLIC "-//W3C//DTD SVG 1.1//EN"
 "http://www.w3.org/Graphics/SVG/1.1/DTD/svg11.dtd">
<!-- Generated by graphviz version 14.1.2 (0)
 -->
<!-- Title: G Pages: 1 -->
<svg width="1136pt" height="618pt"
 viewBox="0.00 0.00 1136.00 618.00" xmlns="http://www.w3.org/2000/svg" xmlns:xlink="http://www.w3.org/1999/xlink">
<g id="graph0" class="graph" transform="scale(1 1) rotate(0) translate(4 613.75)">
<title>G</title>
<polygon fill="white" stroke="none" points="-4,4 -4,-613.75 1131.88,-613.75 1131.88,4 -4,4"/>
<text xml:space="preserve" text-anchor="middle" x="563.94" y="-586.75" font-family="Helvetica,sans-Serif" font-size="20.00">turbo_decoder_top &#45; Control FSM</text>
<!-- IDLE -->
<g id="node1" class="node">
<title>IDLE</title>
<path fill="#d0e0e3" stroke="#555555" d="M1023.5,-578.5C1023.5,-578.5 906.25,-578.5 906.25,-578.5 900.25,-578.5 894.25,-572.5 894.25,-566.5 894.25,-566.5 894.25,-554.5 894.25,-554.5 894.25,-548.5 900.25,-542.5 906.25,-542.5 906.25,-542.5 1023.5,-542.5 1023.5,-542.5 1029.5,-542.5 1035.5,-548.5 1035.5,-554.5 1035.5,-554.5 1035.5,-566.5 1035.5,-566.5 1035.5,-572.5 1029.5,-578.5 1023.5,-578.5"/>
<text xml:space="preserve" text-anchor="middle" x="964.88" y="-563.55" font-family="Helvetica,sans-Serif" font-size="11.00">ST_IDLE</text>
<text xml:space="preserve" text-anchor="middle" x="964.88" y="-550.05" font-family="Helvetica,sans-Serif" font-size="11.00">scalar load still active here</text>
</g>
<!-- BUILD -->
<g id="node2" class="node">
<title>BUILD</title>
<path fill="#fff2cc" stroke="#555555" d="M785,-494.5C785,-494.5 646.75,-494.5 646.75,-494.5 640.75,-494.5 634.75,-488.5 634.75,-482.5 634.75,-482.5 634.75,-470.5 634.75,-470.5 634.75,-464.5 640.75,-458.5 646.75,-458.5 646.75,-458.5 785,-458.5 785,-458.5 791,-458.5 797,-464.5 797,-470.5 797,-470.5 797,-482.5 797,-482.5 797,-488.5 791,-494.5 785,-494.5"/>
<text xml:space="preserve" text-anchor="middle" x="715.88" y="-479.55" font-family="Helvetica,sans-Serif" font-size="11.00">ST_BUILD_SYS_INT</text>
<text xml:space="preserve" text-anchor="middle" x="715.88" y="-466.05" font-family="Helvetica,sans-Serif" font-size="11.00">QPP&#45;copy NAT sys &#45;&gt; INT sys</text>
</g>
<!-- IDLE&#45;&gt;BUILD -->
<g id="edge1" class="edge">
<title>IDLE&#45;&gt;BUILD</title>
<path fill="none" stroke="#444444" d="M894.01,-549.71C863.77,-544.25 828.47,-536.14 797.88,-524.5 781.83,-518.4 765.21,-509.43 751.16,-500.97"/>
<polygon fill="#444444" stroke="#444444" points="753.06,-498.03 742.71,-495.73 749.37,-503.98 753.06,-498.03"/>
<text xml:space="preserve" text-anchor="middle" x="874.38" y="-515" font-family="Helvetica,sans-Serif" font-size="10.00">start &amp; frame_bits&gt;0 &amp; half_total&gt;0</text>
</g>
<!-- FIN -->
<g id="node9" class="node">
<title>FIN</title>
<path fill="#ead1dc" stroke="#555555" d="M991.62,-36C991.62,-36 938.12,-36 938.12,-36 932.12,-36 926.12,-30 926.12,-24 926.12,-24 926.12,-12 926.12,-12 926.12,-6 932.12,0 938.12,0 938.12,0 991.62,0 991.62,0 997.62,0 1003.62,-6 1003.62,-12 1003.62,-12 1003.62,-24 1003.62,-24 1003.62,-30 997.62,-36 991.62,-36"/>
<text xml:space="preserve" text-anchor="middle" x="964.88" y="-21.05" font-family="Helvetica,sans-Serif" font-size="11.00">ST_FINISH</text>
<text xml:space="preserve" text-anchor="middle" x="964.88" y="-7.55" font-family="Helvetica,sans-Serif" font-size="11.00">done_q &lt;= 1</text>
</g>
<!-- IDLE&#45;&gt;FIN -->
<g id="edge2" class="edge">
<title>IDLE&#45;&gt;FIN</title>
<path fill="none" stroke="#444444" d="M964.88,-542.22C964.88,-525.63 964.88,-499.85 964.88,-477.5 964.88,-477.5 964.88,-477.5 964.88,-101 964.88,-83.19 964.88,-63.2 964.88,-47.42"/>
<polygon fill="#444444" stroke="#444444" points="968.38,-47.79 964.88,-37.79 961.38,-47.79 968.38,-47.79"/>
<text xml:space="preserve" text-anchor="middle" x="1032.38" y="-279.5" font-family="Helvetica,sans-Serif" font-size="10.00">start &amp; invalid K or half_total=0</text>
</g>
<!-- START -->
<g id="node3" class="node">
<title>START</title>
<path fill="#e8f0fe" stroke="#555555" d="M434,-410.5C434,-410.5 355.75,-410.5 355.75,-410.5 349.75,-410.5 343.75,-404.5 343.75,-398.5 343.75,-398.5 343.75,-374 343.75,-374 343.75,-368 349.75,-362 355.75,-362 355.75,-362 434,-362 434,-362 440,-362 446,-368 446,-374 446,-374 446,-398.5 446,-398.5 446,-404.5 440,-410.5 434,-410.5"/>
<text xml:space="preserve" text-anchor="middle" x="394.88" y="-396.05" font-family="Helvetica,sans-Serif" font-size="11.00">ST_START_RUN</text>
<text xml:space="preserve" text-anchor="middle" x="394.88" y="-382.55" font-family="Helvetica,sans-Serif" font-size="11.00">run_active &lt;= 1</text>
<text xml:space="preserve" text-anchor="middle" x="394.88" y="-369.05" font-family="Helvetica,sans-Serif" font-size="11.00">siso_start_q &lt;= 1</text>
</g>
<!-- BUILD&#45;&gt;START -->
<g id="edge3" class="edge">
<title>BUILD&#45;&gt;START</title>
<path fill="none" stroke="#444444" d="M652.46,-458.06C595.84,-442.5 513.42,-419.84 457.16,-404.37"/>
<polygon fill="#444444" stroke="#444444" points="458.3,-401.06 447.73,-401.78 456.44,-407.81 458.3,-401.06"/>
<text xml:space="preserve" text-anchor="middle" x="624.25" y="-431" font-family="Helvetica,sans-Serif" font-size="10.00">perm copy drained</text>
</g>
<!-- WAIT -->
<g id="node4" class="node">
<title>WAIT</title>
<path fill="#d9ead3" stroke="#555555" d="M432.25,-314C432.25,-314 313.5,-314 313.5,-314 307.5,-314 301.5,-308 301.5,-302 301.5,-302 301.5,-264 301.5,-264 301.5,-258 307.5,-252 313.5,-252 313.5,-252 432.25,-252 432.25,-252 438.25,-252 444.25,-258 444.25,-264 444.25,-264 444.25,-302 444.25,-302 444.25,-308 438.25,-314 432.25,-314"/>
<text xml:space="preserve" text-anchor="middle" x="372.88" y="-299.55" font-family="Helvetica,sans-Serif" font-size="11.00">ST_WAIT_RUN</text>
<text xml:space="preserve" text-anchor="middle" x="372.88" y="-286.05" font-family="Helvetica,sans-Serif" font-size="11.00">wait for siso_done</text>
<text xml:space="preserve" text-anchor="middle" x="372.88" y="-272.55" font-family="Helvetica,sans-Serif" font-size="11.00">serve external fetch bridge</text>
<text xml:space="preserve" text-anchor="middle" x="372.88" y="-259.05" font-family="Helvetica,sans-Serif" font-size="11.00">capture SISO writeback</text>
</g>
<!-- START&#45;&gt;WAIT -->
<g id="edge4" class="edge">
<title>START&#45;&gt;WAIT</title>
<path fill="none" stroke="#444444" d="M389.72,-361.51C387.36,-350.68 384.51,-337.54 381.82,-325.18"/>
<polygon fill="#444444" stroke="#444444" points="385.29,-324.64 379.74,-315.61 378.45,-326.13 385.29,-324.64"/>
<text xml:space="preserve" text-anchor="middle" x="411.35" y="-334.5" font-family="Helvetica,sans-Serif" font-size="10.00">siso started</text>
</g>
<!-- N2I -->
<g id="node5" class="node">
<title>N2I</title>
<path fill="#fff2cc" stroke="#555555" d="M924.5,-204C924.5,-204 789.25,-204 789.25,-204 783.25,-204 777.25,-198 777.25,-192 777.25,-192 777.25,-180 777.25,-180 777.25,-174 783.25,-168 789.25,-168 789.25,-168 924.5,-168 924.5,-168 930.5,-168 936.5,-174 936.5,-180 936.5,-180 936.5,-192 936.5,-192 936.5,-198 930.5,-204 924.5,-204"/>
<text xml:space="preserve" text-anchor="middle" x="856.88" y="-189.05" font-family="Helvetica,sans-Serif" font-size="11.00">ST_EXT_NAT_TO_INT</text>
<text xml:space="preserve" text-anchor="middle" x="856.88" y="-175.55" font-family="Helvetica,sans-Serif" font-size="11.00">QPP&#45;copy NAT ext &#45;&gt; INT ext</text>
</g>
<!-- WAIT&#45;&gt;N2I -->
<g id="edge5" class="edge">
<title>WAIT&#45;&gt;N2I</title>
<path fill="none" stroke="#444444" d="M444.57,-271.91C493.71,-264.03 560.02,-251.46 616.88,-234 629.92,-230 631.99,-225.68 645.12,-222 695.3,-207.95 712,-212.57 765.58,-204.44"/>
<polygon fill="#444444" stroke="#444444" points="766,-207.92 775.31,-202.87 764.88,-201 766,-207.92"/>
<text xml:space="preserve" text-anchor="middle" x="743" y="-224.5" font-family="Helvetica,sans-Serif" font-size="10.00">siso_done &amp; !curr_run_is_int &amp; !curr_run_last</text>
</g>
<!-- I2N -->
<g id="node6" class="node">
<title>I2N</title>
<path fill="#fff2cc" stroke="#555555" d="M209.5,-204C209.5,-204 74.25,-204 74.25,-204 68.25,-204 62.25,-198 62.25,-192 62.25,-192 62.25,-180 62.25,-180 62.25,-174 68.25,-168 74.25,-168 74.25,-168 209.5,-168 209.5,-168 215.5,-168 221.5,-174 221.5,-180 221.5,-180 221.5,-192 221.5,-192 221.5,-198 215.5,-204 209.5,-204"/>
<text xml:space="preserve" text-anchor="middle" x="141.88" y="-189.05" font-family="Helvetica,sans-Serif" font-size="11.00">ST_EXT_INT_TO_NAT</text>
<text xml:space="preserve" text-anchor="middle" x="141.88" y="-175.55" font-family="Helvetica,sans-Serif" font-size="11.00">QPP&#45;copy INT ext &#45;&gt; NAT ext</text>
</g>
<!-- WAIT&#45;&gt;I2N -->
<g id="edge6" class="edge">
<title>WAIT&#45;&gt;I2N</title>
<path fill="none" stroke="#444444" d="M301.05,-273.33C247.5,-265.52 180.14,-252.43 159.12,-234 153.46,-229.04 149.66,-222.05 147.1,-214.98"/>
<polygon fill="#444444" stroke="#444444" points="150.52,-214.2 144.44,-205.53 143.78,-216.11 150.52,-214.2"/>
<text xml:space="preserve" text-anchor="middle" x="255.5" y="-224.5" font-family="Helvetica,sans-Serif" font-size="10.00">siso_done &amp; curr_run_is_int &amp; !curr_run_last</text>
</g>
<!-- F2N -->
<g id="node7" class="node">
<title>F2N</title>
<path fill="#fff2cc" stroke="#555555" d="M747.62,-204C747.62,-204 586.12,-204 586.12,-204 580.12,-204 574.12,-198 574.12,-192 574.12,-192 574.12,-180 574.12,-180 574.12,-174 580.12,-168 586.12,-168 586.12,-168 747.62,-168 747.62,-168 753.62,-168 759.62,-174 759.62,-180 759.62,-180 759.62,-192 759.62,-192 759.62,-198 753.62,-204 747.62,-204"/>
<text xml:space="preserve" text-anchor="middle" x="666.88" y="-189.05" font-family="Helvetica,sans-Serif" font-size="11.00">ST_FINAL_INT_TO_NAT</text>
<text xml:space="preserve" text-anchor="middle" x="666.88" y="-175.55" font-family="Helvetica,sans-Serif" font-size="11.00">QPP&#45;copy INT post &#45;&gt; FINAL_NAT</text>
</g>
<!-- WAIT&#45;&gt;F2N -->
<g id="edge7" class="edge">
<title>WAIT&#45;&gt;F2N</title>
<path fill="none" stroke="#444444" d="M393.11,-251.81C402.18,-240.64 413.83,-229.01 427.12,-222 479.79,-194.23 500.97,-212.67 559.88,-204 560.73,-203.87 561.59,-203.75 562.45,-203.62"/>
<polygon fill="#444444" stroke="#444444" points="562.95,-207.08 572.32,-202.14 561.91,-200.16 562.95,-207.08"/>
<text xml:space="preserve" text-anchor="middle" x="522" y="-224.5" font-family="Helvetica,sans-Serif" font-size="10.00">siso_done &amp; curr_run_is_int &amp; curr_run_last</text>
</g>
<!-- SER -->
<g id="node8" class="node">
<title>SER</title>
<path fill="#ead1dc" stroke="#555555" d="M708.62,-120C708.62,-120 625.12,-120 625.12,-120 619.12,-120 613.12,-114 613.12,-108 613.12,-108 613.12,-96 613.12,-96 613.12,-90 619.12,-84 625.12,-84 625.12,-84 708.62,-84 708.62,-84 714.62,-84 720.62,-90 720.62,-96 720.62,-96 720.62,-108 720.62,-108 720.62,-114 714.62,-120 708.62,-120"/>
<text xml:space="preserve" text-anchor="middle" x="666.88" y="-105.05" font-family="Helvetica,sans-Serif" font-size="11.00">ST_SERIALIZE</text>
<text xml:space="preserve" text-anchor="middle" x="666.88" y="-91.55" font-family="Helvetica,sans-Serif" font-size="11.00">final posterior drain</text>
</g>
<!-- WAIT&#45;&gt;SER -->
<g id="edge8" class="edge">
<title>WAIT&#45;&gt;SER</title>
<path fill="none" stroke="#444444" d="M363.09,-251.71C357.01,-226.54 353.47,-191.22 372.12,-168 400.36,-132.86 523.76,-115.6 601.67,-108.05"/>
<polygon fill="#444444" stroke="#444444" points="601.68,-111.56 611.31,-107.15 601.03,-104.6 601.68,-111.56"/>
<text xml:space="preserve" text-anchor="middle" x="468.5" y="-182.5" font-family="Helvetica,sans-Serif" font-size="10.00">siso_done &amp; !curr_run_is_int &amp; curr_run_last</text>
</g>
<!-- N2I&#45;&gt;START -->
<g id="edge9" class="edge">
<title>N2I&#45;&gt;START</title>
<path fill="none" stroke="#444444" d="M854.82,-204.19C852.81,-214.08 848.8,-226.08 840.88,-234 735.12,-339.63 552.96,-371.53 457.45,-381.13"/>
<polygon fill="#444444" stroke="#444444" points="457.38,-377.62 447.75,-382.05 458.04,-384.59 457.38,-377.62"/>
<text xml:space="preserve" text-anchor="middle" x="848.03" y="-279.5" font-family="Helvetica,sans-Serif" font-size="10.00">copy drained</text>
</g>
<!-- I2N&#45;&gt;START -->
<g id="edge10" class="edge">
<title>I2N&#45;&gt;START</title>
<path fill="none" stroke="#444444" d="M140.31,-204.37C140.21,-213.63 141.29,-224.94 145.88,-234 170.27,-282.19 191.94,-284.78 237.38,-314 267.18,-333.17 303,-349.82 332.94,-362.19"/>
<polygon fill="#444444" stroke="#444444" points="331.28,-365.29 341.86,-365.81 333.92,-358.8 331.28,-365.29"/>
<text xml:space="preserve" text-anchor="middle" x="265.12" y="-279.5" font-family="Helvetica,sans-Serif" font-size="10.00">copy drained</text>
</g>
<!-- F2N&#45;&gt;SER -->
<g id="edge11" class="edge">
<title>F2N&#45;&gt;SER</title>
<path fill="none" stroke="#444444" d="M666.88,-167.61C666.88,-157.17 666.88,-143.64 666.88,-131.66"/>
<polygon fill="#444444" stroke="#444444" points="670.38,-131.88 666.88,-121.88 663.38,-131.88 670.38,-131.88"/>
<text xml:space="preserve" text-anchor="middle" x="694.62" y="-140.5" font-family="Helvetica,sans-Serif" font-size="10.00">copy drained</text>
</g>
<!-- SER&#45;&gt;FIN -->
<g id="edge12" class="edge">
<title>SER&#45;&gt;FIN</title>
<path fill="none" stroke="#444444" d="M720.84,-86.15C776.12,-70.94 861.34,-47.49 915.06,-32.71"/>
<polygon fill="#444444" stroke="#444444" points="915.85,-36.12 924.56,-30.09 913.99,-29.37 915.85,-36.12"/>
<text xml:space="preserve" text-anchor="middle" x="871.97" y="-56.5" font-family="Helvetica,sans-Serif" font-size="10.00">ser_issue drained</text>
</g>
<!-- FIN&#45;&gt;IDLE -->
<g id="edge13" class="edge">
<title>FIN&#45;&gt;IDLE</title>
<path fill="none" stroke="#444444" d="M1003.92,-21.83C1052.14,-27.7 1127.88,-45.72 1127.88,-101 1127.88,-477.5 1127.88,-477.5 1127.88,-477.5 1127.88,-517.83 1087.55,-538.33 1047.02,-548.75"/>
<polygon fill="#444444" stroke="#444444" points="1046.3,-545.32 1037.37,-551.02 1047.9,-552.13 1046.3,-545.32"/>
</g>
<!-- note -->
<g id="node10" class="node">
<title>note</title>
<polygon fill="#fff4cc" stroke="#9c6500" points="193.75,-410.5 0,-410.5 0,-362 199.75,-362 199.75,-404.5 193.75,-410.5"/>
<polyline fill="none" stroke="#9c6500" points="193.75,-410.5 193.75,-404.5"/>
<polyline fill="none" stroke="#9c6500" points="199.75,-404.5 193.75,-404.5"/>
<text xml:space="preserve" text-anchor="middle" x="99.88" y="-396.05" font-family="Helvetica,sans-Serif" font-size="11.00">Declared but not active in current flow:</text>
<text xml:space="preserve" text-anchor="middle" x="99.88" y="-382.55" font-family="Helvetica,sans-Serif" font-size="11.00">ST_FEED_RUN</text>
<text xml:space="preserve" text-anchor="middle" x="99.88" y="-369.05" font-family="Helvetica,sans-Serif" font-size="11.00">The live schedule is shown here.</text>
</g>
<!-- note&#45;&gt;WAIT -->
<g id="edge14" class="edge">
<title>note&#45;&gt;WAIT</title>
<path fill="none" stroke="#444444" stroke-dasharray="1,5" d="M163.88,-361.51C205.01,-346.26 258.52,-326.41 301.1,-310.62"/>
</g>
</g>
</svg>
