<?xml version="1.0" encoding="UTF-8" standalone="no"?>
<!DOCTYPE svg PUBLIC "-//W3C//DTD SVG 1.1//EN"
 "http://www.w3.org/Graphics/SVG/1.1/DTD/svg11.dtd">
<!-- Generated by graphviz version 14.1.2 (0)
 -->
<!-- Title: G Pages: 1 -->
<svg width="1007pt" height="676pt"
 viewBox="0.00 0.00 1007.00 676.00" xmlns="http://www.w3.org/2000/svg" xmlns:xlink="http://www.w3.org/1999/xlink">
<g id="graph0" class="graph" transform="scale(1 1) rotate(0) translate(4 671.75)">
<title>G</title>
<polygon fill="white" stroke="none" points="-4,4 -4,-671.75 1002.61,-671.75 1002.61,4 -4,4"/>
<text xml:space="preserve" text-anchor="middle" x="499.31" y="-644.75" font-family="Helvetica,sans-Serif" font-size="20.00">turbo_decoder_top &#45; SISO Fetch Bridge</text>
<!-- reqv -->
<g id="node1" class="node">
<title>reqv</title>
<polygon fill="#fce4d6" stroke="#c55a11" points="998.61,-527 833.59,-527 791.14,-491 956.16,-491 998.61,-527"/>
<text xml:space="preserve" text-anchor="middle" x="894.88" y="-505.3" font-family="Helvetica,sans-Serif" font-size="11.00">siso_fetch_req_valid</text>
</g>
<!-- rdpend -->
<g id="node8" class="node">
<title>rdpend</title>
<path fill="#eef5fb" stroke="#1f4e79" d="M719.12,-400.5C719.12,-400.5 590.62,-400.5 590.62,-400.5 584.62,-400.5 578.62,-394.5 578.62,-388.5 578.62,-388.5 578.62,-376.5 578.62,-376.5 578.62,-370.5 584.62,-364.5 590.62,-364.5 590.62,-364.5 719.12,-364.5 719.12,-364.5 725.12,-364.5 731.12,-370.5 731.12,-376.5 731.12,-376.5 731.12,-388.5 731.12,-388.5 731.12,-394.5 725.12,-400.5 719.12,-400.5"/>
<text xml:space="preserve" text-anchor="middle" x="654.88" y="-378.8" font-family="Helvetica,sans-Serif" font-size="11.00">siso_fetch_rd_pending_q FF</text>
</g>
<!-- reqv&#45;&gt;rdpend -->
<g id="edge3" class="edge">
<title>reqv&#45;&gt;rdpend</title>
<path fill="none" stroke="#444444" d="M861.25,-490.56C818.67,-468.47 745.23,-430.37 698.41,-406.09"/>
<polygon fill="#444444" stroke="#444444" points="700.1,-403.02 689.61,-401.52 696.88,-409.23 700.1,-403.02"/>
<text xml:space="preserve" text-anchor="middle" x="807.5" y="-438" font-family="Helvetica,sans-Serif" font-size="10.00">if valid &amp; range</text>
</g>
<!-- reqp -->
<g id="node2" class="node">
<title>reqp</title>
<polygon fill="#d9ebf7" stroke="#1f4e79" points="554.01,-636.5 366.08,-636.5 317.74,-600.5 505.67,-600.5 554.01,-636.5"/>
<text xml:space="preserve" text-anchor="middle" x="435.88" y="-614.8" font-family="Helvetica,sans-Serif" font-size="11.00">siso_fetch_req_pair_idx</text>
</g>
<!-- range -->
<g id="node5" class="node">
<title>range</title>
<polygon fill="#fde9d9" stroke="#c55a11" points="654.88,-527 536.96,-509 654.88,-491 772.79,-509 654.88,-527"/>
<text xml:space="preserve" text-anchor="middle" x="654.88" y="-505.3" font-family="Helvetica,sans-Serif" font-size="11.00">pair_idx &lt; pair_count_i ?</text>
</g>
<!-- reqp&#45;&gt;range -->
<g id="edge1" class="edge">
<title>reqp&#45;&gt;range</title>
<path fill="none" stroke="#444444" d="M471.06,-600.23C511.21,-580.52 576.61,-548.42 617.61,-528.29"/>
<polygon fill="#444444" stroke="#444444" points="618.94,-531.54 626.37,-523.99 615.85,-525.26 618.94,-531.54"/>
</g>
<!-- nat_bank -->
<g id="node11" class="node">
<title>nat_bank</title>
<path fill="#f8f6ef" stroke="#555555" d="M365.25,-466C365.25,-466 506.5,-466 506.5,-466 512.5,-466 518.5,-472 518.5,-478 518.5,-478 518.5,-540 518.5,-540 518.5,-546 512.5,-552 506.5,-552 506.5,-552 365.25,-552 365.25,-552 359.25,-552 353.25,-546 353.25,-540 353.25,-540 353.25,-478 353.25,-478 353.25,-472 359.25,-466 365.25,-466"/>
<text xml:space="preserve" text-anchor="middle" x="435.88" y="-537.55" font-family="Helvetica,sans-Serif" font-size="11.00">Natural Read Bank Set</text>
<polyline fill="none" stroke="#555555" points="353.25,-530.5 518.5,-530.5"/>
<text xml:space="preserve" text-anchor="middle" x="435.88" y="-516.05" font-family="Helvetica,sans-Serif" font-size="11.00">SYS_NAT_E / SYS_NAT_O</text>
<polyline fill="none" stroke="#555555" points="353.25,-509 518.5,-509"/>
<text xml:space="preserve" text-anchor="middle" x="435.88" y="-494.55" font-family="Helvetica,sans-Serif" font-size="11.00">PAR1_NAT_E / PAR1_NAT_O</text>
<polyline fill="none" stroke="#555555" points="353.25,-487.5 518.5,-487.5"/>
<text xml:space="preserve" text-anchor="middle" x="435.88" y="-473.05" font-family="Helvetica,sans-Serif" font-size="11.00">EXT_NAT_E / EXT_NAT_O</text>
</g>
<!-- reqp&#45;&gt;nat_bank -->
<g id="edge7" class="edge">
<title>reqp&#45;&gt;nat_bank</title>
<path fill="none" stroke="#444444" d="M435.88,-600.23C435.88,-590.12 435.88,-576.75 435.88,-563.41"/>
<polygon fill="#444444" stroke="#444444" points="439.38,-563.8 435.88,-553.8 432.38,-563.8 439.38,-563.8"/>
<text xml:space="preserve" text-anchor="middle" x="452" y="-573" font-family="Helvetica,sans-Serif" font-size="10.00">rd_addr</text>
</g>
<!-- int_bank -->
<g id="node12" class="node">
<title>int_bank</title>
<path fill="#f8f6ef" stroke="#555555" d="M12,-466C12,-466 145.75,-466 145.75,-466 151.75,-466 157.75,-472 157.75,-478 157.75,-478 157.75,-540 157.75,-540 157.75,-546 151.75,-552 145.75,-552 145.75,-552 12,-552 12,-552 6,-552 0,-546 0,-540 0,-540 0,-478 0,-478 0,-472 6,-466 12,-466"/>
<text xml:space="preserve" text-anchor="middle" x="78.88" y="-537.55" font-family="Helvetica,sans-Serif" font-size="11.00">Interleaved Read Bank Set</text>
<polyline fill="none" stroke="#555555" points="0,-530.5 157.75,-530.5"/>
<text xml:space="preserve" text-anchor="middle" x="78.88" y="-516.05" font-family="Helvetica,sans-Serif" font-size="11.00">SYS_INT_E / SYS_INT_O</text>
<polyline fill="none" stroke="#555555" points="0,-509 157.75,-509"/>
<text xml:space="preserve" text-anchor="middle" x="78.88" y="-494.55" font-family="Helvetica,sans-Serif" font-size="11.00">PAR2_INT_E / PAR2_INT_O</text>
<polyline fill="none" stroke="#555555" points="0,-487.5 157.75,-487.5"/>
<text xml:space="preserve" text-anchor="middle" x="78.88" y="-473.05" font-family="Helvetica,sans-Serif" font-size="11.00">EXT_INT_E / EXT_INT_O</text>
</g>
<!-- reqp&#45;&gt;int_bank -->
<g id="edge8" class="edge">
<title>reqp&#45;&gt;int_bank</title>
<path fill="none" stroke="#444444" d="M342.32,-600.01C292.8,-589.56 231.06,-574.63 168.95,-553.05"/>
<polygon fill="#444444" stroke="#444444" points="170.2,-549.77 159.6,-549.74 167.86,-556.37 170.2,-549.77"/>
<text xml:space="preserve" text-anchor="middle" x="277.56" y="-573" font-family="Helvetica,sans-Serif" font-size="10.00">rd_addr</text>
</g>
<!-- mode -->
<g id="node3" class="node">
<title>mode</title>
<polygon fill="#fce4d6" stroke="#c55a11" points="335.62,-527 208.76,-527 176.13,-491 302.99,-491 335.62,-527"/>
<text xml:space="preserve" text-anchor="middle" x="255.88" y="-505.3" font-family="Helvetica,sans-Serif" font-size="11.00">curr_run_is_int</text>
</g>
<!-- natsel -->
<g id="node6" class="node">
<title>natsel</title>
<polygon fill="#e2f0d9" stroke="#548235" points="451.9,-417.5 343.85,-417.5 305.38,-347.5 490.38,-347.5 451.9,-417.5"/>
<text xml:space="preserve" text-anchor="middle" x="397.88" y="-385.55" font-family="Helvetica,sans-Serif" font-size="11.00">MUX</text>
<text xml:space="preserve" text-anchor="middle" x="397.88" y="-372.05" font-family="Helvetica,sans-Serif" font-size="11.00">natural bank set</text>
</g>
<!-- mode&#45;&gt;natsel -->
<g id="edge5" class="edge">
<title>mode&#45;&gt;natsel</title>
<path fill="none" stroke="#444444" d="M275.62,-490.69C294.86,-473.82 324.85,-447.53 350.31,-425.2"/>
<polygon fill="#444444" stroke="#444444" points="352.4,-428.03 357.61,-418.8 347.79,-422.76 352.4,-428.03"/>
<text xml:space="preserve" text-anchor="middle" x="341.75" y="-438" font-family="Helvetica,sans-Serif" font-size="10.00">sel</text>
</g>
<!-- intsel -->
<g id="node7" class="node">
<title>intsel</title>
<polygon fill="#e2f0d9" stroke="#548235" points="192.28,-417.5 61.47,-417.5 14.88,-347.5 238.87,-347.5 192.28,-417.5"/>
<text xml:space="preserve" text-anchor="middle" x="126.88" y="-385.55" font-family="Helvetica,sans-Serif" font-size="11.00">MUX</text>
<text xml:space="preserve" text-anchor="middle" x="126.88" y="-372.05" font-family="Helvetica,sans-Serif" font-size="11.00">interleaved bank set</text>
</g>
<!-- mode&#45;&gt;intsel -->
<g id="edge6" class="edge">
<title>mode&#45;&gt;intsel</title>
<path fill="none" stroke="#444444" d="M237.94,-490.69C220.61,-473.97 193.69,-447.98 170.69,-425.79"/>
<polygon fill="#444444" stroke="#444444" points="173.13,-423.28 163.51,-418.85 168.27,-428.32 173.13,-423.28"/>
<text xml:space="preserve" text-anchor="middle" x="197.75" y="-438" font-family="Helvetica,sans-Serif" font-size="10.00">sel</text>
</g>
<!-- rspmux -->
<g id="node13" class="node">
<title>rspmux</title>
<polygon fill="#e2f0d9" stroke="#548235" points="380.16,-299.5 247.59,-299.5 200.38,-229.5 427.38,-229.5 380.16,-299.5"/>
<text xml:space="preserve" text-anchor="middle" x="313.88" y="-267.55" font-family="Helvetica,sans-Serif" font-size="11.00">MUX</text>
<text xml:space="preserve" text-anchor="middle" x="313.88" y="-254.05" font-family="Helvetica,sans-Serif" font-size="11.00">SISO response data</text>
</g>
<!-- mode&#45;&gt;rspmux -->
<g id="edge15" class="edge">
<title>mode&#45;&gt;rspmux</title>
<path fill="none" stroke="#444444" d="M257.89,-490.92C261.59,-461.36 270.39,-398.89 284.12,-347.5 287.39,-335.29 291.68,-322.33 296,-310.4"/>
<polygon fill="#444444" stroke="#444444" points="299.21,-311.8 299.4,-301.21 292.64,-309.37 299.21,-311.8"/>
<text xml:space="preserve" text-anchor="middle" x="290.5" y="-379" font-family="Helvetica,sans-Serif" font-size="10.00">sel</text>
</g>
<!-- pcount -->
<g id="node4" class="node">
<title>pcount</title>
<polygon fill="#d9ebf7" stroke="#1f4e79" points="722.97,-636.5 614.65,-636.5 586.78,-600.5 695.1,-600.5 722.97,-636.5"/>
<text xml:space="preserve" text-anchor="middle" x="654.88" y="-614.8" font-family="Helvetica,sans-Serif" font-size="11.00">pair_count_i</text>
</g>
<!-- pcount&#45;&gt;range -->
<g id="edge2" class="edge">
<title>pcount&#45;&gt;range</title>
<path fill="none" stroke="#444444" d="M654.88,-600.23C654.88,-583.62 654.88,-558.2 654.88,-538.57"/>
<polygon fill="#444444" stroke="#444444" points="658.38,-538.74 654.88,-528.74 651.38,-538.74 658.38,-538.74"/>
</g>
<!-- range&#45;&gt;rdpend -->
<g id="edge4" class="edge">
<title>range&#45;&gt;rdpend</title>
<path fill="none" stroke="#444444" d="M654.88,-490.69C654.88,-470.34 654.88,-436.28 654.88,-412.01"/>
<polygon fill="#444444" stroke="#444444" points="658.38,-412.18 654.88,-402.18 651.38,-412.18 658.38,-412.18"/>
<text xml:space="preserve" text-anchor="middle" x="674.75" y="-438" font-family="Helvetica,sans-Serif" font-size="10.00">range_ok</text>
</g>
<!-- natsel&#45;&gt;rspmux -->
<g id="edge11" class="edge">
<title>natsel&#45;&gt;rspmux</title>
<path fill="none" stroke="#444444" d="M372.9,-347.01C364.18,-334.97 354.29,-321.31 345.12,-308.65"/>
<polygon fill="#444444" stroke="#444444" points="348.2,-306.93 339.5,-300.88 342.53,-311.03 348.2,-306.93"/>
<text xml:space="preserve" text-anchor="middle" x="381.27" y="-320" font-family="Helvetica,sans-Serif" font-size="10.00">natural set</text>
</g>
<!-- intsel&#45;&gt;rspmux -->
<g id="edge12" class="edge">
<title>intsel&#45;&gt;rspmux</title>
<path fill="none" stroke="#444444" d="M160.07,-347.24C171.22,-336.87 184.14,-325.99 197.12,-317.5 208.15,-310.29 220.35,-303.63 232.57,-297.65"/>
<polygon fill="#444444" stroke="#444444" points="233.92,-300.88 241.45,-293.44 230.92,-294.56 233.92,-300.88"/>
<text xml:space="preserve" text-anchor="middle" x="229" y="-320" font-family="Helvetica,sans-Serif" font-size="10.00">interleaved set</text>
</g>
<!-- rsppend -->
<g id="node9" class="node">
<title>rsppend</title>
<path fill="#eef5fb" stroke="#1f4e79" d="M665.75,-282.5C665.75,-282.5 532,-282.5 532,-282.5 526,-282.5 520,-276.5 520,-270.5 520,-270.5 520,-258.5 520,-258.5 520,-252.5 526,-246.5 532,-246.5 532,-246.5 665.75,-246.5 665.75,-246.5 671.75,-246.5 677.75,-252.5 677.75,-258.5 677.75,-258.5 677.75,-270.5 677.75,-270.5 677.75,-276.5 671.75,-282.5 665.75,-282.5"/>
<text xml:space="preserve" text-anchor="middle" x="598.88" y="-260.8" font-family="Helvetica,sans-Serif" font-size="11.00">siso_fetch_rsp_pending_q FF</text>
</g>
<!-- rdpend&#45;&gt;rsppend -->
<g id="edge13" class="edge">
<title>rdpend&#45;&gt;rsppend</title>
<path fill="none" stroke="#444444" d="M646.49,-364.13C637.42,-345.34 622.82,-315.11 612.18,-293.06"/>
<polygon fill="#444444" stroke="#444444" points="615.47,-291.83 607.97,-284.35 609.17,-294.88 615.47,-291.83"/>
<text xml:space="preserve" text-anchor="middle" x="657.43" y="-320" font-family="Helvetica,sans-Serif" font-size="10.00">1&#45;cycle delay</text>
</g>
<!-- rspv -->
<g id="node10" class="node">
<title>rspv</title>
<path fill="#eef5fb" stroke="#1f4e79" d="M557.25,-192.5C557.25,-192.5 456.5,-192.5 456.5,-192.5 450.5,-192.5 444.5,-186.5 444.5,-180.5 444.5,-180.5 444.5,-168.5 444.5,-168.5 444.5,-162.5 450.5,-156.5 456.5,-156.5 456.5,-156.5 557.25,-156.5 557.25,-156.5 563.25,-156.5 569.25,-162.5 569.25,-168.5 569.25,-168.5 569.25,-180.5 569.25,-180.5 569.25,-186.5 563.25,-192.5 557.25,-192.5"/>
<text xml:space="preserve" text-anchor="middle" x="506.88" y="-170.8" font-family="Helvetica,sans-Serif" font-size="11.00">siso_fetch_rsp_valid_q</text>
</g>
<!-- rsppend&#45;&gt;rspv -->
<g id="edge14" class="edge">
<title>rsppend&#45;&gt;rspv</title>
<path fill="none" stroke="#444444" d="M580.7,-246.11C567.09,-233.1 548.28,-215.1 533.05,-200.54"/>
<polygon fill="#444444" stroke="#444444" points="535.75,-198.28 526.11,-193.9 530.91,-203.34 535.75,-198.28"/>
</g>
<!-- rspout -->
<g id="node14" class="node">
<title>rspout</title>
<path fill="#f8f6ef" stroke="#555555" d="M317.75,-0.5C317.75,-0.5 408,-0.5 408,-0.5 414,-0.5 420,-6.5 420,-12.5 420,-12.5 420,-96 420,-96 420,-102 414,-108 408,-108 408,-108 317.75,-108 317.75,-108 311.75,-108 305.75,-102 305.75,-96 305.75,-96 305.75,-12.5 305.75,-12.5 305.75,-6.5 311.75,-0.5 317.75,-0.5"/>
<text xml:space="preserve" text-anchor="middle" x="362.88" y="-93.55" font-family="Helvetica,sans-Serif" font-size="11.00">To siso_maxlogmap</text>
<polyline fill="none" stroke="#555555" points="305.75,-86.5 420,-86.5"/>
<text xml:space="preserve" text-anchor="middle" x="362.88" y="-72.05" font-family="Helvetica,sans-Serif" font-size="11.00">sys_even / sys_odd</text>
<polyline fill="none" stroke="#555555" points="305.75,-65 420,-65"/>
<text xml:space="preserve" text-anchor="middle" x="362.88" y="-50.55" font-family="Helvetica,sans-Serif" font-size="11.00">par_even / par_odd</text>
<polyline fill="none" stroke="#555555" points="305.75,-43.5 420,-43.5"/>
<text xml:space="preserve" text-anchor="middle" x="362.88" y="-29.05" font-family="Helvetica,sans-Serif" font-size="11.00">apri_even / apri_odd</text>
<polyline fill="none" stroke="#555555" points="305.75,-22 420,-22"/>
<text xml:space="preserve" text-anchor="middle" x="362.88" y="-7.55" font-family="Helvetica,sans-Serif" font-size="11.00">fetch_rsp_valid</text>
</g>
<!-- rspv&#45;&gt;rspout -->
<g id="edge17" class="edge">
<title>rspv&#45;&gt;rspout</title>
<path fill="none" stroke="#444444" d="M485.63,-156.05C470.57,-143.68 449.48,-126.37 429.03,-109.57"/>
<polygon fill="#444444" stroke="#444444" points="431.44,-107.02 421.49,-103.38 426.99,-112.43 431.44,-107.02"/>
<text xml:space="preserve" text-anchor="middle" x="493.3" y="-129" font-family="Helvetica,sans-Serif" font-size="10.00">fetch_rsp_valid</text>
</g>
<!-- nat_bank&#45;&gt;natsel -->
<g id="edge9" class="edge">
<title>nat_bank&#45;&gt;natsel</title>
<path fill="none" stroke="#444444" d="M422.9,-465.5C419.28,-453.64 415.33,-440.7 411.67,-428.69"/>
<polygon fill="#444444" stroke="#444444" points="415.1,-427.96 408.84,-419.42 408.41,-430 415.1,-427.96"/>
<text xml:space="preserve" text-anchor="middle" x="423.25" y="-438" font-family="Helvetica,sans-Serif" font-size="10.00">in0</text>
</g>
<!-- int_bank&#45;&gt;intsel -->
<g id="edge10" class="edge">
<title>int_bank&#45;&gt;intsel</title>
<path fill="none" stroke="#444444" d="M95.26,-465.5C99.83,-453.64 104.82,-440.7 109.45,-428.69"/>
<polygon fill="#444444" stroke="#444444" points="112.71,-429.97 113.04,-419.38 106.18,-427.45 112.71,-429.97"/>
<text xml:space="preserve" text-anchor="middle" x="112.12" y="-438" font-family="Helvetica,sans-Serif" font-size="10.00">in1</text>
</g>
<!-- rspmux&#45;&gt;rspout -->
<g id="edge16" class="edge">
<title>rspmux&#45;&gt;rspout</title>
<path fill="none" stroke="#444444" d="M321.97,-229.11C328.96,-199.38 339.26,-155.6 347.78,-119.42"/>
<polygon fill="#444444" stroke="#444444" points="351.13,-120.47 350.01,-109.93 344.31,-118.86 351.13,-120.47"/>
<text xml:space="preserve" text-anchor="middle" x="370.28" y="-171" font-family="Helvetica,sans-Serif" font-size="10.00">sample bundle</text>
</g>
</g>
</svg>
