<?xml version="1.0" encoding="UTF-8" standalone="no"?>
<!DOCTYPE svg PUBLIC "-//W3C//DTD SVG 1.1//EN"
 "http://www.w3.org/Graphics/SVG/1.1/DTD/svg11.dtd">
<!-- Generated by graphviz version 14.1.2 (0)
 -->
<!-- Title: G Pages: 1 -->
<svg width="1156pt" height="643pt"
 viewBox="0.00 0.00 1156.00 643.00" xmlns="http://www.w3.org/2000/svg" xmlns:xlink="http://www.w3.org/1999/xlink">
<g id="graph0" class="graph" transform="scale(1 1) rotate(0) translate(4 638.5)">
<title>G</title>
<polygon fill="white" stroke="none" points="-4,4 -4,-638.5 1152,-638.5 1152,4 -4,4"/>
<text xml:space="preserve" text-anchor="middle" x="574" y="-611.5" font-family="Helvetica,sans-Serif" font-size="20.00">siso_maxlogmap &#45; Shared Radix&#45;4 ACS, Cell Level</text>
<g id="clust1" class="cluster">
<title>cluster_cell0</title>
<path fill="none" stroke="#6fa8dc" d="M20,-176C20,-176 394,-176 394,-176 400,-176 406,-182 406,-188 406,-188 406,-539.25 406,-539.25 406,-545.25 400,-551.25 394,-551.25 394,-551.25 20,-551.25 20,-551.25 14,-551.25 8,-545.25 8,-539.25 8,-539.25 8,-188 8,-188 8,-182 14,-176 20,-176"/>
<text xml:space="preserve" text-anchor="middle" x="207" y="-528.25" font-family="Helvetica,sans-Serif" font-size="20.00">ACS state cell 0 (1 of 8)</text>
</g>
<g id="clust2" class="cluster">
<title>cluster_cell1</title>
<path fill="none" stroke="#6fa8dc" d="M426,-176C426,-176 699,-176 699,-176 705,-176 711,-182 711,-188 711,-188 711,-539.25 711,-539.25 711,-545.25 705,-551.25 699,-551.25 699,-551.25 426,-551.25 426,-551.25 420,-551.25 414,-545.25 414,-539.25 414,-539.25 414,-188 414,-188 414,-182 420,-176 426,-176"/>
<text xml:space="preserve" text-anchor="middle" x="562.5" y="-528.25" font-family="Helvetica,sans-Serif" font-size="20.00">ACS state cell 1 (2 of 8)</text>
</g>
<g id="clust3" class="cluster">
<title>cluster_cell7</title>
<path fill="none" stroke="#6fa8dc" d="M731,-176C731,-176 1004,-176 1004,-176 1010,-176 1016,-182 1016,-188 1016,-188 1016,-539.25 1016,-539.25 1016,-545.25 1010,-551.25 1004,-551.25 1004,-551.25 731,-551.25 731,-551.25 725,-551.25 719,-545.25 719,-539.25 719,-539.25 719,-188 719,-188 719,-182 725,-176 731,-176"/>
<text xml:space="preserve" text-anchor="middle" x="867.5" y="-528.25" font-family="Helvetica,sans-Serif" font-size="20.00">ACS state cell 7 (8 of 8)</text>
</g>
<!-- inreg -->
<g id="node1" class="node">
<title>inreg</title>
<path fill="#ead1dc" stroke="#555555" d="M915.38,-603.25C915.38,-603.25 814.62,-603.25 814.62,-603.25 808.62,-603.25 802.62,-597.25 802.62,-591.25 802.62,-591.25 802.62,-571.25 802.62,-571.25 802.62,-565.25 808.62,-559.25 814.62,-559.25 814.62,-559.25 915.38,-559.25 915.38,-559.25 921.38,-559.25 927.38,-565.25 927.38,-571.25 927.38,-571.25 927.38,-591.25 927.38,-591.25 927.38,-597.25 921.38,-603.25 915.38,-603.25"/>
<text xml:space="preserve" text-anchor="middle" x="865" y="-589.75" font-family="Helvetica,sans-Serif" font-size="10.00">State input register bank</text>
<text xml:space="preserve" text-anchor="middle" x="865" y="-577.75" font-family="Helvetica,sans-Serif" font-size="10.00">alpha_work or beta_work</text>
<text xml:space="preserve" text-anchor="middle" x="865" y="-565.75" font-family="Helvetica,sans-Serif" font-size="10.00">8 x 10b</text>
</g>
<!-- mux0 -->
<g id="node4" class="node">
<title>mux0</title>
<path fill="#fff2cc" stroke="#555555" d="M386,-512C386,-512 280,-512 280,-512 274,-512 268,-506 268,-500 268,-500 268,-488 268,-488 268,-482 274,-476 280,-476 280,-476 386,-476 386,-476 392,-476 398,-482 398,-488 398,-488 398,-500 398,-500 398,-506 392,-512 386,-512"/>
<text xml:space="preserve" text-anchor="middle" x="333" y="-496.5" font-family="Helvetica,sans-Serif" font-size="10.00">4 source&#45;select taps</text>
<text xml:space="preserve" text-anchor="middle" x="333" y="-484.5" font-family="Helvetica,sans-Serif" font-size="10.00">state and gamma path set</text>
</g>
<!-- inreg&#45;&gt;mux0 -->
<g id="edge1" class="edge">
<title>inreg&#45;&gt;mux0</title>
<path fill="none" stroke="#444444" d="M822.53,-558.94C822.53,-547.11 822.53,-535 822.53,-535 822.53,-535 354.67,-535 354.67,-535 354.67,-535 354.67,-523.62 354.67,-523.62"/>
<polygon fill="#444444" stroke="#444444" points="358.17,-523.62 354.67,-513.62 351.17,-523.62 358.17,-523.62"/>
</g>
<!-- mux1 -->
<g id="node13" class="node">
<title>mux1</title>
<path fill="#fff2cc" stroke="#555555" d="M640.25,-512C640.25,-512 559.75,-512 559.75,-512 553.75,-512 547.75,-506 547.75,-500 547.75,-500 547.75,-488 547.75,-488 547.75,-482 553.75,-476 559.75,-476 559.75,-476 640.25,-476 640.25,-476 646.25,-476 652.25,-482 652.25,-488 652.25,-488 652.25,-500 652.25,-500 652.25,-506 646.25,-512 640.25,-512"/>
<text xml:space="preserve" text-anchor="middle" x="600" y="-490.5" font-family="Helvetica,sans-Serif" font-size="10.00">4 source&#45;select taps</text>
</g>
<!-- inreg&#45;&gt;mux1 -->
<g id="edge15" class="edge">
<title>inreg&#45;&gt;mux1</title>
<path fill="none" stroke="#444444" d="M842.44,-558.85C842.44,-542.07 842.44,-522 842.44,-522 842.44,-522 647.03,-522 647.03,-522 647.03,-522 647.03,-521.02 647.03,-521.02"/>
<polygon fill="#444444" stroke="#444444" points="650.53,-523.72 647.03,-513.72 643.53,-523.72 650.53,-523.72"/>
</g>
<!-- dots -->
<g id="node22" class="node">
<title>dots</title>
<path fill="#eeeeee" stroke="#555555" d="M1136,-516C1136,-516 1036,-516 1036,-516 1030,-516 1024,-510 1024,-504 1024,-504 1024,-484 1024,-484 1024,-478 1030,-472 1036,-472 1036,-472 1136,-472 1136,-472 1142,-472 1148,-478 1148,-484 1148,-484 1148,-504 1148,-504 1148,-510 1142,-516 1136,-516"/>
<text xml:space="preserve" text-anchor="middle" x="1086" y="-502.5" font-family="Helvetica,sans-Serif" font-size="10.00">...</text>
<text xml:space="preserve" text-anchor="middle" x="1086" y="-490.5" font-family="Helvetica,sans-Serif" font-size="10.00">state cells 2 to 6 omitted</text>
<text xml:space="preserve" text-anchor="middle" x="1086" y="-478.5" font-family="Helvetica,sans-Serif" font-size="10.00">same structure repeated</text>
</g>
<!-- inreg&#45;&gt;dots -->
<g id="edge29" class="edge">
<title>inreg&#45;&gt;dots</title>
<path fill="none" stroke="#444444" stroke-dasharray="5,2" d="M904.81,-559.05C904.81,-534.99 904.81,-500 904.81,-500 904.81,-500 1012.13,-500 1012.13,-500"/>
<polygon fill="#444444" stroke="#444444" points="1012.13,-503.5 1022.13,-500 1012.13,-496.5 1012.13,-503.5"/>
</g>
<!-- mux7 -->
<g id="node23" class="node">
<title>mux7</title>
<path fill="#fff2cc" stroke="#555555" d="M870.25,-512C870.25,-512 789.75,-512 789.75,-512 783.75,-512 777.75,-506 777.75,-500 777.75,-500 777.75,-488 777.75,-488 777.75,-482 783.75,-476 789.75,-476 789.75,-476 870.25,-476 870.25,-476 876.25,-476 882.25,-482 882.25,-488 882.25,-488 882.25,-500 882.25,-500 882.25,-506 876.25,-512 870.25,-512"/>
<text xml:space="preserve" text-anchor="middle" x="830" y="-490.5" font-family="Helvetica,sans-Serif" font-size="10.00">4 source&#45;select taps</text>
</g>
<!-- inreg&#45;&gt;mux7 -->
<g id="edge32" class="edge">
<title>inreg&#45;&gt;mux7</title>
<path fill="none" stroke="#444444" d="M862.34,-558.78C862.34,-558.78 862.34,-523.8 862.34,-523.8"/>
<polygon fill="#444444" stroke="#444444" points="865.84,-523.8 862.34,-513.8 858.84,-523.8 865.84,-523.8"/>
</g>
<!-- gamma -->
<g id="node2" class="node">
<title>gamma</title>
<path fill="#ead1dc" stroke="#555555" d="M601.25,-603.25C601.25,-603.25 526.75,-603.25 526.75,-603.25 520.75,-603.25 514.75,-597.25 514.75,-591.25 514.75,-591.25 514.75,-571.25 514.75,-571.25 514.75,-565.25 520.75,-559.25 526.75,-559.25 526.75,-559.25 601.25,-559.25 601.25,-559.25 607.25,-559.25 613.25,-565.25 613.25,-571.25 613.25,-571.25 613.25,-591.25 613.25,-591.25 613.25,-597.25 607.25,-603.25 601.25,-603.25"/>
<text xml:space="preserve" text-anchor="middle" x="564" y="-589.75" font-family="Helvetica,sans-Serif" font-size="10.00">Gamma input word</text>
<text xml:space="preserve" text-anchor="middle" x="564" y="-577.75" font-family="Helvetica,sans-Serif" font-size="10.00">gamma[0..15]</text>
<text xml:space="preserve" text-anchor="middle" x="564" y="-565.75" font-family="Helvetica,sans-Serif" font-size="10.00">16 x 10b</text>
</g>
<!-- gamma&#45;&gt;mux0 -->
<g id="edge2" class="edge">
<title>gamma&#45;&gt;mux0</title>
<path fill="none" stroke="#444444" d="M531.25,-559.05C531.25,-534.99 531.25,-500 531.25,-500 531.25,-500 409.98,-500 409.98,-500"/>
<polygon fill="#444444" stroke="#444444" points="409.98,-496.5 399.98,-500 409.98,-503.5 409.98,-496.5"/>
</g>
<!-- gamma&#45;&gt;mux1 -->
<g id="edge16" class="edge">
<title>gamma&#45;&gt;mux1</title>
<path fill="none" stroke="#444444" d="M596.88,-558.78C596.88,-558.78 596.88,-523.8 596.88,-523.8"/>
<polygon fill="#444444" stroke="#444444" points="600.38,-523.8 596.88,-513.8 593.38,-523.8 600.38,-523.8"/>
</g>
<!-- gamma&#45;&gt;dots -->
<g id="edge30" class="edge">
<title>gamma&#45;&gt;dots</title>
<path fill="none" stroke="#444444" stroke-dasharray="5,2" d="M580.5,-558.98C580.5,-552.44 580.5,-547 580.5,-547 580.5,-547 1065.33,-547 1065.33,-547 1065.33,-547 1065.33,-527.99 1065.33,-527.99"/>
<polygon fill="#444444" stroke="#444444" points="1068.83,-527.99 1065.33,-517.99 1061.83,-527.99 1068.83,-527.99"/>
</g>
<!-- gamma&#45;&gt;mux7 -->
<g id="edge33" class="edge">
<title>gamma&#45;&gt;mux7</title>
<path fill="none" stroke="#444444" d="M564.12,-558.98C564.12,-544.38 564.12,-528 564.12,-528 564.12,-528 790.62,-528 790.62,-528 790.62,-528 790.62,-523.71 790.62,-523.71"/>
<polygon fill="#444444" stroke="#444444" points="794.13,-523.71 790.63,-513.71 787.13,-523.71 794.13,-523.71"/>
</g>
<!-- mode -->
<g id="node3" class="node">
<title>mode</title>
<path fill="#fff2cc" stroke="#555555" d="M772.62,-603.25C772.62,-603.25 643.38,-603.25 643.38,-603.25 637.38,-603.25 631.38,-597.25 631.38,-591.25 631.38,-591.25 631.38,-571.25 631.38,-571.25 631.38,-565.25 637.38,-559.25 643.38,-559.25 643.38,-559.25 772.62,-559.25 772.62,-559.25 778.62,-559.25 784.62,-565.25 784.62,-571.25 784.62,-571.25 784.62,-591.25 784.62,-591.25 784.62,-597.25 778.62,-603.25 772.62,-603.25"/>
<text xml:space="preserve" text-anchor="middle" x="708" y="-589.75" font-family="Helvetica,sans-Serif" font-size="10.00">Mode control</text>
<text xml:space="preserve" text-anchor="middle" x="708" y="-577.75" font-family="Helvetica,sans-Serif" font-size="10.00">forward or backward</text>
<text xml:space="preserve" text-anchor="middle" x="708" y="-565.75" font-family="Helvetica,sans-Serif" font-size="10.00">selects state&#45;path interpretation</text>
</g>
<!-- mode&#45;&gt;mux0 -->
<g id="edge3" class="edge">
<title>mode&#45;&gt;mux0</title>
<path fill="none" stroke="#444444" d="M636.59,-558.77C636.59,-549.55 636.59,-541 636.59,-541 636.59,-541 311.33,-541 311.33,-541 311.33,-541 311.33,-523.82 311.33,-523.82"/>
<polygon fill="#444444" stroke="#444444" points="314.83,-523.82 311.33,-513.82 307.83,-523.82 314.83,-523.82"/>
</g>
<!-- mode&#45;&gt;mux1 -->
<g id="edge17" class="edge">
<title>mode&#45;&gt;mux1</title>
<path fill="none" stroke="#444444" d="M641.81,-558.78C641.81,-558.78 641.81,-523.8 641.81,-523.8"/>
<polygon fill="#444444" stroke="#444444" points="645.31,-523.8 641.81,-513.8 638.31,-523.8 645.31,-523.8"/>
</g>
<!-- mode&#45;&gt;dots -->
<g id="edge31" class="edge">
<title>mode&#45;&gt;dots</title>
<path fill="none" stroke="#444444" stroke-dasharray="5,2" d="M752.25,-558.99C752.25,-555.49 752.25,-553 752.25,-553 752.25,-553 1106.67,-553 1106.67,-553 1106.67,-553 1106.67,-527.82 1106.67,-527.82"/>
<polygon fill="#444444" stroke="#444444" points="1110.17,-527.82 1106.67,-517.82 1103.17,-527.82 1110.17,-527.82"/>
</g>
<!-- mode&#45;&gt;mux7 -->
<g id="edge34" class="edge">
<title>mode&#45;&gt;mux7</title>
<path fill="none" stroke="#444444" d="M785.04,-581C792.08,-581 796.62,-581 796.62,-581 796.62,-581 796.62,-523.96 796.62,-523.96"/>
<polygon fill="#444444" stroke="#444444" points="800.13,-523.96 796.63,-513.96 793.13,-523.96 800.13,-523.96"/>
</g>
<!-- add00 -->
<g id="node5" class="node">
<title>add00</title>
<path fill="#cfe2f3" stroke="#555555" d="M86,-436C86,-436 28,-436 28,-436 22,-436 16,-430 16,-424 16,-424 16,-412 16,-412 16,-406 22,-400 28,-400 28,-400 86,-400 86,-400 92,-400 98,-406 98,-412 98,-412 98,-424 98,-424 98,-430 92,-436 86,-436"/>
<text xml:space="preserve" text-anchor="middle" x="57" y="-420.5" font-family="Helvetica,sans-Serif" font-size="10.00">Adder P0</text>
<text xml:space="preserve" text-anchor="middle" x="57" y="-408.5" font-family="Helvetica,sans-Serif" font-size="10.00">state + gamma</text>
</g>
<!-- mux0&#45;&gt;add00 -->
<g id="edge4" class="edge">
<title>mux0&#45;&gt;add00</title>
<path fill="none" stroke="#444444" d="M267.59,-500C185.97,-500 57,-500 57,-500 57,-500 57,-447.71 57,-447.71"/>
<polygon fill="#444444" stroke="#444444" points="60.5,-447.71 57,-437.71 53.5,-447.71 60.5,-447.71"/>
</g>
<!-- add01 -->
<g id="node6" class="node">
<title>add01</title>
<path fill="#cfe2f3" stroke="#555555" d="M186,-436C186,-436 128,-436 128,-436 122,-436 116,-430 116,-424 116,-424 116,-412 116,-412 116,-406 122,-400 128,-400 128,-400 186,-400 186,-400 192,-400 198,-406 198,-412 198,-412 198,-424 198,-424 198,-430 192,-436 186,-436"/>
<text xml:space="preserve" text-anchor="middle" x="157" y="-420.5" font-family="Helvetica,sans-Serif" font-size="10.00">Adder P1</text>
<text xml:space="preserve" text-anchor="middle" x="157" y="-408.5" font-family="Helvetica,sans-Serif" font-size="10.00">state + gamma</text>
</g>
<!-- mux0&#45;&gt;add01 -->
<g id="edge5" class="edge">
<title>mux0&#45;&gt;add01</title>
<path fill="none" stroke="#444444" d="M267.96,-488C217.83,-488 157,-488 157,-488 157,-488 157,-447.91 157,-447.91"/>
<polygon fill="#444444" stroke="#444444" points="160.5,-447.91 157,-437.91 153.5,-447.91 160.5,-447.91"/>
</g>
<!-- add02 -->
<g id="node7" class="node">
<title>add02</title>
<path fill="#cfe2f3" stroke="#555555" d="M286,-436C286,-436 228,-436 228,-436 222,-436 216,-430 216,-424 216,-424 216,-412 216,-412 216,-406 222,-400 228,-400 228,-400 286,-400 286,-400 292,-400 298,-406 298,-412 298,-412 298,-424 298,-424 298,-430 292,-436 286,-436"/>
<text xml:space="preserve" text-anchor="middle" x="257" y="-420.5" font-family="Helvetica,sans-Serif" font-size="10.00">Adder P2</text>
<text xml:space="preserve" text-anchor="middle" x="257" y="-408.5" font-family="Helvetica,sans-Serif" font-size="10.00">state + gamma</text>
</g>
<!-- mux0&#45;&gt;add02 -->
<g id="edge6" class="edge">
<title>mux0&#45;&gt;add02</title>
<path fill="none" stroke="#444444" d="M283,-475.6C283,-475.6 283,-448.01 283,-448.01"/>
<polygon fill="#444444" stroke="#444444" points="286.5,-448 283,-438.01 279.5,-448.01 286.5,-448"/>
</g>
<!-- add03 -->
<g id="node8" class="node">
<title>add03</title>
<path fill="#cfe2f3" stroke="#555555" d="M386,-436C386,-436 328,-436 328,-436 322,-436 316,-430 316,-424 316,-424 316,-412 316,-412 316,-406 322,-400 328,-400 328,-400 386,-400 386,-400 392,-400 398,-406 398,-412 398,-412 398,-424 398,-424 398,-430 392,-436 386,-436"/>
<text xml:space="preserve" text-anchor="middle" x="357" y="-420.5" font-family="Helvetica,sans-Serif" font-size="10.00">Adder P3</text>
<text xml:space="preserve" text-anchor="middle" x="357" y="-408.5" font-family="Helvetica,sans-Serif" font-size="10.00">state + gamma</text>
</g>
<!-- mux0&#45;&gt;add03 -->
<g id="edge7" class="edge">
<title>mux0&#45;&gt;add03</title>
<path fill="none" stroke="#444444" d="M357,-475.6C357,-475.6 357,-448.01 357,-448.01"/>
<polygon fill="#444444" stroke="#444444" points="360.5,-448 357,-438.01 353.5,-448.01 360.5,-448"/>
</g>
<!-- max0a -->
<g id="node9" class="node">
<title>max0a</title>
<path fill="#f4cccc" stroke="#555555" d="M172.88,-364C172.88,-364 141.12,-364 141.12,-364 135.12,-364 129.12,-358 129.12,-352 129.12,-352 129.12,-340 129.12,-340 129.12,-334 135.12,-328 141.12,-328 141.12,-328 172.88,-328 172.88,-328 178.88,-328 184.88,-334 184.88,-340 184.88,-340 184.88,-352 184.88,-352 184.88,-358 178.88,-364 172.88,-364"/>
<text xml:space="preserve" text-anchor="middle" x="157" y="-342.5" font-family="Helvetica,sans-Serif" font-size="10.00">Max2 C0</text>
</g>
<!-- add00&#45;&gt;max0a -->
<g id="edge8" class="edge">
<title>add00&#45;&gt;max0a</title>
<path fill="none" stroke="#444444" d="M57,-399.83C57,-378.5 57,-346 57,-346 57,-346 117.36,-346 117.36,-346"/>
<polygon fill="#444444" stroke="#444444" points="117.36,-349.5 127.36,-346 117.36,-342.5 117.36,-349.5"/>
</g>
<!-- add01&#45;&gt;max0a -->
<g id="edge9" class="edge">
<title>add01&#45;&gt;max0a</title>
<path fill="none" stroke="#444444" d="M157,-399.83C157,-399.83 157,-375.93 157,-375.93"/>
<polygon fill="#444444" stroke="#444444" points="160.5,-375.93 157,-365.93 153.5,-375.93 160.5,-375.93"/>
</g>
<!-- max0b -->
<g id="node10" class="node">
<title>max0b</title>
<path fill="#f4cccc" stroke="#555555" d="M300.88,-364C300.88,-364 269.12,-364 269.12,-364 263.12,-364 257.12,-358 257.12,-352 257.12,-352 257.12,-340 257.12,-340 257.12,-334 263.12,-328 269.12,-328 269.12,-328 300.88,-328 300.88,-328 306.88,-328 312.88,-334 312.88,-340 312.88,-340 312.88,-352 312.88,-352 312.88,-358 306.88,-364 300.88,-364"/>
<text xml:space="preserve" text-anchor="middle" x="285" y="-342.5" font-family="Helvetica,sans-Serif" font-size="10.00">Max2 C1</text>
</g>
<!-- add02&#45;&gt;max0b -->
<g id="edge10" class="edge">
<title>add02&#45;&gt;max0b</title>
<path fill="none" stroke="#444444" d="M277.56,-399.83C277.56,-399.83 277.56,-375.93 277.56,-375.93"/>
<polygon fill="#444444" stroke="#444444" points="281.06,-375.93 277.56,-365.93 274.06,-375.93 281.06,-375.93"/>
</g>
<!-- add03&#45;&gt;max0b -->
<g id="edge11" class="edge">
<title>add03&#45;&gt;max0b</title>
<path fill="none" stroke="#444444" d="M315.62,-418C309.63,-418 305.44,-418 305.44,-418 305.44,-418 305.44,-375.68 305.44,-375.68"/>
<polygon fill="#444444" stroke="#444444" points="308.94,-375.68 305.44,-365.68 301.94,-375.68 308.94,-375.68"/>
</g>
<!-- max0c -->
<g id="node11" class="node">
<title>max0c</title>
<path fill="#f4cccc" stroke="#555555" d="M306.5,-292C306.5,-292 263.5,-292 263.5,-292 257.5,-292 251.5,-286 251.5,-280 251.5,-280 251.5,-268 251.5,-268 251.5,-262 257.5,-256 263.5,-256 263.5,-256 306.5,-256 306.5,-256 312.5,-256 318.5,-262 318.5,-268 318.5,-268 318.5,-280 318.5,-280 318.5,-286 312.5,-292 306.5,-292"/>
<text xml:space="preserve" text-anchor="middle" x="285" y="-276.5" font-family="Helvetica,sans-Serif" font-size="10.00">Max2 C2</text>
<text xml:space="preserve" text-anchor="middle" x="285" y="-264.5" font-family="Helvetica,sans-Serif" font-size="10.00">max4 result</text>
</g>
<!-- max0a&#45;&gt;max0c -->
<g id="edge12" class="edge">
<title>max0a&#45;&gt;max0c</title>
<path fill="none" stroke="#444444" d="M157,-327.83C157,-306.5 157,-274 157,-274 157,-274 239.52,-274 239.52,-274"/>
<polygon fill="#444444" stroke="#444444" points="239.52,-277.5 249.52,-274 239.52,-270.5 239.52,-277.5"/>
</g>
<!-- max0b&#45;&gt;max0c -->
<g id="edge13" class="edge">
<title>max0b&#45;&gt;max0c</title>
<path fill="none" stroke="#444444" d="M285,-327.83C285,-327.83 285,-303.93 285,-303.93"/>
<polygon fill="#444444" stroke="#444444" points="288.5,-303.93 285,-293.93 281.5,-303.93 288.5,-303.93"/>
</g>
<!-- out0 -->
<g id="node12" class="node">
<title>out0</title>
<path fill="#d9ead3" stroke="#555555" d="M357,-220C357,-220 327,-220 327,-220 321,-220 315,-214 315,-208 315,-208 315,-196 315,-196 315,-190 321,-184 327,-184 327,-184 357,-184 357,-184 363,-184 369,-190 369,-196 369,-196 369,-208 369,-208 369,-214 363,-220 357,-220"/>
<text xml:space="preserve" text-anchor="middle" x="342" y="-204.5" font-family="Helvetica,sans-Serif" font-size="10.00">ret[0]</text>
<text xml:space="preserve" text-anchor="middle" x="342" y="-192.5" font-family="Helvetica,sans-Serif" font-size="10.00">10b</text>
</g>
<!-- max0c&#45;&gt;out0 -->
<g id="edge14" class="edge">
<title>max0c&#45;&gt;out0</title>
<path fill="none" stroke="#444444" d="M318.83,-268C331.89,-268 343.75,-268 343.75,-268 343.75,-268 343.75,-231.9 343.75,-231.9"/>
<polygon fill="#444444" stroke="#444444" points="347.25,-231.9 343.75,-221.9 340.25,-231.9 347.25,-231.9"/>
</g>
<!-- outreg -->
<g id="node32" class="node">
<title>outreg</title>
<path fill="#ead1dc" stroke="#555555" d="M795.25,-148C795.25,-148 690.75,-148 690.75,-148 684.75,-148 678.75,-142 678.75,-136 678.75,-136 678.75,-116 678.75,-116 678.75,-110 684.75,-104 690.75,-104 690.75,-104 795.25,-104 795.25,-104 801.25,-104 807.25,-110 807.25,-116 807.25,-116 807.25,-136 807.25,-136 807.25,-142 801.25,-148 795.25,-148"/>
<text xml:space="preserve" text-anchor="middle" x="743" y="-134.5" font-family="Helvetica,sans-Serif" font-size="10.00">State output register bank</text>
<text xml:space="preserve" text-anchor="middle" x="743" y="-122.5" font-family="Helvetica,sans-Serif" font-size="10.00">next alpha or next beta</text>
<text xml:space="preserve" text-anchor="middle" x="743" y="-110.5" font-family="Helvetica,sans-Serif" font-size="10.00">8 x 10b</text>
</g>
<!-- out0&#45;&gt;outreg -->
<g id="edge46" class="edge">
<title>out0&#45;&gt;outreg</title>
<path fill="none" stroke="#444444" d="M342,-183.6C342,-161.11 342,-126 342,-126 342,-126 667.06,-126 667.06,-126"/>
<polygon fill="#444444" stroke="#444444" points="667.06,-129.5 677.06,-126 667.06,-122.5 667.06,-129.5"/>
</g>
<!-- add10 -->
<g id="node14" class="node">
<title>add10</title>
<path fill="#cfe2f3" stroke="#555555" d="M466.25,-436C466.25,-436 433.75,-436 433.75,-436 427.75,-436 421.75,-430 421.75,-424 421.75,-424 421.75,-412 421.75,-412 421.75,-406 427.75,-400 433.75,-400 433.75,-400 466.25,-400 466.25,-400 472.25,-400 478.25,-406 478.25,-412 478.25,-412 478.25,-424 478.25,-424 478.25,-430 472.25,-436 466.25,-436"/>
<text xml:space="preserve" text-anchor="middle" x="450" y="-414.5" font-family="Helvetica,sans-Serif" font-size="10.00">Adder P0</text>
</g>
<!-- mux1&#45;&gt;add10 -->
<g id="edge18" class="edge">
<title>mux1&#45;&gt;add10</title>
<path fill="none" stroke="#444444" d="M547.54,-488C504.28,-488 450,-488 450,-488 450,-488 450,-447.91 450,-447.91"/>
<polygon fill="#444444" stroke="#444444" points="453.5,-447.91 450,-437.91 446.5,-447.91 453.5,-447.91"/>
</g>
<!-- add11 -->
<g id="node15" class="node">
<title>add11</title>
<path fill="#cfe2f3" stroke="#555555" d="M541.25,-436C541.25,-436 508.75,-436 508.75,-436 502.75,-436 496.75,-430 496.75,-424 496.75,-424 496.75,-412 496.75,-412 496.75,-406 502.75,-400 508.75,-400 508.75,-400 541.25,-400 541.25,-400 547.25,-400 553.25,-406 553.25,-412 553.25,-412 553.25,-424 553.25,-424 553.25,-430 547.25,-436 541.25,-436"/>
<text xml:space="preserve" text-anchor="middle" x="525" y="-414.5" font-family="Helvetica,sans-Serif" font-size="10.00">Adder P1</text>
</g>
<!-- mux1&#45;&gt;add11 -->
<g id="edge19" class="edge">
<title>mux1&#45;&gt;add11</title>
<path fill="none" stroke="#444444" d="M562.5,-475.6C562.5,-453.11 562.5,-418 562.5,-418 562.5,-418 561.59,-418 561.59,-418"/>
<polygon fill="#444444" stroke="#444444" points="564.94,-414.5 554.94,-418 564.94,-421.5 564.94,-414.5"/>
</g>
<!-- add12 -->
<g id="node16" class="node">
<title>add12</title>
<path fill="#cfe2f3" stroke="#555555" d="M616.25,-436C616.25,-436 583.75,-436 583.75,-436 577.75,-436 571.75,-430 571.75,-424 571.75,-424 571.75,-412 571.75,-412 571.75,-406 577.75,-400 583.75,-400 583.75,-400 616.25,-400 616.25,-400 622.25,-400 628.25,-406 628.25,-412 628.25,-412 628.25,-424 628.25,-424 628.25,-430 622.25,-436 616.25,-436"/>
<text xml:space="preserve" text-anchor="middle" x="600" y="-414.5" font-family="Helvetica,sans-Serif" font-size="10.00">Adder P2</text>
</g>
<!-- mux1&#45;&gt;add12 -->
<g id="edge20" class="edge">
<title>mux1&#45;&gt;add12</title>
<path fill="none" stroke="#444444" d="M600,-475.6C600,-475.6 600,-448.01 600,-448.01"/>
<polygon fill="#444444" stroke="#444444" points="603.5,-448 600,-438.01 596.5,-448.01 603.5,-448"/>
</g>
<!-- add13 -->
<g id="node17" class="node">
<title>add13</title>
<path fill="#cfe2f3" stroke="#555555" d="M691.25,-436C691.25,-436 658.75,-436 658.75,-436 652.75,-436 646.75,-430 646.75,-424 646.75,-424 646.75,-412 646.75,-412 646.75,-406 652.75,-400 658.75,-400 658.75,-400 691.25,-400 691.25,-400 697.25,-400 703.25,-406 703.25,-412 703.25,-412 703.25,-424 703.25,-424 703.25,-430 697.25,-436 691.25,-436"/>
<text xml:space="preserve" text-anchor="middle" x="675" y="-414.5" font-family="Helvetica,sans-Serif" font-size="10.00">Adder P3</text>
</g>
<!-- mux1&#45;&gt;add13 -->
<g id="edge21" class="edge">
<title>mux1&#45;&gt;add13</title>
<path fill="none" stroke="#444444" d="M634.42,-475.61C634.42,-454.87 634.42,-424 634.42,-424 634.42,-424 635.61,-424 635.61,-424"/>
<polygon fill="#444444" stroke="#444444" points="634.86,-427.5 644.86,-424 634.86,-420.5 634.86,-427.5"/>
</g>
<!-- max1a -->
<g id="node18" class="node">
<title>max1a</title>
<path fill="#f4cccc" stroke="#555555" d="M540.88,-364C540.88,-364 509.12,-364 509.12,-364 503.12,-364 497.12,-358 497.12,-352 497.12,-352 497.12,-340 497.12,-340 497.12,-334 503.12,-328 509.12,-328 509.12,-328 540.88,-328 540.88,-328 546.88,-328 552.88,-334 552.88,-340 552.88,-340 552.88,-352 552.88,-352 552.88,-358 546.88,-364 540.88,-364"/>
<text xml:space="preserve" text-anchor="middle" x="525" y="-342.5" font-family="Helvetica,sans-Serif" font-size="10.00">Max2 C0</text>
</g>
<!-- add10&#45;&gt;max1a -->
<g id="edge22" class="edge">
<title>add10&#45;&gt;max1a</title>
<path fill="none" stroke="#444444" d="M450,-399.83C450,-378.5 450,-346 450,-346 450,-346 485.13,-346 485.13,-346"/>
<polygon fill="#444444" stroke="#444444" points="485.13,-349.5 495.13,-346 485.13,-342.5 485.13,-349.5"/>
</g>
<!-- add11&#45;&gt;max1a -->
<g id="edge23" class="edge">
<title>add11&#45;&gt;max1a</title>
<path fill="none" stroke="#444444" d="M525,-399.83C525,-399.83 525,-375.93 525,-375.93"/>
<polygon fill="#444444" stroke="#444444" points="528.5,-375.93 525,-365.93 521.5,-375.93 528.5,-375.93"/>
</g>
<!-- max1b -->
<g id="node19" class="node">
<title>max1b</title>
<path fill="#f4cccc" stroke="#555555" d="M634.88,-364C634.88,-364 603.12,-364 603.12,-364 597.12,-364 591.12,-358 591.12,-352 591.12,-352 591.12,-340 591.12,-340 591.12,-334 597.12,-328 603.12,-328 603.12,-328 634.88,-328 634.88,-328 640.88,-328 646.88,-334 646.88,-340 646.88,-340 646.88,-352 646.88,-352 646.88,-358 640.88,-364 634.88,-364"/>
<text xml:space="preserve" text-anchor="middle" x="619" y="-342.5" font-family="Helvetica,sans-Serif" font-size="10.00">Max2 C1</text>
</g>
<!-- add12&#45;&gt;max1b -->
<g id="edge24" class="edge">
<title>add12&#45;&gt;max1b</title>
<path fill="none" stroke="#444444" d="M609.69,-399.83C609.69,-399.83 609.69,-375.93 609.69,-375.93"/>
<polygon fill="#444444" stroke="#444444" points="613.19,-375.93 609.69,-365.93 606.19,-375.93 613.19,-375.93"/>
</g>
<!-- add13&#45;&gt;max1b -->
<g id="edge25" class="edge">
<title>add13&#45;&gt;max1b</title>
<path fill="none" stroke="#444444" d="M646.27,-412C642.87,-412 640.58,-412 640.58,-412 640.58,-412 640.58,-375.9 640.58,-375.9"/>
<polygon fill="#444444" stroke="#444444" points="644.08,-375.9 640.58,-365.9 637.08,-375.9 644.08,-375.9"/>
</g>
<!-- max1c -->
<g id="node20" class="node">
<title>max1c</title>
<path fill="#f4cccc" stroke="#555555" d="M634.88,-292C634.88,-292 603.12,-292 603.12,-292 597.12,-292 591.12,-286 591.12,-280 591.12,-280 591.12,-268 591.12,-268 591.12,-262 597.12,-256 603.12,-256 603.12,-256 634.88,-256 634.88,-256 640.88,-256 646.88,-262 646.88,-268 646.88,-268 646.88,-280 646.88,-280 646.88,-286 640.88,-292 634.88,-292"/>
<text xml:space="preserve" text-anchor="middle" x="619" y="-270.5" font-family="Helvetica,sans-Serif" font-size="10.00">Max2 C2</text>
</g>
<!-- max1a&#45;&gt;max1c -->
<g id="edge26" class="edge">
<title>max1a&#45;&gt;max1c</title>
<path fill="none" stroke="#444444" d="M525,-327.62C525,-308.09 525,-280 525,-280 525,-280 579.28,-280 579.28,-280"/>
<polygon fill="#444444" stroke="#444444" points="579.28,-283.5 589.28,-280 579.28,-276.5 579.28,-283.5"/>
</g>
<!-- max1b&#45;&gt;max1c -->
<g id="edge27" class="edge">
<title>max1b&#45;&gt;max1c</title>
<path fill="none" stroke="#444444" d="M619,-327.83C619,-327.83 619,-303.93 619,-303.93"/>
<polygon fill="#444444" stroke="#444444" points="622.5,-303.93 619,-293.93 615.5,-303.93 622.5,-303.93"/>
</g>
<!-- out1 -->
<g id="node21" class="node">
<title>out1</title>
<path fill="#d9ead3" stroke="#555555" d="M672,-220C672,-220 642,-220 642,-220 636,-220 630,-214 630,-208 630,-208 630,-196 630,-196 630,-190 636,-184 642,-184 642,-184 672,-184 672,-184 678,-184 684,-190 684,-196 684,-196 684,-208 684,-208 684,-214 678,-220 672,-220"/>
<text xml:space="preserve" text-anchor="middle" x="657" y="-198.5" font-family="Helvetica,sans-Serif" font-size="10.00">ret[1]</text>
</g>
<!-- max1c&#45;&gt;out1 -->
<g id="edge28" class="edge">
<title>max1c&#45;&gt;out1</title>
<path fill="none" stroke="#444444" d="M638.44,-255.83C638.44,-255.83 638.44,-231.93 638.44,-231.93"/>
<polygon fill="#444444" stroke="#444444" points="641.94,-231.93 638.44,-221.93 634.94,-231.93 641.94,-231.93"/>
</g>
<!-- out1&#45;&gt;outreg -->
<g id="edge47" class="edge">
<title>out1&#45;&gt;outreg</title>
<path fill="none" stroke="#444444" d="M684.38,-202C689.68,-202 693.62,-202 693.62,-202 693.62,-202 693.62,-159.9 693.62,-159.9"/>
<polygon fill="#444444" stroke="#444444" points="697.13,-159.9 693.63,-149.9 690.13,-159.91 697.13,-159.9"/>
</g>
<!-- dots&#45;&gt;outreg -->
<g id="edge48" class="edge">
<title>dots&#45;&gt;outreg</title>
<path fill="none" stroke="#444444" stroke-dasharray="5,2" d="M1086,-471.53C1086,-391.64 1086,-126 1086,-126 1086,-126 819.03,-126 819.03,-126"/>
<polygon fill="#444444" stroke="#444444" points="819.03,-122.5 809.03,-126 819.03,-129.5 819.03,-122.5"/>
</g>
<!-- add70 -->
<g id="node24" class="node">
<title>add70</title>
<path fill="#cfe2f3" stroke="#555555" d="M771.25,-436C771.25,-436 738.75,-436 738.75,-436 732.75,-436 726.75,-430 726.75,-424 726.75,-424 726.75,-412 726.75,-412 726.75,-406 732.75,-400 738.75,-400 738.75,-400 771.25,-400 771.25,-400 777.25,-400 783.25,-406 783.25,-412 783.25,-412 783.25,-424 783.25,-424 783.25,-430 777.25,-436 771.25,-436"/>
<text xml:space="preserve" text-anchor="middle" x="755" y="-414.5" font-family="Helvetica,sans-Serif" font-size="10.00">Adder P0</text>
</g>
<!-- mux7&#45;&gt;add70 -->
<g id="edge35" class="edge">
<title>mux7&#45;&gt;add70</title>
<path fill="none" stroke="#444444" d="M792.5,-475.6C792.5,-453.11 792.5,-418 792.5,-418 792.5,-418 791.59,-418 791.59,-418"/>
<polygon fill="#444444" stroke="#444444" points="794.94,-414.5 784.94,-418 794.94,-421.5 794.94,-414.5"/>
</g>
<!-- add71 -->
<g id="node25" class="node">
<title>add71</title>
<path fill="#cfe2f3" stroke="#555555" d="M846.25,-436C846.25,-436 813.75,-436 813.75,-436 807.75,-436 801.75,-430 801.75,-424 801.75,-424 801.75,-412 801.75,-412 801.75,-406 807.75,-400 813.75,-400 813.75,-400 846.25,-400 846.25,-400 852.25,-400 858.25,-406 858.25,-412 858.25,-412 858.25,-424 858.25,-424 858.25,-430 852.25,-436 846.25,-436"/>
<text xml:space="preserve" text-anchor="middle" x="830" y="-414.5" font-family="Helvetica,sans-Serif" font-size="10.00">Adder P1</text>
</g>
<!-- mux7&#45;&gt;add71 -->
<g id="edge36" class="edge">
<title>mux7&#45;&gt;add71</title>
<path fill="none" stroke="#444444" d="M830,-475.6C830,-475.6 830,-448.01 830,-448.01"/>
<polygon fill="#444444" stroke="#444444" points="833.5,-448 830,-438.01 826.5,-448.01 833.5,-448"/>
</g>
<!-- add72 -->
<g id="node26" class="node">
<title>add72</title>
<path fill="#cfe2f3" stroke="#555555" d="M921.25,-436C921.25,-436 888.75,-436 888.75,-436 882.75,-436 876.75,-430 876.75,-424 876.75,-424 876.75,-412 876.75,-412 876.75,-406 882.75,-400 888.75,-400 888.75,-400 921.25,-400 921.25,-400 927.25,-400 933.25,-406 933.25,-412 933.25,-412 933.25,-424 933.25,-424 933.25,-430 927.25,-436 921.25,-436"/>
<text xml:space="preserve" text-anchor="middle" x="905" y="-414.5" font-family="Helvetica,sans-Serif" font-size="10.00">Adder P2</text>
</g>
<!-- mux7&#45;&gt;add72 -->
<g id="edge37" class="edge">
<title>mux7&#45;&gt;add72</title>
<path fill="none" stroke="#444444" d="M867.5,-475.6C867.5,-453.11 867.5,-418 867.5,-418 867.5,-418 868.41,-418 868.41,-418"/>
<polygon fill="#444444" stroke="#444444" points="865.06,-421.5 875.06,-418 865.06,-414.5 865.06,-421.5"/>
</g>
<!-- add73 -->
<g id="node27" class="node">
<title>add73</title>
<path fill="#cfe2f3" stroke="#555555" d="M996.25,-436C996.25,-436 963.75,-436 963.75,-436 957.75,-436 951.75,-430 951.75,-424 951.75,-424 951.75,-412 951.75,-412 951.75,-406 957.75,-400 963.75,-400 963.75,-400 996.25,-400 996.25,-400 1002.25,-400 1008.25,-406 1008.25,-412 1008.25,-412 1008.25,-424 1008.25,-424 1008.25,-430 1002.25,-436 996.25,-436"/>
<text xml:space="preserve" text-anchor="middle" x="980" y="-414.5" font-family="Helvetica,sans-Serif" font-size="10.00">Adder P3</text>
</g>
<!-- mux7&#45;&gt;add73 -->
<g id="edge38" class="edge">
<title>mux7&#45;&gt;add73</title>
<path fill="none" stroke="#444444" d="M882.46,-488C925.72,-488 980,-488 980,-488 980,-488 980,-447.91 980,-447.91"/>
<polygon fill="#444444" stroke="#444444" points="983.5,-447.91 980,-437.91 976.5,-447.91 983.5,-447.91"/>
</g>
<!-- max7a -->
<g id="node28" class="node">
<title>max7a</title>
<path fill="#f4cccc" stroke="#555555" d="M807.88,-364C807.88,-364 776.12,-364 776.12,-364 770.12,-364 764.12,-358 764.12,-352 764.12,-352 764.12,-340 764.12,-340 764.12,-334 770.12,-328 776.12,-328 776.12,-328 807.88,-328 807.88,-328 813.88,-328 819.88,-334 819.88,-340 819.88,-340 819.88,-352 819.88,-352 819.88,-358 813.88,-364 807.88,-364"/>
<text xml:space="preserve" text-anchor="middle" x="792" y="-342.5" font-family="Helvetica,sans-Serif" font-size="10.00">Max2 C0</text>
</g>
<!-- add70&#45;&gt;max7a -->
<g id="edge39" class="edge">
<title>add70&#45;&gt;max7a</title>
<path fill="none" stroke="#444444" d="M773.69,-399.83C773.69,-399.83 773.69,-375.93 773.69,-375.93"/>
<polygon fill="#444444" stroke="#444444" points="777.19,-375.93 773.69,-365.93 770.19,-375.93 777.19,-375.93"/>
</g>
<!-- add71&#45;&gt;max7a -->
<g id="edge40" class="edge">
<title>add71&#45;&gt;max7a</title>
<path fill="none" stroke="#444444" d="M810.81,-399.83C810.81,-399.83 810.81,-375.93 810.81,-375.93"/>
<polygon fill="#444444" stroke="#444444" points="814.31,-375.93 810.81,-365.93 807.31,-375.93 814.31,-375.93"/>
</g>
<!-- max7b -->
<g id="node29" class="node">
<title>max7b</title>
<path fill="#f4cccc" stroke="#555555" d="M920.88,-364C920.88,-364 889.12,-364 889.12,-364 883.12,-364 877.12,-358 877.12,-352 877.12,-352 877.12,-340 877.12,-340 877.12,-334 883.12,-328 889.12,-328 889.12,-328 920.88,-328 920.88,-328 926.88,-328 932.88,-334 932.88,-340 932.88,-340 932.88,-352 932.88,-352 932.88,-358 926.88,-364 920.88,-364"/>
<text xml:space="preserve" text-anchor="middle" x="905" y="-342.5" font-family="Helvetica,sans-Serif" font-size="10.00">Max2 C1</text>
</g>
<!-- add72&#45;&gt;max7b -->
<g id="edge41" class="edge">
<title>add72&#45;&gt;max7b</title>
<path fill="none" stroke="#444444" d="M905,-399.83C905,-399.83 905,-375.93 905,-375.93"/>
<polygon fill="#444444" stroke="#444444" points="908.5,-375.93 905,-365.93 901.5,-375.93 908.5,-375.93"/>
</g>
<!-- add73&#45;&gt;max7b -->
<g id="edge42" class="edge">
<title>add73&#45;&gt;max7b</title>
<path fill="none" stroke="#444444" d="M980,-399.83C980,-378.5 980,-346 980,-346 980,-346 944.87,-346 944.87,-346"/>
<polygon fill="#444444" stroke="#444444" points="944.87,-342.5 934.87,-346 944.87,-349.5 944.87,-342.5"/>
</g>
<!-- max7c -->
<g id="node30" class="node">
<title>max7c</title>
<path fill="#f4cccc" stroke="#555555" d="M807.88,-292C807.88,-292 776.12,-292 776.12,-292 770.12,-292 764.12,-286 764.12,-280 764.12,-280 764.12,-268 764.12,-268 764.12,-262 770.12,-256 776.12,-256 776.12,-256 807.88,-256 807.88,-256 813.88,-256 819.88,-262 819.88,-268 819.88,-268 819.88,-280 819.88,-280 819.88,-286 813.88,-292 807.88,-292"/>
<text xml:space="preserve" text-anchor="middle" x="792" y="-270.5" font-family="Helvetica,sans-Serif" font-size="10.00">Max2 C2</text>
</g>
<!-- max7a&#45;&gt;max7c -->
<g id="edge43" class="edge">
<title>max7a&#45;&gt;max7c</title>
<path fill="none" stroke="#444444" d="M792,-327.83C792,-327.83 792,-303.93 792,-303.93"/>
<polygon fill="#444444" stroke="#444444" points="795.5,-303.93 792,-293.93 788.5,-303.93 795.5,-303.93"/>
</g>
<!-- max7b&#45;&gt;max7c -->
<g id="edge44" class="edge">
<title>max7b&#45;&gt;max7c</title>
<path fill="none" stroke="#444444" d="M905,-327.83C905,-306.5 905,-274 905,-274 905,-274 831.74,-274 831.74,-274"/>
<polygon fill="#444444" stroke="#444444" points="831.74,-270.5 821.74,-274 831.74,-277.5 831.74,-270.5"/>
</g>
<!-- out7 -->
<g id="node31" class="node">
<title>out7</title>
<path fill="#d9ead3" stroke="#555555" d="M788,-220C788,-220 758,-220 758,-220 752,-220 746,-214 746,-208 746,-208 746,-196 746,-196 746,-190 752,-184 758,-184 758,-184 788,-184 788,-184 794,-184 800,-190 800,-196 800,-196 800,-208 800,-208 800,-214 794,-220 788,-220"/>
<text xml:space="preserve" text-anchor="middle" x="773" y="-198.5" font-family="Helvetica,sans-Serif" font-size="10.00">ret[7]</text>
</g>
<!-- max7c&#45;&gt;out7 -->
<g id="edge45" class="edge">
<title>max7c&#45;&gt;out7</title>
<path fill="none" stroke="#444444" d="M782.06,-255.83C782.06,-255.83 782.06,-231.93 782.06,-231.93"/>
<polygon fill="#444444" stroke="#444444" points="785.56,-231.93 782.06,-221.93 778.56,-231.93 785.56,-231.93"/>
</g>
<!-- out7&#45;&gt;outreg -->
<g id="edge49" class="edge">
<title>out7&#45;&gt;outreg</title>
<path fill="none" stroke="#444444" d="M773,-183.6C773,-183.6 773,-159.81 773,-159.81"/>
<polygon fill="#444444" stroke="#444444" points="776.5,-159.81 773,-149.81 769.5,-159.81 776.5,-159.81"/>
</g>
<!-- note -->
<g id="node33" class="node">
<title>note</title>
<polygon fill="#fff2cc" stroke="#555555" points="839.88,-68 640.12,-68 640.12,0 845.88,0 845.88,-62 839.88,-68"/>
<polyline fill="none" stroke="#555555" points="839.88,-68 839.88,-62"/>
<polyline fill="none" stroke="#555555" points="845.88,-62 839.88,-62"/>
<text xml:space="preserve" text-anchor="middle" x="743" y="-54.5" font-family="Helvetica,sans-Serif" font-size="10.00">Full ACS totals</text>
<text xml:space="preserve" text-anchor="middle" x="743" y="-42.5" font-family="Helvetica,sans-Serif" font-size="10.00">8 state cells</text>
<text xml:space="preserve" text-anchor="middle" x="743" y="-30.5" font-family="Helvetica,sans-Serif" font-size="10.00">32 adders</text>
<text xml:space="preserve" text-anchor="middle" x="743" y="-18.5" font-family="Helvetica,sans-Serif" font-size="10.00">24 compare&#45;select units</text>
<text xml:space="preserve" text-anchor="middle" x="743" y="-6.5" font-family="Helvetica,sans-Serif" font-size="10.00">shared by forward and backward recursions</text>
</g>
<!-- outreg&#45;&gt;note -->
<g id="edge50" class="edge">
<title>outreg&#45;&gt;note</title>
<path fill="none" stroke="#444444" d="M743,-103.73C743,-103.73 743,-79.79 743,-79.79"/>
<polygon fill="#444444" stroke="#444444" points="746.5,-79.79 743,-69.79 739.5,-79.79 746.5,-79.79"/>
</g>
</g>
</svg>
