<?xml version="1.0" encoding="UTF-8" standalone="no"?>
<!DOCTYPE svg PUBLIC "-//W3C//DTD SVG 1.1//EN"
 "http://www.w3.org/Graphics/SVG/1.1/DTD/svg11.dtd">
<!-- Generated by graphviz version 14.1.2 (0)
 -->
<!-- Title: G Pages: 1 -->
<svg width="809pt" height="793pt"
 viewBox="0.00 0.00 809.00 793.00" xmlns="http://www.w3.org/2000/svg" xmlns:xlink="http://www.w3.org/1999/xlink">
<g id="graph0" class="graph" transform="scale(1 1) rotate(0) translate(4 789)">
<title>G</title>
<polygon fill="white" stroke="none" points="-4,4 -4,-789 805,-789 805,4 -4,4"/>
<text xml:space="preserve" text-anchor="middle" x="400.5" y="-762" font-family="Helvetica,sans-Serif" font-size="20.00">siso_maxlogmap &#45; Gamma Metric Unit, Cell Level</text>
<g id="clust1" class="cluster">
<title>cluster_bm0</title>
<path fill="none" stroke="#93c47d" d="M20,-275.25C20,-275.25 466,-275.25 466,-275.25 472,-275.25 478,-281.25 478,-287.25 478,-287.25 478,-689.75 478,-689.75 478,-695.75 472,-701.75 466,-701.75 466,-701.75 20,-701.75 20,-701.75 14,-701.75 8,-695.75 8,-689.75 8,-689.75 8,-287.25 8,-287.25 8,-281.25 14,-275.25 20,-275.25"/>
<text xml:space="preserve" text-anchor="middle" x="243" y="-678.75" font-family="Helvetica,sans-Serif" font-size="20.00">Branch&#45;metric cell g0 (cell 1 of 2)</text>
</g>
<g id="clust2" class="cluster">
<title>cluster_bm1</title>
<path fill="none" stroke="#93c47d" d="M498,-275.25C498,-275.25 781,-275.25 781,-275.25 787,-275.25 793,-281.25 793,-287.25 793,-287.25 793,-446.5 793,-446.5 793,-452.5 787,-458.5 781,-458.5 781,-458.5 498,-458.5 498,-458.5 492,-458.5 486,-452.5 486,-446.5 486,-446.5 486,-287.25 486,-287.25 486,-281.25 492,-275.25 498,-275.25"/>
<text xml:space="preserve" text-anchor="middle" x="639.5" y="-435.5" font-family="Helvetica,sans-Serif" font-size="20.00">Branch&#45;metric cell g1 (cell 2 of 2)</text>
</g>
<g id="clust3" class="cluster">
<title>cluster_gamma</title>
<path fill="none" stroke="#6fa8dc" d="M220,-96C220,-96 645,-96 645,-96 651,-96 657,-102 657,-108 657,-108 657,-255.25 657,-255.25 657,-261.25 651,-267.25 645,-267.25 645,-267.25 220,-267.25 220,-267.25 214,-267.25 208,-261.25 208,-255.25 208,-255.25 208,-108 208,-108 208,-102 214,-96 220,-96"/>
<text xml:space="preserve" text-anchor="middle" x="432.5" y="-244.25" font-family="Helvetica,sans-Serif" font-size="20.00">Pair&#45;gamma combiner</text>
</g>
<!-- in0 -->
<g id="node1" class="node">
<title>in0</title>
<path fill="#d9ead3" stroke="#555555" d="M290.88,-753.75C290.88,-753.75 163.12,-753.75 163.12,-753.75 157.12,-753.75 151.12,-747.75 151.12,-741.75 151.12,-741.75 151.12,-721.75 151.12,-721.75 151.12,-715.75 157.12,-709.75 163.12,-709.75 163.12,-709.75 290.88,-709.75 290.88,-709.75 296.88,-709.75 302.88,-715.75 302.88,-721.75 302.88,-721.75 302.88,-741.75 302.88,-741.75 302.88,-747.75 296.88,-753.75 290.88,-753.75"/>
<text xml:space="preserve" text-anchor="middle" x="227" y="-740.25" font-family="Helvetica,sans-Serif" font-size="10.00">Even&#45;step inputs</text>
<text xml:space="preserve" text-anchor="middle" x="227" y="-728.25" font-family="Helvetica,sans-Serif" font-size="10.00">sys_even, par_even, apri_even</text>
<text xml:space="preserve" text-anchor="middle" x="227" y="-716.25" font-family="Helvetica,sans-Serif" font-size="10.00">5b, 5b, 6b</text>
</g>
<!-- bm0pol -->
<g id="node3" class="node">
<title>bm0pol</title>
<path fill="#fff2cc" stroke="#555555" d="M283,-662.5C283,-662.5 171,-662.5 171,-662.5 165,-662.5 159,-656.5 159,-650.5 159,-650.5 159,-638.5 159,-638.5 159,-632.5 165,-626.5 171,-626.5 171,-626.5 283,-626.5 283,-626.5 289,-626.5 295,-632.5 295,-638.5 295,-638.5 295,-650.5 295,-650.5 295,-656.5 289,-662.5 283,-662.5"/>
<text xml:space="preserve" text-anchor="middle" x="227" y="-647" font-family="Helvetica,sans-Serif" font-size="10.00">Polarity generation</text>
<text xml:space="preserve" text-anchor="middle" x="227" y="-635" font-family="Helvetica,sans-Serif" font-size="10.00">plus and minus sys/apri/par</text>
</g>
<!-- in0&#45;&gt;bm0pol -->
<g id="edge1" class="edge">
<title>in0&#45;&gt;bm0pol</title>
<path fill="none" stroke="#444444" d="M227,-709.28C227,-709.28 227,-674.3 227,-674.3"/>
<polygon fill="#444444" stroke="#444444" points="230.5,-674.3 227,-664.3 223.5,-674.3 230.5,-674.3"/>
</g>
<!-- in1 -->
<g id="node2" class="node">
<title>in1</title>
<path fill="#d9ead3" stroke="#555555" d="M625,-510.5C625,-510.5 513,-510.5 513,-510.5 507,-510.5 501,-504.5 501,-498.5 501,-498.5 501,-478.5 501,-478.5 501,-472.5 507,-466.5 513,-466.5 513,-466.5 625,-466.5 625,-466.5 631,-466.5 637,-472.5 637,-478.5 637,-478.5 637,-498.5 637,-498.5 637,-504.5 631,-510.5 625,-510.5"/>
<text xml:space="preserve" text-anchor="middle" x="569" y="-497" font-family="Helvetica,sans-Serif" font-size="10.00">Odd&#45;step inputs</text>
<text xml:space="preserve" text-anchor="middle" x="569" y="-485" font-family="Helvetica,sans-Serif" font-size="10.00">sys_odd, par_odd, apri_odd</text>
<text xml:space="preserve" text-anchor="middle" x="569" y="-473" font-family="Helvetica,sans-Serif" font-size="10.00">5b, 5b, 6b</text>
</g>
<!-- bm1sum -->
<g id="node15" class="node">
<title>bm1sum</title>
<path fill="#cfe2f3" stroke="#555555" d="M614.5,-419.25C614.5,-419.25 523.5,-419.25 523.5,-419.25 517.5,-419.25 511.5,-413.25 511.5,-407.25 511.5,-407.25 511.5,-375.25 511.5,-375.25 511.5,-369.25 517.5,-363.25 523.5,-363.25 523.5,-363.25 614.5,-363.25 614.5,-363.25 620.5,-363.25 626.5,-369.25 626.5,-375.25 626.5,-375.25 626.5,-407.25 626.5,-407.25 626.5,-413.25 620.5,-419.25 614.5,-419.25"/>
<text xml:space="preserve" text-anchor="middle" x="569" y="-405.75" font-family="Helvetica,sans-Serif" font-size="10.00">Same structure as g0</text>
<text xml:space="preserve" text-anchor="middle" x="569" y="-393.75" font-family="Helvetica,sans-Serif" font-size="10.00">2 first&#45;stage adders</text>
<text xml:space="preserve" text-anchor="middle" x="569" y="-381.75" font-family="Helvetica,sans-Serif" font-size="10.00">4 second&#45;stage adders</text>
<text xml:space="preserve" text-anchor="middle" x="569" y="-369.75" font-family="Helvetica,sans-Serif" font-size="10.00">4 shifters</text>
</g>
<!-- in1&#45;&gt;bm1sum -->
<g id="edge16" class="edge">
<title>in1&#45;&gt;bm1sum</title>
<path fill="none" stroke="#444444" d="M569,-466.43C569,-466.43 569,-431.03 569,-431.03"/>
<polygon fill="#444444" stroke="#444444" points="572.5,-431.03 569,-421.03 565.5,-431.03 572.5,-431.03"/>
</g>
<!-- bm0a -->
<g id="node4" class="node">
<title>bm0a</title>
<path fill="#cfe2f3" stroke="#555555" d="M178.75,-590.5C178.75,-590.5 143.25,-590.5 143.25,-590.5 137.25,-590.5 131.25,-584.5 131.25,-578.5 131.25,-578.5 131.25,-558.5 131.25,-558.5 131.25,-552.5 137.25,-546.5 143.25,-546.5 143.25,-546.5 178.75,-546.5 178.75,-546.5 184.75,-546.5 190.75,-552.5 190.75,-558.5 190.75,-558.5 190.75,-578.5 190.75,-578.5 190.75,-584.5 184.75,-590.5 178.75,-590.5"/>
<text xml:space="preserve" text-anchor="middle" x="161" y="-577" font-family="Helvetica,sans-Serif" font-size="10.00">Adder A0</text>
<text xml:space="preserve" text-anchor="middle" x="161" y="-565" font-family="Helvetica,sans-Serif" font-size="10.00">sys + apri</text>
<text xml:space="preserve" text-anchor="middle" x="161" y="-553" font-family="Helvetica,sans-Serif" font-size="10.00">10b</text>
</g>
<!-- bm0pol&#45;&gt;bm0a -->
<g id="edge2" class="edge">
<title>bm0pol&#45;&gt;bm0a</title>
<path fill="none" stroke="#444444" d="M174.88,-626.1C174.88,-626.1 174.88,-602.31 174.88,-602.31"/>
<polygon fill="#444444" stroke="#444444" points="178.38,-602.31 174.88,-592.31 171.38,-602.31 178.38,-602.31"/>
</g>
<!-- bm0b -->
<g id="node5" class="node">
<title>bm0b</title>
<path fill="#cfe2f3" stroke="#555555" d="M319.75,-590.5C319.75,-590.5 266.25,-590.5 266.25,-590.5 260.25,-590.5 254.25,-584.5 254.25,-578.5 254.25,-578.5 254.25,-558.5 254.25,-558.5 254.25,-552.5 260.25,-546.5 266.25,-546.5 266.25,-546.5 319.75,-546.5 319.75,-546.5 325.75,-546.5 331.75,-552.5 331.75,-558.5 331.75,-558.5 331.75,-578.5 331.75,-578.5 331.75,-584.5 325.75,-590.5 319.75,-590.5"/>
<text xml:space="preserve" text-anchor="middle" x="293" y="-577" font-family="Helvetica,sans-Serif" font-size="10.00">Adder A1</text>
<text xml:space="preserve" text-anchor="middle" x="293" y="-565" font-family="Helvetica,sans-Serif" font-size="10.00">(&#45;sys) + (&#45;apri)</text>
<text xml:space="preserve" text-anchor="middle" x="293" y="-553" font-family="Helvetica,sans-Serif" font-size="10.00">10b</text>
</g>
<!-- bm0pol&#45;&gt;bm0b -->
<g id="edge3" class="edge">
<title>bm0pol&#45;&gt;bm0b</title>
<path fill="none" stroke="#444444" d="M274.62,-626.1C274.62,-626.1 274.62,-602.31 274.62,-602.31"/>
<polygon fill="#444444" stroke="#444444" points="278.13,-602.31 274.63,-592.31 271.13,-602.31 278.13,-602.31"/>
</g>
<!-- bm0c0 -->
<g id="node6" class="node">
<title>bm0c0</title>
<path fill="#cfe2f3" stroke="#555555" d="M85.62,-506.5C85.62,-506.5 28.38,-506.5 28.38,-506.5 22.38,-506.5 16.38,-500.5 16.38,-494.5 16.38,-494.5 16.38,-482.5 16.38,-482.5 16.38,-476.5 22.38,-470.5 28.38,-470.5 28.38,-470.5 85.62,-470.5 85.62,-470.5 91.62,-470.5 97.62,-476.5 97.62,-482.5 97.62,-482.5 97.62,-494.5 97.62,-494.5 97.62,-500.5 91.62,-506.5 85.62,-506.5"/>
<text xml:space="preserve" text-anchor="middle" x="57" y="-491" font-family="Helvetica,sans-Serif" font-size="10.00">Adder A2</text>
<text xml:space="preserve" text-anchor="middle" x="57" y="-479" font-family="Helvetica,sans-Serif" font-size="10.00">sum_pos + par</text>
</g>
<!-- bm0a&#45;&gt;bm0c0 -->
<g id="edge4" class="edge">
<title>bm0a&#45;&gt;bm0c0</title>
<path fill="none" stroke="#444444" d="M130.92,-569C100.2,-569 57,-569 57,-569 57,-569 57,-518.28 57,-518.28"/>
<polygon fill="#444444" stroke="#444444" points="60.5,-518.28 57,-508.28 53.5,-518.28 60.5,-518.28"/>
</g>
<!-- bm0c1 -->
<g id="node7" class="node">
<title>bm0c1</title>
<path fill="#cfe2f3" stroke="#555555" d="M194.12,-506.5C194.12,-506.5 127.88,-506.5 127.88,-506.5 121.88,-506.5 115.88,-500.5 115.88,-494.5 115.88,-494.5 115.88,-482.5 115.88,-482.5 115.88,-476.5 121.88,-470.5 127.88,-470.5 127.88,-470.5 194.12,-470.5 194.12,-470.5 200.12,-470.5 206.12,-476.5 206.12,-482.5 206.12,-482.5 206.12,-494.5 206.12,-494.5 206.12,-500.5 200.12,-506.5 194.12,-506.5"/>
<text xml:space="preserve" text-anchor="middle" x="161" y="-491" font-family="Helvetica,sans-Serif" font-size="10.00">Adder A3</text>
<text xml:space="preserve" text-anchor="middle" x="161" y="-479" font-family="Helvetica,sans-Serif" font-size="10.00">sum_pos + (&#45;par)</text>
</g>
<!-- bm0a&#45;&gt;bm0c1 -->
<g id="edge5" class="edge">
<title>bm0a&#45;&gt;bm0c1</title>
<path fill="none" stroke="#444444" d="M161,-546.22C161,-546.22 161,-518.4 161,-518.4"/>
<polygon fill="#444444" stroke="#444444" points="164.5,-518.4 161,-508.4 157.5,-518.4 164.5,-518.4"/>
</g>
<!-- bm0dots -->
<g id="node8" class="node">
<title>bm0dots</title>
<path fill="#eeeeee" stroke="#555555" d="M349.38,-506.5C349.38,-506.5 236.62,-506.5 236.62,-506.5 230.62,-506.5 224.62,-500.5 224.62,-494.5 224.62,-494.5 224.62,-482.5 224.62,-482.5 224.62,-476.5 230.62,-470.5 236.62,-470.5 236.62,-470.5 349.38,-470.5 349.38,-470.5 355.38,-470.5 361.38,-476.5 361.38,-482.5 361.38,-482.5 361.38,-494.5 361.38,-494.5 361.38,-500.5 355.38,-506.5 349.38,-506.5"/>
<text xml:space="preserve" text-anchor="middle" x="293" y="-491" font-family="Helvetica,sans-Serif" font-size="10.00">...</text>
<text xml:space="preserve" text-anchor="middle" x="293" y="-479" font-family="Helvetica,sans-Serif" font-size="10.00">4 second&#45;stage adders total</text>
</g>
<!-- bm0b&#45;&gt;bm0dots -->
<g id="edge6" class="edge">
<title>bm0b&#45;&gt;bm0dots</title>
<path fill="none" stroke="#444444" d="M293,-546.22C293,-546.22 293,-518.4 293,-518.4"/>
<polygon fill="#444444" stroke="#444444" points="296.5,-518.4 293,-508.4 289.5,-518.4 296.5,-518.4"/>
</g>
<!-- bm0c3 -->
<g id="node9" class="node">
<title>bm0c3</title>
<path fill="#cfe2f3" stroke="#555555" d="M458.12,-506.5C458.12,-506.5 391.88,-506.5 391.88,-506.5 385.88,-506.5 379.88,-500.5 379.88,-494.5 379.88,-494.5 379.88,-482.5 379.88,-482.5 379.88,-476.5 385.88,-470.5 391.88,-470.5 391.88,-470.5 458.12,-470.5 458.12,-470.5 464.12,-470.5 470.12,-476.5 470.12,-482.5 470.12,-482.5 470.12,-494.5 470.12,-494.5 470.12,-500.5 464.12,-506.5 458.12,-506.5"/>
<text xml:space="preserve" text-anchor="middle" x="425" y="-491" font-family="Helvetica,sans-Serif" font-size="10.00">Adder A5</text>
<text xml:space="preserve" text-anchor="middle" x="425" y="-479" font-family="Helvetica,sans-Serif" font-size="10.00">sum_neg + (&#45;par)</text>
</g>
<!-- bm0b&#45;&gt;bm0c3 -->
<g id="edge7" class="edge">
<title>bm0b&#45;&gt;bm0c3</title>
<path fill="none" stroke="#444444" d="M332.25,-569C371.16,-569 425,-569 425,-569 425,-569 425,-518.28 425,-518.28"/>
<polygon fill="#444444" stroke="#444444" points="428.5,-518.28 425,-508.28 421.5,-518.28 428.5,-518.28"/>
</g>
<!-- bm0s0 -->
<g id="node10" class="node">
<title>bm0s0</title>
<path fill="#fce5cd" stroke="#555555" d="M102,-409.25C102,-409.25 56,-409.25 56,-409.25 50,-409.25 44,-403.25 44,-397.25 44,-397.25 44,-385.25 44,-385.25 44,-379.25 50,-373.25 56,-373.25 56,-373.25 102,-373.25 102,-373.25 108,-373.25 114,-379.25 114,-385.25 114,-385.25 114,-397.25 114,-397.25 114,-403.25 108,-409.25 102,-409.25"/>
<text xml:space="preserve" text-anchor="middle" x="79" y="-393.75" font-family="Helvetica,sans-Serif" font-size="10.00">Shift by 1</text>
<text xml:space="preserve" text-anchor="middle" x="79" y="-381.75" font-family="Helvetica,sans-Serif" font-size="10.00">branch g0[0]</text>
</g>
<!-- bm0c0&#45;&gt;bm0s0 -->
<g id="edge8" class="edge">
<title>bm0c0&#45;&gt;bm0s0</title>
<path fill="none" stroke="#444444" d="M70.81,-470.21C70.81,-470.21 70.81,-420.97 70.81,-420.97"/>
<polygon fill="#444444" stroke="#444444" points="74.31,-420.97 70.81,-410.97 67.31,-420.97 74.31,-420.97"/>
</g>
<!-- bm0s1 -->
<g id="node11" class="node">
<title>bm0s1</title>
<path fill="#fce5cd" stroke="#555555" d="M201,-409.25C201,-409.25 167,-409.25 167,-409.25 161,-409.25 155,-403.25 155,-397.25 155,-397.25 155,-385.25 155,-385.25 155,-379.25 161,-373.25 167,-373.25 167,-373.25 201,-373.25 201,-373.25 207,-373.25 213,-379.25 213,-385.25 213,-385.25 213,-397.25 213,-397.25 213,-403.25 207,-409.25 201,-409.25"/>
<text xml:space="preserve" text-anchor="middle" x="184" y="-393.75" font-family="Helvetica,sans-Serif" font-size="10.00">Shift by 1</text>
<text xml:space="preserve" text-anchor="middle" x="184" y="-381.75" font-family="Helvetica,sans-Serif" font-size="10.00">g0[1]</text>
</g>
<!-- bm0c1&#45;&gt;bm0s1 -->
<g id="edge9" class="edge">
<title>bm0c1&#45;&gt;bm0s1</title>
<path fill="none" stroke="#444444" d="M180.56,-470.21C180.56,-470.21 180.56,-420.97 180.56,-420.97"/>
<polygon fill="#444444" stroke="#444444" points="184.06,-420.97 180.56,-410.97 177.06,-420.97 184.06,-420.97"/>
</g>
<!-- bm0sd -->
<g id="node12" class="node">
<title>bm0sd</title>
<path fill="#eeeeee" stroke="#555555" d="M331.12,-409.25C331.12,-409.25 276.88,-409.25 276.88,-409.25 270.88,-409.25 264.88,-403.25 264.88,-397.25 264.88,-397.25 264.88,-385.25 264.88,-385.25 264.88,-379.25 270.88,-373.25 276.88,-373.25 276.88,-373.25 331.12,-373.25 331.12,-373.25 337.12,-373.25 343.12,-379.25 343.12,-385.25 343.12,-385.25 343.12,-397.25 343.12,-397.25 343.12,-403.25 337.12,-409.25 331.12,-409.25"/>
<text xml:space="preserve" text-anchor="middle" x="304" y="-393.75" font-family="Helvetica,sans-Serif" font-size="10.00">...</text>
<text xml:space="preserve" text-anchor="middle" x="304" y="-381.75" font-family="Helvetica,sans-Serif" font-size="10.00">4 shifters total</text>
</g>
<!-- bm0dots&#45;&gt;bm0sd -->
<g id="edge10" class="edge">
<title>bm0dots&#45;&gt;bm0sd</title>
<path fill="none" stroke="#444444" d="M304,-470.21C304,-470.21 304,-420.97 304,-420.97"/>
<polygon fill="#444444" stroke="#444444" points="307.5,-420.97 304,-410.97 300.5,-420.97 307.5,-420.97"/>
</g>
<!-- bm0s3 -->
<g id="node13" class="node">
<title>bm0s3</title>
<path fill="#fce5cd" stroke="#555555" d="M430,-409.25C430,-409.25 396,-409.25 396,-409.25 390,-409.25 384,-403.25 384,-397.25 384,-397.25 384,-385.25 384,-385.25 384,-379.25 390,-373.25 396,-373.25 396,-373.25 430,-373.25 430,-373.25 436,-373.25 442,-379.25 442,-385.25 442,-385.25 442,-397.25 442,-397.25 442,-403.25 436,-409.25 430,-409.25"/>
<text xml:space="preserve" text-anchor="middle" x="413" y="-393.75" font-family="Helvetica,sans-Serif" font-size="10.00">Shift by 1</text>
<text xml:space="preserve" text-anchor="middle" x="413" y="-381.75" font-family="Helvetica,sans-Serif" font-size="10.00">g0[3]</text>
</g>
<!-- bm0c3&#45;&gt;bm0s3 -->
<g id="edge11" class="edge">
<title>bm0c3&#45;&gt;bm0s3</title>
<path fill="none" stroke="#444444" d="M413,-470.21C413,-470.21 413,-420.97 413,-420.97"/>
<polygon fill="#444444" stroke="#444444" points="416.5,-420.97 413,-410.97 409.5,-420.97 416.5,-420.97"/>
</g>
<!-- bm0reg -->
<g id="node14" class="node">
<title>bm0reg</title>
<path fill="#ead1dc" stroke="#555555" d="M401.75,-327.25C401.75,-327.25 276.25,-327.25 276.25,-327.25 270.25,-327.25 264.25,-321.25 264.25,-315.25 264.25,-315.25 264.25,-295.25 264.25,-295.25 264.25,-289.25 270.25,-283.25 276.25,-283.25 276.25,-283.25 401.75,-283.25 401.75,-283.25 407.75,-283.25 413.75,-289.25 413.75,-295.25 413.75,-295.25 413.75,-315.25 413.75,-315.25 413.75,-321.25 407.75,-327.25 401.75,-327.25"/>
<text xml:space="preserve" text-anchor="middle" x="339" y="-313.75" font-family="Helvetica,sans-Serif" font-size="10.00">Write local branch word</text>
<text xml:space="preserve" text-anchor="middle" x="339" y="-301.75" font-family="Helvetica,sans-Serif" font-size="10.00">g0_local_mem[work_local_idx]</text>
<text xml:space="preserve" text-anchor="middle" x="339" y="-289.75" font-family="Helvetica,sans-Serif" font-size="10.00">4 x 10b</text>
</g>
<!-- bm0s0&#45;&gt;bm0reg -->
<g id="edge12" class="edge">
<title>bm0s0&#45;&gt;bm0reg</title>
<path fill="none" stroke="#444444" d="M79,-372.83C79,-345.65 79,-298 79,-298 79,-298 252.28,-298 252.28,-298"/>
<polygon fill="#444444" stroke="#444444" points="252.28,-301.5 262.28,-298 252.28,-294.5 252.28,-301.5"/>
</g>
<!-- bm0s1&#45;&gt;bm0reg -->
<g id="edge13" class="edge">
<title>bm0s1&#45;&gt;bm0reg</title>
<path fill="none" stroke="#444444" d="M184,-373.1C184,-349.99 184,-313 184,-313 184,-313 252.26,-313 252.26,-313"/>
<polygon fill="#444444" stroke="#444444" points="252.26,-316.5 262.26,-313 252.26,-309.5 252.26,-316.5"/>
</g>
<!-- bm0sd&#45;&gt;bm0reg -->
<g id="edge14" class="edge">
<title>bm0sd&#45;&gt;bm0reg</title>
<path fill="none" stroke="#444444" d="M304,-373.01C304,-373.01 304,-339.26 304,-339.26"/>
<polygon fill="#444444" stroke="#444444" points="307.5,-339.26 304,-329.26 300.5,-339.26 307.5,-339.26"/>
</g>
<!-- bm0s3&#45;&gt;bm0reg -->
<g id="edge15" class="edge">
<title>bm0s3&#45;&gt;bm0reg</title>
<path fill="none" stroke="#444444" d="M398.88,-373.01C398.88,-373.01 398.88,-339.26 398.88,-339.26"/>
<polygon fill="#444444" stroke="#444444" points="402.38,-339.26 398.88,-329.26 395.38,-339.26 402.38,-339.26"/>
</g>
<!-- gadd0 -->
<g id="node17" class="node">
<title>gadd0</title>
<path fill="#cfe2f3" stroke="#555555" d="M289.88,-228C289.88,-228 228.12,-228 228.12,-228 222.12,-228 216.12,-222 216.12,-216 216.12,-216 216.12,-196 216.12,-196 216.12,-190 222.12,-184 228.12,-184 228.12,-184 289.88,-184 289.88,-184 295.88,-184 301.88,-190 301.88,-196 301.88,-196 301.88,-216 301.88,-216 301.88,-222 295.88,-228 289.88,-228"/>
<text xml:space="preserve" text-anchor="middle" x="259" y="-214.5" font-family="Helvetica,sans-Serif" font-size="10.00">Gamma adder 0</text>
<text xml:space="preserve" text-anchor="middle" x="259" y="-202.5" font-family="Helvetica,sans-Serif" font-size="10.00">g0[0] + g1[0]</text>
<text xml:space="preserve" text-anchor="middle" x="259" y="-190.5" font-family="Helvetica,sans-Serif" font-size="10.00">10b</text>
</g>
<!-- bm0reg&#45;&gt;gadd0 -->
<g id="edge18" class="edge">
<title>bm0reg&#45;&gt;gadd0</title>
<path fill="none" stroke="#444444" d="M276.79,-283.22C276.79,-283.22 276.79,-239.82 276.79,-239.82"/>
<polygon fill="#444444" stroke="#444444" points="280.29,-239.82 276.79,-229.82 273.29,-239.82 280.29,-239.82"/>
</g>
<!-- gadd1 -->
<g id="node18" class="node">
<title>gadd1</title>
<path fill="#cfe2f3" stroke="#555555" d="M393.88,-228C393.88,-228 332.12,-228 332.12,-228 326.12,-228 320.12,-222 320.12,-216 320.12,-216 320.12,-196 320.12,-196 320.12,-190 326.12,-184 332.12,-184 332.12,-184 393.88,-184 393.88,-184 399.88,-184 405.88,-190 405.88,-196 405.88,-196 405.88,-216 405.88,-216 405.88,-222 399.88,-228 393.88,-228"/>
<text xml:space="preserve" text-anchor="middle" x="363" y="-214.5" font-family="Helvetica,sans-Serif" font-size="10.00">Gamma adder 1</text>
<text xml:space="preserve" text-anchor="middle" x="363" y="-202.5" font-family="Helvetica,sans-Serif" font-size="10.00">g0[0] + g1[1]</text>
<text xml:space="preserve" text-anchor="middle" x="363" y="-190.5" font-family="Helvetica,sans-Serif" font-size="10.00">10b</text>
</g>
<!-- bm0reg&#45;&gt;gadd1 -->
<g id="edge19" class="edge">
<title>bm0reg&#45;&gt;gadd1</title>
<path fill="none" stroke="#444444" d="M363,-283.22C363,-283.22 363,-239.82 363,-239.82"/>
<polygon fill="#444444" stroke="#444444" points="366.5,-239.82 363,-229.82 359.5,-239.82 366.5,-239.82"/>
</g>
<!-- gdots -->
<g id="node19" class="node">
<title>gdots</title>
<path fill="#eeeeee" stroke="#555555" d="M527.88,-224C527.88,-224 436.12,-224 436.12,-224 430.12,-224 424.12,-218 424.12,-212 424.12,-212 424.12,-200 424.12,-200 424.12,-194 430.12,-188 436.12,-188 436.12,-188 527.88,-188 527.88,-188 533.88,-188 539.88,-194 539.88,-200 539.88,-200 539.88,-212 539.88,-212 539.88,-218 533.88,-224 527.88,-224"/>
<text xml:space="preserve" text-anchor="middle" x="482" y="-208.5" font-family="Helvetica,sans-Serif" font-size="10.00">...</text>
<text xml:space="preserve" text-anchor="middle" x="482" y="-196.5" font-family="Helvetica,sans-Serif" font-size="10.00">16 gamma adders total</text>
</g>
<!-- bm0reg&#45;&gt;gdots -->
<g id="edge20" class="edge">
<title>bm0reg&#45;&gt;gdots</title>
<path fill="none" stroke="#444444" d="M411.12,-282.93C411.12,-252.03 411.12,-200 411.12,-200 411.12,-200 412.39,-200 412.39,-200"/>
<polygon fill="#444444" stroke="#444444" points="412.28,-203.5 422.28,-200 412.28,-196.5 412.28,-203.5"/>
</g>
<!-- gadd15 -->
<g id="node20" class="node">
<title>gadd15</title>
<path fill="#cfe2f3" stroke="#555555" d="M636.5,-228C636.5,-228 569.5,-228 569.5,-228 563.5,-228 557.5,-222 557.5,-216 557.5,-216 557.5,-196 557.5,-196 557.5,-190 563.5,-184 569.5,-184 569.5,-184 636.5,-184 636.5,-184 642.5,-184 648.5,-190 648.5,-196 648.5,-196 648.5,-216 648.5,-216 648.5,-222 642.5,-228 636.5,-228"/>
<text xml:space="preserve" text-anchor="middle" x="603" y="-214.5" font-family="Helvetica,sans-Serif" font-size="10.00">Gamma adder 15</text>
<text xml:space="preserve" text-anchor="middle" x="603" y="-202.5" font-family="Helvetica,sans-Serif" font-size="10.00">g0[3] + g1[3]</text>
<text xml:space="preserve" text-anchor="middle" x="603" y="-190.5" font-family="Helvetica,sans-Serif" font-size="10.00">10b</text>
</g>
<!-- bm0reg&#45;&gt;gadd15 -->
<g id="edge21" class="edge">
<title>bm0reg&#45;&gt;gadd15</title>
<path fill="none" stroke="#444444" d="M408.5,-282.85C408.5,-266.07 408.5,-246 408.5,-246 408.5,-246 586.25,-246 586.25,-246 586.25,-246 586.25,-239.85 586.25,-239.85"/>
<polygon fill="#444444" stroke="#444444" points="589.75,-239.85 586.25,-229.85 582.75,-239.85 589.75,-239.85"/>
</g>
<!-- bm1reg -->
<g id="node16" class="node">
<title>bm1reg</title>
<path fill="#ead1dc" stroke="#555555" d="M631.75,-327.25C631.75,-327.25 506.25,-327.25 506.25,-327.25 500.25,-327.25 494.25,-321.25 494.25,-315.25 494.25,-315.25 494.25,-295.25 494.25,-295.25 494.25,-289.25 500.25,-283.25 506.25,-283.25 506.25,-283.25 631.75,-283.25 631.75,-283.25 637.75,-283.25 643.75,-289.25 643.75,-295.25 643.75,-295.25 643.75,-315.25 643.75,-315.25 643.75,-321.25 637.75,-327.25 631.75,-327.25"/>
<text xml:space="preserve" text-anchor="middle" x="569" y="-313.75" font-family="Helvetica,sans-Serif" font-size="10.00">Write local branch word</text>
<text xml:space="preserve" text-anchor="middle" x="569" y="-301.75" font-family="Helvetica,sans-Serif" font-size="10.00">g1_local_mem[work_local_idx]</text>
<text xml:space="preserve" text-anchor="middle" x="569" y="-289.75" font-family="Helvetica,sans-Serif" font-size="10.00">4 x 10b</text>
</g>
<!-- bm1sum&#45;&gt;bm1reg -->
<g id="edge17" class="edge">
<title>bm1sum&#45;&gt;bm1reg</title>
<path fill="none" stroke="#444444" d="M569,-363.09C569,-363.09 569,-338.99 569,-338.99"/>
<polygon fill="#444444" stroke="#444444" points="572.5,-338.99 569,-328.99 565.5,-338.99 572.5,-338.99"/>
</g>
<!-- bm1reg&#45;&gt;gadd0 -->
<g id="edge22" class="edge">
<title>bm1reg&#45;&gt;gadd0</title>
<path fill="none" stroke="#444444" d="M509.46,-282.77C509.46,-273.55 509.46,-265 509.46,-265 509.46,-265 289.33,-265 289.33,-265 289.33,-265 289.33,-239.82 289.33,-239.82"/>
<polygon fill="#444444" stroke="#444444" points="292.83,-239.82 289.33,-229.82 285.83,-239.82 292.83,-239.82"/>
</g>
<!-- bm1reg&#45;&gt;gadd1 -->
<g id="edge23" class="edge">
<title>bm1reg&#45;&gt;gadd1</title>
<path fill="none" stroke="#444444" d="M493.97,-305C456.45,-305 418.94,-305 418.94,-305 418.94,-305 418.94,-212 418.94,-212 418.94,-212 417.67,-212 417.67,-212"/>
<polygon fill="#444444" stroke="#444444" points="417.76,-208.5 407.76,-212 417.76,-215.5 417.76,-208.5"/>
</g>
<!-- bm1reg&#45;&gt;gdots -->
<g id="edge24" class="edge">
<title>bm1reg&#45;&gt;gdots</title>
<path fill="none" stroke="#444444" d="M524.67,-283.22C524.67,-283.22 524.67,-235.82 524.67,-235.82"/>
<polygon fill="#444444" stroke="#444444" points="528.17,-235.82 524.67,-225.82 521.17,-235.82 528.17,-235.82"/>
</g>
<!-- bm1reg&#45;&gt;gadd15 -->
<g id="edge25" class="edge">
<title>bm1reg&#45;&gt;gadd15</title>
<path fill="none" stroke="#444444" d="M615,-283.22C615,-283.22 615,-239.82 615,-239.82"/>
<polygon fill="#444444" stroke="#444444" points="618.5,-239.82 615,-229.82 611.5,-239.82 618.5,-239.82"/>
</g>
<!-- greg -->
<g id="node21" class="node">
<title>greg</title>
<path fill="#ead1dc" stroke="#555555" d="M495.62,-148C495.62,-148 348.38,-148 348.38,-148 342.38,-148 336.38,-142 336.38,-136 336.38,-136 336.38,-116 336.38,-116 336.38,-110 342.38,-104 348.38,-104 348.38,-104 495.62,-104 495.62,-104 501.62,-104 507.62,-110 507.62,-116 507.62,-116 507.62,-136 507.62,-136 507.62,-142 501.62,-148 495.62,-148"/>
<text xml:space="preserve" text-anchor="middle" x="422" y="-134.5" font-family="Helvetica,sans-Serif" font-size="10.00">Write local gamma word</text>
<text xml:space="preserve" text-anchor="middle" x="422" y="-122.5" font-family="Helvetica,sans-Serif" font-size="10.00">gamma_local_mem[work_local_idx]</text>
<text xml:space="preserve" text-anchor="middle" x="422" y="-110.5" font-family="Helvetica,sans-Serif" font-size="10.00">16 x 10b</text>
</g>
<!-- gadd0&#45;&gt;greg -->
<g id="edge26" class="edge">
<title>gadd0&#45;&gt;greg</title>
<path fill="none" stroke="#444444" d="M259,-183.72C259,-160.04 259,-126 259,-126 259,-126 324.69,-126 324.69,-126"/>
<polygon fill="#444444" stroke="#444444" points="324.69,-129.5 334.69,-126 324.69,-122.5 324.69,-129.5"/>
</g>
<!-- gadd1&#45;&gt;greg -->
<g id="edge27" class="edge">
<title>gadd1&#45;&gt;greg</title>
<path fill="none" stroke="#444444" d="M371.12,-183.72C371.12,-183.72 371.12,-159.96 371.12,-159.96"/>
<polygon fill="#444444" stroke="#444444" points="374.63,-159.96 371.13,-149.96 367.63,-159.96 374.63,-159.96"/>
</g>
<!-- gdots&#45;&gt;greg -->
<g id="edge28" class="edge">
<title>gdots&#45;&gt;greg</title>
<path fill="none" stroke="#444444" d="M465.88,-187.85C465.88,-187.85 465.88,-159.88 465.88,-159.88"/>
<polygon fill="#444444" stroke="#444444" points="469.38,-159.88 465.88,-149.88 462.38,-159.88 469.38,-159.88"/>
</g>
<!-- gadd15&#45;&gt;greg -->
<g id="edge29" class="edge">
<title>gadd15&#45;&gt;greg</title>
<path fill="none" stroke="#444444" d="M603,-183.72C603,-160.04 603,-126 603,-126 603,-126 519.51,-126 519.51,-126"/>
<polygon fill="#444444" stroke="#444444" points="519.51,-122.5 509.51,-126 519.51,-129.5 519.51,-122.5"/>
</g>
<!-- note -->
<g id="node22" class="node">
<title>note</title>
<polygon fill="#fff2cc" stroke="#555555" points="469.38,-68 368.62,-68 368.62,0 475.38,0 475.38,-62 469.38,-68"/>
<polyline fill="none" stroke="#555555" points="469.38,-68 469.38,-62"/>
<polyline fill="none" stroke="#555555" points="475.38,-62 469.38,-62"/>
<text xml:space="preserve" text-anchor="middle" x="422" y="-54.5" font-family="Helvetica,sans-Serif" font-size="10.00">Per trellis pair totals</text>
<text xml:space="preserve" text-anchor="middle" x="422" y="-42.5" font-family="Helvetica,sans-Serif" font-size="10.00">2 branch&#45;metric cells</text>
<text xml:space="preserve" text-anchor="middle" x="422" y="-30.5" font-family="Helvetica,sans-Serif" font-size="10.00">12 add/sub blocks</text>
<text xml:space="preserve" text-anchor="middle" x="422" y="-18.5" font-family="Helvetica,sans-Serif" font-size="10.00">8 shifters</text>
<text xml:space="preserve" text-anchor="middle" x="422" y="-6.5" font-family="Helvetica,sans-Serif" font-size="10.00">16 gamma adders</text>
</g>
<!-- greg&#45;&gt;note -->
<g id="edge30" class="edge">
<title>greg&#45;&gt;note</title>
<path fill="none" stroke="#444444" d="M422,-103.73C422,-103.73 422,-79.79 422,-79.79"/>
<polygon fill="#444444" stroke="#444444" points="425.5,-79.79 422,-69.79 418.5,-79.79 425.5,-79.79"/>
</g>
</g>
</svg>
