<?xml version="1.0" encoding="UTF-8" standalone="no"?>
<!DOCTYPE svg PUBLIC "-//W3C//DTD SVG 1.1//EN"
 "http://www.w3.org/Graphics/SVG/1.1/DTD/svg11.dtd">
<!-- Generated by graphviz version 14.1.2 (0)
 -->
<!-- Title: G Pages: 1 -->
<svg width="745pt" height="1134pt"
 viewBox="0.00 0.00 745.00 1134.00" xmlns="http://www.w3.org/2000/svg" xmlns:xlink="http://www.w3.org/1999/xlink">
<g id="graph0" class="graph" transform="scale(1 1) rotate(0) translate(4 1129.55)">
<title>G</title>
<polygon fill="white" stroke="none" points="-4,4 -4,-1129.55 741,-1129.55 741,4 -4,4"/>
<text xml:space="preserve" text-anchor="middle" x="368.5" y="-1102.55" font-family="Helvetica,sans-Serif" font-size="20.00">siso_maxlogmap &#45; Gamma Metric Unit, Isomorphic Cell View</text>
<g id="clust1" class="cluster">
<title>cluster_even</title>
<path fill="none" stroke="#93c47d" d="M252,-567.17C252,-567.17 717,-567.17 717,-567.17 723,-567.17 729,-573.17 729,-579.17 729,-579.17 729,-1074.3 729,-1074.3 729,-1080.3 723,-1086.3 717,-1086.3 717,-1086.3 252,-1086.3 252,-1086.3 246,-1086.3 240,-1080.3 240,-1074.3 240,-1074.3 240,-579.17 240,-579.17 240,-573.17 246,-567.17 252,-567.17"/>
<text xml:space="preserve" text-anchor="middle" x="484.5" y="-1063.3" font-family="Helvetica,sans-Serif" font-size="20.00">Even&#45;step branch&#45;metric cell g0 (1 of 2 identical cells)</text>
</g>
<g id="clust2" class="cluster">
<title>cluster_odd</title>
<path fill="none" stroke="#93c47d" d="M20,-400.05C20,-400.05 353,-400.05 353,-400.05 359,-400.05 365,-406.05 365,-412.05 365,-412.05 365,-547.17 365,-547.17 365,-553.17 359,-559.17 353,-559.17 353,-559.17 20,-559.17 20,-559.17 14,-559.17 8,-553.17 8,-547.17 8,-547.17 8,-412.05 8,-412.05 8,-406.05 14,-400.05 20,-400.05"/>
<text xml:space="preserve" text-anchor="middle" x="186.5" y="-536.17" font-family="Helvetica,sans-Serif" font-size="20.00">Odd&#45;step branch&#45;metric cell g1 (2 of 2)</text>
</g>
<g id="clust3" class="cluster">
<title>cluster_pair</title>
<path fill="none" stroke="#6fa8dc" d="M182,-99C182,-99 516,-99 516,-99 522,-99 528,-105 528,-111 528,-111 528,-380.05 528,-380.05 528,-386.05 522,-392.05 516,-392.05 516,-392.05 182,-392.05 182,-392.05 176,-392.05 170,-386.05 170,-380.05 170,-380.05 170,-111 170,-111 170,-105 176,-99 182,-99"/>
<text xml:space="preserve" text-anchor="middle" x="349" y="-369.05" font-family="Helvetica,sans-Serif" font-size="20.00">Pair&#45;gamma combiner</text>
</g>
<!-- syse -->
<g id="node1" class="node">
<title>syse</title>
<path fill="#d9ead3" stroke="#444444" d="M396.5,-1047.05C396.5,-1047.05 365.5,-1047.05 365.5,-1047.05 359.5,-1047.05 353.5,-1041.05 353.5,-1035.05 353.5,-1035.05 353.5,-1023.05 353.5,-1023.05 353.5,-1017.05 359.5,-1011.05 365.5,-1011.05 365.5,-1011.05 396.5,-1011.05 396.5,-1011.05 402.5,-1011.05 408.5,-1017.05 408.5,-1023.05 408.5,-1023.05 408.5,-1035.05 408.5,-1035.05 408.5,-1041.05 402.5,-1047.05 396.5,-1047.05"/>
<text xml:space="preserve" text-anchor="middle" x="381" y="-1031" font-family="Helvetica,sans-Serif" font-size="9.00">sys_even</text>
<text xml:space="preserve" text-anchor="middle" x="381" y="-1020.5" font-family="Helvetica,sans-Serif" font-size="9.00">5b</text>
</g>
<!-- negs -->
<g id="node4" class="node">
<title>negs</title>
<path fill="#fff2cc" stroke="#444444" d="M420,-975.05C420,-975.05 390,-975.05 390,-975.05 384,-975.05 378,-969.05 378,-963.05 378,-963.05 378,-951.05 378,-951.05 378,-945.05 384,-939.05 390,-939.05 390,-939.05 420,-939.05 420,-939.05 426,-939.05 432,-945.05 432,-951.05 432,-951.05 432,-963.05 432,-963.05 432,-969.05 426,-975.05 420,-975.05"/>
<text xml:space="preserve" text-anchor="middle" x="405" y="-953.75" font-family="Helvetica,sans-Serif" font-size="9.00">NEG</text>
</g>
<!-- syse&#45;&gt;negs -->
<g id="edge3" class="edge">
<title>syse&#45;&gt;negs</title>
<path fill="none" stroke="#444444" d="M393.25,-1010.88C393.25,-1010.88 393.25,-983.97 393.25,-983.97"/>
<polygon fill="#444444" stroke="#444444" points="395.7,-983.97 393.25,-976.97 390.8,-983.97 395.7,-983.97"/>
</g>
<!-- addp -->
<g id="node7" class="node">
<title>addp</title>
<ellipse fill="#cfe2f3" stroke="#444444" cx="347" cy="-957.05" rx="12.96" ry="12.96"/>
<text xml:space="preserve" text-anchor="middle" x="347" y="-953.75" font-family="Helvetica,sans-Serif" font-size="9.00">+</text>
</g>
<!-- syse&#45;&gt;addp -->
<g id="edge1" class="edge">
<title>syse&#45;&gt;addp</title>
<path fill="none" stroke="#444444" d="M367.98,-1010.87C367.98,-989.52 367.98,-957 367.98,-957 367.98,-957 367.22,-957 367.22,-957"/>
<polygon fill="#444444" stroke="#444444" points="368.92,-954.55 361.92,-957 368.92,-959.45 368.92,-954.55"/>
</g>
<!-- pare -->
<g id="node2" class="node">
<title>pare</title>
<path fill="#d9ead3" stroke="#444444" d="M300.5,-903.05C300.5,-903.05 269.5,-903.05 269.5,-903.05 263.5,-903.05 257.5,-897.05 257.5,-891.05 257.5,-891.05 257.5,-879.05 257.5,-879.05 257.5,-873.05 263.5,-867.05 269.5,-867.05 269.5,-867.05 300.5,-867.05 300.5,-867.05 306.5,-867.05 312.5,-873.05 312.5,-879.05 312.5,-879.05 312.5,-891.05 312.5,-891.05 312.5,-897.05 306.5,-903.05 300.5,-903.05"/>
<text xml:space="preserve" text-anchor="middle" x="285" y="-887" font-family="Helvetica,sans-Serif" font-size="9.00">par_even</text>
<text xml:space="preserve" text-anchor="middle" x="285" y="-876.5" font-family="Helvetica,sans-Serif" font-size="9.00">5b</text>
</g>
<!-- negp -->
<g id="node6" class="node">
<title>negp</title>
<path fill="#fff2cc" stroke="#444444" d="M417,-831.05C417,-831.05 387,-831.05 387,-831.05 381,-831.05 375,-825.05 375,-819.05 375,-819.05 375,-807.05 375,-807.05 375,-801.05 381,-795.05 387,-795.05 387,-795.05 417,-795.05 417,-795.05 423,-795.05 429,-801.05 429,-807.05 429,-807.05 429,-819.05 429,-819.05 429,-825.05 423,-831.05 417,-831.05"/>
<text xml:space="preserve" text-anchor="middle" x="402" y="-809.75" font-family="Helvetica,sans-Serif" font-size="9.00">NEG</text>
</g>
<!-- pare&#45;&gt;negp -->
<g id="edge7" class="edge">
<title>pare&#45;&gt;negp</title>
<path fill="none" stroke="#444444" d="M312.86,-881C342.46,-881 385.02,-881 385.02,-881 385.02,-881 385.02,-839.77 385.02,-839.77"/>
<polygon fill="#444444" stroke="#444444" points="387.47,-839.77 385.02,-832.77 382.57,-839.77 387.47,-839.77"/>
</g>
<!-- add00 -->
<g id="node11" class="node">
<title>add00</title>
<ellipse fill="#cfe2f3" stroke="#444444" cx="284" cy="-741.05" rx="12.96" ry="12.96"/>
<text xml:space="preserve" text-anchor="middle" x="284" y="-737.75" font-family="Helvetica,sans-Serif" font-size="9.00">+</text>
</g>
<!-- pare&#45;&gt;add00 -->
<g id="edge11" class="edge">
<title>pare&#45;&gt;add00</title>
<path fill="none" stroke="#444444" d="M284,-866.81C284,-866.81 284,-762.95 284,-762.95"/>
<polygon fill="#444444" stroke="#444444" points="286.45,-762.95 284,-755.95 281.55,-762.95 286.45,-762.95"/>
</g>
<!-- aprie -->
<g id="node3" class="node">
<title>aprie</title>
<path fill="#d9ead3" stroke="#444444" d="M313.62,-1047.05C313.62,-1047.05 280.38,-1047.05 280.38,-1047.05 274.38,-1047.05 268.38,-1041.05 268.38,-1035.05 268.38,-1035.05 268.38,-1023.05 268.38,-1023.05 268.38,-1017.05 274.38,-1011.05 280.38,-1011.05 280.38,-1011.05 313.62,-1011.05 313.62,-1011.05 319.62,-1011.05 325.62,-1017.05 325.62,-1023.05 325.62,-1023.05 325.62,-1035.05 325.62,-1035.05 325.62,-1041.05 319.62,-1047.05 313.62,-1047.05"/>
<text xml:space="preserve" text-anchor="middle" x="297" y="-1031" font-family="Helvetica,sans-Serif" font-size="9.00">apri_even</text>
<text xml:space="preserve" text-anchor="middle" x="297" y="-1020.5" font-family="Helvetica,sans-Serif" font-size="9.00">6b</text>
</g>
<!-- nega -->
<g id="node5" class="node">
<title>nega</title>
<path fill="#fff2cc" stroke="#444444" d="M304,-975.05C304,-975.05 274,-975.05 274,-975.05 268,-975.05 262,-969.05 262,-963.05 262,-963.05 262,-951.05 262,-951.05 262,-945.05 268,-939.05 274,-939.05 274,-939.05 304,-939.05 304,-939.05 310,-939.05 316,-945.05 316,-951.05 316,-951.05 316,-963.05 316,-963.05 316,-969.05 310,-975.05 304,-975.05"/>
<text xml:space="preserve" text-anchor="middle" x="289" y="-953.75" font-family="Helvetica,sans-Serif" font-size="9.00">NEG</text>
</g>
<!-- aprie&#45;&gt;nega -->
<g id="edge5" class="edge">
<title>aprie&#45;&gt;nega</title>
<path fill="none" stroke="#444444" d="M292.19,-1010.88C292.19,-1010.88 292.19,-983.97 292.19,-983.97"/>
<polygon fill="#444444" stroke="#444444" points="294.64,-983.97 292.19,-976.97 289.74,-983.97 294.64,-983.97"/>
</g>
<!-- aprie&#45;&gt;addp -->
<g id="edge2" class="edge">
<title>aprie&#45;&gt;addp</title>
<path fill="none" stroke="#444444" d="M322.42,-1010.64C322.42,-988.13 322.42,-953 322.42,-953 322.42,-953 325.91,-953 325.91,-953"/>
<polygon fill="#444444" stroke="#444444" points="325.91,-955.45 332.91,-953 325.91,-950.55 325.91,-955.45"/>
</g>
<!-- addn -->
<g id="node8" class="node">
<title>addn</title>
<ellipse fill="#cfe2f3" stroke="#444444" cx="405" cy="-885.05" rx="12.96" ry="12.96"/>
<text xml:space="preserve" text-anchor="middle" x="405" y="-881.75" font-family="Helvetica,sans-Serif" font-size="9.00">+</text>
</g>
<!-- negs&#45;&gt;addn -->
<g id="edge4" class="edge">
<title>negs&#45;&gt;addn</title>
<path fill="none" stroke="#444444" d="M405,-938.88C405,-938.88 405,-906.72 405,-906.72"/>
<polygon fill="#444444" stroke="#444444" points="407.45,-906.72 405,-899.72 402.55,-906.72 407.45,-906.72"/>
</g>
<!-- nega&#45;&gt;addn -->
<g id="edge6" class="edge">
<title>nega&#45;&gt;addn</title>
<path fill="none" stroke="#444444" d="M316.42,-961C318.15,-961 319.21,-961 319.21,-961 319.21,-961 319.21,-889 319.21,-889 319.21,-889 383.83,-889 383.83,-889"/>
<polygon fill="#444444" stroke="#444444" points="383.83,-891.45 390.83,-889 383.83,-886.55 383.83,-891.45"/>
</g>
<!-- add01 -->
<g id="node12" class="node">
<title>add01</title>
<ellipse fill="#cfe2f3" stroke="#444444" cx="348" cy="-741.05" rx="12.96" ry="12.96"/>
<text xml:space="preserve" text-anchor="middle" x="348" y="-737.75" font-family="Helvetica,sans-Serif" font-size="9.00">+</text>
</g>
<!-- negp&#45;&gt;add01 -->
<g id="edge13" class="edge">
<title>negp&#45;&gt;add01</title>
<path fill="none" stroke="#444444" d="M384,-794.87C384,-773.52 384,-741 384,-741 384,-741 369.92,-741 369.92,-741"/>
<polygon fill="#444444" stroke="#444444" points="369.92,-738.55 362.92,-741 369.92,-743.45 369.92,-738.55"/>
</g>
<!-- add03 -->
<g id="node14" class="node">
<title>add03</title>
<ellipse fill="#cfe2f3" stroke="#444444" cx="420" cy="-741.05" rx="12.96" ry="12.96"/>
<text xml:space="preserve" text-anchor="middle" x="420" y="-737.75" font-family="Helvetica,sans-Serif" font-size="9.00">+</text>
</g>
<!-- negp&#45;&gt;add03 -->
<g id="edge16" class="edge">
<title>negp&#45;&gt;add03</title>
<path fill="none" stroke="#444444" d="M418.02,-794.88C418.02,-794.88 418.02,-762.72 418.02,-762.72"/>
<polygon fill="#444444" stroke="#444444" points="420.47,-762.72 418.02,-755.72 415.57,-762.72 420.47,-762.72"/>
</g>
<!-- sump -->
<g id="node9" class="node">
<title>sump</title>
<polygon fill="#ead1dc" stroke="#444444" points="357,-831.05 307,-831.05 303,-827.05 303,-795.05 353,-795.05 357,-799.05 357,-831.05"/>
<polyline fill="none" stroke="#444444" points="353,-827.05 303,-827.05"/>
<polyline fill="none" stroke="#444444" points="353,-827.05 353,-795.05"/>
<polyline fill="none" stroke="#444444" points="353,-827.05 357,-831.05"/>
<text xml:space="preserve" text-anchor="middle" x="330" y="-815" font-family="Helvetica,sans-Serif" font-size="9.00">sum_pos</text>
<text xml:space="preserve" text-anchor="middle" x="330" y="-804.5" font-family="Helvetica,sans-Serif" font-size="9.00">10b</text>
</g>
<!-- addp&#45;&gt;sump -->
<g id="edge8" class="edge">
<title>addp&#45;&gt;sump</title>
<path fill="none" stroke="#444444" d="M345.52,-943.76C345.52,-943.76 345.52,-839.72 345.52,-839.72"/>
<polygon fill="#444444" stroke="#444444" points="347.97,-839.72 345.52,-832.72 343.07,-839.72 347.97,-839.72"/>
</g>
<!-- sumn -->
<g id="node10" class="node">
<title>sumn</title>
<polygon fill="#ead1dc" stroke="#444444" points="501.12,-831.05 450.88,-831.05 446.88,-827.05 446.88,-795.05 497.12,-795.05 501.12,-799.05 501.12,-831.05"/>
<polyline fill="none" stroke="#444444" points="497.12,-827.05 446.88,-827.05"/>
<polyline fill="none" stroke="#444444" points="497.12,-827.05 497.12,-795.05"/>
<polyline fill="none" stroke="#444444" points="497.12,-827.05 501.12,-831.05"/>
<text xml:space="preserve" text-anchor="middle" x="474" y="-815" font-family="Helvetica,sans-Serif" font-size="9.00">sum_neg</text>
<text xml:space="preserve" text-anchor="middle" x="474" y="-804.5" font-family="Helvetica,sans-Serif" font-size="9.00">10b</text>
</g>
<!-- addn&#45;&gt;sumn -->
<g id="edge9" class="edge">
<title>addn&#45;&gt;sumn</title>
<path fill="none" stroke="#444444" d="M418.3,-885C438.35,-885 474,-885 474,-885 474,-885 474,-839.72 474,-839.72"/>
<polygon fill="#444444" stroke="#444444" points="476.45,-839.72 474,-832.72 471.55,-839.72 476.45,-839.72"/>
</g>
<!-- sump&#45;&gt;add00 -->
<g id="edge10" class="edge">
<title>sump&#45;&gt;add00</title>
<path fill="none" stroke="#444444" d="M312,-794.87C312,-773.52 312,-741 312,-741 312,-741 305.86,-741 305.86,-741"/>
<polygon fill="#444444" stroke="#444444" points="305.86,-738.55 298.86,-741 305.86,-743.45 305.86,-738.55"/>
</g>
<!-- sump&#45;&gt;add01 -->
<g id="edge12" class="edge">
<title>sump&#45;&gt;add01</title>
<path fill="none" stroke="#444444" d="M346.02,-794.88C346.02,-794.88 346.02,-762.72 346.02,-762.72"/>
<polygon fill="#444444" stroke="#444444" points="348.47,-762.72 346.02,-755.72 343.57,-762.72 348.47,-762.72"/>
</g>
<!-- adddots -->
<g id="node13" class="node">
<title>adddots</title>
<text xml:space="preserve" text-anchor="middle" x="481" y="-737.75" font-family="Helvetica,sans-Serif" font-size="9.00">...</text>
</g>
<!-- sumn&#45;&gt;adddots -->
<g id="edge14" class="edge">
<title>sumn&#45;&gt;adddots</title>
<path fill="none" stroke="#444444" stroke-dasharray="5,2" d="M477.56,-794.88C477.56,-794.88 477.56,-767.47 477.56,-767.47"/>
<polygon fill="#444444" stroke="#444444" points="480.01,-767.47 477.56,-760.47 475.11,-767.47 480.01,-767.47"/>
</g>
<!-- sumn&#45;&gt;add03 -->
<g id="edge15" class="edge">
<title>sumn&#45;&gt;add03</title>
<path fill="none" stroke="#444444" d="M446.49,-813C442.61,-813 439.92,-813 439.92,-813 439.92,-813 439.92,-741 439.92,-741 439.92,-741 439.24,-741 439.24,-741"/>
<polygon fill="#444444" stroke="#444444" points="441.69,-738.55 434.69,-741 441.69,-743.45 441.69,-738.55"/>
</g>
<!-- sh00 -->
<g id="node15" class="node">
<title>sh00</title>
<path fill="#fce5cd" stroke="#444444" d="M291,-687.05C291,-687.05 261,-687.05 261,-687.05 255,-687.05 249,-681.05 249,-675.05 249,-675.05 249,-663.05 249,-663.05 249,-657.05 255,-651.05 261,-651.05 261,-651.05 291,-651.05 291,-651.05 297,-651.05 303,-657.05 303,-663.05 303,-663.05 303,-675.05 303,-675.05 303,-681.05 297,-687.05 291,-687.05"/>
<text xml:space="preserve" text-anchor="middle" x="276" y="-665.75" font-family="Helvetica,sans-Serif" font-size="9.00">&gt;&gt;1</text>
</g>
<!-- add00&#45;&gt;sh00 -->
<g id="edge17" class="edge">
<title>add00&#45;&gt;sh00</title>
<path fill="none" stroke="#444444" d="M284,-727.84C284,-727.84 284,-695.83 284,-695.83"/>
<polygon fill="#444444" stroke="#444444" points="286.45,-695.83 284,-688.83 281.55,-695.83 286.45,-695.83"/>
</g>
<!-- sh01 -->
<g id="node16" class="node">
<title>sh01</title>
<path fill="#fce5cd" stroke="#444444" d="M363,-687.05C363,-687.05 333,-687.05 333,-687.05 327,-687.05 321,-681.05 321,-675.05 321,-675.05 321,-663.05 321,-663.05 321,-657.05 327,-651.05 333,-651.05 333,-651.05 363,-651.05 363,-651.05 369,-651.05 375,-657.05 375,-663.05 375,-663.05 375,-675.05 375,-675.05 375,-681.05 369,-687.05 363,-687.05"/>
<text xml:space="preserve" text-anchor="middle" x="348" y="-665.75" font-family="Helvetica,sans-Serif" font-size="9.00">&gt;&gt;1</text>
</g>
<!-- add01&#45;&gt;sh01 -->
<g id="edge19" class="edge">
<title>add01&#45;&gt;sh01</title>
<path fill="none" stroke="#444444" d="M348,-727.84C348,-727.84 348,-695.83 348,-695.83"/>
<polygon fill="#444444" stroke="#444444" points="350.45,-695.83 348,-688.83 345.55,-695.83 350.45,-695.83"/>
</g>
<!-- shdots -->
<g id="node17" class="node">
<title>shdots</title>
<text xml:space="preserve" text-anchor="middle" x="492" y="-665.75" font-family="Helvetica,sans-Serif" font-size="9.00">4 total</text>
</g>
<!-- adddots&#45;&gt;shdots -->
<g id="edge21" class="edge">
<title>adddots&#45;&gt;shdots</title>
<path fill="none" stroke="#444444" stroke-dasharray="5,2" d="M486.5,-723.25C486.5,-723.25 486.5,-695.4 486.5,-695.4"/>
<polygon fill="#444444" stroke="#444444" points="488.95,-695.4 486.5,-688.4 484.05,-695.4 488.95,-695.4"/>
</g>
<!-- sh03 -->
<g id="node18" class="node">
<title>sh03</title>
<path fill="#fce5cd" stroke="#444444" d="M435,-687.05C435,-687.05 405,-687.05 405,-687.05 399,-687.05 393,-681.05 393,-675.05 393,-675.05 393,-663.05 393,-663.05 393,-657.05 399,-651.05 405,-651.05 405,-651.05 435,-651.05 435,-651.05 441,-651.05 447,-657.05 447,-663.05 447,-663.05 447,-675.05 447,-675.05 447,-681.05 441,-687.05 435,-687.05"/>
<text xml:space="preserve" text-anchor="middle" x="420" y="-665.75" font-family="Helvetica,sans-Serif" font-size="9.00">&gt;&gt;1</text>
</g>
<!-- add03&#45;&gt;sh03 -->
<g id="edge23" class="edge">
<title>add03&#45;&gt;sh03</title>
<path fill="none" stroke="#444444" d="M420,-727.84C420,-727.84 420,-695.83 420,-695.83"/>
<polygon fill="#444444" stroke="#444444" points="422.45,-695.83 420,-688.83 417.55,-695.83 422.45,-695.83"/>
</g>
<!-- g0mem -->
<g id="node19" class="node">
<title>g0mem</title>
<path fill="#ead1dc" stroke="#444444" d="M422.38,-611.42C422.38,-613.42 405.17,-615.05 384,-615.05 362.83,-615.05 345.62,-613.42 345.62,-611.42 345.62,-611.42 345.62,-578.8 345.62,-578.8 345.62,-576.79 362.83,-575.17 384,-575.17 405.17,-575.17 422.38,-576.79 422.38,-578.8 422.38,-578.8 422.38,-611.42 422.38,-611.42"/>
<path fill="none" stroke="#444444" d="M422.38,-611.42C422.38,-609.42 405.17,-607.8 384,-607.8 362.83,-607.8 345.62,-609.42 345.62,-611.42"/>
<text xml:space="preserve" text-anchor="middle" x="384" y="-597.06" font-family="Helvetica,sans-Serif" font-size="9.00">g0_local_mem</text>
<text xml:space="preserve" text-anchor="middle" x="384" y="-586.56" font-family="Helvetica,sans-Serif" font-size="9.00">4 x 10b</text>
</g>
<!-- sh00&#45;&gt;g0mem -->
<g id="edge18" class="edge">
<title>sh00&#45;&gt;g0mem</title>
<path fill="none" stroke="#444444" d="M276,-650.74C276,-628.81 276,-595 276,-595 276,-595 336.8,-595 336.8,-595"/>
<polygon fill="#444444" stroke="#444444" points="336.8,-597.45 343.8,-595 336.8,-592.55 336.8,-597.45"/>
</g>
<!-- sh01&#45;&gt;g0mem -->
<g id="edge20" class="edge">
<title>sh01&#45;&gt;g0mem</title>
<path fill="none" stroke="#444444" d="M360.31,-650.77C360.31,-650.77 360.31,-623.77 360.31,-623.77"/>
<polygon fill="#444444" stroke="#444444" points="362.76,-623.77 360.31,-616.77 357.86,-623.77 362.76,-623.77"/>
</g>
<!-- shdots&#45;&gt;g0mem -->
<g id="edge22" class="edge">
<title>shdots&#45;&gt;g0mem</title>
<path fill="none" stroke="#444444" stroke-dasharray="5,2" d="M501.33,-651.08C501.33,-631.22 501.33,-602 501.33,-602 501.33,-602 431.26,-602 431.26,-602"/>
<polygon fill="#444444" stroke="#444444" points="431.26,-599.55 424.26,-602 431.26,-604.45 431.26,-599.55"/>
</g>
<!-- sh03&#45;&gt;g0mem -->
<g id="edge24" class="edge">
<title>sh03&#45;&gt;g0mem</title>
<path fill="none" stroke="#444444" d="M407.69,-650.77C407.69,-650.77 407.69,-623.77 407.69,-623.77"/>
<polygon fill="#444444" stroke="#444444" points="410.14,-623.77 407.69,-616.77 405.24,-623.77 410.14,-623.77"/>
</g>
<!-- g1dots -->
<g id="node20" class="node">
<title>g1dots</title>
<text xml:space="preserve" text-anchor="middle" x="277" y="-498.62" font-family="Helvetica,sans-Serif" font-size="9.00">same NEG / + / &gt;&gt;1 structure as g0</text>
</g>
<!-- g0mem&#45;&gt;g1dots -->
<!-- g0_0 -->
<g id="node22" class="node">
<title>g0_0</title>
<polygon fill="#ead1dc" stroke="#444444" points="376,-352.8 326,-352.8 322,-348.8 322,-316.8 372,-316.8 376,-320.8 376,-352.8"/>
<polyline fill="none" stroke="#444444" points="372,-348.8 322,-348.8"/>
<polyline fill="none" stroke="#444444" points="372,-348.8 372,-316.8"/>
<polyline fill="none" stroke="#444444" points="372,-348.8 376,-352.8"/>
<text xml:space="preserve" text-anchor="middle" x="349" y="-331.5" font-family="Helvetica,sans-Serif" font-size="9.00">g0[0]</text>
</g>
<!-- g0mem&#45;&gt;g0_0 -->
<g id="edge40" class="edge">
<title>g0mem&#45;&gt;g0_0</title>
<path fill="none" stroke="#444444" stroke-dasharray="5,2" d="M365.75,-574.68C365.75,-574.68 365.75,-361.54 365.75,-361.54"/>
<polygon fill="#444444" stroke="#444444" points="368.2,-361.54 365.75,-354.54 363.3,-361.54 368.2,-361.54"/>
</g>
<!-- g0_3 -->
<g id="node23" class="node">
<title>g0_3</title>
<polygon fill="#ead1dc" stroke="#444444" points="520,-352.8 470,-352.8 466,-348.8 466,-316.8 516,-316.8 520,-320.8 520,-352.8"/>
<polyline fill="none" stroke="#444444" points="516,-348.8 466,-348.8"/>
<polyline fill="none" stroke="#444444" points="516,-348.8 516,-316.8"/>
<polyline fill="none" stroke="#444444" points="516,-348.8 520,-352.8"/>
<text xml:space="preserve" text-anchor="middle" x="493" y="-331.5" font-family="Helvetica,sans-Serif" font-size="9.00">g0[3]</text>
</g>
<!-- g0mem&#45;&gt;g0_3 -->
<g id="edge41" class="edge">
<title>g0mem&#45;&gt;g0_3</title>
<path fill="none" stroke="#444444" stroke-dasharray="5,2" d="M422.82,-588C450.8,-588 483.67,-588 483.67,-588 483.67,-588 483.67,-361.52 483.67,-361.52"/>
<polygon fill="#444444" stroke="#444444" points="486.12,-361.52 483.67,-354.52 481.22,-361.52 486.12,-361.52"/>
</g>
<!-- g1mem -->
<g id="node21" class="node">
<title>g1mem</title>
<path fill="#ead1dc" stroke="#444444" d="M315.38,-444.3C315.38,-446.3 298.17,-447.92 277,-447.92 255.83,-447.92 238.62,-446.3 238.62,-444.3 238.62,-444.3 238.62,-411.67 238.62,-411.67 238.62,-409.67 255.83,-408.05 277,-408.05 298.17,-408.05 315.38,-409.67 315.38,-411.67 315.38,-411.67 315.38,-444.3 315.38,-444.3"/>
<path fill="none" stroke="#444444" d="M315.38,-444.3C315.38,-442.29 298.17,-440.67 277,-440.67 255.83,-440.67 238.62,-442.29 238.62,-444.3"/>
<text xml:space="preserve" text-anchor="middle" x="277" y="-429.93" font-family="Helvetica,sans-Serif" font-size="9.00">g1_local_mem</text>
<text xml:space="preserve" text-anchor="middle" x="277" y="-419.43" font-family="Helvetica,sans-Serif" font-size="9.00">4 x 10b</text>
</g>
<!-- g1dots&#45;&gt;g1mem -->
<g id="edge25" class="edge">
<title>g1dots&#45;&gt;g1mem</title>
<path fill="none" stroke="#444444" d="M277,-484.02C277,-484.02 277,-456.84 277,-456.84"/>
<polygon fill="#444444" stroke="#444444" points="279.45,-456.84 277,-449.84 274.55,-456.84 279.45,-456.84"/>
</g>
<!-- g1_0 -->
<g id="node24" class="node">
<title>g1_0</title>
<polygon fill="#ead1dc" stroke="#444444" points="232,-352.8 182,-352.8 178,-348.8 178,-316.8 228,-316.8 232,-320.8 232,-352.8"/>
<polyline fill="none" stroke="#444444" points="228,-348.8 178,-348.8"/>
<polyline fill="none" stroke="#444444" points="228,-348.8 228,-316.8"/>
<polyline fill="none" stroke="#444444" points="228,-348.8 232,-352.8"/>
<text xml:space="preserve" text-anchor="middle" x="205" y="-331.5" font-family="Helvetica,sans-Serif" font-size="9.00">g1[0]</text>
</g>
<!-- g1mem&#45;&gt;g1_0 -->
<g id="edge42" class="edge">
<title>g1mem&#45;&gt;g1_0</title>
<path fill="none" stroke="#444444" stroke-dasharray="5,2" d="M243.5,-408.72C243.5,-381.48 243.5,-335 243.5,-335 243.5,-335 240.67,-335 240.67,-335"/>
<polygon fill="#444444" stroke="#444444" points="240.67,-332.55 233.67,-335 240.67,-337.45 240.67,-332.55"/>
</g>
<!-- g1_1 -->
<g id="node25" class="node">
<title>g1_1</title>
<polygon fill="#ead1dc" stroke="#444444" points="304,-352.8 254,-352.8 250,-348.8 250,-316.8 300,-316.8 304,-320.8 304,-352.8"/>
<polyline fill="none" stroke="#444444" points="300,-348.8 250,-348.8"/>
<polyline fill="none" stroke="#444444" points="300,-348.8 300,-316.8"/>
<polyline fill="none" stroke="#444444" points="300,-348.8 304,-352.8"/>
<text xml:space="preserve" text-anchor="middle" x="277" y="-331.5" font-family="Helvetica,sans-Serif" font-size="9.00">g1[1]</text>
</g>
<!-- g1mem&#45;&gt;g1_1 -->
<g id="edge43" class="edge">
<title>g1mem&#45;&gt;g1_1</title>
<path fill="none" stroke="#444444" stroke-dasharray="5,2" d="M277,-407.76C277,-407.76 277,-361.59 277,-361.59"/>
<polygon fill="#444444" stroke="#444444" points="279.45,-361.59 277,-354.59 274.55,-361.59 279.45,-361.59"/>
</g>
<!-- g1_3 -->
<g id="node26" class="node">
<title>g1_3</title>
<polygon fill="#ead1dc" stroke="#444444" points="448,-352.8 398,-352.8 394,-348.8 394,-316.8 444,-316.8 448,-320.8 448,-352.8"/>
<polyline fill="none" stroke="#444444" points="444,-348.8 394,-348.8"/>
<polyline fill="none" stroke="#444444" points="444,-348.8 444,-316.8"/>
<polyline fill="none" stroke="#444444" points="444,-348.8 448,-352.8"/>
<text xml:space="preserve" text-anchor="middle" x="421" y="-331.5" font-family="Helvetica,sans-Serif" font-size="9.00">g1[3]</text>
</g>
<!-- g1mem&#45;&gt;g1_3 -->
<g id="edge44" class="edge">
<title>g1mem&#45;&gt;g1_3</title>
<path fill="none" stroke="#444444" stroke-dasharray="5,2" d="M315.65,-428C354.35,-428 408.19,-428 408.19,-428 408.19,-428 408.19,-361.72 408.19,-361.72"/>
<polygon fill="#444444" stroke="#444444" points="410.64,-361.72 408.19,-354.72 405.74,-361.72 410.64,-361.72"/>
</g>
<!-- pg0 -->
<g id="node27" class="node">
<title>pg0</title>
<ellipse fill="#cfe2f3" stroke="#444444" cx="209" cy="-267.84" rx="12.96" ry="12.96"/>
<text xml:space="preserve" text-anchor="middle" x="209" y="-264.54" font-family="Helvetica,sans-Serif" font-size="9.00">+</text>
</g>
<!-- g0_0&#45;&gt;pg0 -->
<g id="edge26" class="edge">
<title>g0_0&#45;&gt;pg0</title>
<path fill="none" stroke="#444444" d="M324.71,-316.48C324.71,-307.67 324.71,-299 324.71,-299 324.71,-299 213.32,-299 213.32,-299 213.32,-299 213.32,-289.02 213.32,-289.02"/>
<polygon fill="#444444" stroke="#444444" points="215.77,-289.02 213.32,-282.02 210.87,-289.02 215.77,-289.02"/>
</g>
<!-- pg1 -->
<g id="node28" class="node">
<title>pg1</title>
<ellipse fill="#cfe2f3" stroke="#444444" cx="284" cy="-267.84" rx="12.96" ry="12.96"/>
<text xml:space="preserve" text-anchor="middle" x="284" y="-264.54" font-family="Helvetica,sans-Serif" font-size="9.00">+</text>
</g>
<!-- g0_0&#45;&gt;pg1 -->
<g id="edge30" class="edge">
<title>g0_0&#45;&gt;pg1</title>
<path fill="none" stroke="#444444" d="M327.42,-316.63C327.42,-298.09 327.42,-272 327.42,-272 327.42,-272 305.31,-272 305.31,-272"/>
<polygon fill="#444444" stroke="#444444" points="305.31,-269.55 298.31,-272 305.31,-274.45 305.31,-269.55"/>
</g>
<!-- pg15 -->
<g id="node30" class="node">
<title>pg15</title>
<ellipse fill="#cfe2f3" stroke="#444444" cx="421" cy="-267.84" rx="12.96" ry="12.96"/>
<text xml:space="preserve" text-anchor="middle" x="421" y="-264.54" font-family="Helvetica,sans-Serif" font-size="9.00">+</text>
</g>
<!-- g0_3&#45;&gt;pg15 -->
<g id="edge34" class="edge">
<title>g0_3&#45;&gt;pg15</title>
<path fill="none" stroke="#444444" d="M492.94,-316.54C492.94,-296.77 492.94,-268 492.94,-268 492.94,-268 442.71,-268 442.71,-268"/>
<polygon fill="#444444" stroke="#444444" points="442.71,-265.55 435.71,-268 442.71,-270.45 442.71,-265.55"/>
</g>
<!-- g1_0&#45;&gt;pg0 -->
<g id="edge27" class="edge">
<title>g1_0&#45;&gt;pg0</title>
<path fill="none" stroke="#444444" d="M204.68,-316.5C204.68,-316.5 204.68,-288.9 204.68,-288.9"/>
<polygon fill="#444444" stroke="#444444" points="207.13,-288.9 204.68,-281.9 202.23,-288.9 207.13,-288.9"/>
</g>
<!-- g1_1&#45;&gt;pg1 -->
<g id="edge31" class="edge">
<title>g1_1&#45;&gt;pg1</title>
<path fill="none" stroke="#444444" d="M284,-316.5C284,-316.5 284,-289.74 284,-289.74"/>
<polygon fill="#444444" stroke="#444444" points="286.45,-289.74 284,-282.74 281.55,-289.74 286.45,-289.74"/>
</g>
<!-- g1_3&#45;&gt;pg15 -->
<g id="edge35" class="edge">
<title>g1_3&#45;&gt;pg15</title>
<path fill="none" stroke="#444444" d="M421,-316.5C421,-316.5 421,-289.74 421,-289.74"/>
<polygon fill="#444444" stroke="#444444" points="423.45,-289.74 421,-282.74 418.55,-289.74 423.45,-289.74"/>
</g>
<!-- y0 -->
<g id="node31" class="node">
<title>y0</title>
<polygon fill="#ead1dc" stroke="#444444" points="237.25,-218.88 184.75,-218.88 180.75,-214.88 180.75,-182.88 233.25,-182.88 237.25,-186.88 237.25,-218.88"/>
<polyline fill="none" stroke="#444444" points="233.25,-214.88 180.75,-214.88"/>
<polyline fill="none" stroke="#444444" points="233.25,-214.88 233.25,-182.88"/>
<polyline fill="none" stroke="#444444" points="233.25,-214.88 237.25,-218.88"/>
<text xml:space="preserve" text-anchor="middle" x="209" y="-197.57" font-family="Helvetica,sans-Serif" font-size="9.00">gamma[0]</text>
</g>
<!-- pg0&#45;&gt;y0 -->
<g id="edge28" class="edge">
<title>pg0&#45;&gt;y0</title>
<path fill="none" stroke="#444444" d="M209,-254.61C209,-254.61 209,-227.66 209,-227.66"/>
<polygon fill="#444444" stroke="#444444" points="211.45,-227.66 209,-220.66 206.55,-227.66 211.45,-227.66"/>
</g>
<!-- y1 -->
<g id="node32" class="node">
<title>y1</title>
<polygon fill="#ead1dc" stroke="#444444" points="312.25,-218.88 259.75,-218.88 255.75,-214.88 255.75,-182.88 308.25,-182.88 312.25,-186.88 312.25,-218.88"/>
<polyline fill="none" stroke="#444444" points="308.25,-214.88 255.75,-214.88"/>
<polyline fill="none" stroke="#444444" points="308.25,-214.88 308.25,-182.88"/>
<polyline fill="none" stroke="#444444" points="308.25,-214.88 312.25,-218.88"/>
<text xml:space="preserve" text-anchor="middle" x="284" y="-197.57" font-family="Helvetica,sans-Serif" font-size="9.00">gamma[1]</text>
</g>
<!-- pg1&#45;&gt;y1 -->
<g id="edge32" class="edge">
<title>pg1&#45;&gt;y1</title>
<path fill="none" stroke="#444444" d="M284,-254.61C284,-254.61 284,-227.66 284,-227.66"/>
<polygon fill="#444444" stroke="#444444" points="286.45,-227.66 284,-220.66 281.55,-227.66 286.45,-227.66"/>
</g>
<!-- pgdots -->
<g id="node29" class="node">
<title>pgdots</title>
<text xml:space="preserve" text-anchor="middle" x="465" y="-197.57" font-family="Helvetica,sans-Serif" font-size="9.00">16 total gamma adders</text>
</g>
<!-- gmem -->
<g id="node34" class="node">
<title>gmem</title>
<path fill="#ead1dc" stroke="#444444" d="M370.5,-143.25C370.5,-145.25 348.76,-146.88 322,-146.88 295.24,-146.88 273.5,-145.25 273.5,-143.25 273.5,-143.25 273.5,-110.62 273.5,-110.62 273.5,-108.62 295.24,-107 322,-107 348.76,-107 370.5,-108.62 370.5,-110.62 370.5,-110.62 370.5,-143.25 370.5,-143.25"/>
<path fill="none" stroke="#444444" d="M370.5,-143.25C370.5,-141.25 348.76,-139.62 322,-139.62 295.24,-139.62 273.5,-141.25 273.5,-143.25"/>
<text xml:space="preserve" text-anchor="middle" x="322" y="-128.89" font-family="Helvetica,sans-Serif" font-size="9.00">gamma_local_mem</text>
<text xml:space="preserve" text-anchor="middle" x="322" y="-118.39" font-family="Helvetica,sans-Serif" font-size="9.00">16 x 10b</text>
</g>
<!-- pgdots&#45;&gt;gmem -->
<g id="edge38" class="edge">
<title>pgdots&#45;&gt;gmem</title>
<path fill="none" stroke="#444444" stroke-dasharray="5,2" d="M465,-182.99C465,-161.13 465,-127 465,-127 465,-127 379.33,-127 379.33,-127"/>
<polygon fill="#444444" stroke="#444444" points="379.33,-124.55 372.33,-127 379.33,-129.45 379.33,-124.55"/>
</g>
<!-- y15 -->
<g id="node33" class="node">
<title>y15</title>
<polygon fill="#ead1dc" stroke="#444444" points="391.88,-218.88 334.12,-218.88 330.12,-214.88 330.12,-182.88 387.88,-182.88 391.88,-186.88 391.88,-218.88"/>
<polyline fill="none" stroke="#444444" points="387.88,-214.88 330.12,-214.88"/>
<polyline fill="none" stroke="#444444" points="387.88,-214.88 387.88,-182.88"/>
<polyline fill="none" stroke="#444444" points="387.88,-214.88 391.88,-218.88"/>
<text xml:space="preserve" text-anchor="middle" x="361" y="-197.57" font-family="Helvetica,sans-Serif" font-size="9.00">gamma[15]</text>
</g>
<!-- pg15&#45;&gt;y15 -->
<g id="edge36" class="edge">
<title>pg15&#45;&gt;y15</title>
<path fill="none" stroke="#444444" d="M408.45,-264C397.7,-264 383.94,-264 383.94,-264 383.94,-264 383.94,-227.65 383.94,-227.65"/>
<polygon fill="#444444" stroke="#444444" points="386.39,-227.65 383.94,-220.65 381.49,-227.65 386.39,-227.65"/>
</g>
<!-- y0&#45;&gt;gmem -->
<g id="edge29" class="edge">
<title>y0&#45;&gt;gmem</title>
<path fill="none" stroke="#444444" d="M209,-182.61C209,-160.74 209,-127 209,-127 209,-127 264.58,-127 264.58,-127"/>
<polygon fill="#444444" stroke="#444444" points="264.58,-129.45 271.58,-127 264.58,-124.55 264.58,-129.45"/>
</g>
<!-- y1&#45;&gt;gmem -->
<g id="edge33" class="edge">
<title>y1&#45;&gt;gmem</title>
<path fill="none" stroke="#444444" d="M292.88,-182.6C292.88,-182.6 292.88,-155.6 292.88,-155.6"/>
<polygon fill="#444444" stroke="#444444" points="295.33,-155.6 292.88,-148.6 290.43,-155.6 295.33,-155.6"/>
</g>
<!-- y15&#45;&gt;gmem -->
<g id="edge37" class="edge">
<title>y15&#45;&gt;gmem</title>
<path fill="none" stroke="#444444" d="M350.31,-182.6C350.31,-182.6 350.31,-155.6 350.31,-155.6"/>
<polygon fill="#444444" stroke="#444444" points="352.76,-155.6 350.31,-148.6 347.86,-155.6 352.76,-155.6"/>
</g>
<!-- note -->
<g id="node35" class="node">
<title>note</title>
<polygon fill="#fff2cc" stroke="#444444" points="389.62,-71 248.38,-71 248.38,0 395.62,0 395.62,-65 389.62,-71"/>
<polyline fill="none" stroke="#444444" points="389.62,-71 389.62,-65"/>
<polyline fill="none" stroke="#444444" points="395.62,-65 389.62,-65"/>
<text xml:space="preserve" text-anchor="middle" x="322" y="-58.45" font-family="Helvetica,sans-Serif" font-size="9.00">Per pair totals:</text>
<text xml:space="preserve" text-anchor="middle" x="322" y="-47.95" font-family="Helvetica,sans-Serif" font-size="9.00">2 branch cells</text>
<text xml:space="preserve" text-anchor="middle" x="322" y="-37.45" font-family="Helvetica,sans-Serif" font-size="9.00">12 add/sub operators</text>
<text xml:space="preserve" text-anchor="middle" x="322" y="-26.95" font-family="Helvetica,sans-Serif" font-size="9.00">3 NEG operators per branch cell</text>
<text xml:space="preserve" text-anchor="middle" x="322" y="-16.45" font-family="Helvetica,sans-Serif" font-size="9.00">8 shifts</text>
<text xml:space="preserve" text-anchor="middle" x="322" y="-5.95" font-family="Helvetica,sans-Serif" font-size="9.00">16 pair&#45;gamma adders</text>
</g>
<!-- gmem&#45;&gt;note -->
<g id="edge45" class="edge">
<title>gmem&#45;&gt;note</title>
<path fill="none" stroke="#444444" d="M322,-106.64C322,-106.64 322,-79.71 322,-79.71"/>
<polygon fill="#444444" stroke="#444444" points="324.45,-79.71 322,-72.71 319.55,-79.71 324.45,-79.71"/>
</g>
</g>
</svg>
