<?xml version="1.0" encoding="UTF-8" standalone="no"?>
<!DOCTYPE svg PUBLIC "-//W3C//DTD SVG 1.1//EN"
 "http://www.w3.org/Graphics/SVG/1.1/DTD/svg11.dtd">
<!-- Generated by graphviz version 14.1.2 (0)
 -->
<!-- Title: G Pages: 1 -->
<svg width="2402pt" height="889pt"
 viewBox="0.00 0.00 2402.00 889.00" xmlns="http://www.w3.org/2000/svg" xmlns:xlink="http://www.w3.org/1999/xlink">
<g id="graph0" class="graph" transform="scale(1 1) rotate(0) translate(4 885)">
<title>G</title>
<polygon fill="white" stroke="none" points="-4,4 -4,-885 2398,-885 2398,4 -4,4"/>
<text xml:space="preserve" text-anchor="middle" x="1197" y="-858" font-family="Helvetica,sans-Serif" font-size="20.00">siso_maxlogmap &#45; LLR Extraction Unit, Cell Level</text>
<g id="clust1" class="cluster">
<title>cluster_alpha_mid</title>
<path fill="none" stroke="#93c47d" d="M1223,-650.5C1223,-650.5 1713,-650.5 1713,-650.5 1719,-650.5 1725,-656.5 1725,-662.5 1725,-662.5 1725,-793.75 1725,-793.75 1725,-799.75 1719,-805.75 1713,-805.75 1713,-805.75 1223,-805.75 1223,-805.75 1217,-805.75 1211,-799.75 1211,-793.75 1211,-793.75 1211,-662.5 1211,-662.5 1211,-656.5 1217,-650.5 1223,-650.5"/>
<text xml:space="preserve" text-anchor="middle" x="1468" y="-782.75" font-family="Helvetica,sans-Serif" font-size="20.00">Alpha&#45;mid reconstruction</text>
</g>
<g id="clust2" class="cluster">
<title>cluster_beta_mid</title>
<path fill="none" stroke="#93c47d" d="M707,-650.5C707,-650.5 1191,-650.5 1191,-650.5 1197,-650.5 1203,-656.5 1203,-662.5 1203,-662.5 1203,-793.75 1203,-793.75 1203,-799.75 1197,-805.75 1191,-805.75 1191,-805.75 707,-805.75 707,-805.75 701,-805.75 695,-799.75 695,-793.75 695,-793.75 695,-662.5 695,-662.5 695,-656.5 701,-650.5 707,-650.5"/>
<text xml:space="preserve" text-anchor="middle" x="949" y="-782.75" font-family="Helvetica,sans-Serif" font-size="20.00">Beta&#45;mid reconstruction</text>
</g>
<g id="clust3" class="cluster">
<title>cluster_even</title>
<path fill="none" stroke="#6fa8dc" d="M20,-487.25C20,-487.25 907,-487.25 907,-487.25 913,-487.25 919,-493.25 919,-499.25 919,-499.25 919,-630.5 919,-630.5 919,-636.5 913,-642.5 907,-642.5 907,-642.5 20,-642.5 20,-642.5 14,-642.5 8,-636.5 8,-630.5 8,-630.5 8,-499.25 8,-499.25 8,-493.25 14,-487.25 20,-487.25"/>
<text xml:space="preserve" text-anchor="middle" x="463.5" y="-619.5" font-family="Helvetica,sans-Serif" font-size="20.00">Even&#45;bit posterior network</text>
</g>
<g id="clust4" class="cluster">
<title>cluster_odd</title>
<path fill="none" stroke="#6fa8dc" d="M1488,-487.25C1488,-487.25 2374,-487.25 2374,-487.25 2380,-487.25 2386,-493.25 2386,-499.25 2386,-499.25 2386,-630.5 2386,-630.5 2386,-636.5 2380,-642.5 2374,-642.5 2374,-642.5 1488,-642.5 1488,-642.5 1482,-642.5 1476,-636.5 1476,-630.5 1476,-630.5 1476,-499.25 1476,-499.25 1476,-493.25 1482,-487.25 1488,-487.25"/>
<text xml:space="preserve" text-anchor="middle" x="1931" y="-619.5" font-family="Helvetica,sans-Serif" font-size="20.00">Odd&#45;bit posterior network</text>
</g>
<g id="clust5" class="cluster">
<title>cluster_final</title>
<path fill="none" stroke="#e69138" d="M1033,-108C1033,-108 1373,-108 1373,-108 1379,-108 1385,-114 1385,-120 1385,-120 1385,-467.25 1385,-467.25 1385,-473.25 1379,-479.25 1373,-479.25 1373,-479.25 1033,-479.25 1033,-479.25 1027,-479.25 1021,-473.25 1021,-467.25 1021,-467.25 1021,-120 1021,-120 1021,-114 1027,-108 1033,-108"/>
<text xml:space="preserve" text-anchor="middle" x="1203" y="-456.25" font-family="Helvetica,sans-Serif" font-size="20.00">Final posterior and extrinsic arithmetic</text>
</g>
<!-- areg -->
<g id="node1" class="node">
<title>areg</title>
<path fill="#ead1dc" stroke="#555555" d="M625.62,-849.75C625.62,-849.75 538.38,-849.75 538.38,-849.75 532.38,-849.75 526.38,-843.75 526.38,-837.75 526.38,-837.75 526.38,-825.75 526.38,-825.75 526.38,-819.75 532.38,-813.75 538.38,-813.75 538.38,-813.75 625.62,-813.75 625.62,-813.75 631.62,-813.75 637.62,-819.75 637.62,-825.75 637.62,-825.75 637.62,-837.75 637.62,-837.75 637.62,-843.75 631.62,-849.75 625.62,-849.75"/>
<text xml:space="preserve" text-anchor="middle" x="582" y="-834.25" font-family="Helvetica,sans-Serif" font-size="10.00">alpha_in register word</text>
<text xml:space="preserve" text-anchor="middle" x="582" y="-822.25" font-family="Helvetica,sans-Serif" font-size="10.00">8 x 10b</text>
</g>
<!-- am0 -->
<g id="node7" class="node">
<title>am0</title>
<path fill="#cfe2f3" stroke="#555555" d="M1704.88,-766.5C1704.88,-766.5 1619.12,-766.5 1619.12,-766.5 1613.12,-766.5 1607.12,-760.5 1607.12,-754.5 1607.12,-754.5 1607.12,-742.5 1607.12,-742.5 1607.12,-736.5 1613.12,-730.5 1619.12,-730.5 1619.12,-730.5 1704.88,-730.5 1704.88,-730.5 1710.88,-730.5 1716.88,-736.5 1716.88,-742.5 1716.88,-742.5 1716.88,-754.5 1716.88,-754.5 1716.88,-760.5 1710.88,-766.5 1704.88,-766.5"/>
<text xml:space="preserve" text-anchor="middle" x="1662" y="-751" font-family="Helvetica,sans-Serif" font-size="10.00">alpha_mid cell 0</text>
<text xml:space="preserve" text-anchor="middle" x="1662" y="-739" font-family="Helvetica,sans-Serif" font-size="10.00">2 adders plus 1 max2</text>
</g>
<!-- areg&#45;&gt;am0 -->
<g id="edge1" class="edge">
<title>areg&#45;&gt;am0</title>
<path fill="none" stroke="#444444" d="M637.97,-846C861.78,-846 1680.29,-846 1680.29,-846 1680.29,-846 1680.29,-778.35 1680.29,-778.35"/>
<polygon fill="#444444" stroke="#444444" points="1683.79,-778.35 1680.29,-768.35 1676.79,-778.35 1683.79,-778.35"/>
</g>
<!-- am1 -->
<g id="node8" class="node">
<title>am1</title>
<path fill="#cfe2f3" stroke="#555555" d="M1316.88,-766.5C1316.88,-766.5 1231.12,-766.5 1231.12,-766.5 1225.12,-766.5 1219.12,-760.5 1219.12,-754.5 1219.12,-754.5 1219.12,-742.5 1219.12,-742.5 1219.12,-736.5 1225.12,-730.5 1231.12,-730.5 1231.12,-730.5 1316.88,-730.5 1316.88,-730.5 1322.88,-730.5 1328.88,-736.5 1328.88,-742.5 1328.88,-742.5 1328.88,-754.5 1328.88,-754.5 1328.88,-760.5 1322.88,-766.5 1316.88,-766.5"/>
<text xml:space="preserve" text-anchor="middle" x="1274" y="-751" font-family="Helvetica,sans-Serif" font-size="10.00">alpha_mid cell 1</text>
<text xml:space="preserve" text-anchor="middle" x="1274" y="-739" font-family="Helvetica,sans-Serif" font-size="10.00">2 adders plus 1 max2</text>
</g>
<!-- areg&#45;&gt;am1 -->
<g id="edge2" class="edge">
<title>areg&#45;&gt;am1</title>
<path fill="none" stroke="#444444" d="M638.03,-825C805.75,-825 1292.29,-825 1292.29,-825 1292.29,-825 1292.29,-778.14 1292.29,-778.14"/>
<polygon fill="#444444" stroke="#444444" points="1295.79,-778.14 1292.29,-768.14 1288.79,-778.14 1295.79,-778.14"/>
</g>
<!-- amd -->
<g id="node9" class="node">
<title>amd</title>
<path fill="#eeeeee" stroke="#555555" d="M1448.75,-766.5C1448.75,-766.5 1359.25,-766.5 1359.25,-766.5 1353.25,-766.5 1347.25,-760.5 1347.25,-754.5 1347.25,-754.5 1347.25,-742.5 1347.25,-742.5 1347.25,-736.5 1353.25,-730.5 1359.25,-730.5 1359.25,-730.5 1448.75,-730.5 1448.75,-730.5 1454.75,-730.5 1460.75,-736.5 1460.75,-742.5 1460.75,-742.5 1460.75,-754.5 1460.75,-754.5 1460.75,-760.5 1454.75,-766.5 1448.75,-766.5"/>
<text xml:space="preserve" text-anchor="middle" x="1404" y="-751" font-family="Helvetica,sans-Serif" font-size="10.00">...</text>
<text xml:space="preserve" text-anchor="middle" x="1404" y="-739" font-family="Helvetica,sans-Serif" font-size="10.00">8 alpha_mid cells total</text>
</g>
<!-- areg&#45;&gt;amd -->
<g id="edge3" class="edge">
<title>areg&#45;&gt;amd</title>
<path fill="none" stroke="#444444" stroke-dasharray="5,2" d="M637.83,-832C825.64,-832 1422.92,-832 1422.92,-832 1422.92,-832 1422.92,-778.13 1422.92,-778.13"/>
<polygon fill="#444444" stroke="#444444" points="1426.42,-778.13 1422.92,-768.13 1419.42,-778.13 1426.42,-778.13"/>
</g>
<!-- am7 -->
<g id="node10" class="node">
<title>am7</title>
<path fill="#cfe2f3" stroke="#555555" d="M1576.88,-766.5C1576.88,-766.5 1491.12,-766.5 1491.12,-766.5 1485.12,-766.5 1479.12,-760.5 1479.12,-754.5 1479.12,-754.5 1479.12,-742.5 1479.12,-742.5 1479.12,-736.5 1485.12,-730.5 1491.12,-730.5 1491.12,-730.5 1576.88,-730.5 1576.88,-730.5 1582.88,-730.5 1588.88,-736.5 1588.88,-742.5 1588.88,-742.5 1588.88,-754.5 1588.88,-754.5 1588.88,-760.5 1582.88,-766.5 1576.88,-766.5"/>
<text xml:space="preserve" text-anchor="middle" x="1534" y="-751" font-family="Helvetica,sans-Serif" font-size="10.00">alpha_mid cell 7</text>
<text xml:space="preserve" text-anchor="middle" x="1534" y="-739" font-family="Helvetica,sans-Serif" font-size="10.00">2 adders plus 1 max2</text>
</g>
<!-- areg&#45;&gt;am7 -->
<g id="edge4" class="edge">
<title>areg&#45;&gt;am7</title>
<path fill="none" stroke="#444444" d="M638.01,-839C844.64,-839 1552.29,-839 1552.29,-839 1552.29,-839 1552.29,-778.33 1552.29,-778.33"/>
<polygon fill="#444444" stroke="#444444" points="1555.79,-778.33 1552.29,-768.33 1548.79,-778.33 1555.79,-778.33"/>
</g>
<!-- eu0 -->
<g id="node17" class="node">
<title>eu0</title>
<path fill="#cfe2f3" stroke="#555555" d="M204.5,-603.25C204.5,-603.25 137.5,-603.25 137.5,-603.25 131.5,-603.25 125.5,-597.25 125.5,-591.25 125.5,-591.25 125.5,-579.25 125.5,-579.25 125.5,-573.25 131.5,-567.25 137.5,-567.25 137.5,-567.25 204.5,-567.25 204.5,-567.25 210.5,-567.25 216.5,-573.25 216.5,-579.25 216.5,-579.25 216.5,-591.25 216.5,-591.25 216.5,-597.25 210.5,-603.25 204.5,-603.25"/>
<text xml:space="preserve" text-anchor="middle" x="171" y="-587.75" font-family="Helvetica,sans-Serif" font-size="10.00">u0=0 candidate 0</text>
<text xml:space="preserve" text-anchor="middle" x="171" y="-575.75" font-family="Helvetica,sans-Serif" font-size="10.00">2&#45;adder chain</text>
</g>
<!-- areg&#45;&gt;eu0 -->
<g id="edge25" class="edge">
<title>areg&#45;&gt;eu0</title>
<path fill="none" stroke="#444444" d="M549.12,-813.36C549.12,-787.37 549.12,-743 549.12,-743 549.12,-743 171,-743 171,-743 171,-743 171,-615.17 171,-615.17"/>
<polygon fill="#444444" stroke="#444444" points="174.5,-615.17 171,-605.17 167.5,-615.17 174.5,-615.17"/>
</g>
<!-- eu1 -->
<g id="node18" class="node">
<title>eu1</title>
<path fill="#cfe2f3" stroke="#555555" d="M313.5,-603.25C313.5,-603.25 246.5,-603.25 246.5,-603.25 240.5,-603.25 234.5,-597.25 234.5,-591.25 234.5,-591.25 234.5,-579.25 234.5,-579.25 234.5,-573.25 240.5,-567.25 246.5,-567.25 246.5,-567.25 313.5,-567.25 313.5,-567.25 319.5,-567.25 325.5,-573.25 325.5,-579.25 325.5,-579.25 325.5,-591.25 325.5,-591.25 325.5,-597.25 319.5,-603.25 313.5,-603.25"/>
<text xml:space="preserve" text-anchor="middle" x="280" y="-587.75" font-family="Helvetica,sans-Serif" font-size="10.00">u0=0 candidate 1</text>
<text xml:space="preserve" text-anchor="middle" x="280" y="-575.75" font-family="Helvetica,sans-Serif" font-size="10.00">2&#45;adder chain</text>
</g>
<!-- areg&#45;&gt;eu1 -->
<g id="edge26" class="edge">
<title>areg&#45;&gt;eu1</title>
<path fill="none" stroke="#444444" d="M526.1,-843C448.73,-843 318.42,-843 318.42,-843 318.42,-843 318.42,-614.89 318.42,-614.89"/>
<polygon fill="#444444" stroke="#444444" points="321.92,-614.89 318.42,-604.89 314.92,-614.89 321.92,-614.89"/>
</g>
<!-- eud -->
<g id="node19" class="node">
<title>eud</title>
<path fill="#eeeeee" stroke="#555555" d="M442.25,-603.25C442.25,-603.25 355.75,-603.25 355.75,-603.25 349.75,-603.25 343.75,-597.25 343.75,-591.25 343.75,-591.25 343.75,-579.25 343.75,-579.25 343.75,-573.25 349.75,-567.25 355.75,-567.25 355.75,-567.25 442.25,-567.25 442.25,-567.25 448.25,-567.25 454.25,-573.25 454.25,-579.25 454.25,-579.25 454.25,-591.25 454.25,-591.25 454.25,-597.25 448.25,-603.25 442.25,-603.25"/>
<text xml:space="preserve" text-anchor="middle" x="399" y="-587.75" font-family="Helvetica,sans-Serif" font-size="10.00">...</text>
<text xml:space="preserve" text-anchor="middle" x="399" y="-575.75" font-family="Helvetica,sans-Serif" font-size="10.00">8 candidates for u0=0</text>
</g>
<!-- areg&#45;&gt;eud -->
<g id="edge27" class="edge">
<title>areg&#45;&gt;eud</title>
<path fill="none" stroke="#444444" stroke-dasharray="5,2" d="M526.1,-828C472.28,-828 399,-828 399,-828 399,-828 399,-615.01 399,-615.01"/>
<polygon fill="#444444" stroke="#444444" points="402.5,-615.01 399,-605.01 395.5,-615.01 402.5,-615.01"/>
</g>
<!-- eu7 -->
<g id="node20" class="node">
<title>eu7</title>
<path fill="#cfe2f3" stroke="#555555" d="M95.5,-603.25C95.5,-603.25 28.5,-603.25 28.5,-603.25 22.5,-603.25 16.5,-597.25 16.5,-591.25 16.5,-591.25 16.5,-579.25 16.5,-579.25 16.5,-573.25 22.5,-567.25 28.5,-567.25 28.5,-567.25 95.5,-567.25 95.5,-567.25 101.5,-567.25 107.5,-573.25 107.5,-579.25 107.5,-579.25 107.5,-591.25 107.5,-591.25 107.5,-597.25 101.5,-603.25 95.5,-603.25"/>
<text xml:space="preserve" text-anchor="middle" x="62" y="-587.75" font-family="Helvetica,sans-Serif" font-size="10.00">u0=0 candidate 7</text>
<text xml:space="preserve" text-anchor="middle" x="62" y="-575.75" font-family="Helvetica,sans-Serif" font-size="10.00">2&#45;adder chain</text>
</g>
<!-- areg&#45;&gt;eu7 -->
<g id="edge28" class="edge">
<title>areg&#45;&gt;eu7</title>
<path fill="none" stroke="#444444" d="M537.75,-813.56C537.75,-790.87 537.75,-755 537.75,-755 537.75,-755 62,-755 62,-755 62,-755 62,-615.25 62,-615.25"/>
<polygon fill="#444444" stroke="#444444" points="65.5,-615.25 62,-605.25 58.5,-615.25 65.5,-615.25"/>
</g>
<!-- ev0 -->
<g id="node22" class="node">
<title>ev0</title>
<path fill="#cfe2f3" stroke="#555555" d="M789.5,-603.25C789.5,-603.25 722.5,-603.25 722.5,-603.25 716.5,-603.25 710.5,-597.25 710.5,-591.25 710.5,-591.25 710.5,-579.25 710.5,-579.25 710.5,-573.25 716.5,-567.25 722.5,-567.25 722.5,-567.25 789.5,-567.25 789.5,-567.25 795.5,-567.25 801.5,-573.25 801.5,-579.25 801.5,-579.25 801.5,-591.25 801.5,-591.25 801.5,-597.25 795.5,-603.25 789.5,-603.25"/>
<text xml:space="preserve" text-anchor="middle" x="756" y="-587.75" font-family="Helvetica,sans-Serif" font-size="10.00">u0=1 candidate 0</text>
<text xml:space="preserve" text-anchor="middle" x="756" y="-575.75" font-family="Helvetica,sans-Serif" font-size="10.00">2&#45;adder chain</text>
</g>
<!-- areg&#45;&gt;ev0 -->
<g id="edge41" class="edge">
<title>areg&#45;&gt;ev0</title>
<path fill="none" stroke="#444444" d="M628.59,-813.36C628.59,-766.63 628.59,-647 628.59,-647 628.59,-647 750.19,-647 750.19,-647 750.19,-647 750.19,-614.96 750.19,-614.96"/>
<polygon fill="#444444" stroke="#444444" points="753.69,-614.96 750.19,-604.96 746.69,-614.96 753.69,-614.96"/>
</g>
<!-- ev1 -->
<g id="node23" class="node">
<title>ev1</title>
<path fill="#cfe2f3" stroke="#555555" d="M898.5,-603.25C898.5,-603.25 831.5,-603.25 831.5,-603.25 825.5,-603.25 819.5,-597.25 819.5,-591.25 819.5,-591.25 819.5,-579.25 819.5,-579.25 819.5,-573.25 825.5,-567.25 831.5,-567.25 831.5,-567.25 898.5,-567.25 898.5,-567.25 904.5,-567.25 910.5,-573.25 910.5,-579.25 910.5,-579.25 910.5,-591.25 910.5,-591.25 910.5,-597.25 904.5,-603.25 898.5,-603.25"/>
<text xml:space="preserve" text-anchor="middle" x="865" y="-587.75" font-family="Helvetica,sans-Serif" font-size="10.00">u0=1 candidate 1</text>
<text xml:space="preserve" text-anchor="middle" x="865" y="-575.75" font-family="Helvetica,sans-Serif" font-size="10.00">2&#45;adder chain</text>
</g>
<!-- areg&#45;&gt;ev1 -->
<g id="edge42" class="edge">
<title>areg&#45;&gt;ev1</title>
<path fill="none" stroke="#444444" d="M638.07,-817C710.6,-817 827.75,-817 827.75,-817 827.75,-817 827.75,-614.95 827.75,-614.95"/>
<polygon fill="#444444" stroke="#444444" points="831.25,-614.95 827.75,-604.95 824.25,-614.95 831.25,-614.95"/>
</g>
<!-- evd -->
<g id="node24" class="node">
<title>evd</title>
<path fill="#eeeeee" stroke="#555555" d="M571.25,-603.25C571.25,-603.25 484.75,-603.25 484.75,-603.25 478.75,-603.25 472.75,-597.25 472.75,-591.25 472.75,-591.25 472.75,-579.25 472.75,-579.25 472.75,-573.25 478.75,-567.25 484.75,-567.25 484.75,-567.25 571.25,-567.25 571.25,-567.25 577.25,-567.25 583.25,-573.25 583.25,-579.25 583.25,-579.25 583.25,-591.25 583.25,-591.25 583.25,-597.25 577.25,-603.25 571.25,-603.25"/>
<text xml:space="preserve" text-anchor="middle" x="528" y="-587.75" font-family="Helvetica,sans-Serif" font-size="10.00">...</text>
<text xml:space="preserve" text-anchor="middle" x="528" y="-575.75" font-family="Helvetica,sans-Serif" font-size="10.00">8 candidates for u0=1</text>
</g>
<!-- areg&#45;&gt;evd -->
<g id="edge43" class="edge">
<title>areg&#45;&gt;evd</title>
<path fill="none" stroke="#444444" stroke-dasharray="5,2" d="M560.5,-813.62C560.5,-813.62 560.5,-615.25 560.5,-615.25"/>
<polygon fill="#444444" stroke="#444444" points="564,-615.25 560.5,-605.25 557,-615.25 564,-615.25"/>
</g>
<!-- ev7 -->
<g id="node25" class="node">
<title>ev7</title>
<path fill="#cfe2f3" stroke="#555555" d="M680.5,-603.25C680.5,-603.25 613.5,-603.25 613.5,-603.25 607.5,-603.25 601.5,-597.25 601.5,-591.25 601.5,-591.25 601.5,-579.25 601.5,-579.25 601.5,-573.25 607.5,-567.25 613.5,-567.25 613.5,-567.25 680.5,-567.25 680.5,-567.25 686.5,-567.25 692.5,-573.25 692.5,-579.25 692.5,-579.25 692.5,-591.25 692.5,-591.25 692.5,-597.25 686.5,-603.25 680.5,-603.25"/>
<text xml:space="preserve" text-anchor="middle" x="647" y="-587.75" font-family="Helvetica,sans-Serif" font-size="10.00">u0=1 candidate 7</text>
<text xml:space="preserve" text-anchor="middle" x="647" y="-575.75" font-family="Helvetica,sans-Serif" font-size="10.00">2&#45;adder chain</text>
</g>
<!-- areg&#45;&gt;ev7 -->
<g id="edge44" class="edge">
<title>areg&#45;&gt;ev7</title>
<path fill="none" stroke="#444444" d="M619.56,-813.62C619.56,-813.62 619.56,-615.25 619.56,-615.25"/>
<polygon fill="#444444" stroke="#444444" points="623.06,-615.25 619.56,-605.25 616.06,-615.25 623.06,-615.25"/>
</g>
<!-- breg -->
<g id="node2" class="node">
<title>breg</title>
<path fill="#ead1dc" stroke="#555555" d="M1843.38,-849.75C1843.38,-849.75 1760.62,-849.75 1760.62,-849.75 1754.62,-849.75 1748.62,-843.75 1748.62,-837.75 1748.62,-837.75 1748.62,-825.75 1748.62,-825.75 1748.62,-819.75 1754.62,-813.75 1760.62,-813.75 1760.62,-813.75 1843.38,-813.75 1843.38,-813.75 1849.38,-813.75 1855.38,-819.75 1855.38,-825.75 1855.38,-825.75 1855.38,-837.75 1855.38,-837.75 1855.38,-843.75 1849.38,-849.75 1843.38,-849.75"/>
<text xml:space="preserve" text-anchor="middle" x="1802" y="-834.25" font-family="Helvetica,sans-Serif" font-size="10.00">beta_in register word</text>
<text xml:space="preserve" text-anchor="middle" x="1802" y="-822.25" font-family="Helvetica,sans-Serif" font-size="10.00">8 x 10b</text>
</g>
<!-- bm0 -->
<g id="node12" class="node">
<title>bm0</title>
<path fill="#cfe2f3" stroke="#555555" d="M1182.88,-766.5C1182.88,-766.5 1097.12,-766.5 1097.12,-766.5 1091.12,-766.5 1085.12,-760.5 1085.12,-754.5 1085.12,-754.5 1085.12,-742.5 1085.12,-742.5 1085.12,-736.5 1091.12,-730.5 1097.12,-730.5 1097.12,-730.5 1182.88,-730.5 1182.88,-730.5 1188.88,-730.5 1194.88,-736.5 1194.88,-742.5 1194.88,-742.5 1194.88,-754.5 1194.88,-754.5 1194.88,-760.5 1188.88,-766.5 1182.88,-766.5"/>
<text xml:space="preserve" text-anchor="middle" x="1140" y="-751" font-family="Helvetica,sans-Serif" font-size="10.00">beta_mid cell 0</text>
<text xml:space="preserve" text-anchor="middle" x="1140" y="-739" font-family="Helvetica,sans-Serif" font-size="10.00">2 adders plus 1 max2</text>
</g>
<!-- breg&#45;&gt;bm0 -->
<g id="edge13" class="edge">
<title>breg&#45;&gt;bm0</title>
<path fill="none" stroke="#444444" d="M1748.33,-821C1587.7,-821 1121.71,-821 1121.71,-821 1121.71,-821 1121.71,-778.31 1121.71,-778.31"/>
<polygon fill="#444444" stroke="#444444" points="1125.21,-778.31 1121.71,-768.31 1118.21,-778.31 1125.21,-778.31"/>
</g>
<!-- bm1 -->
<g id="node13" class="node">
<title>bm1</title>
<path fill="#cfe2f3" stroke="#555555" d="M800.88,-766.5C800.88,-766.5 715.12,-766.5 715.12,-766.5 709.12,-766.5 703.12,-760.5 703.12,-754.5 703.12,-754.5 703.12,-742.5 703.12,-742.5 703.12,-736.5 709.12,-730.5 715.12,-730.5 715.12,-730.5 800.88,-730.5 800.88,-730.5 806.88,-730.5 812.88,-736.5 812.88,-742.5 812.88,-742.5 812.88,-754.5 812.88,-754.5 812.88,-760.5 806.88,-766.5 800.88,-766.5"/>
<text xml:space="preserve" text-anchor="middle" x="758" y="-751" font-family="Helvetica,sans-Serif" font-size="10.00">beta_mid cell 1</text>
<text xml:space="preserve" text-anchor="middle" x="758" y="-739" font-family="Helvetica,sans-Serif" font-size="10.00">2 adders plus 1 max2</text>
</g>
<!-- breg&#45;&gt;bm1 -->
<g id="edge14" class="edge">
<title>breg&#45;&gt;bm1</title>
<path fill="none" stroke="#444444" d="M1748.23,-843C1532.28,-843 739.71,-843 739.71,-843 739.71,-843 739.71,-778.23 739.71,-778.23"/>
<polygon fill="#444444" stroke="#444444" points="743.21,-778.23 739.71,-768.23 736.21,-778.23 743.21,-778.23"/>
</g>
<!-- bmd -->
<g id="node14" class="node">
<title>bmd</title>
<path fill="#eeeeee" stroke="#555555" d="M927.5,-766.5C927.5,-766.5 842.5,-766.5 842.5,-766.5 836.5,-766.5 830.5,-760.5 830.5,-754.5 830.5,-754.5 830.5,-742.5 830.5,-742.5 830.5,-736.5 836.5,-730.5 842.5,-730.5 842.5,-730.5 927.5,-730.5 927.5,-730.5 933.5,-730.5 939.5,-736.5 939.5,-742.5 939.5,-742.5 939.5,-754.5 939.5,-754.5 939.5,-760.5 933.5,-766.5 927.5,-766.5"/>
<text xml:space="preserve" text-anchor="middle" x="885" y="-751" font-family="Helvetica,sans-Serif" font-size="10.00">...</text>
<text xml:space="preserve" text-anchor="middle" x="885" y="-739" font-family="Helvetica,sans-Serif" font-size="10.00">8 beta_mid cells total</text>
</g>
<!-- breg&#45;&gt;bmd -->
<g id="edge15" class="edge">
<title>breg&#45;&gt;bmd</title>
<path fill="none" stroke="#444444" stroke-dasharray="5,2" d="M1748.36,-835C1549.65,-835 866.83,-835 866.83,-835 866.83,-835 866.83,-778.36 866.83,-778.36"/>
<polygon fill="#444444" stroke="#444444" points="870.33,-778.36 866.83,-768.36 863.33,-778.36 870.33,-778.36"/>
</g>
<!-- bm7 -->
<g id="node15" class="node">
<title>bm7</title>
<path fill="#cfe2f3" stroke="#555555" d="M1054.88,-766.5C1054.88,-766.5 969.12,-766.5 969.12,-766.5 963.12,-766.5 957.12,-760.5 957.12,-754.5 957.12,-754.5 957.12,-742.5 957.12,-742.5 957.12,-736.5 963.12,-730.5 969.12,-730.5 969.12,-730.5 1054.88,-730.5 1054.88,-730.5 1060.88,-730.5 1066.88,-736.5 1066.88,-742.5 1066.88,-742.5 1066.88,-754.5 1066.88,-754.5 1066.88,-760.5 1060.88,-766.5 1054.88,-766.5"/>
<text xml:space="preserve" text-anchor="middle" x="1012" y="-751" font-family="Helvetica,sans-Serif" font-size="10.00">beta_mid cell 7</text>
<text xml:space="preserve" text-anchor="middle" x="1012" y="-739" font-family="Helvetica,sans-Serif" font-size="10.00">2 adders plus 1 max2</text>
</g>
<!-- breg&#45;&gt;bm7 -->
<g id="edge16" class="edge">
<title>breg&#45;&gt;bm7</title>
<path fill="none" stroke="#444444" d="M1748.34,-828C1567.81,-828 993.71,-828 993.71,-828 993.71,-828 993.71,-778.45 993.71,-778.45"/>
<polygon fill="#444444" stroke="#444444" points="997.21,-778.45 993.71,-768.45 990.21,-778.45 997.21,-778.45"/>
</g>
<!-- ou0 -->
<g id="node27" class="node">
<title>ou0</title>
<path fill="#cfe2f3" stroke="#555555" d="M2365.5,-603.25C2365.5,-603.25 2298.5,-603.25 2298.5,-603.25 2292.5,-603.25 2286.5,-597.25 2286.5,-591.25 2286.5,-591.25 2286.5,-579.25 2286.5,-579.25 2286.5,-573.25 2292.5,-567.25 2298.5,-567.25 2298.5,-567.25 2365.5,-567.25 2365.5,-567.25 2371.5,-567.25 2377.5,-573.25 2377.5,-579.25 2377.5,-579.25 2377.5,-591.25 2377.5,-591.25 2377.5,-597.25 2371.5,-603.25 2365.5,-603.25"/>
<text xml:space="preserve" text-anchor="middle" x="2332" y="-587.75" font-family="Helvetica,sans-Serif" font-size="10.00">u1=0 candidate 0</text>
<text xml:space="preserve" text-anchor="middle" x="2332" y="-575.75" font-family="Helvetica,sans-Serif" font-size="10.00">2&#45;adder chain</text>
</g>
<!-- breg&#45;&gt;ou0 -->
<g id="edge65" class="edge">
<title>breg&#45;&gt;ou0</title>
<path fill="none" stroke="#444444" d="M1850.4,-813.52C1850.4,-791.68 1850.4,-758 1850.4,-758 1850.4,-758 2332,-758 2332,-758 2332,-758 2332,-615.25 2332,-615.25"/>
<polygon fill="#444444" stroke="#444444" points="2335.5,-615.25 2332,-605.25 2328.5,-615.25 2335.5,-615.25"/>
</g>
<!-- ou1 -->
<g id="node28" class="node">
<title>ou1</title>
<path fill="#cfe2f3" stroke="#555555" d="M2018.5,-603.25C2018.5,-603.25 1951.5,-603.25 1951.5,-603.25 1945.5,-603.25 1939.5,-597.25 1939.5,-591.25 1939.5,-591.25 1939.5,-579.25 1939.5,-579.25 1939.5,-573.25 1945.5,-567.25 1951.5,-567.25 1951.5,-567.25 2018.5,-567.25 2018.5,-567.25 2024.5,-567.25 2030.5,-573.25 2030.5,-579.25 2030.5,-579.25 2030.5,-591.25 2030.5,-591.25 2030.5,-597.25 2024.5,-603.25 2018.5,-603.25"/>
<text xml:space="preserve" text-anchor="middle" x="1985" y="-587.75" font-family="Helvetica,sans-Serif" font-size="10.00">u1=0 candidate 1</text>
<text xml:space="preserve" text-anchor="middle" x="1985" y="-575.75" font-family="Helvetica,sans-Serif" font-size="10.00">2&#45;adder chain</text>
</g>
<!-- breg&#45;&gt;ou1 -->
<g id="edge66" class="edge">
<title>breg&#45;&gt;ou1</title>
<path fill="none" stroke="#444444" d="M1855.42,-828C1909.44,-828 1985,-828 1985,-828 1985,-828 1985,-615.01 1985,-615.01"/>
<polygon fill="#444444" stroke="#444444" points="1988.5,-615.01 1985,-605.01 1981.5,-615.01 1988.5,-615.01"/>
</g>
<!-- oud -->
<g id="node29" class="node">
<title>oud</title>
<path fill="#eeeeee" stroke="#555555" d="M2147.25,-603.25C2147.25,-603.25 2060.75,-603.25 2060.75,-603.25 2054.75,-603.25 2048.75,-597.25 2048.75,-591.25 2048.75,-591.25 2048.75,-579.25 2048.75,-579.25 2048.75,-573.25 2054.75,-567.25 2060.75,-567.25 2060.75,-567.25 2147.25,-567.25 2147.25,-567.25 2153.25,-567.25 2159.25,-573.25 2159.25,-579.25 2159.25,-579.25 2159.25,-591.25 2159.25,-591.25 2159.25,-597.25 2153.25,-603.25 2147.25,-603.25"/>
<text xml:space="preserve" text-anchor="middle" x="2104" y="-587.75" font-family="Helvetica,sans-Serif" font-size="10.00">...</text>
<text xml:space="preserve" text-anchor="middle" x="2104" y="-575.75" font-family="Helvetica,sans-Serif" font-size="10.00">8 candidates for u1=0</text>
</g>
<!-- breg&#45;&gt;oud -->
<g id="edge67" class="edge">
<title>breg&#45;&gt;oud</title>
<path fill="none" stroke="#444444" stroke-dasharray="5,2" d="M1855.63,-843C1931.83,-843 2062.33,-843 2062.33,-843 2062.33,-843 2062.33,-614.89 2062.33,-614.89"/>
<polygon fill="#444444" stroke="#444444" points="2065.83,-614.89 2062.33,-604.89 2058.83,-614.89 2065.83,-614.89"/>
</g>
<!-- ou7 -->
<g id="node30" class="node">
<title>ou7</title>
<path fill="#cfe2f3" stroke="#555555" d="M2256.5,-603.25C2256.5,-603.25 2189.5,-603.25 2189.5,-603.25 2183.5,-603.25 2177.5,-597.25 2177.5,-591.25 2177.5,-591.25 2177.5,-579.25 2177.5,-579.25 2177.5,-573.25 2183.5,-567.25 2189.5,-567.25 2189.5,-567.25 2256.5,-567.25 2256.5,-567.25 2262.5,-567.25 2268.5,-573.25 2268.5,-579.25 2268.5,-579.25 2268.5,-591.25 2268.5,-591.25 2268.5,-597.25 2262.5,-603.25 2256.5,-603.25"/>
<text xml:space="preserve" text-anchor="middle" x="2223" y="-587.75" font-family="Helvetica,sans-Serif" font-size="10.00">u1=0 candidate 7</text>
<text xml:space="preserve" text-anchor="middle" x="2223" y="-575.75" font-family="Helvetica,sans-Serif" font-size="10.00">2&#45;adder chain</text>
</g>
<!-- breg&#45;&gt;ou7 -->
<g id="edge68" class="edge">
<title>breg&#45;&gt;ou7</title>
<path fill="none" stroke="#444444" d="M1845.42,-813.39C1845.42,-789.01 1845.42,-749 1845.42,-749 1845.42,-749 2223,-749 2223,-749 2223,-749 2223,-615.23 2223,-615.23"/>
<polygon fill="#444444" stroke="#444444" points="2226.5,-615.23 2223,-605.23 2219.5,-615.23 2226.5,-615.23"/>
</g>
<!-- ov0 -->
<g id="node32" class="node">
<title>ov0</title>
<path fill="#cfe2f3" stroke="#555555" d="M1691.5,-603.25C1691.5,-603.25 1624.5,-603.25 1624.5,-603.25 1618.5,-603.25 1612.5,-597.25 1612.5,-591.25 1612.5,-591.25 1612.5,-579.25 1612.5,-579.25 1612.5,-573.25 1618.5,-567.25 1624.5,-567.25 1624.5,-567.25 1691.5,-567.25 1691.5,-567.25 1697.5,-567.25 1703.5,-573.25 1703.5,-579.25 1703.5,-579.25 1703.5,-591.25 1703.5,-591.25 1703.5,-597.25 1697.5,-603.25 1691.5,-603.25"/>
<text xml:space="preserve" text-anchor="middle" x="1658" y="-587.75" font-family="Helvetica,sans-Serif" font-size="10.00">u1=1 candidate 0</text>
<text xml:space="preserve" text-anchor="middle" x="1658" y="-575.75" font-family="Helvetica,sans-Serif" font-size="10.00">2&#45;adder chain</text>
</g>
<!-- breg&#45;&gt;ov0 -->
<g id="edge81" class="edge">
<title>breg&#45;&gt;ov0</title>
<path fill="none" stroke="#444444" d="M1774.17,-813.4C1774.17,-762.8 1774.17,-625 1774.17,-625 1774.17,-625 1664.69,-625 1664.69,-625 1664.69,-625 1664.69,-615.24 1664.69,-615.24"/>
<polygon fill="#444444" stroke="#444444" points="1668.19,-615.24 1664.69,-605.24 1661.19,-615.24 1668.19,-615.24"/>
</g>
<!-- ov1 -->
<g id="node33" class="node">
<title>ov1</title>
<path fill="#cfe2f3" stroke="#555555" d="M1909.5,-603.25C1909.5,-603.25 1842.5,-603.25 1842.5,-603.25 1836.5,-603.25 1830.5,-597.25 1830.5,-591.25 1830.5,-591.25 1830.5,-579.25 1830.5,-579.25 1830.5,-573.25 1836.5,-567.25 1842.5,-567.25 1842.5,-567.25 1909.5,-567.25 1909.5,-567.25 1915.5,-567.25 1921.5,-573.25 1921.5,-579.25 1921.5,-579.25 1921.5,-591.25 1921.5,-591.25 1921.5,-597.25 1915.5,-603.25 1909.5,-603.25"/>
<text xml:space="preserve" text-anchor="middle" x="1876" y="-587.75" font-family="Helvetica,sans-Serif" font-size="10.00">u1=1 candidate 1</text>
<text xml:space="preserve" text-anchor="middle" x="1876" y="-575.75" font-family="Helvetica,sans-Serif" font-size="10.00">2&#45;adder chain</text>
</g>
<!-- breg&#45;&gt;ov1 -->
<g id="edge82" class="edge">
<title>breg&#45;&gt;ov1</title>
<path fill="none" stroke="#444444" d="M1840.45,-813.62C1840.45,-813.62 1840.45,-615.25 1840.45,-615.25"/>
<polygon fill="#444444" stroke="#444444" points="1843.95,-615.25 1840.45,-605.25 1836.95,-615.25 1843.95,-615.25"/>
</g>
<!-- ovd -->
<g id="node34" class="node">
<title>ovd</title>
<path fill="#eeeeee" stroke="#555555" d="M1582.25,-603.25C1582.25,-603.25 1495.75,-603.25 1495.75,-603.25 1489.75,-603.25 1483.75,-597.25 1483.75,-591.25 1483.75,-591.25 1483.75,-579.25 1483.75,-579.25 1483.75,-573.25 1489.75,-567.25 1495.75,-567.25 1495.75,-567.25 1582.25,-567.25 1582.25,-567.25 1588.25,-567.25 1594.25,-573.25 1594.25,-579.25 1594.25,-579.25 1594.25,-591.25 1594.25,-591.25 1594.25,-597.25 1588.25,-603.25 1582.25,-603.25"/>
<text xml:space="preserve" text-anchor="middle" x="1539" y="-587.75" font-family="Helvetica,sans-Serif" font-size="10.00">...</text>
<text xml:space="preserve" text-anchor="middle" x="1539" y="-575.75" font-family="Helvetica,sans-Serif" font-size="10.00">8 candidates for u1=1</text>
</g>
<!-- breg&#45;&gt;ovd -->
<g id="edge83" class="edge">
<title>breg&#45;&gt;ovd</title>
<path fill="none" stroke="#444444" stroke-dasharray="5,2" d="M1761.4,-813.46C1761.4,-780.15 1761.4,-713 1761.4,-713 1761.4,-713 1504.78,-713 1504.78,-713 1504.78,-713 1504.78,-615.07 1504.78,-615.07"/>
<polygon fill="#444444" stroke="#444444" points="1508.28,-615.07 1504.78,-605.07 1501.28,-615.07 1508.28,-615.07"/>
</g>
<!-- ov7 -->
<g id="node35" class="node">
<title>ov7</title>
<path fill="#cfe2f3" stroke="#555555" d="M1800.5,-603.25C1800.5,-603.25 1733.5,-603.25 1733.5,-603.25 1727.5,-603.25 1721.5,-597.25 1721.5,-591.25 1721.5,-591.25 1721.5,-579.25 1721.5,-579.25 1721.5,-573.25 1727.5,-567.25 1733.5,-567.25 1733.5,-567.25 1800.5,-567.25 1800.5,-567.25 1806.5,-567.25 1812.5,-573.25 1812.5,-579.25 1812.5,-579.25 1812.5,-591.25 1812.5,-591.25 1812.5,-597.25 1806.5,-603.25 1800.5,-603.25"/>
<text xml:space="preserve" text-anchor="middle" x="1767" y="-587.75" font-family="Helvetica,sans-Serif" font-size="10.00">u1=1 candidate 7</text>
<text xml:space="preserve" text-anchor="middle" x="1767" y="-575.75" font-family="Helvetica,sans-Serif" font-size="10.00">2&#45;adder chain</text>
</g>
<!-- breg&#45;&gt;ov7 -->
<g id="edge84" class="edge">
<title>breg&#45;&gt;ov7</title>
<path fill="none" stroke="#444444" d="M1786.95,-813.62C1786.95,-813.62 1786.95,-615.25 1786.95,-615.25"/>
<polygon fill="#444444" stroke="#444444" points="1790.45,-615.25 1786.95,-605.25 1783.45,-615.25 1790.45,-615.25"/>
</g>
<!-- g0reg -->
<g id="node3" class="node">
<title>g0reg</title>
<path fill="#ead1dc" stroke="#555555" d="M302.88,-849.75C302.88,-849.75 253.12,-849.75 253.12,-849.75 247.12,-849.75 241.12,-843.75 241.12,-837.75 241.12,-837.75 241.12,-825.75 241.12,-825.75 241.12,-819.75 247.12,-813.75 253.12,-813.75 253.12,-813.75 302.88,-813.75 302.88,-813.75 308.88,-813.75 314.88,-819.75 314.88,-825.75 314.88,-825.75 314.88,-837.75 314.88,-837.75 314.88,-843.75 308.88,-849.75 302.88,-849.75"/>
<text xml:space="preserve" text-anchor="middle" x="278" y="-834.25" font-family="Helvetica,sans-Serif" font-size="10.00">g0 local word</text>
<text xml:space="preserve" text-anchor="middle" x="278" y="-822.25" font-family="Helvetica,sans-Serif" font-size="10.00">4 x 10b</text>
</g>
<!-- g0reg&#45;&gt;am0 -->
<g id="edge5" class="edge">
<title>g0reg&#45;&gt;am0</title>
<path fill="none" stroke="#444444" d="M298.49,-813.39C298.49,-810.8 298.49,-809 298.49,-809 298.49,-809 1643.71,-809 1643.71,-809 1643.71,-809 1643.71,-778.49 1643.71,-778.49"/>
<polygon fill="#444444" stroke="#444444" points="1647.21,-778.49 1643.71,-768.49 1640.21,-778.49 1647.21,-778.49"/>
</g>
<!-- g0reg&#45;&gt;am1 -->
<g id="edge6" class="edge">
<title>g0reg&#45;&gt;am1</title>
<path fill="none" stroke="#444444" d="M273.9,-813.43C273.9,-798.89 273.9,-781 273.9,-781 273.9,-781 1255.71,-781 1255.71,-781 1255.71,-781 1255.71,-778.16 1255.71,-778.16"/>
<polygon fill="#444444" stroke="#444444" points="1259.21,-778.16 1255.71,-768.16 1252.21,-778.16 1259.21,-778.16"/>
</g>
<!-- g0reg&#45;&gt;amd -->
<g id="edge7" class="edge">
<title>g0reg&#45;&gt;amd</title>
<path fill="none" stroke="#444444" stroke-dasharray="5,2" d="M282.1,-813.32C282.1,-802.13 282.1,-790 282.1,-790 282.1,-790 1385.08,-790 1385.08,-790 1385.08,-790 1385.08,-778.34 1385.08,-778.34"/>
<polygon fill="#444444" stroke="#444444" points="1388.58,-778.34 1385.08,-768.34 1381.58,-778.34 1388.58,-778.34"/>
</g>
<!-- g0reg&#45;&gt;am7 -->
<g id="edge8" class="edge">
<title>g0reg&#45;&gt;am7</title>
<path fill="none" stroke="#444444" d="M290.29,-813.28C290.29,-806.3 290.29,-800 290.29,-800 290.29,-800 1515.71,-800 1515.71,-800 1515.71,-800 1515.71,-778.32 1515.71,-778.32"/>
<polygon fill="#444444" stroke="#444444" points="1519.21,-778.32 1515.71,-768.32 1512.21,-778.32 1519.21,-778.32"/>
</g>
<!-- g0reg&#45;&gt;eu0 -->
<g id="edge29" class="edge">
<title>g0reg&#45;&gt;eu0</title>
<path fill="none" stroke="#444444" d="M240.82,-826C202.48,-826 148.25,-826 148.25,-826 148.25,-826 148.25,-615.26 148.25,-615.26"/>
<polygon fill="#444444" stroke="#444444" points="151.75,-615.26 148.25,-605.26 144.75,-615.26 151.75,-615.26"/>
</g>
<!-- g0reg&#45;&gt;eu1 -->
<g id="edge30" class="edge">
<title>g0reg&#45;&gt;eu1</title>
<path fill="none" stroke="#444444" d="M249.32,-813.62C249.32,-813.62 249.32,-615.25 249.32,-615.25"/>
<polygon fill="#444444" stroke="#444444" points="252.82,-615.25 249.32,-605.25 245.82,-615.25 252.82,-615.25"/>
</g>
<!-- g0reg&#45;&gt;eud -->
<g id="edge31" class="edge">
<title>g0reg&#45;&gt;eud</title>
<path fill="none" stroke="#444444" stroke-dasharray="5,2" d="M315.17,-821C341.21,-821 371.38,-821 371.38,-821 371.38,-821 371.38,-615.26 371.38,-615.26"/>
<polygon fill="#444444" stroke="#444444" points="374.88,-615.26 371.38,-605.26 367.88,-615.26 374.88,-615.26"/>
</g>
<!-- g0reg&#45;&gt;eu7 -->
<g id="edge32" class="edge">
<title>g0reg&#45;&gt;eu7</title>
<path fill="none" stroke="#444444" d="M240.7,-838C173.55,-838 39.25,-838 39.25,-838 39.25,-838 39.25,-614.94 39.25,-614.94"/>
<polygon fill="#444444" stroke="#444444" points="42.75,-614.94 39.25,-604.94 35.75,-614.94 42.75,-614.94"/>
</g>
<!-- g0reg&#45;&gt;ev0 -->
<g id="edge45" class="edge">
<title>g0reg&#45;&gt;ev0</title>
<path fill="none" stroke="#444444" d="M257.51,-813.33C257.51,-764.61 257.51,-636 257.51,-636 257.51,-636 730.34,-636 730.34,-636 730.34,-636 730.34,-615.09 730.34,-615.09"/>
<polygon fill="#444444" stroke="#444444" points="733.84,-615.09 730.34,-605.09 726.84,-615.09 733.84,-615.09"/>
</g>
<!-- g0reg&#45;&gt;ev1 -->
<g id="edge46" class="edge">
<title>g0reg&#45;&gt;ev1</title>
<path fill="none" stroke="#444444" d="M306.68,-813.63C306.68,-782.45 306.68,-722 306.68,-722 306.68,-722 825,-722 825,-722 825,-722 825,-615.21 825,-615.21"/>
<polygon fill="#444444" stroke="#444444" points="828.5,-615.21 825,-605.21 821.5,-615.21 828.5,-615.21"/>
</g>
<!-- g0reg&#45;&gt;evd -->
<g id="edge47" class="edge">
<title>g0reg&#45;&gt;evd</title>
<path fill="none" stroke="#444444" stroke-dasharray="5,2" d="M315.33,-835C378.48,-835 499.56,-835 499.56,-835 499.56,-835 499.56,-615.13 499.56,-615.13"/>
<polygon fill="#444444" stroke="#444444" points="503.06,-615.13 499.56,-605.13 496.06,-615.13 503.06,-615.13"/>
</g>
<!-- g0reg&#45;&gt;ev7 -->
<g id="edge48" class="edge">
<title>g0reg&#45;&gt;ev7</title>
<path fill="none" stroke="#444444" d="M265.71,-813.52C265.71,-795.63 265.71,-771 265.71,-771 265.71,-771 610.53,-771 610.53,-771 610.53,-771 610.53,-615.25 610.53,-615.25"/>
<polygon fill="#444444" stroke="#444444" points="614.03,-615.25 610.53,-605.25 607.03,-615.25 614.03,-615.25"/>
</g>
<!-- g1reg -->
<g id="node4" class="node">
<title>g1reg</title>
<path fill="#ead1dc" stroke="#555555" d="M2130.88,-849.75C2130.88,-849.75 2081.12,-849.75 2081.12,-849.75 2075.12,-849.75 2069.12,-843.75 2069.12,-837.75 2069.12,-837.75 2069.12,-825.75 2069.12,-825.75 2069.12,-819.75 2075.12,-813.75 2081.12,-813.75 2081.12,-813.75 2130.88,-813.75 2130.88,-813.75 2136.88,-813.75 2142.88,-819.75 2142.88,-825.75 2142.88,-825.75 2142.88,-837.75 2142.88,-837.75 2142.88,-843.75 2136.88,-849.75 2130.88,-849.75"/>
<text xml:space="preserve" text-anchor="middle" x="2106" y="-834.25" font-family="Helvetica,sans-Serif" font-size="10.00">g1 local word</text>
<text xml:space="preserve" text-anchor="middle" x="2106" y="-822.25" font-family="Helvetica,sans-Serif" font-size="10.00">4 x 10b</text>
</g>
<!-- g1reg&#45;&gt;bm0 -->
<g id="edge17" class="edge">
<title>g1reg&#45;&gt;bm0</title>
<path fill="none" stroke="#444444" d="M2101.9,-813.5C2101.9,-797.24 2101.9,-776 2101.9,-776 2101.9,-776 1158.29,-776 1158.29,-776 1158.29,-776 1158.29,-775.1 1158.29,-775.1"/>
<polygon fill="#444444" stroke="#444444" points="1161.79,-778.51 1158.29,-768.51 1154.79,-778.51 1161.79,-778.51"/>
</g>
<!-- g1reg&#45;&gt;bm1 -->
<g id="edge18" class="edge">
<title>g1reg&#45;&gt;bm1</title>
<path fill="none" stroke="#444444" d="M2077.32,-813.39C2077.32,-808.23 2077.32,-804 2077.32,-804 2077.32,-804 776.29,-804 776.29,-804 776.29,-804 776.29,-778.49 776.29,-778.49"/>
<polygon fill="#444444" stroke="#444444" points="779.79,-778.49 776.29,-768.49 772.79,-778.49 779.79,-778.49"/>
</g>
<!-- g1reg&#45;&gt;bmd -->
<g id="edge19" class="edge">
<title>g1reg&#45;&gt;bmd</title>
<path fill="none" stroke="#444444" stroke-dasharray="5,2" d="M2085.51,-813.38C2085.51,-804.19 2085.51,-795 2085.51,-795 2085.51,-795 903.17,-795 903.17,-795 903.17,-795 903.17,-778.39 903.17,-778.39"/>
<polygon fill="#444444" stroke="#444444" points="906.67,-778.39 903.17,-768.39 899.67,-778.39 906.67,-778.39"/>
</g>
<!-- g1reg&#45;&gt;bm7 -->
<g id="edge20" class="edge">
<title>g1reg&#45;&gt;bm7</title>
<path fill="none" stroke="#444444" d="M2093.71,-813.27C2093.71,-800.21 2093.71,-785 2093.71,-785 2093.71,-785 1030.29,-785 1030.29,-785 1030.29,-785 1030.29,-778.26 1030.29,-778.26"/>
<polygon fill="#444444" stroke="#444444" points="1033.79,-778.26 1030.29,-768.26 1026.79,-778.26 1033.79,-778.26"/>
</g>
<!-- g1reg&#45;&gt;ou0 -->
<g id="edge61" class="edge">
<title>g1reg&#45;&gt;ou0</title>
<path fill="none" stroke="#444444" d="M2143.24,-838C2212.63,-838 2354.75,-838 2354.75,-838 2354.75,-838 2354.75,-614.94 2354.75,-614.94"/>
<polygon fill="#444444" stroke="#444444" points="2358.25,-614.94 2354.75,-604.94 2351.25,-614.94 2358.25,-614.94"/>
</g>
<!-- g1reg&#45;&gt;ou1 -->
<g id="edge62" class="edge">
<title>g1reg&#45;&gt;ou1</title>
<path fill="none" stroke="#444444" d="M2068.86,-821C2041.03,-821 2007.75,-821 2007.75,-821 2007.75,-821 2007.75,-615.26 2007.75,-615.26"/>
<polygon fill="#444444" stroke="#444444" points="2011.25,-615.26 2007.75,-605.26 2004.25,-615.26 2011.25,-615.26"/>
</g>
<!-- g1reg&#45;&gt;oud -->
<g id="edge63" class="edge">
<title>g1reg&#45;&gt;oud</title>
<path fill="none" stroke="#444444" stroke-dasharray="5,2" d="M2134.68,-813.62C2134.68,-813.62 2134.68,-615.25 2134.68,-615.25"/>
<polygon fill="#444444" stroke="#444444" points="2138.18,-615.25 2134.68,-605.25 2131.18,-615.25 2138.18,-615.25"/>
</g>
<!-- g1reg&#45;&gt;ou7 -->
<g id="edge64" class="edge">
<title>g1reg&#45;&gt;ou7</title>
<path fill="none" stroke="#444444" d="M2143.08,-826C2184.49,-826 2245.75,-826 2245.75,-826 2245.75,-826 2245.75,-615.26 2245.75,-615.26"/>
<polygon fill="#444444" stroke="#444444" points="2249.25,-615.26 2245.75,-605.26 2242.25,-615.26 2249.25,-615.26"/>
</g>
<!-- g1reg&#45;&gt;ov0 -->
<g id="edge77" class="edge">
<title>g1reg&#45;&gt;ov0</title>
<path fill="none" stroke="#444444" d="M2126.49,-813.56C2126.49,-761.23 2126.49,-614 2126.49,-614 2126.49,-614 1684.09,-614 1684.09,-614 1684.09,-614 1684.09,-612.96 1684.09,-612.96"/>
<polygon fill="#444444" stroke="#444444" points="1687.59,-615.13 1684.09,-605.13 1680.59,-615.13 1687.59,-615.13"/>
</g>
<!-- g1reg&#45;&gt;ov1 -->
<g id="edge78" class="edge">
<title>g1reg&#45;&gt;ov1</title>
<path fill="none" stroke="#444444" d="M2069.09,-835C2007.02,-835 1888.44,-835 1888.44,-835 1888.44,-835 1888.44,-615.13 1888.44,-615.13"/>
<polygon fill="#444444" stroke="#444444" points="1891.94,-615.13 1888.44,-605.13 1884.94,-615.13 1891.94,-615.13"/>
</g>
<!-- g1reg&#45;&gt;ovd -->
<g id="edge79" class="edge">
<title>g1reg&#45;&gt;ovd</title>
<path fill="none" stroke="#444444" stroke-dasharray="5,2" d="M2118.29,-813.45C2118.29,-778.12 2118.29,-704 2118.29,-704 2118.29,-704 1525.8,-704 1525.8,-704 1525.8,-704 1525.8,-615.06 1525.8,-615.06"/>
<polygon fill="#444444" stroke="#444444" points="1529.3,-615.06 1525.8,-605.06 1522.3,-615.06 1529.3,-615.06"/>
</g>
<!-- g1reg&#45;&gt;ov7 -->
<g id="edge80" class="edge">
<title>g1reg&#45;&gt;ov7</title>
<path fill="none" stroke="#444444" d="M2110.1,-813.62C2110.1,-786.88 2110.1,-740 2110.1,-740 2110.1,-740 1799.72,-740 1799.72,-740 1799.72,-740 1799.72,-615.12 1799.72,-615.12"/>
<polygon fill="#444444" stroke="#444444" points="1803.23,-615.12 1799.73,-605.12 1796.23,-615.12 1803.23,-615.12"/>
</g>
<!-- sreg -->
<g id="node5" class="node">
<title>sreg</title>
<path fill="#ead1dc" stroke="#555555" d="M1472.12,-440C1472.12,-440 1405.88,-440 1405.88,-440 1399.88,-440 1393.88,-434 1393.88,-428 1393.88,-428 1393.88,-416 1393.88,-416 1393.88,-410 1399.88,-404 1405.88,-404 1405.88,-404 1472.12,-404 1472.12,-404 1478.12,-404 1484.12,-410 1484.12,-416 1484.12,-416 1484.12,-428 1484.12,-428 1484.12,-434 1478.12,-440 1472.12,-440"/>
<text xml:space="preserve" text-anchor="middle" x="1439" y="-424.5" font-family="Helvetica,sans-Serif" font-size="10.00">cached sys word</text>
<text xml:space="preserve" text-anchor="middle" x="1439" y="-412.5" font-family="Helvetica,sans-Serif" font-size="10.00">2 x 5b</text>
</g>
<!-- esub0a -->
<g id="node39" class="node">
<title>esub0a</title>
<path fill="#fce5cd" stroke="#555555" d="M1237,-368C1237,-368 1149,-368 1149,-368 1143,-368 1137,-362 1137,-356 1137,-356 1137,-344 1137,-344 1137,-338 1143,-332 1149,-332 1149,-332 1237,-332 1237,-332 1243,-332 1249,-338 1249,-344 1249,-344 1249,-356 1249,-356 1249,-362 1243,-368 1237,-368"/>
<text xml:space="preserve" text-anchor="middle" x="1193" y="-352.5" font-family="Helvetica,sans-Serif" font-size="10.00">Extrinsic subtractor 1</text>
<text xml:space="preserve" text-anchor="middle" x="1193" y="-340.5" font-family="Helvetica,sans-Serif" font-size="10.00">post_even &#45; sys_even</text>
</g>
<!-- sreg&#45;&gt;esub0a -->
<g id="edge95" class="edge">
<title>sreg&#45;&gt;esub0a</title>
<path fill="none" stroke="#444444" d="M1439.5,-403.94C1439.5,-392.56 1439.5,-380 1439.5,-380 1439.5,-380 1234.06,-380 1234.06,-380 1234.06,-380 1234.06,-378.85 1234.06,-378.85"/>
<polygon fill="#444444" stroke="#444444" points="1237.56,-380 1234.06,-370 1230.56,-380 1237.56,-380"/>
</g>
<!-- esub1a -->
<g id="node41" class="node">
<title>esub1a</title>
<path fill="#fce5cd" stroke="#555555" d="M1364.5,-368C1364.5,-368 1279.5,-368 1279.5,-368 1273.5,-368 1267.5,-362 1267.5,-356 1267.5,-356 1267.5,-344 1267.5,-344 1267.5,-338 1273.5,-332 1279.5,-332 1279.5,-332 1364.5,-332 1364.5,-332 1370.5,-332 1376.5,-338 1376.5,-344 1376.5,-344 1376.5,-356 1376.5,-356 1376.5,-362 1370.5,-368 1364.5,-368"/>
<text xml:space="preserve" text-anchor="middle" x="1322" y="-352.5" font-family="Helvetica,sans-Serif" font-size="10.00">Extrinsic subtractor 3</text>
<text xml:space="preserve" text-anchor="middle" x="1322" y="-340.5" font-family="Helvetica,sans-Serif" font-size="10.00">post_odd &#45; sys_odd</text>
</g>
<!-- sreg&#45;&gt;esub1a -->
<g id="edge96" class="edge">
<title>sreg&#45;&gt;esub1a</title>
<path fill="none" stroke="#444444" d="M1393.6,-422C1388.55,-422 1385.19,-422 1385.19,-422 1385.19,-422 1385.19,-350 1385.19,-350 1385.19,-350 1384.36,-350 1384.36,-350"/>
<polygon fill="#444444" stroke="#444444" points="1388.44,-346.5 1378.44,-350 1388.44,-353.5 1388.44,-346.5"/>
</g>
<!-- apreg -->
<g id="node6" class="node">
<title>apreg</title>
<path fill="#ead1dc" stroke="#555555" d="M1473.12,-368C1473.12,-368 1406.88,-368 1406.88,-368 1400.88,-368 1394.88,-362 1394.88,-356 1394.88,-356 1394.88,-344 1394.88,-344 1394.88,-338 1400.88,-332 1406.88,-332 1406.88,-332 1473.12,-332 1473.12,-332 1479.12,-332 1485.12,-338 1485.12,-344 1485.12,-344 1485.12,-356 1485.12,-356 1485.12,-362 1479.12,-368 1473.12,-368"/>
<text xml:space="preserve" text-anchor="middle" x="1440" y="-352.5" font-family="Helvetica,sans-Serif" font-size="10.00">cached apri word</text>
<text xml:space="preserve" text-anchor="middle" x="1440" y="-340.5" font-family="Helvetica,sans-Serif" font-size="10.00">2 x 6b</text>
</g>
<!-- esub0b -->
<g id="node40" class="node">
<title>esub0b</title>
<path fill="#fce5cd" stroke="#555555" d="M1235.5,-296C1235.5,-296 1150.5,-296 1150.5,-296 1144.5,-296 1138.5,-290 1138.5,-284 1138.5,-284 1138.5,-272 1138.5,-272 1138.5,-266 1144.5,-260 1150.5,-260 1150.5,-260 1235.5,-260 1235.5,-260 1241.5,-260 1247.5,-266 1247.5,-272 1247.5,-272 1247.5,-284 1247.5,-284 1247.5,-290 1241.5,-296 1235.5,-296"/>
<text xml:space="preserve" text-anchor="middle" x="1193" y="-280.5" font-family="Helvetica,sans-Serif" font-size="10.00">Extrinsic subtractor 2</text>
<text xml:space="preserve" text-anchor="middle" x="1193" y="-268.5" font-family="Helvetica,sans-Serif" font-size="10.00">minus apri_even</text>
</g>
<!-- apreg&#45;&gt;esub0b -->
<g id="edge99" class="edge">
<title>apreg&#45;&gt;esub0b</title>
<path fill="none" stroke="#444444" d="M1424.96,-331.58C1424.96,-322.72 1424.96,-314 1424.96,-314 1424.96,-314 1211.17,-314 1211.17,-314 1211.17,-314 1211.17,-307.94 1211.17,-307.94"/>
<polygon fill="#444444" stroke="#444444" points="1214.67,-307.94 1211.17,-297.94 1207.67,-307.94 1214.67,-307.94"/>
</g>
<!-- esub1b -->
<g id="node42" class="node">
<title>esub1b</title>
<path fill="#fce5cd" stroke="#555555" d="M1364.5,-296C1364.5,-296 1279.5,-296 1279.5,-296 1273.5,-296 1267.5,-290 1267.5,-284 1267.5,-284 1267.5,-272 1267.5,-272 1267.5,-266 1273.5,-260 1279.5,-260 1279.5,-260 1364.5,-260 1364.5,-260 1370.5,-260 1376.5,-266 1376.5,-272 1376.5,-272 1376.5,-284 1376.5,-284 1376.5,-290 1370.5,-296 1364.5,-296"/>
<text xml:space="preserve" text-anchor="middle" x="1322" y="-280.5" font-family="Helvetica,sans-Serif" font-size="10.00">Extrinsic subtractor 4</text>
<text xml:space="preserve" text-anchor="middle" x="1322" y="-268.5" font-family="Helvetica,sans-Serif" font-size="10.00">minus apri_odd</text>
</g>
<!-- apreg&#45;&gt;esub1b -->
<g id="edge100" class="edge">
<title>apreg&#45;&gt;esub1b</title>
<path fill="none" stroke="#444444" d="M1455.04,-331.83C1455.04,-310.5 1455.04,-278 1455.04,-278 1455.04,-278 1388.39,-278 1388.39,-278"/>
<polygon fill="#444444" stroke="#444444" points="1388.39,-274.5 1378.39,-278 1388.39,-281.5 1388.39,-274.5"/>
</g>
<!-- amout -->
<g id="node11" class="node">
<title>amout</title>
<path fill="#d9ead3" stroke="#555555" d="M1698.12,-694.5C1698.12,-694.5 1637.88,-694.5 1637.88,-694.5 1631.88,-694.5 1625.88,-688.5 1625.88,-682.5 1625.88,-682.5 1625.88,-670.5 1625.88,-670.5 1625.88,-664.5 1631.88,-658.5 1637.88,-658.5 1637.88,-658.5 1698.12,-658.5 1698.12,-658.5 1704.12,-658.5 1710.12,-664.5 1710.12,-670.5 1710.12,-670.5 1710.12,-682.5 1710.12,-682.5 1710.12,-688.5 1704.12,-694.5 1698.12,-694.5"/>
<text xml:space="preserve" text-anchor="middle" x="1668" y="-679" font-family="Helvetica,sans-Serif" font-size="10.00">alpha_mid bank</text>
<text xml:space="preserve" text-anchor="middle" x="1668" y="-667" font-family="Helvetica,sans-Serif" font-size="10.00">8 x 10b</text>
</g>
<!-- am0&#45;&gt;amout -->
<g id="edge9" class="edge">
<title>am0&#45;&gt;amout</title>
<path fill="none" stroke="#444444" d="M1668,-730.33C1668,-730.33 1668,-706.43 1668,-706.43"/>
<polygon fill="#444444" stroke="#444444" points="1671.5,-706.43 1668,-696.43 1664.5,-706.43 1671.5,-706.43"/>
</g>
<!-- am1&#45;&gt;amout -->
<g id="edge10" class="edge">
<title>am1&#45;&gt;amout</title>
<path fill="none" stroke="#444444" d="M1289.75,-730.13C1289.75,-707.22 1289.75,-671 1289.75,-671 1289.75,-671 1614.2,-671 1614.2,-671"/>
<polygon fill="#444444" stroke="#444444" points="1614.2,-674.5 1624.2,-671 1614.2,-667.5 1614.2,-674.5"/>
</g>
<!-- amd&#45;&gt;amout -->
<g id="edge11" class="edge">
<title>amd&#45;&gt;amout</title>
<path fill="none" stroke="#444444" d="M1427.31,-730.33C1427.31,-708.57 1427.31,-675 1427.31,-675 1427.31,-675 1614.01,-675 1614.01,-675"/>
<polygon fill="#444444" stroke="#444444" points="1614.01,-678.5 1624.01,-675 1614.01,-671.5 1614.01,-678.5"/>
</g>
<!-- am7&#45;&gt;amout -->
<g id="edge12" class="edge">
<title>am7&#45;&gt;amout</title>
<path fill="none" stroke="#444444" d="M1567.85,-730.24C1567.85,-709.65 1567.85,-679 1567.85,-679 1567.85,-679 1614.01,-679 1614.01,-679"/>
<polygon fill="#444444" stroke="#444444" points="1614.01,-682.5 1624.01,-679 1614.01,-675.5 1614.01,-682.5"/>
</g>
<!-- amout&#45;&gt;ou0 -->
<g id="edge57" class="edge">
<title>amout&#45;&gt;ou0</title>
<path fill="none" stroke="#444444" d="M1710.57,-689C1853.79,-689 2309.25,-689 2309.25,-689 2309.25,-689 2309.25,-614.84 2309.25,-614.84"/>
<polygon fill="#444444" stroke="#444444" points="2312.75,-614.84 2309.25,-604.84 2305.75,-614.84 2312.75,-614.84"/>
</g>
<!-- amout&#45;&gt;ou1 -->
<g id="edge58" class="edge">
<title>amout&#45;&gt;ou1</title>
<path fill="none" stroke="#444444" d="M1710.47,-674C1791.96,-674 1962.25,-674 1962.25,-674 1962.25,-674 1962.25,-615.15 1962.25,-615.15"/>
<polygon fill="#444444" stroke="#444444" points="1965.75,-615.15 1962.25,-605.15 1958.75,-615.15 1965.75,-615.15"/>
</g>
<!-- amout&#45;&gt;oud -->
<g id="edge59" class="edge">
<title>amout&#45;&gt;oud</title>
<path fill="none" stroke="#444444" stroke-dasharray="5,2" d="M1710.58,-679C1811.26,-679 2055.54,-679 2055.54,-679 2055.54,-679 2055.54,-614.84 2055.54,-614.84"/>
<polygon fill="#444444" stroke="#444444" points="2059.04,-614.84 2055.54,-604.84 2052.04,-614.84 2059.04,-614.84"/>
</g>
<!-- amout&#45;&gt;ou7 -->
<g id="edge60" class="edge">
<title>amout&#45;&gt;ou7</title>
<path fill="none" stroke="#444444" d="M1710.21,-684C1836.1,-684 2200.25,-684 2200.25,-684 2200.25,-684 2200.25,-614.88 2200.25,-614.88"/>
<polygon fill="#444444" stroke="#444444" points="2203.75,-614.88 2200.25,-604.88 2196.75,-614.88 2203.75,-614.88"/>
</g>
<!-- amout&#45;&gt;ov0 -->
<g id="edge73" class="edge">
<title>amout&#45;&gt;ov0</title>
<path fill="none" stroke="#444444" d="M1645.28,-658.03C1645.28,-658.03 1645.28,-615.2 1645.28,-615.2"/>
<polygon fill="#444444" stroke="#444444" points="1648.78,-615.2 1645.28,-605.2 1641.78,-615.2 1648.78,-615.2"/>
</g>
<!-- amout&#45;&gt;ov1 -->
<g id="edge74" class="edge">
<title>amout&#45;&gt;ov1</title>
<path fill="none" stroke="#444444" d="M1710.26,-669C1759.87,-669 1835.47,-669 1835.47,-669 1835.47,-669 1835.47,-614.94 1835.47,-614.94"/>
<polygon fill="#444444" stroke="#444444" points="1838.98,-614.94 1835.48,-604.94 1831.98,-614.94 1838.98,-614.94"/>
</g>
<!-- amout&#45;&gt;ovd -->
<g id="edge75" class="edge">
<title>amout&#45;&gt;ovd</title>
<path fill="none" stroke="#444444" stroke-dasharray="5,2" d="M1625.62,-667C1590.68,-667 1546.83,-667 1546.83,-667 1546.83,-667 1546.83,-614.91 1546.83,-614.91"/>
<polygon fill="#444444" stroke="#444444" points="1550.33,-614.91 1546.83,-604.91 1543.33,-614.91 1550.33,-614.91"/>
</g>
<!-- amout&#45;&gt;ov7 -->
<g id="edge76" class="edge">
<title>amout&#45;&gt;ov7</title>
<path fill="none" stroke="#444444" d="M1710.47,-664C1723.78,-664 1735.06,-664 1735.06,-664 1735.06,-664 1735.06,-615.03 1735.06,-615.03"/>
<polygon fill="#444444" stroke="#444444" points="1738.56,-615.03 1735.06,-605.03 1731.56,-615.03 1738.56,-615.03"/>
</g>
<!-- bmout -->
<g id="node16" class="node">
<title>bmout</title>
<path fill="#d9ead3" stroke="#555555" d="M777.88,-694.5C777.88,-694.5 722.12,-694.5 722.12,-694.5 716.12,-694.5 710.12,-688.5 710.12,-682.5 710.12,-682.5 710.12,-670.5 710.12,-670.5 710.12,-664.5 716.12,-658.5 722.12,-658.5 722.12,-658.5 777.88,-658.5 777.88,-658.5 783.88,-658.5 789.88,-664.5 789.88,-670.5 789.88,-670.5 789.88,-682.5 789.88,-682.5 789.88,-688.5 783.88,-694.5 777.88,-694.5"/>
<text xml:space="preserve" text-anchor="middle" x="750" y="-679" font-family="Helvetica,sans-Serif" font-size="10.00">beta_mid bank</text>
<text xml:space="preserve" text-anchor="middle" x="750" y="-667" font-family="Helvetica,sans-Serif" font-size="10.00">8 x 10b</text>
</g>
<!-- bm0&#45;&gt;bmout -->
<g id="edge21" class="edge">
<title>bm0&#45;&gt;bmout</title>
<path fill="none" stroke="#444444" d="M1122.06,-730.25C1122.06,-710.87 1122.06,-683 1122.06,-683 1122.06,-683 801.68,-683 801.68,-683"/>
<polygon fill="#444444" stroke="#444444" points="801.68,-679.5 791.68,-683 801.68,-686.5 801.68,-679.5"/>
</g>
<!-- bm1&#45;&gt;bmout -->
<g id="edge22" class="edge">
<title>bm1&#45;&gt;bmout</title>
<path fill="none" stroke="#444444" d="M750,-730.33C750,-730.33 750,-706.43 750,-706.43"/>
<polygon fill="#444444" stroke="#444444" points="753.5,-706.43 750,-696.43 746.5,-706.43 753.5,-706.43"/>
</g>
<!-- bmd&#45;&gt;bmout -->
<g id="edge23" class="edge">
<title>bmd&#45;&gt;bmout</title>
<path fill="none" stroke="#444444" d="M870.5,-730.31C870.5,-713.46 870.5,-691 870.5,-691 870.5,-691 801.64,-691 801.64,-691"/>
<polygon fill="#444444" stroke="#444444" points="801.64,-687.5 791.64,-691 801.64,-694.5 801.64,-687.5"/>
</g>
<!-- bm7&#45;&gt;bmout -->
<g id="edge24" class="edge">
<title>bm7&#45;&gt;bmout</title>
<path fill="none" stroke="#444444" d="M993.06,-730.05C993.06,-711.93 993.06,-687 993.06,-687 993.06,-687 801.65,-687 801.65,-687"/>
<polygon fill="#444444" stroke="#444444" points="801.65,-683.5 791.65,-687 801.65,-690.5 801.65,-683.5"/>
</g>
<!-- bmout&#45;&gt;eu0 -->
<g id="edge33" class="edge">
<title>bmout&#45;&gt;eu0</title>
<path fill="none" stroke="#444444" d="M710,-684C582.45,-684 193.75,-684 193.75,-684 193.75,-684 193.75,-614.88 193.75,-614.88"/>
<polygon fill="#444444" stroke="#444444" points="197.25,-614.88 193.75,-604.88 190.25,-614.88 197.25,-614.88"/>
</g>
<!-- bmout&#45;&gt;eu1 -->
<g id="edge34" class="edge">
<title>bmout&#45;&gt;eu1</title>
<path fill="none" stroke="#444444" d="M709.73,-679C603.18,-679 321.96,-679 321.96,-679 321.96,-679 321.96,-614.84 321.96,-614.84"/>
<polygon fill="#444444" stroke="#444444" points="325.46,-614.84 321.96,-604.84 318.46,-614.84 325.46,-614.84"/>
</g>
<!-- bmout&#45;&gt;eud -->
<g id="edge35" class="edge">
<title>bmout&#45;&gt;eud</title>
<path fill="none" stroke="#444444" stroke-dasharray="5,2" d="M709.7,-674C623.01,-674 426.62,-674 426.62,-674 426.62,-674 426.62,-615.15 426.62,-615.15"/>
<polygon fill="#444444" stroke="#444444" points="430.13,-615.15 426.63,-605.15 423.13,-615.15 430.13,-615.15"/>
</g>
<!-- bmout&#45;&gt;eu7 -->
<g id="edge36" class="edge">
<title>bmout&#45;&gt;eu7</title>
<path fill="none" stroke="#444444" d="M709.88,-689C566.06,-689 84.75,-689 84.75,-689 84.75,-689 84.75,-614.84 84.75,-614.84"/>
<polygon fill="#444444" stroke="#444444" points="88.25,-614.84 84.75,-604.84 81.25,-614.84 88.25,-614.84"/>
</g>
<!-- bmout&#45;&gt;ev0 -->
<g id="edge49" class="edge">
<title>bmout&#45;&gt;ev0</title>
<path fill="none" stroke="#444444" d="M770.03,-658.03C770.03,-658.03 770.03,-615.2 770.03,-615.2"/>
<polygon fill="#444444" stroke="#444444" points="773.53,-615.2 770.03,-605.2 766.53,-615.2 773.53,-615.2"/>
</g>
<!-- bmout&#45;&gt;ev1 -->
<g id="edge50" class="edge">
<title>bmout&#45;&gt;ev1</title>
<path fill="none" stroke="#444444" d="M790.35,-663C806.9,-663 822.25,-663 822.25,-663 822.25,-663 822.25,-615.19 822.25,-615.19"/>
<polygon fill="#444444" stroke="#444444" points="825.75,-615.19 822.25,-605.19 818.75,-615.19 825.75,-615.19"/>
</g>
<!-- bmout&#45;&gt;evd -->
<g id="edge51" class="edge">
<title>bmout&#45;&gt;evd</title>
<path fill="none" stroke="#444444" stroke-dasharray="5,2" d="M710.03,-669C657.51,-669 571.88,-669 571.88,-669 571.88,-669 571.88,-614.94 571.88,-614.94"/>
<polygon fill="#444444" stroke="#444444" points="575.38,-614.94 571.88,-604.94 568.38,-614.94 575.38,-614.94"/>
</g>
<!-- bmout&#45;&gt;ev7 -->
<g id="edge52" class="edge">
<title>bmout&#45;&gt;ev7</title>
<path fill="none" stroke="#444444" d="M710.02,-664C687.99,-664 665.06,-664 665.06,-664 665.06,-664 665.06,-615.03 665.06,-615.03"/>
<polygon fill="#444444" stroke="#444444" points="668.56,-615.03 665.06,-605.03 661.56,-615.03 668.56,-615.03"/>
</g>
<!-- emax0 -->
<g id="node21" class="node">
<title>emax0</title>
<path fill="#f4cccc" stroke="#555555" d="M325.12,-531.25C325.12,-531.25 234.88,-531.25 234.88,-531.25 228.88,-531.25 222.88,-525.25 222.88,-519.25 222.88,-519.25 222.88,-507.25 222.88,-507.25 222.88,-501.25 228.88,-495.25 234.88,-495.25 234.88,-495.25 325.12,-495.25 325.12,-495.25 331.12,-495.25 337.12,-501.25 337.12,-507.25 337.12,-507.25 337.12,-519.25 337.12,-519.25 337.12,-525.25 331.12,-531.25 325.12,-531.25"/>
<text xml:space="preserve" text-anchor="middle" x="280" y="-515.75" font-family="Helvetica,sans-Serif" font-size="10.00">Max8 tree for u0=0</text>
<text xml:space="preserve" text-anchor="middle" x="280" y="-503.75" font-family="Helvetica,sans-Serif" font-size="10.00">7 compare&#45;select cells</text>
</g>
<!-- eu0&#45;&gt;emax0 -->
<g id="edge37" class="edge">
<title>eu0&#45;&gt;emax0</title>
<path fill="none" stroke="#444444" d="M216.73,-585C223.74,-585 228.69,-585 228.69,-585 228.69,-585 228.69,-543.24 228.69,-543.24"/>
<polygon fill="#444444" stroke="#444444" points="232.19,-543.24 228.69,-533.24 225.19,-543.24 232.19,-543.24"/>
</g>
<!-- eu1&#45;&gt;emax0 -->
<g id="edge38" class="edge">
<title>eu1&#45;&gt;emax0</title>
<path fill="none" stroke="#444444" d="M280,-567.08C280,-567.08 280,-543.18 280,-543.18"/>
<polygon fill="#444444" stroke="#444444" points="283.5,-543.18 280,-533.18 276.5,-543.18 283.5,-543.18"/>
</g>
<!-- eud&#45;&gt;emax0 -->
<g id="edge39" class="edge">
<title>eud&#45;&gt;emax0</title>
<path fill="none" stroke="#444444" d="M343.41,-585C336.23,-585 331.31,-585 331.31,-585 331.31,-585 331.31,-543.24 331.31,-543.24"/>
<polygon fill="#444444" stroke="#444444" points="334.81,-543.24 331.31,-533.24 327.81,-543.24 334.81,-543.24"/>
</g>
<!-- eu7&#45;&gt;emax0 -->
<g id="edge40" class="edge">
<title>eu7&#45;&gt;emax0</title>
<path fill="none" stroke="#444444" d="M62,-567.02C62,-545.61 62,-513 62,-513 62,-513 210.92,-513 210.92,-513"/>
<polygon fill="#444444" stroke="#444444" points="210.92,-516.5 220.92,-513 210.92,-509.5 210.92,-516.5"/>
</g>
<!-- psub0 -->
<g id="node37" class="node">
<title>psub0</title>
<path fill="#fce5cd" stroke="#555555" d="M1147,-440C1147,-440 1041,-440 1041,-440 1035,-440 1029,-434 1029,-428 1029,-428 1029,-416 1029,-416 1029,-410 1035,-404 1041,-404 1041,-404 1147,-404 1147,-404 1153,-404 1159,-410 1159,-416 1159,-416 1159,-428 1159,-428 1159,-434 1153,-440 1147,-440"/>
<text xml:space="preserve" text-anchor="middle" x="1094" y="-424.5" font-family="Helvetica,sans-Serif" font-size="10.00">Posterior subtractor</text>
<text xml:space="preserve" text-anchor="middle" x="1094" y="-412.5" font-family="Helvetica,sans-Serif" font-size="10.00">post_even = max1 &#45; max0</text>
</g>
<!-- emax0&#45;&gt;psub0 -->
<g id="edge89" class="edge">
<title>emax0&#45;&gt;psub0</title>
<path fill="none" stroke="#444444" d="M280,-494.78C280,-468.12 280,-422 280,-422 280,-422 1017.25,-422 1017.25,-422"/>
<polygon fill="#444444" stroke="#444444" points="1017.25,-425.5 1027.25,-422 1017.25,-418.5 1017.25,-425.5"/>
</g>
<!-- emax1 -->
<g id="node26" class="node">
<title>emax1</title>
<path fill="#f4cccc" stroke="#555555" d="M801.12,-531.25C801.12,-531.25 710.88,-531.25 710.88,-531.25 704.88,-531.25 698.88,-525.25 698.88,-519.25 698.88,-519.25 698.88,-507.25 698.88,-507.25 698.88,-501.25 704.88,-495.25 710.88,-495.25 710.88,-495.25 801.12,-495.25 801.12,-495.25 807.12,-495.25 813.12,-501.25 813.12,-507.25 813.12,-507.25 813.12,-519.25 813.12,-519.25 813.12,-525.25 807.12,-531.25 801.12,-531.25"/>
<text xml:space="preserve" text-anchor="middle" x="756" y="-515.75" font-family="Helvetica,sans-Serif" font-size="10.00">Max8 tree for u0=1</text>
<text xml:space="preserve" text-anchor="middle" x="756" y="-503.75" font-family="Helvetica,sans-Serif" font-size="10.00">7 compare&#45;select cells</text>
</g>
<!-- ev0&#45;&gt;emax1 -->
<g id="edge53" class="edge">
<title>ev0&#45;&gt;emax1</title>
<path fill="none" stroke="#444444" d="M756,-567.08C756,-567.08 756,-543.18 756,-543.18"/>
<polygon fill="#444444" stroke="#444444" points="759.5,-543.18 756,-533.18 752.5,-543.18 759.5,-543.18"/>
</g>
<!-- ev1&#45;&gt;emax1 -->
<g id="edge54" class="edge">
<title>ev1&#45;&gt;emax1</title>
<path fill="none" stroke="#444444" d="M819.17,-585C812.15,-585 807.19,-585 807.19,-585 807.19,-585 807.19,-543.24 807.19,-543.24"/>
<polygon fill="#444444" stroke="#444444" points="810.69,-543.24 807.19,-533.24 803.69,-543.24 810.69,-543.24"/>
</g>
<!-- evd&#45;&gt;emax1 -->
<g id="edge55" class="edge">
<title>evd&#45;&gt;emax1</title>
<path fill="none" stroke="#444444" d="M528,-567.02C528,-545.61 528,-513 528,-513 528,-513 686.95,-513 686.95,-513"/>
<polygon fill="#444444" stroke="#444444" points="686.95,-516.5 696.95,-513 686.95,-509.5 686.95,-516.5"/>
</g>
<!-- ev7&#45;&gt;emax1 -->
<g id="edge56" class="edge">
<title>ev7&#45;&gt;emax1</title>
<path fill="none" stroke="#444444" d="M692.8,-585C700.8,-585 706.62,-585 706.62,-585 706.62,-585 706.62,-543.24 706.62,-543.24"/>
<polygon fill="#444444" stroke="#444444" points="710.13,-543.24 706.63,-533.24 703.13,-543.24 710.13,-543.24"/>
</g>
<!-- emax1&#45;&gt;psub0 -->
<g id="edge90" class="edge">
<title>emax1&#45;&gt;psub0</title>
<path fill="none" stroke="#444444" d="M813.33,-522C898.35,-522 1047.94,-522 1047.94,-522 1047.94,-522 1047.94,-451.86 1047.94,-451.86"/>
<polygon fill="#444444" stroke="#444444" points="1051.44,-451.86 1047.94,-441.86 1044.44,-451.86 1051.44,-451.86"/>
</g>
<!-- omax0 -->
<g id="node31" class="node">
<title>omax0</title>
<path fill="#f4cccc" stroke="#555555" d="M2149.12,-531.25C2149.12,-531.25 2058.88,-531.25 2058.88,-531.25 2052.88,-531.25 2046.88,-525.25 2046.88,-519.25 2046.88,-519.25 2046.88,-507.25 2046.88,-507.25 2046.88,-501.25 2052.88,-495.25 2058.88,-495.25 2058.88,-495.25 2149.12,-495.25 2149.12,-495.25 2155.12,-495.25 2161.12,-501.25 2161.12,-507.25 2161.12,-507.25 2161.12,-519.25 2161.12,-519.25 2161.12,-525.25 2155.12,-531.25 2149.12,-531.25"/>
<text xml:space="preserve" text-anchor="middle" x="2104" y="-515.75" font-family="Helvetica,sans-Serif" font-size="10.00">Max8 tree for u1=0</text>
<text xml:space="preserve" text-anchor="middle" x="2104" y="-503.75" font-family="Helvetica,sans-Serif" font-size="10.00">7 compare&#45;select cells</text>
</g>
<!-- ou0&#45;&gt;omax0 -->
<g id="edge69" class="edge">
<title>ou0&#45;&gt;omax0</title>
<path fill="none" stroke="#444444" d="M2332,-567.1C2332,-543.99 2332,-507 2332,-507 2332,-507 2173.05,-507 2173.05,-507"/>
<polygon fill="#444444" stroke="#444444" points="2173.05,-503.5 2163.05,-507 2173.05,-510.5 2173.05,-503.5"/>
</g>
<!-- ou1&#45;&gt;omax0 -->
<g id="edge70" class="edge">
<title>ou1&#45;&gt;omax0</title>
<path fill="none" stroke="#444444" d="M1985,-566.96C1985,-548.28 1985,-522 1985,-522 1985,-522 2035.08,-522 2035.08,-522"/>
<polygon fill="#444444" stroke="#444444" points="2035.08,-525.5 2045.08,-522 2035.08,-518.5 2035.08,-525.5"/>
</g>
<!-- oud&#45;&gt;omax0 -->
<g id="edge71" class="edge">
<title>oud&#45;&gt;omax0</title>
<path fill="none" stroke="#444444" d="M2104,-567.08C2104,-567.08 2104,-543.18 2104,-543.18"/>
<polygon fill="#444444" stroke="#444444" points="2107.5,-543.18 2104,-533.18 2100.5,-543.18 2107.5,-543.18"/>
</g>
<!-- ou7&#45;&gt;omax0 -->
<g id="edge72" class="edge">
<title>ou7&#45;&gt;omax0</title>
<path fill="none" stroke="#444444" d="M2223,-566.8C2223,-547.19 2223,-519 2223,-519 2223,-519 2172.92,-519 2172.92,-519"/>
<polygon fill="#444444" stroke="#444444" points="2172.92,-515.5 2162.92,-519 2172.92,-522.5 2172.92,-515.5"/>
</g>
<!-- psub1 -->
<g id="node38" class="node">
<title>psub1</title>
<path fill="#fce5cd" stroke="#555555" d="M1363.38,-440C1363.38,-440 1262.62,-440 1262.62,-440 1256.62,-440 1250.62,-434 1250.62,-428 1250.62,-428 1250.62,-416 1250.62,-416 1250.62,-410 1256.62,-404 1262.62,-404 1262.62,-404 1363.38,-404 1363.38,-404 1369.38,-404 1375.38,-410 1375.38,-416 1375.38,-416 1375.38,-428 1375.38,-428 1375.38,-434 1369.38,-440 1363.38,-440"/>
<text xml:space="preserve" text-anchor="middle" x="1313" y="-424.5" font-family="Helvetica,sans-Serif" font-size="10.00">Posterior subtractor</text>
<text xml:space="preserve" text-anchor="middle" x="1313" y="-412.5" font-family="Helvetica,sans-Serif" font-size="10.00">post_odd = max1 &#45; max0</text>
</g>
<!-- omax0&#45;&gt;psub1 -->
<g id="edge91" class="edge">
<title>omax0&#45;&gt;psub1</title>
<path fill="none" stroke="#444444" d="M2104,-494.85C2104,-482.32 2104,-468 2104,-468 2104,-468 1366,-468 1366,-468 1366,-468 1366,-451.96 1366,-451.96"/>
<polygon fill="#444444" stroke="#444444" points="1369.5,-451.96 1366,-441.96 1362.5,-451.96 1369.5,-451.96"/>
</g>
<!-- omax1 -->
<g id="node36" class="node">
<title>omax1</title>
<path fill="#f4cccc" stroke="#555555" d="M1703.12,-531.25C1703.12,-531.25 1612.88,-531.25 1612.88,-531.25 1606.88,-531.25 1600.88,-525.25 1600.88,-519.25 1600.88,-519.25 1600.88,-507.25 1600.88,-507.25 1600.88,-501.25 1606.88,-495.25 1612.88,-495.25 1612.88,-495.25 1703.12,-495.25 1703.12,-495.25 1709.12,-495.25 1715.12,-501.25 1715.12,-507.25 1715.12,-507.25 1715.12,-519.25 1715.12,-519.25 1715.12,-525.25 1709.12,-531.25 1703.12,-531.25"/>
<text xml:space="preserve" text-anchor="middle" x="1658" y="-515.75" font-family="Helvetica,sans-Serif" font-size="10.00">Max8 tree for u1=1</text>
<text xml:space="preserve" text-anchor="middle" x="1658" y="-503.75" font-family="Helvetica,sans-Serif" font-size="10.00">7 compare&#45;select cells</text>
</g>
<!-- ov0&#45;&gt;omax1 -->
<g id="edge85" class="edge">
<title>ov0&#45;&gt;omax1</title>
<path fill="none" stroke="#444444" d="M1658,-567.08C1658,-567.08 1658,-543.18 1658,-543.18"/>
<polygon fill="#444444" stroke="#444444" points="1661.5,-543.18 1658,-533.18 1654.5,-543.18 1661.5,-543.18"/>
</g>
<!-- ov1&#45;&gt;omax1 -->
<g id="edge86" class="edge">
<title>ov1&#45;&gt;omax1</title>
<path fill="none" stroke="#444444" d="M1876,-566.81C1876,-542.84 1876,-504 1876,-504 1876,-504 1727.08,-504 1727.08,-504"/>
<polygon fill="#444444" stroke="#444444" points="1727.08,-500.5 1717.08,-504 1727.08,-507.5 1727.08,-500.5"/>
</g>
<!-- ovd&#45;&gt;omax1 -->
<g id="edge87" class="edge">
<title>ovd&#45;&gt;omax1</title>
<path fill="none" stroke="#444444" d="M1539.69,-567.02C1539.69,-545.61 1539.69,-513 1539.69,-513 1539.69,-513 1589.06,-513 1589.06,-513"/>
<polygon fill="#444444" stroke="#444444" points="1589.06,-516.5 1599.06,-513 1589.06,-509.5 1589.06,-516.5"/>
</g>
<!-- ov7&#45;&gt;omax1 -->
<g id="edge88" class="edge">
<title>ov7&#45;&gt;omax1</title>
<path fill="none" stroke="#444444" d="M1767,-567.02C1767,-545.61 1767,-513 1767,-513 1767,-513 1726.89,-513 1726.89,-513"/>
<polygon fill="#444444" stroke="#444444" points="1726.89,-509.5 1716.89,-513 1726.89,-516.5 1726.89,-509.5"/>
</g>
<!-- omax1&#45;&gt;psub1 -->
<g id="edge92" class="edge">
<title>omax1&#45;&gt;psub1</title>
<path fill="none" stroke="#444444" d="M1600.6,-504C1513.16,-504 1356.62,-504 1356.62,-504 1356.62,-504 1356.62,-451.71 1356.62,-451.71"/>
<polygon fill="#444444" stroke="#444444" points="1360.13,-451.71 1356.63,-441.71 1353.13,-451.71 1360.13,-451.71"/>
</g>
<!-- psub0&#45;&gt;esub0a -->
<g id="edge93" class="edge">
<title>psub0&#45;&gt;esub0a</title>
<path fill="none" stroke="#444444" d="M1148,-403.83C1148,-403.83 1148,-379.93 1148,-379.93"/>
<polygon fill="#444444" stroke="#444444" points="1151.5,-379.93 1148,-369.93 1144.5,-379.93 1151.5,-379.93"/>
</g>
<!-- satp -->
<g id="node43" class="node">
<title>satp</title>
<path fill="#ead1dc" stroke="#555555" d="M1106.75,-368C1106.75,-368 1041.25,-368 1041.25,-368 1035.25,-368 1029.25,-362 1029.25,-356 1029.25,-356 1029.25,-344 1029.25,-344 1029.25,-338 1035.25,-332 1041.25,-332 1041.25,-332 1106.75,-332 1106.75,-332 1112.75,-332 1118.75,-338 1118.75,-344 1118.75,-344 1118.75,-356 1118.75,-356 1118.75,-362 1112.75,-368 1106.75,-368"/>
<text xml:space="preserve" text-anchor="middle" x="1074" y="-352.5" font-family="Helvetica,sans-Serif" font-size="10.00">2 post saturators</text>
<text xml:space="preserve" text-anchor="middle" x="1074" y="-340.5" font-family="Helvetica,sans-Serif" font-size="10.00">to post_llr_t</text>
</g>
<!-- psub0&#45;&gt;satp -->
<g id="edge101" class="edge">
<title>psub0&#45;&gt;satp</title>
<path fill="none" stroke="#444444" d="M1059.08,-403.83C1059.08,-403.83 1059.08,-379.93 1059.08,-379.93"/>
<polygon fill="#444444" stroke="#444444" points="1062.58,-379.93 1059.08,-369.93 1055.58,-379.93 1062.58,-379.93"/>
</g>
<!-- psub1&#45;&gt;esub1a -->
<g id="edge94" class="edge">
<title>psub1&#45;&gt;esub1a</title>
<path fill="none" stroke="#444444" d="M1321.44,-403.83C1321.44,-403.83 1321.44,-379.93 1321.44,-379.93"/>
<polygon fill="#444444" stroke="#444444" points="1324.94,-379.93 1321.44,-369.93 1317.94,-379.93 1324.94,-379.93"/>
</g>
<!-- psub1&#45;&gt;satp -->
<g id="edge102" class="edge">
<title>psub1&#45;&gt;satp</title>
<path fill="none" stroke="#444444" d="M1259.06,-403.51C1259.06,-397.34 1259.06,-392 1259.06,-392 1259.06,-392 1088.92,-392 1088.92,-392 1088.92,-392 1088.92,-379.57 1088.92,-379.57"/>
<polygon fill="#444444" stroke="#444444" points="1092.42,-379.57 1088.92,-369.57 1085.42,-379.57 1092.42,-379.57"/>
</g>
<!-- esub0a&#45;&gt;esub0b -->
<g id="edge97" class="edge">
<title>esub0a&#45;&gt;esub0b</title>
<path fill="none" stroke="#444444" d="M1174.83,-331.83C1174.83,-331.83 1174.83,-307.93 1174.83,-307.93"/>
<polygon fill="#444444" stroke="#444444" points="1178.33,-307.93 1174.83,-297.93 1171.33,-307.93 1178.33,-307.93"/>
</g>
<!-- scale0 -->
<g id="node44" class="node">
<title>scale0</title>
<path fill="#ead1dc" stroke="#555555" d="M1207.5,-224C1207.5,-224 1092.5,-224 1092.5,-224 1086.5,-224 1080.5,-218 1080.5,-212 1080.5,-212 1080.5,-200 1080.5,-200 1080.5,-194 1086.5,-188 1092.5,-188 1092.5,-188 1207.5,-188 1207.5,-188 1213.5,-188 1219.5,-194 1219.5,-200 1219.5,-200 1219.5,-212 1219.5,-212 1219.5,-218 1213.5,-224 1207.5,-224"/>
<text xml:space="preserve" text-anchor="middle" x="1150" y="-208.5" font-family="Helvetica,sans-Serif" font-size="10.00">scale_ext even</text>
<text xml:space="preserve" text-anchor="middle" x="1150" y="-196.5" font-family="Helvetica,sans-Serif" font-size="10.00">2 adders plus shifts plus sat</text>
</g>
<!-- esub0b&#45;&gt;scale0 -->
<g id="edge103" class="edge">
<title>esub0b&#45;&gt;scale0</title>
<path fill="none" stroke="#444444" d="M1179,-259.83C1179,-259.83 1179,-235.93 1179,-235.93"/>
<polygon fill="#444444" stroke="#444444" points="1182.5,-235.93 1179,-225.93 1175.5,-235.93 1182.5,-235.93"/>
</g>
<!-- esub1a&#45;&gt;esub1b -->
<g id="edge98" class="edge">
<title>esub1a&#45;&gt;esub1b</title>
<path fill="none" stroke="#444444" d="M1322,-331.83C1322,-331.83 1322,-307.93 1322,-307.93"/>
<polygon fill="#444444" stroke="#444444" points="1325.5,-307.93 1322,-297.93 1318.5,-307.93 1325.5,-307.93"/>
</g>
<!-- scale1 -->
<g id="node45" class="node">
<title>scale1</title>
<path fill="#ead1dc" stroke="#555555" d="M1364.5,-224C1364.5,-224 1249.5,-224 1249.5,-224 1243.5,-224 1237.5,-218 1237.5,-212 1237.5,-212 1237.5,-200 1237.5,-200 1237.5,-194 1243.5,-188 1249.5,-188 1249.5,-188 1364.5,-188 1364.5,-188 1370.5,-188 1376.5,-194 1376.5,-200 1376.5,-200 1376.5,-212 1376.5,-212 1376.5,-218 1370.5,-224 1364.5,-224"/>
<text xml:space="preserve" text-anchor="middle" x="1307" y="-208.5" font-family="Helvetica,sans-Serif" font-size="10.00">scale_ext odd</text>
<text xml:space="preserve" text-anchor="middle" x="1307" y="-196.5" font-family="Helvetica,sans-Serif" font-size="10.00">2 adders plus shifts plus sat</text>
</g>
<!-- esub1b&#45;&gt;scale1 -->
<g id="edge104" class="edge">
<title>esub1b&#45;&gt;scale1</title>
<path fill="none" stroke="#444444" d="M1322,-259.83C1322,-259.83 1322,-235.93 1322,-235.93"/>
<polygon fill="#444444" stroke="#444444" points="1325.5,-235.93 1322,-225.93 1318.5,-235.93 1325.5,-235.93"/>
</g>
<!-- out -->
<g id="node46" class="node">
<title>out</title>
<path fill="#d9ead3" stroke="#555555" d="M1191.38,-152C1191.38,-152 1108.62,-152 1108.62,-152 1102.62,-152 1096.62,-146 1096.62,-140 1096.62,-140 1096.62,-128 1096.62,-128 1096.62,-122 1102.62,-116 1108.62,-116 1108.62,-116 1191.38,-116 1191.38,-116 1197.38,-116 1203.38,-122 1203.38,-128 1203.38,-128 1203.38,-140 1203.38,-140 1203.38,-146 1197.38,-152 1191.38,-152"/>
<text xml:space="preserve" text-anchor="middle" x="1150" y="-136.5" font-family="Helvetica,sans-Serif" font-size="10.00">post_even, post_odd</text>
<text xml:space="preserve" text-anchor="middle" x="1150" y="-124.5" font-family="Helvetica,sans-Serif" font-size="10.00">ext_even, ext_odd</text>
</g>
<!-- satp&#45;&gt;out -->
<g id="edge105" class="edge">
<title>satp&#45;&gt;out</title>
<path fill="none" stroke="#444444" d="M1062.88,-331.58C1062.88,-279.35 1062.88,-134 1062.88,-134 1062.88,-134 1084.8,-134 1084.8,-134"/>
<polygon fill="#444444" stroke="#444444" points="1084.8,-137.5 1094.8,-134 1084.8,-130.5 1084.8,-137.5"/>
</g>
<!-- scale0&#45;&gt;out -->
<g id="edge106" class="edge">
<title>scale0&#45;&gt;out</title>
<path fill="none" stroke="#444444" d="M1150,-187.83C1150,-187.83 1150,-163.93 1150,-163.93"/>
<polygon fill="#444444" stroke="#444444" points="1153.5,-163.93 1150,-153.93 1146.5,-163.93 1153.5,-163.93"/>
</g>
<!-- scale1&#45;&gt;out -->
<g id="edge107" class="edge">
<title>scale1&#45;&gt;out</title>
<path fill="none" stroke="#444444" d="M1246.12,-187.83C1246.12,-166.5 1246.12,-134 1246.12,-134 1246.12,-134 1215.2,-134 1215.2,-134"/>
<polygon fill="#444444" stroke="#444444" points="1215.2,-130.5 1205.2,-134 1215.2,-137.5 1215.2,-130.5"/>
</g>
<!-- note -->
<g id="node47" class="node">
<title>note</title>
<polygon fill="#fff2cc" stroke="#555555" points="1248.75,-80 1045.25,-80 1045.25,0 1254.75,0 1254.75,-74 1248.75,-80"/>
<polyline fill="none" stroke="#555555" points="1248.75,-80 1248.75,-74"/>
<polyline fill="none" stroke="#555555" points="1254.75,-74 1248.75,-74"/>
<text xml:space="preserve" text-anchor="middle" x="1150" y="-66.5" font-family="Helvetica,sans-Serif" font-size="10.00">LLR extraction totals</text>
<text xml:space="preserve" text-anchor="middle" x="1150" y="-54.5" font-family="Helvetica,sans-Serif" font-size="10.00">alpha_mid: 16 adders, 8 max2</text>
<text xml:space="preserve" text-anchor="middle" x="1150" y="-42.5" font-family="Helvetica,sans-Serif" font-size="10.00">beta_mid: 16 adders, 8 max2</text>
<text xml:space="preserve" text-anchor="middle" x="1150" y="-30.5" font-family="Helvetica,sans-Serif" font-size="10.00">even network: 32 adders, 14 compare&#45;select</text>
<text xml:space="preserve" text-anchor="middle" x="1150" y="-18.5" font-family="Helvetica,sans-Serif" font-size="10.00">odd network: 32 adders, 14 compare&#45;select</text>
<text xml:space="preserve" text-anchor="middle" x="1150" y="-6.5" font-family="Helvetica,sans-Serif" font-size="10.00">final stage: 6 subtractors, 4 scale adders</text>
</g>
<!-- out&#45;&gt;note -->
<g id="edge108" class="edge">
<title>out&#45;&gt;note</title>
<path fill="none" stroke="#444444" d="M1150,-115.88C1150,-115.88 1150,-91.77 1150,-91.77"/>
<polygon fill="#444444" stroke="#444444" points="1153.5,-91.77 1150,-81.77 1146.5,-91.77 1153.5,-91.77"/>
</g>
</g>
</svg>
