<?xml version="1.0" encoding="UTF-8" standalone="no"?>
<!DOCTYPE svg PUBLIC "-//W3C//DTD SVG 1.1//EN"
 "http://www.w3.org/Graphics/SVG/1.1/DTD/svg11.dtd">
<!-- Generated by graphviz version 14.1.2 (0)
 -->
<!-- Title: G Pages: 1 -->
<svg width="887pt" height="664pt"
 viewBox="0.00 0.00 887.00 664.00" xmlns="http://www.w3.org/2000/svg" xmlns:xlink="http://www.w3.org/1999/xlink">
<g id="graph0" class="graph" transform="scale(1 1) rotate(0) translate(4 659.55)">
<title>G</title>
<polygon fill="white" stroke="none" points="-4,4 -4,-659.55 883,-659.55 883,4 -4,4"/>
<text xml:space="preserve" text-anchor="middle" x="439.5" y="-632.55" font-family="Helvetica,sans-Serif" font-size="20.00">siso_maxlogmap &#45; Shared Radix&#45;4 ACS, Isomorphic Cell View</text>
<g id="clust1" class="cluster">
<title>cluster_s0</title>
<path fill="none" stroke="#6fa8dc" d="M20,-178.81C20,-178.81 221,-178.81 221,-178.81 227,-178.81 233,-184.81 233,-190.81 233,-190.81 233,-549.98 233,-549.98 233,-555.98 227,-561.98 221,-561.98 221,-561.98 20,-561.98 20,-561.98 14,-561.98 8,-555.98 8,-549.98 8,-549.98 8,-190.81 8,-190.81 8,-184.81 14,-178.81 20,-178.81"/>
<text xml:space="preserve" text-anchor="middle" x="120.5" y="-538.98" font-family="Helvetica,sans-Serif" font-size="20.00">ACS state cell 0 (1 of 8)</text>
</g>
<g id="clust2" class="cluster">
<title>cluster_s1</title>
<path fill="none" stroke="#6fa8dc" d="M253,-178.81C253,-178.81 454,-178.81 454,-178.81 460,-178.81 466,-184.81 466,-190.81 466,-190.81 466,-538.98 466,-538.98 466,-544.98 460,-550.98 454,-550.98 454,-550.98 253,-550.98 253,-550.98 247,-550.98 241,-544.98 241,-538.98 241,-538.98 241,-190.81 241,-190.81 241,-184.81 247,-178.81 253,-178.81"/>
<text xml:space="preserve" text-anchor="middle" x="353.5" y="-527.98" font-family="Helvetica,sans-Serif" font-size="20.00">ACS state cell 1 (2 of 8)</text>
</g>
<g id="clust3" class="cluster">
<title>cluster_s7</title>
<path fill="none" stroke="#6fa8dc" d="M486,-178.81C486,-178.81 687,-178.81 687,-178.81 693,-178.81 699,-184.81 699,-190.81 699,-190.81 699,-538.98 699,-538.98 699,-544.98 693,-550.98 687,-550.98 687,-550.98 486,-550.98 486,-550.98 480,-550.98 474,-544.98 474,-538.98 474,-538.98 474,-190.81 474,-190.81 474,-184.81 480,-178.81 486,-178.81"/>
<text xml:space="preserve" text-anchor="middle" x="586.5" y="-527.98" font-family="Helvetica,sans-Serif" font-size="20.00">ACS state cell 7 (8 of 8)</text>
</g>
<!-- statein -->
<g id="node1" class="node">
<title>statein</title>
<path fill="#ead1dc" stroke="#444444" d="M638.75,-619.36C638.75,-622.08 611.97,-624.3 579,-624.3 546.03,-624.3 519.25,-622.08 519.25,-619.36 519.25,-619.36 519.25,-574.92 519.25,-574.92 519.25,-572.2 546.03,-569.98 579,-569.98 611.97,-569.98 638.75,-572.2 638.75,-574.92 638.75,-574.92 638.75,-619.36 638.75,-619.36"/>
<path fill="none" stroke="#444444" d="M638.75,-619.36C638.75,-616.63 611.97,-614.42 579,-614.42 546.03,-614.42 519.25,-616.63 519.25,-619.36"/>
<text xml:space="preserve" text-anchor="middle" x="579" y="-604.34" font-family="Helvetica,sans-Serif" font-size="9.00">state_in</text>
<text xml:space="preserve" text-anchor="middle" x="579" y="-593.84" font-family="Helvetica,sans-Serif" font-size="9.00">8 x 10b</text>
<text xml:space="preserve" text-anchor="middle" x="579" y="-583.34" font-family="Helvetica,sans-Serif" font-size="9.00">alpha_work or beta_work</text>
</g>
<!-- mux0 -->
<g id="node4" class="node">
<title>mux0</title>
<polygon fill="#fff2cc" stroke="#444444" points="200.19,-522.73 129.81,-522.73 104.75,-464.73 225.25,-464.73 200.19,-522.73"/>
<text xml:space="preserve" text-anchor="middle" x="165" y="-495.68" font-family="Helvetica,sans-Serif" font-size="9.00">MUX x4</text>
<text xml:space="preserve" text-anchor="middle" x="165" y="-485.18" font-family="Helvetica,sans-Serif" font-size="9.00">path select</text>
</g>
<!-- statein&#45;&gt;mux0 -->
<g id="edge34" class="edge">
<title>statein&#45;&gt;mux0</title>
<path fill="none" stroke="#444444" d="M539.09,-570.12C539.09,-546.52 539.09,-516 539.09,-516 539.09,-516 212.14,-516 212.14,-516"/>
<polygon fill="#444444" stroke="#444444" points="212.14,-513.55 205.14,-516 212.14,-518.45 212.14,-513.55"/>
</g>
<!-- mux1 -->
<g id="node13" class="node">
<title>mux1</title>
<polygon fill="#fff2cc" stroke="#444444" points="424.23,-511.73 377.77,-511.73 361.23,-475.73 440.77,-475.73 424.23,-511.73"/>
<text xml:space="preserve" text-anchor="middle" x="401" y="-490.43" font-family="Helvetica,sans-Serif" font-size="9.00">MUX x4</text>
</g>
<!-- statein&#45;&gt;mux1 -->
<g id="edge37" class="edge">
<title>statein&#45;&gt;mux1</title>
<path fill="none" stroke="#444444" d="M519.06,-575C478.65,-575 432.67,-575 432.67,-575 432.67,-575 432.67,-502.77 432.67,-502.77"/>
<polygon fill="#444444" stroke="#444444" points="435.12,-502.76 432.67,-495.77 430.22,-502.77 435.12,-502.76"/>
</g>
<!-- dots -->
<g id="node22" class="node">
<title>dots</title>
<text xml:space="preserve" text-anchor="middle" x="793" y="-500.93" font-family="Helvetica,sans-Serif" font-size="9.00">...</text>
<text xml:space="preserve" text-anchor="middle" x="793" y="-490.43" font-family="Helvetica,sans-Serif" font-size="9.00">state cells 2 to 6 omitted</text>
<text xml:space="preserve" text-anchor="middle" x="793" y="-479.93" font-family="Helvetica,sans-Serif" font-size="9.00">same MUX + 4 adders + 3 MAX blocks</text>
</g>
<!-- statein&#45;&gt;dots -->
<g id="edge40" class="edge">
<title>statein&#45;&gt;dots</title>
<path fill="none" stroke="#444444" stroke-dasharray="5,2" d="M630.51,-571.11C630.51,-542.33 630.51,-500 630.51,-500 630.51,-500 698.96,-500 698.96,-500"/>
<polygon fill="#444444" stroke="#444444" points="698.96,-502.45 705.96,-500 698.96,-497.55 698.96,-502.45"/>
</g>
<!-- mux7 -->
<g id="node23" class="node">
<title>mux7</title>
<polygon fill="#fff2cc" stroke="#444444" points="562.23,-511.73 515.77,-511.73 499.23,-475.73 578.77,-475.73 562.23,-511.73"/>
<text xml:space="preserve" text-anchor="middle" x="539" y="-490.43" font-family="Helvetica,sans-Serif" font-size="9.00">MUX x4</text>
</g>
<!-- statein&#45;&gt;mux7 -->
<g id="edge43" class="edge">
<title>statein&#45;&gt;mux7</title>
<path fill="none" stroke="#444444" d="M558.93,-569.7C558.93,-569.7 558.93,-520.67 558.93,-520.67"/>
<polygon fill="#444444" stroke="#444444" points="561.38,-520.67 558.93,-513.67 556.48,-520.67 561.38,-520.67"/>
</g>
<!-- gammain -->
<g id="node2" class="node">
<title>gammain</title>
<path fill="#ead1dc" stroke="#444444" d="M390.75,-613.45C390.75,-615.45 377.42,-617.08 361,-617.08 344.58,-617.08 331.25,-615.45 331.25,-613.45 331.25,-613.45 331.25,-580.83 331.25,-580.83 331.25,-578.83 344.58,-577.2 361,-577.2 377.42,-577.2 390.75,-578.83 390.75,-580.83 390.75,-580.83 390.75,-613.45 390.75,-613.45"/>
<path fill="none" stroke="#444444" d="M390.75,-613.45C390.75,-611.45 377.42,-609.83 361,-609.83 344.58,-609.83 331.25,-611.45 331.25,-613.45"/>
<text xml:space="preserve" text-anchor="middle" x="361" y="-599.09" font-family="Helvetica,sans-Serif" font-size="9.00">gamma_in</text>
<text xml:space="preserve" text-anchor="middle" x="361" y="-588.59" font-family="Helvetica,sans-Serif" font-size="9.00">16 x 10b</text>
</g>
<!-- gammain&#45;&gt;mux0 -->
<g id="edge35" class="edge">
<title>gammain&#45;&gt;mux0</title>
<path fill="none" stroke="#444444" d="M335.51,-578.07C335.51,-555.23 335.51,-520 335.51,-520 335.51,-520 210.09,-520 210.09,-520"/>
<polygon fill="#444444" stroke="#444444" points="210.09,-517.55 203.09,-520 210.09,-522.45 210.09,-517.55"/>
</g>
<!-- gammain&#45;&gt;mux1 -->
<g id="edge38" class="edge">
<title>gammain&#45;&gt;mux1</title>
<path fill="none" stroke="#444444" d="M368.61,-576.71C368.61,-576.71 368.61,-502.4 368.61,-502.4"/>
<polygon fill="#444444" stroke="#444444" points="371.06,-502.4 368.61,-495.4 366.16,-502.4 371.06,-502.4"/>
</g>
<!-- gammain&#45;&gt;dots -->
<g id="edge41" class="edge">
<title>gammain&#45;&gt;dots</title>
<path fill="none" stroke="#444444" stroke-dasharray="5,2" d="M375.99,-576.79C375.99,-559.68 375.99,-538 375.99,-538 375.99,-538 764.33,-538 764.33,-538 764.33,-538 764.33,-521.79 764.33,-521.79"/>
<polygon fill="#444444" stroke="#444444" points="766.78,-521.79 764.33,-514.79 761.88,-521.79 766.78,-521.79"/>
</g>
<!-- gammain&#45;&gt;mux7 -->
<g id="edge44" class="edge">
<title>gammain&#45;&gt;mux7</title>
<path fill="none" stroke="#444444" d="M383.37,-577.83C383.37,-574.45 383.37,-572 383.37,-572 383.37,-572 507.5,-572 507.5,-572 507.5,-572 507.5,-503.35 507.5,-503.35"/>
<polygon fill="#444444" stroke="#444444" points="509.95,-503.35 507.5,-496.35 505.05,-503.35 509.95,-503.35"/>
</g>
<!-- mode -->
<g id="node3" class="node">
<title>mode</title>
<path fill="#fff2cc" stroke="#444444" d="M489.62,-615.14C489.62,-615.14 420.38,-615.14 420.38,-615.14 414.38,-615.14 408.38,-609.14 408.38,-603.14 408.38,-603.14 408.38,-591.14 408.38,-591.14 408.38,-585.14 414.38,-579.14 420.38,-579.14 420.38,-579.14 489.62,-579.14 489.62,-579.14 495.62,-579.14 501.62,-585.14 501.62,-591.14 501.62,-591.14 501.62,-603.14 501.62,-603.14 501.62,-609.14 495.62,-615.14 489.62,-615.14"/>
<text xml:space="preserve" text-anchor="middle" x="455" y="-599.09" font-family="Helvetica,sans-Serif" font-size="9.00">mode</text>
<text xml:space="preserve" text-anchor="middle" x="455" y="-588.59" font-family="Helvetica,sans-Serif" font-size="9.00">forward / backward</text>
</g>
<!-- mode&#45;&gt;mux0 -->
<g id="edge36" class="edge">
<title>mode&#45;&gt;mux0</title>
<path fill="none" stroke="#444444" d="M416.47,-578.78C416.47,-555.41 416.47,-518 416.47,-518 416.47,-518 211.16,-518 211.16,-518"/>
<polygon fill="#444444" stroke="#444444" points="211.16,-515.55 204.16,-518 211.16,-520.45 211.16,-515.55"/>
</g>
<!-- mode&#45;&gt;mux1 -->
<g id="edge39" class="edge">
<title>mode&#45;&gt;mux1</title>
<path fill="none" stroke="#444444" d="M424.57,-578.65C424.57,-578.65 424.57,-520.57 424.57,-520.57"/>
<polygon fill="#444444" stroke="#444444" points="427.02,-520.57 424.57,-513.57 422.12,-520.57 427.02,-520.57"/>
</g>
<!-- mode&#45;&gt;dots -->
<g id="edge42" class="edge">
<title>mode&#45;&gt;dots</title>
<path fill="none" stroke="#444444" stroke-dasharray="5,2" d="M490.63,-578.84C490.63,-567.09 490.63,-554 490.63,-554 490.63,-554 821.67,-554 821.67,-554 821.67,-554 821.67,-521.98 821.67,-521.98"/>
<polygon fill="#444444" stroke="#444444" points="824.12,-521.98 821.67,-514.98 819.22,-521.98 824.12,-521.98"/>
</g>
<!-- mode&#45;&gt;mux7 -->
<g id="edge45" class="edge">
<title>mode&#45;&gt;mux7</title>
<path fill="none" stroke="#444444" d="M502.12,-597C508.76,-597 513.38,-597 513.38,-597 513.38,-597 513.38,-516.17 513.38,-516.17"/>
<polygon fill="#444444" stroke="#444444" points="515.83,-516.17 513.38,-509.17 510.93,-516.17 515.83,-516.17"/>
</g>
<!-- a00 -->
<g id="node5" class="node">
<title>a00</title>
<ellipse fill="#cfe2f3" stroke="#444444" cx="79" cy="-415.77" rx="12.96" ry="12.96"/>
<text xml:space="preserve" text-anchor="middle" x="79" y="-412.47" font-family="Helvetica,sans-Serif" font-size="9.00">+</text>
</g>
<!-- mux0&#45;&gt;a00 -->
<g id="edge1" class="edge">
<title>mux0&#45;&gt;a00</title>
<path fill="none" stroke="#444444" d="M116.97,-494C97.27,-494 79,-494 79,-494 79,-494 79,-437.56 79,-437.56"/>
<polygon fill="#444444" stroke="#444444" points="81.45,-437.56 79,-430.56 76.55,-437.56 81.45,-437.56"/>
</g>
<!-- a01 -->
<g id="node6" class="node">
<title>a01</title>
<ellipse fill="#cfe2f3" stroke="#444444" cx="123" cy="-415.77" rx="12.96" ry="12.96"/>
<text xml:space="preserve" text-anchor="middle" x="123" y="-412.47" font-family="Helvetica,sans-Serif" font-size="9.00">+</text>
</g>
<!-- mux0&#45;&gt;a01 -->
<g id="edge2" class="edge">
<title>mux0&#45;&gt;a01</title>
<path fill="none" stroke="#444444" d="M123,-464.26C123,-464.26 123,-437.69 123,-437.69"/>
<polygon fill="#444444" stroke="#444444" points="125.45,-437.69 123,-430.69 120.55,-437.69 125.45,-437.69"/>
</g>
<!-- a02 -->
<g id="node7" class="node">
<title>a02</title>
<ellipse fill="#cfe2f3" stroke="#444444" cx="167" cy="-415.77" rx="12.96" ry="12.96"/>
<text xml:space="preserve" text-anchor="middle" x="167" y="-412.47" font-family="Helvetica,sans-Serif" font-size="9.00">+</text>
</g>
<!-- mux0&#45;&gt;a02 -->
<g id="edge3" class="edge">
<title>mux0&#45;&gt;a02</title>
<path fill="none" stroke="#444444" d="M167,-464.26C167,-464.26 167,-437.69 167,-437.69"/>
<polygon fill="#444444" stroke="#444444" points="169.45,-437.69 167,-430.69 164.55,-437.69 169.45,-437.69"/>
</g>
<!-- a03 -->
<g id="node8" class="node">
<title>a03</title>
<ellipse fill="#cfe2f3" stroke="#444444" cx="211" cy="-415.77" rx="12.96" ry="12.96"/>
<text xml:space="preserve" text-anchor="middle" x="211" y="-412.47" font-family="Helvetica,sans-Serif" font-size="9.00">+</text>
</g>
<!-- mux0&#45;&gt;a03 -->
<g id="edge4" class="edge">
<title>mux0&#45;&gt;a03</title>
<path fill="none" stroke="#444444" d="M211,-464.26C211,-464.26 211,-437.69 211,-437.69"/>
<polygon fill="#444444" stroke="#444444" points="213.45,-437.69 211,-430.69 208.55,-437.69 213.45,-437.69"/>
</g>
<!-- m00 -->
<g id="node9" class="node">
<title>m00</title>
<polygon fill="#f4cccc" stroke="#444444" points="119,-366.81 89.74,-348.81 119,-330.81 148.26,-348.81 119,-366.81"/>
<text xml:space="preserve" text-anchor="middle" x="119" y="-345.51" font-family="Helvetica,sans-Serif" font-size="9.00">MAX</text>
</g>
<!-- a00&#45;&gt;m00 -->
<g id="edge5" class="edge">
<title>a00&#45;&gt;m00</title>
<path fill="none" stroke="#444444" d="M92.23,-416C95.63,-416 98.35,-416 98.35,-416 98.35,-416 98.35,-363.05 98.35,-363.05"/>
<polygon fill="#444444" stroke="#444444" points="100.81,-363.05 98.36,-356.05 95.91,-363.05 100.81,-363.05"/>
</g>
<!-- a01&#45;&gt;m00 -->
<g id="edge6" class="edge">
<title>a01&#45;&gt;m00</title>
<path fill="none" stroke="#444444" d="M123,-402.54C123,-402.54 123,-373.36 123,-373.36"/>
<polygon fill="#444444" stroke="#444444" points="125.45,-373.36 123,-366.36 120.55,-373.36 125.45,-373.36"/>
</g>
<!-- m01 -->
<g id="node10" class="node">
<title>m01</title>
<polygon fill="#f4cccc" stroke="#444444" points="196,-366.81 166.74,-348.81 196,-330.81 225.26,-348.81 196,-366.81"/>
<text xml:space="preserve" text-anchor="middle" x="196" y="-345.51" font-family="Helvetica,sans-Serif" font-size="9.00">MAX</text>
</g>
<!-- a02&#45;&gt;m01 -->
<g id="edge7" class="edge">
<title>a02&#45;&gt;m01</title>
<path fill="none" stroke="#444444" d="M173.35,-404.11C173.35,-404.11 173.35,-361.95 173.35,-361.95"/>
<polygon fill="#444444" stroke="#444444" points="175.8,-361.95 173.35,-354.95 170.9,-361.95 175.8,-361.95"/>
</g>
<!-- a03&#45;&gt;m01 -->
<g id="edge8" class="edge">
<title>a03&#45;&gt;m01</title>
<path fill="none" stroke="#444444" d="M211,-402.54C211,-402.54 211,-366.65 211,-366.65"/>
<polygon fill="#444444" stroke="#444444" points="213.45,-366.65 211,-359.65 208.55,-366.65 213.45,-366.65"/>
</g>
<!-- m02 -->
<g id="node11" class="node">
<title>m02</title>
<polygon fill="#f4cccc" stroke="#444444" points="196,-294.81 166.74,-276.81 196,-258.81 225.26,-276.81 196,-294.81"/>
<text xml:space="preserve" text-anchor="middle" x="196" y="-273.51" font-family="Helvetica,sans-Serif" font-size="9.00">MAX</text>
</g>
<!-- m00&#45;&gt;m02 -->
<g id="edge9" class="edge">
<title>m00&#45;&gt;m02</title>
<path fill="none" stroke="#444444" d="M119,-330.32C119,-309.04 119,-277 119,-277 119,-277 157.94,-277 157.94,-277"/>
<polygon fill="#444444" stroke="#444444" points="157.94,-279.45 164.94,-277 157.94,-274.55 157.94,-279.45"/>
</g>
<!-- m01&#45;&gt;m02 -->
<g id="edge10" class="edge">
<title>m01&#45;&gt;m02</title>
<path fill="none" stroke="#444444" d="M196,-330.27C196,-330.27 196,-303.56 196,-303.56"/>
<polygon fill="#444444" stroke="#444444" points="198.45,-303.56 196,-296.56 193.55,-303.56 198.45,-303.56"/>
</g>
<!-- r0 -->
<g id="node12" class="node">
<title>r0</title>
<polygon fill="#ead1dc" stroke="#444444" points="224,-222.81 174,-222.81 170,-218.81 170,-186.81 220,-186.81 224,-190.81 224,-222.81"/>
<polyline fill="none" stroke="#444444" points="220,-218.81 170,-218.81"/>
<polyline fill="none" stroke="#444444" points="220,-218.81 220,-186.81"/>
<polyline fill="none" stroke="#444444" points="220,-218.81 224,-222.81"/>
<text xml:space="preserve" text-anchor="middle" x="197" y="-206.76" font-family="Helvetica,sans-Serif" font-size="9.00">ret[0]</text>
<text xml:space="preserve" text-anchor="middle" x="197" y="-196.26" font-family="Helvetica,sans-Serif" font-size="9.00">10b</text>
</g>
<!-- m02&#45;&gt;r0 -->
<g id="edge11" class="edge">
<title>m02&#45;&gt;r0</title>
<path fill="none" stroke="#444444" d="M197,-259.01C197,-259.01 197,-231.67 197,-231.67"/>
<polygon fill="#444444" stroke="#444444" points="199.45,-231.67 197,-224.67 194.55,-231.67 199.45,-231.67"/>
</g>
<!-- stateout -->
<g id="node32" class="node">
<title>stateout</title>
<path fill="#ead1dc" stroke="#444444" d="M554.5,-145.88C554.5,-148.6 516.63,-150.81 470,-150.81 423.37,-150.81 385.5,-148.6 385.5,-145.88 385.5,-145.88 385.5,-101.44 385.5,-101.44 385.5,-98.71 423.37,-96.5 470,-96.5 516.63,-96.5 554.5,-98.71 554.5,-101.44 554.5,-101.44 554.5,-145.88 554.5,-145.88"/>
<path fill="none" stroke="#444444" d="M554.5,-145.88C554.5,-143.15 516.63,-140.94 470,-140.94 423.37,-140.94 385.5,-143.15 385.5,-145.88"/>
<text xml:space="preserve" text-anchor="middle" x="470" y="-130.86" font-family="Helvetica,sans-Serif" font-size="9.00">state_out</text>
<text xml:space="preserve" text-anchor="middle" x="470" y="-120.36" font-family="Helvetica,sans-Serif" font-size="9.00">8 x 10b</text>
<text xml:space="preserve" text-anchor="middle" x="470" y="-109.86" font-family="Helvetica,sans-Serif" font-size="9.00">latched into alpha_work or beta_work</text>
</g>
<!-- r0&#45;&gt;stateout -->
<g id="edge46" class="edge">
<title>r0&#45;&gt;stateout</title>
<path fill="none" stroke="#444444" d="M224.38,-205C278.48,-205 393.89,-205 393.89,-205 393.89,-205 393.89,-157.91 393.89,-157.91"/>
<polygon fill="#444444" stroke="#444444" points="396.34,-157.91 393.89,-150.91 391.44,-157.91 396.34,-157.91"/>
</g>
<!-- a10 -->
<g id="node14" class="node">
<title>a10</title>
<ellipse fill="#cfe2f3" stroke="#444444" cx="313" cy="-415.77" rx="12.96" ry="12.96"/>
<text xml:space="preserve" text-anchor="middle" x="313" y="-412.47" font-family="Helvetica,sans-Serif" font-size="9.00">+</text>
</g>
<!-- mux1&#45;&gt;a10 -->
<g id="edge12" class="edge">
<title>mux1&#45;&gt;a10</title>
<path fill="none" stroke="#444444" d="M369.23,-494C344.02,-494 313,-494 313,-494 313,-494 313,-437.56 313,-437.56"/>
<polygon fill="#444444" stroke="#444444" points="315.45,-437.56 313,-430.56 310.55,-437.56 315.45,-437.56"/>
</g>
<!-- a11 -->
<g id="node15" class="node">
<title>a11</title>
<ellipse fill="#cfe2f3" stroke="#444444" cx="357" cy="-415.77" rx="12.96" ry="12.96"/>
<text xml:space="preserve" text-anchor="middle" x="357" y="-412.47" font-family="Helvetica,sans-Serif" font-size="9.00">+</text>
</g>
<!-- mux1&#45;&gt;a11 -->
<g id="edge13" class="edge">
<title>mux1&#45;&gt;a11</title>
<path fill="none" stroke="#444444" d="M365.59,-475.26C365.59,-475.26 365.59,-434.29 365.59,-434.29"/>
<polygon fill="#444444" stroke="#444444" points="368.04,-434.29 365.59,-427.29 363.14,-434.29 368.04,-434.29"/>
</g>
<!-- a12 -->
<g id="node16" class="node">
<title>a12</title>
<ellipse fill="#cfe2f3" stroke="#444444" cx="401" cy="-415.77" rx="12.96" ry="12.96"/>
<text xml:space="preserve" text-anchor="middle" x="401" y="-412.47" font-family="Helvetica,sans-Serif" font-size="9.00">+</text>
</g>
<!-- mux1&#45;&gt;a12 -->
<g id="edge14" class="edge">
<title>mux1&#45;&gt;a12</title>
<path fill="none" stroke="#444444" d="M401,-475.26C401,-475.26 401,-437.51 401,-437.51"/>
<polygon fill="#444444" stroke="#444444" points="403.45,-437.51 401,-430.51 398.55,-437.51 403.45,-437.51"/>
</g>
<!-- a13 -->
<g id="node17" class="node">
<title>a13</title>
<ellipse fill="#cfe2f3" stroke="#444444" cx="445" cy="-415.77" rx="12.96" ry="12.96"/>
<text xml:space="preserve" text-anchor="middle" x="445" y="-412.47" font-family="Helvetica,sans-Serif" font-size="9.00">+</text>
</g>
<!-- mux1&#45;&gt;a13 -->
<g id="edge15" class="edge">
<title>mux1&#45;&gt;a13</title>
<path fill="none" stroke="#444444" d="M436.41,-475.26C436.41,-475.26 436.41,-434.29 436.41,-434.29"/>
<polygon fill="#444444" stroke="#444444" points="438.86,-434.29 436.41,-427.29 433.96,-434.29 438.86,-434.29"/>
</g>
<!-- m10 -->
<g id="node18" class="node">
<title>m10</title>
<polygon fill="#f4cccc" stroke="#444444" points="352,-366.81 322.74,-348.81 352,-330.81 381.26,-348.81 352,-366.81"/>
<text xml:space="preserve" text-anchor="middle" x="352" y="-345.51" font-family="Helvetica,sans-Serif" font-size="9.00">MAX</text>
</g>
<!-- a10&#45;&gt;m10 -->
<g id="edge16" class="edge">
<title>a10&#45;&gt;m10</title>
<path fill="none" stroke="#444444" d="M326.39,-416C333.08,-416 339.78,-416 339.78,-416 339.78,-416 339.78,-368.12 339.78,-368.12"/>
<polygon fill="#444444" stroke="#444444" points="342.23,-368.12 339.78,-361.12 337.33,-368.12 342.23,-368.12"/>
</g>
<!-- a11&#45;&gt;m10 -->
<g id="edge17" class="edge">
<title>a11&#45;&gt;m10</title>
<path fill="none" stroke="#444444" d="M357,-402.54C357,-402.54 357,-372.4 357,-372.4"/>
<polygon fill="#444444" stroke="#444444" points="359.45,-372.4 357,-365.4 354.55,-372.4 359.45,-372.4"/>
</g>
<!-- m11 -->
<g id="node19" class="node">
<title>m11</title>
<polygon fill="#f4cccc" stroke="#444444" points="429,-366.81 399.74,-348.81 429,-330.81 458.26,-348.81 429,-366.81"/>
<text xml:space="preserve" text-anchor="middle" x="429" y="-345.51" font-family="Helvetica,sans-Serif" font-size="9.00">MAX</text>
</g>
<!-- a12&#45;&gt;m11 -->
<g id="edge18" class="edge">
<title>a12&#45;&gt;m11</title>
<path fill="none" stroke="#444444" d="M406.85,-403.8C406.85,-403.8 406.85,-362.22 406.85,-362.22"/>
<polygon fill="#444444" stroke="#444444" points="409.3,-362.22 406.85,-355.22 404.4,-362.22 409.3,-362.22"/>
</g>
<!-- a13&#45;&gt;m11 -->
<g id="edge19" class="edge">
<title>a13&#45;&gt;m11</title>
<path fill="none" stroke="#444444" d="M445,-402.54C445,-402.54 445,-365.86 445,-365.86"/>
<polygon fill="#444444" stroke="#444444" points="447.45,-365.86 445,-358.86 442.55,-365.86 447.45,-365.86"/>
</g>
<!-- m12 -->
<g id="node20" class="node">
<title>m12</title>
<polygon fill="#f4cccc" stroke="#444444" points="429,-294.81 399.74,-276.81 429,-258.81 458.26,-276.81 429,-294.81"/>
<text xml:space="preserve" text-anchor="middle" x="429" y="-273.51" font-family="Helvetica,sans-Serif" font-size="9.00">MAX</text>
</g>
<!-- m10&#45;&gt;m12 -->
<g id="edge20" class="edge">
<title>m10&#45;&gt;m12</title>
<path fill="none" stroke="#444444" d="M352,-330.32C352,-309.04 352,-277 352,-277 352,-277 390.94,-277 390.94,-277"/>
<polygon fill="#444444" stroke="#444444" points="390.94,-279.45 397.94,-277 390.94,-274.55 390.94,-279.45"/>
</g>
<!-- m11&#45;&gt;m12 -->
<g id="edge21" class="edge">
<title>m11&#45;&gt;m12</title>
<path fill="none" stroke="#444444" d="M429,-330.27C429,-330.27 429,-303.56 429,-303.56"/>
<polygon fill="#444444" stroke="#444444" points="431.45,-303.56 429,-296.56 426.55,-303.56 431.45,-303.56"/>
</g>
<!-- r1 -->
<g id="node21" class="node">
<title>r1</title>
<polygon fill="#ead1dc" stroke="#444444" points="457,-222.81 407,-222.81 403,-218.81 403,-186.81 453,-186.81 457,-190.81 457,-222.81"/>
<polyline fill="none" stroke="#444444" points="453,-218.81 403,-218.81"/>
<polyline fill="none" stroke="#444444" points="453,-218.81 453,-186.81"/>
<polyline fill="none" stroke="#444444" points="453,-218.81 457,-222.81"/>
<text xml:space="preserve" text-anchor="middle" x="430" y="-201.51" font-family="Helvetica,sans-Serif" font-size="9.00">ret[1]</text>
</g>
<!-- m12&#45;&gt;r1 -->
<g id="edge22" class="edge">
<title>m12&#45;&gt;r1</title>
<path fill="none" stroke="#444444" d="M430,-259.01C430,-259.01 430,-231.67 430,-231.67"/>
<polygon fill="#444444" stroke="#444444" points="432.45,-231.67 430,-224.67 427.55,-231.67 432.45,-231.67"/>
</g>
<!-- r1&#45;&gt;stateout -->
<g id="edge47" class="edge">
<title>r1&#45;&gt;stateout</title>
<path fill="none" stroke="#444444" d="M430,-186.4C430,-186.4 430,-159.76 430,-159.76"/>
<polygon fill="#444444" stroke="#444444" points="432.45,-159.76 430,-152.76 427.55,-159.76 432.45,-159.76"/>
</g>
<!-- dots&#45;&gt;stateout -->
<g id="edge48" class="edge">
<title>dots&#45;&gt;stateout</title>
<path fill="none" stroke="#444444" stroke-dasharray="5,2" d="M793,-474.12C793,-397.68 793,-124 793,-124 793,-124 563.38,-124 563.38,-124"/>
<polygon fill="#444444" stroke="#444444" points="563.38,-121.55 556.38,-124 563.38,-126.45 563.38,-121.55"/>
</g>
<!-- a70 -->
<g id="node24" class="node">
<title>a70</title>
<ellipse fill="#cfe2f3" stroke="#444444" cx="495" cy="-415.77" rx="12.96" ry="12.96"/>
<text xml:space="preserve" text-anchor="middle" x="495" y="-412.47" font-family="Helvetica,sans-Serif" font-size="9.00">+</text>
</g>
<!-- mux7&#45;&gt;a70 -->
<g id="edge23" class="edge">
<title>mux7&#45;&gt;a70</title>
<path fill="none" stroke="#444444" d="M503.59,-475.26C503.59,-475.26 503.59,-434.29 503.59,-434.29"/>
<polygon fill="#444444" stroke="#444444" points="506.04,-434.29 503.59,-427.29 501.14,-434.29 506.04,-434.29"/>
</g>
<!-- a71 -->
<g id="node25" class="node">
<title>a71</title>
<ellipse fill="#cfe2f3" stroke="#444444" cx="539" cy="-415.77" rx="12.96" ry="12.96"/>
<text xml:space="preserve" text-anchor="middle" x="539" y="-412.47" font-family="Helvetica,sans-Serif" font-size="9.00">+</text>
</g>
<!-- mux7&#45;&gt;a71 -->
<g id="edge24" class="edge">
<title>mux7&#45;&gt;a71</title>
<path fill="none" stroke="#444444" d="M539,-475.26C539,-475.26 539,-437.51 539,-437.51"/>
<polygon fill="#444444" stroke="#444444" points="541.45,-437.51 539,-430.51 536.55,-437.51 541.45,-437.51"/>
</g>
<!-- a72 -->
<g id="node26" class="node">
<title>a72</title>
<ellipse fill="#cfe2f3" stroke="#444444" cx="583" cy="-415.77" rx="12.96" ry="12.96"/>
<text xml:space="preserve" text-anchor="middle" x="583" y="-412.47" font-family="Helvetica,sans-Serif" font-size="9.00">+</text>
</g>
<!-- mux7&#45;&gt;a72 -->
<g id="edge25" class="edge">
<title>mux7&#45;&gt;a72</title>
<path fill="none" stroke="#444444" d="M574.41,-475.26C574.41,-475.26 574.41,-434.29 574.41,-434.29"/>
<polygon fill="#444444" stroke="#444444" points="576.86,-434.29 574.41,-427.29 571.96,-434.29 576.86,-434.29"/>
</g>
<!-- a73 -->
<g id="node27" class="node">
<title>a73</title>
<ellipse fill="#cfe2f3" stroke="#444444" cx="627" cy="-415.77" rx="12.96" ry="12.96"/>
<text xml:space="preserve" text-anchor="middle" x="627" y="-412.47" font-family="Helvetica,sans-Serif" font-size="9.00">+</text>
</g>
<!-- mux7&#45;&gt;a73 -->
<g id="edge26" class="edge">
<title>mux7&#45;&gt;a73</title>
<path fill="none" stroke="#444444" d="M573.35,-488C596.29,-488 622.28,-488 622.28,-488 622.28,-488 622.28,-436.87 622.28,-436.87"/>
<polygon fill="#444444" stroke="#444444" points="624.73,-436.87 622.28,-429.87 619.83,-436.87 624.73,-436.87"/>
</g>
<!-- m70 -->
<g id="node28" class="node">
<title>m70</title>
<polygon fill="#f4cccc" stroke="#444444" points="511,-366.81 481.74,-348.81 511,-330.81 540.26,-348.81 511,-366.81"/>
<text xml:space="preserve" text-anchor="middle" x="511" y="-345.51" font-family="Helvetica,sans-Serif" font-size="9.00">MAX</text>
</g>
<!-- a70&#45;&gt;m70 -->
<g id="edge27" class="edge">
<title>a70&#45;&gt;m70</title>
<path fill="none" stroke="#444444" d="M495,-402.54C495,-402.54 495,-365.86 495,-365.86"/>
<polygon fill="#444444" stroke="#444444" points="497.45,-365.86 495,-358.86 492.55,-365.86 497.45,-365.86"/>
</g>
<!-- a71&#45;&gt;m70 -->
<g id="edge28" class="edge">
<title>a71&#45;&gt;m70</title>
<path fill="none" stroke="#444444" d="M533.15,-403.8C533.15,-403.8 533.15,-362.22 533.15,-362.22"/>
<polygon fill="#444444" stroke="#444444" points="535.6,-362.22 533.15,-355.22 530.7,-362.22 535.6,-362.22"/>
</g>
<!-- m71 -->
<g id="node29" class="node">
<title>m71</title>
<polygon fill="#f4cccc" stroke="#444444" points="588,-366.81 558.74,-348.81 588,-330.81 617.26,-348.81 588,-366.81"/>
<text xml:space="preserve" text-anchor="middle" x="588" y="-345.51" font-family="Helvetica,sans-Serif" font-size="9.00">MAX</text>
</g>
<!-- a72&#45;&gt;m71 -->
<g id="edge29" class="edge">
<title>a72&#45;&gt;m71</title>
<path fill="none" stroke="#444444" d="M583,-402.54C583,-402.54 583,-372.4 583,-372.4"/>
<polygon fill="#444444" stroke="#444444" points="585.45,-372.4 583,-365.4 580.55,-372.4 585.45,-372.4"/>
</g>
<!-- a73&#45;&gt;m71 -->
<g id="edge30" class="edge">
<title>a73&#45;&gt;m71</title>
<path fill="none" stroke="#444444" d="M613.69,-416C609.06,-416 605,-416 605,-416 605,-416 605,-365.3 605,-365.3"/>
<polygon fill="#444444" stroke="#444444" points="607.45,-365.3 605,-358.3 602.55,-365.3 607.45,-365.3"/>
</g>
<!-- m72 -->
<g id="node30" class="node">
<title>m72</title>
<polygon fill="#f4cccc" stroke="#444444" points="511,-294.81 481.74,-276.81 511,-258.81 540.26,-276.81 511,-294.81"/>
<text xml:space="preserve" text-anchor="middle" x="511" y="-273.51" font-family="Helvetica,sans-Serif" font-size="9.00">MAX</text>
</g>
<!-- m70&#45;&gt;m72 -->
<g id="edge31" class="edge">
<title>m70&#45;&gt;m72</title>
<path fill="none" stroke="#444444" d="M511,-330.27C511,-330.27 511,-303.56 511,-303.56"/>
<polygon fill="#444444" stroke="#444444" points="513.45,-303.56 511,-296.56 508.55,-303.56 513.45,-303.56"/>
</g>
<!-- m71&#45;&gt;m72 -->
<g id="edge32" class="edge">
<title>m71&#45;&gt;m72</title>
<path fill="none" stroke="#444444" d="M588,-330.32C588,-309.04 588,-277 588,-277 588,-277 549.06,-277 549.06,-277"/>
<polygon fill="#444444" stroke="#444444" points="549.06,-274.55 542.06,-277 549.06,-279.45 549.06,-274.55"/>
</g>
<!-- r7 -->
<g id="node31" class="node">
<title>r7</title>
<polygon fill="#ead1dc" stroke="#444444" points="537,-222.81 487,-222.81 483,-218.81 483,-186.81 533,-186.81 537,-190.81 537,-222.81"/>
<polyline fill="none" stroke="#444444" points="533,-218.81 483,-218.81"/>
<polyline fill="none" stroke="#444444" points="533,-218.81 533,-186.81"/>
<polyline fill="none" stroke="#444444" points="533,-218.81 537,-222.81"/>
<text xml:space="preserve" text-anchor="middle" x="510" y="-201.51" font-family="Helvetica,sans-Serif" font-size="9.00">ret[7]</text>
</g>
<!-- m72&#45;&gt;r7 -->
<g id="edge33" class="edge">
<title>m72&#45;&gt;r7</title>
<path fill="none" stroke="#444444" d="M510,-259.01C510,-259.01 510,-231.67 510,-231.67"/>
<polygon fill="#444444" stroke="#444444" points="512.45,-231.67 510,-224.67 507.55,-231.67 512.45,-231.67"/>
</g>
<!-- r7&#45;&gt;stateout -->
<g id="edge49" class="edge">
<title>r7&#45;&gt;stateout</title>
<path fill="none" stroke="#444444" d="M510,-186.4C510,-186.4 510,-159.76 510,-159.76"/>
<polygon fill="#444444" stroke="#444444" points="512.45,-159.76 510,-152.76 507.55,-159.76 512.45,-159.76"/>
</g>
<!-- note -->
<g id="node33" class="node">
<title>note</title>
<polygon fill="#fff2cc" stroke="#444444" points="524.12,-60.5 409.88,-60.5 409.88,0 530.12,0 530.12,-54.5 524.12,-60.5"/>
<polyline fill="none" stroke="#444444" points="524.12,-60.5 524.12,-54.5"/>
<polyline fill="none" stroke="#444444" points="530.12,-54.5 524.12,-54.5"/>
<text xml:space="preserve" text-anchor="middle" x="470" y="-47.95" font-family="Helvetica,sans-Serif" font-size="9.00">Full ACS totals:</text>
<text xml:space="preserve" text-anchor="middle" x="470" y="-37.45" font-family="Helvetica,sans-Serif" font-size="9.00">8 repeated state cells</text>
<text xml:space="preserve" text-anchor="middle" x="470" y="-26.95" font-family="Helvetica,sans-Serif" font-size="9.00">32 adders</text>
<text xml:space="preserve" text-anchor="middle" x="470" y="-16.45" font-family="Helvetica,sans-Serif" font-size="9.00">8 MUX&#45;x4 blocks</text>
<text xml:space="preserve" text-anchor="middle" x="470" y="-5.95" font-family="Helvetica,sans-Serif" font-size="9.00">24 compare&#45;select blocks</text>
</g>
<!-- stateout&#45;&gt;note -->
<g id="edge50" class="edge">
<title>stateout&#45;&gt;note</title>
<path fill="none" stroke="#444444" d="M470,-96.14C470,-96.14 470,-69.36 470,-69.36"/>
<polygon fill="#444444" stroke="#444444" points="472.45,-69.36 470,-62.36 467.55,-69.36 472.45,-69.36"/>
</g>
</g>
</svg>
