<?xml version="1.0" encoding="UTF-8" standalone="no"?>
<!DOCTYPE svg PUBLIC "-//W3C//DTD SVG 1.1//EN"
 "http://www.w3.org/Graphics/SVG/1.1/DTD/svg11.dtd">
<!-- Generated by graphviz version 14.1.2 (0)
 -->
<!-- Title: G Pages: 1 -->
<svg width="665pt" height="856pt"
 viewBox="0.00 0.00 665.00 856.00" xmlns="http://www.w3.org/2000/svg" xmlns:xlink="http://www.w3.org/1999/xlink">
<g id="graph0" class="graph" transform="scale(1 1) rotate(0) translate(4 852.25)">
<title>G</title>
<polygon fill="white" stroke="none" points="-4,4 -4,-852.25 660.5,-852.25 660.5,4 -4,4"/>
<text xml:space="preserve" text-anchor="middle" x="328.25" y="-825.25" font-family="Helvetica,sans-Serif" font-size="20.00">siso_maxlogmap &#45; Updated Control / FSM</text>
<!-- IDLE -->
<g id="node1" class="node">
<title>IDLE</title>
<path fill="#d0e0e3" stroke="#555555" d="M479.5,-817C479.5,-817 449.5,-817 449.5,-817 443.5,-817 437.5,-811 437.5,-805 437.5,-805 437.5,-793 437.5,-793 437.5,-787 443.5,-781 449.5,-781 449.5,-781 479.5,-781 479.5,-781 485.5,-781 491.5,-787 491.5,-793 491.5,-793 491.5,-805 491.5,-805 491.5,-811 485.5,-817 479.5,-817"/>
<text xml:space="preserve" text-anchor="middle" x="464.5" y="-795.3" font-family="Helvetica,sans-Serif" font-size="11.00">IDLE</text>
</g>
<!-- LOAD -->
<g id="node2" class="node">
<title>LOAD</title>
<path fill="#e8f0fe" stroke="#555555" d="M341.38,-733C341.38,-733 231.62,-733 231.62,-733 225.62,-733 219.62,-727 219.62,-721 219.62,-721 219.62,-709 219.62,-709 219.62,-703 225.62,-697 231.62,-697 231.62,-697 341.38,-697 341.38,-697 347.38,-697 353.38,-703 353.38,-709 353.38,-709 353.38,-721 353.38,-721 353.38,-727 347.38,-733 341.38,-733"/>
<text xml:space="preserve" text-anchor="middle" x="286.5" y="-718.05" font-family="Helvetica,sans-Serif" font-size="11.00">LOAD</text>
<text xml:space="preserve" text-anchor="middle" x="286.5" y="-704.55" font-family="Helvetica,sans-Serif" font-size="11.00">(optional legacy preload)</text>
</g>
<!-- IDLE&#45;&gt;LOAD -->
<g id="edge1" class="edge">
<title>IDLE&#45;&gt;LOAD</title>
<path fill="none" stroke="#444444" d="M437.1,-796.8C391.49,-794.17 303.09,-786.15 284,-763 279.74,-757.83 278.46,-751.15 278.7,-744.46"/>
<polygon fill="#444444" stroke="#444444" points="282.11,-745.34 280.05,-734.95 275.18,-744.36 282.11,-745.34"/>
<text xml:space="preserve" text-anchor="middle" x="367.25" y="-753.5" font-family="Helvetica,sans-Serif" font-size="10.00">start &amp; !G_USE_EXTERNAL_FETCH</text>
</g>
<!-- FWD_REQ -->
<g id="node3" class="node">
<title>FWD_REQ</title>
<path fill="#fff2cc" stroke="#555555" d="M334.25,-649C334.25,-649 286.75,-649 286.75,-649 280.75,-649 274.75,-643 274.75,-637 274.75,-637 274.75,-625 274.75,-625 274.75,-619 280.75,-613 286.75,-613 286.75,-613 334.25,-613 334.25,-613 340.25,-613 346.25,-619 346.25,-625 346.25,-625 346.25,-637 346.25,-637 346.25,-643 340.25,-649 334.25,-649"/>
<text xml:space="preserve" text-anchor="middle" x="310.5" y="-627.3" font-family="Helvetica,sans-Serif" font-size="11.00">FWD_REQ</text>
</g>
<!-- IDLE&#45;&gt;FWD_REQ -->
<g id="edge2" class="edge">
<title>IDLE&#45;&gt;FWD_REQ</title>
<path fill="none" stroke="#444444" d="M461.42,-780.67C459.27,-771.43 455.82,-760.12 450.5,-751 424.35,-706.21 410.17,-699.19 369.5,-667 364.35,-662.93 358.69,-658.99 352.97,-655.31"/>
<polygon fill="#444444" stroke="#444444" points="355.01,-652.46 344.66,-650.19 351.34,-658.42 355.01,-652.46"/>
<text xml:space="preserve" text-anchor="middle" x="520.77" y="-711.5" font-family="Helvetica,sans-Serif" font-size="10.00">start &amp; G_USE_EXTERNAL_FETCH</text>
</g>
<!-- LOAD&#45;&gt;FWD_REQ -->
<g id="edge3" class="edge">
<title>LOAD&#45;&gt;FWD_REQ</title>
<path fill="none" stroke="#444444" d="M291.59,-696.61C294.68,-686.06 298.69,-672.36 302.22,-660.28"/>
<polygon fill="#444444" stroke="#444444" points="305.54,-661.4 304.99,-650.82 298.82,-659.43 305.54,-661.4"/>
<text xml:space="preserve" text-anchor="middle" x="332.94" y="-669.5" font-family="Helvetica,sans-Serif" font-size="10.00">last pair loaded</text>
</g>
<!-- FWD_WAIT -->
<g id="node4" class="node">
<title>FWD_WAIT</title>
<path fill="#fff2cc" stroke="#555555" d="M148.75,-565C148.75,-565 98.25,-565 98.25,-565 92.25,-565 86.25,-559 86.25,-553 86.25,-553 86.25,-541 86.25,-541 86.25,-535 92.25,-529 98.25,-529 98.25,-529 148.75,-529 148.75,-529 154.75,-529 160.75,-535 160.75,-541 160.75,-541 160.75,-553 160.75,-553 160.75,-559 154.75,-565 148.75,-565"/>
<text xml:space="preserve" text-anchor="middle" x="123.5" y="-543.3" font-family="Helvetica,sans-Serif" font-size="11.00">FWD_WAIT</text>
</g>
<!-- FWD_REQ&#45;&gt;FWD_WAIT -->
<g id="edge4" class="edge">
<title>FWD_REQ&#45;&gt;FWD_WAIT</title>
<path fill="none" stroke="#444444" d="M274.5,-627.95C227.39,-624.48 148.55,-615.68 129.25,-595 124.58,-589.99 122.34,-583.27 121.44,-576.48"/>
<polygon fill="#444444" stroke="#444444" points="124.95,-576.64 121.07,-566.78 117.96,-576.91 124.95,-576.64"/>
<text xml:space="preserve" text-anchor="middle" x="158.88" y="-585.5" font-family="Helvetica,sans-Serif" font-size="10.00">external fetch</text>
</g>
<!-- FWD_STEP -->
<g id="node5" class="node">
<title>FWD_STEP</title>
<path fill="#d9ead3" stroke="#555555" d="M267.12,-481C267.12,-481 137.88,-481 137.88,-481 131.88,-481 125.88,-475 125.88,-469 125.88,-469 125.88,-444.5 125.88,-444.5 125.88,-438.5 131.88,-432.5 137.88,-432.5 137.88,-432.5 267.12,-432.5 267.12,-432.5 273.12,-432.5 279.12,-438.5 279.12,-444.5 279.12,-444.5 279.12,-469 279.12,-469 279.12,-475 273.12,-481 267.12,-481"/>
<text xml:space="preserve" text-anchor="middle" x="202.5" y="-466.55" font-family="Helvetica,sans-Serif" font-size="11.00">FWD_STEP</text>
<text xml:space="preserve" text-anchor="middle" x="202.5" y="-453.05" font-family="Helvetica,sans-Serif" font-size="11.00">compute/store g0 g1 gamma</text>
<text xml:space="preserve" text-anchor="middle" x="202.5" y="-439.55" font-family="Helvetica,sans-Serif" font-size="11.00">advance alpha</text>
</g>
<!-- FWD_REQ&#45;&gt;FWD_STEP -->
<g id="edge5" class="edge">
<title>FWD_REQ&#45;&gt;FWD_STEP</title>
<path fill="none" stroke="#444444" d="M274.48,-614.23C254.14,-603.39 230.17,-586.97 216.75,-565 203.55,-543.4 200.3,-514.81 200.18,-492.59"/>
<polygon fill="#444444" stroke="#444444" points="203.68,-492.87 200.36,-482.81 196.68,-492.75 203.68,-492.87"/>
<text xml:space="preserve" text-anchor="middle" x="254.62" y="-543.5" font-family="Helvetica,sans-Serif" font-size="10.00">legacy RAM read</text>
</g>
<!-- FWD_WAIT&#45;&gt;FWD_STEP -->
<g id="edge6" class="edge">
<title>FWD_WAIT&#45;&gt;FWD_STEP</title>
<path fill="none" stroke="#444444" d="M118.85,-528.74C117.31,-519.3 117.15,-507.78 122.5,-499 124.75,-495.31 127.44,-491.94 130.46,-488.86"/>
<polygon fill="#444444" stroke="#444444" points="132.7,-491.55 137.97,-482.36 128.12,-486.26 132.7,-491.55"/>
<text xml:space="preserve" text-anchor="middle" x="155.5" y="-501.5" font-family="Helvetica,sans-Serif" font-size="10.00">fetch_rsp_valid</text>
</g>
<!-- FWD_STEP&#45;&gt;FWD_REQ -->
<g id="edge7" class="edge">
<title>FWD_STEP&#45;&gt;FWD_REQ</title>
<path fill="none" stroke="#444444" d="M244.09,-481.2C261.72,-493.24 280.84,-509.5 292.5,-529 305.62,-550.96 309.69,-580.06 310.73,-601.39"/>
<polygon fill="#444444" stroke="#444444" points="307.22,-601.22 310.99,-611.12 314.22,-601.03 307.22,-601.22"/>
<text xml:space="preserve" text-anchor="middle" x="364.22" y="-543.5" font-family="Helvetica,sans-Serif" font-size="10.00">next pair in current window</text>
</g>
<!-- DUMMY_REQ -->
<g id="node6" class="node">
<title>DUMMY_REQ</title>
<path fill="#f4cccc" stroke="#555555" d="M178.5,-384.5C178.5,-384.5 114.5,-384.5 114.5,-384.5 108.5,-384.5 102.5,-378.5 102.5,-372.5 102.5,-372.5 102.5,-360.5 102.5,-360.5 102.5,-354.5 108.5,-348.5 114.5,-348.5 114.5,-348.5 178.5,-348.5 178.5,-348.5 184.5,-348.5 190.5,-354.5 190.5,-360.5 190.5,-360.5 190.5,-372.5 190.5,-372.5 190.5,-378.5 184.5,-384.5 178.5,-384.5"/>
<text xml:space="preserve" text-anchor="middle" x="146.5" y="-362.8" font-family="Helvetica,sans-Serif" font-size="11.00">DUMMY_REQ</text>
</g>
<!-- FWD_STEP&#45;&gt;DUMMY_REQ -->
<g id="edge8" class="edge">
<title>FWD_STEP&#45;&gt;DUMMY_REQ</title>
<path fill="none" stroke="#444444" d="M187.49,-432.1C180.1,-420.45 171.16,-406.36 163.51,-394.31"/>
<polygon fill="#444444" stroke="#444444" points="166.59,-392.62 158.27,-386.05 160.68,-396.37 166.59,-392.62"/>
<text xml:space="preserve" text-anchor="middle" x="249.68" y="-405" font-family="Helvetica,sans-Serif" font-size="10.00">window done, next window exists</text>
</g>
<!-- LOCAL_BWD -->
<g id="node9" class="node">
<title>LOCAL_BWD</title>
<path fill="#fce5cd" stroke="#555555" d="M449.62,-132.5C449.62,-132.5 389.38,-132.5 389.38,-132.5 383.38,-132.5 377.38,-126.5 377.38,-120.5 377.38,-120.5 377.38,-96 377.38,-96 377.38,-90 383.38,-84 389.38,-84 389.38,-84 449.62,-84 449.62,-84 455.62,-84 461.62,-90 461.62,-96 461.62,-96 461.62,-120.5 461.62,-120.5 461.62,-126.5 455.62,-132.5 449.62,-132.5"/>
<text xml:space="preserve" text-anchor="middle" x="419.5" y="-118.05" font-family="Helvetica,sans-Serif" font-size="11.00">LOCAL_BWD</text>
<text xml:space="preserve" text-anchor="middle" x="419.5" y="-104.55" font-family="Helvetica,sans-Serif" font-size="11.00">emit post/ext</text>
<text xml:space="preserve" text-anchor="middle" x="419.5" y="-91.05" font-family="Helvetica,sans-Serif" font-size="11.00">update beta</text>
</g>
<!-- FWD_STEP&#45;&gt;LOCAL_BWD -->
<g id="edge9" class="edge">
<title>FWD_STEP&#45;&gt;LOCAL_BWD</title>
<path fill="none" stroke="#444444" d="M279.62,-447.21C327.32,-437.14 379.5,-415.23 379.5,-367.5 379.5,-367.5 379.5,-367.5 379.5,-197.5 379.5,-178.18 387.55,-158.44 396.43,-142.53"/>
<polygon fill="#444444" stroke="#444444" points="399.41,-144.36 401.53,-133.98 393.4,-140.78 399.41,-144.36"/>
<text xml:space="preserve" text-anchor="middle" x="405.38" y="-279" font-family="Helvetica,sans-Serif" font-size="10.00">last window</text>
</g>
<!-- DUMMY_WAIT -->
<g id="node7" class="node">
<title>DUMMY_WAIT</title>
<path fill="#f4cccc" stroke="#555555" d="M79,-300.5C79,-300.5 12,-300.5 12,-300.5 6,-300.5 0,-294.5 0,-288.5 0,-288.5 0,-276.5 0,-276.5 0,-270.5 6,-264.5 12,-264.5 12,-264.5 79,-264.5 79,-264.5 85,-264.5 91,-270.5 91,-276.5 91,-276.5 91,-288.5 91,-288.5 91,-294.5 85,-300.5 79,-300.5"/>
<text xml:space="preserve" text-anchor="middle" x="45.5" y="-278.8" font-family="Helvetica,sans-Serif" font-size="11.00">DUMMY_WAIT</text>
</g>
<!-- DUMMY_REQ&#45;&gt;DUMMY_WAIT -->
<g id="edge10" class="edge">
<title>DUMMY_REQ&#45;&gt;DUMMY_WAIT</title>
<path fill="none" stroke="#444444" d="M102.02,-358.3C84.72,-353.3 66.22,-344.83 54.25,-330.5 49.89,-325.28 47.42,-318.58 46.08,-311.88"/>
<polygon fill="#444444" stroke="#444444" points="49.61,-311.9 44.95,-302.39 42.66,-312.73 49.61,-311.9"/>
<text xml:space="preserve" text-anchor="middle" x="83.88" y="-321" font-family="Helvetica,sans-Serif" font-size="10.00">external fetch</text>
</g>
<!-- DUMMY_STEP -->
<g id="node8" class="node">
<title>DUMMY_STEP</title>
<path fill="#f4cccc" stroke="#555555" d="M235,-216.5C235,-216.5 132,-216.5 132,-216.5 126,-216.5 120,-210.5 120,-204.5 120,-204.5 120,-192.5 120,-192.5 120,-186.5 126,-180.5 132,-180.5 132,-180.5 235,-180.5 235,-180.5 241,-180.5 247,-186.5 247,-192.5 247,-192.5 247,-204.5 247,-204.5 247,-210.5 241,-216.5 235,-216.5"/>
<text xml:space="preserve" text-anchor="middle" x="183.5" y="-201.55" font-family="Helvetica,sans-Serif" font-size="11.00">DUMMY_STEP</text>
<text xml:space="preserve" text-anchor="middle" x="183.5" y="-188.05" font-family="Helvetica,sans-Serif" font-size="11.00">next&#45;window beta seed</text>
</g>
<!-- DUMMY_REQ&#45;&gt;DUMMY_STEP -->
<g id="edge11" class="edge">
<title>DUMMY_REQ&#45;&gt;DUMMY_STEP</title>
<path fill="none" stroke="#444444" d="M142.33,-348.3C138.14,-327.86 133.4,-292.97 141.75,-264.5 145.78,-250.76 153.71,-237.18 161.58,-226.02"/>
<polygon fill="#444444" stroke="#444444" points="164.32,-228.2 167.48,-218.09 158.7,-224.02 164.32,-228.2"/>
<text xml:space="preserve" text-anchor="middle" x="179.62" y="-279" font-family="Helvetica,sans-Serif" font-size="10.00">legacy RAM read</text>
</g>
<!-- DUMMY_WAIT&#45;&gt;DUMMY_STEP -->
<g id="edge12" class="edge">
<title>DUMMY_WAIT&#45;&gt;DUMMY_STEP</title>
<path fill="none" stroke="#444444" d="M41.57,-264.09C40.42,-254.37 40.92,-242.62 47.5,-234.5 55.83,-224.22 81.54,-216.36 108.4,-210.72"/>
<polygon fill="#444444" stroke="#444444" points="108.92,-214.19 118.05,-208.81 107.56,-207.32 108.92,-214.19"/>
<text xml:space="preserve" text-anchor="middle" x="80.5" y="-237" font-family="Helvetica,sans-Serif" font-size="10.00">fetch_rsp_valid</text>
</g>
<!-- DUMMY_STEP&#45;&gt;DUMMY_REQ -->
<g id="edge13" class="edge">
<title>DUMMY_STEP&#45;&gt;DUMMY_REQ</title>
<path fill="none" stroke="#444444" d="M196.98,-216.65C211.25,-237.03 230.1,-271.88 217.5,-300.5 210.39,-316.66 197.06,-330.54 183.85,-341.29"/>
<polygon fill="#444444" stroke="#444444" points="181.82,-338.43 176.01,-347.29 186.08,-343.99 181.82,-338.43"/>
<text xml:space="preserve" text-anchor="middle" x="273.39" y="-279" font-family="Helvetica,sans-Serif" font-size="10.00">more next&#45;window pairs</text>
</g>
<!-- DUMMY_STEP&#45;&gt;LOCAL_BWD -->
<g id="edge14" class="edge">
<title>DUMMY_STEP&#45;&gt;LOCAL_BWD</title>
<path fill="none" stroke="#444444" d="M223.21,-180.02C244.56,-170.84 271.42,-159.63 295.75,-150.5 318.69,-141.89 344.35,-133.18 366.33,-126.01"/>
<polygon fill="#444444" stroke="#444444" points="367.25,-129.39 375.69,-122.97 365.09,-122.73 367.25,-129.39"/>
<text xml:space="preserve" text-anchor="middle" x="330.62" y="-153" font-family="Helvetica,sans-Serif" font-size="10.00">beta seed ready</text>
</g>
<!-- LOCAL_BWD&#45;&gt;FWD_REQ -->
<g id="edge16" class="edge">
<title>LOCAL_BWD&#45;&gt;FWD_REQ</title>
<path fill="none" stroke="#444444" d="M436.7,-132.68C447.54,-149.76 459.5,-173.95 459.5,-197.5 459.5,-548 459.5,-548 459.5,-548 459.5,-595.16 401.5,-615.39 357.87,-623.94"/>
<polygon fill="#444444" stroke="#444444" points="357.29,-620.49 348.06,-625.7 358.52,-627.38 357.29,-620.49"/>
<text xml:space="preserve" text-anchor="middle" x="543.88" y="-363" font-family="Helvetica,sans-Serif" font-size="10.00">window done, advance to next window</text>
</g>
<!-- LOCAL_BWD&#45;&gt;LOCAL_BWD -->
<g id="edge15" class="edge">
<title>LOCAL_BWD&#45;&gt;LOCAL_BWD</title>
<path fill="none" stroke="#444444" d="M461.92,-117.14C472.09,-116.44 479.62,-113.48 479.62,-108.25 479.62,-105.23 477.11,-102.96 473.02,-101.45"/>
<polygon fill="#444444" stroke="#444444" points="473.88,-98.05 463.41,-99.64 472.59,-104.93 473.88,-98.05"/>
<text xml:space="preserve" text-anchor="middle" x="510.38" y="-104.75" font-family="Helvetica,sans-Serif" font-size="10.00">next older pair</text>
</g>
<!-- FINISH -->
<g id="node10" class="node">
<title>FINISH</title>
<path fill="#ead1dc" stroke="#555555" d="M573.5,-36C573.5,-36 543.5,-36 543.5,-36 537.5,-36 531.5,-30 531.5,-24 531.5,-24 531.5,-12 531.5,-12 531.5,-6 537.5,0 543.5,0 543.5,0 573.5,0 573.5,0 579.5,0 585.5,-6 585.5,-12 585.5,-12 585.5,-24 585.5,-24 585.5,-30 579.5,-36 573.5,-36"/>
<text xml:space="preserve" text-anchor="middle" x="558.5" y="-14.3" font-family="Helvetica,sans-Serif" font-size="11.00">FINISH</text>
</g>
<!-- LOCAL_BWD&#45;&gt;FINISH -->
<g id="edge17" class="edge">
<title>LOCAL_BWD&#45;&gt;FINISH</title>
<path fill="none" stroke="#444444" d="M456.75,-83.6C476.84,-70.85 501.54,-55.16 521.58,-42.44"/>
<polygon fill="#444444" stroke="#444444" points="523.45,-45.4 530.01,-37.09 519.7,-39.49 523.45,-45.4"/>
<text xml:space="preserve" text-anchor="middle" x="533.7" y="-56.5" font-family="Helvetica,sans-Serif" font-size="10.00">last output pair</text>
</g>
<!-- FINISH&#45;&gt;IDLE -->
<g id="edge18" class="edge">
<title>FINISH&#45;&gt;IDLE</title>
<path fill="none" stroke="#444444" d="M585.8,-29.72C614.8,-43.11 656.5,-69.01 656.5,-107.25 656.5,-716 656.5,-716 656.5,-716 656.5,-782.16 558.9,-795.66 502.88,-797.96"/>
<polygon fill="#444444" stroke="#444444" points="503.01,-794.46 493.11,-798.25 503.21,-801.45 503.01,-794.46"/>
</g>
</g>
</svg>
