<?xml version="1.0" encoding="UTF-8" standalone="no"?>
<!DOCTYPE svg PUBLIC "-//W3C//DTD SVG 1.1//EN"
 "http://www.w3.org/Graphics/SVG/1.1/DTD/svg11.dtd">
<!-- Generated by graphviz version 14.1.2 (0)
 -->
<!-- Title: G Pages: 1 -->
<svg width="646pt" height="1103pt"
 viewBox="0.00 0.00 646.00 1103.00" xmlns="http://www.w3.org/2000/svg" xmlns:xlink="http://www.w3.org/1999/xlink">
<g id="graph0" class="graph" transform="scale(1 1) rotate(0) translate(4 1098.75)">
<title>G</title>
<polygon fill="white" stroke="none" points="-4,4 -4,-1098.75 641.92,-1098.75 641.92,4 -4,4"/>
<text xml:space="preserve" text-anchor="middle" x="318.96" y="-1071.75" font-family="Helvetica,sans-Serif" font-size="20.00">siso_maxlogmap &#45; Updated Rolling&#45;Window Architecture</text>
<!-- seg -->
<g id="node1" class="node">
<title>seg</title>
<path fill="#f8f6ef" stroke="#555555" d="M190.04,-955.5C190.04,-955.5 315.54,-955.5 315.54,-955.5 321.54,-955.5 327.54,-961.5 327.54,-967.5 327.54,-967.5 327.54,-1008 327.54,-1008 327.54,-1014 321.54,-1020 315.54,-1020 315.54,-1020 190.04,-1020 190.04,-1020 184.04,-1020 178.04,-1014 178.04,-1008 178.04,-1008 178.04,-967.5 178.04,-967.5 178.04,-961.5 184.04,-955.5 190.04,-955.5"/>
<text xml:space="preserve" text-anchor="middle" x="252.79" y="-1005.55" font-family="Helvetica,sans-Serif" font-size="11.00">Segment Setup</text>
<polyline fill="none" stroke="#555555" points="178.04,-998.5 327.54,-998.5"/>
<text xml:space="preserve" text-anchor="middle" x="252.79" y="-984.05" font-family="Helvetica,sans-Serif" font-size="11.00">seg_len to pair_cnt, win_cnt</text>
<polyline fill="none" stroke="#555555" points="178.04,-977 327.54,-977"/>
<text xml:space="preserve" text-anchor="middle" x="252.79" y="-962.55" font-family="Helvetica,sans-Serif" font-size="11.00">start_seed_v / end_seed_v</text>
</g>
<!-- load -->
<g id="node2" class="node">
<title>load</title>
<path fill="#e8f0fe" stroke="#555555" d="M296.92,-799C296.92,-799 436.67,-799 436.67,-799 442.67,-799 448.67,-805 448.67,-811 448.67,-811 448.67,-851.5 448.67,-851.5 448.67,-857.5 442.67,-863.5 436.67,-863.5 436.67,-863.5 296.92,-863.5 296.92,-863.5 290.92,-863.5 284.92,-857.5 284.92,-851.5 284.92,-851.5 284.92,-811 284.92,-811 284.92,-805 290.92,-799 296.92,-799"/>
<text xml:space="preserve" text-anchor="middle" x="366.79" y="-849.05" font-family="Helvetica,sans-Serif" font-size="11.00">Legacy Load Mode</text>
<polyline fill="none" stroke="#555555" points="284.92,-842 448.67,-842"/>
<text xml:space="preserve" text-anchor="middle" x="366.79" y="-827.55" font-family="Helvetica,sans-Serif" font-size="11.00">LOAD state</text>
<polyline fill="none" stroke="#555555" points="284.92,-820.5 448.67,-820.5"/>
<text xml:space="preserve" text-anchor="middle" x="366.79" y="-806.05" font-family="Helvetica,sans-Serif" font-size="11.00">six optional segment memories</text>
</g>
<!-- seg&#45;&gt;load -->
<g id="edge1" class="edge">
<title>seg&#45;&gt;load</title>
<path fill="none" stroke="#444444" d="M276.14,-955.11C293.66,-931.37 317.79,-898.66 336.75,-872.97"/>
<polygon fill="#444444" stroke="#444444" points="339.46,-875.19 342.58,-865.06 333.83,-871.03 339.46,-875.19"/>
<text xml:space="preserve" text-anchor="middle" x="357.67" y="-884.5" font-family="Helvetica,sans-Serif" font-size="10.00">legacy mode</text>
</g>
<!-- fetch -->
<g id="node3" class="node">
<title>fetch</title>
<path fill="#fff2cc" stroke="#555555" d="M293.92,-664C293.92,-664 439.67,-664 439.67,-664 445.67,-664 451.67,-670 451.67,-676 451.67,-676 451.67,-738 451.67,-738 451.67,-744 445.67,-750 439.67,-750 439.67,-750 293.92,-750 293.92,-750 287.92,-750 281.92,-744 281.92,-738 281.92,-738 281.92,-676 281.92,-676 281.92,-670 287.92,-664 293.92,-664"/>
<text xml:space="preserve" text-anchor="middle" x="366.79" y="-735.55" font-family="Helvetica,sans-Serif" font-size="11.00">Pair Fetch Front&#45;End</text>
<polyline fill="none" stroke="#555555" points="281.92,-728.5 451.67,-728.5"/>
<text xml:space="preserve" text-anchor="middle" x="366.79" y="-714.05" font-family="Helvetica,sans-Serif" font-size="11.00">FWD_REQ/FWD_WAIT</text>
<polyline fill="none" stroke="#555555" points="281.92,-707 451.67,-707"/>
<text xml:space="preserve" text-anchor="middle" x="366.79" y="-692.55" font-family="Helvetica,sans-Serif" font-size="11.00">DUMMY_REQ/DUMMY_WAIT</text>
<polyline fill="none" stroke="#555555" points="281.92,-685.5 451.67,-685.5"/>
<text xml:space="preserve" text-anchor="middle" x="366.79" y="-671.05" font-family="Helvetica,sans-Serif" font-size="11.00">fetch_req_valid / fetch_rsp_valid</text>
</g>
<!-- seg&#45;&gt;fetch -->
<g id="edge2" class="edge">
<title>seg&#45;&gt;fetch</title>
<path fill="none" stroke="#444444" d="M233.73,-955.01C212.88,-915.81 185.99,-848.22 214.29,-798.5 227.42,-775.44 249,-757.65 271.84,-744.2"/>
<polygon fill="#444444" stroke="#444444" points="273.35,-747.36 280.37,-739.43 269.93,-741.25 273.35,-747.36"/>
<text xml:space="preserve" text-anchor="middle" x="245.04" y="-827.75" font-family="Helvetica,sans-Serif" font-size="10.00">external mode</text>
</g>
<!-- load&#45;&gt;fetch -->
<g id="edge3" class="edge">
<title>load&#45;&gt;fetch</title>
<path fill="none" stroke="#444444" stroke-dasharray="5,2" d="M366.79,-798.77C366.79,-787.5 366.79,-774.46 366.79,-761.84"/>
<polygon fill="#444444" stroke="#444444" points="370.29,-761.95 366.79,-751.95 363.29,-761.95 370.29,-761.95"/>
<text xml:space="preserve" text-anchor="middle" x="385.54" y="-771" font-family="Helvetica,sans-Serif" font-size="10.00">pair read</text>
</g>
<!-- latch -->
<g id="node4" class="node">
<title>latch</title>
<path fill="#f8f6ef" stroke="#555555" d="M316.42,-583C316.42,-583 417.17,-583 417.17,-583 423.17,-583 429.17,-589 429.17,-595 429.17,-595 429.17,-614 429.17,-614 429.17,-620 423.17,-626 417.17,-626 417.17,-626 316.42,-626 316.42,-626 310.42,-626 304.42,-620 304.42,-614 304.42,-614 304.42,-595 304.42,-595 304.42,-589 310.42,-583 316.42,-583"/>
<text xml:space="preserve" text-anchor="middle" x="366.79" y="-611.55" font-family="Helvetica,sans-Serif" font-size="11.00">Fetched Pair Latch</text>
<polyline fill="none" stroke="#555555" points="304.42,-604.5 429.17,-604.5"/>
<text xml:space="preserve" text-anchor="middle" x="366.79" y="-590.05" font-family="Helvetica,sans-Serif" font-size="11.00">fetched_sys/par/apri_q</text>
</g>
<!-- fetch&#45;&gt;latch -->
<g id="edge4" class="edge">
<title>fetch&#45;&gt;latch</title>
<path fill="none" stroke="#444444" d="M366.79,-663.67C366.79,-655.02 366.79,-646.05 366.79,-637.82"/>
<polygon fill="#444444" stroke="#444444" points="370.29,-637.92 366.79,-627.92 363.29,-637.92 370.29,-637.92"/>
</g>
<!-- fwd -->
<g id="node5" class="node">
<title>fwd</title>
<path fill="#d9ead3" stroke="#555555" d="M301.79,-459C301.79,-459 431.79,-459 431.79,-459 437.79,-459 443.79,-465 443.79,-471 443.79,-471 443.79,-533 443.79,-533 443.79,-539 437.79,-545 431.79,-545 431.79,-545 301.79,-545 301.79,-545 295.79,-545 289.79,-539 289.79,-533 289.79,-533 289.79,-471 289.79,-471 289.79,-465 295.79,-459 301.79,-459"/>
<text xml:space="preserve" text-anchor="middle" x="366.79" y="-530.55" font-family="Helvetica,sans-Serif" font-size="11.00">Forward Step</text>
<polyline fill="none" stroke="#555555" points="289.79,-523.5 443.79,-523.5"/>
<text xml:space="preserve" text-anchor="middle" x="366.79" y="-509.05" font-family="Helvetica,sans-Serif" font-size="11.00">branch_metrics x2</text>
<polyline fill="none" stroke="#555555" points="289.79,-502 443.79,-502"/>
<text xml:space="preserve" text-anchor="middle" x="366.79" y="-487.55" font-family="Helvetica,sans-Serif" font-size="11.00">pair_gamma_from_branches</text>
<polyline fill="none" stroke="#555555" points="289.79,-480.5 443.79,-480.5"/>
<text xml:space="preserve" text-anchor="middle" x="366.79" y="-466.05" font-family="Helvetica,sans-Serif" font-size="11.00">forward acs_step</text>
</g>
<!-- latch&#45;&gt;fwd -->
<g id="edge5" class="edge">
<title>latch&#45;&gt;fwd</title>
<path fill="none" stroke="#444444" d="M366.79,-582.68C366.79,-574.99 366.79,-565.89 366.79,-556.63"/>
<polygon fill="#444444" stroke="#444444" points="370.29,-556.87 366.79,-546.87 363.29,-556.87 370.29,-556.87"/>
</g>
<!-- local -->
<g id="node6" class="node">
<title>local</title>
<path fill="#d9ead3" stroke="#555555" d="M168.29,-281C168.29,-281 265.29,-281 265.29,-281 271.29,-281 277.29,-287 277.29,-293 277.29,-293 277.29,-398 277.29,-398 277.29,-404 271.29,-410 265.29,-410 265.29,-410 168.29,-410 168.29,-410 162.29,-410 156.29,-404 156.29,-398 156.29,-398 156.29,-293 156.29,-293 156.29,-287 162.29,-281 168.29,-281"/>
<text xml:space="preserve" text-anchor="middle" x="216.79" y="-395.55" font-family="Helvetica,sans-Serif" font-size="11.00">Local Window Buffers</text>
<polyline fill="none" stroke="#555555" points="156.29,-388.5 277.29,-388.5"/>
<text xml:space="preserve" text-anchor="middle" x="216.79" y="-374.05" font-family="Helvetica,sans-Serif" font-size="11.00">alpha_local</text>
<polyline fill="none" stroke="#555555" points="156.29,-367 277.29,-367"/>
<text xml:space="preserve" text-anchor="middle" x="216.79" y="-352.55" font-family="Helvetica,sans-Serif" font-size="11.00">g0_local</text>
<polyline fill="none" stroke="#555555" points="156.29,-345.5 277.29,-345.5"/>
<text xml:space="preserve" text-anchor="middle" x="216.79" y="-331.05" font-family="Helvetica,sans-Serif" font-size="11.00">g1_local</text>
<polyline fill="none" stroke="#555555" points="156.29,-324 277.29,-324"/>
<text xml:space="preserve" text-anchor="middle" x="216.79" y="-309.55" font-family="Helvetica,sans-Serif" font-size="11.00">gamma_local</text>
<polyline fill="none" stroke="#555555" points="156.29,-302.5 277.29,-302.5"/>
<text xml:space="preserve" text-anchor="middle" x="216.79" y="-288.05" font-family="Helvetica,sans-Serif" font-size="11.00">sys/apri_local</text>
</g>
<!-- fwd&#45;&gt;local -->
<g id="edge6" class="edge">
<title>fwd&#45;&gt;local</title>
<path fill="none" stroke="#444444" d="M289.36,-487.29C239.96,-476.78 182.51,-460.68 167.54,-440.5 163.11,-434.53 161.31,-428.1 161.4,-421.51"/>
<polygon fill="#444444" stroke="#444444" points="164.83,-422.25 162.99,-411.82 157.92,-421.12 164.83,-422.25"/>
<text xml:space="preserve" text-anchor="middle" x="207.67" y="-431" font-family="Helvetica,sans-Serif" font-size="10.00">store local context</text>
</g>
<!-- carry -->
<g id="node7" class="node">
<title>carry</title>
<path fill="#f8f6ef" stroke="#555555" d="M307.04,-324C307.04,-324 402.54,-324 402.54,-324 408.54,-324 414.54,-330 414.54,-336 414.54,-336 414.54,-355 414.54,-355 414.54,-361 408.54,-367 402.54,-367 402.54,-367 307.04,-367 307.04,-367 301.04,-367 295.04,-361 295.04,-355 295.04,-355 295.04,-336 295.04,-336 295.04,-330 301.04,-324 307.04,-324"/>
<text xml:space="preserve" text-anchor="middle" x="354.79" y="-352.55" font-family="Helvetica,sans-Serif" font-size="11.00">Rolling Alpha Carry</text>
<polyline fill="none" stroke="#555555" points="295.04,-345.5 414.54,-345.5"/>
<text xml:space="preserve" text-anchor="middle" x="354.79" y="-331.05" font-family="Helvetica,sans-Serif" font-size="11.00">next_alpha_seed_reg</text>
</g>
<!-- fwd&#45;&gt;carry -->
<g id="edge7" class="edge">
<title>fwd&#45;&gt;carry</title>
<path fill="none" stroke="#444444" d="M363.51,-458.78C361.55,-433.52 359.1,-401.92 357.29,-378.69"/>
<polygon fill="#444444" stroke="#444444" points="360.8,-378.58 356.53,-368.89 353.82,-379.13 360.8,-378.58"/>
<text xml:space="preserve" text-anchor="middle" x="382.87" y="-431" font-family="Helvetica,sans-Serif" font-size="10.00">end&#45;alpha</text>
</g>
<!-- dummy -->
<g id="node8" class="node">
<title>dummy</title>
<path fill="#f4cccc" stroke="#555555" d="M444.79,-313.25C444.79,-313.25 550.79,-313.25 550.79,-313.25 556.79,-313.25 562.79,-319.25 562.79,-325.25 562.79,-325.25 562.79,-365.75 562.79,-365.75 562.79,-371.75 556.79,-377.75 550.79,-377.75 550.79,-377.75 444.79,-377.75 444.79,-377.75 438.79,-377.75 432.79,-371.75 432.79,-365.75 432.79,-365.75 432.79,-325.25 432.79,-325.25 432.79,-319.25 438.79,-313.25 444.79,-313.25"/>
<text xml:space="preserve" text-anchor="middle" x="497.79" y="-363.3" font-family="Helvetica,sans-Serif" font-size="11.00">Dummy Backward Step</text>
<polyline fill="none" stroke="#555555" points="432.79,-356.25 562.79,-356.25"/>
<text xml:space="preserve" text-anchor="middle" x="497.79" y="-341.8" font-family="Helvetica,sans-Serif" font-size="11.00">next&#45;window fetch</text>
<polyline fill="none" stroke="#555555" points="432.79,-334.75 562.79,-334.75"/>
<text xml:space="preserve" text-anchor="middle" x="497.79" y="-320.3" font-family="Helvetica,sans-Serif" font-size="11.00">backward acs_step</text>
</g>
<!-- fwd&#45;&gt;dummy -->
<g id="edge9" class="edge">
<title>fwd&#45;&gt;dummy</title>
<path fill="none" stroke="#444444" d="M402.59,-458.78C421.72,-436.22 445.13,-408.61 463.95,-386.41"/>
<polygon fill="#444444" stroke="#444444" points="466.41,-388.93 470.21,-379.04 461.07,-384.4 466.41,-388.93"/>
<text xml:space="preserve" text-anchor="middle" x="470.58" y="-431" font-family="Helvetica,sans-Serif" font-size="10.00">if next window exists</text>
</g>
<!-- llr -->
<g id="node9" class="node">
<title>llr</title>
<path fill="#fce5cd" stroke="#555555" d="M235.54,-146C235.54,-146 388.04,-146 388.04,-146 394.04,-146 400.04,-152 400.04,-158 400.04,-158 400.04,-220 400.04,-220 400.04,-226 394.04,-232 388.04,-232 388.04,-232 235.54,-232 235.54,-232 229.54,-232 223.54,-226 223.54,-220 223.54,-220 223.54,-158 223.54,-158 223.54,-152 229.54,-146 235.54,-146"/>
<text xml:space="preserve" text-anchor="middle" x="311.79" y="-217.55" font-family="Helvetica,sans-Serif" font-size="11.00">Local Backward + LLR Extraction</text>
<polyline fill="none" stroke="#555555" points="223.54,-210.5 400.04,-210.5"/>
<text xml:space="preserve" text-anchor="middle" x="311.79" y="-196.05" font-family="Helvetica,sans-Serif" font-size="11.00">extract_pair_precomp</text>
<polyline fill="none" stroke="#555555" points="223.54,-189 400.04,-189"/>
<text xml:space="preserve" text-anchor="middle" x="311.79" y="-174.55" font-family="Helvetica,sans-Serif" font-size="11.00">beta update</text>
<polyline fill="none" stroke="#555555" points="223.54,-167.5 400.04,-167.5"/>
<text xml:space="preserve" text-anchor="middle" x="311.79" y="-153.05" font-family="Helvetica,sans-Serif" font-size="11.00">out_valid/post/ext</text>
</g>
<!-- fwd&#45;&gt;llr -->
<g id="edge11" class="edge">
<title>fwd&#45;&gt;llr</title>
<path fill="none" stroke="#444444" stroke-dasharray="5,2" d="M289.59,-491.41C199.27,-478.43 57.95,-451.98 26.04,-410.5 -9.18,-364.7 -8.09,-327.12 26.04,-280.5 68.31,-222.77 147.61,-200.95 211.96,-193.11"/>
<polygon fill="#444444" stroke="#444444" points="212.32,-196.6 221.87,-192.02 211.55,-189.64 212.32,-196.6"/>
<text xml:space="preserve" text-anchor="middle" x="86.42" y="-342" font-family="Helvetica,sans-Serif" font-size="10.00">last window uses end_seed</text>
</g>
<!-- local&#45;&gt;llr -->
<g id="edge12" class="edge">
<title>local&#45;&gt;llr</title>
<path fill="none" stroke="#444444" d="M255.98,-280.77C263.89,-267.91 272.11,-254.54 279.73,-242.14"/>
<polygon fill="#444444" stroke="#444444" points="282.66,-244.07 284.91,-233.72 276.69,-240.4 282.66,-244.07"/>
<text xml:space="preserve" text-anchor="middle" x="334.3" y="-253" font-family="Helvetica,sans-Serif" font-size="10.00">alpha/g0/g1/gamma/sys/apri</text>
</g>
<!-- carry&#45;&gt;fwd -->
<g id="edge8" class="edge">
<title>carry&#45;&gt;fwd</title>
<path fill="none" stroke="#444444" stroke-dasharray="5,2" d="M335.43,-367.23C322.42,-380.51 304.47,-397.6 286.79,-410.5 270.91,-422.09 244.21,-423.63 254.29,-440.5 260.76,-451.32 269.9,-460.32 280.21,-467.77"/>
<polygon fill="#444444" stroke="#444444" points="278,-470.51 288.27,-473.1 281.86,-464.66 278,-470.51"/>
<text xml:space="preserve" text-anchor="middle" x="306.04" y="-431" font-family="Helvetica,sans-Serif" font-size="10.00">next window alpha start</text>
</g>
<!-- dummy&#45;&gt;llr -->
<g id="edge10" class="edge">
<title>dummy&#45;&gt;llr</title>
<path fill="none" stroke="#444444" d="M467.64,-313.1C448.84,-294.16 423.74,-270 399.79,-250.5 395.12,-246.7 390.22,-242.88 385.21,-239.12"/>
<polygon fill="#444444" stroke="#444444" points="387.48,-236.44 377.35,-233.33 383.33,-242.08 387.48,-236.44"/>
<text xml:space="preserve" text-anchor="middle" x="476.91" y="-253" font-family="Helvetica,sans-Serif" font-size="10.00">beta seed for current window</text>
</g>
<!-- out -->
<g id="node10" class="node">
<title>out</title>
<path fill="#ead1dc" stroke="#555555" d="M267.42,-0.5C267.42,-0.5 356.17,-0.5 356.17,-0.5 362.17,-0.5 368.17,-6.5 368.17,-12.5 368.17,-12.5 368.17,-96 368.17,-96 368.17,-102 362.17,-108 356.17,-108 356.17,-108 267.42,-108 267.42,-108 261.42,-108 255.42,-102 255.42,-96 255.42,-96 255.42,-12.5 255.42,-12.5 255.42,-6.5 261.42,-0.5 267.42,-0.5"/>
<text xml:space="preserve" text-anchor="middle" x="311.79" y="-93.55" font-family="Helvetica,sans-Serif" font-size="11.00">Outputs</text>
<polyline fill="none" stroke="#555555" points="255.42,-86.5 368.17,-86.5"/>
<text xml:space="preserve" text-anchor="middle" x="311.79" y="-72.05" font-family="Helvetica,sans-Serif" font-size="11.00">out_pair_idx</text>
<polyline fill="none" stroke="#555555" points="255.42,-65 368.17,-65"/>
<text xml:space="preserve" text-anchor="middle" x="311.79" y="-50.55" font-family="Helvetica,sans-Serif" font-size="11.00">ext_even/ext_odd</text>
<polyline fill="none" stroke="#555555" points="255.42,-43.5 368.17,-43.5"/>
<text xml:space="preserve" text-anchor="middle" x="311.79" y="-29.05" font-family="Helvetica,sans-Serif" font-size="11.00">post_even/post_odd</text>
<polyline fill="none" stroke="#555555" points="255.42,-22 368.17,-22"/>
<text xml:space="preserve" text-anchor="middle" x="311.79" y="-7.55" font-family="Helvetica,sans-Serif" font-size="11.00">done</text>
</g>
<!-- llr&#45;&gt;out -->
<g id="edge13" class="edge">
<title>llr&#45;&gt;out</title>
<path fill="none" stroke="#444444" d="M311.79,-145.63C311.79,-137.4 311.79,-128.6 311.79,-119.84"/>
<polygon fill="#444444" stroke="#444444" points="315.29,-119.92 311.79,-109.92 308.29,-119.92 315.29,-119.92"/>
</g>
<!-- fsm -->
<g id="node11" class="node">
<title>fsm</title>
<path fill="#d0e0e3" stroke="#555555" d="M403.67,-912.5C403.67,-912.5 625.92,-912.5 625.92,-912.5 631.92,-912.5 637.92,-918.5 637.92,-924.5 637.92,-924.5 637.92,-1051 637.92,-1051 637.92,-1057 631.92,-1063 625.92,-1063 625.92,-1063 403.67,-1063 403.67,-1063 397.67,-1063 391.67,-1057 391.67,-1051 391.67,-1051 391.67,-924.5 391.67,-924.5 391.67,-918.5 397.67,-912.5 403.67,-912.5"/>
<text xml:space="preserve" text-anchor="middle" x="514.79" y="-1048.55" font-family="Helvetica,sans-Serif" font-size="11.00">FSM</text>
<polyline fill="none" stroke="#555555" points="391.67,-1041.5 637.92,-1041.5"/>
<text xml:space="preserve" text-anchor="middle" x="514.79" y="-1027.05" font-family="Helvetica,sans-Serif" font-size="11.00">IDLE</text>
<polyline fill="none" stroke="#555555" points="391.67,-1020 637.92,-1020"/>
<text xml:space="preserve" text-anchor="middle" x="514.79" y="-1005.55" font-family="Helvetica,sans-Serif" font-size="11.00">LOAD</text>
<polyline fill="none" stroke="#555555" points="391.67,-998.5 637.92,-998.5"/>
<text xml:space="preserve" text-anchor="middle" x="514.79" y="-984.05" font-family="Helvetica,sans-Serif" font-size="11.00">FWD_REQ/FWD_WAIT/FWD_STEP</text>
<polyline fill="none" stroke="#555555" points="391.67,-977 637.92,-977"/>
<text xml:space="preserve" text-anchor="middle" x="514.79" y="-962.55" font-family="Helvetica,sans-Serif" font-size="11.00">DUMMY_REQ/DUMMY_WAIT/DUMMY_STEP</text>
<polyline fill="none" stroke="#555555" points="391.67,-955.5 637.92,-955.5"/>
<text xml:space="preserve" text-anchor="middle" x="514.79" y="-941.05" font-family="Helvetica,sans-Serif" font-size="11.00">LOCAL_BWD</text>
<polyline fill="none" stroke="#555555" points="391.67,-934 637.92,-934"/>
<text xml:space="preserve" text-anchor="middle" x="514.79" y="-919.55" font-family="Helvetica,sans-Serif" font-size="11.00">FINISH</text>
</g>
<!-- fsm&#45;&gt;load -->
<g id="edge14" class="edge">
<title>fsm&#45;&gt;load</title>
<path fill="none" stroke="#444444" stroke-dasharray="1,5" d="M443.39,-912.22C426.98,-895.08 410.4,-877.78 396.89,-863.66"/>
</g>
<!-- fsm&#45;&gt;fetch -->
<g id="edge15" class="edge">
<title>fsm&#45;&gt;fetch</title>
<path fill="none" stroke="#444444" stroke-dasharray="1,5" d="M501.16,-912.18C492.4,-876.09 478.64,-833.18 457.79,-798.5 447.24,-780.93 432.51,-764.3 417.98,-750.2"/>
</g>
<!-- fsm&#45;&gt;fwd -->
<g id="edge16" class="edge">
<title>fsm&#45;&gt;fwd</title>
<path fill="none" stroke="#444444" stroke-dasharray="1,5" d="M514.79,-912.1C514.79,-886.75 514.79,-858.27 514.79,-832.25 514.79,-832.25 514.79,-832.25 514.79,-603.5 514.79,-564.99 480.07,-540.2 444.26,-524.89"/>
</g>
<!-- fsm&#45;&gt;dummy -->
<g id="edge17" class="edge">
<title>fsm&#45;&gt;dummy</title>
<path fill="none" stroke="#444444" stroke-dasharray="1,5" d="M540.77,-912.21C547.45,-887.12 552.79,-858.77 552.79,-832.25 552.79,-832.25 552.79,-832.25 552.79,-501 552.79,-456.44 532.24,-408.62 516.26,-378.18"/>
</g>
<!-- fsm&#45;&gt;llr -->
<g id="edge18" class="edge">
<title>fsm&#45;&gt;llr</title>
<path fill="none" stroke="#444444" stroke-dasharray="1,5" d="M568.2,-912.02C580.87,-887.74 590.79,-859.9 590.79,-832.25 590.79,-832.25 590.79,-832.25 590.79,-344.5 590.79,-297.79 583.92,-274.41 543.79,-250.5 500.26,-224.55 445.66,-209.6 400.37,-201.06"/>
</g>
</g>
</svg>
