<?xml version="1.0" encoding="UTF-8" standalone="no"?>
<!DOCTYPE svg PUBLIC "-//W3C//DTD SVG 1.1//EN"
 "http://www.w3.org/Graphics/SVG/1.1/DTD/svg11.dtd">
<!-- Generated by graphviz version 14.1.2 (0)
 -->
<!-- Title: G Pages: 1 -->
<svg width="2193pt" height="295pt"
 viewBox="0.00 0.00 2193.00 295.00" xmlns="http://www.w3.org/2000/svg" xmlns:xlink="http://www.w3.org/1999/xlink">
<g id="graph0" class="graph" transform="scale(1 1) rotate(0) translate(4 291.25)">
<title>G</title>
<polygon fill="white" stroke="none" points="-4,4 -4,-291.25 2189,-291.25 2189,4 -4,4"/>
<text xml:space="preserve" text-anchor="middle" x="1092.5" y="-264.25" font-family="Helvetica,sans-Serif" font-size="20.00">siso_maxlogmap &#45; Updated Control / FSM</text>
<!-- IDLE -->
<g id="node1" class="node">
<title>IDLE</title>
<path fill="#d0e0e3" stroke="#555555" d="M42,-66C42,-66 12,-66 12,-66 6,-66 0,-60 0,-54 0,-54 0,-42 0,-42 0,-36 6,-30 12,-30 12,-30 42,-30 42,-30 48,-30 54,-36 54,-42 54,-42 54,-54 54,-54 54,-60 48,-66 42,-66"/>
<text xml:space="preserve" text-anchor="middle" x="27" y="-44.3" font-family="Helvetica,sans-Serif" font-size="11.00">IDLE</text>
</g>
<!-- LOAD -->
<g id="node2" class="node">
<title>LOAD</title>
<path fill="#e8f0fe" stroke="#555555" d="M393.12,-114C393.12,-114 283.38,-114 283.38,-114 277.38,-114 271.38,-108 271.38,-102 271.38,-102 271.38,-90 271.38,-90 271.38,-84 277.38,-78 283.38,-78 283.38,-78 393.12,-78 393.12,-78 399.12,-78 405.12,-84 405.12,-90 405.12,-90 405.12,-102 405.12,-102 405.12,-108 399.12,-114 393.12,-114"/>
<text xml:space="preserve" text-anchor="middle" x="338.25" y="-99.05" font-family="Helvetica,sans-Serif" font-size="11.00">LOAD</text>
<text xml:space="preserve" text-anchor="middle" x="338.25" y="-85.55" font-family="Helvetica,sans-Serif" font-size="11.00">(optional legacy preload)</text>
</g>
<!-- IDLE&#45;&gt;LOAD -->
<g id="edge1" class="edge">
<title>IDLE&#45;&gt;LOAD</title>
<path fill="none" stroke="#444444" d="M54.31,-57.22C60.09,-59.01 66.21,-60.72 72,-62 134.4,-75.81 206.38,-84.6 259.6,-89.77"/>
<polygon fill="#444444" stroke="#444444" points="259.21,-93.25 269.5,-90.71 259.87,-86.28 259.21,-93.25"/>
<text xml:space="preserve" text-anchor="middle" x="155.25" y="-89.8" font-family="Helvetica,sans-Serif" font-size="10.00">start &amp; !G_USE_EXTERNAL_FETCH</text>
</g>
<!-- FWD_REQ -->
<g id="node3" class="node">
<title>FWD_REQ</title>
<path fill="#fff2cc" stroke="#555555" d="M581.5,-112C581.5,-112 534,-112 534,-112 528,-112 522,-106 522,-100 522,-100 522,-88 522,-88 522,-82 528,-76 534,-76 534,-76 581.5,-76 581.5,-76 587.5,-76 593.5,-82 593.5,-88 593.5,-88 593.5,-100 593.5,-100 593.5,-106 587.5,-112 581.5,-112"/>
<text xml:space="preserve" text-anchor="middle" x="557.75" y="-90.3" font-family="Helvetica,sans-Serif" font-size="11.00">FWD_REQ</text>
</g>
<!-- IDLE&#45;&gt;FWD_REQ -->
<g id="edge2" class="edge">
<title>IDLE&#45;&gt;FWD_REQ</title>
<path fill="none" stroke="#444444" d="M54.33,-46.43C117.7,-43.12 283.57,-37.27 420,-57 450.78,-61.45 484.51,-70.53 510.77,-78.58"/>
<polygon fill="#444444" stroke="#444444" points="509.51,-81.85 520.1,-81.5 511.6,-75.17 509.51,-81.85"/>
<text xml:space="preserve" text-anchor="middle" x="338.25" y="-59.5" font-family="Helvetica,sans-Serif" font-size="10.00">start &amp; G_USE_EXTERNAL_FETCH</text>
</g>
<!-- LOAD&#45;&gt;FWD_REQ -->
<g id="edge3" class="edge">
<title>LOAD&#45;&gt;FWD_REQ</title>
<path fill="none" stroke="#444444" d="M405.39,-95.39C439.3,-95.08 479.78,-94.71 510.34,-94.43"/>
<polygon fill="#444444" stroke="#444444" points="510.05,-97.93 520.02,-94.34 509.99,-90.93 510.05,-97.93"/>
<text xml:space="preserve" text-anchor="middle" x="471" y="-97.56" font-family="Helvetica,sans-Serif" font-size="10.00">last pair loaded</text>
</g>
<!-- FWD_WAIT -->
<g id="node4" class="node">
<title>FWD_WAIT</title>
<path fill="#fff2cc" stroke="#555555" d="M772.5,-208C772.5,-208 722,-208 722,-208 716,-208 710,-202 710,-196 710,-196 710,-184 710,-184 710,-178 716,-172 722,-172 722,-172 772.5,-172 772.5,-172 778.5,-172 784.5,-178 784.5,-184 784.5,-184 784.5,-196 784.5,-196 784.5,-202 778.5,-208 772.5,-208"/>
<text xml:space="preserve" text-anchor="middle" x="747.25" y="-186.3" font-family="Helvetica,sans-Serif" font-size="11.00">FWD_WAIT</text>
</g>
<!-- FWD_REQ&#45;&gt;FWD_WAIT -->
<g id="edge4" class="edge">
<title>FWD_REQ&#45;&gt;FWD_WAIT</title>
<path fill="none" stroke="#444444" d="M569.89,-112.47C579.29,-126.47 593.98,-145.1 611.5,-156 637.67,-172.28 671.28,-180.78 698.38,-185.21"/>
<polygon fill="#444444" stroke="#444444" points="697.66,-188.64 708.06,-186.65 698.69,-181.72 697.66,-188.64"/>
<text xml:space="preserve" text-anchor="middle" x="641.12" y="-181.2" font-family="Helvetica,sans-Serif" font-size="10.00">external fetch</text>
</g>
<!-- FWD_STEP -->
<g id="node5" class="node">
<title>FWD_STEP</title>
<path fill="#d9ead3" stroke="#555555" d="M1049,-166.25C1049,-166.25 919.75,-166.25 919.75,-166.25 913.75,-166.25 907.75,-160.25 907.75,-154.25 907.75,-154.25 907.75,-129.75 907.75,-129.75 907.75,-123.75 913.75,-117.75 919.75,-117.75 919.75,-117.75 1049,-117.75 1049,-117.75 1055,-117.75 1061,-123.75 1061,-129.75 1061,-129.75 1061,-154.25 1061,-154.25 1061,-160.25 1055,-166.25 1049,-166.25"/>
<text xml:space="preserve" text-anchor="middle" x="984.38" y="-151.8" font-family="Helvetica,sans-Serif" font-size="11.00">FWD_STEP</text>
<text xml:space="preserve" text-anchor="middle" x="984.38" y="-138.3" font-family="Helvetica,sans-Serif" font-size="11.00">compute/store g0 g1 gamma</text>
<text xml:space="preserve" text-anchor="middle" x="984.38" y="-124.8" font-family="Helvetica,sans-Serif" font-size="11.00">advance alpha</text>
</g>
<!-- FWD_REQ&#45;&gt;FWD_STEP -->
<g id="edge5" class="edge">
<title>FWD_REQ&#45;&gt;FWD_STEP</title>
<path fill="none" stroke="#444444" d="M593.75,-104.17C599.64,-105.63 605.72,-106.98 611.5,-108 708.05,-125.1 820.31,-133.86 896.02,-138.17"/>
<polygon fill="#444444" stroke="#444444" points="895.69,-141.66 905.87,-138.71 896.08,-134.67 895.69,-141.66"/>
<text xml:space="preserve" text-anchor="middle" x="747.25" y="-134.09" font-family="Helvetica,sans-Serif" font-size="10.00">legacy RAM read</text>
</g>
<!-- FWD_WAIT&#45;&gt;FWD_STEP -->
<g id="edge6" class="edge">
<title>FWD_WAIT&#45;&gt;FWD_STEP</title>
<path fill="none" stroke="#444444" d="M784.99,-182.5C814.73,-176.43 857.85,-167.63 896.29,-159.78"/>
<polygon fill="#444444" stroke="#444444" points="896.94,-163.22 906.04,-157.79 895.54,-156.36 896.94,-163.22"/>
<text xml:space="preserve" text-anchor="middle" x="856.75" y="-176.97" font-family="Helvetica,sans-Serif" font-size="10.00">fetch_rsp_valid</text>
</g>
<!-- FWD_STEP&#45;&gt;FWD_REQ -->
<g id="edge7" class="edge">
<title>FWD_STEP&#45;&gt;FWD_REQ</title>
<path fill="none" stroke="#444444" d="M907.36,-122.76C876.09,-115.63 839.38,-108.25 805.75,-104 736.18,-95.21 654.79,-93.57 605.01,-93.53"/>
<polygon fill="#444444" stroke="#444444" points="605.18,-90.03 595.19,-93.55 605.19,-97.03 605.18,-90.03"/>
<text xml:space="preserve" text-anchor="middle" x="747.25" y="-106.5" font-family="Helvetica,sans-Serif" font-size="10.00">next pair in current window</text>
</g>
<!-- DUMMY_REQ -->
<g id="node6" class="node">
<title>DUMMY_REQ</title>
<path fill="#f4cccc" stroke="#555555" d="M1360.38,-184C1360.38,-184 1296.38,-184 1296.38,-184 1290.38,-184 1284.38,-178 1284.38,-172 1284.38,-172 1284.38,-160 1284.38,-160 1284.38,-154 1290.38,-148 1296.38,-148 1296.38,-148 1360.38,-148 1360.38,-148 1366.38,-148 1372.38,-154 1372.38,-160 1372.38,-160 1372.38,-172 1372.38,-172 1372.38,-178 1366.38,-184 1360.38,-184"/>
<text xml:space="preserve" text-anchor="middle" x="1328.38" y="-162.3" font-family="Helvetica,sans-Serif" font-size="11.00">DUMMY_REQ</text>
</g>
<!-- FWD_STEP&#45;&gt;DUMMY_REQ -->
<g id="edge8" class="edge">
<title>FWD_STEP&#45;&gt;DUMMY_REQ</title>
<path fill="none" stroke="#444444" d="M1061.28,-147.33C1125.34,-151.82 1215.53,-158.15 1272.71,-162.16"/>
<polygon fill="#444444" stroke="#444444" points="1272.31,-165.64 1282.53,-162.85 1272.8,-158.66 1272.31,-165.64"/>
<text xml:space="preserve" text-anchor="middle" x="1152.5" y="-160.74" font-family="Helvetica,sans-Serif" font-size="10.00">window done, next window exists</text>
</g>
<!-- LOCAL_BWD -->
<g id="node9" class="node">
<title>LOCAL_BWD</title>
<path fill="#fce5cd" stroke="#555555" d="M2018.5,-103.25C2018.5,-103.25 1958.25,-103.25 1958.25,-103.25 1952.25,-103.25 1946.25,-97.25 1946.25,-91.25 1946.25,-91.25 1946.25,-66.75 1946.25,-66.75 1946.25,-60.75 1952.25,-54.75 1958.25,-54.75 1958.25,-54.75 2018.5,-54.75 2018.5,-54.75 2024.5,-54.75 2030.5,-60.75 2030.5,-66.75 2030.5,-66.75 2030.5,-91.25 2030.5,-91.25 2030.5,-97.25 2024.5,-103.25 2018.5,-103.25"/>
<text xml:space="preserve" text-anchor="middle" x="1988.38" y="-88.8" font-family="Helvetica,sans-Serif" font-size="11.00">LOCAL_BWD</text>
<text xml:space="preserve" text-anchor="middle" x="1988.38" y="-75.3" font-family="Helvetica,sans-Serif" font-size="11.00">emit post/ext</text>
<text xml:space="preserve" text-anchor="middle" x="1988.38" y="-61.8" font-family="Helvetica,sans-Serif" font-size="11.00">update beta</text>
</g>
<!-- FWD_STEP&#45;&gt;LOCAL_BWD -->
<g id="edge9" class="edge">
<title>FWD_STEP&#45;&gt;LOCAL_BWD</title>
<path fill="none" stroke="#444444" d="M1061.35,-125.14C1130.38,-111.31 1235.19,-94 1327.38,-94 1327.38,-94 1327.38,-94 1778,-94 1831.46,-94 1892.41,-89.07 1934.71,-84.87"/>
<polygon fill="#444444" stroke="#444444" points="1935.02,-88.35 1944.62,-83.86 1934.31,-81.39 1935.02,-88.35"/>
<text xml:space="preserve" text-anchor="middle" x="1559.75" y="-96.5" font-family="Helvetica,sans-Serif" font-size="10.00">last window</text>
</g>
<!-- DUMMY_WAIT -->
<g id="node7" class="node">
<title>DUMMY_WAIT</title>
<path fill="#f4cccc" stroke="#555555" d="M1593.25,-256C1593.25,-256 1526.25,-256 1526.25,-256 1520.25,-256 1514.25,-250 1514.25,-244 1514.25,-244 1514.25,-232 1514.25,-232 1514.25,-226 1520.25,-220 1526.25,-220 1526.25,-220 1593.25,-220 1593.25,-220 1599.25,-220 1605.25,-226 1605.25,-232 1605.25,-232 1605.25,-244 1605.25,-244 1605.25,-250 1599.25,-256 1593.25,-256"/>
<text xml:space="preserve" text-anchor="middle" x="1559.75" y="-234.3" font-family="Helvetica,sans-Serif" font-size="11.00">DUMMY_WAIT</text>
</g>
<!-- DUMMY_REQ&#45;&gt;DUMMY_WAIT -->
<g id="edge10" class="edge">
<title>DUMMY_REQ&#45;&gt;DUMMY_WAIT</title>
<path fill="none" stroke="#444444" d="M1372.46,-183.22C1390.35,-190.1 1411.41,-197.82 1430.75,-204 1454.17,-211.48 1480.36,-218.64 1502.92,-224.45"/>
<polygon fill="#444444" stroke="#444444" points="1501.99,-227.82 1512.54,-226.9 1503.71,-221.04 1501.99,-227.82"/>
<text xml:space="preserve" text-anchor="middle" x="1460.38" y="-223.58" font-family="Helvetica,sans-Serif" font-size="10.00">external fetch</text>
</g>
<!-- DUMMY_STEP -->
<g id="node8" class="node">
<title>DUMMY_STEP</title>
<path fill="#f4cccc" stroke="#555555" d="M1828.5,-192C1828.5,-192 1725.5,-192 1725.5,-192 1719.5,-192 1713.5,-186 1713.5,-180 1713.5,-180 1713.5,-168 1713.5,-168 1713.5,-162 1719.5,-156 1725.5,-156 1725.5,-156 1828.5,-156 1828.5,-156 1834.5,-156 1840.5,-162 1840.5,-168 1840.5,-168 1840.5,-180 1840.5,-180 1840.5,-186 1834.5,-192 1828.5,-192"/>
<text xml:space="preserve" text-anchor="middle" x="1777" y="-177.05" font-family="Helvetica,sans-Serif" font-size="11.00">DUMMY_STEP</text>
<text xml:space="preserve" text-anchor="middle" x="1777" y="-163.55" font-family="Helvetica,sans-Serif" font-size="11.00">next&#45;window beta seed</text>
</g>
<!-- DUMMY_REQ&#45;&gt;DUMMY_STEP -->
<g id="edge11" class="edge">
<title>DUMMY_REQ&#45;&gt;DUMMY_STEP</title>
<path fill="none" stroke="#444444" d="M1372.61,-166.77C1448.79,-168.14 1607.76,-170.99 1701.79,-172.67"/>
<polygon fill="#444444" stroke="#444444" points="1701.63,-176.17 1711.69,-172.85 1701.75,-169.17 1701.63,-176.17"/>
<text xml:space="preserve" text-anchor="middle" x="1559.75" y="-173.43" font-family="Helvetica,sans-Serif" font-size="10.00">legacy RAM read</text>
</g>
<!-- DUMMY_WAIT&#45;&gt;DUMMY_STEP -->
<g id="edge12" class="edge">
<title>DUMMY_WAIT&#45;&gt;DUMMY_STEP</title>
<path fill="none" stroke="#444444" d="M1605.7,-227.96C1632.06,-221.75 1665.9,-213.22 1695.5,-204 1702.95,-201.68 1710.72,-199.05 1718.37,-196.34"/>
<polygon fill="#444444" stroke="#444444" points="1719.41,-199.69 1727.63,-193 1717.03,-193.11 1719.41,-199.69"/>
<text xml:space="preserve" text-anchor="middle" x="1662.5" y="-224.67" font-family="Helvetica,sans-Serif" font-size="10.00">fetch_rsp_valid</text>
</g>
<!-- DUMMY_STEP&#45;&gt;DUMMY_REQ -->
<g id="edge13" class="edge">
<title>DUMMY_STEP&#45;&gt;DUMMY_REQ</title>
<path fill="none" stroke="#444444" d="M1713.3,-164.1C1682.69,-159.75 1645.26,-155.15 1611.5,-153 1532.3,-147.97 1440.48,-154.49 1383.65,-159.98"/>
<polygon fill="#444444" stroke="#444444" points="1383.53,-156.47 1373.92,-160.94 1384.22,-163.44 1383.53,-156.47"/>
<text xml:space="preserve" text-anchor="middle" x="1559.75" y="-155.5" font-family="Helvetica,sans-Serif" font-size="10.00">more next&#45;window pairs</text>
</g>
<!-- DUMMY_STEP&#45;&gt;LOCAL_BWD -->
<g id="edge14" class="edge">
<title>DUMMY_STEP&#45;&gt;LOCAL_BWD</title>
<path fill="none" stroke="#444444" d="M1821.29,-155.56C1851.42,-142.58 1892.46,-124.63 1928.25,-108 1930.66,-106.88 1933.11,-105.73 1935.59,-104.56"/>
<polygon fill="#444444" stroke="#444444" points="1936.94,-107.79 1944.45,-100.31 1933.92,-101.48 1936.94,-107.79"/>
<text xml:space="preserve" text-anchor="middle" x="1893.38" y="-141.86" font-family="Helvetica,sans-Serif" font-size="10.00">beta seed ready</text>
</g>
<!-- LOCAL_BWD&#45;&gt;FWD_REQ -->
<g id="edge16" class="edge">
<title>LOCAL_BWD&#45;&gt;FWD_REQ</title>
<path fill="none" stroke="#444444" d="M1945.93,-69.19C1903.88,-60.11 1836.79,-48 1778,-48 746.25,-48 746.25,-48 746.25,-48 696.68,-48 641.8,-63.35 604.3,-76.32"/>
<polygon fill="#444444" stroke="#444444" points="603.4,-72.92 595.14,-79.57 605.74,-79.52 603.4,-72.92"/>
<text xml:space="preserve" text-anchor="middle" x="1328.38" y="-50.5" font-family="Helvetica,sans-Serif" font-size="10.00">window done, advance to next window</text>
</g>
<!-- LOCAL_BWD&#45;&gt;LOCAL_BWD -->
<g id="edge15" class="edge">
<title>LOCAL_BWD&#45;&gt;LOCAL_BWD</title>
<path fill="none" stroke="#444444" d="M1971.12,-103.74C1970.36,-113.3 1976.11,-121.25 1988.38,-121.25 1995.28,-121.25 2000.11,-118.73 2002.89,-114.83"/>
<polygon fill="#444444" stroke="#444444" points="2006.27,-115.75 2005.27,-105.21 1999.47,-114.08 2006.27,-115.75"/>
<text xml:space="preserve" text-anchor="middle" x="1988.38" y="-123.75" font-family="Helvetica,sans-Serif" font-size="10.00">next older pair</text>
</g>
<!-- FINISH -->
<g id="node10" class="node">
<title>FINISH</title>
<path fill="#ead1dc" stroke="#555555" d="M2173,-36C2173,-36 2143,-36 2143,-36 2137,-36 2131,-30 2131,-24 2131,-24 2131,-12 2131,-12 2131,-6 2137,0 2143,0 2143,0 2173,0 2173,0 2179,0 2185,-6 2185,-12 2185,-12 2185,-24 2185,-24 2185,-30 2179,-36 2173,-36"/>
<text xml:space="preserve" text-anchor="middle" x="2158" y="-14.3" font-family="Helvetica,sans-Serif" font-size="11.00">FINISH</text>
</g>
<!-- LOCAL_BWD&#45;&gt;FINISH -->
<g id="edge17" class="edge">
<title>LOCAL_BWD&#45;&gt;FINISH</title>
<path fill="none" stroke="#444444" d="M2030.81,-63.92C2058.13,-53.98 2093.59,-41.07 2119.97,-31.48"/>
<polygon fill="#444444" stroke="#444444" points="2121.04,-34.81 2129.24,-28.1 2118.65,-28.23 2121.04,-34.81"/>
<text xml:space="preserve" text-anchor="middle" x="2080.75" y="-58.26" font-family="Helvetica,sans-Serif" font-size="10.00">last output pair</text>
</g>
<!-- FINISH&#45;&gt;IDLE -->
<g id="edge18" class="edge">
<title>FINISH&#45;&gt;IDLE</title>
<path fill="none" stroke="#444444" d="M2130.65,-13.92C2097.7,-9.18 2039.51,-2 1989.38,-2 337.25,-2 337.25,-2 337.25,-2 238.23,-2 123.29,-25.36 65.41,-38.79"/>
<polygon fill="#444444" stroke="#444444" points="64.68,-35.36 55.75,-41.06 66.29,-42.17 64.68,-35.36"/>
</g>
</g>
</svg>
