<?xml version="1.0" encoding="UTF-8" standalone="no"?>
<!DOCTYPE svg PUBLIC "-//W3C//DTD SVG 1.1//EN"
 "http://www.w3.org/Graphics/SVG/1.1/DTD/svg11.dtd">
<!-- Generated by graphviz version 14.1.2 (0)
 -->
<!-- Title: G Pages: 1 -->
<svg width="2800pt" height="215pt"
 viewBox="0.00 0.00 2800.00 215.00" xmlns="http://www.w3.org/2000/svg" xmlns:xlink="http://www.w3.org/1999/xlink">
<g id="graph0" class="graph" transform="scale(1 1) rotate(0) translate(4 211.25)">
<title>G</title>
<polygon fill="white" stroke="none" points="-4,4 -4,-211.25 2795.5,-211.25 2795.5,4 -4,4"/>
<text xml:space="preserve" text-anchor="middle" x="1395.75" y="-184.25" font-family="Helvetica,sans-Serif" font-size="20.00">siso_maxlogmap &#45; Updated Datapath</text>
<!-- pair -->
<g id="node1" class="node">
<title>pair</title>
<path fill="#fff2cc" stroke="#555555" d="M12,-57.5C12,-57.5 381.25,-57.5 381.25,-57.5 387.25,-57.5 393.25,-63.5 393.25,-69.5 393.25,-69.5 393.25,-81.5 393.25,-81.5 393.25,-87.5 387.25,-93.5 381.25,-93.5 381.25,-93.5 12,-93.5 12,-93.5 6,-93.5 0,-87.5 0,-81.5 0,-81.5 0,-69.5 0,-69.5 0,-63.5 6,-57.5 12,-57.5"/>
<text xml:space="preserve" text-anchor="middle" x="38.75" y="-72.05" font-family="Helvetica,sans-Serif" font-size="11.00">Fetched Pair</text>
<polyline fill="none" stroke="#555555" points="77.5,-58 77.5,-93.5"/>
<text xml:space="preserve" text-anchor="middle" x="129.38" y="-72.05" font-family="Helvetica,sans-Serif" font-size="11.00">sys_even/sys_odd</text>
<polyline fill="none" stroke="#555555" points="181.25,-58 181.25,-93.5"/>
<text xml:space="preserve" text-anchor="middle" x="233.12" y="-72.05" font-family="Helvetica,sans-Serif" font-size="11.00">par_even/par_odd</text>
<polyline fill="none" stroke="#555555" points="285,-58 285,-93.5"/>
<text xml:space="preserve" text-anchor="middle" x="339.12" y="-72.05" font-family="Helvetica,sans-Serif" font-size="11.00">apri_even/apri_odd</text>
</g>
<!-- bmu0 -->
<g id="node2" class="node">
<title>bmu0</title>
<path fill="#d9ead3" stroke="#555555" d="M442.25,-57.5C442.25,-57.5 627.25,-57.5 627.25,-57.5 633.25,-57.5 639.25,-63.5 639.25,-69.5 639.25,-69.5 639.25,-81.5 639.25,-81.5 639.25,-87.5 633.25,-93.5 627.25,-93.5 627.25,-93.5 442.25,-93.5 442.25,-93.5 436.25,-93.5 430.25,-87.5 430.25,-81.5 430.25,-81.5 430.25,-69.5 430.25,-69.5 430.25,-63.5 436.25,-57.5 442.25,-57.5"/>
<text xml:space="preserve" text-anchor="middle" x="464.5" y="-72.05" font-family="Helvetica,sans-Serif" font-size="11.00">Even BMU</text>
<polyline fill="none" stroke="#555555" points="498.75,-58 498.75,-93.5"/>
<text xml:space="preserve" text-anchor="middle" x="569" y="-72.05" font-family="Helvetica,sans-Serif" font-size="11.00">branch_metrics to g0[0..3]</text>
</g>
<!-- pair&#45;&gt;bmu0 -->
<g id="edge1" class="edge">
<title>pair&#45;&gt;bmu0</title>
<path fill="none" stroke="#444444" d="M393.64,-75.5C402.06,-75.5 410.38,-75.5 418.52,-75.5"/>
<polygon fill="#444444" stroke="#444444" points="418.38,-79 428.38,-75.5 418.38,-72 418.38,-79"/>
</g>
<!-- bmu1 -->
<g id="node3" class="node">
<title>bmu1</title>
<path fill="#d9ead3" stroke="#555555" d="M444.5,-112.5C444.5,-112.5 625,-112.5 625,-112.5 631,-112.5 637,-118.5 637,-124.5 637,-124.5 637,-136.5 637,-136.5 637,-142.5 631,-148.5 625,-148.5 625,-148.5 444.5,-148.5 444.5,-148.5 438.5,-148.5 432.5,-142.5 432.5,-136.5 432.5,-136.5 432.5,-124.5 432.5,-124.5 432.5,-118.5 438.5,-112.5 444.5,-112.5"/>
<text xml:space="preserve" text-anchor="middle" x="464.5" y="-127.05" font-family="Helvetica,sans-Serif" font-size="11.00">Odd BMU</text>
<polyline fill="none" stroke="#555555" points="496.5,-113 496.5,-148.5"/>
<text xml:space="preserve" text-anchor="middle" x="566.75" y="-127.05" font-family="Helvetica,sans-Serif" font-size="11.00">branch_metrics to g1[0..3]</text>
</g>
<!-- pair&#45;&gt;bmu1 -->
<g id="edge2" class="edge">
<title>pair&#45;&gt;bmu1</title>
<path fill="none" stroke="#444444" d="M310.48,-93.97C346.18,-99.81 385.6,-106.26 421.27,-112.09"/>
<polygon fill="#444444" stroke="#444444" points="420.28,-115.48 430.71,-113.64 421.41,-108.57 420.28,-115.48"/>
</g>
<!-- obs -->
<g id="node9" class="node">
<title>obs</title>
<path fill="#cfe2f3" stroke="#555555" d="M669.25,-0.5C669.25,-0.5 994,-0.5 994,-0.5 1000,-0.5 1006,-6.5 1006,-12.5 1006,-12.5 1006,-24.5 1006,-24.5 1006,-30.5 1000,-36.5 994,-36.5 994,-36.5 669.25,-36.5 669.25,-36.5 663.25,-36.5 657.25,-30.5 657.25,-24.5 657.25,-24.5 657.25,-12.5 657.25,-12.5 657.25,-6.5 663.25,-0.5 669.25,-0.5"/>
<text xml:space="preserve" text-anchor="middle" x="725.62" y="-15.05" font-family="Helvetica,sans-Serif" font-size="11.00">Local Observation Cache</text>
<polyline fill="none" stroke="#555555" points="794,-1 794,-36.5"/>
<text xml:space="preserve" text-anchor="middle" x="845.88" y="-15.05" font-family="Helvetica,sans-Serif" font-size="11.00">sys_even/sys_odd</text>
<polyline fill="none" stroke="#555555" points="897.75,-1 897.75,-36.5"/>
<text xml:space="preserve" text-anchor="middle" x="951.88" y="-15.05" font-family="Helvetica,sans-Serif" font-size="11.00">apri_even/apri_odd</text>
</g>
<!-- pair&#45;&gt;obs -->
<g id="edge10" class="edge">
<title>pair&#45;&gt;obs</title>
<path fill="none" stroke="#444444" d="M348.94,-57.03C376,-53.99 403.94,-51.01 430.25,-48.5 500.58,-41.79 577.98,-35.69 645.83,-30.77"/>
<polygon fill="#444444" stroke="#444444" points="645.84,-34.27 655.56,-30.06 645.33,-27.29 645.84,-34.27"/>
</g>
<!-- gamma -->
<g id="node4" class="node">
<title>gamma</title>
<path fill="#d9ead3" stroke="#555555" d="M1036,-68.5C1036,-68.5 1393,-68.5 1393,-68.5 1399,-68.5 1405,-74.5 1405,-80.5 1405,-80.5 1405,-92.5 1405,-92.5 1405,-98.5 1399,-104.5 1393,-104.5 1393,-104.5 1036,-104.5 1036,-104.5 1030,-104.5 1024,-98.5 1024,-92.5 1024,-92.5 1024,-80.5 1024,-80.5 1024,-74.5 1030,-68.5 1036,-68.5"/>
<text xml:space="preserve" text-anchor="middle" x="1096.5" y="-83.05" font-family="Helvetica,sans-Serif" font-size="11.00">Radix&#45;4 Gamma Combiner</text>
<polyline fill="none" stroke="#555555" points="1169,-69 1169,-104.5"/>
<text xml:space="preserve" text-anchor="middle" x="1246" y="-83.05" font-family="Helvetica,sans-Serif" font-size="11.00">pair_gamma_from_branches</text>
<polyline fill="none" stroke="#555555" points="1323,-69 1323,-104.5"/>
<text xml:space="preserve" text-anchor="middle" x="1364" y="-83.05" font-family="Helvetica,sans-Serif" font-size="11.00">gamma[0..15]</text>
</g>
<!-- bmu0&#45;&gt;gamma -->
<g id="edge3" class="edge">
<title>bmu0&#45;&gt;gamma</title>
<path fill="none" stroke="#444444" d="M639.48,-71.86C645.49,-71.72 651.45,-71.6 657.25,-71.5 812.23,-68.95 851.1,-65.91 1006,-71.5 1008.08,-71.57 1010.16,-71.65 1012.26,-71.74"/>
<polygon fill="#444444" stroke="#444444" points="1011.91,-75.23 1022.05,-72.15 1012.2,-68.23 1011.91,-75.23"/>
<text xml:space="preserve" text-anchor="middle" x="831.62" y="-74" font-family="Helvetica,sans-Serif" font-size="10.00">g0</text>
</g>
<!-- gcache -->
<g id="node7" class="node">
<title>gcache</title>
<path fill="#cfe2f3" stroke="#555555" d="M1084,-139.5C1084,-139.5 1345,-139.5 1345,-139.5 1351,-139.5 1357,-145.5 1357,-151.5 1357,-151.5 1357,-163.5 1357,-163.5 1357,-169.5 1351,-175.5 1345,-175.5 1345,-175.5 1084,-175.5 1084,-175.5 1078,-175.5 1072,-169.5 1072,-163.5 1072,-163.5 1072,-151.5 1072,-151.5 1072,-145.5 1078,-139.5 1084,-139.5"/>
<text xml:space="preserve" text-anchor="middle" x="1128.75" y="-154.05" font-family="Helvetica,sans-Serif" font-size="11.00">Local Branch Cache</text>
<polyline fill="none" stroke="#555555" points="1185.5,-140 1185.5,-175.5"/>
<text xml:space="preserve" text-anchor="middle" x="1228.38" y="-154.05" font-family="Helvetica,sans-Serif" font-size="11.00">g0_local_mem</text>
<polyline fill="none" stroke="#555555" points="1271.25,-140 1271.25,-175.5"/>
<text xml:space="preserve" text-anchor="middle" x="1314.12" y="-154.05" font-family="Helvetica,sans-Serif" font-size="11.00">g1_local_mem</text>
</g>
<!-- bmu0&#45;&gt;gcache -->
<g id="edge7" class="edge">
<title>bmu0&#45;&gt;gcache</title>
<path fill="none" stroke="#444444" d="M639.57,-82.66C767.07,-91.58 970.84,-106.28 1006,-111.5 1028.89,-114.9 1079.15,-126 1124.47,-136.45"/>
<polygon fill="#444444" stroke="#444444" points="1123.55,-139.83 1134.09,-138.68 1125.13,-133.01 1123.55,-139.83"/>
</g>
<!-- bmu1&#45;&gt;gamma -->
<g id="edge4" class="edge">
<title>bmu1&#45;&gt;gamma</title>
<path fill="none" stroke="#444444" d="M637.22,-123.91C735.96,-117.5 888.75,-107.58 1012.2,-99.57"/>
<polygon fill="#444444" stroke="#444444" points="1012.42,-103.06 1022.17,-98.92 1011.96,-96.08 1012.42,-103.06"/>
<text xml:space="preserve" text-anchor="middle" x="831.62" y="-124.58" font-family="Helvetica,sans-Serif" font-size="10.00">g1</text>
</g>
<!-- bmu1&#45;&gt;gcache -->
<g id="edge8" class="edge">
<title>bmu1&#45;&gt;gcache</title>
<path fill="none" stroke="#444444" d="M637.46,-142C644.15,-142.57 650.79,-143.07 657.25,-143.5 793.31,-152.48 948.44,-155.81 1060.24,-156.99"/>
<polygon fill="#444444" stroke="#444444" points="1060.06,-160.49 1070.09,-157.09 1060.13,-153.49 1060.06,-160.49"/>
</g>
<!-- acsf -->
<g id="node5" class="node">
<title>acsf</title>
<path fill="#cfe2f3" stroke="#555555" d="M1454,-97.5C1454,-97.5 1682.5,-97.5 1682.5,-97.5 1688.5,-97.5 1694.5,-103.5 1694.5,-109.5 1694.5,-109.5 1694.5,-121.5 1694.5,-121.5 1694.5,-127.5 1688.5,-133.5 1682.5,-133.5 1682.5,-133.5 1454,-133.5 1454,-133.5 1448,-133.5 1442,-127.5 1442,-121.5 1442,-121.5 1442,-109.5 1442,-109.5 1442,-103.5 1448,-97.5 1454,-97.5"/>
<text xml:space="preserve" text-anchor="middle" x="1483" y="-112.05" font-family="Helvetica,sans-Serif" font-size="11.00">Forward ACS</text>
<polyline fill="none" stroke="#555555" points="1524,-98 1524,-133.5"/>
<text xml:space="preserve" text-anchor="middle" x="1609.25" y="-112.05" font-family="Helvetica,sans-Serif" font-size="11.00">acs_step(..., is_backward=false)</text>
</g>
<!-- gamma&#45;&gt;acsf -->
<g id="edge5" class="edge">
<title>gamma&#45;&gt;acsf</title>
<path fill="none" stroke="#444444" d="M1405.27,-102.15C1413.75,-102.84 1422.19,-103.54 1430.5,-104.23"/>
<polygon fill="#444444" stroke="#444444" points="1429.98,-107.69 1440.24,-105.03 1430.56,-100.72 1429.98,-107.69"/>
</g>
<!-- gamcache -->
<g id="node8" class="node">
<title>gamcache</title>
<path fill="#cfe2f3" stroke="#555555" d="M1466.75,-42.5C1466.75,-42.5 1669.75,-42.5 1669.75,-42.5 1675.75,-42.5 1681.75,-48.5 1681.75,-54.5 1681.75,-54.5 1681.75,-66.5 1681.75,-66.5 1681.75,-72.5 1675.75,-78.5 1669.75,-78.5 1669.75,-78.5 1466.75,-78.5 1466.75,-78.5 1460.75,-78.5 1454.75,-72.5 1454.75,-66.5 1454.75,-66.5 1454.75,-54.5 1454.75,-54.5 1454.75,-48.5 1460.75,-42.5 1466.75,-42.5"/>
<text xml:space="preserve" text-anchor="middle" x="1513.38" y="-57.05" font-family="Helvetica,sans-Serif" font-size="11.00">Local Gamma Cache</text>
<polyline fill="none" stroke="#555555" points="1572,-43 1572,-78.5"/>
<text xml:space="preserve" text-anchor="middle" x="1626.88" y="-57.05" font-family="Helvetica,sans-Serif" font-size="11.00">gamma_local_mem</text>
</g>
<!-- gamma&#45;&gt;gamcache -->
<g id="edge9" class="edge">
<title>gamma&#45;&gt;gamcache</title>
<path fill="none" stroke="#444444" d="M1405.27,-72.47C1418.07,-71.53 1430.76,-70.59 1443.09,-69.68"/>
<polygon fill="#444444" stroke="#444444" points="1443.07,-73.19 1452.78,-68.96 1442.55,-66.21 1443.07,-73.19"/>
</g>
<!-- alpha -->
<g id="node6" class="node">
<title>alpha</title>
<path fill="#cfe2f3" stroke="#555555" d="M1824.62,-97.5C1824.62,-97.5 2024.62,-97.5 2024.62,-97.5 2030.62,-97.5 2036.62,-103.5 2036.62,-109.5 2036.62,-109.5 2036.62,-121.5 2036.62,-121.5 2036.62,-127.5 2030.62,-133.5 2024.62,-133.5 2024.62,-133.5 1824.62,-133.5 1824.62,-133.5 1818.62,-133.5 1812.62,-127.5 1812.62,-121.5 1812.62,-121.5 1812.62,-109.5 1812.62,-109.5 1812.62,-103.5 1818.62,-97.5 1824.62,-97.5"/>
<text xml:space="preserve" text-anchor="middle" x="1862.62" y="-112.05" font-family="Helvetica,sans-Serif" font-size="11.00">alpha_local_mem</text>
<polyline fill="none" stroke="#555555" points="1912.62,-98 1912.62,-133.5"/>
<text xml:space="preserve" text-anchor="middle" x="1974.62" y="-112.05" font-family="Helvetica,sans-Serif" font-size="11.00">entering alpha per pair</text>
</g>
<!-- acsf&#45;&gt;alpha -->
<g id="edge6" class="edge">
<title>acsf&#45;&gt;alpha</title>
<path fill="none" stroke="#444444" d="M1694.69,-115.5C1729.12,-115.5 1766.42,-115.5 1800.71,-115.5"/>
<polygon fill="#444444" stroke="#444444" points="1800.7,-119 1810.7,-115.5 1800.7,-112 1800.7,-119"/>
</g>
<!-- ext -->
<g id="node11" class="node">
<title>ext</title>
<path fill="#fce5cd" stroke="#555555" d="M2133,-76.5C2133,-76.5 2471.75,-76.5 2471.75,-76.5 2477.75,-76.5 2483.75,-82.5 2483.75,-88.5 2483.75,-88.5 2483.75,-100.5 2483.75,-100.5 2483.75,-106.5 2477.75,-112.5 2471.75,-112.5 2471.75,-112.5 2133,-112.5 2133,-112.5 2127,-112.5 2121,-106.5 2121,-100.5 2121,-100.5 2121,-88.5 2121,-88.5 2121,-82.5 2127,-76.5 2133,-76.5"/>
<text xml:space="preserve" text-anchor="middle" x="2181.12" y="-91.05" font-family="Helvetica,sans-Serif" font-size="11.00">extract_pair_precomp</text>
<polyline fill="none" stroke="#555555" points="2241.25,-77 2241.25,-112.5"/>
<text xml:space="preserve" text-anchor="middle" x="2274" y="-91.05" font-family="Helvetica,sans-Serif" font-size="11.00">alpha_mid</text>
<polyline fill="none" stroke="#555555" points="2306.75,-77 2306.75,-112.5"/>
<text xml:space="preserve" text-anchor="middle" x="2336.88" y="-91.05" font-family="Helvetica,sans-Serif" font-size="11.00">beta_mid</text>
<polyline fill="none" stroke="#555555" points="2367,-77 2367,-112.5"/>
<text xml:space="preserve" text-anchor="middle" x="2398.62" y="-91.05" font-family="Helvetica,sans-Serif" font-size="11.00">max trees</text>
<polyline fill="none" stroke="#555555" points="2430.25,-77 2430.25,-112.5"/>
<text xml:space="preserve" text-anchor="middle" x="2457" y="-91.05" font-family="Helvetica,sans-Serif" font-size="11.00">post/ext</text>
</g>
<!-- alpha&#45;&gt;ext -->
<g id="edge12" class="edge">
<title>alpha&#45;&gt;ext</title>
<path fill="none" stroke="#444444" d="M2037.09,-109.27C2059.89,-108 2084.49,-106.62 2109.2,-105.24"/>
<polygon fill="#444444" stroke="#444444" points="2109.25,-108.74 2119.04,-104.69 2108.86,-101.75 2109.25,-108.74"/>
</g>
<!-- gcache&#45;&gt;ext -->
<g id="edge13" class="edge">
<title>gcache&#45;&gt;ext</title>
<path fill="none" stroke="#444444" d="M1357.2,-162.81C1524.21,-167.29 1809.88,-169.41 2053.5,-143.5 2107.71,-137.74 2167.71,-126.02 2215.1,-115.49"/>
<polygon fill="#444444" stroke="#444444" points="2215.78,-118.92 2224.77,-113.31 2214.24,-112.09 2215.78,-118.92"/>
</g>
<!-- acsb -->
<g id="node10" class="node">
<title>acsb</title>
<path fill="#f4cccc" stroke="#555555" d="M1807.75,-42.5C1807.75,-42.5 2041.5,-42.5 2041.5,-42.5 2047.5,-42.5 2053.5,-48.5 2053.5,-54.5 2053.5,-54.5 2053.5,-66.5 2053.5,-66.5 2053.5,-72.5 2047.5,-78.5 2041.5,-78.5 2041.5,-78.5 1807.75,-78.5 1807.75,-78.5 1801.75,-78.5 1795.75,-72.5 1795.75,-66.5 1795.75,-66.5 1795.75,-54.5 1795.75,-54.5 1795.75,-48.5 1801.75,-42.5 1807.75,-42.5"/>
<text xml:space="preserve" text-anchor="middle" x="1840.5" y="-57.05" font-family="Helvetica,sans-Serif" font-size="11.00">Backward ACS</text>
<polyline fill="none" stroke="#555555" points="1885.25,-43 1885.25,-78.5"/>
<text xml:space="preserve" text-anchor="middle" x="1969.38" y="-57.05" font-family="Helvetica,sans-Serif" font-size="11.00">dummy and local beta recursion</text>
</g>
<!-- gamcache&#45;&gt;acsb -->
<g id="edge11" class="edge">
<title>gamcache&#45;&gt;acsb</title>
<path fill="none" stroke="#444444" d="M1681.86,-60.5C1714.27,-60.5 1750.02,-60.5 1783.87,-60.5"/>
<polygon fill="#444444" stroke="#444444" points="1783.75,-64 1793.75,-60.5 1783.75,-57 1783.75,-64"/>
<text xml:space="preserve" text-anchor="middle" x="1745.12" y="-63" font-family="Helvetica,sans-Serif" font-size="10.00">local backward</text>
</g>
<!-- obs&#45;&gt;ext -->
<g id="edge14" class="edge">
<title>obs&#45;&gt;ext</title>
<path fill="none" stroke="#444444" d="M1006.35,-16.26C1123.95,-14.93 1282.83,-13.5 1423,-13.5 1423,-13.5 1423,-13.5 1925.62,-13.5 2038.05,-13.5 2165.23,-48.58 2239.05,-72.57"/>
<polygon fill="#444444" stroke="#444444" points="2237.52,-75.75 2248.11,-75.55 2239.71,-69.1 2237.52,-75.75"/>
</g>
<!-- acsb&#45;&gt;ext -->
<g id="edge15" class="edge">
<title>acsb&#45;&gt;ext</title>
<path fill="none" stroke="#444444" d="M2053.89,-72.11C2071.84,-73.73 2090.61,-75.43 2109.42,-77.13"/>
<polygon fill="#444444" stroke="#444444" points="2109.04,-80.61 2119.32,-78.03 2109.67,-73.64 2109.04,-80.61"/>
<text xml:space="preserve" text-anchor="middle" x="2087.25" y="-78.98" font-family="Helvetica,sans-Serif" font-size="10.00">beta_in</text>
</g>
<!-- out -->
<g id="node12" class="node">
<title>out</title>
<path fill="#ead1dc" stroke="#555555" d="M2532.75,-76.5C2532.75,-76.5 2779.5,-76.5 2779.5,-76.5 2785.5,-76.5 2791.5,-82.5 2791.5,-88.5 2791.5,-88.5 2791.5,-100.5 2791.5,-100.5 2791.5,-106.5 2785.5,-112.5 2779.5,-112.5 2779.5,-112.5 2532.75,-112.5 2532.75,-112.5 2526.75,-112.5 2520.75,-106.5 2520.75,-100.5 2520.75,-100.5 2520.75,-88.5 2520.75,-88.5 2520.75,-82.5 2526.75,-76.5 2532.75,-76.5"/>
<text xml:space="preserve" text-anchor="middle" x="2572.25" y="-91.05" font-family="Helvetica,sans-Serif" font-size="11.00">Output Formatting</text>
<polyline fill="none" stroke="#555555" points="2623.75,-77 2623.75,-112.5"/>
<text xml:space="preserve" text-anchor="middle" x="2654.25" y="-91.05" font-family="Helvetica,sans-Serif" font-size="11.00">scale_ext</text>
<polyline fill="none" stroke="#555555" points="2684.75,-77 2684.75,-112.5"/>
<text xml:space="preserve" text-anchor="middle" x="2738.12" y="-91.05" font-family="Helvetica,sans-Serif" font-size="11.00">metric_to_post_sat</text>
</g>
<!-- ext&#45;&gt;out -->
<g id="edge16" class="edge">
<title>ext&#45;&gt;out</title>
<path fill="none" stroke="#444444" d="M2484.14,-94.5C2492.6,-94.5 2501.04,-94.5 2509.39,-94.5"/>
<polygon fill="#444444" stroke="#444444" points="2509.2,-98 2519.2,-94.5 2509.2,-91 2509.2,-98"/>
</g>
</g>
</svg>
