<?xml version="1.0" encoding="UTF-8" standalone="no"?>
<!DOCTYPE svg PUBLIC "-//W3C//DTD SVG 1.1//EN"
 "http://www.w3.org/Graphics/SVG/1.1/DTD/svg11.dtd">
<!-- Generated by graphviz version 14.1.2 (0)
 -->
<!-- Title: G Pages: 1 -->
<svg width="4204pt" height="272pt"
 viewBox="0.00 0.00 4204.00 272.00" xmlns="http://www.w3.org/2000/svg" xmlns:xlink="http://www.w3.org/1999/xlink">
<g id="graph0" class="graph" transform="scale(1 1) rotate(0) translate(4 267.75)">
<title>G</title>
<polygon fill="white" stroke="none" points="-4,4 -4,-267.75 4200,-267.75 4200,4 -4,4"/>
<text xml:space="preserve" text-anchor="middle" x="2098" y="-240.75" font-family="Helvetica,sans-Serif" font-size="20.00">siso_maxlogmap &#45; Updated Rolling&#45;Window Architecture</text>
<!-- seg -->
<g id="node1" class="node">
<title>seg</title>
<path fill="#f8f6ef" stroke="#555555" d="M172.25,-33.5C172.25,-33.5 533.75,-33.5 533.75,-33.5 539.75,-33.5 545.75,-39.5 545.75,-45.5 545.75,-45.5 545.75,-57.5 545.75,-57.5 545.75,-63.5 539.75,-69.5 533.75,-69.5 533.75,-69.5 172.25,-69.5 172.25,-69.5 166.25,-69.5 160.25,-63.5 160.25,-57.5 160.25,-57.5 160.25,-45.5 160.25,-45.5 160.25,-39.5 166.25,-33.5 172.25,-33.5"/>
<text xml:space="preserve" text-anchor="middle" x="205.75" y="-48.05" font-family="Helvetica,sans-Serif" font-size="11.00">Segment Setup</text>
<polyline fill="none" stroke="#555555" points="251.25,-34 251.25,-69.5"/>
<text xml:space="preserve" text-anchor="middle" x="326" y="-48.05" font-family="Helvetica,sans-Serif" font-size="11.00">seg_len to pair_cnt, win_cnt</text>
<polyline fill="none" stroke="#555555" points="400.75,-34 400.75,-69.5"/>
<text xml:space="preserve" text-anchor="middle" x="473.25" y="-48.05" font-family="Helvetica,sans-Serif" font-size="11.00">start_seed_v / end_seed_v</text>
</g>
<!-- load -->
<g id="node2" class="node">
<title>load</title>
<path fill="#e8f0fe" stroke="#555555" d="M809.5,-0.5C809.5,-0.5 1129,-0.5 1129,-0.5 1135,-0.5 1141,-6.5 1141,-12.5 1141,-12.5 1141,-24.5 1141,-24.5 1141,-30.5 1135,-36.5 1129,-36.5 1129,-36.5 809.5,-36.5 809.5,-36.5 803.5,-36.5 797.5,-30.5 797.5,-24.5 797.5,-24.5 797.5,-12.5 797.5,-12.5 797.5,-6.5 803.5,-0.5 809.5,-0.5"/>
<text xml:space="preserve" text-anchor="middle" x="851.25" y="-15.05" font-family="Helvetica,sans-Serif" font-size="11.00">Legacy Load Mode</text>
<polyline fill="none" stroke="#555555" points="905,-1 905,-36.5"/>
<text xml:space="preserve" text-anchor="middle" x="941.12" y="-15.05" font-family="Helvetica,sans-Serif" font-size="11.00">LOAD state</text>
<polyline fill="none" stroke="#555555" points="977.25,-1 977.25,-36.5"/>
<text xml:space="preserve" text-anchor="middle" x="1059.12" y="-15.05" font-family="Helvetica,sans-Serif" font-size="11.00">six optional segment memories</text>
</g>
<!-- seg&#45;&gt;load -->
<g id="edge1" class="edge">
<title>seg&#45;&gt;load</title>
<path fill="none" stroke="#444444" d="M546.25,-41.17C622.81,-37.06 710.5,-32.35 786.03,-28.29"/>
<polygon fill="#444444" stroke="#444444" points="785.78,-31.81 795.58,-27.78 785.4,-24.82 785.78,-31.81"/>
<text xml:space="preserve" text-anchor="middle" x="751.75" y="-33.57" font-family="Helvetica,sans-Serif" font-size="10.00">legacy mode</text>
</g>
<!-- fetch -->
<g id="node3" class="node">
<title>fetch</title>
<path fill="#fff2cc" stroke="#555555" d="M1226.5,-58.5C1226.5,-58.5 1788.5,-58.5 1788.5,-58.5 1794.5,-58.5 1800.5,-64.5 1800.5,-70.5 1800.5,-70.5 1800.5,-82.5 1800.5,-82.5 1800.5,-88.5 1794.5,-94.5 1788.5,-94.5 1788.5,-94.5 1226.5,-94.5 1226.5,-94.5 1220.5,-94.5 1214.5,-88.5 1214.5,-82.5 1214.5,-82.5 1214.5,-70.5 1214.5,-70.5 1214.5,-64.5 1220.5,-58.5 1226.5,-58.5"/>
<text xml:space="preserve" text-anchor="middle" x="1273.12" y="-73.05" font-family="Helvetica,sans-Serif" font-size="11.00">Pair Fetch Front&#45;End</text>
<polyline fill="none" stroke="#555555" points="1331.75,-59 1331.75,-94.5"/>
<text xml:space="preserve" text-anchor="middle" x="1398.25" y="-73.05" font-family="Helvetica,sans-Serif" font-size="11.00">FWD_REQ/FWD_WAIT</text>
<polyline fill="none" stroke="#555555" points="1464.75,-59 1464.75,-94.5"/>
<text xml:space="preserve" text-anchor="middle" x="1547.75" y="-73.05" font-family="Helvetica,sans-Serif" font-size="11.00">DUMMY_REQ/DUMMY_WAIT</text>
<polyline fill="none" stroke="#555555" points="1630.75,-59 1630.75,-94.5"/>
<text xml:space="preserve" text-anchor="middle" x="1715.62" y="-73.05" font-family="Helvetica,sans-Serif" font-size="11.00">fetch_req_valid / fetch_rsp_valid</text>
</g>
<!-- seg&#45;&gt;fetch -->
<g id="edge2" class="edge">
<title>seg&#45;&gt;fetch</title>
<path fill="none" stroke="#444444" d="M545.93,-55.66C724.87,-59.54 994.68,-65.4 1202.83,-69.91"/>
<polygon fill="#444444" stroke="#444444" points="1202.67,-73.41 1212.74,-70.13 1202.82,-66.41 1202.67,-73.41"/>
<text xml:space="preserve" text-anchor="middle" x="969.25" y="-70.99" font-family="Helvetica,sans-Serif" font-size="10.00">external mode</text>
</g>
<!-- load&#45;&gt;fetch -->
<g id="edge3" class="edge">
<title>load&#45;&gt;fetch</title>
<path fill="none" stroke="#444444" stroke-dasharray="5,2" d="M1141.03,-36.97C1199.5,-43.3 1265.12,-50.39 1324.45,-56.81"/>
<polygon fill="#444444" stroke="#444444" points="1324.01,-60.28 1334.33,-57.88 1324.77,-53.32 1324.01,-60.28"/>
<text xml:space="preserve" text-anchor="middle" x="1177.75" y="-44.81" font-family="Helvetica,sans-Serif" font-size="10.00">pair read</text>
</g>
<!-- latch -->
<g id="node4" class="node">
<title>latch</title>
<path fill="#f8f6ef" stroke="#555555" d="M1849.5,-83.5C1849.5,-83.5 2057,-83.5 2057,-83.5 2063,-83.5 2069,-89.5 2069,-95.5 2069,-95.5 2069,-107.5 2069,-107.5 2069,-113.5 2063,-119.5 2057,-119.5 2057,-119.5 1849.5,-119.5 1849.5,-119.5 1843.5,-119.5 1837.5,-113.5 1837.5,-107.5 1837.5,-107.5 1837.5,-95.5 1837.5,-95.5 1837.5,-89.5 1843.5,-83.5 1849.5,-83.5"/>
<text xml:space="preserve" text-anchor="middle" x="1890.88" y="-98.05" font-family="Helvetica,sans-Serif" font-size="11.00">Fetched Pair Latch</text>
<polyline fill="none" stroke="#555555" points="1944.25,-84 1944.25,-119.5"/>
<text xml:space="preserve" text-anchor="middle" x="2006.62" y="-98.05" font-family="Helvetica,sans-Serif" font-size="11.00">fetched_sys/par/apri_q</text>
</g>
<!-- fetch&#45;&gt;latch -->
<g id="edge4" class="edge">
<title>fetch&#45;&gt;latch</title>
<path fill="none" stroke="#444444" d="M1800.78,-92.97C1809.27,-93.44 1817.61,-93.91 1825.74,-94.37"/>
<polygon fill="#444444" stroke="#444444" points="1825.39,-97.86 1835.57,-94.93 1825.78,-90.87 1825.39,-97.86"/>
</g>
<!-- fwd -->
<g id="node5" class="node">
<title>fwd</title>
<path fill="#d9ead3" stroke="#555555" d="M2118,-89.5C2118,-89.5 2532.25,-89.5 2532.25,-89.5 2538.25,-89.5 2544.25,-95.5 2544.25,-101.5 2544.25,-101.5 2544.25,-113.5 2544.25,-113.5 2544.25,-119.5 2538.25,-125.5 2532.25,-125.5 2532.25,-125.5 2118,-125.5 2118,-125.5 2112,-125.5 2106,-119.5 2106,-113.5 2106,-113.5 2106,-101.5 2106,-101.5 2106,-95.5 2112,-89.5 2118,-89.5"/>
<text xml:space="preserve" text-anchor="middle" x="2147" y="-104.05" font-family="Helvetica,sans-Serif" font-size="11.00">Forward Step</text>
<polyline fill="none" stroke="#555555" points="2188,-90 2188,-125.5"/>
<text xml:space="preserve" text-anchor="middle" x="2239.88" y="-104.05" font-family="Helvetica,sans-Serif" font-size="11.00">branch_metrics x2</text>
<polyline fill="none" stroke="#555555" points="2291.75,-90 2291.75,-125.5"/>
<text xml:space="preserve" text-anchor="middle" x="2368.75" y="-104.05" font-family="Helvetica,sans-Serif" font-size="11.00">pair_gamma_from_branches</text>
<polyline fill="none" stroke="#555555" points="2445.75,-90 2445.75,-125.5"/>
<text xml:space="preserve" text-anchor="middle" x="2495" y="-104.05" font-family="Helvetica,sans-Serif" font-size="11.00">forward acs_step</text>
</g>
<!-- latch&#45;&gt;fwd -->
<g id="edge5" class="edge">
<title>latch&#45;&gt;fwd</title>
<path fill="none" stroke="#444444" d="M2069.25,-103.37C2077.44,-103.5 2085.83,-103.63 2094.37,-103.77"/>
<polygon fill="#444444" stroke="#444444" points="2094.09,-107.27 2104.14,-103.93 2094.2,-100.27 2094.09,-107.27"/>
</g>
<!-- local -->
<g id="node6" class="node">
<title>local</title>
<path fill="#d9ead3" stroke="#555555" d="M2695.75,-6.5C2695.75,-6.5 3134.5,-6.5 3134.5,-6.5 3140.5,-6.5 3146.5,-12.5 3146.5,-18.5 3146.5,-18.5 3146.5,-30.5 3146.5,-30.5 3146.5,-36.5 3140.5,-42.5 3134.5,-42.5 3134.5,-42.5 2695.75,-42.5 2695.75,-42.5 2689.75,-42.5 2683.75,-36.5 2683.75,-30.5 2683.75,-30.5 2683.75,-18.5 2683.75,-18.5 2683.75,-12.5 2689.75,-6.5 2695.75,-6.5"/>
<text xml:space="preserve" text-anchor="middle" x="2744.25" y="-21.05" font-family="Helvetica,sans-Serif" font-size="11.00">Local Window Buffers</text>
<polyline fill="none" stroke="#555555" points="2804.75,-7 2804.75,-42.5"/>
<text xml:space="preserve" text-anchor="middle" x="2839.75" y="-21.05" font-family="Helvetica,sans-Serif" font-size="11.00">alpha_local</text>
<polyline fill="none" stroke="#555555" points="2874.75,-7 2874.75,-42.5"/>
<text xml:space="preserve" text-anchor="middle" x="2902.62" y="-21.05" font-family="Helvetica,sans-Serif" font-size="11.00">g0_local</text>
<polyline fill="none" stroke="#555555" points="2930.5,-7 2930.5,-42.5"/>
<text xml:space="preserve" text-anchor="middle" x="2958.38" y="-21.05" font-family="Helvetica,sans-Serif" font-size="11.00">g1_local</text>
<polyline fill="none" stroke="#555555" points="2986.25,-7 2986.25,-42.5"/>
<text xml:space="preserve" text-anchor="middle" x="3026.12" y="-21.05" font-family="Helvetica,sans-Serif" font-size="11.00">gamma_local</text>
<polyline fill="none" stroke="#555555" points="3066,-7 3066,-42.5"/>
<text xml:space="preserve" text-anchor="middle" x="3106.25" y="-21.05" font-family="Helvetica,sans-Serif" font-size="11.00">sys/apri_local</text>
</g>
<!-- fwd&#45;&gt;local -->
<g id="edge6" class="edge">
<title>fwd&#45;&gt;local</title>
<path fill="none" stroke="#444444" d="M2394.85,-89.05C2441.69,-77.16 2505.32,-62.31 2562.25,-53.5 2597.66,-48.02 2635.24,-43.53 2672.16,-39.87"/>
<polygon fill="#444444" stroke="#444444" points="2672.47,-43.35 2682.09,-38.9 2671.8,-36.39 2672.47,-43.35"/>
<text xml:space="preserve" text-anchor="middle" x="2614" y="-56" font-family="Helvetica,sans-Serif" font-size="10.00">store local context</text>
</g>
<!-- carry -->
<g id="node7" class="node">
<title>carry</title>
<path fill="#f8f6ef" stroke="#555555" d="M2812.88,-61.5C2812.88,-61.5 3017.38,-61.5 3017.38,-61.5 3023.38,-61.5 3029.38,-67.5 3029.38,-73.5 3029.38,-73.5 3029.38,-85.5 3029.38,-85.5 3029.38,-91.5 3023.38,-97.5 3017.38,-97.5 3017.38,-97.5 2812.88,-97.5 2812.88,-97.5 2806.88,-97.5 2800.88,-91.5 2800.88,-85.5 2800.88,-85.5 2800.88,-73.5 2800.88,-73.5 2800.88,-67.5 2806.88,-61.5 2812.88,-61.5"/>
<text xml:space="preserve" text-anchor="middle" x="2855.38" y="-76.05" font-family="Helvetica,sans-Serif" font-size="11.00">Rolling Alpha Carry</text>
<polyline fill="none" stroke="#555555" points="2909.88,-62 2909.88,-97.5"/>
<text xml:space="preserve" text-anchor="middle" x="2969.62" y="-76.05" font-family="Helvetica,sans-Serif" font-size="11.00">next_alpha_seed_reg</text>
</g>
<!-- fwd&#45;&gt;carry -->
<g id="edge7" class="edge">
<title>fwd&#45;&gt;carry</title>
<path fill="none" stroke="#444444" d="M2431.56,-89.03C2472.26,-82.77 2519.29,-76.58 2562.25,-73.5 2637.59,-68.1 2722.21,-69.32 2789.59,-72.02"/>
<polygon fill="#444444" stroke="#444444" points="2789.03,-75.5 2799.17,-72.42 2789.32,-68.5 2789.03,-75.5"/>
<text xml:space="preserve" text-anchor="middle" x="2614" y="-76" font-family="Helvetica,sans-Serif" font-size="10.00">end&#45;alpha</text>
</g>
<!-- dummy -->
<g id="node8" class="node">
<title>dummy</title>
<path fill="#f4cccc" stroke="#555555" d="M2756.5,-165.5C2756.5,-165.5 3073.75,-165.5 3073.75,-165.5 3079.75,-165.5 3085.75,-171.5 3085.75,-177.5 3085.75,-177.5 3085.75,-189.5 3085.75,-189.5 3085.75,-195.5 3079.75,-201.5 3073.75,-201.5 3073.75,-201.5 2756.5,-201.5 2756.5,-201.5 2750.5,-201.5 2744.5,-195.5 2744.5,-189.5 2744.5,-189.5 2744.5,-177.5 2744.5,-177.5 2744.5,-171.5 2750.5,-165.5 2756.5,-165.5"/>
<text xml:space="preserve" text-anchor="middle" x="2809.5" y="-180.05" font-family="Helvetica,sans-Serif" font-size="11.00">Dummy Backward Step</text>
<polyline fill="none" stroke="#555555" points="2874.5,-166 2874.5,-201.5"/>
<text xml:space="preserve" text-anchor="middle" x="2926" y="-180.05" font-family="Helvetica,sans-Serif" font-size="11.00">next&#45;window fetch</text>
<polyline fill="none" stroke="#555555" points="2977.5,-166 2977.5,-201.5"/>
<text xml:space="preserve" text-anchor="middle" x="3031.62" y="-180.05" font-family="Helvetica,sans-Serif" font-size="11.00">backward acs_step</text>
</g>
<!-- fwd&#45;&gt;dummy -->
<g id="edge9" class="edge">
<title>fwd&#45;&gt;dummy</title>
<path fill="none" stroke="#444444" d="M2433.51,-125.99C2473.81,-132.61 2520.07,-139.83 2562.25,-145.5 2617.66,-152.94 2678.12,-159.9 2733.06,-165.77"/>
<polygon fill="#444444" stroke="#444444" points="2732.51,-169.23 2742.82,-166.81 2733.25,-162.27 2732.51,-169.23"/>
<text xml:space="preserve" text-anchor="middle" x="2614" y="-160" font-family="Helvetica,sans-Serif" font-size="10.00">if next window exists</text>
</g>
<!-- llr -->
<g id="node9" class="node">
<title>llr</title>
<path fill="#fce5cd" stroke="#555555" d="M3320.5,-140.5C3320.5,-140.5 3765.5,-140.5 3765.5,-140.5 3771.5,-140.5 3777.5,-146.5 3777.5,-152.5 3777.5,-152.5 3777.5,-164.5 3777.5,-164.5 3777.5,-170.5 3771.5,-176.5 3765.5,-176.5 3765.5,-176.5 3320.5,-176.5 3320.5,-176.5 3314.5,-176.5 3308.5,-170.5 3308.5,-164.5 3308.5,-164.5 3308.5,-152.5 3308.5,-152.5 3308.5,-146.5 3314.5,-140.5 3320.5,-140.5"/>
<text xml:space="preserve" text-anchor="middle" x="3396.75" y="-155.05" font-family="Helvetica,sans-Serif" font-size="11.00">Local Backward + LLR Extraction</text>
<polyline fill="none" stroke="#555555" points="3485,-141 3485,-176.5"/>
<text xml:space="preserve" text-anchor="middle" x="3545.12" y="-155.05" font-family="Helvetica,sans-Serif" font-size="11.00">extract_pair_precomp</text>
<polyline fill="none" stroke="#555555" points="3605.25,-141 3605.25,-176.5"/>
<text xml:space="preserve" text-anchor="middle" x="3641.75" y="-155.05" font-family="Helvetica,sans-Serif" font-size="11.00">beta update</text>
<polyline fill="none" stroke="#555555" points="3678.25,-141 3678.25,-176.5"/>
<text xml:space="preserve" text-anchor="middle" x="3727.88" y="-155.05" font-family="Helvetica,sans-Serif" font-size="11.00">out_valid/post/ext</text>
</g>
<!-- fwd&#45;&gt;llr -->
<g id="edge11" class="edge">
<title>fwd&#45;&gt;llr</title>
<path fill="none" stroke="#444444" stroke-dasharray="5,2" d="M2544.55,-116.66C2756.11,-125.54 3076.36,-138.97 3296.6,-148.21"/>
<polygon fill="#444444" stroke="#444444" points="3296.35,-151.7 3306.49,-148.62 3296.64,-144.71 3296.35,-151.7"/>
<text xml:space="preserve" text-anchor="middle" x="2915.12" y="-143.86" font-family="Helvetica,sans-Serif" font-size="10.00">last window uses end_seed</text>
</g>
<!-- local&#45;&gt;llr -->
<g id="edge12" class="edge">
<title>local&#45;&gt;llr</title>
<path fill="none" stroke="#444444" d="M3090.13,-43C3109.21,-45.81 3128.31,-48.97 3146.5,-52.5 3262.48,-74.97 3394.54,-112.94 3472.94,-136.81"/>
<polygon fill="#444444" stroke="#444444" points="3471.6,-140.06 3482.19,-139.64 3473.65,-133.37 3471.6,-140.06"/>
<text xml:space="preserve" text-anchor="middle" x="3227.5" y="-87.56" font-family="Helvetica,sans-Serif" font-size="10.00">alpha/g0/g1/gamma/sys/apri</text>
</g>
<!-- carry&#45;&gt;fwd -->
<g id="edge8" class="edge">
<title>carry&#45;&gt;fwd</title>
<path fill="none" stroke="#444444" stroke-dasharray="5,2" d="M2800.39,-84.92C2731,-88.22 2639.79,-92.56 2555.91,-96.56"/>
<polygon fill="#444444" stroke="#444444" points="2555.99,-93.05 2546.17,-97.02 2556.32,-100.04 2555.99,-93.05"/>
<text xml:space="preserve" text-anchor="middle" x="2614" y="-98.51" font-family="Helvetica,sans-Serif" font-size="10.00">next window alpha start</text>
</g>
<!-- dummy&#45;&gt;llr -->
<g id="edge10" class="edge">
<title>dummy&#45;&gt;llr</title>
<path fill="none" stroke="#444444" d="M3085.91,-176.72C3150.85,-174.12 3226.28,-171.11 3296.87,-168.29"/>
<polygon fill="#444444" stroke="#444444" points="3296.8,-171.8 3306.65,-167.9 3296.52,-164.8 3296.8,-171.8"/>
<text xml:space="preserve" text-anchor="middle" x="3227.5" y="-175.74" font-family="Helvetica,sans-Serif" font-size="10.00">beta seed for current window</text>
</g>
<!-- out -->
<g id="node10" class="node">
<title>out</title>
<path fill="#ead1dc" stroke="#555555" d="M3826.5,-140.5C3826.5,-140.5 4184,-140.5 4184,-140.5 4190,-140.5 4196,-146.5 4196,-152.5 4196,-152.5 4196,-164.5 4196,-164.5 4196,-170.5 4190,-176.5 4184,-176.5 4184,-176.5 3826.5,-176.5 3826.5,-176.5 3820.5,-176.5 3814.5,-170.5 3814.5,-164.5 3814.5,-164.5 3814.5,-152.5 3814.5,-152.5 3814.5,-146.5 3820.5,-140.5 3826.5,-140.5"/>
<text xml:space="preserve" text-anchor="middle" x="3841.25" y="-155.05" font-family="Helvetica,sans-Serif" font-size="11.00">Outputs</text>
<polyline fill="none" stroke="#555555" points="3868,-141 3868,-176.5"/>
<text xml:space="preserve" text-anchor="middle" x="3905.25" y="-155.05" font-family="Helvetica,sans-Serif" font-size="11.00">out_pair_idx</text>
<polyline fill="none" stroke="#555555" points="3942.5,-141 3942.5,-176.5"/>
<text xml:space="preserve" text-anchor="middle" x="3992.88" y="-155.05" font-family="Helvetica,sans-Serif" font-size="11.00">ext_even/ext_odd</text>
<polyline fill="none" stroke="#555555" points="4043.25,-141 4043.25,-176.5"/>
<text xml:space="preserve" text-anchor="middle" x="4099.62" y="-155.05" font-family="Helvetica,sans-Serif" font-size="11.00">post_even/post_odd</text>
<polyline fill="none" stroke="#555555" points="4156,-141 4156,-176.5"/>
<text xml:space="preserve" text-anchor="middle" x="4176" y="-155.05" font-family="Helvetica,sans-Serif" font-size="11.00">done</text>
</g>
<!-- llr&#45;&gt;out -->
<g id="edge13" class="edge">
<title>llr&#45;&gt;out</title>
<path fill="none" stroke="#444444" d="M3777.83,-158.5C3786.16,-158.5 3794.48,-158.5 3802.76,-158.5"/>
<polygon fill="#444444" stroke="#444444" points="3802.49,-162 3812.49,-158.5 3802.49,-155 3802.49,-162"/>
</g>
<!-- fsm -->
<g id="node11" class="node">
<title>fsm</title>
<path fill="#d0e0e3" stroke="#555555" d="M12,-138.5C12,-138.5 694,-138.5 694,-138.5 700,-138.5 706,-144.5 706,-150.5 706,-150.5 706,-162.5 706,-162.5 706,-168.5 700,-174.5 694,-174.5 694,-174.5 12,-174.5 12,-174.5 6,-174.5 0,-168.5 0,-162.5 0,-162.5 0,-150.5 0,-150.5 0,-144.5 6,-138.5 12,-138.5"/>
<text xml:space="preserve" text-anchor="middle" x="19.62" y="-153.05" font-family="Helvetica,sans-Serif" font-size="11.00">FSM</text>
<polyline fill="none" stroke="#555555" points="39.25,-139 39.25,-174.5"/>
<text xml:space="preserve" text-anchor="middle" x="59.62" y="-153.05" font-family="Helvetica,sans-Serif" font-size="11.00">IDLE</text>
<polyline fill="none" stroke="#555555" points="80,-139 80,-174.5"/>
<text xml:space="preserve" text-anchor="middle" x="103" y="-153.05" font-family="Helvetica,sans-Serif" font-size="11.00">LOAD</text>
<polyline fill="none" stroke="#555555" points="126,-139 126,-174.5"/>
<text xml:space="preserve" text-anchor="middle" x="224.38" y="-153.05" font-family="Helvetica,sans-Serif" font-size="11.00">FWD_REQ/FWD_WAIT/FWD_STEP</text>
<polyline fill="none" stroke="#555555" points="322.75,-139 322.75,-174.5"/>
<text xml:space="preserve" text-anchor="middle" x="445.88" y="-153.05" font-family="Helvetica,sans-Serif" font-size="11.00">DUMMY_REQ/DUMMY_WAIT/DUMMY_STEP</text>
<polyline fill="none" stroke="#555555" points="569,-139 569,-174.5"/>
<text xml:space="preserve" text-anchor="middle" x="611.12" y="-153.05" font-family="Helvetica,sans-Serif" font-size="11.00">LOCAL_BWD</text>
<polyline fill="none" stroke="#555555" points="653.25,-139 653.25,-174.5"/>
<text xml:space="preserve" text-anchor="middle" x="679.62" y="-153.05" font-family="Helvetica,sans-Serif" font-size="11.00">FINISH</text>
</g>
<!-- fsm&#45;&gt;load -->
<g id="edge14" class="edge">
<title>fsm&#45;&gt;load</title>
<path fill="none" stroke="#444444" stroke-dasharray="1,5" d="M448.25,-138.06C519.42,-123.61 619.31,-102.2 706,-79.5 747.14,-68.72 756.23,-61.77 797.5,-51.5 818.74,-46.21 841.65,-41.27 863.57,-36.91"/>
</g>
<!-- fsm&#45;&gt;fetch -->
<g id="edge15" class="edge">
<title>fsm&#45;&gt;fetch</title>
<path fill="none" stroke="#444444" stroke-dasharray="1,5" d="M620.22,-138.02C806.36,-125.1 1053.98,-107.91 1240.15,-94.99"/>
</g>
<!-- fsm&#45;&gt;fwd -->
<g id="edge16" class="edge">
<title>fsm&#45;&gt;fwd</title>
<path fill="none" stroke="#444444" stroke-dasharray="1,5" d="M706.43,-156.5C792.11,-156.5 883.47,-156.5 968.25,-156.5 968.25,-156.5 968.25,-156.5 1954.25,-156.5 2050.93,-156.5 2160.6,-139.84 2235.25,-125.95"/>
</g>
<!-- fsm&#45;&gt;dummy -->
<g id="edge17" class="edge">
<title>fsm&#45;&gt;dummy</title>
<path fill="none" stroke="#444444" stroke-dasharray="1,5" d="M552.29,-175C672.52,-184.66 829.09,-194.5 968.25,-194.5 968.25,-194.5 968.25,-194.5 2326.12,-194.5 2467.02,-194.5 2626.88,-191.3 2744.32,-188.36"/>
</g>
<!-- fsm&#45;&gt;llr -->
<g id="edge18" class="edge">
<title>fsm&#45;&gt;llr</title>
<path fill="none" stroke="#444444" stroke-dasharray="1,5" d="M445.66,-174.99C565.33,-197.49 781.55,-232.5 968.25,-232.5 968.25,-232.5 968.25,-232.5 2916.12,-232.5 3104.87,-232.5 3323.42,-198.9 3445.92,-176.98"/>
</g>
</g>
</svg>
