<?xml version="1.0" encoding="UTF-8" standalone="no"?>
<!DOCTYPE svg PUBLIC "-//W3C//DTD SVG 1.1//EN"
 "http://www.w3.org/Graphics/SVG/1.1/DTD/svg11.dtd">
<!-- Generated by graphviz version 14.1.2 (0)
 -->
<!-- Title: G Pages: 1 -->
<svg width="433pt" height="806pt"
 viewBox="0.00 0.00 433.00 806.00" xmlns="http://www.w3.org/2000/svg" xmlns:xlink="http://www.w3.org/1999/xlink">
<g id="graph0" class="graph" transform="scale(1 1) rotate(0) translate(4 802.25)">
<title>G</title>
<polygon fill="white" stroke="none" points="-4,4 -4,-802.25 428.62,-802.25 428.62,4 -4,4"/>
<text xml:space="preserve" text-anchor="middle" x="212.31" y="-775.25" font-family="Helvetica,sans-Serif" font-size="20.00">siso_maxlogmap &#45; Updated Datapath</text>
<!-- pair -->
<g id="node1" class="node">
<title>pair</title>
<path fill="#fff2cc" stroke="#555555" d="M187.12,-680.5C187.12,-680.5 271.38,-680.5 271.38,-680.5 277.38,-680.5 283.38,-686.5 283.38,-692.5 283.38,-692.5 283.38,-754.5 283.38,-754.5 283.38,-760.5 277.38,-766.5 271.38,-766.5 271.38,-766.5 187.12,-766.5 187.12,-766.5 181.12,-766.5 175.12,-760.5 175.12,-754.5 175.12,-754.5 175.12,-692.5 175.12,-692.5 175.12,-686.5 181.12,-680.5 187.12,-680.5"/>
<text xml:space="preserve" text-anchor="middle" x="229.25" y="-752.05" font-family="Helvetica,sans-Serif" font-size="11.00">Fetched Pair</text>
<polyline fill="none" stroke="#555555" points="175.12,-745 283.38,-745"/>
<text xml:space="preserve" text-anchor="middle" x="229.25" y="-730.55" font-family="Helvetica,sans-Serif" font-size="11.00">sys_even/sys_odd</text>
<polyline fill="none" stroke="#555555" points="175.12,-723.5 283.38,-723.5"/>
<text xml:space="preserve" text-anchor="middle" x="229.25" y="-709.05" font-family="Helvetica,sans-Serif" font-size="11.00">par_even/par_odd</text>
<polyline fill="none" stroke="#555555" points="175.12,-702 283.38,-702"/>
<text xml:space="preserve" text-anchor="middle" x="229.25" y="-687.55" font-family="Helvetica,sans-Serif" font-size="11.00">apri_even/apri_odd</text>
</g>
<!-- bmu0 -->
<g id="node2" class="node">
<title>bmu0</title>
<path fill="#d9ead3" stroke="#555555" d="M171,-599.5C171,-599.5 287.5,-599.5 287.5,-599.5 293.5,-599.5 299.5,-605.5 299.5,-611.5 299.5,-611.5 299.5,-630.5 299.5,-630.5 299.5,-636.5 293.5,-642.5 287.5,-642.5 287.5,-642.5 171,-642.5 171,-642.5 165,-642.5 159,-636.5 159,-630.5 159,-630.5 159,-611.5 159,-611.5 159,-605.5 165,-599.5 171,-599.5"/>
<text xml:space="preserve" text-anchor="middle" x="229.25" y="-628.05" font-family="Helvetica,sans-Serif" font-size="11.00">Even BMU</text>
<polyline fill="none" stroke="#555555" points="159,-621 299.5,-621"/>
<text xml:space="preserve" text-anchor="middle" x="229.25" y="-606.55" font-family="Helvetica,sans-Serif" font-size="11.00">branch_metrics to g0[0..3]</text>
</g>
<!-- pair&#45;&gt;bmu0 -->
<g id="edge1" class="edge">
<title>pair&#45;&gt;bmu0</title>
<path fill="none" stroke="#444444" d="M229.25,-680.17C229.25,-671.52 229.25,-662.55 229.25,-654.32"/>
<polygon fill="#444444" stroke="#444444" points="232.75,-654.42 229.25,-644.42 225.75,-654.42 232.75,-654.42"/>
</g>
<!-- bmu1 -->
<g id="node3" class="node">
<title>bmu1</title>
<path fill="#d9ead3" stroke="#555555" d="M12,-599.5C12,-599.5 128.5,-599.5 128.5,-599.5 134.5,-599.5 140.5,-605.5 140.5,-611.5 140.5,-611.5 140.5,-630.5 140.5,-630.5 140.5,-636.5 134.5,-642.5 128.5,-642.5 128.5,-642.5 12,-642.5 12,-642.5 6,-642.5 0,-636.5 0,-630.5 0,-630.5 0,-611.5 0,-611.5 0,-605.5 6,-599.5 12,-599.5"/>
<text xml:space="preserve" text-anchor="middle" x="70.25" y="-628.05" font-family="Helvetica,sans-Serif" font-size="11.00">Odd BMU</text>
<polyline fill="none" stroke="#555555" points="0,-621 140.5,-621"/>
<text xml:space="preserve" text-anchor="middle" x="70.25" y="-606.55" font-family="Helvetica,sans-Serif" font-size="11.00">branch_metrics to g1[0..3]</text>
</g>
<!-- pair&#45;&gt;bmu1 -->
<g id="edge2" class="edge">
<title>pair&#45;&gt;bmu1</title>
<path fill="none" stroke="#444444" d="M174.98,-688.19C154.75,-675.41 132.1,-661.09 113.04,-649.05"/>
<polygon fill="#444444" stroke="#444444" points="115.04,-646.17 104.72,-643.79 111.3,-652.09 115.04,-646.17"/>
</g>
<!-- obs -->
<g id="node9" class="node">
<title>obs</title>
<path fill="#cfe2f3" stroke="#555555" d="M299.88,-516C299.88,-516 412.62,-516 412.62,-516 418.62,-516 424.62,-522 424.62,-528 424.62,-528 424.62,-568.5 424.62,-568.5 424.62,-574.5 418.62,-580.5 412.62,-580.5 412.62,-580.5 299.88,-580.5 299.88,-580.5 293.88,-580.5 287.88,-574.5 287.88,-568.5 287.88,-568.5 287.88,-528 287.88,-528 287.88,-522 293.88,-516 299.88,-516"/>
<text xml:space="preserve" text-anchor="middle" x="356.25" y="-566.05" font-family="Helvetica,sans-Serif" font-size="11.00">Local Observation Cache</text>
<polyline fill="none" stroke="#555555" points="287.88,-559 424.62,-559"/>
<text xml:space="preserve" text-anchor="middle" x="356.25" y="-544.55" font-family="Helvetica,sans-Serif" font-size="11.00">sys_even/sys_odd</text>
<polyline fill="none" stroke="#555555" points="287.88,-537.5 424.62,-537.5"/>
<text xml:space="preserve" text-anchor="middle" x="356.25" y="-523.05" font-family="Helvetica,sans-Serif" font-size="11.00">apri_even/apri_odd</text>
</g>
<!-- pair&#45;&gt;obs -->
<g id="edge10" class="edge">
<title>pair&#45;&gt;obs</title>
<path fill="none" stroke="#444444" d="M276.14,-680.14C287.41,-668.71 298.88,-655.91 308.25,-643 319.9,-626.94 330.3,-607.66 338.41,-590.77"/>
<polygon fill="#444444" stroke="#444444" points="341.45,-592.52 342.52,-581.98 335.11,-589.56 341.45,-592.52"/>
</g>
<!-- gamma -->
<g id="node4" class="node">
<title>gamma</title>
<path fill="#d9ead3" stroke="#555555" d="M160.25,-432.5C160.25,-432.5 290.25,-432.5 290.25,-432.5 296.25,-432.5 302.25,-438.5 302.25,-444.5 302.25,-444.5 302.25,-485 302.25,-485 302.25,-491 296.25,-497 290.25,-497 290.25,-497 160.25,-497 160.25,-497 154.25,-497 148.25,-491 148.25,-485 148.25,-485 148.25,-444.5 148.25,-444.5 148.25,-438.5 154.25,-432.5 160.25,-432.5"/>
<text xml:space="preserve" text-anchor="middle" x="225.25" y="-482.55" font-family="Helvetica,sans-Serif" font-size="11.00">Radix&#45;4 Gamma Combiner</text>
<polyline fill="none" stroke="#555555" points="148.25,-475.5 302.25,-475.5"/>
<text xml:space="preserve" text-anchor="middle" x="225.25" y="-461.05" font-family="Helvetica,sans-Serif" font-size="11.00">pair_gamma_from_branches</text>
<polyline fill="none" stroke="#555555" points="148.25,-454 302.25,-454"/>
<text xml:space="preserve" text-anchor="middle" x="225.25" y="-439.55" font-family="Helvetica,sans-Serif" font-size="11.00">gamma[0..15]</text>
</g>
<!-- bmu0&#45;&gt;gamma -->
<g id="edge3" class="edge">
<title>bmu0&#45;&gt;gamma</title>
<path fill="none" stroke="#444444" d="M228.71,-599.2C228.11,-576.11 227.13,-538.22 226.36,-508.7"/>
<polygon fill="#444444" stroke="#444444" points="229.87,-508.86 226.11,-498.96 222.87,-509.05 229.87,-508.86"/>
<text xml:space="preserve" text-anchor="middle" x="233.43" y="-544.75" font-family="Helvetica,sans-Serif" font-size="10.00">g0</text>
</g>
<!-- gcache -->
<g id="node7" class="node">
<title>gcache</title>
<path fill="#cfe2f3" stroke="#555555" d="M25.5,-432.5C25.5,-432.5 115,-432.5 115,-432.5 121,-432.5 127,-438.5 127,-444.5 127,-444.5 127,-485 127,-485 127,-491 121,-497 115,-497 115,-497 25.5,-497 25.5,-497 19.5,-497 13.5,-491 13.5,-485 13.5,-485 13.5,-444.5 13.5,-444.5 13.5,-438.5 19.5,-432.5 25.5,-432.5"/>
<text xml:space="preserve" text-anchor="middle" x="70.25" y="-482.55" font-family="Helvetica,sans-Serif" font-size="11.00">Local Branch Cache</text>
<polyline fill="none" stroke="#555555" points="13.5,-475.5 127,-475.5"/>
<text xml:space="preserve" text-anchor="middle" x="70.25" y="-461.05" font-family="Helvetica,sans-Serif" font-size="11.00">g0_local_mem</text>
<polyline fill="none" stroke="#555555" points="13.5,-454 127,-454"/>
<text xml:space="preserve" text-anchor="middle" x="70.25" y="-439.55" font-family="Helvetica,sans-Serif" font-size="11.00">g1_local_mem</text>
</g>
<!-- bmu0&#45;&gt;gcache -->
<g id="edge7" class="edge">
<title>bmu0&#45;&gt;gcache</title>
<path fill="none" stroke="#444444" d="M220.18,-599.33C209.34,-576.5 189.33,-539.76 163.25,-515.5 158.33,-510.92 148.58,-504.87 137.17,-498.58"/>
<polygon fill="#444444" stroke="#444444" points="139.07,-495.63 128.61,-493.98 135.76,-501.79 139.07,-495.63"/>
</g>
<!-- bmu1&#45;&gt;gamma -->
<g id="edge4" class="edge">
<title>bmu1&#45;&gt;gamma</title>
<path fill="none" stroke="#444444" d="M91.15,-599.2C115.28,-575.19 155.48,-535.18 185.59,-505.22"/>
<polygon fill="#444444" stroke="#444444" points="187.71,-508.05 192.33,-498.51 182.77,-503.09 187.71,-508.05"/>
<text xml:space="preserve" text-anchor="middle" x="180.36" y="-544.75" font-family="Helvetica,sans-Serif" font-size="10.00">g1</text>
</g>
<!-- bmu1&#45;&gt;gcache -->
<g id="edge8" class="edge">
<title>bmu1&#45;&gt;gcache</title>
<path fill="none" stroke="#444444" d="M70.25,-599.2C70.25,-576.11 70.25,-538.22 70.25,-508.7"/>
<polygon fill="#444444" stroke="#444444" points="73.75,-508.96 70.25,-498.96 66.75,-508.96 73.75,-508.96"/>
</g>
<!-- acsf -->
<g id="node5" class="node">
<title>acsf</title>
<path fill="#cfe2f3" stroke="#555555" d="M46,-351.5C46,-351.5 192.5,-351.5 192.5,-351.5 198.5,-351.5 204.5,-357.5 204.5,-363.5 204.5,-363.5 204.5,-382.5 204.5,-382.5 204.5,-388.5 198.5,-394.5 192.5,-394.5 192.5,-394.5 46,-394.5 46,-394.5 40,-394.5 34,-388.5 34,-382.5 34,-382.5 34,-363.5 34,-363.5 34,-357.5 40,-351.5 46,-351.5"/>
<text xml:space="preserve" text-anchor="middle" x="119.25" y="-380.05" font-family="Helvetica,sans-Serif" font-size="11.00">Forward ACS</text>
<polyline fill="none" stroke="#555555" points="34,-373 204.5,-373"/>
<text xml:space="preserve" text-anchor="middle" x="119.25" y="-358.55" font-family="Helvetica,sans-Serif" font-size="11.00">acs_step(..., is_backward=false)</text>
</g>
<!-- gamma&#45;&gt;acsf -->
<g id="edge5" class="edge">
<title>gamma&#45;&gt;acsf</title>
<path fill="none" stroke="#444444" d="M187.88,-432.11C176.4,-422.39 163.85,-411.77 152.66,-402.29"/>
<polygon fill="#444444" stroke="#444444" points="155.07,-399.74 145.18,-395.95 150.55,-405.08 155.07,-399.74"/>
</g>
<!-- gamcache -->
<g id="node8" class="node">
<title>gamcache</title>
<path fill="#cfe2f3" stroke="#555555" d="M234.62,-351.5C234.62,-351.5 327.88,-351.5 327.88,-351.5 333.88,-351.5 339.88,-357.5 339.88,-363.5 339.88,-363.5 339.88,-382.5 339.88,-382.5 339.88,-388.5 333.88,-394.5 327.88,-394.5 327.88,-394.5 234.62,-394.5 234.62,-394.5 228.62,-394.5 222.62,-388.5 222.62,-382.5 222.62,-382.5 222.62,-363.5 222.62,-363.5 222.62,-357.5 228.62,-351.5 234.62,-351.5"/>
<text xml:space="preserve" text-anchor="middle" x="281.25" y="-380.05" font-family="Helvetica,sans-Serif" font-size="11.00">Local Gamma Cache</text>
<polyline fill="none" stroke="#555555" points="222.62,-373 339.88,-373"/>
<text xml:space="preserve" text-anchor="middle" x="281.25" y="-358.55" font-family="Helvetica,sans-Serif" font-size="11.00">gamma_local_mem</text>
</g>
<!-- gamma&#45;&gt;gamcache -->
<g id="edge9" class="edge">
<title>gamma&#45;&gt;gamcache</title>
<path fill="none" stroke="#444444" d="M244.99,-432.11C250.58,-423.16 256.64,-413.44 262.18,-404.56"/>
<polygon fill="#444444" stroke="#444444" points="265.04,-406.59 267.36,-396.26 259.1,-402.89 265.04,-406.59"/>
</g>
<!-- alpha -->
<g id="node6" class="node">
<title>alpha</title>
<path fill="#cfe2f3" stroke="#555555" d="M56.25,-259.5C56.25,-259.5 156.25,-259.5 156.25,-259.5 162.25,-259.5 168.25,-265.5 168.25,-271.5 168.25,-271.5 168.25,-290.5 168.25,-290.5 168.25,-296.5 162.25,-302.5 156.25,-302.5 156.25,-302.5 56.25,-302.5 56.25,-302.5 50.25,-302.5 44.25,-296.5 44.25,-290.5 44.25,-290.5 44.25,-271.5 44.25,-271.5 44.25,-265.5 50.25,-259.5 56.25,-259.5"/>
<text xml:space="preserve" text-anchor="middle" x="106.25" y="-288.05" font-family="Helvetica,sans-Serif" font-size="11.00">alpha_local_mem</text>
<polyline fill="none" stroke="#555555" points="44.25,-281 168.25,-281"/>
<text xml:space="preserve" text-anchor="middle" x="106.25" y="-266.55" font-family="Helvetica,sans-Serif" font-size="11.00">entering alpha per pair</text>
</g>
<!-- acsf&#45;&gt;alpha -->
<g id="edge6" class="edge">
<title>acsf&#45;&gt;alpha</title>
<path fill="none" stroke="#444444" d="M116.23,-351.13C114.64,-340.11 112.66,-326.35 110.87,-314.01"/>
<polygon fill="#444444" stroke="#444444" points="114.36,-313.66 109.47,-304.26 107.43,-314.66 114.36,-313.66"/>
</g>
<!-- ext -->
<g id="node11" class="node">
<title>ext</title>
<path fill="#fce5cd" stroke="#555555" d="M160.12,-103C160.12,-103 256.38,-103 256.38,-103 262.38,-103 268.38,-109 268.38,-115 268.38,-115 268.38,-198.5 268.38,-198.5 268.38,-204.5 262.38,-210.5 256.38,-210.5 256.38,-210.5 160.12,-210.5 160.12,-210.5 154.12,-210.5 148.12,-204.5 148.12,-198.5 148.12,-198.5 148.12,-115 148.12,-115 148.12,-109 154.12,-103 160.12,-103"/>
<text xml:space="preserve" text-anchor="middle" x="208.25" y="-196.05" font-family="Helvetica,sans-Serif" font-size="11.00">extract_pair_precomp</text>
<polyline fill="none" stroke="#555555" points="148.12,-189 268.38,-189"/>
<text xml:space="preserve" text-anchor="middle" x="208.25" y="-174.55" font-family="Helvetica,sans-Serif" font-size="11.00">alpha_mid</text>
<polyline fill="none" stroke="#555555" points="148.12,-167.5 268.38,-167.5"/>
<text xml:space="preserve" text-anchor="middle" x="208.25" y="-153.05" font-family="Helvetica,sans-Serif" font-size="11.00">beta_mid</text>
<polyline fill="none" stroke="#555555" points="148.12,-146 268.38,-146"/>
<text xml:space="preserve" text-anchor="middle" x="208.25" y="-131.55" font-family="Helvetica,sans-Serif" font-size="11.00">max trees</text>
<polyline fill="none" stroke="#555555" points="148.12,-124.5 268.38,-124.5"/>
<text xml:space="preserve" text-anchor="middle" x="208.25" y="-110.05" font-family="Helvetica,sans-Serif" font-size="11.00">post/ext</text>
</g>
<!-- alpha&#45;&gt;ext -->
<g id="edge12" class="edge">
<title>alpha&#45;&gt;ext</title>
<path fill="none" stroke="#444444" d="M123.55,-259.26C132.87,-248.1 144.89,-233.69 156.94,-219.25"/>
<polygon fill="#444444" stroke="#444444" points="159.33,-221.85 163.05,-211.93 153.95,-217.36 159.33,-221.85"/>
</g>
<!-- gcache&#45;&gt;ext -->
<g id="edge13" class="edge">
<title>gcache&#45;&gt;ext</title>
<path fill="none" stroke="#444444" d="M44.07,-432.13C36.47,-421.07 29.16,-408.12 25.25,-395 16.35,-365.17 31.99,-264.04 35.25,-259 58.94,-222.42 100.85,-197.4 137.49,-181.39"/>
<polygon fill="#444444" stroke="#444444" points="138.41,-184.8 146.26,-177.69 135.69,-178.34 138.41,-184.8"/>
</g>
<!-- acsb -->
<g id="node10" class="node">
<title>acsb</title>
<path fill="#f4cccc" stroke="#555555" d="M198.12,-259.5C198.12,-259.5 342.38,-259.5 342.38,-259.5 348.38,-259.5 354.38,-265.5 354.38,-271.5 354.38,-271.5 354.38,-290.5 354.38,-290.5 354.38,-296.5 348.38,-302.5 342.38,-302.5 342.38,-302.5 198.12,-302.5 198.12,-302.5 192.12,-302.5 186.12,-296.5 186.12,-290.5 186.12,-290.5 186.12,-271.5 186.12,-271.5 186.12,-265.5 192.12,-259.5 198.12,-259.5"/>
<text xml:space="preserve" text-anchor="middle" x="270.25" y="-288.05" font-family="Helvetica,sans-Serif" font-size="11.00">Backward ACS</text>
<polyline fill="none" stroke="#555555" points="186.12,-281 354.38,-281"/>
<text xml:space="preserve" text-anchor="middle" x="270.25" y="-266.55" font-family="Helvetica,sans-Serif" font-size="11.00">dummy and local beta recursion</text>
</g>
<!-- gamcache&#45;&gt;acsb -->
<g id="edge11" class="edge">
<title>gamcache&#45;&gt;acsb</title>
<path fill="none" stroke="#444444" d="M278.7,-351.13C277.35,-340.11 275.67,-326.35 274.16,-314.01"/>
<polygon fill="#444444" stroke="#444444" points="277.66,-313.76 272.97,-304.26 270.71,-314.61 277.66,-313.76"/>
<text xml:space="preserve" text-anchor="middle" x="309.03" y="-323.5" font-family="Helvetica,sans-Serif" font-size="10.00">local backward</text>
</g>
<!-- obs&#45;&gt;ext -->
<g id="edge14" class="edge">
<title>obs&#45;&gt;ext</title>
<path fill="none" stroke="#444444" d="M366.01,-515.55C373.38,-488.76 382.25,-449.24 382.25,-414 382.25,-414 382.25,-414 382.25,-280 382.25,-226.97 327.47,-194.96 279.39,-177.08"/>
<polygon fill="#444444" stroke="#444444" points="280.64,-173.81 270.04,-173.77 278.3,-180.41 280.64,-173.81"/>
</g>
<!-- acsb&#45;&gt;ext -->
<g id="edge15" class="edge">
<title>acsb&#45;&gt;ext</title>
<path fill="none" stroke="#444444" d="M259.73,-259.26C254.28,-248.52 247.31,-234.76 240.26,-220.87"/>
<polygon fill="#444444" stroke="#444444" points="243.47,-219.45 235.82,-212.11 237.22,-222.62 243.47,-219.45"/>
<text xml:space="preserve" text-anchor="middle" x="265.95" y="-231.5" font-family="Helvetica,sans-Serif" font-size="10.00">beta_in</text>
</g>
<!-- out -->
<g id="node12" class="node">
<title>out</title>
<path fill="#ead1dc" stroke="#555555" d="M166.88,-0.5C166.88,-0.5 249.62,-0.5 249.62,-0.5 255.62,-0.5 261.62,-6.5 261.62,-12.5 261.62,-12.5 261.62,-53 261.62,-53 261.62,-59 255.62,-65 249.62,-65 249.62,-65 166.88,-65 166.88,-65 160.88,-65 154.88,-59 154.88,-53 154.88,-53 154.88,-12.5 154.88,-12.5 154.88,-6.5 160.88,-0.5 166.88,-0.5"/>
<text xml:space="preserve" text-anchor="middle" x="208.25" y="-50.55" font-family="Helvetica,sans-Serif" font-size="11.00">Output Formatting</text>
<polyline fill="none" stroke="#555555" points="154.88,-43.5 261.62,-43.5"/>
<text xml:space="preserve" text-anchor="middle" x="208.25" y="-29.05" font-family="Helvetica,sans-Serif" font-size="11.00">scale_ext</text>
<polyline fill="none" stroke="#555555" points="154.88,-22 261.62,-22"/>
<text xml:space="preserve" text-anchor="middle" x="208.25" y="-7.55" font-family="Helvetica,sans-Serif" font-size="11.00">metric_to_post_sat</text>
</g>
<!-- ext&#45;&gt;out -->
<g id="edge16" class="edge">
<title>ext&#45;&gt;out</title>
<path fill="none" stroke="#444444" d="M208.25,-102.59C208.25,-93.95 208.25,-85.1 208.25,-76.74"/>
<polygon fill="#444444" stroke="#444444" points="211.75,-76.84 208.25,-66.84 204.75,-76.84 211.75,-76.84"/>
</g>
</g>
</svg>
