<?xml version="1.0" encoding="UTF-8" standalone="no"?>
<!DOCTYPE svg PUBLIC "-//W3C//DTD SVG 1.1//EN"
 "http://www.w3.org/Graphics/SVG/1.1/DTD/svg11.dtd">
<!-- Generated by graphviz version 14.1.2 (0)
 -->
<!-- Title: siso_maxlogmap_datapath Pages: 1 -->
<svg width="2341pt" height="576pt"
 viewBox="0.00 0.00 2341.00 576.00" xmlns="http://www.w3.org/2000/svg" xmlns:xlink="http://www.w3.org/1999/xlink">
<g id="graph0" class="graph" transform="scale(1 1) rotate(0) translate(14.4 561.47)">
<title>siso_maxlogmap_datapath</title>
<polygon fill="white" stroke="none" points="-14.4,14.4 -14.4,-561.47 2326.65,-561.47 2326.65,14.4 -14.4,14.4"/>
<text xml:space="preserve" text-anchor="middle" x="1156.12" y="-529.77" font-family="Helvetica,sans-Serif" font-size="14.00">siso_maxlogmap Datapath</text>
<g id="clust1" class="cluster">
<title>cluster_frame</title>
<path fill="white" stroke="#86efac" d="M211.27,-132.32C211.27,-132.32 626.7,-132.32 626.7,-132.32 632.7,-132.32 638.7,-138.32 638.7,-144.32 638.7,-144.32 638.7,-326.32 638.7,-326.32 638.7,-332.32 632.7,-338.32 626.7,-338.32 626.7,-338.32 211.27,-338.32 211.27,-338.32 205.27,-338.32 199.27,-332.32 199.27,-326.32 199.27,-326.32 199.27,-144.32 199.27,-144.32 199.27,-138.32 205.27,-132.32 211.27,-132.32"/>
<text xml:space="preserve" text-anchor="middle" x="418.99" y="-321.02" font-family="Helvetica,sans-Serif" font-size="14.00">Segment Pair Memories</text>
</g>
<g id="clust2" class="cluster">
<title>cluster_gamma</title>
<path fill="white" stroke="#fcd34d" d="M791.57,-197.32C791.57,-197.32 1175.5,-197.32 1175.5,-197.32 1181.5,-197.32 1187.5,-203.32 1187.5,-209.32 1187.5,-209.32 1187.5,-326.32 1187.5,-326.32 1187.5,-332.32 1181.5,-338.32 1175.5,-338.32 1175.5,-338.32 791.57,-338.32 791.57,-338.32 785.57,-338.32 779.57,-332.32 779.57,-326.32 779.57,-326.32 779.57,-209.32 779.57,-209.32 779.57,-203.32 785.57,-197.32 791.57,-197.32"/>
<text xml:space="preserve" text-anchor="middle" x="983.54" y="-321.02" font-family="Helvetica,sans-Serif" font-size="14.00">Radix&#45;4 Branch Metric Unit</text>
</g>
<g id="clust3" class="cluster">
<title>cluster_recursion</title>
<path fill="white" stroke="#f9a8d4" d="M1086.6,-346.32C1086.6,-346.32 1650.42,-346.32 1650.42,-346.32 1656.42,-346.32 1662.42,-352.32 1662.42,-358.32 1662.42,-358.32 1662.42,-503.32 1662.42,-503.32 1662.42,-509.32 1656.42,-515.32 1650.42,-515.32 1650.42,-515.32 1086.6,-515.32 1086.6,-515.32 1080.6,-515.32 1074.6,-509.32 1074.6,-503.32 1074.6,-503.32 1074.6,-358.32 1074.6,-358.32 1074.6,-352.32 1080.6,-346.32 1086.6,-346.32"/>
<text xml:space="preserve" text-anchor="middle" x="1368.51" y="-498.02" font-family="Helvetica,sans-Serif" font-size="14.00">Shared Recursion Datapath</text>
</g>
<g id="clust4" class="cluster">
<title>cluster_seed</title>
<path fill="white" stroke="#c4b5fd" d="M202.65,-408.32C202.65,-408.32 882.72,-408.32 882.72,-408.32 888.72,-408.32 894.72,-414.32 894.72,-420.32 894.72,-420.32 894.72,-480.32 894.72,-480.32 894.72,-486.32 888.72,-492.32 882.72,-492.32 882.72,-492.32 202.65,-492.32 202.65,-492.32 196.65,-492.32 190.65,-486.32 190.65,-480.32 190.65,-480.32 190.65,-420.32 190.65,-420.32 190.65,-414.32 196.65,-408.32 202.65,-408.32"/>
<text xml:space="preserve" text-anchor="middle" x="542.69" y="-475.02" font-family="Helvetica,sans-Serif" font-size="14.00">Per&#45;Window Alpha Seed Memory</text>
</g>
<g id="clust5" class="cluster">
<title>cluster_local</title>
<path fill="white" stroke="#fdba74" d="M1305.5,-132.32C1305.5,-132.32 1676.3,-132.32 1676.3,-132.32 1682.3,-132.32 1688.3,-138.32 1688.3,-144.32 1688.3,-144.32 1688.3,-326.32 1688.3,-326.32 1688.3,-332.32 1682.3,-338.32 1676.3,-338.32 1676.3,-338.32 1305.5,-338.32 1305.5,-338.32 1299.5,-338.32 1293.5,-332.32 1293.5,-326.32 1293.5,-326.32 1293.5,-144.32 1293.5,-144.32 1293.5,-138.32 1299.5,-132.32 1305.5,-132.32"/>
<text xml:space="preserve" text-anchor="middle" x="1490.9" y="-321.02" font-family="Helvetica,sans-Serif" font-size="14.00">Current&#45;Window Local Buffers</text>
</g>
<g id="clust6" class="cluster">
<title>cluster_out</title>
<path fill="white" stroke="#67e8f9" d="M1809.3,-175.32C1809.3,-175.32 2076.6,-175.32 2076.6,-175.32 2082.6,-175.32 2088.6,-181.32 2088.6,-187.32 2088.6,-187.32 2088.6,-283.32 2088.6,-283.32 2088.6,-289.32 2082.6,-295.32 2076.6,-295.32 2076.6,-295.32 1809.3,-295.32 1809.3,-295.32 1803.3,-295.32 1797.3,-289.32 1797.3,-283.32 1797.3,-283.32 1797.3,-187.32 1797.3,-187.32 1797.3,-181.32 1803.3,-175.32 1809.3,-175.32"/>
<text xml:space="preserve" text-anchor="middle" x="1942.95" y="-278.02" font-family="Helvetica,sans-Serif" font-size="14.00">LLR Extraction</text>
</g>
<!-- in_frame -->
<g id="node1" class="node">
<title>in_frame</title>
<path fill="#f8fafc" stroke="#334155" d="M90.15,-257.64C90.15,-257.64 12,-257.64 12,-257.64 6,-257.64 0,-251.64 0,-245.64 0,-245.64 0,-201 0,-201 0,-195 6,-189 12,-189 12,-189 90.15,-189 90.15,-189 96.15,-189 102.15,-195 102.15,-201 102.15,-201 102.15,-245.64 102.15,-245.64 102.15,-251.64 96.15,-257.64 90.15,-257.64"/>
<text xml:space="preserve" text-anchor="middle" x="51.07" y="-243.82" font-family="Helvetica,sans-Serif" font-size="10.00">Frame Pair Inputs</text>
<text xml:space="preserve" text-anchor="middle" x="51.07" y="-231.82" font-family="Helvetica,sans-Serif" font-size="10.00">sys_even / sys_odd</text>
<text xml:space="preserve" text-anchor="middle" x="51.07" y="-219.82" font-family="Helvetica,sans-Serif" font-size="10.00">par_even / par_odd</text>
<text xml:space="preserve" text-anchor="middle" x="51.07" y="-207.82" font-family="Helvetica,sans-Serif" font-size="10.00">apri_even / apri_odd</text>
<text xml:space="preserve" text-anchor="middle" x="51.07" y="-195.82" font-family="Helvetica,sans-Serif" font-size="10.00">in_pair_idx</text>
</g>
<!-- sys_mem -->
<g id="node3" class="node">
<title>sys_mem</title>
<path fill="#f0fdf4" stroke="#334155" d="M278.67,-241.32C278.67,-241.32 219.27,-241.32 219.27,-241.32 213.27,-241.32 207.27,-235.32 207.27,-229.32 207.27,-229.32 207.27,-217.32 207.27,-217.32 207.27,-211.32 213.27,-205.32 219.27,-205.32 219.27,-205.32 278.67,-205.32 278.67,-205.32 284.67,-205.32 290.67,-211.32 290.67,-217.32 290.67,-217.32 290.67,-229.32 290.67,-229.32 290.67,-235.32 284.67,-241.32 278.67,-241.32"/>
<text xml:space="preserve" text-anchor="middle" x="248.97" y="-225.82" font-family="Helvetica,sans-Serif" font-size="10.00">sys_even_mem</text>
<text xml:space="preserve" text-anchor="middle" x="248.97" y="-213.82" font-family="Helvetica,sans-Serif" font-size="10.00">sys_odd_mem</text>
</g>
<!-- in_frame&#45;&gt;sys_mem -->
<g id="edge1" class="edge">
<title>in_frame&#45;&gt;sys_mem</title>
<path fill="none" stroke="#475569" stroke-width="1.1" d="M102.52,-223.32C132.03,-223.32 169.13,-223.32 198.48,-223.32"/>
<polygon fill="#475569" stroke="#475569" stroke-width="1.1" points="198.26,-225.77 205.26,-223.32 198.26,-220.87 198.26,-225.77"/>
<text xml:space="preserve" text-anchor="middle" x="150.4" y="-225.27" font-family="Helvetica,sans-Serif" font-size="9.00">LOAD write</text>
</g>
<!-- par_mem -->
<g id="node4" class="node">
<title>par_mem</title>
<path fill="#f0fdf4" stroke="#334155" d="M277.55,-176.32C277.55,-176.32 220.4,-176.32 220.4,-176.32 214.4,-176.32 208.4,-170.32 208.4,-164.32 208.4,-164.32 208.4,-152.32 208.4,-152.32 208.4,-146.32 214.4,-140.32 220.4,-140.32 220.4,-140.32 277.55,-140.32 277.55,-140.32 283.55,-140.32 289.55,-146.32 289.55,-152.32 289.55,-152.32 289.55,-164.32 289.55,-164.32 289.55,-170.32 283.55,-176.32 277.55,-176.32"/>
<text xml:space="preserve" text-anchor="middle" x="248.97" y="-160.82" font-family="Helvetica,sans-Serif" font-size="10.00">par_even_mem</text>
<text xml:space="preserve" text-anchor="middle" x="248.97" y="-148.82" font-family="Helvetica,sans-Serif" font-size="10.00">par_odd_mem</text>
</g>
<!-- in_frame&#45;&gt;par_mem -->
<g id="edge2" class="edge">
<title>in_frame&#45;&gt;par_mem</title>
<path fill="none" stroke="#475569" stroke-width="1.1" d="M102.52,-206.58C132.58,-196.61 170.5,-184.03 200.08,-174.21"/>
<polygon fill="#475569" stroke="#475569" stroke-width="1.1" points="200.74,-176.57 206.62,-172.04 199.2,-171.92 200.74,-176.57"/>
<text xml:space="preserve" text-anchor="middle" x="150.4" y="-198.59" font-family="Helvetica,sans-Serif" font-size="9.00">LOAD write</text>
</g>
<!-- apri_mem -->
<g id="node5" class="node">
<title>apri_mem</title>
<path fill="#f0fdf4" stroke="#334155" d="M278.67,-306.32C278.67,-306.32 219.27,-306.32 219.27,-306.32 213.27,-306.32 207.27,-300.32 207.27,-294.32 207.27,-294.32 207.27,-282.32 207.27,-282.32 207.27,-276.32 213.27,-270.32 219.27,-270.32 219.27,-270.32 278.67,-270.32 278.67,-270.32 284.67,-270.32 290.67,-276.32 290.67,-282.32 290.67,-282.32 290.67,-294.32 290.67,-294.32 290.67,-300.32 284.67,-306.32 278.67,-306.32"/>
<text xml:space="preserve" text-anchor="middle" x="248.97" y="-290.82" font-family="Helvetica,sans-Serif" font-size="10.00">apri_even_mem</text>
<text xml:space="preserve" text-anchor="middle" x="248.97" y="-278.82" font-family="Helvetica,sans-Serif" font-size="10.00">apri_odd_mem</text>
</g>
<!-- in_frame&#45;&gt;apri_mem -->
<g id="edge3" class="edge">
<title>in_frame&#45;&gt;apri_mem</title>
<path fill="none" stroke="#475569" stroke-width="1.1" d="M102.52,-240.06C132.16,-249.89 169.45,-262.27 198.86,-272.02"/>
<polygon fill="#475569" stroke="#475569" stroke-width="1.1" points="197.93,-274.3 205.35,-274.18 199.47,-269.65 197.93,-274.3"/>
<text xml:space="preserve" text-anchor="middle" x="150.4" y="-265.5" font-family="Helvetica,sans-Serif" font-size="9.00">LOAD write</text>
</g>
<!-- out_frame -->
<g id="node2" class="node">
<title>out_frame</title>
<path fill="#f8fafc" stroke="#334155" d="M2300.25,-251.64C2300.25,-251.64 2216.1,-251.64 2216.1,-251.64 2210.1,-251.64 2204.1,-245.64 2204.1,-239.64 2204.1,-239.64 2204.1,-207 2204.1,-207 2204.1,-201 2210.1,-195 2216.1,-195 2216.1,-195 2300.25,-195 2300.25,-195 2306.25,-195 2312.25,-201 2312.25,-207 2312.25,-207 2312.25,-239.64 2312.25,-239.64 2312.25,-245.64 2306.25,-251.64 2300.25,-251.64"/>
<text xml:space="preserve" text-anchor="middle" x="2258.18" y="-237.82" font-family="Helvetica,sans-Serif" font-size="10.00">Decoded Outputs</text>
<text xml:space="preserve" text-anchor="middle" x="2258.18" y="-225.82" font-family="Helvetica,sans-Serif" font-size="10.00">out_pair_idx</text>
<text xml:space="preserve" text-anchor="middle" x="2258.18" y="-213.82" font-family="Helvetica,sans-Serif" font-size="10.00">ext_even / ext_odd</text>
<text xml:space="preserve" text-anchor="middle" x="2258.18" y="-201.82" font-family="Helvetica,sans-Serif" font-size="10.00">post_even / post_odd</text>
</g>
<!-- frame_mux -->
<g id="node6" class="node">
<title>frame_mux</title>
<path fill="#f0fdf4" stroke="#334155" d="M618.7,-241.32C618.7,-241.32 448.3,-241.32 448.3,-241.32 442.3,-241.32 436.3,-235.32 436.3,-229.32 436.3,-229.32 436.3,-217.32 436.3,-217.32 436.3,-211.32 442.3,-205.32 448.3,-205.32 448.3,-205.32 618.7,-205.32 618.7,-205.32 624.7,-205.32 630.7,-211.32 630.7,-217.32 630.7,-217.32 630.7,-229.32 630.7,-229.32 630.7,-235.32 624.7,-241.32 618.7,-241.32"/>
<text xml:space="preserve" text-anchor="middle" x="533.5" y="-225.82" font-family="Helvetica,sans-Serif" font-size="10.00">Selected Pair Read</text>
<text xml:space="preserve" text-anchor="middle" x="533.5" y="-213.82" font-family="Helvetica,sans-Serif" font-size="10.00">frame_sys_* / frame_par_* / frame_apri_*</text>
</g>
<!-- sys_mem&#45;&gt;frame_mux -->
<g id="edge4" class="edge">
<title>sys_mem&#45;&gt;frame_mux</title>
<path fill="none" stroke="#475569" stroke-width="1.1" d="M291.06,-223.32C326.79,-223.32 380.14,-223.32 427.61,-223.32"/>
<polygon fill="#475569" stroke="#475569" stroke-width="1.1" points="427.43,-225.77 434.43,-223.32 427.43,-220.87 427.43,-225.77"/>
<text xml:space="preserve" text-anchor="middle" x="367.8" y="-225.27" font-family="Helvetica,sans-Serif" font-size="9.00">selected pair</text>
</g>
<!-- par_mem&#45;&gt;frame_mux -->
<g id="edge5" class="edge">
<title>par_mem&#45;&gt;frame_mux</title>
<path fill="none" stroke="#475569" stroke-width="1.1" d="M289.85,-167.5C329.7,-176.66 392.3,-191.07 443.94,-202.94"/>
<polygon fill="#475569" stroke="#475569" stroke-width="1.1" points="443.13,-205.27 450.5,-204.45 444.23,-200.5 443.13,-205.27"/>
<text xml:space="preserve" text-anchor="middle" x="367.8" y="-196.66" font-family="Helvetica,sans-Serif" font-size="9.00">selected pair</text>
</g>
<!-- apri_mem&#45;&gt;frame_mux -->
<g id="edge6" class="edge">
<title>apri_mem&#45;&gt;frame_mux</title>
<path fill="none" stroke="#475569" stroke-width="1.1" d="M291.06,-278.87C330.92,-269.7 392.72,-255.48 443.82,-243.72"/>
<polygon fill="#475569" stroke="#475569" stroke-width="1.1" points="444.35,-246.11 450.62,-242.16 443.25,-241.34 444.35,-246.11"/>
<text xml:space="preserve" text-anchor="middle" x="367.8" y="-272.84" font-family="Helvetica,sans-Serif" font-size="9.00">selected pair</text>
</g>
<!-- bm_even -->
<g id="node7" class="node">
<title>bm_even</title>
<path fill="#fffbeb" stroke="#334155" d="M862.72,-306.32C862.72,-306.32 799.57,-306.32 799.57,-306.32 793.57,-306.32 787.57,-300.32 787.57,-294.32 787.57,-294.32 787.57,-282.32 787.57,-282.32 787.57,-276.32 793.57,-270.32 799.57,-270.32 799.57,-270.32 862.72,-270.32 862.72,-270.32 868.72,-270.32 874.72,-276.32 874.72,-282.32 874.72,-282.32 874.72,-294.32 874.72,-294.32 874.72,-300.32 868.72,-306.32 862.72,-306.32"/>
<text xml:space="preserve" text-anchor="middle" x="831.15" y="-290.82" font-family="Helvetica,sans-Serif" font-size="10.00">branch_metrics()</text>
<text xml:space="preserve" text-anchor="middle" x="831.15" y="-278.82" font-family="Helvetica,sans-Serif" font-size="10.00">even bit</text>
</g>
<!-- frame_mux&#45;&gt;bm_even -->
<g id="edge7" class="edge">
<title>frame_mux&#45;&gt;bm_even</title>
<path fill="none" stroke="#475569" stroke-width="1.1" d="M618.43,-241.77C670.23,-253.16 735,-267.4 779.17,-277.11"/>
<polygon fill="#475569" stroke="#475569" stroke-width="1.1" points="778.45,-279.46 785.82,-278.57 779.5,-274.68 778.45,-279.46"/>
<text xml:space="preserve" text-anchor="middle" x="698.45" y="-269.25" font-family="Helvetica,sans-Serif" font-size="9.00">even sys/par/apri</text>
</g>
<!-- bm_odd -->
<g id="node8" class="node">
<title>bm_odd</title>
<path fill="#fffbeb" stroke="#334155" d="M862.72,-241.32C862.72,-241.32 799.57,-241.32 799.57,-241.32 793.57,-241.32 787.57,-235.32 787.57,-229.32 787.57,-229.32 787.57,-217.32 787.57,-217.32 787.57,-211.32 793.57,-205.32 799.57,-205.32 799.57,-205.32 862.72,-205.32 862.72,-205.32 868.72,-205.32 874.72,-211.32 874.72,-217.32 874.72,-217.32 874.72,-229.32 874.72,-229.32 874.72,-235.32 868.72,-241.32 862.72,-241.32"/>
<text xml:space="preserve" text-anchor="middle" x="831.15" y="-225.82" font-family="Helvetica,sans-Serif" font-size="10.00">branch_metrics()</text>
<text xml:space="preserve" text-anchor="middle" x="831.15" y="-213.82" font-family="Helvetica,sans-Serif" font-size="10.00">odd bit</text>
</g>
<!-- frame_mux&#45;&gt;bm_odd -->
<g id="edge8" class="edge">
<title>frame_mux&#45;&gt;bm_odd</title>
<path fill="none" stroke="#475569" stroke-width="1.1" d="M630.9,-223.32C680.04,-223.32 737.83,-223.32 778.49,-223.32"/>
<polygon fill="#475569" stroke="#475569" stroke-width="1.1" points="778.49,-225.77 785.49,-223.32 778.49,-220.87 778.49,-225.77"/>
<text xml:space="preserve" text-anchor="middle" x="698.45" y="-225.27" font-family="Helvetica,sans-Serif" font-size="9.00">odd sys/par/apri</text>
</g>
<!-- local_store -->
<g id="node17" class="node">
<title>local_store</title>
<path fill="#fff7ed" stroke="#334155" d="M1411.15,-241.32C1411.15,-241.32 1313.5,-241.32 1313.5,-241.32 1307.5,-241.32 1301.5,-235.32 1301.5,-229.32 1301.5,-229.32 1301.5,-217.32 1301.5,-217.32 1301.5,-211.32 1307.5,-205.32 1313.5,-205.32 1313.5,-205.32 1411.15,-205.32 1411.15,-205.32 1417.15,-205.32 1423.15,-211.32 1423.15,-217.32 1423.15,-217.32 1423.15,-229.32 1423.15,-229.32 1423.15,-235.32 1417.15,-241.32 1411.15,-241.32"/>
<text xml:space="preserve" text-anchor="middle" x="1362.32" y="-219.82" font-family="Helvetica,sans-Serif" font-size="10.00">LOCAL_FWD store path</text>
</g>
<!-- frame_mux&#45;&gt;local_store -->
<g id="edge21" class="edge">
<title>frame_mux&#45;&gt;local_store</title>
<path fill="none" stroke="#475569" stroke-width="1.1" d="M574.86,-204.86C641.24,-174.49 766.2,-117.32 766.2,-117.32 766.2,-117.32 896.1,-117.32 896.1,-117.32 896.1,-117.32 1163.92,-178.34 1293.15,-207.79"/>
<polygon fill="#475569" stroke="#475569" stroke-width="1.1" points="1292.46,-210.14 1299.83,-209.31 1293.55,-205.37 1292.46,-210.14"/>
<text xml:space="preserve" text-anchor="middle" x="970.6" y="-147.48" font-family="Helvetica,sans-Serif" font-size="9.00">LOCAL_FWD frame pair</text>
</g>
<!-- gamma -->
<g id="node9" class="node">
<title>gamma</title>
<path fill="#fffbeb" stroke="#334155" d="M1167.5,-241.32C1167.5,-241.32 1063.85,-241.32 1063.85,-241.32 1057.85,-241.32 1051.85,-235.32 1051.85,-229.32 1051.85,-229.32 1051.85,-217.32 1051.85,-217.32 1051.85,-211.32 1057.85,-205.32 1063.85,-205.32 1063.85,-205.32 1167.5,-205.32 1167.5,-205.32 1173.5,-205.32 1179.5,-211.32 1179.5,-217.32 1179.5,-217.32 1179.5,-229.32 1179.5,-229.32 1179.5,-235.32 1173.5,-241.32 1167.5,-241.32"/>
<text xml:space="preserve" text-anchor="middle" x="1115.67" y="-225.82" font-family="Helvetica,sans-Serif" font-size="10.00">pair_gamma()</text>
<text xml:space="preserve" text-anchor="middle" x="1115.67" y="-213.82" font-family="Helvetica,sans-Serif" font-size="10.00">16&#45;entry radix&#45;4 gamma_v</text>
</g>
<!-- bm_even&#45;&gt;gamma -->
<g id="edge9" class="edge">
<title>bm_even&#45;&gt;gamma</title>
<path fill="none" stroke="#475569" stroke-width="1.1" d="M875.06,-278.45C919.6,-268.2 990.05,-251.99 1043.05,-239.8"/>
<polygon fill="#475569" stroke="#475569" stroke-width="1.1" points="1043.51,-242.21 1049.78,-238.25 1042.41,-237.43 1043.51,-242.21"/>
</g>
<!-- bm_odd&#45;&gt;gamma -->
<g id="edge10" class="edge">
<title>bm_odd&#45;&gt;gamma</title>
<path fill="none" stroke="#475569" stroke-width="1.1" d="M875.06,-223.32C919.6,-223.32 990.05,-223.32 1043.05,-223.32"/>
<polygon fill="#475569" stroke="#475569" stroke-width="1.1" points="1042.74,-225.77 1049.74,-223.32 1042.74,-220.87 1042.74,-225.77"/>
</g>
<!-- acs -->
<g id="node13" class="node">
<title>acs</title>
<path fill="#fdf2f8" stroke="#334155" d="M1399.9,-405.64C1399.9,-405.64 1324.75,-405.64 1324.75,-405.64 1318.75,-405.64 1312.75,-399.64 1312.75,-393.64 1312.75,-393.64 1312.75,-373 1312.75,-373 1312.75,-367 1318.75,-361 1324.75,-361 1324.75,-361 1399.9,-361 1399.9,-361 1405.9,-361 1411.9,-367 1411.9,-373 1411.9,-373 1411.9,-393.64 1411.9,-393.64 1411.9,-399.64 1405.9,-405.64 1399.9,-405.64"/>
<text xml:space="preserve" text-anchor="middle" x="1362.32" y="-391.82" font-family="Helvetica,sans-Serif" font-size="10.00">acs_step()</text>
<text xml:space="preserve" text-anchor="middle" x="1362.32" y="-379.82" font-family="Helvetica,sans-Serif" font-size="10.00">shared radix&#45;4 ACS</text>
<text xml:space="preserve" text-anchor="middle" x="1362.32" y="-367.82" font-family="Helvetica,sans-Serif" font-size="10.00">forward / backward</text>
</g>
<!-- gamma&#45;&gt;acs -->
<g id="edge11" class="edge">
<title>gamma&#45;&gt;acs</title>
<path fill="none" stroke="#475569" stroke-width="1.1" d="M1164.63,-241.77C1211.71,-259.89 1276.5,-284.82 1276.5,-284.82 1276.5,-284.82 1293.5,-345.32 1293.5,-345.32 1293.5,-345.32 1302.08,-350.13 1313.14,-356.32"/>
<polygon fill="#475569" stroke="#475569" stroke-width="1.1" points="1311.94,-358.46 1319.24,-359.74 1314.33,-354.18 1311.94,-358.46"/>
<text xml:space="preserve" text-anchor="middle" x="1243.87" y="-286.77" font-family="Helvetica,sans-Serif" font-size="9.00">gamma_v</text>
</g>
<!-- gamma&#45;&gt;local_store -->
<g id="edge22" class="edge">
<title>gamma&#45;&gt;local_store</title>
<path fill="none" stroke="#475569" stroke-width="1.1" d="M1180,-223.32C1214.6,-223.32 1257.49,-223.32 1292.86,-223.32"/>
<polygon fill="#475569" stroke="#475569" stroke-width="1.1" points="1292.55,-225.77 1299.55,-223.32 1292.55,-220.87 1292.55,-225.77"/>
<text xml:space="preserve" text-anchor="middle" x="1243.87" y="-225.27" font-family="Helvetica,sans-Serif" font-size="9.00">gamma_v</text>
</g>
<!-- alpha_reg -->
<g id="node10" class="node">
<title>alpha_reg</title>
<path fill="#fdf2f8" stroke="#334155" d="M1136.75,-401.32C1136.75,-401.32 1094.6,-401.32 1094.6,-401.32 1088.6,-401.32 1082.6,-395.32 1082.6,-389.32 1082.6,-389.32 1082.6,-377.32 1082.6,-377.32 1082.6,-371.32 1088.6,-365.32 1094.6,-365.32 1094.6,-365.32 1136.75,-365.32 1136.75,-365.32 1142.75,-365.32 1148.75,-371.32 1148.75,-377.32 1148.75,-377.32 1148.75,-389.32 1148.75,-389.32 1148.75,-395.32 1142.75,-401.32 1136.75,-401.32"/>
<text xml:space="preserve" text-anchor="middle" x="1115.67" y="-385.82" font-family="Helvetica,sans-Serif" font-size="10.00">alpha_work</text>
<text xml:space="preserve" text-anchor="middle" x="1115.67" y="-373.82" font-family="Helvetica,sans-Serif" font-size="10.00">8 x metric_t</text>
</g>
<!-- alpha_reg&#45;&gt;acs -->
<g id="edge12" class="edge">
<title>alpha_reg&#45;&gt;acs</title>
<path fill="none" stroke="#475569" stroke-width="1.1" d="M1149.22,-383.15C1176.58,-383 1211.25,-382.82 1211.25,-382.82 1211.25,-382.82 1276.5,-382.82 1276.5,-382.82 1276.5,-382.82 1288.69,-382.89 1303.82,-382.98"/>
<polygon fill="#475569" stroke="#475569" stroke-width="1.1" points="1303.79,-385.43 1310.81,-383.02 1303.82,-380.53 1303.79,-385.43"/>
<text xml:space="preserve" text-anchor="middle" x="1243.87" y="-384.77" font-family="Helvetica,sans-Serif" font-size="9.00">forward state_in</text>
</g>
<!-- packer -->
<g id="node14" class="node">
<title>packer</title>
<path fill="#f5f3ff" stroke="#334155" d="M287.3,-456.32C287.3,-456.32 210.65,-456.32 210.65,-456.32 204.65,-456.32 198.65,-450.32 198.65,-444.32 198.65,-444.32 198.65,-432.32 198.65,-432.32 198.65,-426.32 204.65,-420.32 210.65,-420.32 210.65,-420.32 287.3,-420.32 287.3,-420.32 293.3,-420.32 299.3,-426.32 299.3,-432.32 299.3,-432.32 299.3,-444.32 299.3,-444.32 299.3,-450.32 293.3,-456.32 287.3,-456.32"/>
<text xml:space="preserve" text-anchor="middle" x="248.97" y="-434.82" font-family="Helvetica,sans-Serif" font-size="10.00">pack_state_metric()</text>
</g>
<!-- alpha_reg&#45;&gt;packer -->
<g id="edge17" class="edge">
<title>alpha_reg&#45;&gt;packer</title>
<path fill="none" stroke="#475569" stroke-width="1.1" d="M1082.41,-384.18C947.6,-387.75 436.3,-401.32 436.3,-401.32 436.3,-401.32 362.4,-416 307.68,-426.86"/>
<polygon fill="#475569" stroke="#475569" stroke-width="1.1" points="307.44,-424.41 301.05,-428.18 308.39,-429.22 307.44,-424.41"/>
<text xml:space="preserve" text-anchor="middle" x="698.45" y="-397.33" font-family="Helvetica,sans-Serif" font-size="9.00">store seed</text>
</g>
<!-- alpha_reg&#45;&gt;local_store -->
<g id="edge23" class="edge">
<title>alpha_reg&#45;&gt;local_store</title>
<path fill="none" stroke="#475569" stroke-width="1.1" d="M1149.02,-366.12C1195.72,-341.28 1276.5,-298.32 1276.5,-298.32 1276.5,-298.32 1309.52,-269.12 1334.36,-247.16"/>
<polygon fill="#475569" stroke="#475569" stroke-width="1.1" points="1335.92,-249.05 1339.54,-242.58 1332.68,-245.38 1335.92,-249.05"/>
<text xml:space="preserve" text-anchor="middle" x="1243.87" y="-332.66" font-family="Helvetica,sans-Serif" font-size="9.00">entering alpha</text>
</g>
<!-- beta_reg -->
<g id="node11" class="node">
<title>beta_reg</title>
<path fill="#fdf2f8" stroke="#334155" d="M1642.42,-423.32C1642.42,-423.32 1600.27,-423.32 1600.27,-423.32 1594.27,-423.32 1588.27,-417.32 1588.27,-411.32 1588.27,-411.32 1588.27,-399.32 1588.27,-399.32 1588.27,-393.32 1594.27,-387.32 1600.27,-387.32 1600.27,-387.32 1642.42,-387.32 1642.42,-387.32 1648.42,-387.32 1654.42,-393.32 1654.42,-399.32 1654.42,-399.32 1654.42,-411.32 1654.42,-411.32 1654.42,-417.32 1648.42,-423.32 1642.42,-423.32"/>
<text xml:space="preserve" text-anchor="middle" x="1621.35" y="-407.82" font-family="Helvetica,sans-Serif" font-size="10.00">beta_work</text>
<text xml:space="preserve" text-anchor="middle" x="1621.35" y="-395.82" font-family="Helvetica,sans-Serif" font-size="10.00">8 x metric_t</text>
</g>
<!-- beta_reg&#45;&gt;acs -->
<g id="edge13" class="edge">
<title>beta_reg&#45;&gt;acs</title>
<path fill="none" stroke="#475569" stroke-width="1.1" d="M1587.96,-403.44C1538.08,-400.54 1448.15,-395.32 1448.15,-395.32 1448.15,-395.32 1435.74,-393.56 1420.41,-391.4"/>
<polygon fill="#475569" stroke="#475569" stroke-width="1.1" points="1421.1,-389.02 1413.83,-390.46 1420.41,-393.87 1421.1,-389.02"/>
<text xml:space="preserve" text-anchor="middle" x="1492.77" y="-402.27" font-family="Helvetica,sans-Serif" font-size="9.00">backward state_in</text>
</g>
<!-- extract -->
<g id="node21" class="node">
<title>extract</title>
<path fill="#ecfeff" stroke="#334155" d="M1900.7,-263.64C1900.7,-263.64 1817.3,-263.64 1817.3,-263.64 1811.3,-263.64 1805.3,-257.64 1805.3,-251.64 1805.3,-251.64 1805.3,-195 1805.3,-195 1805.3,-189 1811.3,-183 1817.3,-183 1817.3,-183 1900.7,-183 1900.7,-183 1906.7,-183 1912.7,-189 1912.7,-195 1912.7,-195 1912.7,-251.64 1912.7,-251.64 1912.7,-257.64 1906.7,-263.64 1900.7,-263.64"/>
<text xml:space="preserve" text-anchor="middle" x="1859" y="-249.82" font-family="Helvetica,sans-Serif" font-size="10.00">extract_pair()</text>
<text xml:space="preserve" text-anchor="middle" x="1859" y="-237.82" font-family="Helvetica,sans-Serif" font-size="10.00">alpha_mid / beta_mid</text>
<text xml:space="preserve" text-anchor="middle" x="1859" y="-225.82" font-family="Helvetica,sans-Serif" font-size="10.00">max trees</text>
<text xml:space="preserve" text-anchor="middle" x="1859" y="-213.82" font-family="Helvetica,sans-Serif" font-size="10.00">posterior</text>
<text xml:space="preserve" text-anchor="middle" x="1859" y="-201.82" font-family="Helvetica,sans-Serif" font-size="10.00">extrinsic</text>
<text xml:space="preserve" text-anchor="middle" x="1859" y="-189.82" font-family="Helvetica,sans-Serif" font-size="10.00">scale_ext(11/16)</text>
</g>
<!-- beta_reg&#45;&gt;extract -->
<g id="edge29" class="edge">
<title>beta_reg&#45;&gt;extract</title>
<path fill="none" stroke="#475569" stroke-width="1.1" d="M1646.24,-386.87C1681.67,-359.51 1749.24,-307.32 1798.56,-269.23"/>
<polygon fill="#475569" stroke="#475569" stroke-width="1.1" points="1800.03,-271.19 1804.07,-264.97 1797.03,-267.31 1800.03,-271.19"/>
<text xml:space="preserve" text-anchor="middle" x="1742.8" y="-337.92" font-family="Helvetica,sans-Serif" font-size="9.00">current beta</text>
</g>
<!-- beta_seed -->
<g id="node12" class="node">
<title>beta_seed</title>
<path fill="#fdf2f8" stroke="#334155" d="M1389.4,-483.32C1389.4,-483.32 1335.25,-483.32 1335.25,-483.32 1329.25,-483.32 1323.25,-477.32 1323.25,-471.32 1323.25,-471.32 1323.25,-459.32 1323.25,-459.32 1323.25,-453.32 1329.25,-447.32 1335.25,-447.32 1335.25,-447.32 1389.4,-447.32 1389.4,-447.32 1395.4,-447.32 1401.4,-453.32 1401.4,-459.32 1401.4,-459.32 1401.4,-471.32 1401.4,-471.32 1401.4,-477.32 1395.4,-483.32 1389.4,-483.32"/>
<text xml:space="preserve" text-anchor="middle" x="1362.32" y="-461.82" font-family="Helvetica,sans-Serif" font-size="10.00">beta_seed_reg</text>
</g>
<!-- beta_seed&#45;&gt;beta_reg -->
<g id="edge16" class="edge">
<title>beta_seed&#45;&gt;beta_reg</title>
<path fill="none" stroke="#475569" stroke-width="1.1" d="M1401.8,-456.34C1449.63,-445.17 1530.88,-426.21 1579.69,-414.81"/>
<polygon fill="#475569" stroke="#475569" stroke-width="1.1" points="1580.24,-417.2 1586.5,-413.22 1579.13,-412.43 1580.24,-417.2"/>
<text xml:space="preserve" text-anchor="middle" x="1492.77" y="-446.15" font-family="Helvetica,sans-Serif" font-size="9.00">window beta start</text>
</g>
<!-- acs&#45;&gt;alpha_reg -->
<g id="edge14" class="edge">
<title>acs&#45;&gt;alpha_reg</title>
<path fill="none" stroke="#475569" stroke-width="1.1" d="M1312.47,-390.23C1293.62,-392.9 1276.5,-395.32 1276.5,-395.32 1276.5,-395.32 1211.25,-395.32 1211.25,-395.32 1211.25,-395.32 1183.26,-391.77 1157.74,-388.53"/>
<polygon fill="#475569" stroke="#475569" stroke-width="1.1" points="1158.13,-386.11 1150.87,-387.66 1157.51,-390.97 1158.13,-386.11"/>
<text xml:space="preserve" text-anchor="middle" x="1243.87" y="-397.27" font-family="Helvetica,sans-Serif" font-size="9.00">alpha_next_v</text>
</g>
<!-- acs&#45;&gt;beta_reg -->
<g id="edge15" class="edge">
<title>acs&#45;&gt;beta_reg</title>
<path fill="none" stroke="#475569" stroke-width="1.1" d="M1412.18,-383.03C1431.03,-382.92 1448.15,-382.82 1448.15,-382.82 1448.15,-382.82 1537.4,-382.82 1537.4,-382.82 1537.4,-382.82 1558.72,-388.6 1579.74,-394.3"/>
<polygon fill="#475569" stroke="#475569" stroke-width="1.1" points="1579.04,-396.65 1586.44,-396.12 1580.32,-391.92 1579.04,-396.65"/>
<text xml:space="preserve" text-anchor="middle" x="1492.77" y="-384.77" font-family="Helvetica,sans-Serif" font-size="9.00">beta_next_v</text>
</g>
<!-- alpha_seed_ram -->
<g id="node15" class="node">
<title>alpha_seed_ram</title>
<path fill="#f5f3ff" stroke="#334155" d="M573.7,-460.64C573.7,-460.64 493.3,-460.64 493.3,-460.64 487.3,-460.64 481.3,-454.64 481.3,-448.64 481.3,-448.64 481.3,-428 481.3,-428 481.3,-422 487.3,-416 493.3,-416 493.3,-416 573.7,-416 573.7,-416 579.7,-416 585.7,-422 585.7,-428 585.7,-428 585.7,-448.64 585.7,-448.64 585.7,-454.64 579.7,-460.64 573.7,-460.64"/>
<text xml:space="preserve" text-anchor="middle" x="533.5" y="-446.82" font-family="Helvetica,sans-Serif" font-size="10.00">alpha_seed_ram</text>
<text xml:space="preserve" text-anchor="middle" x="533.5" y="-434.82" font-family="Helvetica,sans-Serif" font-size="10.00">simple_dp_bram</text>
<text xml:space="preserve" text-anchor="middle" x="533.5" y="-422.82" font-family="Helvetica,sans-Serif" font-size="10.00">80&#45;bit seed / window</text>
</g>
<!-- packer&#45;&gt;alpha_seed_ram -->
<g id="edge18" class="edge">
<title>packer&#45;&gt;alpha_seed_ram</title>
<path fill="none" stroke="#475569" stroke-width="1.1" d="M299.51,-438.32C347.78,-438.32 421.23,-438.32 472.72,-438.32"/>
<polygon fill="#475569" stroke="#475569" stroke-width="1.1" points="472.45,-440.77 479.45,-438.32 472.45,-435.87 472.45,-440.77"/>
<text xml:space="preserve" text-anchor="middle" x="367.8" y="-440.27" font-family="Helvetica,sans-Serif" font-size="9.00">alpha_seed_wr_data</text>
</g>
<!-- unpacker -->
<g id="node16" class="node">
<title>unpacker</title>
<path fill="#f5f3ff" stroke="#334155" d="M874.72,-456.32C874.72,-456.32 787.57,-456.32 787.57,-456.32 781.57,-456.32 775.57,-450.32 775.57,-444.32 775.57,-444.32 775.57,-432.32 775.57,-432.32 775.57,-426.32 781.57,-420.32 787.57,-420.32 787.57,-420.32 874.72,-420.32 874.72,-420.32 880.72,-420.32 886.72,-426.32 886.72,-432.32 886.72,-432.32 886.72,-444.32 886.72,-444.32 886.72,-450.32 880.72,-456.32 874.72,-456.32"/>
<text xml:space="preserve" text-anchor="middle" x="831.15" y="-434.82" font-family="Helvetica,sans-Serif" font-size="10.00">unpack_state_metric()</text>
</g>
<!-- alpha_seed_ram&#45;&gt;unpacker -->
<g id="edge19" class="edge">
<title>alpha_seed_ram&#45;&gt;unpacker</title>
<path fill="none" stroke="#475569" stroke-width="1.1" d="M586,-438.32C636.25,-438.32 712.81,-438.32 766.77,-438.32"/>
<polygon fill="#475569" stroke="#475569" stroke-width="1.1" points="766.57,-440.77 773.57,-438.32 766.57,-435.87 766.57,-440.77"/>
<text xml:space="preserve" text-anchor="middle" x="698.45" y="-440.27" font-family="Helvetica,sans-Serif" font-size="9.00">alpha_seed_rd_data</text>
</g>
<!-- unpacker&#45;&gt;alpha_reg -->
<g id="edge20" class="edge">
<title>unpacker&#45;&gt;alpha_reg</title>
<path fill="none" stroke="#475569" stroke-width="1.1" d="M886.96,-427.65C941.76,-416.98 1024.76,-400.82 1073.97,-391.25"/>
<polygon fill="#475569" stroke="#475569" stroke-width="1.1" points="1074.41,-393.65 1080.82,-389.91 1073.48,-388.84 1074.41,-393.65"/>
<text xml:space="preserve" text-anchor="middle" x="970.6" y="-422.48" font-family="Helvetica,sans-Serif" font-size="9.00">window alpha start</text>
</g>
<!-- alpha_local -->
<g id="node18" class="node">
<title>alpha_local</title>
<path fill="#fff7ed" stroke="#334155" d="M1654.42,-176.32C1654.42,-176.32 1588.27,-176.32 1588.27,-176.32 1582.27,-176.32 1576.27,-170.32 1576.27,-164.32 1576.27,-164.32 1576.27,-152.32 1576.27,-152.32 1576.27,-146.32 1582.27,-140.32 1588.27,-140.32 1588.27,-140.32 1654.42,-140.32 1654.42,-140.32 1660.42,-140.32 1666.42,-146.32 1666.42,-152.32 1666.42,-152.32 1666.42,-164.32 1666.42,-164.32 1666.42,-170.32 1660.42,-176.32 1654.42,-176.32"/>
<text xml:space="preserve" text-anchor="middle" x="1621.35" y="-154.82" font-family="Helvetica,sans-Serif" font-size="10.00">alpha_local_mem</text>
</g>
<!-- local_store&#45;&gt;alpha_local -->
<g id="edge24" class="edge">
<title>local_store&#45;&gt;alpha_local</title>
<path fill="none" stroke="#475569" stroke-width="1.1" d="M1423.59,-208.08C1467.31,-197.02 1525.89,-182.21 1567.73,-171.63"/>
<polygon fill="#475569" stroke="#475569" stroke-width="1.1" points="1568.34,-174 1574.52,-169.91 1567.13,-169.25 1568.34,-174"/>
</g>
<!-- gamma_local -->
<g id="node19" class="node">
<title>gamma_local</title>
<path fill="#fff7ed" stroke="#334155" d="M1658.92,-306.32C1658.92,-306.32 1583.77,-306.32 1583.77,-306.32 1577.77,-306.32 1571.77,-300.32 1571.77,-294.32 1571.77,-294.32 1571.77,-282.32 1571.77,-282.32 1571.77,-276.32 1577.77,-270.32 1583.77,-270.32 1583.77,-270.32 1658.92,-270.32 1658.92,-270.32 1664.92,-270.32 1670.92,-276.32 1670.92,-282.32 1670.92,-282.32 1670.92,-294.32 1670.92,-294.32 1670.92,-300.32 1664.92,-306.32 1658.92,-306.32"/>
<text xml:space="preserve" text-anchor="middle" x="1621.35" y="-284.82" font-family="Helvetica,sans-Serif" font-size="10.00">gamma_local_mem</text>
</g>
<!-- local_store&#45;&gt;gamma_local -->
<g id="edge25" class="edge">
<title>local_store&#45;&gt;gamma_local</title>
<path fill="none" stroke="#475569" stroke-width="1.1" d="M1423.59,-238.56C1465.79,-249.23 1521.82,-263.4 1563.29,-273.89"/>
<polygon fill="#475569" stroke="#475569" stroke-width="1.1" points="1562.65,-276.25 1570.03,-275.6 1563.85,-271.5 1562.65,-276.25"/>
</g>
<!-- obs_local -->
<g id="node20" class="node">
<title>obs_local</title>
<path fill="#fff7ed" stroke="#334155" d="M1668.3,-241.32C1668.3,-241.32 1574.4,-241.32 1574.4,-241.32 1568.4,-241.32 1562.4,-235.32 1562.4,-229.32 1562.4,-229.32 1562.4,-217.32 1562.4,-217.32 1562.4,-211.32 1568.4,-205.32 1574.4,-205.32 1574.4,-205.32 1668.3,-205.32 1668.3,-205.32 1674.3,-205.32 1680.3,-211.32 1680.3,-217.32 1680.3,-217.32 1680.3,-229.32 1680.3,-229.32 1680.3,-235.32 1674.3,-241.32 1668.3,-241.32"/>
<text xml:space="preserve" text-anchor="middle" x="1621.35" y="-225.82" font-family="Helvetica,sans-Serif" font-size="10.00">local observation mems</text>
<text xml:space="preserve" text-anchor="middle" x="1621.35" y="-213.82" font-family="Helvetica,sans-Serif" font-size="10.00">sys/par/apri</text>
</g>
<!-- local_store&#45;&gt;obs_local -->
<g id="edge26" class="edge">
<title>local_store&#45;&gt;obs_local</title>
<path fill="none" stroke="#475569" stroke-width="1.1" d="M1423.59,-223.32C1462.65,-223.32 1513.57,-223.32 1553.82,-223.32"/>
<polygon fill="#475569" stroke="#475569" stroke-width="1.1" points="1553.57,-225.77 1560.57,-223.32 1553.57,-220.87 1553.57,-225.77"/>
</g>
<!-- alpha_local&#45;&gt;extract -->
<g id="edge27" class="edge">
<title>alpha_local&#45;&gt;extract</title>
<path fill="none" stroke="#475569" stroke-width="1.1" d="M1666.67,-170.55C1703.47,-180.7 1756.19,-195.24 1796.97,-206.49"/>
<polygon fill="#475569" stroke="#475569" stroke-width="1.1" points="1796.22,-208.82 1803.62,-208.32 1797.52,-204.1 1796.22,-208.82"/>
<text xml:space="preserve" text-anchor="middle" x="1742.8" y="-202.39" font-family="Helvetica,sans-Serif" font-size="9.00">stored alpha</text>
</g>
<!-- gamma_local&#45;&gt;acs -->
<g id="edge30" class="edge">
<title>gamma_local&#45;&gt;acs</title>
<path fill="none" stroke="#475569" stroke-width="1.1" d="M1571.58,-306.35C1528.49,-322.27 1465.63,-345.51 1420.25,-362.28"/>
<polygon fill="#475569" stroke="#475569" stroke-width="1.1" points="1419.55,-359.93 1413.84,-364.65 1421.25,-364.52 1419.55,-359.93"/>
<text xml:space="preserve" text-anchor="middle" x="1492.77" y="-351.83" font-family="Helvetica,sans-Serif" font-size="9.00">LOCAL_BWD gamma</text>
</g>
<!-- obs_local&#45;&gt;extract -->
<g id="edge28" class="edge">
<title>obs_local&#45;&gt;extract</title>
<path fill="none" stroke="#475569" stroke-width="1.1" d="M1680.6,-223.32C1715.8,-223.32 1760.64,-223.32 1796.42,-223.32"/>
<polygon fill="#475569" stroke="#475569" stroke-width="1.1" points="1796.18,-225.77 1803.18,-223.32 1796.18,-220.87 1796.18,-225.77"/>
<text xml:space="preserve" text-anchor="middle" x="1742.8" y="-225.27" font-family="Helvetica,sans-Serif" font-size="9.00">stored sys/par/apri</text>
</g>
<!-- out_regs -->
<g id="node22" class="node">
<title>out_regs</title>
<path fill="#ecfeff" stroke="#334155" d="M2068.6,-241.32C2068.6,-241.32 2010.7,-241.32 2010.7,-241.32 2004.7,-241.32 1998.7,-235.32 1998.7,-229.32 1998.7,-229.32 1998.7,-217.32 1998.7,-217.32 1998.7,-211.32 2004.7,-205.32 2010.7,-205.32 2010.7,-205.32 2068.6,-205.32 2068.6,-205.32 2074.6,-205.32 2080.6,-211.32 2080.6,-217.32 2080.6,-217.32 2080.6,-229.32 2080.6,-229.32 2080.6,-235.32 2074.6,-241.32 2068.6,-241.32"/>
<text xml:space="preserve" text-anchor="middle" x="2039.65" y="-219.82" font-family="Helvetica,sans-Serif" font-size="10.00">output registers</text>
</g>
<!-- extract&#45;&gt;out_regs -->
<g id="edge31" class="edge">
<title>extract&#45;&gt;out_regs</title>
<path fill="none" stroke="#475569" stroke-width="1.1" d="M1913.12,-223.32C1937.39,-223.32 1965.96,-223.32 1989.71,-223.32"/>
<polygon fill="#475569" stroke="#475569" stroke-width="1.1" points="1989.56,-225.77 1996.56,-223.32 1989.56,-220.87 1989.56,-225.77"/>
<text xml:space="preserve" text-anchor="middle" x="1955.7" y="-225.27" font-family="Helvetica,sans-Serif" font-size="9.00">ext / post</text>
</g>
<!-- out_regs&#45;&gt;out_frame -->
<g id="edge32" class="edge">
<title>out_regs&#45;&gt;out_frame</title>
<path fill="none" stroke="#475569" stroke-width="1.1" d="M2080.87,-223.32C2112.91,-223.32 2158.33,-223.32 2195.04,-223.32"/>
<polygon fill="#475569" stroke="#475569" stroke-width="1.1" points="2195.02,-225.77 2202.02,-223.32 2195.02,-220.87 2195.02,-225.77"/>
<text xml:space="preserve" text-anchor="middle" x="2142.35" y="-225.27" font-family="Helvetica,sans-Serif" font-size="9.00">registered outputs</text>
</g>
<!-- note0 -->
<g id="node23" class="node">
<title>note0</title>
<polygon fill="#fefce8" stroke="#eab308" points="890.1,-176.64 766.2,-176.64 766.2,-132 896.1,-132 896.1,-170.64 890.1,-176.64"/>
<polyline fill="none" stroke="#eab308" points="890.1,-176.64 890.1,-170.64"/>
<polyline fill="none" stroke="#eab308" points="896.1,-170.64 890.1,-170.64"/>
<text xml:space="preserve" text-anchor="middle" x="831.15" y="-162.82" font-family="Helvetica,sans-Serif" font-size="10.00">Natural unit:</text>
<text xml:space="preserve" text-anchor="middle" x="831.15" y="-150.82" font-family="Helvetica,sans-Serif" font-size="10.00">one pair = two trellis steps</text>
<text xml:space="preserve" text-anchor="middle" x="831.15" y="-138.82" font-family="Helvetica,sans-Serif" font-size="10.00">radix&#45;4</text>
</g>
<!-- note0&#45;&gt;gamma -->
<g id="edge33" class="edge">
<title>note0&#45;&gt;gamma</title>
<path fill="none" stroke="#a16207" stroke-width="1.1" stroke-dasharray="1,5" d="M896.26,-169.98C942.82,-181.35 1005.52,-196.66 1051.79,-207.96"/>
</g>
<!-- note1 -->
<g id="node24" class="node">
<title>note1</title>
<polygon fill="#fef2f2" stroke="#f87171" points="1180.25,-44.64 1045.1,-44.64 1045.1,0 1186.25,0 1186.25,-38.64 1180.25,-44.64"/>
<polyline fill="none" stroke="#f87171" points="1180.25,-44.64 1180.25,-38.64"/>
<polyline fill="none" stroke="#f87171" points="1186.25,-38.64 1180.25,-38.64"/>
<text xml:space="preserve" text-anchor="middle" x="1115.67" y="-30.82" font-family="Helvetica,sans-Serif" font-size="10.00">LOCAL_FWD reconstructs</text>
<text xml:space="preserve" text-anchor="middle" x="1115.67" y="-18.82" font-family="Helvetica,sans-Serif" font-size="10.00">window alpha history.</text>
<text xml:space="preserve" text-anchor="middle" x="1115.67" y="-6.82" font-family="Helvetica,sans-Serif" font-size="10.00">LOCAL_BWD emits outputs.</text>
</g>
<!-- note1&#45;&gt;local_store -->
<g id="edge34" class="edge">
<title>note1&#45;&gt;local_store</title>
<path fill="none" stroke="#dc2626" stroke-width="1.1" stroke-dasharray="1,5" d="M1186.31,-41.49C1229.38,-53.35 1276.5,-66.32 1276.5,-66.32 1276.5,-66.32 1329.05,-163.59 1351.43,-205"/>
</g>
</g>
</svg>
