<?xml version="1.0" encoding="UTF-8" standalone="no"?>
<!DOCTYPE svg PUBLIC "-//W3C//DTD SVG 1.1//EN"
 "http://www.w3.org/Graphics/SVG/1.1/DTD/svg11.dtd">
<!-- Generated by graphviz version 14.1.2 (0)
 -->
<!-- Title: QPP_ROW_CHECK_CELL_LEVEL Pages: 1 -->
<svg width="1260pt" height="655pt"
 viewBox="0.00 0.00 1260.00 655.00" xmlns="http://www.w3.org/2000/svg" xmlns:xlink="http://www.w3.org/1999/xlink">
<g id="graph0" class="graph" transform="scale(1 1) rotate(0) translate(4 650.7)">
<title>QPP_ROW_CHECK_CELL_LEVEL</title>
<polygon fill="white" stroke="none" points="-4,4 -4,-650.7 1256.49,-650.7 1256.49,4 -4,4"/>
<!-- title -->
<g id="node1" class="node">
<title>title</title>
<text xml:space="preserve" text-anchor="middle" x="100.62" y="-621.2" font-family="Helvetica,sans-Serif" font-size="10.00">qpp_parallel_scheduler: Row&#45;Check Chain</text>
</g>
<!-- note -->
<g id="node2" class="node">
<title>note</title>
<polygon fill="#fff4cc" stroke="#9c6500" points="533.75,-646.7 233.5,-646.7 233.5,-602.7 539.75,-602.7 539.75,-640.7 533.75,-646.7"/>
<polyline fill="none" stroke="#9c6500" points="533.75,-646.7 533.75,-640.7"/>
<polyline fill="none" stroke="#9c6500" points="539.75,-640.7 533.75,-640.7"/>
<text xml:space="preserve" text-anchor="middle" x="386.62" y="-633.2" font-family="Helvetica,sans-Serif" font-size="10.00">Lane 0 establishes the reference residue.</text>
<text xml:space="preserve" text-anchor="middle" x="386.62" y="-621.2" font-family="Helvetica,sans-Serif" font-size="10.00">Later lanes use explicit compare + AND reduction blocks.</text>
<text xml:space="preserve" text-anchor="middle" x="386.62" y="-609.2" font-family="Helvetica,sans-Serif" font-size="10.00">This keeps the row_ok path as a pure combinational network view.</text>
</g>
<!-- res0 -->
<g id="node3" class="node">
<title>res0</title>
<polygon fill="#d9ebf7" stroke="#1f4e79" points="673.76,-642.7 592.41,-642.7 571.49,-606.7 652.84,-606.7 673.76,-642.7"/>
<text xml:space="preserve" text-anchor="middle" x="622.62" y="-621.2" font-family="Helvetica,sans-Serif" font-size="10.00">residue_0</text>
</g>
<!-- cap -->
<g id="node9" class="node">
<title>cap</title>
<path fill="#eef5fb" stroke="#1f4e79" d="M660.25,-547.7C660.25,-547.7 585,-547.7 585,-547.7 579,-547.7 573,-541.7 573,-535.7 573,-535.7 573,-523.7 573,-523.7 573,-517.7 579,-511.7 585,-511.7 585,-511.7 660.25,-511.7 660.25,-511.7 666.25,-511.7 672.25,-517.7 672.25,-523.7 672.25,-523.7 672.25,-535.7 672.25,-535.7 672.25,-541.7 666.25,-547.7 660.25,-547.7"/>
<text xml:space="preserve" text-anchor="middle" x="622.62" y="-532.2" font-family="Helvetica,sans-Serif" font-size="10.00">Capture</text>
<text xml:space="preserve" text-anchor="middle" x="622.62" y="-520.2" font-family="Helvetica,sans-Serif" font-size="10.00">row_v := residue_0</text>
</g>
<!-- res0&#45;&gt;cap -->
<g id="edge1" class="edge">
<title>res0&#45;&gt;cap</title>
<path fill="none" stroke="#1f4e79" d="M622.62,-606.21C622.62,-592.18 622.62,-572.29 622.62,-556.44"/>
<polygon fill="#1f4e79" stroke="#1f4e79" points="625.08,-556.63 622.63,-549.63 620.18,-556.63 625.08,-556.63"/>
</g>
<!-- res1 -->
<g id="node4" class="node">
<title>res1</title>
<polygon fill="#d9ebf7" stroke="#1f4e79" points="826.76,-547.7 745.41,-547.7 724.49,-511.7 805.84,-511.7 826.76,-547.7"/>
<text xml:space="preserve" text-anchor="middle" x="775.62" y="-526.2" font-family="Helvetica,sans-Serif" font-size="10.00">residue_1</text>
</g>
<!-- cmp1 -->
<g id="node10" class="node">
<title>cmp1</title>
<polygon fill="#fde9d9" stroke="#c55a11" points="775.62,-447.2 686.76,-429.2 775.62,-411.2 864.49,-429.2 775.62,-447.2"/>
<text xml:space="preserve" text-anchor="middle" x="775.62" y="-425.7" font-family="Helvetica,sans-Serif" font-size="10.00">residue_1 = row_v ?</text>
</g>
<!-- res1&#45;&gt;cmp1 -->
<g id="edge4" class="edge">
<title>res1&#45;&gt;cmp1</title>
<path fill="none" stroke="#1f4e79" d="M775.62,-511.55C775.62,-496.1 775.62,-473.21 775.62,-455.64"/>
<polygon fill="#1f4e79" stroke="#1f4e79" points="778.08,-456.01 775.63,-449.01 773.18,-456.01 778.08,-456.01"/>
</g>
<!-- res2 -->
<g id="node5" class="node">
<title>res2</title>
<polygon fill="#d9ebf7" stroke="#1f4e79" points="482.76,-547.7 401.41,-547.7 380.49,-511.7 461.84,-511.7 482.76,-547.7"/>
<text xml:space="preserve" text-anchor="middle" x="431.62" y="-526.2" font-family="Helvetica,sans-Serif" font-size="10.00">residue_2</text>
</g>
<!-- cmp2 -->
<g id="node12" class="node">
<title>cmp2</title>
<polygon fill="#fde9d9" stroke="#c55a11" points="431.62,-447.2 342.76,-429.2 431.62,-411.2 520.49,-429.2 431.62,-447.2"/>
<text xml:space="preserve" text-anchor="middle" x="431.62" y="-425.7" font-family="Helvetica,sans-Serif" font-size="10.00">residue_2 = row_v ?</text>
</g>
<!-- res2&#45;&gt;cmp2 -->
<g id="edge8" class="edge">
<title>res2&#45;&gt;cmp2</title>
<path fill="none" stroke="#1f4e79" d="M431.62,-511.55C431.62,-496.1 431.62,-473.21 431.62,-455.64"/>
<polygon fill="#1f4e79" stroke="#1f4e79" points="434.08,-456.01 431.63,-449.01 429.18,-456.01 434.08,-456.01"/>
</g>
<!-- dots -->
<g id="node6" class="node">
<title>dots</title>
<text xml:space="preserve" text-anchor="middle" x="732.62" y="-621.2" font-family="Helvetica,sans-Serif" font-size="10.00">...</text>
</g>
<!-- resn -->
<g id="node7" class="node">
<title>resn</title>
<polygon fill="#d9ebf7" stroke="#1f4e79" points="1214.76,-547.7 1133.41,-547.7 1112.49,-511.7 1193.84,-511.7 1214.76,-547.7"/>
<text xml:space="preserve" text-anchor="middle" x="1163.62" y="-526.2" font-family="Helvetica,sans-Serif" font-size="10.00">residue_n</text>
</g>
<!-- cmpn -->
<g id="node14" class="node">
<title>cmpn</title>
<polygon fill="#fde9d9" stroke="#c55a11" points="1163.62,-447.2 1074.76,-429.2 1163.62,-411.2 1252.49,-429.2 1163.62,-447.2"/>
<text xml:space="preserve" text-anchor="middle" x="1163.62" y="-425.7" font-family="Helvetica,sans-Serif" font-size="10.00">residue_n = row_v ?</text>
</g>
<!-- resn&#45;&gt;cmpn -->
<g id="edge13" class="edge">
<title>resn&#45;&gt;cmpn</title>
<path fill="none" stroke="#1f4e79" d="M1163.62,-511.55C1163.62,-496.1 1163.62,-473.21 1163.62,-455.64"/>
<polygon fill="#1f4e79" stroke="#1f4e79" points="1166.08,-456.01 1163.63,-449.01 1161.18,-456.01 1166.08,-456.01"/>
</g>
<!-- lane_valid -->
<g id="node8" class="node">
<title>lane_valid</title>
<polygon fill="#fce4d6" stroke="#c55a11" points="1043.24,-447.2 926.13,-447.2 896.01,-411.2 1013.12,-411.2 1043.24,-447.2"/>
<text xml:space="preserve" text-anchor="middle" x="969.62" y="-425.7" font-family="Helvetica,sans-Serif" font-size="10.00">lane&#45;valid chain</text>
</g>
<!-- and1 -->
<g id="node11" class="node">
<title>and1</title>
<ellipse fill="#e2f0d9" stroke="#548235" cx="925.62" cy="-324" rx="22.7" ry="22.7"/>
<text xml:space="preserve" text-anchor="middle" x="925.62" y="-320.5" font-family="Helvetica,sans-Serif" font-size="10.00">AND</text>
</g>
<!-- lane_valid&#45;&gt;and1 -->
<g id="edge6" class="edge">
<title>lane_valid&#45;&gt;and1</title>
<path fill="none" stroke="#1f4e79" d="M962.36,-411.16C955.61,-395.33 945.44,-371.47 937.51,-352.87"/>
<polygon fill="#1f4e79" stroke="#1f4e79" points="939.85,-352.13 934.86,-346.65 935.35,-354.05 939.85,-352.13"/>
<text xml:space="preserve" text-anchor="middle" x="967.51" y="-375.65" font-family="Helvetica,sans-Serif" font-size="9.00">valid0..1</text>
</g>
<!-- cap&#45;&gt;cmp1 -->
<g id="edge3" class="edge">
<title>cap&#45;&gt;cmp1</title>
<path fill="none" stroke="#1f4e79" d="M635.68,-511.46C647.76,-495.49 663.88,-474.2 663.88,-474.2 663.88,-474.2 706.11,-457.57 738.65,-444.76"/>
<polygon fill="#1f4e79" stroke="#1f4e79" points="739.24,-447.16 744.86,-442.32 737.44,-442.6 739.24,-447.16"/>
<text xml:space="preserve" text-anchor="middle" x="676.25" y="-476.15" font-family="Helvetica,sans-Serif" font-size="9.00">row_v</text>
</g>
<!-- cap&#45;&gt;cmp2 -->
<g id="edge7" class="edge">
<title>cap&#45;&gt;cmp2</title>
<path fill="none" stroke="#1f4e79" d="M588.92,-511.32C553.47,-493.04 498.13,-464.5 463.42,-446.6"/>
<polygon fill="#1f4e79" stroke="#1f4e79" points="464.6,-444.45 457.26,-443.42 462.36,-448.81 464.6,-444.45"/>
<text xml:space="preserve" text-anchor="middle" x="545.23" y="-476.15" font-family="Helvetica,sans-Serif" font-size="9.00">row_v</text>
</g>
<!-- cap&#45;&gt;cmpn -->
<g id="edge14" class="edge">
<title>cap&#45;&gt;cmpn</title>
<path fill="none" stroke="#1f4e79" d="M672.65,-518.81C691.57,-515.07 708.62,-511.7 708.62,-511.7 708.62,-511.7 989.48,-461.4 1109.88,-439.83"/>
<polygon fill="#1f4e79" stroke="#1f4e79" points="1109.97,-442.3 1116.42,-438.66 1109.1,-437.48 1109.97,-442.3"/>
<text xml:space="preserve" text-anchor="middle" x="921.26" y="-476.15" font-family="Helvetica,sans-Serif" font-size="9.00">row_v</text>
</g>
<!-- row_base -->
<g id="node16" class="node">
<title>row_base</title>
<polygon fill="#d9ebf7" stroke="#1f4e79" points="654.76,-447.2 573.41,-447.2 552.49,-411.2 633.84,-411.2 654.76,-447.2"/>
<text xml:space="preserve" text-anchor="middle" x="603.62" y="-425.7" font-family="Helvetica,sans-Serif" font-size="10.00">row_base</text>
</g>
<!-- cap&#45;&gt;row_base -->
<g id="edge2" class="edge">
<title>cap&#45;&gt;row_base</title>
<path fill="none" stroke="#1f4e79" d="M614.42,-511.31C608.62,-499.01 601.88,-484.7 601.88,-484.7 601.88,-484.7 601.88,-474.2 601.88,-474.2 601.88,-474.2 602.22,-465.64 602.6,-456.07"/>
<polygon fill="#1f4e79" stroke="#1f4e79" points="605.04,-456.2 602.87,-449.11 600.15,-456 605.04,-456.2"/>
<text xml:space="preserve" text-anchor="middle" x="614.25" y="-476.15" font-family="Helvetica,sans-Serif" font-size="9.00">row_v</text>
</g>
<!-- cmp1&#45;&gt;and1 -->
<g id="edge5" class="edge">
<title>cmp1&#45;&gt;and1</title>
<path fill="none" stroke="#1f4e79" d="M795.23,-414.71C822.29,-396.1 871.07,-362.54 900.69,-342.16"/>
<polygon fill="#1f4e79" stroke="#1f4e79" points="901.79,-344.37 906.17,-338.39 899.02,-340.34 901.79,-344.37"/>
</g>
<!-- and2 -->
<g id="node13" class="node">
<title>and2</title>
<ellipse fill="#e2f0d9" stroke="#548235" cx="925.62" cy="-223.6" rx="22.7" ry="22.7"/>
<text xml:space="preserve" text-anchor="middle" x="925.62" y="-220.1" font-family="Helvetica,sans-Serif" font-size="10.00">AND</text>
</g>
<!-- and1&#45;&gt;and2 -->
<g id="edge10" class="edge">
<title>and1&#45;&gt;and2</title>
<path fill="none" stroke="#1f4e79" d="M925.62,-301.16C925.62,-287.63 925.62,-270.04 925.62,-255.13"/>
<polygon fill="#1f4e79" stroke="#1f4e79" points="928.08,-255.23 925.63,-248.23 923.18,-255.23 928.08,-255.23"/>
</g>
<!-- cmp2&#45;&gt;and2 -->
<g id="edge9" class="edge">
<title>cmp2&#45;&gt;and2</title>
<path fill="none" stroke="#1f4e79" d="M459.96,-416.53C546.94,-380.68 809.51,-272.46 896.95,-236.42"/>
<polygon fill="#1f4e79" stroke="#1f4e79" points="897.68,-238.77 903.21,-233.84 895.81,-234.24 897.68,-238.77"/>
</g>
<!-- andn -->
<g id="node15" class="node">
<title>andn</title>
<ellipse fill="#e2f0d9" stroke="#548235" cx="1034.62" cy="-113.7" rx="22.7" ry="22.7"/>
<text xml:space="preserve" text-anchor="middle" x="1034.62" y="-110.2" font-family="Helvetica,sans-Serif" font-size="10.00">AND</text>
</g>
<!-- and2&#45;&gt;andn -->
<g id="edge12" class="edge">
<title>and2&#45;&gt;andn</title>
<path fill="none" stroke="#1f4e79" d="M941.24,-207.14C959.99,-188.58 991.56,-157.33 1012.74,-136.37"/>
<polygon fill="#1f4e79" stroke="#1f4e79" points="1014.36,-138.21 1017.61,-131.55 1010.91,-134.73 1014.36,-138.21"/>
<text xml:space="preserve" text-anchor="middle" x="986.77" y="-165.35" font-family="Helvetica,sans-Serif" font-size="9.00">...</text>
</g>
<!-- cmpn&#45;&gt;andn -->
<g id="edge11" class="edge">
<title>cmpn&#45;&gt;andn</title>
<path fill="none" stroke="#1f4e79" d="M1157.05,-412.23C1136.37,-361.97 1072.46,-206.66 1046.14,-142.68"/>
<polygon fill="#1f4e79" stroke="#1f4e79" points="1048.48,-141.93 1043.55,-136.39 1043.95,-143.8 1048.48,-141.93"/>
</g>
<!-- row_ok -->
<g id="node17" class="node">
<title>row_ok</title>
<polygon fill="#fce4d6" stroke="#c55a11" points="1076.5,-36 1009.88,-36 992.75,0 1059.37,0 1076.5,-36"/>
<text xml:space="preserve" text-anchor="middle" x="1034.62" y="-14.5" font-family="Helvetica,sans-Serif" font-size="10.00">row_ok</text>
</g>
<!-- andn&#45;&gt;row_ok -->
<g id="edge15" class="edge">
<title>andn&#45;&gt;row_ok</title>
<path fill="none" stroke="#1f4e79" d="M1034.62,-90.97C1034.62,-77.05 1034.62,-58.93 1034.62,-44.35"/>
<polygon fill="#1f4e79" stroke="#1f4e79" points="1037.08,-44.75 1034.63,-37.75 1032.18,-44.75 1037.08,-44.75"/>
</g>
</g>
</svg>
