<?xml version="1.0" encoding="UTF-8" standalone="no"?>
<!DOCTYPE svg PUBLIC "-//W3C//DTD SVG 1.1//EN"
 "http://www.w3.org/Graphics/SVG/1.1/DTD/svg11.dtd">
<!-- Generated by graphviz version 14.1.2 (0)
 -->
<!-- Title: QPP_SCHEDULER_LANE_CELL_LEVEL Pages: 1 -->
<svg width="971pt" height="947pt"
 viewBox="0.00 0.00 971.00 947.00" xmlns="http://www.w3.org/2000/svg" xmlns:xlink="http://www.w3.org/1999/xlink">
<g id="graph0" class="graph" transform="scale(1 1) rotate(0) translate(4 942.5)">
<title>QPP_SCHEDULER_LANE_CELL_LEVEL</title>
<polygon fill="white" stroke="none" points="-4,4 -4,-942.5 966.62,-942.5 966.62,4 -4,4"/>
<!-- title -->
<g id="node1" class="node">
<title>title</title>
<text xml:space="preserve" text-anchor="middle" x="91.62" y="-913" font-family="Helvetica,sans-Serif" font-size="10.00">qpp_parallel_scheduler: One Lane Cell</text>
</g>
<!-- note -->
<g id="node2" class="node">
<title>note</title>
<polygon fill="#fff4cc" stroke="#9c6500" points="525.62,-938.5 215.62,-938.5 215.62,-894.5 531.62,-894.5 531.62,-932.5 525.62,-938.5"/>
<polyline fill="none" stroke="#9c6500" points="525.62,-938.5 525.62,-932.5"/>
<polyline fill="none" stroke="#9c6500" points="531.62,-932.5 525.62,-932.5"/>
<text xml:space="preserve" text-anchor="middle" x="373.62" y="-925" font-family="Helvetica,sans-Serif" font-size="10.00">One lane cell is replicated G_P times.</text>
<text xml:space="preserve" text-anchor="middle" x="373.62" y="-913" font-family="Helvetica,sans-Serif" font-size="10.00">This view keeps the lane arithmetic as explicit operators:</text>
<text xml:space="preserve" text-anchor="middle" x="373.62" y="-901" font-family="Helvetica,sans-Serif" font-size="10.00">multiplier, adder, range compare, qpp_value, mux, and residue block.</text>
</g>
<!-- row_i -->
<g id="node3" class="node">
<title>row_i</title>
<polygon fill="#d9ebf7" stroke="#1f4e79" points="693.23,-830 638.18,-830 624.02,-794 679.07,-794 693.23,-830"/>
<text xml:space="preserve" text-anchor="middle" x="658.62" y="-808.5" font-family="Helvetica,sans-Serif" font-size="10.00">row_i</text>
</g>
<!-- add_g -->
<g id="node10" class="node">
<title>add_g</title>
<ellipse fill="#e2f0d9" stroke="#548235" cx="743.62" cy="-711.5" rx="18" ry="18"/>
<text xml:space="preserve" text-anchor="middle" x="743.62" y="-708" font-family="Helvetica,sans-Serif" font-size="10.00">+</text>
</g>
<!-- row_i&#45;&gt;add_g -->
<g id="edge4" class="edge">
<title>row_i&#45;&gt;add_g</title>
<path fill="none" stroke="#1f4e79" d="M673.43,-793.84C688.34,-776.56 711.31,-749.95 726.88,-731.91"/>
<polygon fill="#1f4e79" stroke="#1f4e79" points="728.54,-733.73 731.26,-726.83 724.83,-730.53 728.54,-733.73"/>
<text xml:space="preserve" text-anchor="middle" x="714.92" y="-758.45" font-family="Helvetica,sans-Serif" font-size="9.00">row_i</text>
</g>
<!-- seg_i -->
<g id="node4" class="node">
<title>seg_i</title>
<polygon fill="#d9ebf7" stroke="#1f4e79" points="633.23,-934.5 578.18,-934.5 564.02,-898.5 619.07,-898.5 633.23,-934.5"/>
<text xml:space="preserve" text-anchor="middle" x="598.62" y="-913" font-family="Helvetica,sans-Serif" font-size="10.00">seg_i</text>
</g>
<!-- mul_lane -->
<g id="node9" class="node">
<title>mul_lane</title>
<ellipse fill="#e2f0d9" stroke="#548235" cx="743.62" cy="-812" rx="18" ry="18"/>
<text xml:space="preserve" text-anchor="middle" x="743.62" y="-808.5" font-family="Helvetica,sans-Serif" font-size="10.00">*</text>
</g>
<!-- seg_i&#45;&gt;mul_lane -->
<g id="edge2" class="edge">
<title>seg_i&#45;&gt;mul_lane</title>
<path fill="none" stroke="#1f4e79" d="M620.02,-900.38C647.5,-880.95 694.91,-847.44 722.34,-828.05"/>
<polygon fill="#1f4e79" stroke="#1f4e79" points="723.65,-830.12 727.95,-824.08 720.82,-826.12 723.65,-830.12"/>
<text xml:space="preserve" text-anchor="middle" x="686.18" y="-858.95" font-family="Helvetica,sans-Serif" font-size="9.00">in1</text>
</g>
<!-- mod_row -->
<g id="node14" class="node">
<title>mod_row</title>
<path fill="#eef5fb" stroke="#1f4e79" d="M625.75,-127C625.75,-127 559.5,-127 559.5,-127 553.5,-127 547.5,-121 547.5,-115 547.5,-115 547.5,-103 547.5,-103 547.5,-97 553.5,-91 559.5,-91 559.5,-91 625.75,-91 625.75,-91 631.75,-91 637.75,-97 637.75,-103 637.75,-103 637.75,-115 637.75,-115 637.75,-121 631.75,-127 625.75,-127"/>
<text xml:space="preserve" text-anchor="middle" x="592.62" y="-111.5" font-family="Helvetica,sans-Serif" font-size="10.00">MOD</text>
<text xml:space="preserve" text-anchor="middle" x="592.62" y="-99.5" font-family="Helvetica,sans-Serif" font-size="10.00">addr_i mod seg_i</text>
</g>
<!-- seg_i&#45;&gt;mod_row -->
<g id="edge18" class="edge">
<title>seg_i&#45;&gt;mod_row</title>
<path fill="none" stroke="#1f4e79" d="M594.38,-898.11C587.25,-868.87 573.62,-813 573.62,-813 573.62,-813 573.62,-813 573.62,-199 573.62,-199 581.62,-161.56 587.23,-135.25"/>
<polygon fill="#1f4e79" stroke="#1f4e79" points="589.58,-136 588.65,-128.64 584.79,-134.97 589.58,-136"/>
</g>
<!-- lane_c -->
<g id="node5" class="node">
<title>lane_c</title>
<polygon fill="#d9ebf7" stroke="#1f4e79" points="797.41,-934.5 711.85,-934.5 689.84,-898.5 775.4,-898.5 797.41,-934.5"/>
<text xml:space="preserve" text-anchor="middle" x="743.62" y="-913" font-family="Helvetica,sans-Serif" font-size="10.00">lane const</text>
</g>
<!-- lane_c&#45;&gt;mul_lane -->
<g id="edge1" class="edge">
<title>lane_c&#45;&gt;mul_lane</title>
<path fill="none" stroke="#1f4e79" d="M743.62,-898.11C743.62,-881.84 743.62,-857.33 743.62,-838.78"/>
<polygon fill="#1f4e79" stroke="#1f4e79" points="746.08,-838.99 743.63,-831.99 741.18,-838.99 746.08,-838.99"/>
<text xml:space="preserve" text-anchor="middle" x="750" y="-858.95" font-family="Helvetica,sans-Serif" font-size="9.00">in0</text>
</g>
<!-- k_i -->
<g id="node6" class="node">
<title>k_i</title>
<polygon fill="#d9ebf7" stroke="#1f4e79" points="678.62,-638.5 634.09,-638.5 622.63,-602.5 667.16,-602.5 678.62,-638.5"/>
<text xml:space="preserve" text-anchor="middle" x="650.62" y="-617" font-family="Helvetica,sans-Serif" font-size="10.00">k_i</text>
</g>
<!-- cmp_k -->
<g id="node11" class="node">
<title>cmp_k</title>
<polygon fill="#fde9d9" stroke="#c55a11" points="683.62,-538 622.18,-520 683.62,-502 745.07,-520 683.62,-538"/>
<text xml:space="preserve" text-anchor="middle" x="683.62" y="-516.5" font-family="Helvetica,sans-Serif" font-size="10.00">g_idx &lt; k_i ?</text>
</g>
<!-- k_i&#45;&gt;cmp_k -->
<g id="edge7" class="edge">
<title>k_i&#45;&gt;cmp_k</title>
<path fill="none" stroke="#1f4e79" d="M656.32,-602.26C661.59,-586.29 668.62,-565 668.62,-565 668.62,-565 671.98,-555.15 675.52,-544.77"/>
<polygon fill="#1f4e79" stroke="#1f4e79" points="677.78,-545.73 677.72,-538.32 673.14,-544.15 677.78,-545.73"/>
</g>
<!-- qpp -->
<g id="node12" class="node">
<title>qpp</title>
<path fill="#eef5fb" stroke="#1f4e79" d="M825.75,-538C825.75,-538 789.5,-538 789.5,-538 783.5,-538 777.5,-532 777.5,-526 777.5,-526 777.5,-514 777.5,-514 777.5,-508 783.5,-502 789.5,-502 789.5,-502 825.75,-502 825.75,-502 831.75,-502 837.75,-508 837.75,-514 837.75,-514 837.75,-526 837.75,-526 837.75,-532 831.75,-538 825.75,-538"/>
<text xml:space="preserve" text-anchor="middle" x="807.62" y="-516.5" font-family="Helvetica,sans-Serif" font-size="10.00">qpp_value</text>
</g>
<!-- k_i&#45;&gt;qpp -->
<g id="edge9" class="edge">
<title>k_i&#45;&gt;qpp</title>
<path fill="none" stroke="#1f4e79" d="M669.25,-607.81C694.7,-591.85 740.82,-562.91 772.78,-542.86"/>
<polygon fill="#1f4e79" stroke="#1f4e79" points="773.86,-545.07 778.49,-539.28 771.26,-540.92 773.86,-545.07"/>
<text xml:space="preserve" text-anchor="middle" x="739.83" y="-566.95" font-family="Helvetica,sans-Serif" font-size="9.00">k_i</text>
</g>
<!-- f1_i -->
<g id="node7" class="node">
<title>f1_i</title>
<polygon fill="#d9ebf7" stroke="#1f4e79" points="874.62,-638.5 830.09,-638.5 818.63,-602.5 863.16,-602.5 874.62,-638.5"/>
<text xml:space="preserve" text-anchor="middle" x="846.62" y="-617" font-family="Helvetica,sans-Serif" font-size="10.00">f1_i</text>
</g>
<!-- f1_i&#45;&gt;qpp -->
<g id="edge10" class="edge">
<title>f1_i&#45;&gt;qpp</title>
<path fill="none" stroke="#1f4e79" d="M839.83,-602.34C833.66,-586.76 824.49,-563.59 817.51,-545.95"/>
<polygon fill="#1f4e79" stroke="#1f4e79" points="819.88,-545.3 815.03,-539.7 815.33,-547.11 819.88,-545.3"/>
<text xml:space="preserve" text-anchor="middle" x="835.79" y="-566.95" font-family="Helvetica,sans-Serif" font-size="9.00">f1_i</text>
</g>
<!-- f2_i -->
<g id="node8" class="node">
<title>f2_i</title>
<polygon fill="#d9ebf7" stroke="#1f4e79" points="962.62,-638.5 918.09,-638.5 906.63,-602.5 951.16,-602.5 962.62,-638.5"/>
<text xml:space="preserve" text-anchor="middle" x="934.62" y="-617" font-family="Helvetica,sans-Serif" font-size="10.00">f2_i</text>
</g>
<!-- f2_i&#45;&gt;qpp -->
<g id="edge11" class="edge">
<title>f2_i&#45;&gt;qpp</title>
<path fill="none" stroke="#1f4e79" d="M912.21,-602.12C891.08,-585.73 859.32,-561.09 836.34,-543.27"/>
<polygon fill="#1f4e79" stroke="#1f4e79" points="838.04,-541.49 831.01,-539.14 835.04,-545.36 838.04,-541.49"/>
<text xml:space="preserve" text-anchor="middle" x="882.43" y="-566.95" font-family="Helvetica,sans-Serif" font-size="9.00">f2_i</text>
</g>
<!-- mul_lane&#45;&gt;add_g -->
<g id="edge3" class="edge">
<title>mul_lane&#45;&gt;add_g</title>
<path fill="none" stroke="#1f4e79" d="M743.62,-793.84C743.62,-778.4 743.62,-755.5 743.62,-737.93"/>
<polygon fill="#1f4e79" stroke="#1f4e79" points="746.08,-738.3 743.63,-731.3 741.18,-738.3 746.08,-738.3"/>
<text xml:space="preserve" text-anchor="middle" x="765.75" y="-758.45" font-family="Helvetica,sans-Serif" font-size="9.00">lane*seg_i</text>
</g>
<!-- g_idx -->
<g id="node15" class="node">
<title>g_idx</title>
<polygon fill="#d9ebf7" stroke="#1f4e79" points="780.23,-638.5 725.18,-638.5 711.02,-602.5 766.07,-602.5 780.23,-638.5"/>
<text xml:space="preserve" text-anchor="middle" x="745.62" y="-617" font-family="Helvetica,sans-Serif" font-size="10.00">g_idx</text>
</g>
<!-- add_g&#45;&gt;g_idx -->
<g id="edge5" class="edge">
<title>add_g&#45;&gt;g_idx</title>
<path fill="none" stroke="#1f4e79" d="M744.01,-693.34C744.3,-680.25 744.71,-662.01 745.05,-647.18"/>
<polygon fill="#1f4e79" stroke="#1f4e79" points="747.49,-647.48 745.2,-640.42 742.59,-647.37 747.49,-647.48"/>
</g>
<!-- mux_addr -->
<g id="node13" class="node">
<title>mux_addr</title>
<polygon fill="#e2f0d9" stroke="#548235" points="751.3,-337 701.95,-337 684.38,-273 768.88,-273 751.3,-337"/>
<text xml:space="preserve" text-anchor="middle" x="726.62" y="-307.5" font-family="Helvetica,sans-Serif" font-size="10.00">MUX</text>
<text xml:space="preserve" text-anchor="middle" x="726.62" y="-295.5" font-family="Helvetica,sans-Serif" font-size="10.00">addr_i</text>
</g>
<!-- cmp_k&#45;&gt;mux_addr -->
<g id="edge15" class="edge">
<title>cmp_k&#45;&gt;mux_addr</title>
<path fill="none" stroke="#1f4e79" d="M685.95,-502.17C690.45,-469.68 699.88,-401.5 699.88,-401.5 699.88,-401.5 708.24,-371.62 715.62,-345.29"/>
<polygon fill="#1f4e79" stroke="#1f4e79" points="717.93,-346.13 717.46,-338.73 713.21,-344.81 717.93,-346.13"/>
<text xml:space="preserve" text-anchor="middle" x="718.25" y="-416.2" font-family="Helvetica,sans-Serif" font-size="9.00">sel=valid</text>
</g>
<!-- raw_addr -->
<g id="node16" class="node">
<title>raw_addr</title>
<polygon fill="#d9ebf7" stroke="#1f4e79" points="850.78,-437.5 772.59,-437.5 752.47,-401.5 830.66,-401.5 850.78,-437.5"/>
<text xml:space="preserve" text-anchor="middle" x="801.62" y="-416" font-family="Helvetica,sans-Serif" font-size="10.00">addr_raw</text>
</g>
<!-- qpp&#45;&gt;raw_addr -->
<g id="edge12" class="edge">
<title>qpp&#45;&gt;raw_addr</title>
<path fill="none" stroke="#1f4e79" d="M806.58,-501.84C805.64,-486.4 804.24,-463.5 803.17,-445.93"/>
<polygon fill="#1f4e79" stroke="#1f4e79" points="805.64,-446.14 802.77,-439.3 800.75,-446.44 805.64,-446.14"/>
<text xml:space="preserve" text-anchor="middle" x="824.3" y="-466.45" font-family="Helvetica,sans-Serif" font-size="9.00">addr_raw</text>
</g>
<!-- addr_i -->
<g id="node17" class="node">
<title>addr_i</title>
<polygon fill="#d9ebf7" stroke="#1f4e79" points="708.88,-218 649.62,-218 634.37,-182 693.63,-182 708.88,-218"/>
<text xml:space="preserve" text-anchor="middle" x="671.62" y="-196.5" font-family="Helvetica,sans-Serif" font-size="10.00">addr_i</text>
</g>
<!-- mux_addr&#45;&gt;addr_i -->
<g id="edge16" class="edge">
<title>mux_addr&#45;&gt;addr_i</title>
<path fill="none" stroke="#1f4e79" d="M709.82,-272.54C701.77,-257.46 692.28,-239.67 684.76,-225.61"/>
<polygon fill="#1f4e79" stroke="#1f4e79" points="686.99,-224.57 681.53,-219.55 682.67,-226.88 686.99,-224.57"/>
</g>
<!-- residue_i -->
<g id="node18" class="node">
<title>residue_i</title>
<polygon fill="#d9ebf7" stroke="#1f4e79" points="641.12,-36 563.98,-36 544.13,0 621.27,0 641.12,-36"/>
<text xml:space="preserve" text-anchor="middle" x="592.62" y="-14.5" font-family="Helvetica,sans-Serif" font-size="10.00">residue_i</text>
</g>
<!-- mod_row&#45;&gt;residue_i -->
<g id="edge19" class="edge">
<title>mod_row&#45;&gt;residue_i</title>
<path fill="none" stroke="#1f4e79" d="M592.62,-90.84C592.62,-77.75 592.62,-59.51 592.62,-44.68"/>
<polygon fill="#1f4e79" stroke="#1f4e79" points="595.08,-44.92 592.63,-37.92 590.18,-44.92 595.08,-44.92"/>
</g>
<!-- g_idx&#45;&gt;cmp_k -->
<g id="edge6" class="edge">
<title>g_idx&#45;&gt;cmp_k</title>
<path fill="none" stroke="#1f4e79" d="M730.61,-602.11C719.98,-589.81 707.62,-575.5 707.62,-575.5 707.62,-575.5 700.31,-558.88 693.75,-544"/>
<polygon fill="#1f4e79" stroke="#1f4e79" points="696.11,-543.28 691.05,-537.86 691.63,-545.25 696.11,-543.28"/>
</g>
<!-- g_idx&#45;&gt;qpp -->
<g id="edge8" class="edge">
<title>g_idx&#45;&gt;qpp</title>
<path fill="none" stroke="#1f4e79" d="M756.42,-602.34C766.32,-586.62 781.08,-563.17 792.22,-545.48"/>
<polygon fill="#1f4e79" stroke="#1f4e79" points="794.28,-546.8 795.93,-539.57 790.13,-544.19 794.28,-546.8"/>
<text xml:space="preserve" text-anchor="middle" x="788.23" y="-566.95" font-family="Helvetica,sans-Serif" font-size="9.00">idx_i</text>
</g>
<!-- raw_addr&#45;&gt;mux_addr -->
<g id="edge13" class="edge">
<title>raw_addr&#45;&gt;mux_addr</title>
<path fill="none" stroke="#1f4e79" d="M790.23,-401.41C780.16,-386.3 765.1,-363.71 752.16,-344.3"/>
<polygon fill="#1f4e79" stroke="#1f4e79" points="754.26,-343.04 748.34,-338.57 750.19,-345.76 754.26,-343.04"/>
<text xml:space="preserve" text-anchor="middle" x="777.22" y="-365.95" font-family="Helvetica,sans-Serif" font-size="9.00">in1</text>
</g>
<!-- addr_i&#45;&gt;mod_row -->
<g id="edge17" class="edge">
<title>addr_i&#45;&gt;mod_row</title>
<path fill="none" stroke="#1f4e79" d="M656.39,-181.84C644.23,-168.14 627.06,-148.79 613.6,-133.63"/>
<polygon fill="#1f4e79" stroke="#1f4e79" points="615.56,-132.15 609.08,-128.54 611.9,-135.4 615.56,-132.15"/>
</g>
<!-- zero -->
<g id="node19" class="node">
<title>zero</title>
<polygon fill="#f5f5f5" stroke="#666666" points="938.62,-437.5 894.09,-437.5 882.63,-401.5 927.16,-401.5 938.62,-437.5"/>
<text xml:space="preserve" text-anchor="middle" x="910.62" y="-416" font-family="Helvetica,sans-Serif" font-size="10.00">0</text>
</g>
<!-- zero&#45;&gt;mux_addr -->
<g id="edge14" class="edge">
<title>zero&#45;&gt;mux_addr</title>
<path fill="none" stroke="#1f4e79" d="M882.28,-401.17C850.09,-381.49 797.52,-349.34 762.5,-327.93"/>
<polygon fill="#1f4e79" stroke="#1f4e79" points="763.85,-325.89 756.6,-324.33 761.29,-330.07 763.85,-325.89"/>
<text xml:space="preserve" text-anchor="middle" x="841.48" y="-365.95" font-family="Helvetica,sans-Serif" font-size="9.00">in0</text>
</g>
</g>
</svg>
