<?xml version="1.0" encoding="UTF-8" standalone="no"?>
<!DOCTYPE svg PUBLIC "-//W3C//DTD SVG 1.1//EN"
 "http://www.w3.org/Graphics/SVG/1.1/DTD/svg11.dtd">
<!-- Generated by graphviz version 14.1.2 (0)
 -->
<!-- Title: QPP_MOD_MULT_UPDATE_SLICE_CELL_LEVEL Pages: 1 -->
<svg width="1435pt" height="810pt"
 viewBox="0.00 0.00 1435.00 810.00" xmlns="http://www.w3.org/2000/svg" xmlns:xlink="http://www.w3.org/1999/xlink">
<g id="graph0" class="graph" transform="scale(1 1) rotate(0) translate(4 806)">
<title>QPP_MOD_MULT_UPDATE_SLICE_CELL_LEVEL</title>
<polygon fill="white" stroke="none" points="-4,4 -4,-806 1431.04,-806 1431.04,4 -4,4"/>
<!-- title -->
<g id="node1" class="node">
<title>title</title>
<text xml:space="preserve" text-anchor="middle" x="71" y="-780.5" font-family="Helvetica,sans-Serif" font-size="10.00">mod_mult: One Update Slice</text>
</g>
<!-- note -->
<g id="node2" class="node">
<title>note</title>
<polygon fill="#fff4cc" stroke="#9c6500" points="568,-802 174,-802 174,-766 574,-766 574,-796 568,-802"/>
<polyline fill="none" stroke="#9c6500" points="568,-802 568,-796"/>
<polyline fill="none" stroke="#9c6500" points="574,-796 568,-796"/>
<text xml:space="preserve" text-anchor="middle" x="374" y="-786.5" font-family="Helvetica,sans-Serif" font-size="10.00">One update slice is repeated 16 times in mod_mult.</text>
<text xml:space="preserve" text-anchor="middle" x="374" y="-774.5" font-family="Helvetica,sans-Serif" font-size="10.00">This is the operator&#45;level view of the slice used by the scheduler&#39;s qpp_value arithmetic.</text>
</g>
<!-- a_in -->
<g id="node3" class="node">
<title>a_in</title>
<polygon fill="#d9ebf7" stroke="#1f4e79" points="1264.99,-802 1220.46,-802 1209.01,-766 1253.54,-766 1264.99,-802"/>
<text xml:space="preserve" text-anchor="middle" x="1237" y="-780.5" font-family="Helvetica,sans-Serif" font-size="10.00">a_j</text>
</g>
<!-- add_acc -->
<g id="node8" class="node">
<title>add_acc</title>
<ellipse fill="#e2f0d9" stroke="#548235" cx="918" cy="-683.5" rx="18" ry="18"/>
<text xml:space="preserve" text-anchor="middle" x="918" y="-680" font-family="Helvetica,sans-Serif" font-size="10.00">+</text>
</g>
<!-- a_in&#45;&gt;add_acc -->
<g id="edge3" class="edge">
<title>a_in&#45;&gt;add_acc</title>
<path fill="none" stroke="#1f4e79" d="M1211.43,-775.11C1151.54,-756.61 1002.75,-710.67 943.21,-692.28"/>
<polygon fill="#1f4e79" stroke="#1f4e79" points="943.95,-689.95 936.54,-690.23 942.51,-694.63 943.95,-689.95"/>
<text xml:space="preserve" text-anchor="middle" x="1093.44" y="-730.45" font-family="Helvetica,sans-Serif" font-size="9.00">in1</text>
</g>
<!-- dbl_a -->
<g id="node15" class="node">
<title>dbl_a</title>
<ellipse fill="#e2f0d9" stroke="#548235" cx="1314" cy="-683.5" rx="18" ry="18"/>
<text xml:space="preserve" text-anchor="middle" x="1314" y="-680" font-family="Helvetica,sans-Serif" font-size="10.00">+</text>
</g>
<!-- a_in&#45;&gt;dbl_a -->
<g id="edge21" class="edge">
<title>a_in&#45;&gt;dbl_a</title>
<path fill="none" stroke="#1f4e79" d="M1244.67,-765.76C1251.78,-749.79 1261.25,-728.5 1261.25,-728.5 1261.25,-728.5 1279.27,-713.47 1294.25,-700.98"/>
<polygon fill="#1f4e79" stroke="#1f4e79" points="1295.45,-703.17 1299.25,-696.8 1292.31,-699.4 1295.45,-703.17"/>
<text xml:space="preserve" text-anchor="middle" x="1267.62" y="-730.45" font-family="Helvetica,sans-Serif" font-size="9.00">in0</text>
</g>
<!-- a_in&#45;&gt;dbl_a -->
<g id="edge22" class="edge">
<title>a_in&#45;&gt;dbl_a</title>
<path fill="none" stroke="#1f4e79" d="M1253.2,-765.61C1264.66,-753.31 1278,-739 1278,-739 1278,-739 1289.8,-721.14 1299.89,-705.87"/>
<polygon fill="#1f4e79" stroke="#1f4e79" points="1301.7,-707.56 1303.52,-700.37 1297.62,-704.86 1301.7,-707.56"/>
<text xml:space="preserve" text-anchor="middle" x="1291.26" y="-730.45" font-family="Helvetica,sans-Serif" font-size="9.00">in1</text>
</g>
<!-- mux_a -->
<g id="node19" class="node">
<title>mux_a</title>
<polygon fill="#e2f0d9" stroke="#548235" points="1255.86,-155 1202.14,-155 1183,-91 1275,-91 1255.86,-155"/>
<text xml:space="preserve" text-anchor="middle" x="1229" y="-125.5" font-family="Helvetica,sans-Serif" font-size="10.00">MUX</text>
<text xml:space="preserve" text-anchor="middle" x="1229" y="-113.5" font-family="Helvetica,sans-Serif" font-size="10.00">a_{j+1}</text>
</g>
<!-- a_in&#45;&gt;mux_a -->
<g id="edge33" class="edge">
<title>a_in&#45;&gt;mux_a</title>
<path fill="none" stroke="#1f4e79" d="M1232.3,-765.84C1224.56,-737.62 1210,-684.5 1210,-684.5 1210,-684.5 1210,-684.5 1210,-541.25 1210,-541.25 1222.44,-267.98 1227.19,-163.74"/>
<polygon fill="#1f4e79" stroke="#1f4e79" points="1229.63,-163.98 1227.5,-156.87 1224.74,-163.75 1229.63,-163.98"/>
<text xml:space="preserve" text-anchor="middle" x="1219.42" y="-488.7" font-family="Helvetica,sans-Serif" font-size="9.00">in0</text>
</g>
<!-- b_in -->
<g id="node4" class="node">
<title>b_in</title>
<polygon fill="#d9ebf7" stroke="#1f4e79" points="662.99,-610.5 618.46,-610.5 607.01,-574.5 651.54,-574.5 662.99,-610.5"/>
<text xml:space="preserve" text-anchor="middle" x="635" y="-589" font-family="Helvetica,sans-Serif" font-size="10.00">b_j</text>
</g>
<!-- odd -->
<g id="node7" class="node">
<title>odd</title>
<polygon fill="#fde9d9" stroke="#c55a11" points="598,-447 550.59,-429 598,-411 645.41,-429 598,-447"/>
<text xml:space="preserve" text-anchor="middle" x="598" y="-425.5" font-family="Helvetica,sans-Serif" font-size="10.00">b_j odd ?</text>
</g>
<!-- b_in&#45;&gt;odd -->
<g id="edge1" class="edge">
<title>b_in&#45;&gt;odd</title>
<path fill="none" stroke="#1f4e79" d="M631.04,-574.22C624.4,-545.23 611.01,-486.78 603.47,-453.89"/>
<polygon fill="#1f4e79" stroke="#1f4e79" points="605.89,-453.48 601.94,-447.2 601.12,-454.57 605.89,-453.48"/>
</g>
<!-- shr_b -->
<g id="node13" class="node">
<title>shr_b</title>
<path fill="#eef5fb" stroke="#1f4e79" d="M716,-510C716,-510 658,-510 658,-510 652,-510 646,-504 646,-498 646,-498 646,-486 646,-486 646,-480 652,-474 658,-474 658,-474 716,-474 716,-474 722,-474 728,-480 728,-486 728,-486 728,-498 728,-498 728,-504 722,-510 716,-510"/>
<text xml:space="preserve" text-anchor="middle" x="687" y="-494.5" font-family="Helvetica,sans-Serif" font-size="10.00">DIV2</text>
<text xml:space="preserve" text-anchor="middle" x="687" y="-482.5" font-family="Helvetica,sans-Serif" font-size="10.00">b_tmp = b_j / 2</text>
</g>
<!-- b_in&#45;&gt;shr_b -->
<g id="edge17" class="edge">
<title>b_in&#45;&gt;shr_b</title>
<path fill="none" stroke="#1f4e79" d="M644.06,-574.34C652.36,-558.62 664.74,-535.17 674.08,-517.48"/>
<polygon fill="#1f4e79" stroke="#1f4e79" points="676.06,-518.96 677.16,-511.63 671.73,-516.68 676.06,-518.96"/>
</g>
<!-- acc_in -->
<g id="node5" class="node">
<title>acc_in</title>
<polygon fill="#d9ebf7" stroke="#1f4e79" points="675.61,-802 620.56,-802 606.39,-766 661.44,-766 675.61,-802"/>
<text xml:space="preserve" text-anchor="middle" x="641" y="-780.5" font-family="Helvetica,sans-Serif" font-size="10.00">acc_j</text>
</g>
<!-- acc_in&#45;&gt;add_acc -->
<g id="edge2" class="edge">
<title>acc_in&#45;&gt;add_acc</title>
<path fill="none" stroke="#1f4e79" d="M665.1,-774.43C717.32,-755.86 840.48,-712.06 893.27,-693.29"/>
<polygon fill="#1f4e79" stroke="#1f4e79" points="893.92,-695.66 899.69,-691.01 892.28,-691.05 893.92,-695.66"/>
<text xml:space="preserve" text-anchor="middle" x="794.18" y="-730.45" font-family="Helvetica,sans-Serif" font-size="9.00">in0</text>
</g>
<!-- mux_acc -->
<g id="node12" class="node">
<title>mux_acc</title>
<polygon fill="#e2f0d9" stroke="#548235" points="629,-155 563,-155 539.5,-91 652.5,-91 629,-155"/>
<text xml:space="preserve" text-anchor="middle" x="596" y="-125.5" font-family="Helvetica,sans-Serif" font-size="10.00">MUX</text>
<text xml:space="preserve" text-anchor="middle" x="596" y="-113.5" font-family="Helvetica,sans-Serif" font-size="10.00">acc_{j+1}</text>
</g>
<!-- acc_in&#45;&gt;mux_acc -->
<g id="edge14" class="edge">
<title>acc_in&#45;&gt;mux_acc</title>
<path fill="none" stroke="#1f4e79" d="M621.23,-765.62C589.08,-737.34 529,-684.5 529,-684.5 529,-684.5 529,-684.5 529,-250.5 529,-250.5 555.89,-199.73 575.6,-162.51"/>
<polygon fill="#1f4e79" stroke="#1f4e79" points="577.62,-163.94 578.73,-156.61 573.29,-161.65 577.62,-163.94"/>
<text xml:space="preserve" text-anchor="middle" x="535.38" y="-488.7" font-family="Helvetica,sans-Serif" font-size="9.00">in0</text>
</g>
<!-- mod_i -->
<g id="node6" class="node">
<title>mod_i</title>
<polygon fill="#d9ebf7" stroke="#1f4e79" points="1137.25,-610.5 1077.99,-610.5 1062.75,-574.5 1122.01,-574.5 1137.25,-610.5"/>
<text xml:space="preserve" text-anchor="middle" x="1100" y="-589" font-family="Helvetica,sans-Serif" font-size="10.00">mod_i</text>
</g>
<!-- cmp_acc -->
<g id="node9" class="node">
<title>cmp_acc</title>
<polygon fill="#fde9d9" stroke="#c55a11" points="918,-510 825.94,-492 918,-474 1010.06,-492 918,-510"/>
<text xml:space="preserve" text-anchor="middle" x="918" y="-488.5" font-family="Helvetica,sans-Serif" font-size="10.00">acc_sum &gt;= mod_i ?</text>
</g>
<!-- mod_i&#45;&gt;cmp_acc -->
<g id="edge7" class="edge">
<title>mod_i&#45;&gt;cmp_acc</title>
<path fill="none" stroke="#1f4e79" d="M1067.88,-574.12C1034.3,-555.94 981.96,-527.62 948.85,-509.7"/>
<polygon fill="#1f4e79" stroke="#1f4e79" points="950.34,-507.72 943.02,-506.54 948.01,-512.03 950.34,-507.72"/>
</g>
<!-- sub_acc -->
<g id="node10" class="node">
<title>sub_acc</title>
<ellipse fill="#e2f0d9" stroke="#548235" cx="1060" cy="-492" rx="18" ry="18"/>
<text xml:space="preserve" text-anchor="middle" x="1060" y="-488.5" font-family="Helvetica,sans-Serif" font-size="10.00">&#45;</text>
</g>
<!-- mod_i&#45;&gt;sub_acc -->
<g id="edge8" class="edge">
<title>mod_i&#45;&gt;sub_acc</title>
<path fill="none" stroke="#1f4e79" d="M1093.03,-574.34C1086.55,-558.38 1076.83,-534.44 1069.61,-516.67"/>
<polygon fill="#1f4e79" stroke="#1f4e79" points="1071.96,-515.95 1067.06,-510.39 1067.42,-517.79 1071.96,-515.95"/>
<text xml:space="preserve" text-anchor="middle" x="1087.57" y="-538.95" font-family="Helvetica,sans-Serif" font-size="9.00">in1</text>
</g>
<!-- cmp_a -->
<g id="node16" class="node">
<title>cmp_a</title>
<polygon fill="#fde9d9" stroke="#c55a11" points="1333,-510 1254.97,-492 1333,-474 1411.03,-492 1333,-510"/>
<text xml:space="preserve" text-anchor="middle" x="1333" y="-488.5" font-family="Helvetica,sans-Serif" font-size="10.00">a_dbl &gt;= mod_i ?</text>
</g>
<!-- mod_i&#45;&gt;cmp_a -->
<g id="edge26" class="edge">
<title>mod_i&#45;&gt;cmp_a</title>
<path fill="none" stroke="#1f4e79" d="M1124.52,-579.67C1157.75,-563.65 1213,-537 1213,-537 1213,-537 1260.92,-519.43 1296.19,-506.5"/>
<polygon fill="#1f4e79" stroke="#1f4e79" points="1296.8,-508.88 1302.53,-504.17 1295.11,-504.28 1296.8,-508.88"/>
</g>
<!-- sub_a -->
<g id="node17" class="node">
<title>sub_a</title>
<ellipse fill="#e2f0d9" stroke="#548235" cx="1128" cy="-492" rx="18" ry="18"/>
<text xml:space="preserve" text-anchor="middle" x="1128" y="-488.5" font-family="Helvetica,sans-Serif" font-size="10.00">&#45;</text>
</g>
<!-- mod_i&#45;&gt;sub_a -->
<g id="edge27" class="edge">
<title>mod_i&#45;&gt;sub_a</title>
<path fill="none" stroke="#1f4e79" d="M1104.88,-574.34C1109.32,-558.71 1115.94,-535.44 1120.95,-517.79"/>
<polygon fill="#1f4e79" stroke="#1f4e79" points="1123.3,-518.49 1122.86,-511.09 1118.59,-517.15 1123.3,-518.49"/>
<text xml:space="preserve" text-anchor="middle" x="1121.21" y="-538.95" font-family="Helvetica,sans-Serif" font-size="9.00">in1</text>
</g>
<!-- odd&#45;&gt;mux_acc -->
<g id="edge15" class="edge">
<title>odd&#45;&gt;mux_acc</title>
<path fill="none" stroke="#1f4e79" d="M597.89,-410.78C597.58,-363.45 596.7,-230.41 596.26,-163.49"/>
<polygon fill="#1f4e79" stroke="#1f4e79" points="598.71,-163.77 596.22,-156.79 593.81,-163.8 598.71,-163.77"/>
<text xml:space="preserve" text-anchor="middle" x="603.3" y="-312.45" font-family="Helvetica,sans-Serif" font-size="9.00">sel</text>
</g>
<!-- acc_sum -->
<g id="node20" class="node">
<title>acc_sum</title>
<polygon fill="#d9ebf7" stroke="#1f4e79" points="967.15,-610.5 888.96,-610.5 868.85,-574.5 947.04,-574.5 967.15,-610.5"/>
<text xml:space="preserve" text-anchor="middle" x="918" y="-589" font-family="Helvetica,sans-Serif" font-size="10.00">acc_sum</text>
</g>
<!-- add_acc&#45;&gt;acc_sum -->
<g id="edge4" class="edge">
<title>add_acc&#45;&gt;acc_sum</title>
<path fill="none" stroke="#1f4e79" d="M918,-665.34C918,-652.25 918,-634.01 918,-619.18"/>
<polygon fill="#1f4e79" stroke="#1f4e79" points="920.45,-619.42 918,-612.42 915.55,-619.42 920.45,-619.42"/>
</g>
<!-- mux_acc_red -->
<g id="node11" class="node">
<title>mux_acc_red</title>
<polygon fill="#e2f0d9" stroke="#548235" points="987.49,-283.5 928.51,-283.5 907.5,-219.5 1008.5,-219.5 987.49,-283.5"/>
<text xml:space="preserve" text-anchor="middle" x="958" y="-254" font-family="Helvetica,sans-Serif" font-size="10.00">MUX</text>
<text xml:space="preserve" text-anchor="middle" x="958" y="-242" font-family="Helvetica,sans-Serif" font-size="10.00">acc_red</text>
</g>
<!-- cmp_acc&#45;&gt;mux_acc_red -->
<g id="edge12" class="edge">
<title>cmp_acc&#45;&gt;mux_acc_red</title>
<path fill="none" stroke="#1f4e79" d="M911.62,-474.75C899.87,-444.82 876,-384 876,-384 876,-384 876,-348 876,-348 876,-348 902.77,-316.82 925.72,-290.09"/>
<polygon fill="#1f4e79" stroke="#1f4e79" points="927.46,-291.83 930.16,-284.92 923.75,-288.63 927.46,-291.83"/>
<text xml:space="preserve" text-anchor="middle" x="882" y="-362.7" font-family="Helvetica,sans-Serif" font-size="9.00">sel</text>
</g>
<!-- acc_sub -->
<g id="node21" class="node">
<title>acc_sub</title>
<polygon fill="#d9ebf7" stroke="#1f4e79" points="1040.33,-384 931.63,-384 903.67,-348 1012.37,-348 1040.33,-384"/>
<text xml:space="preserve" text-anchor="middle" x="972" y="-362.5" font-family="Helvetica,sans-Serif" font-size="10.00">acc_sum&#45;mod</text>
</g>
<!-- sub_acc&#45;&gt;acc_sub -->
<g id="edge9" class="edge">
<title>sub_acc&#45;&gt;acc_sub</title>
<path fill="none" stroke="#1f4e79" d="M1049.91,-476.78C1035.05,-455.84 1007.11,-416.47 989.04,-391.01"/>
<polygon fill="#1f4e79" stroke="#1f4e79" points="991.15,-389.75 985.1,-385.46 987.15,-392.59 991.15,-389.75"/>
</g>
<!-- mux_acc_red&#45;&gt;mux_acc -->
<g id="edge13" class="edge">
<title>mux_acc_red&#45;&gt;mux_acc</title>
<path fill="none" stroke="#1f4e79" d="M913.02,-219.06C887.25,-201.05 860,-182 860,-182 860,-182 722.12,-151.71 645.65,-134.91"/>
<polygon fill="#1f4e79" stroke="#1f4e79" points="646.38,-132.56 639.02,-133.45 645.33,-137.35 646.38,-132.56"/>
<text xml:space="preserve" text-anchor="middle" x="880.6" y="-183.95" font-family="Helvetica,sans-Serif" font-size="9.00">in1</text>
</g>
<!-- acc_out -->
<g id="node27" class="node">
<title>acc_out</title>
<polygon fill="#d9ebf7" stroke="#1f4e79" points="645.81,-36 566.57,-36 546.19,0 625.43,0 645.81,-36"/>
<text xml:space="preserve" text-anchor="middle" x="596" y="-14.5" font-family="Helvetica,sans-Serif" font-size="10.00">acc_{j+1}</text>
</g>
<!-- mux_acc&#45;&gt;acc_out -->
<g id="edge16" class="edge">
<title>mux_acc&#45;&gt;acc_out</title>
<path fill="none" stroke="#1f4e79" d="M596,-90.54C596,-75.74 596,-58.33 596,-44.39"/>
<polygon fill="#1f4e79" stroke="#1f4e79" points="598.45,-44.73 596,-37.73 593.55,-44.73 598.45,-44.73"/>
</g>
<!-- b_tmp -->
<g id="node22" class="node">
<title>b_tmp</title>
<polygon fill="#d9ebf7" stroke="#1f4e79" points="724.91,-384 664.6,-384 649.09,-348 709.4,-348 724.91,-384"/>
<text xml:space="preserve" text-anchor="middle" x="687" y="-362.5" font-family="Helvetica,sans-Serif" font-size="10.00">b_tmp</text>
</g>
<!-- shr_b&#45;&gt;b_tmp -->
<g id="edge18" class="edge">
<title>shr_b&#45;&gt;b_tmp</title>
<path fill="none" stroke="#1f4e79" d="M687,-473.76C687,-452.78 687,-417.15 687,-392.88"/>
<polygon fill="#1f4e79" stroke="#1f4e79" points="689.45,-393.01 687,-386.01 684.55,-393.01 689.45,-393.01"/>
</g>
<!-- gt0 -->
<g id="node14" class="node">
<title>gt0</title>
<polygon fill="#fde9d9" stroke="#c55a11" points="817,-269.5 758.75,-251.5 817,-233.5 875.25,-251.5 817,-269.5"/>
<text xml:space="preserve" text-anchor="middle" x="817" y="-248" font-family="Helvetica,sans-Serif" font-size="10.00">b_tmp &gt; 0 ?</text>
</g>
<!-- gt0&#45;&gt;mux_a -->
<g id="edge34" class="edge">
<title>gt0&#45;&gt;mux_a</title>
<path fill="none" stroke="#1f4e79" d="M822.22,-234.96C829.01,-214.75 840,-182 840,-182 840,-182 1084.7,-145.51 1185.95,-130.42"/>
<polygon fill="#1f4e79" stroke="#1f4e79" points="1186.08,-132.88 1192.64,-129.42 1185.35,-128.03 1186.08,-132.88"/>
<text xml:space="preserve" text-anchor="middle" x="846" y="-183.95" font-family="Helvetica,sans-Serif" font-size="9.00">sel</text>
</g>
<!-- a_dbl -->
<g id="node23" class="node">
<title>a_dbl</title>
<polygon fill="#d9ebf7" stroke="#1f4e79" points="1359.61,-610.5 1304.56,-610.5 1290.39,-574.5 1345.44,-574.5 1359.61,-610.5"/>
<text xml:space="preserve" text-anchor="middle" x="1325" y="-589" font-family="Helvetica,sans-Serif" font-size="10.00">a_dbl</text>
</g>
<!-- dbl_a&#45;&gt;a_dbl -->
<g id="edge23" class="edge">
<title>dbl_a&#45;&gt;a_dbl</title>
<path fill="none" stroke="#1f4e79" d="M1316.12,-665.34C1317.74,-652.25 1319.99,-634.01 1321.83,-619.18"/>
<polygon fill="#1f4e79" stroke="#1f4e79" points="1324.24,-619.66 1322.66,-612.41 1319.37,-619.06 1324.24,-619.66"/>
</g>
<!-- mux_a_red -->
<g id="node18" class="node">
<title>mux_a_red</title>
<polygon fill="#e2f0d9" stroke="#548235" points="1348.36,-283.5 1301.64,-283.5 1285,-219.5 1365,-219.5 1348.36,-283.5"/>
<text xml:space="preserve" text-anchor="middle" x="1325" y="-254" font-family="Helvetica,sans-Serif" font-size="10.00">MUX</text>
<text xml:space="preserve" text-anchor="middle" x="1325" y="-242" font-family="Helvetica,sans-Serif" font-size="10.00">a_red</text>
</g>
<!-- cmp_a&#45;&gt;mux_a_red -->
<g id="edge31" class="edge">
<title>cmp_a&#45;&gt;mux_a_red</title>
<path fill="none" stroke="#1f4e79" d="M1332.42,-473.85C1331.16,-436.11 1328.1,-345.04 1326.33,-292.23"/>
<polygon fill="#1f4e79" stroke="#1f4e79" points="1328.78,-292.2 1326.1,-285.29 1323.89,-292.37 1328.78,-292.2"/>
<text xml:space="preserve" text-anchor="middle" x="1335.4" y="-362.7" font-family="Helvetica,sans-Serif" font-size="9.00">sel</text>
</g>
<!-- a_sub -->
<g id="node24" class="node">
<title>a_sub</title>
<polygon fill="#d9ebf7" stroke="#1f4e79" points="1179.78,-384 1094.23,-384 1072.22,-348 1157.77,-348 1179.78,-384"/>
<text xml:space="preserve" text-anchor="middle" x="1126" y="-362.5" font-family="Helvetica,sans-Serif" font-size="10.00">a_dbl&#45;mod</text>
</g>
<!-- sub_a&#45;&gt;a_sub -->
<g id="edge28" class="edge">
<title>sub_a&#45;&gt;a_sub</title>
<path fill="none" stroke="#1f4e79" d="M1127.72,-473.76C1127.38,-452.78 1126.81,-417.15 1126.42,-392.88"/>
<polygon fill="#1f4e79" stroke="#1f4e79" points="1128.87,-392.97 1126.31,-386.01 1123.97,-393.05 1128.87,-392.97"/>
</g>
<!-- mux_a_red&#45;&gt;mux_a -->
<g id="edge32" class="edge">
<title>mux_a_red&#45;&gt;mux_a</title>
<path fill="none" stroke="#1f4e79" d="M1301.27,-219.23C1288.12,-201.9 1271.66,-180.22 1257.78,-161.92"/>
<polygon fill="#1f4e79" stroke="#1f4e79" points="1259.89,-160.65 1253.71,-156.55 1255.99,-163.61 1259.89,-160.65"/>
<text xml:space="preserve" text-anchor="middle" x="1286.25" y="-183.95" font-family="Helvetica,sans-Serif" font-size="9.00">in1</text>
</g>
<!-- a_out -->
<g id="node25" class="node">
<title>a_out</title>
<polygon fill="#d9ebf7" stroke="#1f4e79" points="1269.56,-36 1205.04,-36 1188.44,0 1252.96,0 1269.56,-36"/>
<text xml:space="preserve" text-anchor="middle" x="1229" y="-14.5" font-family="Helvetica,sans-Serif" font-size="10.00">a_{j+1}</text>
</g>
<!-- mux_a&#45;&gt;a_out -->
<g id="edge35" class="edge">
<title>mux_a&#45;&gt;a_out</title>
<path fill="none" stroke="#1f4e79" d="M1229,-90.54C1229,-75.74 1229,-58.33 1229,-44.39"/>
<polygon fill="#1f4e79" stroke="#1f4e79" points="1231.45,-44.73 1229,-37.73 1226.55,-44.73 1231.45,-44.73"/>
</g>
<!-- acc_sum&#45;&gt;cmp_acc -->
<g id="edge5" class="edge">
<title>acc_sum&#45;&gt;cmp_acc</title>
<path fill="none" stroke="#1f4e79" d="M918,-574.34C918,-558.9 918,-536 918,-518.43"/>
<polygon fill="#1f4e79" stroke="#1f4e79" points="920.45,-518.8 918,-511.8 915.55,-518.8 920.45,-518.8"/>
</g>
<!-- acc_sum&#45;&gt;sub_acc -->
<g id="edge6" class="edge">
<title>acc_sum&#45;&gt;sub_acc</title>
<path fill="none" stroke="#1f4e79" d="M943.06,-574.12C970.28,-555.24 1013.28,-525.41 1038.86,-507.66"/>
<polygon fill="#1f4e79" stroke="#1f4e79" points="1039.98,-509.87 1044.34,-503.86 1037.19,-505.84 1039.98,-509.87"/>
<text xml:space="preserve" text-anchor="middle" x="999.63" y="-538.95" font-family="Helvetica,sans-Serif" font-size="9.00">in0</text>
</g>
<!-- acc_sum&#45;&gt;mux_acc_red -->
<g id="edge11" class="edge">
<title>acc_sum&#45;&gt;mux_acc_red</title>
<path fill="none" stroke="#1f4e79" d="M894.83,-574.02C863.1,-550.07 810,-510 810,-510 810,-510 810,-474 810,-474 810,-474 868,-348 868,-348 868,-348 892,-310.5 892,-310.5 892,-310.5 905.88,-298.3 920.92,-285.09"/>
<polygon fill="#1f4e79" stroke="#1f4e79" points="922.15,-287.26 925.8,-280.8 918.92,-283.58 922.15,-287.26"/>
<text xml:space="preserve" text-anchor="middle" x="845.38" y="-425.7" font-family="Helvetica,sans-Serif" font-size="9.00">in0</text>
</g>
<!-- acc_sub&#45;&gt;mux_acc_red -->
<g id="edge10" class="edge">
<title>acc_sub&#45;&gt;mux_acc_red</title>
<path fill="none" stroke="#1f4e79" d="M969.87,-347.91C968.03,-333.14 965.3,-311.2 962.93,-292.08"/>
<polygon fill="#1f4e79" stroke="#1f4e79" points="965.38,-291.96 962.08,-285.32 960.52,-292.57 965.38,-291.96"/>
<text xml:space="preserve" text-anchor="middle" x="972.63" y="-312.45" font-family="Helvetica,sans-Serif" font-size="9.00">in1</text>
</g>
<!-- b_tmp&#45;&gt;gt0 -->
<g id="edge19" class="edge">
<title>b_tmp&#45;&gt;gt0</title>
<path fill="none" stroke="#1f4e79" d="M707.03,-347.67C731.22,-326.73 771.71,-291.69 796.23,-270.48"/>
<polygon fill="#1f4e79" stroke="#1f4e79" points="797.56,-272.56 801.25,-266.13 794.36,-268.86 797.56,-272.56"/>
</g>
<!-- b_out -->
<g id="node26" class="node">
<title>b_out</title>
<polygon fill="#d9ebf7" stroke="#1f4e79" points="726.56,-269.5 662.04,-269.5 645.44,-233.5 709.96,-233.5 726.56,-269.5"/>
<text xml:space="preserve" text-anchor="middle" x="686" y="-248" font-family="Helvetica,sans-Serif" font-size="10.00">b_{j+1}</text>
</g>
<!-- b_tmp&#45;&gt;b_out -->
<g id="edge20" class="edge">
<title>b_tmp&#45;&gt;b_out</title>
<path fill="none" stroke="#1f4e79" d="M686.85,-347.91C686.68,-329.33 686.42,-299.42 686.23,-278.05"/>
<polygon fill="#1f4e79" stroke="#1f4e79" points="688.68,-278.24 686.17,-271.26 683.78,-278.28 688.68,-278.24"/>
</g>
<!-- a_dbl&#45;&gt;cmp_a -->
<g id="edge24" class="edge">
<title>a_dbl&#45;&gt;cmp_a</title>
<path fill="none" stroke="#1f4e79" d="M1326.39,-574.34C1327.66,-558.81 1329.53,-535.72 1330.96,-518.11"/>
<polygon fill="#1f4e79" stroke="#1f4e79" points="1333.38,-518.64 1331.5,-511.47 1328.49,-518.25 1333.38,-518.64"/>
</g>
<!-- a_dbl&#45;&gt;sub_a -->
<g id="edge25" class="edge">
<title>a_dbl&#45;&gt;sub_a</title>
<path fill="none" stroke="#1f4e79" d="M1290.23,-574.12C1250.18,-554.09 1185.5,-521.75 1151.15,-504.58"/>
<polygon fill="#1f4e79" stroke="#1f4e79" points="1152.62,-502.57 1145.26,-501.63 1150.43,-506.95 1152.62,-502.57"/>
<text xml:space="preserve" text-anchor="middle" x="1238.78" y="-538.95" font-family="Helvetica,sans-Serif" font-size="9.00">in0</text>
</g>
<!-- a_dbl&#45;&gt;mux_a_red -->
<g id="edge30" class="edge">
<title>a_dbl&#45;&gt;mux_a_red</title>
<path fill="none" stroke="#1f4e79" d="M1345.64,-575.01C1375.45,-551.19 1427,-510 1427,-510 1427,-510 1427,-474 1427,-474 1427,-474 1352,-310.5 1352,-310.5 1352,-310.5 1348.02,-301.95 1343.11,-291.41"/>
<polygon fill="#1f4e79" stroke="#1f4e79" points="1345.42,-290.56 1340.25,-285.25 1340.98,-292.63 1345.42,-290.56"/>
<text xml:space="preserve" text-anchor="middle" x="1420.67" y="-425.7" font-family="Helvetica,sans-Serif" font-size="9.00">in0</text>
</g>
<!-- a_sub&#45;&gt;mux_a_red -->
<g id="edge29" class="edge">
<title>a_sub&#45;&gt;mux_a_red</title>
<path fill="none" stroke="#1f4e79" d="M1156.66,-347.67C1192.64,-327.33 1252.17,-293.67 1289.95,-272.32"/>
<polygon fill="#1f4e79" stroke="#1f4e79" points="1290.99,-274.54 1295.88,-268.96 1288.58,-270.27 1290.99,-274.54"/>
<text xml:space="preserve" text-anchor="middle" x="1225.91" y="-312.45" font-family="Helvetica,sans-Serif" font-size="9.00">in1</text>
</g>
</g>
</svg>
