<?xml version="1.0" encoding="UTF-8" standalone="no"?>
<!DOCTYPE svg PUBLIC "-//W3C//DTD SVG 1.1//EN"
 "http://www.w3.org/Graphics/SVG/1.1/DTD/svg11.dtd">
<!-- Generated by graphviz version 14.1.2 (0)
 -->
<!-- Title: QPP_SCHEDULER_LANE_BANK_CELL_LEVEL Pages: 1 -->
<svg width="524pt" height="517pt"
 viewBox="0.00 0.00 524.00 517.00" xmlns="http://www.w3.org/2000/svg" xmlns:xlink="http://www.w3.org/1999/xlink">
<g id="graph0" class="graph" transform="scale(1 1) rotate(0) translate(4 512.5)">
<title>QPP_SCHEDULER_LANE_BANK_CELL_LEVEL</title>
<polygon fill="white" stroke="none" points="-4,4 -4,-512.5 520.14,-512.5 520.14,4 -4,4"/>
<!-- title -->
<g id="node1" class="node">
<title>title</title>
<path fill="#eef5fb" stroke="none" d="M382.39,-508.5C382.39,-508.5 193.89,-508.5 193.89,-508.5 187.89,-508.5 181.89,-502.5 181.89,-496.5 181.89,-496.5 181.89,-484.5 181.89,-484.5 181.89,-478.5 187.89,-472.5 193.89,-472.5 193.89,-472.5 382.39,-472.5 382.39,-472.5 388.39,-472.5 394.39,-478.5 394.39,-484.5 394.39,-484.5 394.39,-496.5 394.39,-496.5 394.39,-502.5 388.39,-508.5 382.39,-508.5"/>
<text xml:space="preserve" text-anchor="middle" x="288.14" y="-487" font-family="Helvetica,sans-Serif" font-size="10.00">qpp_parallel_scheduler: Repeated Lane Bank</text>
</g>
<!-- note -->
<g id="node2" class="node">
<title>note</title>
<polygon fill="#fff4cc" stroke="#9c6500" points="402.26,-417.5 168.01,-417.5 168.01,-373.5 408.26,-373.5 408.26,-411.5 402.26,-417.5"/>
<polyline fill="none" stroke="#9c6500" points="402.26,-417.5 402.26,-411.5"/>
<polyline fill="none" stroke="#9c6500" points="408.26,-411.5 402.26,-411.5"/>
<text xml:space="preserve" text-anchor="middle" x="288.14" y="-404" font-family="Helvetica,sans-Serif" font-size="10.00">The scheduler is a bank of G_P identical lane cells.</text>
<text xml:space="preserve" text-anchor="middle" x="288.14" y="-392" font-family="Helvetica,sans-Serif" font-size="10.00">Paper&#45;aligned case: G_P = 8.</text>
<text xml:space="preserve" text-anchor="middle" x="288.14" y="-380" font-family="Helvetica,sans-Serif" font-size="10.00">Figure shows first lanes, ..., last lane.</text>
</g>
<!-- title&#45;&gt;note -->
<!-- scalar -->
<g id="node3" class="node">
<title>scalar</title>
<path fill="#d9ebf7" stroke="#1f4e79" d="M391.42,-318.5C391.42,-318.5 232.03,-318.5 232.03,-318.5 226.03,-318.5 215.26,-314.86 210.49,-311.22 210.49,-311.22 182.4,-289.78 182.4,-289.78 177.63,-286.14 178.86,-282.5 184.86,-282.5 184.86,-282.5 344.24,-282.5 344.24,-282.5 350.24,-282.5 361.01,-286.14 365.78,-289.78 365.78,-289.78 393.88,-311.22 393.88,-311.22 398.65,-314.86 397.42,-318.5 391.42,-318.5"/>
<text xml:space="preserve" text-anchor="middle" x="288.14" y="-297" font-family="Helvetica,sans-Serif" font-size="10.00">row_i, seg_i, k_i, f1_i, f2_i</text>
</g>
<!-- note&#45;&gt;scalar -->
<g id="edge2" class="edge">
<title>note&#45;&gt;scalar</title>
<path fill="none" stroke="#1f4e79" d="M288.14,-373.4C288.14,-359.6 288.14,-341.5 288.14,-326.91"/>
<polygon fill="#1f4e79" stroke="#1f4e79" points="290.59,-327.3 288.14,-320.3 285.69,-327.3 290.59,-327.3"/>
</g>
<!-- l0 -->
<g id="node4" class="node">
<title>l0</title>
<path fill="#eef5fb" stroke="#1f4e79" d="M199.89,-227.5C199.89,-227.5 158.39,-227.5 158.39,-227.5 152.39,-227.5 146.39,-221.5 146.39,-215.5 146.39,-215.5 146.39,-203.5 146.39,-203.5 146.39,-197.5 152.39,-191.5 158.39,-191.5 158.39,-191.5 199.89,-191.5 199.89,-191.5 205.89,-191.5 211.89,-197.5 211.89,-203.5 211.89,-203.5 211.89,-215.5 211.89,-215.5 211.89,-221.5 205.89,-227.5 199.89,-227.5"/>
<text xml:space="preserve" text-anchor="middle" x="179.14" y="-212" font-family="Helvetica,sans-Serif" font-size="10.00">LaneCell(0)</text>
<text xml:space="preserve" text-anchor="middle" x="179.14" y="-200" font-family="Helvetica,sans-Serif" font-size="10.00">1 of G_P</text>
</g>
<!-- scalar&#45;&gt;l0 -->
<g id="edge3" class="edge">
<title>scalar&#45;&gt;l0</title>
<path fill="none" stroke="#1f4e79" d="M266.86,-282.13C249.76,-268.16 225.59,-248.43 206.95,-233.21"/>
<polygon fill="#1f4e79" stroke="#1f4e79" points="208.5,-231.31 201.53,-228.78 205.4,-235.11 208.5,-231.31"/>
</g>
<!-- l1 -->
<g id="node5" class="node">
<title>l1</title>
<path fill="#eef5fb" stroke="#1f4e79" d="M417.89,-227.5C417.89,-227.5 376.39,-227.5 376.39,-227.5 370.39,-227.5 364.39,-221.5 364.39,-215.5 364.39,-215.5 364.39,-203.5 364.39,-203.5 364.39,-197.5 370.39,-191.5 376.39,-191.5 376.39,-191.5 417.89,-191.5 417.89,-191.5 423.89,-191.5 429.89,-197.5 429.89,-203.5 429.89,-203.5 429.89,-215.5 429.89,-215.5 429.89,-221.5 423.89,-227.5 417.89,-227.5"/>
<text xml:space="preserve" text-anchor="middle" x="397.14" y="-212" font-family="Helvetica,sans-Serif" font-size="10.00">LaneCell(1)</text>
<text xml:space="preserve" text-anchor="middle" x="397.14" y="-200" font-family="Helvetica,sans-Serif" font-size="10.00">2 of G_P</text>
</g>
<!-- scalar&#45;&gt;l1 -->
<g id="edge4" class="edge">
<title>scalar&#45;&gt;l1</title>
<path fill="none" stroke="#1f4e79" d="M309.41,-282.13C326.52,-268.16 350.68,-248.43 369.32,-233.21"/>
<polygon fill="#1f4e79" stroke="#1f4e79" points="370.87,-235.11 374.74,-228.78 367.77,-231.31 370.87,-235.11"/>
</g>
<!-- ln -->
<g id="node7" class="node">
<title>ln</title>
<path fill="#eef5fb" stroke="#1f4e79" d="M320.14,-227.5C320.14,-227.5 256.14,-227.5 256.14,-227.5 250.14,-227.5 244.14,-221.5 244.14,-215.5 244.14,-215.5 244.14,-203.5 244.14,-203.5 244.14,-197.5 250.14,-191.5 256.14,-191.5 256.14,-191.5 320.14,-191.5 320.14,-191.5 326.14,-191.5 332.14,-197.5 332.14,-203.5 332.14,-203.5 332.14,-215.5 332.14,-215.5 332.14,-221.5 326.14,-227.5 320.14,-227.5"/>
<text xml:space="preserve" text-anchor="middle" x="288.14" y="-212" font-family="Helvetica,sans-Serif" font-size="10.00">LaneCell(G_P&#45;1)</text>
<text xml:space="preserve" text-anchor="middle" x="288.14" y="-200" font-family="Helvetica,sans-Serif" font-size="10.00">G_P of G_P</text>
</g>
<!-- scalar&#45;&gt;ln -->
<g id="edge5" class="edge">
<title>scalar&#45;&gt;ln</title>
<path fill="none" stroke="#1f4e79" d="M288.14,-282.34C288.14,-269.25 288.14,-251.01 288.14,-236.18"/>
<polygon fill="#1f4e79" stroke="#1f4e79" points="290.59,-236.42 288.14,-229.42 285.69,-236.42 290.59,-236.42"/>
</g>
<!-- pack -->
<g id="node8" class="node">
<title>pack</title>
<path fill="#eef5fb" stroke="#1f4e79" d="M386.51,-127C386.51,-127 273.76,-127 273.76,-127 267.76,-127 261.76,-121 261.76,-115 261.76,-115 261.76,-103 261.76,-103 261.76,-97 267.76,-91 273.76,-91 273.76,-91 386.51,-91 386.51,-91 392.51,-91 398.51,-97 398.51,-103 398.51,-103 398.51,-115 398.51,-115 398.51,-121 392.51,-127 386.51,-127"/>
<text xml:space="preserve" text-anchor="middle" x="330.14" y="-111.5" font-family="Helvetica,sans-Serif" font-size="10.00">Address Pack</text>
<text xml:space="preserve" text-anchor="middle" x="330.14" y="-99.5" font-family="Helvetica,sans-Serif" font-size="10.00">{addr_0, addr_1, ..., addr_n}</text>
</g>
<!-- l0&#45;&gt;pack -->
<g id="edge6" class="edge">
<title>l0&#45;&gt;pack</title>
<path fill="none" stroke="#1f4e79" d="M205.79,-191.12C231.04,-174.64 269.09,-149.82 296.44,-131.98"/>
<polygon fill="#1f4e79" stroke="#1f4e79" points="297.71,-134.08 302.23,-128.2 295.03,-129.97 297.71,-134.08"/>
<text xml:space="preserve" text-anchor="middle" x="273.79" y="-155.95" font-family="Helvetica,sans-Serif" font-size="9.00">addr_0</text>
</g>
<!-- row -->
<g id="node9" class="node">
<title>row</title>
<path fill="#eef5fb" stroke="#1f4e79" d="M217.64,-127C217.64,-127 72.64,-127 72.64,-127 66.64,-127 60.64,-121 60.64,-115 60.64,-115 60.64,-103 60.64,-103 60.64,-97 66.64,-91 72.64,-91 72.64,-91 217.64,-91 217.64,-91 223.64,-91 229.64,-97 229.64,-103 229.64,-103 229.64,-115 229.64,-115 229.64,-121 223.64,-127 217.64,-127"/>
<text xml:space="preserve" text-anchor="middle" x="145.14" y="-111.5" font-family="Helvetica,sans-Serif" font-size="10.00">Row Check</text>
<text xml:space="preserve" text-anchor="middle" x="145.14" y="-99.5" font-family="Helvetica,sans-Serif" font-size="10.00">residue_0, residue_1, ..., residue_n</text>
</g>
<!-- l0&#45;&gt;row -->
<g id="edge9" class="edge">
<title>l0&#45;&gt;row</title>
<path fill="none" stroke="#1f4e79" d="M145.91,-192.99C118.77,-180.32 84.89,-164.5 84.89,-164.5 84.89,-164.5 84.89,-154 84.89,-154 84.89,-154 99.62,-143.24 114.52,-132.36"/>
<polygon fill="#1f4e79" stroke="#1f4e79" points="115.89,-134.39 120.1,-128.28 113,-130.43 115.89,-134.39"/>
<text xml:space="preserve" text-anchor="middle" x="105.51" y="-155.95" font-family="Helvetica,sans-Serif" font-size="9.00">residue_0</text>
</g>
<!-- l1&#45;&gt;pack -->
<g id="edge7" class="edge">
<title>l1&#45;&gt;pack</title>
<path fill="none" stroke="#1f4e79" d="M405.44,-191.11C411.31,-178.81 418.14,-164.5 418.14,-164.5 418.14,-164.5 418.14,-154 418.14,-154 418.14,-154 395.03,-142.45 372.5,-131.18"/>
<polygon fill="#1f4e79" stroke="#1f4e79" points="373.63,-129.01 366.27,-128.07 371.44,-133.39 373.63,-129.01"/>
<text xml:space="preserve" text-anchor="middle" x="432.76" y="-155.95" font-family="Helvetica,sans-Serif" font-size="9.00">addr_1</text>
</g>
<!-- l1&#45;&gt;row -->
<g id="edge10" class="edge">
<title>l1&#45;&gt;row</title>
<path fill="none" stroke="#1f4e79" d="M379.1,-191.26C362.4,-175.29 340.14,-154 340.14,-154 340.14,-154 282.95,-141.1 230.52,-129.26"/>
<polygon fill="#1f4e79" stroke="#1f4e79" points="231.33,-126.94 223.96,-127.79 230.25,-131.72 231.33,-126.94"/>
<text xml:space="preserve" text-anchor="middle" x="371.67" y="-155.95" font-family="Helvetica,sans-Serif" font-size="9.00">residue_1</text>
</g>
<!-- dots -->
<g id="node6" class="node">
<title>dots</title>
<path fill="#eef5fb" stroke="none" d="M504.14,-227.5C504.14,-227.5 474.14,-227.5 474.14,-227.5 468.14,-227.5 462.14,-221.5 462.14,-215.5 462.14,-215.5 462.14,-203.5 462.14,-203.5 462.14,-197.5 468.14,-191.5 474.14,-191.5 474.14,-191.5 504.14,-191.5 504.14,-191.5 510.14,-191.5 516.14,-197.5 516.14,-203.5 516.14,-203.5 516.14,-215.5 516.14,-215.5 516.14,-221.5 510.14,-227.5 504.14,-227.5"/>
<text xml:space="preserve" text-anchor="middle" x="489.14" y="-206" font-family="Helvetica,sans-Serif" font-size="10.00">...</text>
</g>
<!-- ln&#45;&gt;pack -->
<g id="edge8" class="edge">
<title>ln&#45;&gt;pack</title>
<path fill="none" stroke="#1f4e79" d="M294.07,-191.26C299.56,-175.29 306.89,-154 306.89,-154 306.89,-154 311.78,-144.73 317.08,-134.7"/>
<polygon fill="#1f4e79" stroke="#1f4e79" points="319.14,-136.06 320.24,-128.73 314.8,-133.77 319.14,-136.06"/>
<text xml:space="preserve" text-anchor="middle" x="321.51" y="-155.95" font-family="Helvetica,sans-Serif" font-size="9.00">addr_n</text>
</g>
<!-- ln&#45;&gt;row -->
<g id="edge11" class="edge">
<title>ln&#45;&gt;row</title>
<path fill="none" stroke="#1f4e79" d="M243.98,-192.99C207.92,-180.32 162.89,-164.5 162.89,-164.5 162.89,-164.5 157.95,-149.34 153.28,-135.02"/>
<polygon fill="#1f4e79" stroke="#1f4e79" points="155.72,-134.58 151.22,-128.68 151.06,-136.1 155.72,-134.58"/>
<text xml:space="preserve" text-anchor="middle" x="183.51" y="-155.95" font-family="Helvetica,sans-Serif" font-size="9.00">residue_n</text>
</g>
<!-- addr_vec -->
<g id="node10" class="node">
<title>addr_vec</title>
<path fill="#d9ebf7" stroke="#1f4e79" d="M367.29,-36C367.29,-36 313.1,-36 313.1,-36 307.1,-36 298.17,-30.76 295.25,-25.52 295.25,-25.52 286.84,-10.48 286.84,-10.48 283.91,-5.24 286.98,0 292.98,0 292.98,0 347.18,0 347.18,0 353.18,0 362.1,-5.24 365.03,-10.48 365.03,-10.48 373.44,-25.52 373.44,-25.52 376.36,-30.76 373.29,-36 367.29,-36"/>
<text xml:space="preserve" text-anchor="middle" x="330.14" y="-14.5" font-family="Helvetica,sans-Serif" font-size="10.00">addr_vec</text>
</g>
<!-- pack&#45;&gt;addr_vec -->
<g id="edge12" class="edge">
<title>pack&#45;&gt;addr_vec</title>
<path fill="none" stroke="#1f4e79" d="M330.14,-90.84C330.14,-77.75 330.14,-59.51 330.14,-44.68"/>
<polygon fill="#1f4e79" stroke="#1f4e79" points="332.59,-44.92 330.14,-37.92 327.69,-44.92 332.59,-44.92"/>
</g>
<!-- row_base -->
<g id="node11" class="node">
<title>row_base</title>
<path fill="#d9ebf7" stroke="#1f4e79" d="M90.27,-36C90.27,-36 32.93,-36 32.93,-36 26.93,-36 17.91,-30.81 14.9,-25.63 14.9,-25.63 6.03,-10.37 6.03,-10.37 3.02,-5.19 6,0 12,0 12,0 69.35,0 69.35,0 75.35,0 84.36,-5.19 87.38,-10.37 87.38,-10.37 96.24,-25.63 96.24,-25.63 99.26,-30.81 96.27,-36 90.27,-36"/>
<text xml:space="preserve" text-anchor="middle" x="51.14" y="-14.5" font-family="Helvetica,sans-Serif" font-size="10.00">row_base</text>
</g>
<!-- row&#45;&gt;row_base -->
<g id="edge13" class="edge">
<title>row&#45;&gt;row_base</title>
<path fill="none" stroke="#1f4e79" d="M127.01,-90.84C112.41,-77.02 91.74,-57.45 75.66,-42.22"/>
<polygon fill="#1f4e79" stroke="#1f4e79" points="77.39,-40.49 70.63,-37.45 74.02,-44.04 77.39,-40.49"/>
</g>
<!-- row_ok -->
<g id="node12" class="node">
<title>row_ok</title>
<path fill="#fce4d6" stroke="#c55a11" d="M206.02,-36C206.02,-36 163.4,-36 163.4,-36 157.4,-36 148.82,-30.58 146.24,-25.17 146.24,-25.17 139.42,-10.83 139.42,-10.83 136.84,-5.42 140.26,0 146.26,0 146.26,0 188.88,0 188.88,0 194.88,0 203.46,-5.42 206.04,-10.83 206.04,-10.83 212.86,-25.17 212.86,-25.17 215.44,-30.58 212.02,-36 206.02,-36"/>
<text xml:space="preserve" text-anchor="middle" x="176.14" y="-14.5" font-family="Helvetica,sans-Serif" font-size="10.00">row_ok</text>
</g>
<!-- row&#45;&gt;row_ok -->
<g id="edge14" class="edge">
<title>row&#45;&gt;row_ok</title>
<path fill="none" stroke="#1f4e79" d="M151.11,-90.84C155.72,-77.63 162.15,-59.17 167.34,-44.27"/>
<polygon fill="#1f4e79" stroke="#1f4e79" points="169.59,-45.26 169.57,-37.84 164.96,-43.64 169.59,-45.26"/>
</g>
</g>
</svg>
