<?xml version="1.0" encoding="UTF-8" standalone="no"?>
<!DOCTYPE svg PUBLIC "-//W3C//DTD SVG 1.1//EN"
 "http://www.w3.org/Graphics/SVG/1.1/DTD/svg11.dtd">
<!-- Generated by graphviz version 14.1.2 (0)
 -->
<!-- Title: QPP_MOD_MULT_CELL_LEVEL Pages: 1 -->
<svg width="455pt" height="750pt"
 viewBox="0.00 0.00 455.00 750.00" xmlns="http://www.w3.org/2000/svg" xmlns:xlink="http://www.w3.org/1999/xlink">
<g id="graph0" class="graph" transform="scale(1 1) rotate(0) translate(4 745.5)">
<title>QPP_MOD_MULT_CELL_LEVEL</title>
<polygon fill="white" stroke="none" points="-4,4 -4,-745.5 450.5,-745.5 450.5,4 -4,4"/>
<!-- title -->
<g id="node1" class="node">
<title>title</title>
<text xml:space="preserve" text-anchor="middle" x="223.25" y="-720" font-family="Helvetica,sans-Serif" font-size="10.00">mod_mult: 16&#45;Slice Repeated Update Structure</text>
</g>
<!-- note -->
<g id="node2" class="node">
<title>note</title>
<polygon fill="#fff4cc" stroke="#9c6500" points="440.5,-650.5 0,-650.5 0,-606.5 446.5,-606.5 446.5,-644.5 440.5,-650.5"/>
<polyline fill="none" stroke="#9c6500" points="440.5,-650.5 440.5,-644.5"/>
<polyline fill="none" stroke="#9c6500" points="446.5,-644.5 440.5,-644.5"/>
<text xml:space="preserve" text-anchor="middle" x="223.25" y="-637" font-family="Helvetica,sans-Serif" font-size="10.00">mod_mult is a chain of 16 repeated update slices.</text>
<text xml:space="preserve" text-anchor="middle" x="223.25" y="-625" font-family="Helvetica,sans-Serif" font-size="10.00">This figure shows the repeated&#45;slice organization only.</text>
<text xml:space="preserve" text-anchor="middle" x="223.25" y="-613" font-family="Helvetica,sans-Serif" font-size="10.00">The exact operator structure of one slice is in QPP_MOD_MULT_UPDATE_SLICE_CELL_LEVEL.</text>
</g>
<!-- title&#45;&gt;note -->
<!-- inbus -->
<g id="node3" class="node">
<title>inbus</title>
<polygon fill="#d9ebf7" stroke="#1f4e79" points="293.56,-551.5 181.71,-551.5 152.94,-515.5 264.79,-515.5 293.56,-551.5"/>
<text xml:space="preserve" text-anchor="middle" x="223.25" y="-530" font-family="Helvetica,sans-Serif" font-size="10.00">a_i, b_i, mod_i</text>
</g>
<!-- note&#45;&gt;inbus -->
<g id="edge2" class="edge">
<title>note&#45;&gt;inbus</title>
<path fill="none" stroke="#1f4e79" d="M223.25,-606.4C223.25,-592.6 223.25,-574.5 223.25,-559.91"/>
<polygon fill="#1f4e79" stroke="#1f4e79" points="225.7,-560.3 223.25,-553.3 220.8,-560.3 225.7,-560.3"/>
</g>
<!-- init -->
<g id="node4" class="node">
<title>init</title>
<path fill="#eef5fb" stroke="#1f4e79" d="M266.5,-460.5C266.5,-460.5 180,-460.5 180,-460.5 174,-460.5 168,-454.5 168,-448.5 168,-448.5 168,-404.5 168,-404.5 168,-398.5 174,-392.5 180,-392.5 180,-392.5 266.5,-392.5 266.5,-392.5 272.5,-392.5 278.5,-398.5 278.5,-404.5 278.5,-404.5 278.5,-448.5 278.5,-448.5 278.5,-454.5 272.5,-460.5 266.5,-460.5"/>
<text xml:space="preserve" text-anchor="middle" x="223.25" y="-447" font-family="Helvetica,sans-Serif" font-size="10.00">Init</text>
<text xml:space="preserve" text-anchor="middle" x="223.25" y="-435" font-family="Helvetica,sans-Serif" font-size="10.00">mod_i=0 guard</text>
<text xml:space="preserve" text-anchor="middle" x="223.25" y="-423" font-family="Helvetica,sans-Serif" font-size="10.00">a_0 := a_i mod mod_i</text>
<text xml:space="preserve" text-anchor="middle" x="223.25" y="-411" font-family="Helvetica,sans-Serif" font-size="10.00">b_0 := b_i</text>
<text xml:space="preserve" text-anchor="middle" x="223.25" y="-399" font-family="Helvetica,sans-Serif" font-size="10.00">acc_0 := 0</text>
</g>
<!-- inbus&#45;&gt;init -->
<g id="edge3" class="edge">
<title>inbus&#45;&gt;init</title>
<path fill="none" stroke="#1f4e79" d="M223.25,-515.16C223.25,-502.56 223.25,-484.96 223.25,-468.84"/>
<polygon fill="#1f4e79" stroke="#1f4e79" points="225.7,-469.09 223.25,-462.09 220.8,-469.09 225.7,-469.09"/>
</g>
<!-- s0 -->
<g id="node5" class="node">
<title>s0</title>
<path fill="#eef5fb" stroke="#1f4e79" d="M251.5,-328C251.5,-328 195,-328 195,-328 189,-328 183,-322 183,-316 183,-316 183,-304 183,-304 183,-298 189,-292 195,-292 195,-292 251.5,-292 251.5,-292 257.5,-292 263.5,-298 263.5,-304 263.5,-304 263.5,-316 263.5,-316 263.5,-322 257.5,-328 251.5,-328"/>
<text xml:space="preserve" text-anchor="middle" x="223.25" y="-312.5" font-family="Helvetica,sans-Serif" font-size="10.00">UpdateSlice(0)</text>
<text xml:space="preserve" text-anchor="middle" x="223.25" y="-300.5" font-family="Helvetica,sans-Serif" font-size="10.00">1 of 16</text>
</g>
<!-- init&#45;&gt;s0 -->
<g id="edge4" class="edge">
<title>init&#45;&gt;s0</title>
<path fill="none" stroke="#1f4e79" d="M223.25,-392.07C223.25,-374.47 223.25,-353.22 223.25,-336.89"/>
<polygon fill="#1f4e79" stroke="#1f4e79" points="225.7,-336.89 223.25,-329.89 220.8,-336.89 225.7,-336.89"/>
<text xml:space="preserve" text-anchor="middle" x="253.62" y="-356.95" font-family="Helvetica,sans-Serif" font-size="9.00">a_0,b_0,acc_0</text>
</g>
<!-- s1 -->
<g id="node6" class="node">
<title>s1</title>
<path fill="#eef5fb" stroke="#1f4e79" d="M251.5,-227.5C251.5,-227.5 195,-227.5 195,-227.5 189,-227.5 183,-221.5 183,-215.5 183,-215.5 183,-203.5 183,-203.5 183,-197.5 189,-191.5 195,-191.5 195,-191.5 251.5,-191.5 251.5,-191.5 257.5,-191.5 263.5,-197.5 263.5,-203.5 263.5,-203.5 263.5,-215.5 263.5,-215.5 263.5,-221.5 257.5,-227.5 251.5,-227.5"/>
<text xml:space="preserve" text-anchor="middle" x="223.25" y="-212" font-family="Helvetica,sans-Serif" font-size="10.00">UpdateSlice(1)</text>
<text xml:space="preserve" text-anchor="middle" x="223.25" y="-200" font-family="Helvetica,sans-Serif" font-size="10.00">2 of 16</text>
</g>
<!-- s0&#45;&gt;s1 -->
<g id="edge5" class="edge">
<title>s0&#45;&gt;s1</title>
<path fill="none" stroke="#1f4e79" d="M223.25,-291.84C223.25,-276.4 223.25,-253.5 223.25,-235.93"/>
<polygon fill="#1f4e79" stroke="#1f4e79" points="225.7,-236.3 223.25,-229.3 220.8,-236.3 225.7,-236.3"/>
<text xml:space="preserve" text-anchor="middle" x="253.62" y="-256.45" font-family="Helvetica,sans-Serif" font-size="9.00">a_1,b_1,acc_1</text>
</g>
<!-- s15 -->
<g id="node8" class="node">
<title>s15</title>
<path fill="#eef5fb" stroke="#1f4e79" d="M254.12,-127C254.12,-127 192.38,-127 192.38,-127 186.38,-127 180.38,-121 180.38,-115 180.38,-115 180.38,-103 180.38,-103 180.38,-97 186.38,-91 192.38,-91 192.38,-91 254.12,-91 254.12,-91 260.12,-91 266.12,-97 266.12,-103 266.12,-103 266.12,-115 266.12,-115 266.12,-121 260.12,-127 254.12,-127"/>
<text xml:space="preserve" text-anchor="middle" x="223.25" y="-111.5" font-family="Helvetica,sans-Serif" font-size="10.00">UpdateSlice(15)</text>
<text xml:space="preserve" text-anchor="middle" x="223.25" y="-99.5" font-family="Helvetica,sans-Serif" font-size="10.00">16 of 16</text>
</g>
<!-- s1&#45;&gt;s15 -->
<g id="edge6" class="edge">
<title>s1&#45;&gt;s15</title>
<path fill="none" stroke="#1f4e79" d="M223.25,-191.34C223.25,-175.9 223.25,-153 223.25,-135.43"/>
<polygon fill="#1f4e79" stroke="#1f4e79" points="225.7,-135.8 223.25,-128.8 220.8,-135.8 225.7,-135.8"/>
<text xml:space="preserve" text-anchor="middle" x="260.38" y="-155.95" font-family="Helvetica,sans-Serif" font-size="9.00">repeat slices 2..14</text>
</g>
<!-- dots -->
<g id="node7" class="node">
<title>dots</title>
<text xml:space="preserve" text-anchor="middle" x="393.25" y="-720" font-family="Helvetica,sans-Serif" font-size="10.00">...</text>
</g>
<!-- out -->
<g id="node9" class="node">
<title>out</title>
<polygon fill="#d9ebf7" stroke="#1f4e79" points="260.5,-36 201.24,-36 186,0 245.26,0 260.5,-36"/>
<text xml:space="preserve" text-anchor="middle" x="223.25" y="-14.5" font-family="Helvetica,sans-Serif" font-size="10.00">acc_v</text>
</g>
<!-- s15&#45;&gt;out -->
<g id="edge7" class="edge">
<title>s15&#45;&gt;out</title>
<path fill="none" stroke="#1f4e79" d="M223.25,-90.84C223.25,-77.75 223.25,-59.51 223.25,-44.68"/>
<polygon fill="#1f4e79" stroke="#1f4e79" points="225.7,-44.92 223.25,-37.92 220.8,-44.92 225.7,-44.92"/>
</g>
</g>
</svg>
