<?xml version="1.0" encoding="UTF-8" standalone="no"?>
<!DOCTYPE svg PUBLIC "-//W3C//DTD SVG 1.1//EN"
 "http://www.w3.org/Graphics/SVG/1.1/DTD/svg11.dtd">
<!-- Generated by graphviz version 14.1.2 (0)
 -->
<!-- Title: QPP_VALUE_CELL_LEVEL Pages: 1 -->
<svg width="1223pt" height="1100pt"
 viewBox="0.00 0.00 1223.00 1100.00" xmlns="http://www.w3.org/2000/svg" xmlns:xlink="http://www.w3.org/1999/xlink">
<g id="graph0" class="graph" transform="scale(1 1) rotate(0) translate(4 1095.5)">
<title>QPP_VALUE_CELL_LEVEL</title>
<polygon fill="white" stroke="none" points="-4,4 -4,-1095.5 1219.15,-1095.5 1219.15,4 -4,4"/>
<!-- title -->
<g id="node1" class="node">
<title>title</title>
<text xml:space="preserve" text-anchor="middle" x="99.5" y="-1070" font-family="Helvetica,sans-Serif" font-size="10.00">qpp_value: Cell&#45;Level Arithmetic Structure</text>
</g>
<!-- note -->
<g id="node2" class="node">
<title>note</title>
<polygon fill="#fff4cc" stroke="#9c6500" points="634.38,-1091.5 230.62,-1091.5 230.62,-1055.5 640.38,-1055.5 640.38,-1085.5 634.38,-1091.5"/>
<polyline fill="none" stroke="#9c6500" points="634.38,-1091.5 634.38,-1085.5"/>
<polyline fill="none" stroke="#9c6500" points="640.38,-1085.5 634.38,-1085.5"/>
<text xml:space="preserve" text-anchor="middle" x="435.5" y="-1076" font-family="Helvetica,sans-Serif" font-size="10.00">qpp_value = three modular multiplies plus one add / compare / subtract / mux reduce path.</text>
<text xml:space="preserve" text-anchor="middle" x="435.5" y="-1064" font-family="Helvetica,sans-Serif" font-size="10.00">This figure keeps the arithmetic as explicit combinational operator blocks.</text>
</g>
<!-- idx_i -->
<g id="node3" class="node">
<title>idx_i</title>
<polygon fill="#d9ebf7" stroke="#1f4e79" points="832.46,-1091.5 781.62,-1091.5 768.54,-1055.5 819.38,-1055.5 832.46,-1091.5"/>
<text xml:space="preserve" text-anchor="middle" x="800.5" y="-1070" font-family="Helvetica,sans-Serif" font-size="10.00">idx_i</text>
</g>
<!-- mm1 -->
<g id="node7" class="node">
<title>mm1</title>
<path fill="#eef5fb" stroke="#1f4e79" d="M766.88,-991C766.88,-991 708.12,-991 708.12,-991 702.12,-991 696.12,-985 696.12,-979 696.12,-979 696.12,-959 696.12,-959 696.12,-953 702.12,-947 708.12,-947 708.12,-947 766.88,-947 766.88,-947 772.88,-947 778.88,-953 778.88,-959 778.88,-959 778.88,-979 778.88,-979 778.88,-985 772.88,-991 766.88,-991"/>
<text xml:space="preserve" text-anchor="middle" x="737.5" y="-977.5" font-family="Helvetica,sans-Serif" font-size="10.00">mod_mult</text>
<text xml:space="preserve" text-anchor="middle" x="737.5" y="-965.5" font-family="Helvetica,sans-Serif" font-size="10.00">(f1_i, idx_i, k_i)</text>
<text xml:space="preserve" text-anchor="middle" x="737.5" y="-953.5" font-family="Helvetica,sans-Serif" font-size="10.00">term1</text>
</g>
<!-- idx_i&#45;&gt;mm1 -->
<g id="edge2" class="edge">
<title>idx_i&#45;&gt;mm1</title>
<path fill="none" stroke="#1f4e79" d="M789.81,-1055.11C780.27,-1039.58 766.11,-1016.54 754.92,-998.35"/>
<polygon fill="#1f4e79" stroke="#1f4e79" points="757.19,-997.36 751.44,-992.68 753.02,-999.93 757.19,-997.36"/>
<text xml:space="preserve" text-anchor="middle" x="779.15" y="-1019.95" font-family="Helvetica,sans-Serif" font-size="9.00">b_i</text>
</g>
<!-- mm2 -->
<g id="node8" class="node">
<title>mm2</title>
<path fill="#eef5fb" stroke="#1f4e79" d="M886.12,-991C886.12,-991 822.88,-991 822.88,-991 816.88,-991 810.88,-985 810.88,-979 810.88,-979 810.88,-959 810.88,-959 810.88,-953 816.88,-947 822.88,-947 822.88,-947 886.12,-947 886.12,-947 892.12,-947 898.12,-953 898.12,-959 898.12,-959 898.12,-979 898.12,-979 898.12,-985 892.12,-991 886.12,-991"/>
<text xml:space="preserve" text-anchor="middle" x="854.5" y="-977.5" font-family="Helvetica,sans-Serif" font-size="10.00">mod_mult</text>
<text xml:space="preserve" text-anchor="middle" x="854.5" y="-965.5" font-family="Helvetica,sans-Serif" font-size="10.00">(idx_i, idx_i, k_i)</text>
<text xml:space="preserve" text-anchor="middle" x="854.5" y="-953.5" font-family="Helvetica,sans-Serif" font-size="10.00">idx_sq</text>
</g>
<!-- idx_i&#45;&gt;mm2 -->
<g id="edge4" class="edge">
<title>idx_i&#45;&gt;mm2</title>
<path fill="none" stroke="#1f4e79" d="M799.41,-1055.11C798.64,-1042.81 797.75,-1028.5 797.75,-1028.5 797.75,-1028.5 797.75,-1018 797.75,-1018 797.75,-1018 809.75,-1007.85 822.72,-996.88"/>
<polygon fill="#1f4e79" stroke="#1f4e79" points="824.19,-998.84 827.96,-992.45 821.03,-995.1 824.19,-998.84"/>
<text xml:space="preserve" text-anchor="middle" x="804.12" y="-1019.95" font-family="Helvetica,sans-Serif" font-size="9.00">a_i</text>
</g>
<!-- idx_i&#45;&gt;mm2 -->
<g id="edge5" class="edge">
<title>idx_i&#45;&gt;mm2</title>
<path fill="none" stroke="#1f4e79" d="M809.66,-1055.11C817.77,-1039.72 829.77,-1016.95 839.31,-998.83"/>
<polygon fill="#1f4e79" stroke="#1f4e79" points="841.43,-1000.06 842.53,-992.73 837.1,-997.78 841.43,-1000.06"/>
<text xml:space="preserve" text-anchor="middle" x="835.49" y="-1019.95" font-family="Helvetica,sans-Serif" font-size="9.00">b_i</text>
</g>
<!-- k_i -->
<g id="node4" class="node">
<title>k_i</title>
<polygon fill="#d9ebf7" stroke="#1f4e79" points="1039.49,-1091.5 994.96,-1091.5 983.51,-1055.5 1028.04,-1055.5 1039.49,-1091.5"/>
<text xml:space="preserve" text-anchor="middle" x="1011.5" y="-1070" font-family="Helvetica,sans-Serif" font-size="10.00">k_i</text>
</g>
<!-- k_i&#45;&gt;mm1 -->
<g id="edge3" class="edge">
<title>k_i&#45;&gt;mm1</title>
<path fill="none" stroke="#1f4e79" d="M985.72,-1062.86C940.21,-1045.83 844.9,-1010.18 786.53,-988.34"/>
<polygon fill="#1f4e79" stroke="#1f4e79" points="787.73,-986.17 780.31,-986.02 786.01,-990.76 787.73,-986.17"/>
<text xml:space="preserve" text-anchor="middle" x="903.65" y="-1019.95" font-family="Helvetica,sans-Serif" font-size="9.00">mod_i</text>
</g>
<!-- k_i&#45;&gt;mm2 -->
<g id="edge6" class="edge">
<title>k_i&#45;&gt;mm2</title>
<path fill="none" stroke="#1f4e79" d="M984.87,-1055.11C960.03,-1038.89 922.64,-1014.49 894.27,-995.96"/>
<polygon fill="#1f4e79" stroke="#1f4e79" points="895.73,-993.99 888.53,-992.22 893.05,-998.1 895.73,-993.99"/>
<text xml:space="preserve" text-anchor="middle" x="955.15" y="-1019.95" font-family="Helvetica,sans-Serif" font-size="9.00">mod_i</text>
</g>
<!-- mm3 -->
<g id="node9" class="node">
<title>mm3</title>
<path fill="#eef5fb" stroke="#1f4e79" d="M968,-756.5C968,-756.5 901,-756.5 901,-756.5 895,-756.5 889,-750.5 889,-744.5 889,-744.5 889,-724.5 889,-724.5 889,-718.5 895,-712.5 901,-712.5 901,-712.5 968,-712.5 968,-712.5 974,-712.5 980,-718.5 980,-724.5 980,-724.5 980,-744.5 980,-744.5 980,-750.5 974,-756.5 968,-756.5"/>
<text xml:space="preserve" text-anchor="middle" x="934.5" y="-743" font-family="Helvetica,sans-Serif" font-size="10.00">mod_mult</text>
<text xml:space="preserve" text-anchor="middle" x="934.5" y="-731" font-family="Helvetica,sans-Serif" font-size="10.00">(f2_i, idx_sq, k_i)</text>
<text xml:space="preserve" text-anchor="middle" x="934.5" y="-719" font-family="Helvetica,sans-Serif" font-size="10.00">term2</text>
</g>
<!-- k_i&#45;&gt;mm3 -->
<g id="edge11" class="edge">
<title>k_i&#45;&gt;mm3</title>
<path fill="none" stroke="#1f4e79" d="M1008.97,-1055.14C1001.24,-1002.22 978.5,-846.5 978.5,-846.5 978.5,-846.5 955.5,-783.5 955.5,-783.5 955.5,-783.5 951.68,-774.77 947.3,-764.76"/>
<polygon fill="#1f4e79" stroke="#1f4e79" points="949.55,-763.79 944.5,-758.36 945.06,-765.75 949.55,-763.79"/>
<text xml:space="preserve" text-anchor="middle" x="1001.78" y="-911.45" font-family="Helvetica,sans-Serif" font-size="9.00">mod_i</text>
</g>
<!-- cmp -->
<g id="node11" class="node">
<title>cmp</title>
<polygon fill="#fde9d9" stroke="#c55a11" points="1143.5,-356 1071.85,-338 1143.5,-320 1215.15,-338 1143.5,-356"/>
<text xml:space="preserve" text-anchor="middle" x="1143.5" y="-334.5" font-family="Helvetica,sans-Serif" font-size="10.00">sum_v &gt;= k_i ?</text>
</g>
<!-- k_i&#45;&gt;cmp -->
<g id="edge18" class="edge">
<title>k_i&#45;&gt;cmp</title>
<path fill="none" stroke="#1f4e79" d="M1029.54,-1058.58C1046.23,-1045.69 1068.5,-1028.5 1068.5,-1028.5 1068.5,-1028.5 1143.5,-970 1143.5,-970 1143.5,-970 1143.5,-970 1143.5,-437.5 1143.5,-437.5 1143.5,-393.49 1143.5,-364.31"/>
<polygon fill="#1f4e79" stroke="#1f4e79" points="1145.95,-364.67 1143.5,-357.67 1141.05,-364.67 1145.95,-364.67"/>
</g>
<!-- sub -->
<g id="node12" class="node">
<title>sub</title>
<ellipse fill="#e2f0d9" stroke="#548235" cx="1021.5" cy="-338" rx="18" ry="18"/>
<text xml:space="preserve" text-anchor="middle" x="1021.5" y="-334.5" font-family="Helvetica,sans-Serif" font-size="10.00">&#45;</text>
</g>
<!-- k_i&#45;&gt;sub -->
<g id="edge19" class="edge">
<title>k_i&#45;&gt;sub</title>
<path fill="none" stroke="#1f4e79" d="M1022.7,-1055.11C1041.53,-1025.87 1077.5,-970 1077.5,-970 1077.5,-970 1077.5,-970 1077.5,-437.5 1077.5,-437.5 1050.68,-390.32 1034.16,-361.27"/>
<polygon fill="#1f4e79" stroke="#1f4e79" points="1036.34,-360.15 1030.75,-355.28 1032.08,-362.57 1036.34,-360.15"/>
<text xml:space="preserve" text-anchor="middle" x="1083.88" y="-676.95" font-family="Helvetica,sans-Serif" font-size="9.00">in1</text>
</g>
<!-- f1_i -->
<g id="node5" class="node">
<title>f1_i</title>
<polygon fill="#d9ebf7" stroke="#1f4e79" points="728.49,-1091.5 683.96,-1091.5 672.51,-1055.5 717.04,-1055.5 728.49,-1091.5"/>
<text xml:space="preserve" text-anchor="middle" x="700.5" y="-1070" font-family="Helvetica,sans-Serif" font-size="10.00">f1_i</text>
</g>
<!-- f1_i&#45;&gt;mm1 -->
<g id="edge1" class="edge">
<title>f1_i&#45;&gt;mm1</title>
<path fill="none" stroke="#1f4e79" d="M699.41,-1055.11C698.64,-1042.81 697.75,-1028.5 697.75,-1028.5 697.75,-1028.5 697.75,-1018 697.75,-1018 697.75,-1018 705.71,-1008.39 714.5,-997.78"/>
<polygon fill="#1f4e79" stroke="#1f4e79" points="716.17,-999.59 718.75,-992.64 712.4,-996.47 716.17,-999.59"/>
<text xml:space="preserve" text-anchor="middle" x="704.12" y="-1019.95" font-family="Helvetica,sans-Serif" font-size="9.00">a_i</text>
</g>
<!-- f2_i -->
<g id="node6" class="node">
<title>f2_i</title>
<polygon fill="#d9ebf7" stroke="#1f4e79" points="962.49,-882.5 917.96,-882.5 906.51,-846.5 951.04,-846.5 962.49,-882.5"/>
<text xml:space="preserve" text-anchor="middle" x="934.5" y="-861" font-family="Helvetica,sans-Serif" font-size="10.00">f2_i</text>
</g>
<!-- f2_i&#45;&gt;mm3 -->
<g id="edge7" class="edge">
<title>f2_i&#45;&gt;mm3</title>
<path fill="none" stroke="#1f4e79" d="M934.5,-846.24C934.5,-825.48 934.5,-790.31 934.5,-765.17"/>
<polygon fill="#1f4e79" stroke="#1f4e79" points="936.95,-765.25 934.5,-758.25 932.05,-765.25 936.95,-765.25"/>
<text xml:space="preserve" text-anchor="middle" x="940.88" y="-798.2" font-family="Helvetica,sans-Serif" font-size="9.00">a_i</text>
</g>
<!-- term1 -->
<g id="node14" class="node">
<title>term1</title>
<polygon fill="#d9ebf7" stroke="#1f4e79" points="799.43,-819.5 742.27,-819.5 727.57,-783.5 784.73,-783.5 799.43,-819.5"/>
<text xml:space="preserve" text-anchor="middle" x="763.5" y="-798" font-family="Helvetica,sans-Serif" font-size="10.00">term1</text>
</g>
<!-- mm1&#45;&gt;term1 -->
<g id="edge8" class="edge">
<title>mm1&#45;&gt;term1</title>
<path fill="none" stroke="#1f4e79" d="M740.85,-946.7C745.63,-916.25 754.41,-860.36 759.52,-827.82"/>
<polygon fill="#1f4e79" stroke="#1f4e79" points="761.9,-828.49 760.56,-821.19 757.06,-827.73 761.9,-828.49"/>
</g>
<!-- idx_sq -->
<g id="node15" class="node">
<title>idx_sq</title>
<polygon fill="#d9ebf7" stroke="#1f4e79" points="874.73,-882.5 812.32,-882.5 796.27,-846.5 858.68,-846.5 874.73,-882.5"/>
<text xml:space="preserve" text-anchor="middle" x="835.5" y="-861" font-family="Helvetica,sans-Serif" font-size="10.00">idx_sq</text>
</g>
<!-- mm2&#45;&gt;idx_sq -->
<g id="edge9" class="edge">
<title>mm2&#45;&gt;idx_sq</title>
<path fill="none" stroke="#1f4e79" d="M850.56,-946.76C847.56,-930.54 843.4,-908.11 840.21,-890.93"/>
<polygon fill="#1f4e79" stroke="#1f4e79" points="842.7,-890.89 839.01,-884.45 837.88,-891.78 842.7,-890.89"/>
</g>
<!-- term2 -->
<g id="node16" class="node">
<title>term2</title>
<polygon fill="#d9ebf7" stroke="#1f4e79" points="970.43,-648 913.27,-648 898.57,-612 955.73,-612 970.43,-648"/>
<text xml:space="preserve" text-anchor="middle" x="934.5" y="-626.5" font-family="Helvetica,sans-Serif" font-size="10.00">term2</text>
</g>
<!-- mm3&#45;&gt;term2 -->
<g id="edge12" class="edge">
<title>mm3&#45;&gt;term2</title>
<path fill="none" stroke="#1f4e79" d="M934.5,-712.26C934.5,-696.18 934.5,-674.02 934.5,-656.9"/>
<polygon fill="#1f4e79" stroke="#1f4e79" points="936.95,-656.98 934.5,-649.98 932.05,-656.98 936.95,-656.98"/>
</g>
<!-- add -->
<g id="node10" class="node">
<title>add</title>
<ellipse fill="#e2f0d9" stroke="#548235" cx="934.5" cy="-529.5" rx="18" ry="18"/>
<text xml:space="preserve" text-anchor="middle" x="934.5" y="-526" font-family="Helvetica,sans-Serif" font-size="10.00">+</text>
</g>
<!-- sumv -->
<g id="node17" class="node">
<title>sumv</title>
<polygon fill="#d9ebf7" stroke="#1f4e79" points="1015.4,-456.5 951.93,-456.5 935.6,-420.5 999.07,-420.5 1015.4,-456.5"/>
<text xml:space="preserve" text-anchor="middle" x="975.5" y="-435" font-family="Helvetica,sans-Serif" font-size="10.00">sum_v</text>
</g>
<!-- add&#45;&gt;sumv -->
<g id="edge15" class="edge">
<title>add&#45;&gt;sumv</title>
<path fill="none" stroke="#1f4e79" d="M941.83,-512.59C947.99,-499.22 956.9,-479.88 964.01,-464.45"/>
<polygon fill="#1f4e79" stroke="#1f4e79" points="966.2,-465.55 966.9,-458.17 961.75,-463.5 966.2,-465.55"/>
</g>
<!-- mux -->
<g id="node13" class="node">
<title>mux</title>
<polygon fill="#e2f0d9" stroke="#548235" points="1050.17,-155 1000.83,-155 983.25,-91 1067.75,-91 1050.17,-155"/>
<text xml:space="preserve" text-anchor="middle" x="1025.5" y="-125.5" font-family="Helvetica,sans-Serif" font-size="10.00">MUX</text>
<text xml:space="preserve" text-anchor="middle" x="1025.5" y="-113.5" font-family="Helvetica,sans-Serif" font-size="10.00">addr_i</text>
</g>
<!-- cmp&#45;&gt;mux -->
<g id="edge23" class="edge">
<title>cmp&#45;&gt;mux</title>
<path fill="none" stroke="#1f4e79" d="M1137.03,-321.15C1123.92,-289.08 1095.5,-219.5 1095.5,-219.5 1095.5,-219.5 1072.84,-188.58 1053.3,-161.93"/>
<polygon fill="#1f4e79" stroke="#1f4e79" points="1055.43,-160.69 1049.32,-156.49 1051.48,-163.59 1055.43,-160.69"/>
<text xml:space="preserve" text-anchor="middle" x="1134.88" y="-234.2" font-family="Helvetica,sans-Serif" font-size="9.00">sel=subtract</text>
</g>
<!-- redv -->
<g id="node18" class="node">
<title>redv</title>
<polygon fill="#d9ebf7" stroke="#1f4e79" points="1079.28,-255.5 993.73,-255.5 971.72,-219.5 1057.27,-219.5 1079.28,-255.5"/>
<text xml:space="preserve" text-anchor="middle" x="1025.5" y="-234" font-family="Helvetica,sans-Serif" font-size="10.00">sum_v&#45;k_i</text>
</g>
<!-- sub&#45;&gt;redv -->
<g id="edge20" class="edge">
<title>sub&#45;&gt;redv</title>
<path fill="none" stroke="#1f4e79" d="M1022.2,-319.84C1022.82,-304.4 1023.75,-281.5 1024.47,-263.93"/>
<polygon fill="#1f4e79" stroke="#1f4e79" points="1026.9,-264.4 1024.74,-257.3 1022,-264.2 1026.9,-264.4"/>
</g>
<!-- addr_i -->
<g id="node19" class="node">
<title>addr_i</title>
<polygon fill="#d9ebf7" stroke="#1f4e79" points="1062.75,-36 1003.49,-36 988.25,0 1047.51,0 1062.75,-36"/>
<text xml:space="preserve" text-anchor="middle" x="1025.5" y="-14.5" font-family="Helvetica,sans-Serif" font-size="10.00">addr_i</text>
</g>
<!-- mux&#45;&gt;addr_i -->
<g id="edge24" class="edge">
<title>mux&#45;&gt;addr_i</title>
<path fill="none" stroke="#1f4e79" d="M1025.5,-90.54C1025.5,-75.74 1025.5,-58.33 1025.5,-44.39"/>
<polygon fill="#1f4e79" stroke="#1f4e79" points="1027.95,-44.73 1025.5,-37.73 1023.05,-44.73 1027.95,-44.73"/>
</g>
<!-- term1&#45;&gt;add -->
<g id="edge13" class="edge">
<title>term1&#45;&gt;add</title>
<path fill="none" stroke="#1f4e79" d="M774.48,-783.1C803.94,-736.44 882.5,-612 882.5,-612 882.5,-612 905.29,-576.28 920.69,-552.14"/>
<polygon fill="#1f4e79" stroke="#1f4e79" points="922.69,-553.57 924.39,-546.35 918.56,-550.93 922.69,-553.57"/>
<text xml:space="preserve" text-anchor="middle" x="848.54" y="-676.95" font-family="Helvetica,sans-Serif" font-size="9.00">in0</text>
</g>
<!-- idx_sq&#45;&gt;mm3 -->
<g id="edge10" class="edge">
<title>idx_sq&#45;&gt;mm3</title>
<path fill="none" stroke="#1f4e79" d="M848.85,-846.24C865.32,-824.94 893.54,-788.46 913.06,-763.22"/>
<polygon fill="#1f4e79" stroke="#1f4e79" points="914.8,-764.97 917.15,-757.94 910.93,-761.98 914.8,-764.97"/>
<text xml:space="preserve" text-anchor="middle" x="903.15" y="-798.2" font-family="Helvetica,sans-Serif" font-size="9.00">b_i</text>
</g>
<!-- term2&#45;&gt;add -->
<g id="edge14" class="edge">
<title>term2&#45;&gt;add</title>
<path fill="none" stroke="#1f4e79" d="M934.5,-611.84C934.5,-596.4 934.5,-573.5 934.5,-555.93"/>
<polygon fill="#1f4e79" stroke="#1f4e79" points="936.95,-556.3 934.5,-549.3 932.05,-556.3 936.95,-556.3"/>
<text xml:space="preserve" text-anchor="middle" x="940.88" y="-576.45" font-family="Helvetica,sans-Serif" font-size="9.00">in1</text>
</g>
<!-- sumv&#45;&gt;cmp -->
<g id="edge16" class="edge">
<title>sumv&#45;&gt;cmp</title>
<path fill="none" stroke="#1f4e79" d="M1000.29,-422.97C1030.96,-404.98 1083.07,-374.43 1115.26,-355.56"/>
<polygon fill="#1f4e79" stroke="#1f4e79" points="1116.49,-357.68 1121.29,-352.02 1114.01,-353.45 1116.49,-357.68"/>
</g>
<!-- sumv&#45;&gt;sub -->
<g id="edge17" class="edge">
<title>sumv&#45;&gt;sub</title>
<path fill="none" stroke="#1f4e79" d="M982.22,-420.26C988.45,-404.29 996.75,-383 996.75,-383 996.75,-383 1002.93,-372.01 1009.12,-361.01"/>
<polygon fill="#1f4e79" stroke="#1f4e79" points="1011.08,-362.52 1012.38,-355.22 1006.81,-360.12 1011.08,-362.52"/>
<text xml:space="preserve" text-anchor="middle" x="1003.12" y="-384.95" font-family="Helvetica,sans-Serif" font-size="9.00">in0</text>
</g>
<!-- sumv&#45;&gt;mux -->
<g id="edge22" class="edge">
<title>sumv&#45;&gt;mux</title>
<path fill="none" stroke="#1f4e79" d="M973.58,-420.05C968.58,-374.5 955.5,-255.5 955.5,-255.5 955.5,-255.5 955.5,-219.5 955.5,-219.5 955.5,-219.5 978.16,-188.58 997.7,-161.93"/>
<polygon fill="#1f4e79" stroke="#1f4e79" points="999.52,-163.59 1001.68,-156.49 995.57,-160.69 999.52,-163.59"/>
<text xml:space="preserve" text-anchor="middle" x="965.81" y="-284.45" font-family="Helvetica,sans-Serif" font-size="9.00">in0</text>
</g>
<!-- redv&#45;&gt;mux -->
<g id="edge21" class="edge">
<title>redv&#45;&gt;mux</title>
<path fill="none" stroke="#1f4e79" d="M1025.5,-219.41C1025.5,-204.64 1025.5,-182.7 1025.5,-163.58"/>
<polygon fill="#1f4e79" stroke="#1f4e79" points="1027.95,-163.83 1025.5,-156.83 1023.05,-163.83 1027.95,-163.83"/>
<text xml:space="preserve" text-anchor="middle" x="1031.88" y="-183.95" font-family="Helvetica,sans-Serif" font-size="9.00">in1</text>
</g>
</g>
</svg>
