<?xml version="1.0" encoding="UTF-8" standalone="no"?>
<!DOCTYPE svg PUBLIC "-//W3C//DTD SVG 1.1//EN"
 "http://www.w3.org/Graphics/SVG/1.1/DTD/svg11.dtd">
<!-- Generated by graphviz version 14.1.2 (0)
 -->
<!-- Title: batcher_master_data Pages: 1 -->
<svg width="1163pt" height="236pt"
 viewBox="0.00 0.00 1163.00 236.00" xmlns="http://www.w3.org/2000/svg" xmlns:xlink="http://www.w3.org/1999/xlink">
<g id="graph0" class="graph" transform="scale(1 1) rotate(0) translate(14.4 221.15)">
<title>batcher_master_data</title>
<polygon fill="white" stroke="none" points="-14.4,14.4 -14.4,-221.15 1148.35,-221.15 1148.35,14.4 -14.4,14.4"/>
<text xml:space="preserve" text-anchor="middle" x="566.98" y="-189.45" font-family="Helvetica,sans-Serif" font-size="14.00">batcher_master Datapath</text>
<!-- addr_in -->
<g id="node1" class="node">
<title>addr_in</title>
<path fill="#f8fafc" stroke="#334155" d="M106.28,-183C106.28,-183 61.88,-183 61.88,-183 55.88,-183 49.88,-177 49.88,-171 49.88,-171 49.88,-159 49.88,-159 49.88,-153 55.88,-147 61.88,-147 61.88,-147 106.28,-147 106.28,-147 112.28,-147 118.28,-153 118.28,-159 118.28,-159 118.28,-171 118.28,-171 118.28,-177 112.28,-183 106.28,-183"/>
<text xml:space="preserve" text-anchor="middle" x="84.08" y="-161.5" font-family="Helvetica,sans-Serif" font-size="10.00">addr_in[0..7]</text>
</g>
<!-- stage0 -->
<g id="node6" class="node">
<title>stage0</title>
<path fill="#fffbeb" stroke="#334155" d="M288.65,-122C288.65,-122 258.65,-122 258.65,-122 252.65,-122 246.65,-116 246.65,-110 246.65,-110 246.65,-98 246.65,-98 246.65,-92 252.65,-86 258.65,-86 258.65,-86 288.65,-86 288.65,-86 294.65,-86 300.65,-92 300.65,-98 300.65,-98 300.65,-110 300.65,-110 300.65,-116 294.65,-122 288.65,-122"/>
<text xml:space="preserve" text-anchor="middle" x="273.65" y="-106.5" font-family="Helvetica,sans-Serif" font-size="10.00">Stage 0</text>
<text xml:space="preserve" text-anchor="middle" x="273.65" y="-94.5" font-family="Helvetica,sans-Serif" font-size="10.00">4 cells</text>
</g>
<!-- addr_in&#45;&gt;stage0 -->
<g id="edge1" class="edge">
<title>addr_in&#45;&gt;stage0</title>
<path fill="none" stroke="#475569" stroke-width="1.1" d="M118.49,-154.24C158.92,-141.21 221.65,-121 221.65,-121 221.65,-121 229.07,-118.53 238.25,-115.47"/>
<polygon fill="#475569" stroke="#475569" stroke-width="1.1" points="238.81,-117.86 244.67,-113.33 237.26,-113.21 238.81,-117.86"/>
<text xml:space="preserve" text-anchor="middle" x="207.4" y="-131.37" font-family="Helvetica,sans-Serif" font-size="9.00">addr_v</text>
</g>
<!-- tag_init -->
<g id="node2" class="node">
<title>tag_init</title>
<path fill="#f8fafc" stroke="#334155" d="M134.03,-122C134.03,-122 34.13,-122 34.13,-122 28.13,-122 22.13,-116 22.13,-110 22.13,-110 22.13,-98 22.13,-98 22.13,-92 28.13,-86 34.13,-86 34.13,-86 134.03,-86 134.03,-86 140.03,-86 146.03,-92 146.03,-98 146.03,-98 146.03,-110 146.03,-110 146.03,-116 140.03,-122 134.03,-122"/>
<text xml:space="preserve" text-anchor="middle" x="84.08" y="-100.5" font-family="Helvetica,sans-Serif" font-size="10.00">lane_v = [0,1,2,3,4,5,6,7]</text>
</g>
<!-- tag_init&#45;&gt;stage0 -->
<g id="edge2" class="edge">
<title>tag_init&#45;&gt;stage0</title>
<path fill="none" stroke="#475569" stroke-width="1.1" d="M146.49,-104C176.7,-104 212,-104 237.57,-104"/>
<polygon fill="#475569" stroke="#475569" stroke-width="1.1" points="237.52,-106.45 244.52,-104 237.52,-101.55 237.52,-106.45"/>
<text xml:space="preserve" text-anchor="middle" x="207.4" y="-105.95" font-family="Helvetica,sans-Serif" font-size="9.00">lane_v</text>
</g>
<!-- addr_out -->
<g id="node3" class="node">
<title>addr_out</title>
<path fill="#f8fafc" stroke="#334155" d="M1121.95,-97C1121.95,-97 1080.55,-97 1080.55,-97 1074.55,-97 1068.55,-91 1068.55,-85 1068.55,-85 1068.55,-73 1068.55,-73 1068.55,-67 1074.55,-61 1080.55,-61 1080.55,-61 1121.95,-61 1121.95,-61 1127.95,-61 1133.95,-67 1133.95,-73 1133.95,-73 1133.95,-85 1133.95,-85 1133.95,-91 1127.95,-97 1121.95,-97"/>
<text xml:space="preserve" text-anchor="middle" x="1101.25" y="-75.5" font-family="Helvetica,sans-Serif" font-size="10.00">addr_sorted</text>
</g>
<!-- perm_out -->
<g id="node4" class="node">
<title>perm_out</title>
<path fill="#f8fafc" stroke="#334155" d="M1116.7,-36C1116.7,-36 1085.8,-36 1085.8,-36 1079.8,-36 1073.8,-30 1073.8,-24 1073.8,-24 1073.8,-12 1073.8,-12 1073.8,-6 1079.8,0 1085.8,0 1085.8,0 1116.7,0 1116.7,0 1122.7,0 1128.7,-6 1128.7,-12 1128.7,-12 1128.7,-24 1128.7,-24 1128.7,-30 1122.7,-36 1116.7,-36"/>
<text xml:space="preserve" text-anchor="middle" x="1101.25" y="-14.5" font-family="Helvetica,sans-Serif" font-size="10.00">perm_out</text>
</g>
<!-- cs_cell -->
<g id="node5" class="node">
<title>cs_cell</title>
<path fill="#fffbeb" stroke="#334155" d="M156.15,-61.32C156.15,-61.32 12,-61.32 12,-61.32 6,-61.32 0,-55.32 0,-49.32 0,-49.32 0,-28.68 0,-28.68 0,-22.68 6,-16.68 12,-16.68 12,-16.68 156.15,-16.68 156.15,-16.68 162.15,-16.68 168.15,-22.68 168.15,-28.68 168.15,-28.68 168.15,-49.32 168.15,-49.32 168.15,-55.32 162.15,-61.32 156.15,-61.32"/>
<text xml:space="preserve" text-anchor="middle" x="84.08" y="-47.5" font-family="Helvetica,sans-Serif" font-size="10.00">compare_swap cell</text>
<text xml:space="preserve" text-anchor="middle" x="84.08" y="-35.5" font-family="Helvetica,sans-Serif" font-size="10.00">compare addr_v(L), addr_v(R)</text>
<text xml:space="preserve" text-anchor="middle" x="84.08" y="-23.5" font-family="Helvetica,sans-Serif" font-size="10.00">optional swap of addr_v and lane_v</text>
</g>
<!-- cs_cell&#45;&gt;stage0 -->
<g id="edge3" class="edge">
<title>cs_cell&#45;&gt;stage0</title>
<path fill="none" stroke="#a16207" stroke-width="1.1" stroke-dasharray="1,5" d="M150.68,-61.73C183.64,-73.16 221.72,-86.35 246.45,-94.92"/>
</g>
<!-- stage1 -->
<g id="node7" class="node">
<title>stage1</title>
<path fill="#fffbeb" stroke="#334155" d="M393.65,-122C393.65,-122 363.65,-122 363.65,-122 357.65,-122 351.65,-116 351.65,-110 351.65,-110 351.65,-98 351.65,-98 351.65,-92 357.65,-86 363.65,-86 363.65,-86 393.65,-86 393.65,-86 399.65,-86 405.65,-92 405.65,-98 405.65,-98 405.65,-110 405.65,-110 405.65,-116 399.65,-122 393.65,-122"/>
<text xml:space="preserve" text-anchor="middle" x="378.65" y="-106.5" font-family="Helvetica,sans-Serif" font-size="10.00">Stage 1</text>
<text xml:space="preserve" text-anchor="middle" x="378.65" y="-94.5" font-family="Helvetica,sans-Serif" font-size="10.00">4 cells</text>
</g>
<!-- stage0&#45;&gt;stage1 -->
<g id="edge4" class="edge">
<title>stage0&#45;&gt;stage1</title>
<path fill="none" stroke="#475569" stroke-width="1.1" d="M300.91,-104C313.74,-104 329.35,-104 343.14,-104"/>
<polygon fill="#475569" stroke="#475569" stroke-width="1.1" points="342.78,-106.45 349.78,-104 342.78,-101.55 342.78,-106.45"/>
</g>
<!-- stage2 -->
<g id="node8" class="node">
<title>stage2</title>
<path fill="#fffbeb" stroke="#334155" d="M571.1,-122C571.1,-122 541.1,-122 541.1,-122 535.1,-122 529.1,-116 529.1,-110 529.1,-110 529.1,-98 529.1,-98 529.1,-92 535.1,-86 541.1,-86 541.1,-86 571.1,-86 571.1,-86 577.1,-86 583.1,-92 583.1,-98 583.1,-98 583.1,-110 583.1,-110 583.1,-116 577.1,-122 571.1,-122"/>
<text xml:space="preserve" text-anchor="middle" x="556.1" y="-106.5" font-family="Helvetica,sans-Serif" font-size="10.00">Stage 2</text>
<text xml:space="preserve" text-anchor="middle" x="556.1" y="-94.5" font-family="Helvetica,sans-Serif" font-size="10.00">2 cells</text>
</g>
<!-- stage1&#45;&gt;stage2 -->
<g id="edge5" class="edge">
<title>stage1&#45;&gt;stage2</title>
<path fill="none" stroke="#475569" stroke-width="1.1" d="M405.92,-104C436.28,-104 486.38,-104 520.05,-104"/>
<polygon fill="#475569" stroke="#475569" stroke-width="1.1" points="519.99,-106.45 526.99,-104 519.99,-101.55 519.99,-106.45"/>
</g>
<!-- stage3 -->
<g id="node9" class="node">
<title>stage3</title>
<path fill="#fffbeb" stroke="#334155" d="M748.55,-66C748.55,-66 718.55,-66 718.55,-66 712.55,-66 706.55,-60 706.55,-54 706.55,-54 706.55,-42 706.55,-42 706.55,-36 712.55,-30 718.55,-30 718.55,-30 748.55,-30 748.55,-30 754.55,-30 760.55,-36 760.55,-42 760.55,-42 760.55,-54 760.55,-54 760.55,-60 754.55,-66 748.55,-66"/>
<text xml:space="preserve" text-anchor="middle" x="733.55" y="-50.5" font-family="Helvetica,sans-Serif" font-size="10.00">Stage 3</text>
<text xml:space="preserve" text-anchor="middle" x="733.55" y="-38.5" font-family="Helvetica,sans-Serif" font-size="10.00">4 cells</text>
</g>
<!-- stage2&#45;&gt;stage3 -->
<g id="edge6" class="edge">
<title>stage2&#45;&gt;stage3</title>
<path fill="none" stroke="#475569" stroke-width="1.1" d="M583.48,-95.96C612.64,-87.07 655.55,-74 655.55,-74 655.55,-74 677.55,-66.57 698.03,-59.66"/>
<polygon fill="#475569" stroke="#475569" stroke-width="1.1" points="698.63,-62.04 704.47,-57.48 697.06,-57.4 698.63,-62.04"/>
</g>
<!-- stage4 -->
<g id="node10" class="node">
<title>stage4</title>
<path fill="#fffbeb" stroke="#334155" d="M853.55,-66C853.55,-66 823.55,-66 823.55,-66 817.55,-66 811.55,-60 811.55,-54 811.55,-54 811.55,-42 811.55,-42 811.55,-36 817.55,-30 823.55,-30 823.55,-30 853.55,-30 853.55,-30 859.55,-30 865.55,-36 865.55,-42 865.55,-42 865.55,-54 865.55,-54 865.55,-60 859.55,-66 853.55,-66"/>
<text xml:space="preserve" text-anchor="middle" x="838.55" y="-50.5" font-family="Helvetica,sans-Serif" font-size="10.00">Stage 4</text>
<text xml:space="preserve" text-anchor="middle" x="838.55" y="-38.5" font-family="Helvetica,sans-Serif" font-size="10.00">2 cells</text>
</g>
<!-- stage3&#45;&gt;stage4 -->
<g id="edge7" class="edge">
<title>stage3&#45;&gt;stage4</title>
<path fill="none" stroke="#475569" stroke-width="1.1" d="M760.81,-48C773.64,-48 789.25,-48 803.04,-48"/>
<polygon fill="#475569" stroke="#475569" stroke-width="1.1" points="802.68,-50.45 809.68,-48 802.68,-45.55 802.68,-50.45"/>
</g>
<!-- stage5 -->
<g id="node11" class="node">
<title>stage5</title>
<path fill="#fffbeb" stroke="#334155" d="M958.55,-66C958.55,-66 928.55,-66 928.55,-66 922.55,-66 916.55,-60 916.55,-54 916.55,-54 916.55,-42 916.55,-42 916.55,-36 922.55,-30 928.55,-30 928.55,-30 958.55,-30 958.55,-30 964.55,-30 970.55,-36 970.55,-42 970.55,-42 970.55,-54 970.55,-54 970.55,-60 964.55,-66 958.55,-66"/>
<text xml:space="preserve" text-anchor="middle" x="943.55" y="-50.5" font-family="Helvetica,sans-Serif" font-size="10.00">Stage 5</text>
<text xml:space="preserve" text-anchor="middle" x="943.55" y="-38.5" font-family="Helvetica,sans-Serif" font-size="10.00">3 cells</text>
</g>
<!-- stage4&#45;&gt;stage5 -->
<g id="edge8" class="edge">
<title>stage4&#45;&gt;stage5</title>
<path fill="none" stroke="#475569" stroke-width="1.1" d="M865.81,-48C878.64,-48 894.25,-48 908.04,-48"/>
<polygon fill="#475569" stroke="#475569" stroke-width="1.1" points="907.68,-50.45 914.68,-48 907.68,-45.55 907.68,-50.45"/>
</g>
<!-- stage5&#45;&gt;addr_out -->
<g id="edge9" class="edge">
<title>stage5&#45;&gt;addr_out</title>
<path fill="none" stroke="#475569" stroke-width="1.1" d="M970.96,-53.26C995.34,-58.11 1031.89,-65.39 1059.91,-70.97"/>
<polygon fill="#475569" stroke="#475569" stroke-width="1.1" points="1059.34,-73.35 1066.68,-72.32 1060.3,-68.55 1059.34,-73.35"/>
<text xml:space="preserve" text-anchor="middle" x="1019.55" y="-69.14" font-family="Helvetica,sans-Serif" font-size="9.00">final addr_v</text>
</g>
<!-- stage5&#45;&gt;perm_out -->
<g id="edge10" class="edge">
<title>stage5&#45;&gt;perm_out</title>
<path fill="none" stroke="#475569" stroke-width="1.1" d="M970.95,-42.57C983.39,-40 995.55,-37.5 995.55,-37.5 995.55,-37.5 1034.81,-30.19 1065.25,-24.52"/>
<polygon fill="#475569" stroke="#475569" stroke-width="1.1" points="1065.49,-26.97 1071.92,-23.28 1064.59,-22.15 1065.49,-26.97"/>
<text xml:space="preserve" text-anchor="middle" x="1019.55" y="-39.45" font-family="Helvetica,sans-Serif" font-size="9.00">final lane_v</text>
</g>
<!-- note0 -->
<g id="node12" class="node">
<title>note0</title>
<polygon fill="#fefce8" stroke="#eab308" points="649.55,-61.32 456.65,-61.32 456.65,-4.68 655.55,-4.68 655.55,-55.32 649.55,-61.32"/>
<polyline fill="none" stroke="#eab308" points="649.55,-61.32 649.55,-55.32"/>
<polyline fill="none" stroke="#eab308" points="655.55,-55.32 649.55,-55.32"/>
<text xml:space="preserve" text-anchor="middle" x="556.1" y="-47.5" font-family="Helvetica,sans-Serif" font-size="10.00">Datapath objects are two coupled vectors:</text>
<text xml:space="preserve" text-anchor="middle" x="556.1" y="-35.5" font-family="Helvetica,sans-Serif" font-size="10.00">1. addr_v</text>
<text xml:space="preserve" text-anchor="middle" x="556.1" y="-23.5" font-family="Helvetica,sans-Serif" font-size="10.00">2. lane_v</text>
<text xml:space="preserve" text-anchor="middle" x="556.1" y="-11.5" font-family="Helvetica,sans-Serif" font-size="10.00">Both traverse the same swap network.</text>
</g>
<!-- note0&#45;&gt;stage3 -->
<g id="edge11" class="edge">
<title>note0&#45;&gt;stage3</title>
<path fill="none" stroke="#a16207" stroke-width="1.1" stroke-dasharray="1,5" d="M655.85,-41.44C674.4,-43.03 692.27,-44.56 706.1,-45.74"/>
</g>
</g>
</svg>
