<?xml version="1.0" encoding="UTF-8" standalone="no"?>
<!DOCTYPE svg PUBLIC "-//W3C//DTD SVG 1.1//EN"
 "http://www.w3.org/Graphics/SVG/1.1/DTD/svg11.dtd">
<!-- Generated by graphviz version 14.1.2 (0)
 -->
<!-- Title: batcher_slave_data Pages: 1 -->
<svg width="784pt" height="150pt"
 viewBox="0.00 0.00 784.00 150.00" xmlns="http://www.w3.org/2000/svg" xmlns:xlink="http://www.w3.org/1999/xlink">
<g id="graph0" class="graph" transform="scale(1 1) rotate(0) translate(14.4 135.15)">
<title>batcher_slave_data</title>
<polygon fill="white" stroke="none" points="-14.4,14.4 -14.4,-135.15 769.4,-135.15 769.4,14.4 -14.4,14.4"/>
<text xml:space="preserve" text-anchor="middle" x="377.5" y="-103.45" font-family="Helvetica,sans-Serif" font-size="14.00">batcher_slave Datapath</text>
<!-- data_in -->
<g id="node1" class="node">
<title>data_in</title>
<path fill="#f8fafc" stroke="#334155" d="M52.65,-97C52.65,-97 12,-97 12,-97 6,-97 0,-91 0,-85 0,-85 0,-73 0,-73 0,-67 6,-61 12,-61 12,-61 52.65,-61 52.65,-61 58.65,-61 64.65,-67 64.65,-73 64.65,-73 64.65,-85 64.65,-85 64.65,-91 58.65,-97 52.65,-97"/>
<text xml:space="preserve" text-anchor="middle" x="32.33" y="-75.5" font-family="Helvetica,sans-Serif" font-size="10.00">data_in bus</text>
</g>
<!-- in_lanes -->
<g id="node2" class="node">
<title>in_lanes</title>
<path fill="#eff6ff" stroke="#334155" d="M224.68,-97C224.68,-97 171.28,-97 171.28,-97 165.28,-97 159.28,-91 159.28,-85 159.28,-85 159.28,-73 159.28,-73 159.28,-67 165.28,-61 171.28,-61 171.28,-61 224.68,-61 224.68,-61 230.68,-61 236.68,-67 236.68,-73 236.68,-73 236.68,-85 236.68,-85 236.68,-91 230.68,-97 224.68,-97"/>
<text xml:space="preserve" text-anchor="middle" x="197.98" y="-75.5" font-family="Helvetica,sans-Serif" font-size="10.00">in_v[0..G_P&#45;1]</text>
</g>
<!-- data_in&#45;&gt;in_lanes -->
<g id="edge1" class="edge">
<title>data_in&#45;&gt;in_lanes</title>
<path fill="none" stroke="#475569" stroke-width="1.1" d="M64.88,-79C89.1,-79 122.92,-79 150.27,-79"/>
<polygon fill="#475569" stroke="#475569" stroke-width="1.1" points="150.24,-81.45 157.24,-79 150.24,-76.55 150.24,-81.45"/>
</g>
<!-- crossbar -->
<g id="node3" class="node">
<title>crossbar</title>
<path fill="#fffbeb" stroke="#334155" d="M488.95,-66C488.95,-66 343.3,-66 343.3,-66 337.3,-66 331.3,-60 331.3,-54 331.3,-54 331.3,-42 331.3,-42 331.3,-36 337.3,-30 343.3,-30 343.3,-30 488.95,-30 488.95,-30 494.95,-30 500.95,-36 500.95,-42 500.95,-42 500.95,-54 500.95,-54 500.95,-60 494.95,-66 488.95,-66"/>
<text xml:space="preserve" text-anchor="middle" x="416.12" y="-44.5" font-family="Helvetica,sans-Serif" font-size="10.00">lane crossbar / assignment network</text>
</g>
<!-- in_lanes&#45;&gt;crossbar -->
<g id="edge2" class="edge">
<title>in_lanes&#45;&gt;crossbar</title>
<path fill="none" stroke="#475569" stroke-width="1.1" d="M237.12,-73.53C260.94,-70.11 292.7,-65.56 322.79,-61.24"/>
<polygon fill="#475569" stroke="#475569" stroke-width="1.1" points="323,-63.69 329.58,-60.27 322.3,-58.84 323,-63.69"/>
</g>
<!-- out_lanes -->
<g id="node4" class="node">
<title>out_lanes</title>
<path fill="#eff6ff" stroke="#334155" d="M622.35,-66C622.35,-66 562.95,-66 562.95,-66 556.95,-66 550.95,-60 550.95,-54 550.95,-54 550.95,-42 550.95,-42 550.95,-36 556.95,-30 562.95,-30 562.95,-30 622.35,-30 622.35,-30 628.35,-30 634.35,-36 634.35,-42 634.35,-42 634.35,-54 634.35,-54 634.35,-60 628.35,-66 622.35,-66"/>
<text xml:space="preserve" text-anchor="middle" x="592.65" y="-44.5" font-family="Helvetica,sans-Serif" font-size="10.00">out_v[0..G_P&#45;1]</text>
</g>
<!-- crossbar&#45;&gt;out_lanes -->
<g id="edge3" class="edge">
<title>crossbar&#45;&gt;out_lanes</title>
<path fill="none" stroke="#475569" stroke-width="1.1" d="M501.32,-48C515.34,-48 529.47,-48 542.26,-48"/>
<polygon fill="#475569" stroke="#475569" stroke-width="1.1" points="542.21,-50.45 549.21,-48 542.21,-45.55 542.21,-50.45"/>
</g>
<!-- data_out -->
<g id="node5" class="node">
<title>data_out</title>
<path fill="#f8fafc" stroke="#334155" d="M743,-66C743,-66 696.35,-66 696.35,-66 690.35,-66 684.35,-60 684.35,-54 684.35,-54 684.35,-42 684.35,-42 684.35,-36 690.35,-30 696.35,-30 696.35,-30 743,-30 743,-30 749,-30 755,-36 755,-42 755,-42 755,-54 755,-54 755,-60 749,-66 743,-66"/>
<text xml:space="preserve" text-anchor="middle" x="719.67" y="-44.5" font-family="Helvetica,sans-Serif" font-size="10.00">data_out bus</text>
</g>
<!-- out_lanes&#45;&gt;data_out -->
<g id="edge4" class="edge">
<title>out_lanes&#45;&gt;data_out</title>
<path fill="none" stroke="#475569" stroke-width="1.1" d="M634.59,-48C647.67,-48 662.2,-48 675.44,-48"/>
<polygon fill="#475569" stroke="#475569" stroke-width="1.1" points="675.27,-50.45 682.27,-48 675.27,-45.55 675.27,-50.45"/>
</g>
<!-- note0 -->
<g id="node6" class="node">
<title>note0</title>
<polygon fill="#fefce8" stroke="#eab308" points="275.3,-36 114.65,-36 114.65,0 281.3,0 281.3,-30 275.3,-36"/>
<polyline fill="none" stroke="#eab308" points="275.3,-36 275.3,-30"/>
<polyline fill="none" stroke="#eab308" points="281.3,-30 275.3,-30"/>
<text xml:space="preserve" text-anchor="middle" x="197.98" y="-20.5" font-family="Helvetica,sans-Serif" font-size="10.00">Datapath flow:</text>
<text xml:space="preserve" text-anchor="middle" x="197.98" y="-8.5" font-family="Helvetica,sans-Serif" font-size="10.00">unpack &#45;&gt; permute lanes &#45;&gt; repack</text>
</g>
<!-- note0&#45;&gt;crossbar -->
<g id="edge5" class="edge">
<title>note0&#45;&gt;crossbar</title>
<path fill="none" stroke="#a16207" stroke-width="1.1" stroke-dasharray="1,5" d="M281.62,-29.47C297.83,-31.72 314.84,-34.08 331.1,-36.34"/>
</g>
</g>
</svg>
