<?xml version="1.0" encoding="UTF-8" standalone="no"?>
<!DOCTYPE svg PUBLIC "-//W3C//DTD SVG 1.1//EN"
 "http://www.w3.org/Graphics/SVG/1.1/DTD/svg11.dtd">
<!-- Generated by graphviz version 14.1.2 (0)
 -->
<!-- Title: batcher_master_arch Pages: 1 -->
<svg width="1543pt" height="275pt"
 viewBox="0.00 0.00 1543.00 275.00" xmlns="http://www.w3.org/2000/svg" xmlns:xlink="http://www.w3.org/1999/xlink">
<g id="graph0" class="graph" transform="scale(1 1) rotate(0) translate(14.4 260.15)">
<title>batcher_master_arch</title>
<polygon fill="white" stroke="none" points="-14.4,14.4 -14.4,-260.15 1528.9,-260.15 1528.9,14.4 -14.4,14.4"/>
<text xml:space="preserve" text-anchor="middle" x="757.25" y="-228.45" font-family="Helvetica,sans-Serif" font-size="14.00">batcher_master Architecture</text>
<g id="clust1" class="cluster">
<title>cluster_init</title>
<path fill="white" stroke="#93c5fd" d="M123.4,-38C123.4,-38 213.05,-38 213.05,-38 219.05,-38 225.05,-44 225.05,-50 225.05,-50 225.05,-167 225.05,-167 225.05,-173 219.05,-179 213.05,-179 213.05,-179 123.4,-179 123.4,-179 117.4,-179 111.4,-173 111.4,-167 111.4,-167 111.4,-50 111.4,-50 111.4,-44 117.4,-38 123.4,-38"/>
<text xml:space="preserve" text-anchor="middle" x="168.23" y="-161.7" font-family="Helvetica,sans-Serif" font-size="14.00">Initialization</text>
</g>
<g id="clust2" class="cluster">
<title>cluster_net</title>
<path fill="white" stroke="#fcd34d" d="M299.55,-73C299.55,-73 1148.95,-73 1148.95,-73 1154.95,-73 1160.95,-79 1160.95,-85 1160.95,-85 1160.95,-137 1160.95,-137 1160.95,-143 1154.95,-149 1148.95,-149 1148.95,-149 299.55,-149 299.55,-149 293.55,-149 287.55,-143 287.55,-137 287.55,-137 287.55,-85 287.55,-85 287.55,-79 293.55,-73 299.55,-73"/>
<text xml:space="preserve" text-anchor="middle" x="724.25" y="-131.7" font-family="Helvetica,sans-Serif" font-size="14.00">6&#45;Stage Batcher Network</text>
</g>
<g id="clust3" class="cluster">
<title>cluster_out</title>
<path fill="white" stroke="#a7f3d0" d="M1269.95,-8C1269.95,-8 1371.6,-8 1371.6,-8 1377.6,-8 1383.6,-14 1383.6,-20 1383.6,-20 1383.6,-202 1383.6,-202 1383.6,-208 1377.6,-214 1371.6,-214 1371.6,-214 1269.95,-214 1269.95,-214 1263.95,-214 1257.95,-208 1257.95,-202 1257.95,-202 1257.95,-20 1257.95,-20 1257.95,-14 1263.95,-8 1269.95,-8"/>
<text xml:space="preserve" text-anchor="middle" x="1320.78" y="-196.7" font-family="Helvetica,sans-Serif" font-size="14.00">Output Packing</text>
</g>
<!-- in_addr -->
<g id="node1" class="node">
<title>in_addr</title>
<path fill="#f8fafc" stroke="#334155" d="M56.4,-147C56.4,-147 12,-147 12,-147 6,-147 0,-141 0,-135 0,-135 0,-123 0,-123 0,-117 6,-111 12,-111 12,-111 56.4,-111 56.4,-111 62.4,-111 68.4,-117 68.4,-123 68.4,-123 68.4,-135 68.4,-135 68.4,-141 62.4,-147 56.4,-147"/>
<text xml:space="preserve" text-anchor="middle" x="34.2" y="-125.5" font-family="Helvetica,sans-Serif" font-size="10.00">addr_in[0..7]</text>
</g>
<!-- unpack -->
<g id="node5" class="node">
<title>unpack</title>
<path fill="#eff6ff" stroke="#334155" d="M196.43,-147C196.43,-147 140.03,-147 140.03,-147 134.03,-147 128.03,-141 128.03,-135 128.03,-135 128.03,-123 128.03,-123 128.03,-117 134.03,-111 140.03,-111 140.03,-111 196.43,-111 196.43,-111 202.43,-111 208.43,-117 208.43,-123 208.43,-123 208.43,-135 208.43,-135 208.43,-141 202.43,-147 196.43,-147"/>
<text xml:space="preserve" text-anchor="middle" x="168.23" y="-131.5" font-family="Helvetica,sans-Serif" font-size="10.00">unpack addr_in</text>
<text xml:space="preserve" text-anchor="middle" x="168.23" y="-119.5" font-family="Helvetica,sans-Serif" font-size="10.00">addr_v(i)</text>
</g>
<!-- in_addr&#45;&gt;unpack -->
<g id="edge1" class="edge">
<title>in_addr&#45;&gt;unpack</title>
<path fill="none" stroke="#475569" stroke-width="1.1" d="M68.86,-129C84.08,-129 102.35,-129 119,-129"/>
<polygon fill="#475569" stroke="#475569" stroke-width="1.1" points="118.86,-131.45 125.86,-129 118.86,-126.55 118.86,-131.45"/>
</g>
<!-- out_addr -->
<g id="node2" class="node">
<title>out_addr</title>
<path fill="#f8fafc" stroke="#334155" d="M1502.5,-182C1502.5,-182 1438.6,-182 1438.6,-182 1432.6,-182 1426.6,-176 1426.6,-170 1426.6,-170 1426.6,-158 1426.6,-158 1426.6,-152 1432.6,-146 1438.6,-146 1438.6,-146 1502.5,-146 1502.5,-146 1508.5,-146 1514.5,-152 1514.5,-158 1514.5,-158 1514.5,-170 1514.5,-170 1514.5,-176 1508.5,-182 1502.5,-182"/>
<text xml:space="preserve" text-anchor="middle" x="1470.55" y="-160.5" font-family="Helvetica,sans-Serif" font-size="10.00">addr_sorted[0..7]</text>
</g>
<!-- out_perm -->
<g id="node3" class="node">
<title>out_perm</title>
<path fill="#f8fafc" stroke="#334155" d="M1497.25,-117C1497.25,-117 1443.85,-117 1443.85,-117 1437.85,-117 1431.85,-111 1431.85,-105 1431.85,-105 1431.85,-93 1431.85,-93 1431.85,-87 1437.85,-81 1443.85,-81 1443.85,-81 1497.25,-81 1497.25,-81 1503.25,-81 1509.25,-87 1509.25,-93 1509.25,-93 1509.25,-105 1509.25,-105 1509.25,-111 1503.25,-117 1497.25,-117"/>
<text xml:space="preserve" text-anchor="middle" x="1470.55" y="-95.5" font-family="Helvetica,sans-Serif" font-size="10.00">perm_out[0..7]</text>
</g>
<!-- out_ctrl -->
<g id="node4" class="node">
<title>out_ctrl</title>
<path fill="#f8fafc" stroke="#334155" d="M1494.25,-52C1494.25,-52 1446.85,-52 1446.85,-52 1440.85,-52 1434.85,-46 1434.85,-40 1434.85,-40 1434.85,-28 1434.85,-28 1434.85,-22 1440.85,-16 1446.85,-16 1446.85,-16 1494.25,-16 1494.25,-16 1500.25,-16 1506.25,-22 1506.25,-28 1506.25,-28 1506.25,-40 1506.25,-40 1506.25,-46 1500.25,-52 1494.25,-52"/>
<text xml:space="preserve" text-anchor="middle" x="1470.55" y="-30.5" font-family="Helvetica,sans-Serif" font-size="10.00">ctrl_out[18:0]</text>
</g>
<!-- s0 -->
<g id="node7" class="node">
<title>s0</title>
<path fill="#fffbeb" stroke="#334155" d="M384.95,-117C384.95,-117 307.55,-117 307.55,-117 301.55,-117 295.55,-111 295.55,-105 295.55,-105 295.55,-93 295.55,-93 295.55,-87 301.55,-81 307.55,-81 307.55,-81 384.95,-81 384.95,-81 390.95,-81 396.95,-87 396.95,-93 396.95,-93 396.95,-105 396.95,-105 396.95,-111 390.95,-117 384.95,-117"/>
<text xml:space="preserve" text-anchor="middle" x="346.25" y="-101.5" font-family="Helvetica,sans-Serif" font-size="10.00">Stage 0</text>
<text xml:space="preserve" text-anchor="middle" x="346.25" y="-89.5" font-family="Helvetica,sans-Serif" font-size="10.00">(0,1) (2,3) (4,5) (6,7)</text>
</g>
<!-- unpack&#45;&gt;s0 -->
<g id="edge3" class="edge">
<title>unpack&#45;&gt;s0</title>
<path fill="none" stroke="#475569" stroke-width="1.1" d="M208.73,-122.27C231.68,-118.36 261.03,-113.35 286.63,-108.99"/>
<polygon fill="#475569" stroke="#475569" stroke-width="1.1" points="287.02,-111.41 293.51,-107.82 286.2,-106.58 287.02,-111.41"/>
<text xml:space="preserve" text-anchor="middle" x="256.3" y="-117.75" font-family="Helvetica,sans-Serif" font-size="9.00">addr_v</text>
</g>
<!-- tags -->
<g id="node6" class="node">
<title>tags</title>
<path fill="#eff6ff" stroke="#334155" d="M205.05,-82C205.05,-82 131.4,-82 131.4,-82 125.4,-82 119.4,-76 119.4,-70 119.4,-70 119.4,-58 119.4,-58 119.4,-52 125.4,-46 131.4,-46 131.4,-46 205.05,-46 205.05,-46 211.05,-46 217.05,-52 217.05,-58 217.05,-58 217.05,-70 217.05,-70 217.05,-76 211.05,-82 205.05,-82"/>
<text xml:space="preserve" text-anchor="middle" x="168.23" y="-60.5" font-family="Helvetica,sans-Serif" font-size="10.00">initialize lane_v(i)=i</text>
</g>
<!-- tags&#45;&gt;s0 -->
<g id="edge2" class="edge">
<title>tags&#45;&gt;s0</title>
<path fill="none" stroke="#475569" stroke-width="1.1" d="M217.32,-73.56C238.72,-77.82 264.1,-82.86 286.59,-87.34"/>
<polygon fill="#475569" stroke="#475569" stroke-width="1.1" points="286.08,-89.73 293.43,-88.7 287.04,-84.93 286.08,-89.73"/>
<text xml:space="preserve" text-anchor="middle" x="256.3" y="-85.55" font-family="Helvetica,sans-Serif" font-size="9.00">lane_v</text>
</g>
<!-- s1 -->
<g id="node8" class="node">
<title>s1</title>
<path fill="#fffbeb" stroke="#334155" d="M537.35,-117C537.35,-117 459.95,-117 459.95,-117 453.95,-117 447.95,-111 447.95,-105 447.95,-105 447.95,-93 447.95,-93 447.95,-87 453.95,-81 459.95,-81 459.95,-81 537.35,-81 537.35,-81 543.35,-81 549.35,-87 549.35,-93 549.35,-93 549.35,-105 549.35,-105 549.35,-111 543.35,-117 537.35,-117"/>
<text xml:space="preserve" text-anchor="middle" x="498.65" y="-101.5" font-family="Helvetica,sans-Serif" font-size="10.00">Stage 1</text>
<text xml:space="preserve" text-anchor="middle" x="498.65" y="-89.5" font-family="Helvetica,sans-Serif" font-size="10.00">(0,2) (1,3) (4,6) (5,7)</text>
</g>
<!-- s0&#45;&gt;s1 -->
<g id="edge4" class="edge">
<title>s0&#45;&gt;s1</title>
<path fill="none" stroke="#475569" stroke-width="1.1" d="M397.33,-99C410.71,-99 425.28,-99 439.07,-99"/>
<polygon fill="#475569" stroke="#475569" stroke-width="1.1" points="438.87,-101.45 445.87,-99 438.87,-96.55 438.87,-101.45"/>
</g>
<!-- s2 -->
<g id="node9" class="node">
<title>s2</title>
<path fill="#fffbeb" stroke="#334155" d="M698,-117C698,-117 665.6,-117 665.6,-117 659.6,-117 653.6,-111 653.6,-105 653.6,-105 653.6,-93 653.6,-93 653.6,-87 659.6,-81 665.6,-81 665.6,-81 698,-81 698,-81 704,-81 710,-87 710,-93 710,-93 710,-105 710,-105 710,-111 704,-117 698,-117"/>
<text xml:space="preserve" text-anchor="middle" x="681.8" y="-101.5" font-family="Helvetica,sans-Serif" font-size="10.00">Stage 2</text>
<text xml:space="preserve" text-anchor="middle" x="681.8" y="-89.5" font-family="Helvetica,sans-Serif" font-size="10.00">(1,2) (5,6)</text>
</g>
<!-- s1&#45;&gt;s2 -->
<g id="edge5" class="edge">
<title>s1&#45;&gt;s2</title>
<path fill="none" stroke="#475569" stroke-width="1.1" d="M549.63,-99C579.77,-99 617.48,-99 644.72,-99"/>
<polygon fill="#475569" stroke="#475569" stroke-width="1.1" points="644.51,-101.45 651.51,-99 644.51,-96.55 644.51,-101.45"/>
</g>
<!-- s3 -->
<g id="node10" class="node">
<title>s3</title>
<path fill="#fffbeb" stroke="#334155" d="M903.65,-117C903.65,-117 826.25,-117 826.25,-117 820.25,-117 814.25,-111 814.25,-105 814.25,-105 814.25,-93 814.25,-93 814.25,-87 820.25,-81 826.25,-81 826.25,-81 903.65,-81 903.65,-81 909.65,-81 915.65,-87 915.65,-93 915.65,-93 915.65,-105 915.65,-105 915.65,-111 909.65,-117 903.65,-117"/>
<text xml:space="preserve" text-anchor="middle" x="864.95" y="-101.5" font-family="Helvetica,sans-Serif" font-size="10.00">Stage 3</text>
<text xml:space="preserve" text-anchor="middle" x="864.95" y="-89.5" font-family="Helvetica,sans-Serif" font-size="10.00">(0,4) (1,5) (2,6) (3,7)</text>
</g>
<!-- s2&#45;&gt;s3 -->
<g id="edge6" class="edge">
<title>s2&#45;&gt;s3</title>
<path fill="none" stroke="#475569" stroke-width="1.1" d="M710.31,-99C735.48,-99 773.54,-99 805.49,-99"/>
<polygon fill="#475569" stroke="#475569" stroke-width="1.1" points="805.22,-101.45 812.22,-99 805.22,-96.55 805.22,-101.45"/>
</g>
<!-- s4 -->
<g id="node11" class="node">
<title>s4</title>
<path fill="#fffbeb" stroke="#334155" d="M1011.05,-117C1011.05,-117 978.65,-117 978.65,-117 972.65,-117 966.65,-111 966.65,-105 966.65,-105 966.65,-93 966.65,-93 966.65,-87 972.65,-81 978.65,-81 978.65,-81 1011.05,-81 1011.05,-81 1017.05,-81 1023.05,-87 1023.05,-93 1023.05,-93 1023.05,-105 1023.05,-105 1023.05,-111 1017.05,-117 1011.05,-117"/>
<text xml:space="preserve" text-anchor="middle" x="994.85" y="-101.5" font-family="Helvetica,sans-Serif" font-size="10.00">Stage 4</text>
<text xml:space="preserve" text-anchor="middle" x="994.85" y="-89.5" font-family="Helvetica,sans-Serif" font-size="10.00">(2,4) (3,5)</text>
</g>
<!-- s3&#45;&gt;s4 -->
<g id="edge7" class="edge">
<title>s3&#45;&gt;s4</title>
<path fill="none" stroke="#475569" stroke-width="1.1" d="M916.13,-99C930.01,-99 944.79,-99 957.7,-99"/>
<polygon fill="#475569" stroke="#475569" stroke-width="1.1" points="957.63,-101.45 964.63,-99 957.63,-96.55 957.63,-101.45"/>
</g>
<!-- s5 -->
<g id="node12" class="node">
<title>s5</title>
<path fill="#fffbeb" stroke="#334155" d="M1140.95,-117C1140.95,-117 1086.05,-117 1086.05,-117 1080.05,-117 1074.05,-111 1074.05,-105 1074.05,-105 1074.05,-93 1074.05,-93 1074.05,-87 1080.05,-81 1086.05,-81 1086.05,-81 1140.95,-81 1140.95,-81 1146.95,-81 1152.95,-87 1152.95,-93 1152.95,-93 1152.95,-105 1152.95,-105 1152.95,-111 1146.95,-117 1140.95,-117"/>
<text xml:space="preserve" text-anchor="middle" x="1113.5" y="-101.5" font-family="Helvetica,sans-Serif" font-size="10.00">Stage 5</text>
<text xml:space="preserve" text-anchor="middle" x="1113.5" y="-89.5" font-family="Helvetica,sans-Serif" font-size="10.00">(1,2) (3,4) (5,6)</text>
</g>
<!-- s4&#45;&gt;s5 -->
<g id="edge8" class="edge">
<title>s4&#45;&gt;s5</title>
<path fill="none" stroke="#475569" stroke-width="1.1" d="M1023.49,-99C1035.88,-99 1050.85,-99 1064.94,-99"/>
<polygon fill="#475569" stroke="#475569" stroke-width="1.1" points="1064.91,-101.45 1071.91,-99 1064.91,-96.55 1064.91,-101.45"/>
</g>
<!-- pack_a -->
<g id="node13" class="node">
<title>pack_a</title>
<path fill="#f0fdf4" stroke="#334155" d="M1363.6,-182C1363.6,-182 1277.95,-182 1277.95,-182 1271.95,-182 1265.95,-176 1265.95,-170 1265.95,-170 1265.95,-158 1265.95,-158 1265.95,-152 1271.95,-146 1277.95,-146 1277.95,-146 1363.6,-146 1363.6,-146 1369.6,-146 1375.6,-152 1375.6,-158 1375.6,-158 1375.6,-170 1375.6,-170 1375.6,-176 1369.6,-182 1363.6,-182"/>
<text xml:space="preserve" text-anchor="middle" x="1320.78" y="-160.5" font-family="Helvetica,sans-Serif" font-size="10.00">pack addr_v &#45;&gt; a_tmp</text>
</g>
<!-- s5&#45;&gt;pack_a -->
<g id="edge9" class="edge">
<title>s5&#45;&gt;pack_a</title>
<path fill="none" stroke="#475569" stroke-width="1.1" d="M1153.11,-111.23C1182.46,-120.52 1223.45,-133.5 1257.43,-144.26"/>
<polygon fill="#475569" stroke="#475569" stroke-width="1.1" points="1256.46,-146.52 1263.87,-146.3 1257.94,-141.85 1256.46,-146.52"/>
<text xml:space="preserve" text-anchor="middle" x="1209.45" y="-139.27" font-family="Helvetica,sans-Serif" font-size="9.00">final addr_v</text>
</g>
<!-- pack_p -->
<g id="node14" class="node">
<title>pack_p</title>
<path fill="#f0fdf4" stroke="#334155" d="M1363.23,-117C1363.23,-117 1278.33,-117 1278.33,-117 1272.33,-117 1266.33,-111 1266.33,-105 1266.33,-105 1266.33,-93 1266.33,-93 1266.33,-87 1272.33,-81 1278.33,-81 1278.33,-81 1363.23,-81 1363.23,-81 1369.23,-81 1375.23,-87 1375.23,-93 1375.23,-93 1375.23,-105 1375.23,-105 1375.23,-111 1369.23,-117 1363.23,-117"/>
<text xml:space="preserve" text-anchor="middle" x="1320.78" y="-95.5" font-family="Helvetica,sans-Serif" font-size="10.00">pack lane_v &#45;&gt; p_tmp</text>
</g>
<!-- s5&#45;&gt;pack_p -->
<g id="edge10" class="edge">
<title>s5&#45;&gt;pack_p</title>
<path fill="none" stroke="#475569" stroke-width="1.1" d="M1153.11,-99C1182.45,-99 1223.4,-99 1257.37,-99"/>
<polygon fill="#475569" stroke="#475569" stroke-width="1.1" points="1257.18,-101.45 1264.18,-99 1257.18,-96.55 1257.18,-101.45"/>
<text xml:space="preserve" text-anchor="middle" x="1209.45" y="-100.95" font-family="Helvetica,sans-Serif" font-size="9.00">final lane_v</text>
</g>
<!-- ctrl_pack -->
<g id="node15" class="node">
<title>ctrl_pack</title>
<path fill="#f0fdf4" stroke="#334155" d="M1353.1,-52C1353.1,-52 1288.45,-52 1288.45,-52 1282.45,-52 1276.45,-46 1276.45,-40 1276.45,-40 1276.45,-28 1276.45,-28 1276.45,-22 1282.45,-16 1288.45,-16 1288.45,-16 1353.1,-16 1353.1,-16 1359.1,-16 1365.1,-22 1365.1,-28 1365.1,-28 1365.1,-40 1365.1,-40 1365.1,-46 1359.1,-52 1353.1,-52"/>
<text xml:space="preserve" text-anchor="middle" x="1320.78" y="-30.5" font-family="Helvetica,sans-Serif" font-size="10.00">c_tmp &#45;&gt; ctrl_out</text>
</g>
<!-- s5&#45;&gt;ctrl_pack -->
<g id="edge11" class="edge">
<title>s5&#45;&gt;ctrl_pack</title>
<path fill="none" stroke="#475569" stroke-width="1.1" d="M1153.11,-86.77C1185.61,-76.48 1232.37,-61.68 1268.09,-50.36"/>
<polygon fill="#475569" stroke="#475569" stroke-width="1.1" points="1268.48,-52.81 1274.41,-48.36 1267,-48.14 1268.48,-52.81"/>
<text xml:space="preserve" text-anchor="middle" x="1209.45" y="-79.93" font-family="Helvetica,sans-Serif" font-size="9.00">swap decisions</text>
</g>
<!-- pack_a&#45;&gt;out_addr -->
<g id="edge12" class="edge">
<title>pack_a&#45;&gt;out_addr</title>
<path fill="none" stroke="#475569" stroke-width="1.1" d="M1375.96,-164C1389.74,-164 1404.51,-164 1418.14,-164"/>
<polygon fill="#475569" stroke="#475569" stroke-width="1.1" points="1417.8,-166.45 1424.8,-164 1417.8,-161.55 1417.8,-166.45"/>
</g>
<!-- pack_p&#45;&gt;out_perm -->
<g id="edge13" class="edge">
<title>pack_p&#45;&gt;out_perm</title>
<path fill="none" stroke="#475569" stroke-width="1.1" d="M1375.54,-99C1391.13,-99 1408.02,-99 1423.12,-99"/>
<polygon fill="#475569" stroke="#475569" stroke-width="1.1" points="1423.12,-101.45 1430.12,-99 1423.12,-96.55 1423.12,-101.45"/>
</g>
<!-- ctrl_pack&#45;&gt;out_ctrl -->
<g id="edge14" class="edge">
<title>ctrl_pack&#45;&gt;out_ctrl</title>
<path fill="none" stroke="#475569" stroke-width="1.1" d="M1365.31,-34C1384.51,-34 1407.01,-34 1426.19,-34"/>
<polygon fill="#475569" stroke="#475569" stroke-width="1.1" points="1426.08,-36.45 1433.07,-34 1426.07,-31.55 1426.08,-36.45"/>
</g>
<!-- note0 -->
<g id="node16" class="node">
<title>note0</title>
<polygon fill="#fefce8" stroke="#eab308" points="757.25,-52.32 600.35,-52.32 600.35,-7.68 763.25,-7.68 763.25,-46.32 757.25,-52.32"/>
<polyline fill="none" stroke="#eab308" points="757.25,-52.32 757.25,-46.32"/>
<polyline fill="none" stroke="#eab308" points="763.25,-46.32 757.25,-46.32"/>
<text xml:space="preserve" text-anchor="middle" x="681.8" y="-38.5" font-family="Helvetica,sans-Serif" font-size="10.00">Specialized for G_P = 8.</text>
<text xml:space="preserve" text-anchor="middle" x="681.8" y="-26.5" font-family="Helvetica,sans-Serif" font-size="10.00">Each compare&#45;swap updates both</text>
<text xml:space="preserve" text-anchor="middle" x="681.8" y="-14.5" font-family="Helvetica,sans-Serif" font-size="10.00">address values and lane tags.</text>
</g>
<!-- note0&#45;&gt;s3 -->
<g id="edge15" class="edge">
<title>note0&#45;&gt;s3</title>
<path fill="none" stroke="#a16207" stroke-width="1.1" stroke-dasharray="1,5" d="M742.62,-52.78C766.32,-61.81 793.21,-72.06 815.64,-80.6"/>
</g>
</g>
</svg>
