<?xml version="1.0" encoding="UTF-8" standalone="no"?>
<!DOCTYPE svg PUBLIC "-//W3C//DTD SVG 1.1//EN"
 "http://www.w3.org/Graphics/SVG/1.1/DTD/svg11.dtd">
<!-- Generated by graphviz version 14.1.2 (0)
 -->
<!-- Title: batcher_slave_ctrl Pages: 1 -->
<svg width="430pt" height="301pt"
 viewBox="0.00 0.00 430.00 301.00" xmlns="http://www.w3.org/2000/svg" xmlns:xlink="http://www.w3.org/1999/xlink">
<g id="graph0" class="graph" transform="scale(1 1) rotate(0) translate(14.4 286.93)">
<title>batcher_slave_ctrl</title>
<polygon fill="white" stroke="none" points="-14.4,14.4 -14.4,-286.93 415.8,-286.93 415.8,14.4 -14.4,14.4"/>
<text xml:space="preserve" text-anchor="middle" x="200.7" y="-255.23" font-family="Helvetica,sans-Serif" font-size="14.00">batcher_slave Control Structure</text>
<!-- decode -->
<g id="node1" class="node">
<title>decode</title>
<path fill="#fffbeb" stroke="#334155" d="M178.65,-244.46C178.65,-244.46 12,-244.46 12,-244.46 6,-244.46 0,-238.46 0,-232.46 0,-232.46 0,-220.46 0,-220.46 0,-214.46 6,-208.46 12,-208.46 12,-208.46 178.65,-208.46 178.65,-208.46 184.65,-208.46 190.65,-214.46 190.65,-220.46 190.65,-220.46 190.65,-232.46 190.65,-232.46 190.65,-238.46 184.65,-244.46 178.65,-244.46"/>
<text xml:space="preserve" text-anchor="middle" x="95.32" y="-228.96" font-family="Helvetica,sans-Serif" font-size="10.00">Per&#45;slot Control</text>
<text xml:space="preserve" text-anchor="middle" x="95.32" y="-216.96" font-family="Helvetica,sans-Serif" font-size="10.00">perm_i = to_integer(to_01(perm_in(slot)))</text>
</g>
<!-- guard -->
<g id="node2" class="node">
<title>guard</title>
<path fill="#f8fbff" stroke="#334155" d="M155.65,-142.82C155.65,-142.82 73,-142.82 73,-142.82 67,-142.82 61,-136.82 61,-130.82 61,-130.82 61,-118.82 61,-118.82 61,-112.82 67,-106.82 73,-106.82 73,-106.82 155.65,-106.82 155.65,-106.82 161.65,-106.82 167.65,-112.82 167.65,-118.82 167.65,-118.82 167.65,-130.82 167.65,-130.82 167.65,-136.82 161.65,-142.82 155.65,-142.82"/>
<text xml:space="preserve" text-anchor="middle" x="114.32" y="-127.32" font-family="Helvetica,sans-Serif" font-size="10.00">Bounds Check</text>
<text xml:space="preserve" text-anchor="middle" x="114.32" y="-115.32" font-family="Helvetica,sans-Serif" font-size="10.00">if 0 &lt;= perm_i &lt; G_P</text>
</g>
<!-- decode&#45;&gt;guard -->
<g id="edge1" class="edge">
<title>decode&#45;&gt;guard</title>
<path fill="none" stroke="#475569" stroke-width="1.1" d="M98.63,-208.1C101.61,-192.48 106.03,-169.32 109.42,-151.55"/>
<polygon fill="#475569" stroke="#475569" stroke-width="1.1" points="111.77,-152.28 110.68,-144.95 106.96,-151.36 111.77,-152.28"/>
</g>
<!-- route -->
<g id="node4" class="node">
<title>route</title>
<path fill="#f0fdf4" stroke="#334155" d="M244.65,-36C244.65,-36 120,-36 120,-36 114,-36 108,-30 108,-24 108,-24 108,-12 108,-12 108,-6 114,0 120,0 120,0 244.65,0 244.65,0 250.65,0 256.65,-6 256.65,-12 256.65,-12 256.65,-24 256.65,-24 256.65,-30 250.65,-36 244.65,-36"/>
<text xml:space="preserve" text-anchor="middle" x="182.32" y="-14.5" font-family="Helvetica,sans-Serif" font-size="10.00">Enabled assignment into out_v</text>
</g>
<!-- guard&#45;&gt;route -->
<g id="edge2" class="edge">
<title>guard&#45;&gt;route</title>
<path fill="none" stroke="#475569" stroke-width="1.1" d="M125.55,-106.51C136.73,-89.29 153.97,-62.71 166.52,-43.36"/>
<polygon fill="#475569" stroke="#475569" stroke-width="1.1" points="168.42,-44.94 170.17,-37.73 164.31,-42.27 168.42,-44.94"/>
</g>
<!-- mode -->
<g id="node3" class="node">
<title>mode</title>
<path fill="#eff6ff" stroke="#334155" d="M337.02,-159.14C337.02,-159.14 241.62,-159.14 241.62,-159.14 235.62,-159.14 229.62,-153.14 229.62,-147.14 229.62,-147.14 229.62,-102.5 229.62,-102.5 229.62,-96.5 235.62,-90.5 241.62,-90.5 241.62,-90.5 337.02,-90.5 337.02,-90.5 343.02,-90.5 349.02,-96.5 349.02,-102.5 349.02,-102.5 349.02,-147.14 349.02,-147.14 349.02,-153.14 343.02,-159.14 337.02,-159.14"/>
<text xml:space="preserve" text-anchor="middle" x="289.32" y="-145.32" font-family="Helvetica,sans-Serif" font-size="10.00">Mode Control</text>
<text xml:space="preserve" text-anchor="middle" x="289.32" y="-133.32" font-family="Helvetica,sans-Serif" font-size="10.00">G_REVERSE = false:</text>
<text xml:space="preserve" text-anchor="middle" x="289.32" y="-121.32" font-family="Helvetica,sans-Serif" font-size="10.00">out_v(perm_i)=in_v(slot)</text>
<text xml:space="preserve" text-anchor="middle" x="289.32" y="-109.32" font-family="Helvetica,sans-Serif" font-size="10.00">G_REVERSE = true:</text>
<text xml:space="preserve" text-anchor="middle" x="289.32" y="-97.32" font-family="Helvetica,sans-Serif" font-size="10.00">out_v(slot)=in_v(perm_i)</text>
</g>
<!-- mode&#45;&gt;route -->
<g id="edge3" class="edge">
<title>mode&#45;&gt;route</title>
<path fill="none" stroke="#2563eb" stroke-width="1.1" stroke-dasharray="5,2" d="M254.88,-90.08C238.84,-74.37 220.18,-56.08 205.8,-41.99"/>
<polygon fill="#2563eb" stroke="#2563eb" stroke-width="1.1" points="207.82,-40.55 201.1,-37.4 204.39,-44.05 207.82,-40.55"/>
<text xml:space="preserve" text-anchor="middle" x="288.12" y="-59.95" font-family="Helvetica,sans-Serif" font-size="9.00">select assignment direction</text>
</g>
<!-- note0 -->
<g id="node5" class="node">
<title>note0</title>
<polygon fill="#fef2f2" stroke="#f87171" points="395.4,-248.78 215.25,-248.78 215.25,-204.14 401.4,-204.14 401.4,-242.78 395.4,-248.78"/>
<polyline fill="none" stroke="#f87171" points="395.4,-248.78 395.4,-242.78"/>
<polyline fill="none" stroke="#f87171" points="401.4,-242.78 395.4,-242.78"/>
<text xml:space="preserve" text-anchor="middle" x="308.32" y="-234.96" font-family="Helvetica,sans-Serif" font-size="10.00">No sequential control.</text>
<text xml:space="preserve" text-anchor="middle" x="308.32" y="-222.96" font-family="Helvetica,sans-Serif" font-size="10.00">The only control is permutation decode,</text>
<text xml:space="preserve" text-anchor="middle" x="308.32" y="-210.96" font-family="Helvetica,sans-Serif" font-size="10.00">mode selection, and bounds gating.</text>
</g>
<!-- note0&#45;&gt;mode -->
<g id="edge4" class="edge">
<title>note0&#45;&gt;mode</title>
<path fill="none" stroke="#dc2626" stroke-width="1.1" stroke-dasharray="1,5" d="M304.2,-203.84C301.74,-190.9 298.55,-174.19 295.76,-159.55"/>
</g>
</g>
</svg>
