<?xml version="1.0" encoding="UTF-8" standalone="no"?>
<!DOCTYPE svg PUBLIC "-//W3C//DTD SVG 1.1//EN"
 "http://www.w3.org/Graphics/SVG/1.1/DTD/svg11.dtd">
<!-- Generated by graphviz version 14.1.2 (0)
 -->
<!-- Title: batcher_master_ctrl Pages: 1 -->
<svg width="820pt" height="406pt"
 viewBox="0.00 0.00 820.00 406.00" xmlns="http://www.w3.org/2000/svg" xmlns:xlink="http://www.w3.org/1999/xlink">
<g id="graph0" class="graph" transform="scale(1 1) rotate(0) translate(14.4 391.93)">
<title>batcher_master_ctrl</title>
<polygon fill="white" stroke="none" points="-14.4,14.4 -14.4,-391.93 805.55,-391.93 805.55,14.4 -14.4,14.4"/>
<text xml:space="preserve" text-anchor="middle" x="395.57" y="-360.23" font-family="Helvetica,sans-Serif" font-size="14.00">batcher_master Control Structure</text>
<!-- assert_gp -->
<g id="node1" class="node">
<title>assert_gp</title>
<path fill="#eff6ff" stroke="#334155" d="M335.15,-349.46C335.15,-349.46 278,-349.46 278,-349.46 272,-349.46 266,-343.46 266,-337.46 266,-337.46 266,-325.46 266,-325.46 266,-319.46 272,-313.46 278,-313.46 278,-313.46 335.15,-313.46 335.15,-313.46 341.15,-313.46 347.15,-319.46 347.15,-325.46 347.15,-325.46 347.15,-337.46 347.15,-337.46 347.15,-343.46 341.15,-349.46 335.15,-349.46"/>
<text xml:space="preserve" text-anchor="middle" x="306.57" y="-333.96" font-family="Helvetica,sans-Serif" font-size="10.00">Static Control</text>
<text xml:space="preserve" text-anchor="middle" x="306.57" y="-321.96" font-family="Helvetica,sans-Serif" font-size="10.00">assert G_P = 8</text>
</g>
<!-- cmp -->
<g id="node2" class="node">
<title>cmp</title>
<path fill="#fffbeb" stroke="#334155" d="M441.52,-254.64C441.52,-254.64 347.62,-254.64 347.62,-254.64 341.62,-254.64 335.62,-248.64 335.62,-242.64 335.62,-242.64 335.62,-174 335.62,-174 335.62,-168 341.62,-162 347.62,-162 347.62,-162 441.52,-162 441.52,-162 447.52,-162 453.52,-168 453.52,-174 453.52,-174 453.52,-242.64 453.52,-242.64 453.52,-248.64 447.52,-254.64 441.52,-254.64"/>
<text xml:space="preserve" text-anchor="middle" x="394.57" y="-240.82" font-family="Helvetica,sans-Serif" font-size="10.00">Per Cell Control</text>
<text xml:space="preserve" text-anchor="middle" x="394.57" y="-228.82" font-family="Helvetica,sans-Serif" font-size="10.00">if addr_v(L) &gt; addr_v(R)</text>
<text xml:space="preserve" text-anchor="middle" x="394.57" y="-216.82" font-family="Helvetica,sans-Serif" font-size="10.00"> &#160;swap addr_v</text>
<text xml:space="preserve" text-anchor="middle" x="394.57" y="-204.82" font-family="Helvetica,sans-Serif" font-size="10.00"> &#160;swap lane_v</text>
<text xml:space="preserve" text-anchor="middle" x="394.57" y="-192.82" font-family="Helvetica,sans-Serif" font-size="10.00"> &#160;c_tmp(ctrl_idx)=1</text>
<text xml:space="preserve" text-anchor="middle" x="394.57" y="-180.82" font-family="Helvetica,sans-Serif" font-size="10.00">else</text>
<text xml:space="preserve" text-anchor="middle" x="394.57" y="-168.82" font-family="Helvetica,sans-Serif" font-size="10.00"> &#160;c_tmp(ctrl_idx)=0</text>
</g>
<!-- assert_gp&#45;&gt;cmp -->
<g id="edge1" class="edge">
<title>assert_gp&#45;&gt;cmp</title>
<path fill="none" stroke="#2563eb" stroke-width="1.1" stroke-dasharray="5,2" d="M319.18,-313.1C328.96,-299.64 343.05,-280.24 356.42,-261.85"/>
<polygon fill="#2563eb" stroke="#2563eb" stroke-width="1.1" points="358.18,-263.58 360.32,-256.48 354.22,-260.7 358.18,-263.58"/>
<text xml:space="preserve" text-anchor="middle" x="383.18" y="-278.59" font-family="Helvetica,sans-Serif" font-size="9.00">legal configuration</text>
</g>
<!-- st0 -->
<g id="node3" class="node">
<title>st0</title>
<path fill="#f8fbff" stroke="#334155" d="M99.15,-117C99.15,-117 12,-117 12,-117 6,-117 0,-111 0,-105 0,-105 0,-93 0,-93 0,-87 6,-81 12,-81 12,-81 99.15,-81 99.15,-81 105.15,-81 111.15,-87 111.15,-93 111.15,-93 111.15,-105 111.15,-105 111.15,-111 105.15,-117 99.15,-117"/>
<text xml:space="preserve" text-anchor="middle" x="55.57" y="-101.5" font-family="Helvetica,sans-Serif" font-size="10.00">ctrl bits 0..3</text>
<text xml:space="preserve" text-anchor="middle" x="55.57" y="-89.5" font-family="Helvetica,sans-Serif" font-size="10.00">Stage 0 swap enables</text>
</g>
<!-- cmp&#45;&gt;st0 -->
<g id="edge2" class="edge">
<title>cmp&#45;&gt;st0</title>
<path fill="none" stroke="#475569" stroke-width="1.1" d="M335.14,-188.5C274.53,-169.32 180.85,-139.66 118.88,-120.04"/>
<polygon fill="#475569" stroke="#475569" stroke-width="1.1" points="119.73,-117.74 112.32,-117.96 118.25,-122.41 119.73,-117.74"/>
</g>
<!-- st1 -->
<g id="node4" class="node">
<title>st1</title>
<path fill="#f8fbff" stroke="#334155" d="M235.15,-117C235.15,-117 148,-117 148,-117 142,-117 136,-111 136,-105 136,-105 136,-93 136,-93 136,-87 142,-81 148,-81 148,-81 235.15,-81 235.15,-81 241.15,-81 247.15,-87 247.15,-93 247.15,-93 247.15,-105 247.15,-105 247.15,-111 241.15,-117 235.15,-117"/>
<text xml:space="preserve" text-anchor="middle" x="191.57" y="-101.5" font-family="Helvetica,sans-Serif" font-size="10.00">ctrl bits 4..7</text>
<text xml:space="preserve" text-anchor="middle" x="191.57" y="-89.5" font-family="Helvetica,sans-Serif" font-size="10.00">Stage 1 swap enables</text>
</g>
<!-- cmp&#45;&gt;st1 -->
<g id="edge3" class="edge">
<title>cmp&#45;&gt;st1</title>
<path fill="none" stroke="#475569" stroke-width="1.1" d="M335.31,-175.99C302.12,-158.44 261.59,-137.01 232.04,-121.39"/>
<polygon fill="#475569" stroke="#475569" stroke-width="1.1" points="233.2,-119.23 225.86,-118.13 230.91,-123.56 233.2,-119.23"/>
</g>
<!-- st2 -->
<g id="node5" class="node">
<title>st2</title>
<path fill="#f8fbff" stroke="#334155" d="M371.15,-117C371.15,-117 284,-117 284,-117 278,-117 272,-111 272,-105 272,-105 272,-93 272,-93 272,-87 278,-81 284,-81 284,-81 371.15,-81 371.15,-81 377.15,-81 383.15,-87 383.15,-93 383.15,-93 383.15,-105 383.15,-105 383.15,-111 377.15,-117 371.15,-117"/>
<text xml:space="preserve" text-anchor="middle" x="327.57" y="-101.5" font-family="Helvetica,sans-Serif" font-size="10.00">ctrl bits 8..9</text>
<text xml:space="preserve" text-anchor="middle" x="327.57" y="-89.5" font-family="Helvetica,sans-Serif" font-size="10.00">Stage 2 swap enables</text>
</g>
<!-- cmp&#45;&gt;st2 -->
<g id="edge4" class="edge">
<title>cmp&#45;&gt;st2</title>
<path fill="none" stroke="#475569" stroke-width="1.1" d="M366.16,-161.81C358.16,-149 349.77,-135.55 342.86,-124.48"/>
<polygon fill="#475569" stroke="#475569" stroke-width="1.1" points="345,-123.29 339.22,-118.65 340.85,-125.89 345,-123.29"/>
</g>
<!-- st3 -->
<g id="node6" class="node">
<title>st3</title>
<path fill="#f8fbff" stroke="#334155" d="M507.15,-117C507.15,-117 420,-117 420,-117 414,-117 408,-111 408,-105 408,-105 408,-93 408,-93 408,-87 414,-81 420,-81 420,-81 507.15,-81 507.15,-81 513.15,-81 519.15,-87 519.15,-93 519.15,-93 519.15,-105 519.15,-105 519.15,-111 513.15,-117 507.15,-117"/>
<text xml:space="preserve" text-anchor="middle" x="463.57" y="-101.5" font-family="Helvetica,sans-Serif" font-size="10.00">ctrl bits 10..13</text>
<text xml:space="preserve" text-anchor="middle" x="463.57" y="-89.5" font-family="Helvetica,sans-Serif" font-size="10.00">Stage 3 swap enables</text>
</g>
<!-- cmp&#45;&gt;st3 -->
<g id="edge5" class="edge">
<title>cmp&#45;&gt;st3</title>
<path fill="none" stroke="#475569" stroke-width="1.1" d="M423.84,-161.81C432.07,-149 440.72,-135.55 447.83,-124.48"/>
<polygon fill="#475569" stroke="#475569" stroke-width="1.1" points="449.87,-125.85 451.59,-118.64 445.74,-123.2 449.87,-125.85"/>
</g>
<!-- st4 -->
<g id="node7" class="node">
<title>st4</title>
<path fill="#f8fbff" stroke="#334155" d="M643.15,-117C643.15,-117 556,-117 556,-117 550,-117 544,-111 544,-105 544,-105 544,-93 544,-93 544,-87 550,-81 556,-81 556,-81 643.15,-81 643.15,-81 649.15,-81 655.15,-87 655.15,-93 655.15,-93 655.15,-105 655.15,-105 655.15,-111 649.15,-117 643.15,-117"/>
<text xml:space="preserve" text-anchor="middle" x="599.58" y="-101.5" font-family="Helvetica,sans-Serif" font-size="10.00">ctrl bits 14..15</text>
<text xml:space="preserve" text-anchor="middle" x="599.58" y="-89.5" font-family="Helvetica,sans-Serif" font-size="10.00">Stage 4 swap enables</text>
</g>
<!-- cmp&#45;&gt;st4 -->
<g id="edge6" class="edge">
<title>cmp&#45;&gt;st4</title>
<path fill="none" stroke="#475569" stroke-width="1.1" d="M453.87,-176.28C487.55,-158.64 528.86,-137.02 558.88,-121.31"/>
<polygon fill="#475569" stroke="#475569" stroke-width="1.1" points="559.71,-123.63 564.78,-118.22 557.44,-119.29 559.71,-123.63"/>
</g>
<!-- st5 -->
<g id="node8" class="node">
<title>st5</title>
<path fill="#f8fbff" stroke="#334155" d="M779.15,-117C779.15,-117 692,-117 692,-117 686,-117 680,-111 680,-105 680,-105 680,-93 680,-93 680,-87 686,-81 692,-81 692,-81 779.15,-81 779.15,-81 785.15,-81 791.15,-87 791.15,-93 791.15,-93 791.15,-105 791.15,-105 791.15,-111 785.15,-117 779.15,-117"/>
<text xml:space="preserve" text-anchor="middle" x="735.58" y="-101.5" font-family="Helvetica,sans-Serif" font-size="10.00">ctrl bits 16..18</text>
<text xml:space="preserve" text-anchor="middle" x="735.58" y="-89.5" font-family="Helvetica,sans-Serif" font-size="10.00">Stage 5 swap enables</text>
</g>
<!-- cmp&#45;&gt;st5 -->
<g id="edge7" class="edge">
<title>cmp&#45;&gt;st5</title>
<path fill="none" stroke="#475569" stroke-width="1.1" d="M453.97,-188.63C514.97,-169.43 609.56,-139.66 672.03,-120"/>
<polygon fill="#475569" stroke="#475569" stroke-width="1.1" points="672.71,-122.35 678.65,-117.91 671.24,-117.68 672.71,-122.35"/>
</g>
<!-- ctrl_out -->
<g id="node9" class="node">
<title>ctrl_out</title>
<path fill="#f8fafc" stroke="#334155" d="M392.27,-36C392.27,-36 344.88,-36 344.88,-36 338.88,-36 332.88,-30 332.88,-24 332.88,-24 332.88,-12 332.88,-12 332.88,-6 338.88,0 344.88,0 344.88,0 392.27,0 392.27,0 398.27,0 404.27,-6 404.27,-12 404.27,-12 404.27,-24 404.27,-24 404.27,-30 398.27,-36 392.27,-36"/>
<text xml:space="preserve" text-anchor="middle" x="368.57" y="-14.5" font-family="Helvetica,sans-Serif" font-size="10.00">ctrl_out[18:0]</text>
</g>
<!-- st0&#45;&gt;ctrl_out -->
<g id="edge8" class="edge">
<title>st0&#45;&gt;ctrl_out</title>
<path fill="none" stroke="#475569" stroke-width="1.1" d="M111.53,-83.88C172.41,-68.51 268.5,-44.26 324.33,-30.17"/>
<polygon fill="#475569" stroke="#475569" stroke-width="1.1" points="324.8,-32.58 330.99,-28.49 323.6,-27.82 324.8,-32.58"/>
</g>
<!-- st1&#45;&gt;ctrl_out -->
<g id="edge9" class="edge">
<title>st1&#45;&gt;ctrl_out</title>
<path fill="none" stroke="#475569" stroke-width="1.1" d="M230.42,-80.66C258.23,-68.25 295.72,-51.52 324.62,-38.62"/>
<polygon fill="#475569" stroke="#475569" stroke-width="1.1" points="325.62,-40.85 331.02,-35.76 323.62,-36.38 325.62,-40.85"/>
</g>
<!-- st2&#45;&gt;ctrl_out -->
<g id="edge10" class="edge">
<title>st2&#45;&gt;ctrl_out</title>
<path fill="none" stroke="#475569" stroke-width="1.1" d="M336.47,-80.86C342.07,-70.06 349.4,-55.95 355.64,-43.92"/>
<polygon fill="#475569" stroke="#475569" stroke-width="1.1" points="357.74,-45.2 358.79,-37.86 353.39,-42.94 357.74,-45.2"/>
</g>
<!-- st3&#45;&gt;ctrl_out -->
<g id="edge11" class="edge">
<title>st3&#45;&gt;ctrl_out</title>
<path fill="none" stroke="#475569" stroke-width="1.1" d="M442.96,-80.86C429.24,-69.45 411.05,-54.32 396.09,-41.88"/>
<polygon fill="#475569" stroke="#475569" stroke-width="1.1" points="397.71,-40.04 390.76,-37.45 394.57,-43.81 397.71,-40.04"/>
</g>
<!-- st4&#45;&gt;ctrl_out -->
<g id="edge12" class="edge">
<title>st4&#45;&gt;ctrl_out</title>
<path fill="none" stroke="#475569" stroke-width="1.1" d="M548.6,-80.57C507.91,-66.65 451.5,-47.36 412.72,-34.1"/>
<polygon fill="#475569" stroke="#475569" stroke-width="1.1" points="413.72,-31.85 406.3,-31.9 412.13,-36.49 413.72,-31.85"/>
</g>
<!-- st5&#45;&gt;ctrl_out -->
<g id="edge13" class="edge">
<title>st5&#45;&gt;ctrl_out</title>
<path fill="none" stroke="#475569" stroke-width="1.1" d="M679.73,-84.04C672.52,-82.24 667.58,-81 667.58,-81 667.58,-81 496.14,-45.45 412.9,-28.19"/>
<polygon fill="#475569" stroke="#475569" stroke-width="1.1" points="413.62,-25.84 406.27,-26.82 412.63,-30.64 413.62,-25.84"/>
</g>
<!-- note0 -->
<g id="node10" class="node">
<title>note0</title>
<polygon fill="#fef2f2" stroke="#f87171" points="586.52,-353.78 372.62,-353.78 372.62,-309.14 592.52,-309.14 592.52,-347.78 586.52,-353.78"/>
<polyline fill="none" stroke="#f87171" points="586.52,-353.78 586.52,-347.78"/>
<polyline fill="none" stroke="#f87171" points="592.52,-347.78 586.52,-347.78"/>
<text xml:space="preserve" text-anchor="middle" x="482.57" y="-339.96" font-family="Helvetica,sans-Serif" font-size="10.00">No FSM, no registers.</text>
<text xml:space="preserve" text-anchor="middle" x="482.57" y="-327.96" font-family="Helvetica,sans-Serif" font-size="10.00">Control is purely combinational:</text>
<text xml:space="preserve" text-anchor="middle" x="482.57" y="-315.96" font-family="Helvetica,sans-Serif" font-size="10.00">comparators drive swap decisions and ctrl_out.</text>
</g>
<!-- note0&#45;&gt;cmp -->
<g id="edge14" class="edge">
<title>note0&#45;&gt;cmp</title>
<path fill="none" stroke="#dc2626" stroke-width="1.1" stroke-dasharray="1,5" d="M466.84,-308.8C456.02,-293.9 441.23,-273.54 427.85,-255.13"/>
</g>
</g>
</svg>
