<?xml version="1.0" encoding="UTF-8" standalone="no"?>
<!DOCTYPE svg PUBLIC "-//W3C//DTD SVG 1.1//EN"
 "http://www.w3.org/Graphics/SVG/1.1/DTD/svg11.dtd">
<!-- Generated by graphviz version 14.1.2 (0)
 -->
<!-- Title: batcher_slave_arch Pages: 1 -->
<svg width="1055pt" height="416pt"
 viewBox="0.00 0.00 1055.00 416.00" xmlns="http://www.w3.org/2000/svg" xmlns:xlink="http://www.w3.org/1999/xlink">
<g id="graph0" class="graph" transform="scale(1 1) rotate(0) translate(14.4 401.47)">
<title>batcher_slave_arch</title>
<polygon fill="white" stroke="none" points="-14.4,14.4 -14.4,-401.47 1040.8,-401.47 1040.8,14.4 -14.4,14.4"/>
<text xml:space="preserve" text-anchor="middle" x="513.2" y="-369.77" font-family="Helvetica,sans-Serif" font-size="14.00">batcher_slave Architecture</text>
<g id="clust1" class="cluster">
<title>cluster_unpack</title>
<path fill="white" stroke="#93c5fd" d="M323.43,-65.32C323.43,-65.32 437.08,-65.32 437.08,-65.32 443.08,-65.32 449.08,-71.32 449.08,-77.32 449.08,-77.32 449.08,-194.32 449.08,-194.32 449.08,-200.32 443.08,-206.32 437.08,-206.32 437.08,-206.32 323.43,-206.32 323.43,-206.32 317.43,-206.32 311.43,-200.32 311.43,-194.32 311.43,-194.32 311.43,-77.32 311.43,-77.32 311.43,-71.32 317.43,-65.32 323.43,-65.32"/>
<text xml:space="preserve" text-anchor="middle" x="380.25" y="-189.02" font-family="Helvetica,sans-Serif" font-size="14.00">Unpack / Init</text>
</g>
<g id="clust2" class="cluster">
<title>cluster_core</title>
<path fill="white" stroke="#fcd34d" d="M148.9,-214.32C148.9,-214.32 697.6,-214.32 697.6,-214.32 703.6,-214.32 709.6,-220.32 709.6,-226.32 709.6,-226.32 709.6,-343.32 709.6,-343.32 709.6,-349.32 703.6,-355.32 697.6,-355.32 697.6,-355.32 148.9,-355.32 148.9,-355.32 142.9,-355.32 136.9,-349.32 136.9,-343.32 136.9,-343.32 136.9,-226.32 136.9,-226.32 136.9,-220.32 142.9,-214.32 148.9,-214.32"/>
<text xml:space="preserve" text-anchor="middle" x="423.25" y="-338.02" font-family="Helvetica,sans-Serif" font-size="14.00">Permutation Core</text>
</g>
<g id="clust3" class="cluster">
<title>cluster_pack</title>
<path fill="white" stroke="#a7f3d0" d="M778.1,-230.32C778.1,-230.32 874.5,-230.32 874.5,-230.32 880.5,-230.32 886.5,-236.32 886.5,-242.32 886.5,-242.32 886.5,-294.32 886.5,-294.32 886.5,-300.32 880.5,-306.32 874.5,-306.32 874.5,-306.32 778.1,-306.32 778.1,-306.32 772.1,-306.32 766.1,-300.32 766.1,-294.32 766.1,-294.32 766.1,-242.32 766.1,-242.32 766.1,-236.32 772.1,-230.32 778.1,-230.32"/>
<text xml:space="preserve" text-anchor="middle" x="826.3" y="-289.02" font-family="Helvetica,sans-Serif" font-size="14.00">Output Pack</text>
</g>
<!-- perm_in -->
<g id="node1" class="node">
<title>perm_in</title>
<path fill="#f8fafc" stroke="#334155" d="M81.9,-258.32C81.9,-258.32 12,-258.32 12,-258.32 6,-258.32 0,-252.32 0,-246.32 0,-246.32 0,-234.32 0,-234.32 0,-228.32 6,-222.32 12,-222.32 12,-222.32 81.9,-222.32 81.9,-222.32 87.9,-222.32 93.9,-228.32 93.9,-234.32 93.9,-234.32 93.9,-246.32 93.9,-246.32 93.9,-252.32 87.9,-258.32 81.9,-258.32"/>
<text xml:space="preserve" text-anchor="middle" x="46.95" y="-236.82" font-family="Helvetica,sans-Serif" font-size="10.00">perm_in[0..G_P&#45;1]</text>
</g>
<!-- decode -->
<g id="node6" class="node">
<title>decode</title>
<path fill="#fffbeb" stroke="#334155" d="M235.05,-258.32C235.05,-258.32 156.9,-258.32 156.9,-258.32 150.9,-258.32 144.9,-252.32 144.9,-246.32 144.9,-246.32 144.9,-234.32 144.9,-234.32 144.9,-228.32 150.9,-222.32 156.9,-222.32 156.9,-222.32 235.05,-222.32 235.05,-222.32 241.05,-222.32 247.05,-228.32 247.05,-234.32 247.05,-234.32 247.05,-246.32 247.05,-246.32 247.05,-252.32 241.05,-258.32 235.05,-258.32"/>
<text xml:space="preserve" text-anchor="middle" x="195.98" y="-242.82" font-family="Helvetica,sans-Serif" font-size="10.00">decode perm_i</text>
<text xml:space="preserve" text-anchor="middle" x="195.98" y="-230.82" font-family="Helvetica,sans-Serif" font-size="10.00">to_integer(to_01(...))</text>
</g>
<!-- perm_in&#45;&gt;decode -->
<g id="edge2" class="edge">
<title>perm_in&#45;&gt;decode</title>
<path fill="none" stroke="#475569" stroke-width="1.1" d="M94.07,-240.32C107.32,-240.32 121.95,-240.32 135.87,-240.32"/>
<polygon fill="#475569" stroke="#475569" stroke-width="1.1" points="135.76,-242.77 142.76,-240.32 135.76,-237.87 135.76,-242.77"/>
</g>
<!-- data_in -->
<g id="node2" class="node">
<title>data_in</title>
<path fill="#f8fafc" stroke="#334155" d="M229.43,-174.32C229.43,-174.32 162.53,-174.32 162.53,-174.32 156.53,-174.32 150.53,-168.32 150.53,-162.32 150.53,-162.32 150.53,-150.32 150.53,-150.32 150.53,-144.32 156.53,-138.32 162.53,-138.32 162.53,-138.32 229.43,-138.32 229.43,-138.32 235.43,-138.32 241.43,-144.32 241.43,-150.32 241.43,-150.32 241.43,-162.32 241.43,-162.32 241.43,-168.32 235.43,-174.32 229.43,-174.32"/>
<text xml:space="preserve" text-anchor="middle" x="195.98" y="-152.82" font-family="Helvetica,sans-Serif" font-size="10.00">data_in[0..G_P&#45;1]</text>
</g>
<!-- unpack -->
<g id="node4" class="node">
<title>unpack</title>
<path fill="#eff6ff" stroke="#334155" d="M429.08,-174.32C429.08,-174.32 331.43,-174.32 331.43,-174.32 325.43,-174.32 319.43,-168.32 319.43,-162.32 319.43,-162.32 319.43,-150.32 319.43,-150.32 319.43,-144.32 325.43,-138.32 331.43,-138.32 331.43,-138.32 429.08,-138.32 429.08,-138.32 435.08,-138.32 441.08,-144.32 441.08,-150.32 441.08,-150.32 441.08,-162.32 441.08,-162.32 441.08,-168.32 435.08,-174.32 429.08,-174.32"/>
<text xml:space="preserve" text-anchor="middle" x="380.25" y="-152.82" font-family="Helvetica,sans-Serif" font-size="10.00">unpack data_in &#45;&gt; in_v(i)</text>
</g>
<!-- data_in&#45;&gt;unpack -->
<g id="edge1" class="edge">
<title>data_in&#45;&gt;unpack</title>
<path fill="none" stroke="#475569" stroke-width="1.1" d="M241.56,-156.32C262.31,-156.32 287.45,-156.32 310.55,-156.32"/>
<polygon fill="#475569" stroke="#475569" stroke-width="1.1" points="310.28,-158.77 317.28,-156.32 310.28,-153.87 310.28,-158.77"/>
</g>
<!-- data_out -->
<g id="node3" class="node">
<title>data_out</title>
<path fill="#f8fafc" stroke="#334155" d="M1014.4,-274.32C1014.4,-274.32 941.5,-274.32 941.5,-274.32 935.5,-274.32 929.5,-268.32 929.5,-262.32 929.5,-262.32 929.5,-250.32 929.5,-250.32 929.5,-244.32 935.5,-238.32 941.5,-238.32 941.5,-238.32 1014.4,-238.32 1014.4,-238.32 1020.4,-238.32 1026.4,-244.32 1026.4,-250.32 1026.4,-250.32 1026.4,-262.32 1026.4,-262.32 1026.4,-268.32 1020.4,-274.32 1014.4,-274.32"/>
<text xml:space="preserve" text-anchor="middle" x="977.95" y="-252.82" font-family="Helvetica,sans-Serif" font-size="10.00">data_out[0..G_P&#45;1]</text>
</g>
<!-- route -->
<g id="node8" class="node">
<title>route</title>
<path fill="#fffbeb" stroke="#334155" d="M689.6,-290.64C689.6,-290.64 594.2,-290.64 594.2,-290.64 588.2,-290.64 582.2,-284.64 582.2,-278.64 582.2,-278.64 582.2,-234 582.2,-234 582.2,-228 588.2,-222 594.2,-222 594.2,-222 689.6,-222 689.6,-222 695.6,-222 701.6,-228 701.6,-234 701.6,-234 701.6,-278.64 701.6,-278.64 701.6,-284.64 695.6,-290.64 689.6,-290.64"/>
<text xml:space="preserve" text-anchor="middle" x="641.9" y="-276.82" font-family="Helvetica,sans-Serif" font-size="10.00">assignment network</text>
<text xml:space="preserve" text-anchor="middle" x="641.9" y="-264.82" font-family="Helvetica,sans-Serif" font-size="10.00">forward:</text>
<text xml:space="preserve" text-anchor="middle" x="641.9" y="-252.82" font-family="Helvetica,sans-Serif" font-size="10.00">out_v(perm_i)=in_v(slot)</text>
<text xml:space="preserve" text-anchor="middle" x="641.9" y="-240.82" font-family="Helvetica,sans-Serif" font-size="10.00">reverse:</text>
<text xml:space="preserve" text-anchor="middle" x="641.9" y="-228.82" font-family="Helvetica,sans-Serif" font-size="10.00">out_v(slot)=in_v(perm_i)</text>
</g>
<!-- unpack&#45;&gt;route -->
<g id="edge3" class="edge">
<title>unpack&#45;&gt;route</title>
<path fill="none" stroke="#475569" stroke-width="1.1" d="M429.18,-174.78C469.82,-190.43 528.55,-213.05 573.86,-230.5"/>
<polygon fill="#475569" stroke="#475569" stroke-width="1.1" points="572.9,-232.76 580.31,-232.99 574.66,-228.18 572.9,-232.76"/>
<text xml:space="preserve" text-anchor="middle" x="522.33" y="-225.92" font-family="Helvetica,sans-Serif" font-size="9.00">in_v</text>
</g>
<!-- zero_out -->
<g id="node5" class="node">
<title>zero_out</title>
<path fill="#eff6ff" stroke="#334155" d="M416.33,-109.32C416.33,-109.32 344.18,-109.32 344.18,-109.32 338.18,-109.32 332.18,-103.32 332.18,-97.32 332.18,-97.32 332.18,-85.32 332.18,-85.32 332.18,-79.32 338.18,-73.32 344.18,-73.32 344.18,-73.32 416.33,-73.32 416.33,-73.32 422.33,-73.32 428.33,-79.32 428.33,-85.32 428.33,-85.32 428.33,-97.32 428.33,-97.32 428.33,-103.32 422.33,-109.32 416.33,-109.32"/>
<text xml:space="preserve" text-anchor="middle" x="380.25" y="-87.82" font-family="Helvetica,sans-Serif" font-size="10.00">initialize out_v(i)=0</text>
</g>
<!-- zero_out&#45;&gt;route -->
<g id="edge4" class="edge">
<title>zero_out&#45;&gt;route</title>
<path fill="none" stroke="#475569" stroke-width="1.1" d="M426.6,-109.75C445.2,-117.31 462.45,-124.32 462.45,-124.32 462.45,-124.32 557.2,-179.82 557.2,-179.82 557.2,-179.82 576.6,-197.55 596.72,-215.94"/>
<polygon fill="#475569" stroke="#475569" stroke-width="1.1" points="594.92,-217.61 601.74,-220.53 598.23,-214 594.92,-217.61"/>
<text xml:space="preserve" text-anchor="middle" x="522.33" y="-181.77" font-family="Helvetica,sans-Serif" font-size="9.00">out_v init</text>
</g>
<!-- guard -->
<g id="node9" class="node">
<title>guard</title>
<path fill="#fffbeb" stroke="#334155" d="M417.45,-258.32C417.45,-258.32 343.05,-258.32 343.05,-258.32 337.05,-258.32 331.05,-252.32 331.05,-246.32 331.05,-246.32 331.05,-234.32 331.05,-234.32 331.05,-228.32 337.05,-222.32 343.05,-222.32 343.05,-222.32 417.45,-222.32 417.45,-222.32 423.45,-222.32 429.45,-228.32 429.45,-234.32 429.45,-234.32 429.45,-246.32 429.45,-246.32 429.45,-252.32 423.45,-258.32 417.45,-258.32"/>
<text xml:space="preserve" text-anchor="middle" x="380.25" y="-242.82" font-family="Helvetica,sans-Serif" font-size="10.00">bounds guard</text>
<text xml:space="preserve" text-anchor="middle" x="380.25" y="-230.82" font-family="Helvetica,sans-Serif" font-size="10.00">0 &lt;= perm_i &lt; G_P</text>
</g>
<!-- decode&#45;&gt;guard -->
<g id="edge5" class="edge">
<title>decode&#45;&gt;guard</title>
<path fill="none" stroke="#475569" stroke-width="1.1" d="M247.26,-240.32C270.45,-240.32 298.07,-240.32 322.04,-240.32"/>
<polygon fill="#475569" stroke="#475569" stroke-width="1.1" points="322.03,-242.77 329.03,-240.32 322.03,-237.87 322.03,-242.77"/>
</g>
<!-- mode -->
<g id="node7" class="node">
<title>mode</title>
<path fill="#fffbeb" stroke="#334155" d="M406.2,-323.32C406.2,-323.32 354.3,-323.32 354.3,-323.32 348.3,-323.32 342.3,-317.32 342.3,-311.32 342.3,-311.32 342.3,-299.32 342.3,-299.32 342.3,-293.32 348.3,-287.32 354.3,-287.32 354.3,-287.32 406.2,-287.32 406.2,-287.32 412.2,-287.32 418.2,-293.32 418.2,-299.32 418.2,-299.32 418.2,-311.32 418.2,-311.32 418.2,-317.32 412.2,-323.32 406.2,-323.32"/>
<text xml:space="preserve" text-anchor="middle" x="380.25" y="-307.82" font-family="Helvetica,sans-Serif" font-size="10.00">mode select</text>
<text xml:space="preserve" text-anchor="middle" x="380.25" y="-295.82" font-family="Helvetica,sans-Serif" font-size="10.00">G_REVERSE</text>
</g>
<!-- mode&#45;&gt;route -->
<g id="edge6" class="edge">
<title>mode&#45;&gt;route</title>
<path fill="none" stroke="#2563eb" stroke-width="1.1" stroke-dasharray="5,2" d="M418.45,-298.3C458.88,-290.67 524.32,-278.32 573.78,-268.99"/>
<polygon fill="#2563eb" stroke="#2563eb" stroke-width="1.1" points="574.13,-271.41 580.56,-267.71 573.22,-266.6 574.13,-271.41"/>
<text xml:space="preserve" text-anchor="middle" x="522.33" y="-287.16" font-family="Helvetica,sans-Serif" font-size="9.00">forward / reverse</text>
</g>
<!-- repack -->
<g id="node10" class="node">
<title>repack</title>
<path fill="#f0fdf4" stroke="#334155" d="M866.5,-274.32C866.5,-274.32 786.1,-274.32 786.1,-274.32 780.1,-274.32 774.1,-268.32 774.1,-262.32 774.1,-262.32 774.1,-250.32 774.1,-250.32 774.1,-244.32 780.1,-238.32 786.1,-238.32 786.1,-238.32 866.5,-238.32 866.5,-238.32 872.5,-238.32 878.5,-244.32 878.5,-250.32 878.5,-250.32 878.5,-262.32 878.5,-262.32 878.5,-268.32 872.5,-274.32 866.5,-274.32"/>
<text xml:space="preserve" text-anchor="middle" x="826.3" y="-252.82" font-family="Helvetica,sans-Serif" font-size="10.00">pack out_v &#45;&gt; d_tmp</text>
</g>
<!-- route&#45;&gt;repack -->
<g id="edge8" class="edge">
<title>route&#45;&gt;repack</title>
<path fill="none" stroke="#475569" stroke-width="1.1" d="M701.87,-256.32C722.09,-256.32 744.73,-256.32 765.05,-256.32"/>
<polygon fill="#475569" stroke="#475569" stroke-width="1.1" points="764.94,-258.77 771.94,-256.32 764.94,-253.87 764.94,-258.77"/>
<text xml:space="preserve" text-anchor="middle" x="737.85" y="-258.27" font-family="Helvetica,sans-Serif" font-size="9.00">out_v</text>
</g>
<!-- guard&#45;&gt;route -->
<g id="edge7" class="edge">
<title>guard&#45;&gt;route</title>
<path fill="none" stroke="#475569" stroke-width="1.1" d="M429.78,-243.31C470.32,-245.81 528.56,-249.4 573.61,-252.17"/>
<polygon fill="#475569" stroke="#475569" stroke-width="1.1" points="573.34,-254.61 580.48,-252.6 573.64,-249.72 573.34,-254.61"/>
<text xml:space="preserve" text-anchor="middle" x="522.33" y="-253.09" font-family="Helvetica,sans-Serif" font-size="9.00">valid perm_i only</text>
</g>
<!-- repack&#45;&gt;data_out -->
<g id="edge9" class="edge">
<title>repack&#45;&gt;data_out</title>
<path fill="none" stroke="#475569" stroke-width="1.1" d="M878.8,-256.32C892.38,-256.32 907.11,-256.32 920.92,-256.32"/>
<polygon fill="#475569" stroke="#475569" stroke-width="1.1" points="920.71,-258.77 927.71,-256.32 920.71,-253.87 920.71,-258.77"/>
</g>
<!-- note0 -->
<g id="node11" class="node">
<title>note0</title>
<polygon fill="#fefce8" stroke="#eab308" points="456.45,-44.64 298.05,-44.64 298.05,0 462.45,0 462.45,-38.64 456.45,-44.64"/>
<polyline fill="none" stroke="#eab308" points="456.45,-44.64 456.45,-38.64"/>
<polyline fill="none" stroke="#eab308" points="462.45,-38.64 456.45,-38.64"/>
<text xml:space="preserve" text-anchor="middle" x="380.25" y="-30.82" font-family="Helvetica,sans-Serif" font-size="10.00">The slave is a payload crossbar.</text>
<text xml:space="preserve" text-anchor="middle" x="380.25" y="-18.82" font-family="Helvetica,sans-Serif" font-size="10.00">`perm_in` supplies the mapping.</text>
<text xml:space="preserve" text-anchor="middle" x="380.25" y="-6.82" font-family="Helvetica,sans-Serif" font-size="10.00">`G_REVERSE` chooses direction.</text>
</g>
<!-- note0&#45;&gt;route -->
<g id="edge10" class="edge">
<title>note0&#45;&gt;route</title>
<path fill="none" stroke="#a16207" stroke-width="1.1" stroke-dasharray="1,5" d="M432.68,-45.12C448.79,-52.26 462.45,-58.32 462.45,-58.32 462.45,-58.32 557.2,-132.32 557.2,-132.32 557.2,-132.32 592.82,-185.09 617.58,-221.78"/>
</g>
</g>
</svg>
