<?xml version="1.0" encoding="UTF-8" standalone="no"?>
<!DOCTYPE svg PUBLIC "-//W3C//DTD SVG 1.1//EN"
 "http://www.w3.org/Graphics/SVG/1.1/DTD/svg11.dtd">
<!-- Generated by graphviz version 14.1.2 (0)
 -->
<!-- Title: QPP_PARALLEL_SCHEDULER_CONTROL Pages: 1 -->
<svg width="339pt" height="851pt"
 viewBox="0.00 0.00 339.00 851.00" xmlns="http://www.w3.org/2000/svg" xmlns:xlink="http://www.w3.org/1999/xlink">
<g id="graph0" class="graph" transform="scale(1 1) rotate(0) translate(4 847)">
<title>QPP_PARALLEL_SCHEDULER_CONTROL</title>
<polygon fill="white" stroke="none" points="-4,4 -4,-847 335,-847 335,4 -4,4"/>
<!-- title -->
<g id="node1" class="node">
<title>title</title>
<path fill="#eef5fb" stroke="none" d="M229.75,-843C229.75,-843 101.25,-843 101.25,-843 95.25,-843 89.25,-837 89.25,-831 89.25,-831 89.25,-819 89.25,-819 89.25,-813 95.25,-807 101.25,-807 101.25,-807 229.75,-807 229.75,-807 235.75,-807 241.75,-813 241.75,-819 241.75,-819 241.75,-831 241.75,-831 241.75,-837 235.75,-843 229.75,-843"/>
<text xml:space="preserve" text-anchor="middle" x="165.5" y="-821.5" font-family="Helvetica,sans-Serif" font-size="10.00">qpp_parallel_scheduler: Control</text>
</g>
<!-- note -->
<g id="node2" class="node">
<title>note</title>
<polygon fill="#fff4cc" stroke="#9c6500" points="325,-752 0,-752 0,-716 331,-716 331,-746 325,-752"/>
<polyline fill="none" stroke="#9c6500" points="325,-752 325,-746"/>
<polyline fill="none" stroke="#9c6500" points="331,-746 325,-746"/>
<text xml:space="preserve" text-anchor="middle" x="165.5" y="-730.5" font-family="Helvetica,sans-Serif" font-size="10.00">No FSM. Control is a pure combinational validity and consistency chain.</text>
</g>
<!-- title&#45;&gt;note -->
<!-- input_guard -->
<g id="node3" class="node">
<title>input_guard</title>
<path fill="#fde9d9" stroke="#c55a11" d="M154.9,-655.37C154.9,-655.37 93.35,-622.63 93.35,-622.63 88.05,-619.82 88.05,-614.18 93.35,-611.37 93.35,-611.37 154.9,-578.63 154.9,-578.63 160.2,-575.82 170.8,-575.82 176.1,-578.63 176.1,-578.63 237.65,-611.37 237.65,-611.37 242.95,-614.18 242.95,-619.82 237.65,-622.63 237.65,-622.63 176.1,-655.37 176.1,-655.37 170.8,-658.18 160.2,-658.18 154.9,-655.37"/>
<text xml:space="preserve" text-anchor="middle" x="165.5" y="-625.5" font-family="Helvetica,sans-Serif" font-size="10.00">seg_i=0</text>
<text xml:space="preserve" text-anchor="middle" x="165.5" y="-613.5" font-family="Helvetica,sans-Serif" font-size="10.00">or</text>
<text xml:space="preserve" text-anchor="middle" x="165.5" y="-601.5" font-family="Helvetica,sans-Serif" font-size="10.00">row_i&gt;=seg_i ?</text>
</g>
<!-- note&#45;&gt;input_guard -->
<g id="edge2" class="edge">
<title>note&#45;&gt;input_guard</title>
<path fill="none" stroke="#1f4e79" d="M165.5,-715.53C165.5,-703.33 165.5,-686.36 165.5,-669.99"/>
<polygon fill="#1f4e79" stroke="#1f4e79" points="167.95,-670.03 165.5,-663.03 163.05,-670.03 167.95,-670.03"/>
</g>
<!-- lane_range -->
<g id="node4" class="node">
<title>lane_range</title>
<path fill="#eef5fb" stroke="#1f4e79" d="M220.38,-508.5C220.38,-508.5 110.62,-508.5 110.62,-508.5 104.62,-508.5 98.62,-502.5 98.62,-496.5 98.62,-496.5 98.62,-476.5 98.62,-476.5 98.62,-470.5 104.62,-464.5 110.62,-464.5 110.62,-464.5 220.38,-464.5 220.38,-464.5 226.38,-464.5 232.38,-470.5 232.38,-476.5 232.38,-476.5 232.38,-496.5 232.38,-496.5 232.38,-502.5 226.38,-508.5 220.38,-508.5"/>
<text xml:space="preserve" text-anchor="middle" x="165.5" y="-495" font-family="Helvetica,sans-Serif" font-size="10.00">Per&#45;Lane Range Check</text>
<text xml:space="preserve" text-anchor="middle" x="165.5" y="-483" font-family="Helvetica,sans-Serif" font-size="10.00">if g_idx &gt;= k_i &#45;&gt; addr_i:=0</text>
<text xml:space="preserve" text-anchor="middle" x="165.5" y="-471" font-family="Helvetica,sans-Serif" font-size="10.00">ok_v:=0</text>
</g>
<!-- input_guard&#45;&gt;lane_range -->
<g id="edge3" class="edge">
<title>input_guard&#45;&gt;lane_range</title>
<path fill="none" stroke="#1f4e79" d="M165.5,-572.5C165.5,-554.27 165.5,-533.54 165.5,-517.12"/>
<polygon fill="#1f4e79" stroke="#1f4e79" points="167.95,-517.48 165.5,-510.48 163.05,-517.48 167.95,-517.48"/>
<text xml:space="preserve" text-anchor="middle" x="185.38" y="-537.45" font-family="Helvetica,sans-Serif" font-size="9.00">valid path</text>
</g>
<!-- lane0_cap -->
<g id="node5" class="node">
<title>lane0_cap</title>
<path fill="#eef5fb" stroke="#1f4e79" d="M217.38,-409.5C217.38,-409.5 113.62,-409.5 113.62,-409.5 107.62,-409.5 101.62,-403.5 101.62,-397.5 101.62,-397.5 101.62,-385.5 101.62,-385.5 101.62,-379.5 107.62,-373.5 113.62,-373.5 113.62,-373.5 217.38,-373.5 217.38,-373.5 223.38,-373.5 229.38,-379.5 229.38,-385.5 229.38,-385.5 229.38,-397.5 229.38,-397.5 229.38,-403.5 223.38,-409.5 217.38,-409.5"/>
<text xml:space="preserve" text-anchor="middle" x="165.5" y="-394" font-family="Helvetica,sans-Serif" font-size="10.00">Lane0 Reference Capture</text>
<text xml:space="preserve" text-anchor="middle" x="165.5" y="-382" font-family="Helvetica,sans-Serif" font-size="10.00">row_v := residue_0</text>
</g>
<!-- lane_range&#45;&gt;lane0_cap -->
<g id="edge4" class="edge">
<title>lane_range&#45;&gt;lane0_cap</title>
<path fill="none" stroke="#1f4e79" d="M165.5,-464.4C165.5,-450.6 165.5,-432.5 165.5,-417.91"/>
<polygon fill="#1f4e79" stroke="#1f4e79" points="167.95,-418.3 165.5,-411.3 163.05,-418.3 167.95,-418.3"/>
</g>
<!-- cmp1 -->
<g id="node6" class="node">
<title>cmp1</title>
<path fill="#fde9d9" stroke="#c55a11" d="M153.74,-316.12C153.74,-316.12 88.39,-302.88 88.39,-302.88 82.51,-301.69 82.51,-299.31 88.39,-298.12 88.39,-298.12 153.74,-284.88 153.74,-284.88 159.62,-283.69 171.38,-283.69 177.26,-284.88 177.26,-284.88 242.61,-298.12 242.61,-298.12 248.49,-299.31 248.49,-301.69 242.61,-302.88 242.61,-302.88 177.26,-316.12 177.26,-316.12 171.38,-317.31 159.62,-317.31 153.74,-316.12"/>
<text xml:space="preserve" text-anchor="middle" x="165.5" y="-297" font-family="Helvetica,sans-Serif" font-size="10.00">residue_1 = row_v ?</text>
</g>
<!-- lane0_cap&#45;&gt;cmp1 -->
<g id="edge5" class="edge">
<title>lane0_cap&#45;&gt;cmp1</title>
<path fill="none" stroke="#1f4e79" d="M165.5,-373.34C165.5,-360.25 165.5,-342.01 165.5,-327.18"/>
<polygon fill="#1f4e79" stroke="#1f4e79" points="167.95,-327.42 165.5,-320.42 163.05,-327.42 167.95,-327.42"/>
</g>
<!-- cmpn -->
<g id="node8" class="node">
<title>cmpn</title>
<path fill="#fde9d9" stroke="#c55a11" d="M153.74,-215.62C153.74,-215.62 88.39,-202.38 88.39,-202.38 82.51,-201.19 82.51,-198.81 88.39,-197.62 88.39,-197.62 153.74,-184.38 153.74,-184.38 159.62,-183.19 171.38,-183.19 177.26,-184.38 177.26,-184.38 242.61,-197.62 242.61,-197.62 248.49,-198.81 248.49,-201.19 242.61,-202.38 242.61,-202.38 177.26,-215.62 177.26,-215.62 171.38,-216.81 159.62,-216.81 153.74,-215.62"/>
<text xml:space="preserve" text-anchor="middle" x="165.5" y="-196.5" font-family="Helvetica,sans-Serif" font-size="10.00">residue_n = row_v ?</text>
</g>
<!-- cmp1&#45;&gt;cmpn -->
<g id="edge6" class="edge">
<title>cmp1&#45;&gt;cmpn</title>
<path fill="none" stroke="#1f4e79" d="M165.5,-282.34C165.5,-266.9 165.5,-244 165.5,-226.43"/>
<polygon fill="#1f4e79" stroke="#1f4e79" points="167.95,-226.8 165.5,-219.8 163.05,-226.8 167.95,-226.8"/>
<text xml:space="preserve" text-anchor="middle" x="182.75" y="-246.95" font-family="Helvetica,sans-Serif" font-size="9.00">ok chain</text>
</g>
<!-- dots -->
<g id="node7" class="node">
<title>dots</title>
<path fill="#eef5fb" stroke="none" d="M315.5,-843C315.5,-843 285.5,-843 285.5,-843 279.5,-843 273.5,-837 273.5,-831 273.5,-831 273.5,-819 273.5,-819 273.5,-813 279.5,-807 285.5,-807 285.5,-807 315.5,-807 315.5,-807 321.5,-807 327.5,-813 327.5,-819 327.5,-819 327.5,-831 327.5,-831 327.5,-837 321.5,-843 315.5,-843"/>
<text xml:space="preserve" text-anchor="middle" x="300.5" y="-821.5" font-family="Helvetica,sans-Serif" font-size="10.00">...</text>
</g>
<!-- ok_reduce -->
<g id="node9" class="node">
<title>ok_reduce</title>
<path fill="#eef5fb" stroke="#1f4e79" d="M304,-127C304,-127 27,-127 27,-127 21,-127 15,-121 15,-115 15,-115 15,-103 15,-103 15,-97 21,-91 27,-91 27,-91 304,-91 304,-91 310,-91 316,-97 316,-103 316,-103 316,-115 316,-115 316,-121 310,-127 304,-127"/>
<text xml:space="preserve" text-anchor="middle" x="165.5" y="-111.5" font-family="Helvetica,sans-Serif" font-size="10.00">ok_v Reduction</text>
<text xml:space="preserve" text-anchor="middle" x="165.5" y="-99.5" font-family="Helvetica,sans-Serif" font-size="10.00">row_ok = input_valid AND all lane_valid AND all residue matches</text>
</g>
<!-- cmpn&#45;&gt;ok_reduce -->
<g id="edge7" class="edge">
<title>cmpn&#45;&gt;ok_reduce</title>
<path fill="none" stroke="#1f4e79" d="M165.5,-181.84C165.5,-168.75 165.5,-150.51 165.5,-135.68"/>
<polygon fill="#1f4e79" stroke="#1f4e79" points="167.95,-135.92 165.5,-128.92 163.05,-135.92 167.95,-135.92"/>
</g>
<!-- row_ok -->
<g id="node10" class="node">
<title>row_ok</title>
<path fill="#fce4d6" stroke="#c55a11" d="M195.38,-36C195.38,-36 152.76,-36 152.76,-36 146.76,-36 138.18,-30.58 135.6,-25.17 135.6,-25.17 128.78,-10.83 128.78,-10.83 126.2,-5.42 129.62,0 135.62,0 135.62,0 178.24,0 178.24,0 184.24,0 192.82,-5.42 195.4,-10.83 195.4,-10.83 202.22,-25.17 202.22,-25.17 204.8,-30.58 201.38,-36 195.38,-36"/>
<text xml:space="preserve" text-anchor="middle" x="165.5" y="-14.5" font-family="Helvetica,sans-Serif" font-size="10.00">row_ok</text>
</g>
<!-- ok_reduce&#45;&gt;row_ok -->
<g id="edge8" class="edge">
<title>ok_reduce&#45;&gt;row_ok</title>
<path fill="none" stroke="#1f4e79" d="M165.5,-90.84C165.5,-77.75 165.5,-59.51 165.5,-44.68"/>
<polygon fill="#1f4e79" stroke="#1f4e79" points="167.95,-44.92 165.5,-37.92 163.05,-44.92 167.95,-44.92"/>
</g>
</g>
</svg>
