<?xml version="1.0" encoding="UTF-8" standalone="no"?>
<!DOCTYPE svg PUBLIC "-//W3C//DTD SVG 1.1//EN"
 "http://www.w3.org/Graphics/SVG/1.1/DTD/svg11.dtd">
<!-- Generated by graphviz version 14.1.2 (0)
 -->
<!-- Title: QPP_PARALLEL_SCHEDULER_DATAPATH Pages: 1 -->
<svg width="582pt" height="582pt"
 viewBox="0.00 0.00 582.00 582.00" xmlns="http://www.w3.org/2000/svg" xmlns:xlink="http://www.w3.org/1999/xlink">
<g id="graph0" class="graph" transform="scale(1 1) rotate(0) translate(4 578)">
<title>QPP_PARALLEL_SCHEDULER_DATAPATH</title>
<polygon fill="white" stroke="none" points="-4,4 -4,-578 577.62,-578 577.62,4 -4,4"/>
<!-- title -->
<g id="node1" class="node">
<title>title</title>
<path fill="#eef5fb" stroke="none" d="M312,-574C312,-574 175.25,-574 175.25,-574 169.25,-574 163.25,-568 163.25,-562 163.25,-562 163.25,-550 163.25,-550 163.25,-544 169.25,-538 175.25,-538 175.25,-538 312,-538 312,-538 318,-538 324,-544 324,-550 324,-550 324,-562 324,-562 324,-568 318,-574 312,-574"/>
<text xml:space="preserve" text-anchor="middle" x="243.62" y="-552.5" font-family="Helvetica,sans-Serif" font-size="10.00">qpp_parallel_scheduler: Datapath</text>
</g>
<!-- note -->
<g id="node2" class="node">
<title>note</title>
<polygon fill="#fff4cc" stroke="#9c6500" points="377.25,-483 104,-483 104,-439 383.25,-439 383.25,-477 377.25,-483"/>
<polyline fill="none" stroke="#9c6500" points="377.25,-483 377.25,-477"/>
<polyline fill="none" stroke="#9c6500" points="383.25,-477 377.25,-477"/>
<text xml:space="preserve" text-anchor="middle" x="243.62" y="-469.5" font-family="Helvetica,sans-Serif" font-size="10.00">The datapath is a bank of repeated lane cells.</text>
<text xml:space="preserve" text-anchor="middle" x="243.62" y="-457.5" font-family="Helvetica,sans-Serif" font-size="10.00">Each lane computes one QPP address and one row residue.</text>
<text xml:space="preserve" text-anchor="middle" x="243.62" y="-445.5" font-family="Helvetica,sans-Serif" font-size="10.00">Default bank size = G_P = 8.</text>
</g>
<!-- title&#45;&gt;note -->
<!-- scalar -->
<g id="node3" class="node">
<title>scalar</title>
<path fill="#d9ebf7" stroke="#1f4e79" d="M367.18,-384C367.18,-384 175.54,-384 175.54,-384 169.54,-384 159.61,-379.47 155.68,-374.93 155.68,-374.93 115.93,-329.07 115.93,-329.07 112,-324.53 114.07,-320 120.07,-320 120.07,-320 311.71,-320 311.71,-320 317.71,-320 327.64,-324.53 331.57,-329.07 331.57,-329.07 371.32,-374.93 371.32,-374.93 375.25,-379.47 373.18,-384 367.18,-384"/>
<text xml:space="preserve" text-anchor="middle" x="243.62" y="-354.5" font-family="Helvetica,sans-Serif" font-size="10.00">Decoded Scalars</text>
<text xml:space="preserve" text-anchor="middle" x="243.62" y="-342.5" font-family="Helvetica,sans-Serif" font-size="10.00">row_i, seg_i, k_i, f1_i, f2_i</text>
</g>
<!-- note&#45;&gt;scalar -->
<g id="edge2" class="edge">
<title>note&#45;&gt;scalar</title>
<path fill="none" stroke="#1f4e79" d="M243.62,-438.6C243.62,-425.43 243.62,-408.14 243.62,-392.54"/>
<polygon fill="#1f4e79" stroke="#1f4e79" points="246.08,-392.61 243.63,-385.61 241.18,-392.61 246.08,-392.61"/>
</g>
<!-- lane0 -->
<g id="node4" class="node">
<title>lane0</title>
<path fill="#eef5fb" stroke="#1f4e79" d="M129.25,-265C129.25,-265 12,-265 12,-265 6,-265 0,-259 0,-253 0,-253 0,-221 0,-221 0,-215 6,-209 12,-209 12,-209 129.25,-209 129.25,-209 135.25,-209 141.25,-215 141.25,-221 141.25,-221 141.25,-253 141.25,-253 141.25,-259 135.25,-265 129.25,-265"/>
<text xml:space="preserve" text-anchor="middle" x="70.62" y="-251.5" font-family="Helvetica,sans-Serif" font-size="10.00">LaneCell(0)</text>
<text xml:space="preserve" text-anchor="middle" x="70.62" y="-239.5" font-family="Helvetica,sans-Serif" font-size="10.00">g_idx=row_i+0*seg_i</text>
<text xml:space="preserve" text-anchor="middle" x="70.62" y="-227.5" font-family="Helvetica,sans-Serif" font-size="10.00">addr_0=qpp_value(...)</text>
<text xml:space="preserve" text-anchor="middle" x="70.62" y="-215.5" font-family="Helvetica,sans-Serif" font-size="10.00">residue_0=addr_0 mod seg_i</text>
</g>
<!-- scalar&#45;&gt;lane0 -->
<g id="edge3" class="edge">
<title>scalar&#45;&gt;lane0</title>
<path fill="none" stroke="#1f4e79" d="M195.43,-319.52C171.78,-304.07 143.32,-285.49 119.57,-269.97"/>
<polygon fill="#1f4e79" stroke="#1f4e79" points="121.14,-268.07 113.94,-266.29 118.46,-272.17 121.14,-268.07"/>
</g>
<!-- lane1 -->
<g id="node5" class="node">
<title>lane1</title>
<path fill="#eef5fb" stroke="#1f4e79" d="M475.25,-265C475.25,-265 358,-265 358,-265 352,-265 346,-259 346,-253 346,-253 346,-221 346,-221 346,-215 352,-209 358,-209 358,-209 475.25,-209 475.25,-209 481.25,-209 487.25,-215 487.25,-221 487.25,-221 487.25,-253 487.25,-253 487.25,-259 481.25,-265 475.25,-265"/>
<text xml:space="preserve" text-anchor="middle" x="416.62" y="-251.5" font-family="Helvetica,sans-Serif" font-size="10.00">LaneCell(1)</text>
<text xml:space="preserve" text-anchor="middle" x="416.62" y="-239.5" font-family="Helvetica,sans-Serif" font-size="10.00">g_idx=row_i+1*seg_i</text>
<text xml:space="preserve" text-anchor="middle" x="416.62" y="-227.5" font-family="Helvetica,sans-Serif" font-size="10.00">addr_1=qpp_value(...)</text>
<text xml:space="preserve" text-anchor="middle" x="416.62" y="-215.5" font-family="Helvetica,sans-Serif" font-size="10.00">residue_1=addr_1 mod seg_i</text>
</g>
<!-- scalar&#45;&gt;lane1 -->
<g id="edge4" class="edge">
<title>scalar&#45;&gt;lane1</title>
<path fill="none" stroke="#1f4e79" d="M291.82,-319.52C315.47,-304.07 343.93,-285.49 367.68,-269.97"/>
<polygon fill="#1f4e79" stroke="#1f4e79" points="368.79,-272.17 373.31,-266.29 366.11,-268.07 368.79,-272.17"/>
</g>
<!-- laneN -->
<g id="node7" class="node">
<title>laneN</title>
<path fill="#eef5fb" stroke="#1f4e79" d="M302.25,-265C302.25,-265 185,-265 185,-265 179,-265 173,-259 173,-253 173,-253 173,-221 173,-221 173,-215 179,-209 185,-209 185,-209 302.25,-209 302.25,-209 308.25,-209 314.25,-215 314.25,-221 314.25,-221 314.25,-253 314.25,-253 314.25,-259 308.25,-265 302.25,-265"/>
<text xml:space="preserve" text-anchor="middle" x="243.62" y="-251.5" font-family="Helvetica,sans-Serif" font-size="10.00">LaneCell(G_P&#45;1)</text>
<text xml:space="preserve" text-anchor="middle" x="243.62" y="-239.5" font-family="Helvetica,sans-Serif" font-size="10.00">g_idx=row_i+(G_P&#45;1)*seg_i</text>
<text xml:space="preserve" text-anchor="middle" x="243.62" y="-227.5" font-family="Helvetica,sans-Serif" font-size="10.00">addr_n=qpp_value(...)</text>
<text xml:space="preserve" text-anchor="middle" x="243.62" y="-215.5" font-family="Helvetica,sans-Serif" font-size="10.00">residue_n=addr_n mod seg_i</text>
</g>
<!-- scalar&#45;&gt;laneN -->
<g id="edge5" class="edge">
<title>scalar&#45;&gt;laneN</title>
<path fill="none" stroke="#1f4e79" d="M243.62,-319.52C243.62,-305.33 243.62,-288.5 243.62,-273.82"/>
<polygon fill="#1f4e79" stroke="#1f4e79" points="246.08,-273.98 243.63,-266.98 241.18,-273.98 246.08,-273.98"/>
</g>
<!-- row_reduce -->
<g id="node8" class="node">
<title>row_reduce</title>
<path fill="#eef5fb" stroke="#1f4e79" d="M337.75,-144.5C337.75,-144.5 235.5,-144.5 235.5,-144.5 229.5,-144.5 223.5,-138.5 223.5,-132.5 223.5,-132.5 223.5,-112.5 223.5,-112.5 223.5,-106.5 229.5,-100.5 235.5,-100.5 235.5,-100.5 337.75,-100.5 337.75,-100.5 343.75,-100.5 349.75,-106.5 349.75,-112.5 349.75,-112.5 349.75,-132.5 349.75,-132.5 349.75,-138.5 343.75,-144.5 337.75,-144.5"/>
<text xml:space="preserve" text-anchor="middle" x="286.62" y="-131" font-family="Helvetica,sans-Serif" font-size="10.00">Residue Reducer</text>
<text xml:space="preserve" text-anchor="middle" x="286.62" y="-119" font-family="Helvetica,sans-Serif" font-size="10.00">capture row_v from lane0</text>
<text xml:space="preserve" text-anchor="middle" x="286.62" y="-107" font-family="Helvetica,sans-Serif" font-size="10.00">compare later residues</text>
</g>
<!-- lane0&#45;&gt;row_reduce -->
<g id="edge6" class="edge">
<title>lane0&#45;&gt;row_reduce</title>
<path fill="none" stroke="#1f4e79" d="M123.19,-208.62C158.13,-190.42 203.7,-166.69 237.84,-148.91"/>
<polygon fill="#1f4e79" stroke="#1f4e79" points="238.96,-151.09 244.04,-145.68 236.7,-146.74 238.96,-151.09"/>
<text xml:space="preserve" text-anchor="middle" x="212.18" y="-173.45" font-family="Helvetica,sans-Serif" font-size="9.00">residue_0</text>
</g>
<!-- addr_pack -->
<g id="node9" class="node">
<title>addr_pack</title>
<path fill="#eef5fb" stroke="#1f4e79" d="M179,-140.5C179,-140.5 66.25,-140.5 66.25,-140.5 60.25,-140.5 54.25,-134.5 54.25,-128.5 54.25,-128.5 54.25,-116.5 54.25,-116.5 54.25,-110.5 60.25,-104.5 66.25,-104.5 66.25,-104.5 179,-104.5 179,-104.5 185,-104.5 191,-110.5 191,-116.5 191,-116.5 191,-128.5 191,-128.5 191,-134.5 185,-140.5 179,-140.5"/>
<text xml:space="preserve" text-anchor="middle" x="122.62" y="-125" font-family="Helvetica,sans-Serif" font-size="10.00">Address Pack</text>
<text xml:space="preserve" text-anchor="middle" x="122.62" y="-113" font-family="Helvetica,sans-Serif" font-size="10.00">{addr_0, addr_1, ..., addr_n}</text>
</g>
<!-- lane0&#45;&gt;addr_pack -->
<g id="edge9" class="edge">
<title>lane0&#45;&gt;addr_pack</title>
<path fill="none" stroke="#1f4e79" d="M66.96,-208.68C65.16,-195.29 63.38,-182 63.38,-182 63.38,-182 63.38,-171.5 63.38,-171.5 63.38,-171.5 79.37,-158.54 94.73,-146.09"/>
<polygon fill="#1f4e79" stroke="#1f4e79" points="96.16,-148.09 100.06,-141.78 93.08,-144.28 96.16,-148.09"/>
<text xml:space="preserve" text-anchor="middle" x="78" y="-173.45" font-family="Helvetica,sans-Serif" font-size="9.00">addr_0</text>
</g>
<!-- lane1&#45;&gt;row_reduce -->
<g id="edge7" class="edge">
<title>lane1&#45;&gt;row_reduce</title>
<path fill="none" stroke="#1f4e79" d="M403.05,-208.65C394.33,-191.07 384.62,-171.5 384.62,-171.5 384.62,-171.5 361.57,-160.21 337.83,-148.58"/>
<polygon fill="#1f4e79" stroke="#1f4e79" points="339.19,-146.52 331.82,-145.64 337.03,-150.92 339.19,-146.52"/>
<text xml:space="preserve" text-anchor="middle" x="409.89" y="-173.45" font-family="Helvetica,sans-Serif" font-size="9.00">residue_1</text>
</g>
<!-- lane1&#45;&gt;addr_pack -->
<g id="edge10" class="edge">
<title>lane1&#45;&gt;addr_pack</title>
<path fill="none" stroke="#1f4e79" d="M374.22,-208.65C346.96,-191.07 316.62,-171.5 316.62,-171.5 316.62,-171.5 253.73,-155.94 199.56,-142.54"/>
<polygon fill="#1f4e79" stroke="#1f4e79" points="200.15,-140.16 192.76,-140.85 198.97,-144.91 200.15,-140.16"/>
<text xml:space="preserve" text-anchor="middle" x="345.77" y="-173.45" font-family="Helvetica,sans-Serif" font-size="9.00">addr_1</text>
</g>
<!-- dots -->
<g id="node6" class="node">
<title>dots</title>
<path fill="#eef5fb" stroke="none" d="M561.62,-255C561.62,-255 531.62,-255 531.62,-255 525.62,-255 519.62,-249 519.62,-243 519.62,-243 519.62,-231 519.62,-231 519.62,-225 525.62,-219 531.62,-219 531.62,-219 561.62,-219 561.62,-219 567.62,-219 573.62,-225 573.62,-231 573.62,-231 573.62,-243 573.62,-243 573.62,-249 567.62,-255 561.62,-255"/>
<text xml:space="preserve" text-anchor="middle" x="546.62" y="-233.5" font-family="Helvetica,sans-Serif" font-size="10.00">...</text>
</g>
<!-- laneN&#45;&gt;row_reduce -->
<g id="edge8" class="edge">
<title>laneN&#45;&gt;row_reduce</title>
<path fill="none" stroke="#1f4e79" d="M254.03,-208.77C260.54,-191.74 268.92,-169.82 275.55,-152.47"/>
<polygon fill="#1f4e79" stroke="#1f4e79" points="277.71,-153.68 277.92,-146.27 273.13,-151.93 277.71,-153.68"/>
<text xml:space="preserve" text-anchor="middle" x="288.32" y="-173.45" font-family="Helvetica,sans-Serif" font-size="9.00">residue_n</text>
</g>
<!-- laneN&#45;&gt;addr_pack -->
<g id="edge11" class="edge">
<title>laneN&#45;&gt;addr_pack</title>
<path fill="none" stroke="#1f4e79" d="M185.5,-208.53C157.27,-195.19 129.38,-182 129.38,-182 129.38,-182 127.37,-164.59 125.54,-148.77"/>
<polygon fill="#1f4e79" stroke="#1f4e79" points="128.02,-148.91 124.79,-142.24 123.16,-149.47 128.02,-148.91"/>
<text xml:space="preserve" text-anchor="middle" x="144" y="-173.45" font-family="Helvetica,sans-Serif" font-size="9.00">addr_n</text>
</g>
<!-- out_row -->
<g id="node11" class="node">
<title>out_row</title>
<path fill="#d9ebf7" stroke="#1f4e79" d="M325.76,-36C325.76,-36 268.41,-36 268.41,-36 262.41,-36 253.4,-30.81 250.38,-25.63 250.38,-25.63 241.52,-10.37 241.52,-10.37 238.5,-5.19 241.49,0 247.49,0 247.49,0 304.84,0 304.84,0 310.84,0 319.85,-5.19 322.87,-10.37 322.87,-10.37 331.73,-25.63 331.73,-25.63 334.75,-30.81 331.76,-36 325.76,-36"/>
<text xml:space="preserve" text-anchor="middle" x="286.62" y="-14.5" font-family="Helvetica,sans-Serif" font-size="10.00">row_base</text>
</g>
<!-- row_reduce&#45;&gt;out_row -->
<g id="edge12" class="edge">
<title>row_reduce&#45;&gt;out_row</title>
<path fill="none" stroke="#1f4e79" d="M286.62,-100.26C286.62,-84.18 286.62,-62.02 286.62,-44.9"/>
<polygon fill="#1f4e79" stroke="#1f4e79" points="289.08,-44.98 286.63,-37.98 284.18,-44.98 289.08,-44.98"/>
<text xml:space="preserve" text-anchor="middle" x="299" y="-64.95" font-family="Helvetica,sans-Serif" font-size="9.00">row_v</text>
</g>
<!-- out_addr -->
<g id="node10" class="node">
<title>out_addr</title>
<path fill="#d9ebf7" stroke="#1f4e79" d="M159.78,-36C159.78,-36 105.59,-36 105.59,-36 99.59,-36 90.66,-30.76 87.73,-25.52 87.73,-25.52 79.32,-10.48 79.32,-10.48 76.4,-5.24 79.47,0 85.47,0 85.47,0 139.66,0 139.66,0 145.66,0 154.59,-5.24 157.52,-10.48 157.52,-10.48 165.93,-25.52 165.93,-25.52 168.85,-30.76 165.78,-36 159.78,-36"/>
<text xml:space="preserve" text-anchor="middle" x="122.62" y="-14.5" font-family="Helvetica,sans-Serif" font-size="10.00">addr_vec</text>
</g>
<!-- addr_pack&#45;&gt;out_addr -->
<g id="edge13" class="edge">
<title>addr_pack&#45;&gt;out_addr</title>
<path fill="none" stroke="#1f4e79" d="M122.62,-104.11C122.62,-87.84 122.62,-63.33 122.62,-44.78"/>
<polygon fill="#1f4e79" stroke="#1f4e79" points="125.08,-44.99 122.63,-37.99 120.18,-44.99 125.08,-44.99"/>
</g>
</g>
</svg>
