<?xml version="1.0" encoding="UTF-8" standalone="no"?>
<!DOCTYPE svg PUBLIC "-//W3C//DTD SVG 1.1//EN"
 "http://www.w3.org/Graphics/SVG/1.1/DTD/svg11.dtd">
<!-- Generated by graphviz version 14.1.2 (0)
 -->
<!-- Title: QPP_PARALLEL_SCHEDULER_ARCHITECTURE Pages: 1 -->
<svg width="473pt" height="838pt"
 viewBox="0.00 0.00 473.00 838.00" xmlns="http://www.w3.org/2000/svg" xmlns:xlink="http://www.w3.org/1999/xlink">
<g id="graph0" class="graph" transform="scale(1 1) rotate(0) translate(4 833.5)">
<title>QPP_PARALLEL_SCHEDULER_ARCHITECTURE</title>
<polygon fill="white" stroke="none" points="-4,4 -4,-833.5 469.44,-833.5 469.44,4 -4,4"/>
<!-- title -->
<g id="node1" class="node">
<title>title</title>
<path fill="#eef5fb" stroke="none" d="M382.31,-829.5C382.31,-829.5 214.81,-829.5 214.81,-829.5 208.81,-829.5 202.81,-823.5 202.81,-817.5 202.81,-817.5 202.81,-805.5 202.81,-805.5 202.81,-799.5 208.81,-793.5 214.81,-793.5 214.81,-793.5 382.31,-793.5 382.31,-793.5 388.31,-793.5 394.31,-799.5 394.31,-805.5 394.31,-805.5 394.31,-817.5 394.31,-817.5 394.31,-823.5 388.31,-829.5 382.31,-829.5"/>
<text xml:space="preserve" text-anchor="middle" x="298.56" y="-808" font-family="Helvetica,sans-Serif" font-size="10.00">qpp_parallel_scheduler: Full Architecture</text>
</g>
<!-- note -->
<g id="node2" class="node">
<title>note</title>
<polygon fill="#fff4cc" stroke="#9c6500" points="398.06,-738.5 193.06,-738.5 193.06,-694.5 404.06,-694.5 404.06,-732.5 398.06,-738.5"/>
<polyline fill="none" stroke="#9c6500" points="398.06,-738.5 398.06,-732.5"/>
<polyline fill="none" stroke="#9c6500" points="404.06,-732.5 398.06,-732.5"/>
<text xml:space="preserve" text-anchor="middle" x="298.56" y="-725" font-family="Helvetica,sans-Serif" font-size="10.00">Purely combinational address scheduler.</text>
<text xml:space="preserve" text-anchor="middle" x="298.56" y="-713" font-family="Helvetica,sans-Serif" font-size="10.00">Default parallel width G_P = 8.</text>
<text xml:space="preserve" text-anchor="middle" x="298.56" y="-701" font-family="Helvetica,sans-Serif" font-size="10.00">Generates addr_vec, row_base, and row_ok.</text>
</g>
<!-- title&#45;&gt;note -->
<!-- in_scalar -->
<g id="node3" class="node">
<title>in_scalar</title>
<path fill="#d9ebf7" stroke="#1f4e79" d="M424.32,-639.5C424.32,-639.5 229.18,-639.5 229.18,-639.5 223.18,-639.5 212.12,-636.27 207.06,-633.04 207.06,-633.04 170.92,-609.96 170.92,-609.96 165.86,-606.73 166.8,-603.5 172.8,-603.5 172.8,-603.5 367.95,-603.5 367.95,-603.5 373.95,-603.5 385.01,-606.73 390.06,-609.96 390.06,-609.96 426.21,-633.04 426.21,-633.04 431.27,-636.27 430.32,-639.5 424.32,-639.5"/>
<text xml:space="preserve" text-anchor="middle" x="298.56" y="-618" font-family="Helvetica,sans-Serif" font-size="10.00">row_idx | seg_len | k_len | f1 | f2</text>
</g>
<!-- note&#45;&gt;in_scalar -->
<g id="edge2" class="edge">
<title>note&#45;&gt;in_scalar</title>
<path fill="none" stroke="#1f4e79" d="M298.56,-694.4C298.56,-680.6 298.56,-662.5 298.56,-647.91"/>
<polygon fill="#1f4e79" stroke="#1f4e79" points="301.01,-648.3 298.56,-641.3 296.11,-648.3 301.01,-648.3"/>
</g>
<!-- decode -->
<g id="node4" class="node">
<title>decode</title>
<path fill="#eef5fb" stroke="#1f4e79" d="M367.69,-548.5C367.69,-548.5 229.44,-548.5 229.44,-548.5 223.44,-548.5 217.44,-542.5 217.44,-536.5 217.44,-536.5 217.44,-504.5 217.44,-504.5 217.44,-498.5 223.44,-492.5 229.44,-492.5 229.44,-492.5 367.69,-492.5 367.69,-492.5 373.69,-492.5 379.69,-498.5 379.69,-504.5 379.69,-504.5 379.69,-536.5 379.69,-536.5 379.69,-542.5 373.69,-548.5 367.69,-548.5"/>
<text xml:space="preserve" text-anchor="middle" x="298.56" y="-535" font-family="Helvetica,sans-Serif" font-size="10.00">Scalar Decode / Guard</text>
<text xml:space="preserve" text-anchor="middle" x="298.56" y="-523" font-family="Helvetica,sans-Serif" font-size="10.00">integer conversion</text>
<text xml:space="preserve" text-anchor="middle" x="298.56" y="-511" font-family="Helvetica,sans-Serif" font-size="10.00">seg_i,row_i,k_i,f1_i,f2_i</text>
<text xml:space="preserve" text-anchor="middle" x="298.56" y="-499" font-family="Helvetica,sans-Serif" font-size="10.00">invalid if seg_i=0 or row_i&gt;=seg_i</text>
</g>
<!-- in_scalar&#45;&gt;decode -->
<g id="edge3" class="edge">
<title>in_scalar&#45;&gt;decode</title>
<path fill="none" stroke="#1f4e79" d="M298.56,-603.26C298.56,-590.54 298.56,-572.8 298.56,-557.09"/>
<polygon fill="#1f4e79" stroke="#1f4e79" points="301.01,-557.13 298.56,-550.13 296.11,-557.13 301.01,-557.13"/>
</g>
<!-- lane_bank -->
<g id="node5" class="node">
<title>lane_bank</title>
<path fill="#eef5fb" stroke="#1f4e79" d="M383.06,-428C383.06,-428 214.06,-428 214.06,-428 208.06,-428 202.06,-422 202.06,-416 202.06,-416 202.06,-372 202.06,-372 202.06,-366 208.06,-360 214.06,-360 214.06,-360 383.06,-360 383.06,-360 389.06,-360 395.06,-366 395.06,-372 395.06,-372 395.06,-416 395.06,-416 395.06,-422 389.06,-428 383.06,-428"/>
<text xml:space="preserve" text-anchor="middle" x="298.56" y="-414.5" font-family="Helvetica,sans-Serif" font-size="10.00">Repeated Lane Bank</text>
<text xml:space="preserve" text-anchor="middle" x="298.56" y="-402.5" font-family="Helvetica,sans-Serif" font-size="10.00">G_P lane cells</text>
<text xml:space="preserve" text-anchor="middle" x="298.56" y="-390.5" font-family="Helvetica,sans-Serif" font-size="10.00"> g_idx = row_i + lane*seg_i</text>
<text xml:space="preserve" text-anchor="middle" x="298.56" y="-378.5" font-family="Helvetica,sans-Serif" font-size="10.00"> addr_i = qpp_value(g_idx, k_i, f1_i, f2_i)</text>
<text xml:space="preserve" text-anchor="middle" x="298.56" y="-366.5" font-family="Helvetica,sans-Serif" font-size="10.00"> residue_i = addr_i mod seg_i</text>
</g>
<!-- decode&#45;&gt;lane_bank -->
<g id="edge4" class="edge">
<title>decode&#45;&gt;lane_bank</title>
<path fill="none" stroke="#1f4e79" d="M298.56,-492.18C298.56,-475.91 298.56,-454.95 298.56,-436.66"/>
<polygon fill="#1f4e79" stroke="#1f4e79" points="301.01,-436.98 298.56,-429.98 296.11,-436.98 301.01,-436.98"/>
<text xml:space="preserve" text-anchor="middle" x="351.06" y="-456.95" font-family="Helvetica,sans-Serif" font-size="9.00">row_i, seg_i, k_i, f1_i, f2_i</text>
</g>
<!-- reduce -->
<g id="node6" class="node">
<title>reduce</title>
<path fill="#eef5fb" stroke="#1f4e79" d="M304.19,-295.5C304.19,-295.5 126.94,-295.5 126.94,-295.5 120.94,-295.5 114.94,-289.5 114.94,-283.5 114.94,-283.5 114.94,-251.5 114.94,-251.5 114.94,-245.5 120.94,-239.5 126.94,-239.5 126.94,-239.5 304.19,-239.5 304.19,-239.5 310.19,-239.5 316.19,-245.5 316.19,-251.5 316.19,-251.5 316.19,-283.5 316.19,-283.5 316.19,-289.5 310.19,-295.5 304.19,-295.5"/>
<text xml:space="preserve" text-anchor="middle" x="215.56" y="-282" font-family="Helvetica,sans-Serif" font-size="10.00">Row&#45;Base Extract + Consistency Check</text>
<text xml:space="preserve" text-anchor="middle" x="215.56" y="-270" font-family="Helvetica,sans-Serif" font-size="10.00">lane0 captures row_v</text>
<text xml:space="preserve" text-anchor="middle" x="215.56" y="-258" font-family="Helvetica,sans-Serif" font-size="10.00">lanes1..G_P&#45;1 compare residue_i to row_v</text>
<text xml:space="preserve" text-anchor="middle" x="215.56" y="-246" font-family="Helvetica,sans-Serif" font-size="10.00">accumulate row_ok</text>
</g>
<!-- lane_bank&#45;&gt;reduce -->
<g id="edge5" class="edge">
<title>lane_bank&#45;&gt;reduce</title>
<path fill="none" stroke="#1f4e79" d="M276.32,-359.64C264.54,-341.96 250.09,-320.29 238.24,-302.51"/>
<polygon fill="#1f4e79" stroke="#1f4e79" points="240.43,-301.39 234.51,-296.92 236.35,-304.1 240.43,-301.39"/>
<text xml:space="preserve" text-anchor="middle" x="294.19" y="-324.45" font-family="Helvetica,sans-Serif" font-size="9.00">addr_i + residue_i</text>
</g>
<!-- pack -->
<g id="node7" class="node">
<title>pack</title>
<path fill="#eef5fb" stroke="#1f4e79" d="M342.94,-175C342.94,-175 254.19,-175 254.19,-175 248.19,-175 242.19,-169 242.19,-163 242.19,-163 242.19,-131 242.19,-131 242.19,-125 248.19,-119 254.19,-119 254.19,-119 342.94,-119 342.94,-119 348.94,-119 354.94,-125 354.94,-131 354.94,-131 354.94,-163 354.94,-163 354.94,-169 348.94,-175 342.94,-175"/>
<text xml:space="preserve" text-anchor="middle" x="298.56" y="-161.5" font-family="Helvetica,sans-Serif" font-size="10.00">Output Pack</text>
<text xml:space="preserve" text-anchor="middle" x="298.56" y="-149.5" font-family="Helvetica,sans-Serif" font-size="10.00">addr_vec &lt;= all addr_i</text>
<text xml:space="preserve" text-anchor="middle" x="298.56" y="-137.5" font-family="Helvetica,sans-Serif" font-size="10.00">row_base &lt;= row_v</text>
<text xml:space="preserve" text-anchor="middle" x="298.56" y="-125.5" font-family="Helvetica,sans-Serif" font-size="10.00">row_ok &lt;= ok_v</text>
</g>
<!-- lane_bank&#45;&gt;pack -->
<g id="edge7" class="edge">
<title>lane_bank&#45;&gt;pack</title>
<path fill="none" stroke="#1f4e79" d="M321.22,-359.84C330.7,-345.96 339.56,-333 339.56,-333 339.56,-333 339.56,-322.5 339.56,-322.5 339.56,-322.5 332.56,-239.5 332.56,-239.5 332.56,-239.5 321.56,-202 321.56,-202 321.56,-202 317.9,-193.39 313.49,-183.05"/>
<polygon fill="#1f4e79" stroke="#1f4e79" points="315.79,-182.19 310.79,-176.71 311.28,-184.11 315.79,-182.19"/>
<text xml:space="preserve" text-anchor="middle" x="361.59" y="-264.2" font-family="Helvetica,sans-Serif" font-size="9.00">addr_i bank</text>
</g>
<!-- reduce&#45;&gt;pack -->
<g id="edge6" class="edge">
<title>reduce&#45;&gt;pack</title>
<path fill="none" stroke="#1f4e79" d="M234.81,-239.02C246.65,-222.12 261.92,-200.32 274.54,-182.29"/>
<polygon fill="#1f4e79" stroke="#1f4e79" points="276.54,-183.71 278.55,-176.57 272.53,-180.9 276.54,-183.71"/>
<text xml:space="preserve" text-anchor="middle" x="286.55" y="-203.95" font-family="Helvetica,sans-Serif" font-size="9.00">row_v + ok_v</text>
</g>
<!-- out_addr -->
<g id="node8" class="node">
<title>out_addr</title>
<path fill="#d9ebf7" stroke="#1f4e79" d="M203.13,-64C203.13,-64 56.02,-64 56.02,-64 50.02,-64 40.62,-59.06 37.22,-54.11 37.22,-54.11 6.8,-9.89 6.8,-9.89 3.4,-4.94 6,0 12,0 12,0 159.11,0 159.11,0 165.11,0 174.51,-4.94 177.91,-9.89 177.91,-9.89 208.33,-54.11 208.33,-54.11 211.73,-59.06 209.13,-64 203.13,-64"/>
<text xml:space="preserve" text-anchor="middle" x="107.56" y="-34.5" font-family="Helvetica,sans-Serif" font-size="10.00">addr_vec</text>
<text xml:space="preserve" text-anchor="middle" x="107.56" y="-22.5" font-family="Helvetica,sans-Serif" font-size="10.00">G_P x G_ADDR_W</text>
</g>
<!-- pack&#45;&gt;out_addr -->
<g id="edge8" class="edge">
<title>pack&#45;&gt;out_addr</title>
<path fill="none" stroke="#1f4e79" d="M252.33,-118.65C226.89,-103.6 195.03,-84.75 167.68,-68.57"/>
<polygon fill="#1f4e79" stroke="#1f4e79" points="169.04,-66.52 161.76,-65.07 166.54,-70.74 169.04,-66.52"/>
</g>
<!-- out_row -->
<g id="node9" class="node">
<title>out_row</title>
<path fill="#d9ebf7" stroke="#1f4e79" d="M337.7,-50C337.7,-50 280.35,-50 280.35,-50 274.35,-50 265.34,-44.81 262.32,-39.63 262.32,-39.63 253.46,-24.37 253.46,-24.37 250.44,-19.19 253.43,-14 259.43,-14 259.43,-14 316.77,-14 316.77,-14 322.77,-14 331.79,-19.19 334.8,-24.37 334.8,-24.37 343.67,-39.63 343.67,-39.63 346.69,-44.81 343.7,-50 337.7,-50"/>
<text xml:space="preserve" text-anchor="middle" x="298.56" y="-28.5" font-family="Helvetica,sans-Serif" font-size="10.00">row_base</text>
</g>
<!-- pack&#45;&gt;out_row -->
<g id="edge9" class="edge">
<title>pack&#45;&gt;out_row</title>
<path fill="none" stroke="#1f4e79" d="M298.56,-118.65C298.56,-100.35 298.56,-76.43 298.56,-58.52"/>
<polygon fill="#1f4e79" stroke="#1f4e79" points="301.01,-58.78 298.56,-51.78 296.11,-58.78 301.01,-58.78"/>
</g>
<!-- out_ok -->
<g id="node10" class="node">
<title>out_ok</title>
<path fill="#fce4d6" stroke="#c55a11" d="M453.44,-50C453.44,-50 410.82,-50 410.82,-50 404.82,-50 396.24,-44.58 393.66,-39.17 393.66,-39.17 386.84,-24.83 386.84,-24.83 384.26,-19.42 387.68,-14 393.68,-14 393.68,-14 436.3,-14 436.3,-14 442.3,-14 450.88,-19.42 453.46,-24.83 453.46,-24.83 460.28,-39.17 460.28,-39.17 462.86,-44.58 459.44,-50 453.44,-50"/>
<text xml:space="preserve" text-anchor="middle" x="423.56" y="-28.5" font-family="Helvetica,sans-Serif" font-size="10.00">row_ok</text>
</g>
<!-- pack&#45;&gt;out_ok -->
<g id="edge10" class="edge">
<title>pack&#45;&gt;out_ok</title>
<path fill="none" stroke="#1f4e79" d="M328.82,-118.65C350.08,-99.43 378.18,-74.02 398.25,-55.88"/>
<polygon fill="#1f4e79" stroke="#1f4e79" points="399.79,-57.79 403.34,-51.28 396.51,-54.16 399.79,-57.79"/>
</g>
</g>
</svg>
