<?xml version="1.0" encoding="UTF-8" standalone="no"?>
<!DOCTYPE svg PUBLIC "-//W3C//DTD SVG 1.1//EN"
 "http://www.w3.org/Graphics/SVG/1.1/DTD/svg11.dtd">
<!-- Generated by graphviz version 14.1.2 (0)
 -->
<!-- Title: G Pages: 1 -->
<svg width="1023pt" height="557pt"
 viewBox="0.00 0.00 1023.00 557.00" xmlns="http://www.w3.org/2000/svg" xmlns:xlink="http://www.w3.org/1999/xlink">
<g id="graph0" class="graph" transform="scale(1 1) rotate(0) translate(4 553.25)">
<title>G</title>
<polygon fill="white" stroke="none" points="-4,4 -4,-553.25 1019.16,-553.25 1019.16,4 -4,4"/>
<text xml:space="preserve" text-anchor="middle" x="507.58" y="-526.25" font-family="Helvetica,sans-Serif" font-size="20.00">parallel8_top &#45; Serializer</text>
<!-- active -->
<g id="node1" class="node">
<title>active</title>
<polygon fill="#fce4d6" stroke="#c55a11" points="264.36,-264 125.51,-264 89.79,-228 228.64,-228 264.36,-264"/>
<text xml:space="preserve" text-anchor="middle" x="177.08" y="-242.3" font-family="Helvetica,sans-Serif" font-size="11.00">ser_issue_active</text>
</g>
<!-- pvalid -->
<g id="node10" class="node">
<title>pvalid</title>
<path fill="#eef5fb" stroke="#1f4e79" d="M229.83,-163C229.83,-163 152.33,-163 152.33,-163 146.33,-163 140.33,-157 140.33,-151 140.33,-151 140.33,-139 140.33,-139 140.33,-133 146.33,-127 152.33,-127 152.33,-127 229.83,-127 229.83,-127 235.83,-127 241.83,-133 241.83,-139 241.83,-139 241.83,-151 241.83,-151 241.83,-157 235.83,-163 229.83,-163"/>
<text xml:space="preserve" text-anchor="middle" x="191.08" y="-141.3" font-family="Helvetica,sans-Serif" font-size="11.00">ser_pipe_valid FF</text>
</g>
<!-- active&#45;&gt;pvalid -->
<g id="edge9" class="edge">
<title>active&#45;&gt;pvalid</title>
<path fill="none" stroke="#444444" d="M179.52,-227.76C181.59,-213.08 184.61,-191.71 187.05,-174.5"/>
<polygon fill="#444444" stroke="#444444" points="190.47,-175.27 188.41,-164.88 183.54,-174.29 190.47,-175.27"/>
<text xml:space="preserve" text-anchor="middle" x="211.03" y="-200.5" font-family="Helvetica,sans-Serif" font-size="10.00">issue enable</text>
</g>
<!-- idx -->
<g id="node2" class="node">
<title>idx</title>
<polygon fill="#d9ebf7" stroke="#1f4e79" points="391.34,-518 273.21,-518 242.82,-482 360.95,-482 391.34,-518"/>
<text xml:space="preserve" text-anchor="middle" x="317.08" y="-496.3" font-family="Helvetica,sans-Serif" font-size="11.00">ser_issue_idx</text>
</g>
<!-- lane_div -->
<g id="node5" class="node">
<title>lane_div</title>
<path fill="#eef5fb" stroke="#1f4e79" d="M572.7,-445C572.7,-445 485.45,-445 485.45,-445 479.45,-445 473.45,-439 473.45,-433 473.45,-433 473.45,-421 473.45,-421 473.45,-415 479.45,-409 485.45,-409 485.45,-409 572.7,-409 572.7,-409 578.7,-409 584.7,-415 584.7,-421 584.7,-421 584.7,-433 584.7,-433 584.7,-439 578.7,-445 572.7,-445"/>
<text xml:space="preserve" text-anchor="middle" x="529.08" y="-430.05" font-family="Helvetica,sans-Serif" font-size="11.00">DIV</text>
<text xml:space="preserve" text-anchor="middle" x="529.08" y="-416.55" font-family="Helvetica,sans-Serif" font-size="11.00">lane = idx / seg_bits</text>
</g>
<!-- idx&#45;&gt;lane_div -->
<g id="edge1" class="edge">
<title>idx&#45;&gt;lane_div</title>
<path fill="none" stroke="#444444" d="M362.82,-483.68C393.13,-473.53 433.29,-460.08 466.55,-448.94"/>
<polygon fill="#444444" stroke="#444444" points="467.28,-452.39 475.65,-445.89 465.05,-445.75 467.28,-452.39"/>
</g>
<!-- row_mod -->
<g id="node6" class="node">
<title>row_mod</title>
<path fill="#eef5fb" stroke="#1f4e79" d="M443.58,-445C443.58,-445 340.58,-445 340.58,-445 334.58,-445 328.58,-439 328.58,-433 328.58,-433 328.58,-421 328.58,-421 328.58,-415 334.58,-409 340.58,-409 340.58,-409 443.58,-409 443.58,-409 449.58,-409 455.58,-415 455.58,-421 455.58,-421 455.58,-433 455.58,-433 455.58,-439 449.58,-445 443.58,-445"/>
<text xml:space="preserve" text-anchor="middle" x="392.08" y="-430.05" font-family="Helvetica,sans-Serif" font-size="11.00">MOD</text>
<text xml:space="preserve" text-anchor="middle" x="392.08" y="-416.55" font-family="Helvetica,sans-Serif" font-size="11.00">row = idx mod seg_bits</text>
</g>
<!-- idx&#45;&gt;row_mod -->
<g id="edge2" class="edge">
<title>idx&#45;&gt;row_mod</title>
<path fill="none" stroke="#444444" d="M335.23,-481.81C344.38,-473.16 355.64,-462.5 365.71,-452.96"/>
<polygon fill="#444444" stroke="#444444" points="367.87,-455.73 372.73,-446.32 363.06,-450.65 367.87,-455.73"/>
</g>
<!-- lastcmp -->
<g id="node9" class="node">
<title>lastcmp</title>
<polygon fill="#fde9d9" stroke="#c55a11" points="98.08,-445 0,-427 98.08,-409 196.16,-427 98.08,-445"/>
<text xml:space="preserve" text-anchor="middle" x="98.08" y="-423.3" font-family="Helvetica,sans-Serif" font-size="11.00">idx = frame_bits&#45;1 ?</text>
</g>
<!-- idx&#45;&gt;lastcmp -->
<g id="edge7" class="edge">
<title>idx&#45;&gt;lastcmp</title>
<path fill="none" stroke="#444444" d="M263.22,-481.54C226.31,-469.57 177.91,-453.88 143.06,-442.58"/>
<polygon fill="#444444" stroke="#444444" points="144.28,-439.3 133.69,-439.55 142.12,-445.96 144.28,-439.3"/>
</g>
<!-- pidx -->
<g id="node11" class="node">
<title>pidx</title>
<path fill="#eef5fb" stroke="#1f4e79" d="M334.7,-391C334.7,-391 265.45,-391 265.45,-391 259.45,-391 253.45,-385 253.45,-379 253.45,-379 253.45,-367 253.45,-367 253.45,-361 259.45,-355 265.45,-355 265.45,-355 334.7,-355 334.7,-355 340.7,-355 346.7,-361 346.7,-367 346.7,-367 346.7,-379 346.7,-379 346.7,-385 340.7,-391 334.7,-391"/>
<text xml:space="preserve" text-anchor="middle" x="300.08" y="-369.3" font-family="Helvetica,sans-Serif" font-size="11.00">ser_pipe_idx FF</text>
</g>
<!-- idx&#45;&gt;pidx -->
<g id="edge10" class="edge">
<title>idx&#45;&gt;pidx</title>
<path fill="none" stroke="#444444" d="M314.71,-481.62C311.94,-461.19 307.28,-426.99 303.97,-402.62"/>
<polygon fill="#444444" stroke="#444444" points="307.44,-402.17 302.63,-392.73 300.5,-403.11 307.44,-402.17"/>
</g>
<!-- seg -->
<g id="node3" class="node">
<title>seg</title>
<polygon fill="#d9ebf7" stroke="#1f4e79" points="541.03,-518 459.97,-518 439.12,-482 520.18,-482 541.03,-518"/>
<text xml:space="preserve" text-anchor="middle" x="490.08" y="-496.3" font-family="Helvetica,sans-Serif" font-size="11.00">seg_bits</text>
</g>
<!-- seg&#45;&gt;lane_div -->
<g id="edge3" class="edge">
<title>seg&#45;&gt;lane_div</title>
<path fill="none" stroke="#444444" d="M499.52,-481.81C503.93,-473.79 509.28,-464.05 514.21,-455.07"/>
<polygon fill="#444444" stroke="#444444" points="517.25,-456.81 518.99,-446.36 511.11,-453.44 517.25,-456.81"/>
</g>
<!-- seg&#45;&gt;row_mod -->
<g id="edge4" class="edge">
<title>seg&#45;&gt;row_mod</title>
<path fill="none" stroke="#444444" d="M466.1,-481.63C453.77,-472.69 438.53,-461.66 425.1,-451.92"/>
<polygon fill="#444444" stroke="#444444" points="427.52,-449.36 417.37,-446.32 423.41,-455.02 427.52,-449.36"/>
</g>
<!-- frame -->
<g id="node4" class="node">
<title>frame</title>
<polygon fill="#d9ebf7" stroke="#1f4e79" points="158.63,-518 62.3,-518 37.53,-482 133.85,-482 158.63,-518"/>
<text xml:space="preserve" text-anchor="middle" x="98.08" y="-496.3" font-family="Helvetica,sans-Serif" font-size="11.00">frame_bits</text>
</g>
<!-- frame&#45;&gt;lastcmp -->
<g id="edge8" class="edge">
<title>frame&#45;&gt;lastcmp</title>
<path fill="none" stroke="#444444" d="M98.08,-481.81C98.08,-474.23 98.08,-465.1 98.08,-456.54"/>
<polygon fill="#444444" stroke="#444444" points="101.58,-456.54 98.08,-446.54 94.58,-456.54 101.58,-456.54"/>
</g>
<!-- plane -->
<g id="node12" class="node">
<title>plane</title>
<path fill="#eef5fb" stroke="#1f4e79" d="M644.08,-337C644.08,-337 568.08,-337 568.08,-337 562.08,-337 556.08,-331 556.08,-325 556.08,-325 556.08,-313 556.08,-313 556.08,-307 562.08,-301 568.08,-301 568.08,-301 644.08,-301 644.08,-301 650.08,-301 656.08,-307 656.08,-313 656.08,-313 656.08,-325 656.08,-325 656.08,-331 650.08,-337 644.08,-337"/>
<text xml:space="preserve" text-anchor="middle" x="606.08" y="-315.3" font-family="Helvetica,sans-Serif" font-size="11.00">ser_pipe_lane FF</text>
</g>
<!-- lane_div&#45;&gt;plane -->
<g id="edge11" class="edge">
<title>lane_div&#45;&gt;plane</title>
<path fill="none" stroke="#444444" d="M541.45,-408.97C553.67,-392.15 572.54,-366.17 586.74,-346.62"/>
<polygon fill="#444444" stroke="#444444" points="589.55,-348.71 592.59,-338.57 583.88,-344.6 589.55,-348.71"/>
</g>
<!-- pair_div -->
<g id="node7" class="node">
<title>pair_div</title>
<path fill="#eef5fb" stroke="#1f4e79" d="M395.95,-337C395.95,-337 340.2,-337 340.2,-337 334.2,-337 328.2,-331 328.2,-325 328.2,-325 328.2,-313 328.2,-313 328.2,-307 334.2,-301 340.2,-301 340.2,-301 395.95,-301 395.95,-301 401.95,-301 407.95,-307 407.95,-313 407.95,-313 407.95,-325 407.95,-325 407.95,-331 401.95,-337 395.95,-337"/>
<text xml:space="preserve" text-anchor="middle" x="368.08" y="-322.05" font-family="Helvetica,sans-Serif" font-size="11.00">DIV2</text>
<text xml:space="preserve" text-anchor="middle" x="368.08" y="-308.55" font-family="Helvetica,sans-Serif" font-size="11.00">pair = row / 2</text>
</g>
<!-- row_mod&#45;&gt;pair_div -->
<g id="edge5" class="edge">
<title>row_mod&#45;&gt;pair_div</title>
<path fill="none" stroke="#444444" d="M388.22,-408.97C384.53,-392.69 378.91,-367.82 374.53,-348.52"/>
<polygon fill="#444444" stroke="#444444" points="377.96,-347.8 372.34,-338.82 371.13,-349.34 377.96,-347.8"/>
</g>
<!-- odd -->
<g id="node8" class="node">
<title>odd</title>
<polygon fill="#fde9d9" stroke="#c55a11" points="482.08,-337 425.66,-319 482.08,-301 538.5,-319 482.08,-337"/>
<text xml:space="preserve" text-anchor="middle" x="482.08" y="-315.3" font-family="Helvetica,sans-Serif" font-size="11.00">row odd ?</text>
</g>
<!-- row_mod&#45;&gt;odd -->
<g id="edge6" class="edge">
<title>row_mod&#45;&gt;odd</title>
<path fill="none" stroke="#444444" d="M406.54,-408.97C421.89,-390.88 446.24,-362.21 463.12,-342.33"/>
<polygon fill="#444444" stroke="#444444" points="465.73,-344.66 469.53,-334.77 460.39,-340.13 465.73,-344.66"/>
</g>
<!-- podd -->
<g id="node13" class="node">
<title>podd</title>
<path fill="#eef5fb" stroke="#1f4e79" d="M492.7,-264C492.7,-264 405.45,-264 405.45,-264 399.45,-264 393.45,-258 393.45,-252 393.45,-252 393.45,-240 393.45,-240 393.45,-234 399.45,-228 405.45,-228 405.45,-228 492.7,-228 492.7,-228 498.7,-228 504.7,-234 504.7,-240 504.7,-240 504.7,-252 504.7,-252 504.7,-258 498.7,-264 492.7,-264"/>
<text xml:space="preserve" text-anchor="middle" x="449.08" y="-242.3" font-family="Helvetica,sans-Serif" font-size="11.00">ser_pipe_is_odd FF</text>
</g>
<!-- odd&#45;&gt;podd -->
<g id="edge12" class="edge">
<title>odd&#45;&gt;podd</title>
<path fill="none" stroke="#444444" d="M475.08,-302.94C471.26,-294.72 466.4,-284.28 461.93,-274.65"/>
<polygon fill="#444444" stroke="#444444" points="465.14,-273.25 457.75,-265.66 458.79,-276.2 465.14,-273.25"/>
</g>
<!-- out -->
<g id="node17" class="node">
<title>out</title>
<path fill="#ead1dc" stroke="#555555" d="M320.58,-62C320.58,-62 241.58,-62 241.58,-62 235.58,-62 229.58,-56 229.58,-50 229.58,-50 229.58,-12 229.58,-12 229.58,-6 235.58,0 241.58,0 241.58,0 320.58,0 320.58,0 326.58,0 332.58,-6 332.58,-12 332.58,-12 332.58,-50 332.58,-50 332.58,-56 326.58,-62 320.58,-62"/>
<text xml:space="preserve" text-anchor="middle" x="281.08" y="-47.55" font-family="Helvetica,sans-Serif" font-size="11.00">out_valid_q</text>
<text xml:space="preserve" text-anchor="middle" x="281.08" y="-34.05" font-family="Helvetica,sans-Serif" font-size="11.00">out_idx_q</text>
<text xml:space="preserve" text-anchor="middle" x="281.08" y="-20.55" font-family="Helvetica,sans-Serif" font-size="11.00">l_post_q</text>
<text xml:space="preserve" text-anchor="middle" x="281.08" y="-7.05" font-family="Helvetica,sans-Serif" font-size="11.00">done_q on last idx</text>
</g>
<!-- lastcmp&#45;&gt;out -->
<g id="edge19" class="edge">
<title>lastcmp&#45;&gt;out</title>
<path fill="none" stroke="#444444" d="M83.74,-411.24C66.57,-391.94 40.08,-356.29 40.08,-320 40.08,-320 40.08,-320 40.08,-144 40.08,-65.5 146.54,-41.87 217.94,-34.85"/>
<polygon fill="#444444" stroke="#444444" points="217.92,-38.37 227.57,-34 217.3,-31.4 217.92,-38.37"/>
<text xml:space="preserve" text-anchor="middle" x="55.83" y="-242.5" font-family="Helvetica,sans-Serif" font-size="10.00">done_q</text>
</g>
<!-- pvalid&#45;&gt;out -->
<g id="edge16" class="edge">
<title>pvalid&#45;&gt;out</title>
<path fill="none" stroke="#444444" d="M202.47,-126.71C211.34,-113.58 224.19,-95.23 236.58,-80 239.02,-77 241.6,-73.95 244.23,-70.91"/>
<polygon fill="#444444" stroke="#444444" points="246.71,-73.39 250.74,-63.59 241.48,-68.74 246.71,-73.39"/>
<text xml:space="preserve" text-anchor="middle" x="261.33" y="-82.5" font-family="Helvetica,sans-Serif" font-size="10.00">out_valid_q</text>
</g>
<!-- pidx&#45;&gt;out -->
<g id="edge17" class="edge">
<title>pidx&#45;&gt;out</title>
<path fill="none" stroke="#444444" d="M300.08,-354.61C300.08,-336.66 300.08,-307.88 300.08,-283 300.08,-283 300.08,-283 300.08,-144 300.08,-120.37 295.92,-94.33 291.49,-73.3"/>
<polygon fill="#444444" stroke="#444444" points="294.93,-72.67 289.35,-63.67 288.1,-74.19 294.93,-72.67"/>
<text xml:space="preserve" text-anchor="middle" x="321.08" y="-242.5" font-family="Helvetica,sans-Serif" font-size="10.00">out_idx_q</text>
</g>
<!-- outmux -->
<g id="node16" class="node">
<title>outmux</title>
<polygon fill="#e2f0d9" stroke="#548235" points="619.07,-180 553.08,-180 529.58,-110 642.58,-110 619.07,-180"/>
<text xml:space="preserve" text-anchor="middle" x="586.08" y="-148.05" font-family="Helvetica,sans-Serif" font-size="11.00">MUX</text>
<text xml:space="preserve" text-anchor="middle" x="586.08" y="-134.55" font-family="Helvetica,sans-Serif" font-size="11.00">l_post_q</text>
</g>
<!-- podd&#45;&gt;outmux -->
<g id="edge15" class="edge">
<title>podd&#45;&gt;outmux</title>
<path fill="none" stroke="#444444" d="M473.26,-227.53C491.96,-214.01 518.38,-194.92 540.96,-178.6"/>
<polygon fill="#444444" stroke="#444444" points="542.76,-181.62 548.81,-172.93 538.66,-175.95 542.76,-181.62"/>
<text xml:space="preserve" text-anchor="middle" x="519.84" y="-200.5" font-family="Helvetica,sans-Serif" font-size="10.00">sel</text>
</g>
<!-- finale -->
<g id="node14" class="node">
<title>finale</title>
<polygon fill="#d9ebf7" stroke="#1f4e79" points="764.95,-264 572.67,-264 523.2,-228 715.49,-228 764.95,-264"/>
<text xml:space="preserve" text-anchor="middle" x="644.08" y="-242.3" font-family="Helvetica,sans-Serif" font-size="11.00">final_even_rd_row(lane)</text>
</g>
<!-- finale&#45;&gt;outmux -->
<g id="edge13" class="edge">
<title>finale&#45;&gt;outmux</title>
<path fill="none" stroke="#444444" d="M633.97,-227.76C627.81,-217.23 619.63,-203.27 611.78,-189.87"/>
<polygon fill="#444444" stroke="#444444" points="614.99,-188.43 606.91,-181.57 608.95,-191.96 614.99,-188.43"/>
<text xml:space="preserve" text-anchor="middle" x="628.35" y="-200.5" font-family="Helvetica,sans-Serif" font-size="10.00">in0</text>
</g>
<!-- finalo -->
<g id="node15" class="node">
<title>finalo</title>
<polygon fill="#d9ebf7" stroke="#1f4e79" points="1015.16,-264 830.5,-264 783,-228 967.65,-228 1015.16,-264"/>
<text xml:space="preserve" text-anchor="middle" x="899.08" y="-242.3" font-family="Helvetica,sans-Serif" font-size="11.00">final_odd_rd_row(lane)</text>
</g>
<!-- finalo&#45;&gt;outmux -->
<g id="edge14" class="edge">
<title>finalo&#45;&gt;outmux</title>
<path fill="none" stroke="#444444" d="M843.84,-227.53C785.43,-209.05 694.04,-180.15 637.23,-162.18"/>
<polygon fill="#444444" stroke="#444444" points="638.38,-158.87 627.79,-159.19 636.27,-165.55 638.38,-158.87"/>
<text xml:space="preserve" text-anchor="middle" x="786.19" y="-200.5" font-family="Helvetica,sans-Serif" font-size="10.00">in1</text>
</g>
<!-- outmux&#45;&gt;out -->
<g id="edge18" class="edge">
<title>outmux&#45;&gt;out</title>
<path fill="none" stroke="#444444" d="M534.34,-125C481.65,-105.65 399.91,-75.64 343.62,-54.97"/>
<polygon fill="#444444" stroke="#444444" points="345.08,-51.78 334.49,-51.61 342.67,-58.35 345.08,-51.78"/>
<text xml:space="preserve" text-anchor="middle" x="461.1" y="-82.5" font-family="Helvetica,sans-Serif" font-size="10.00">l_post_q</text>
</g>
</g>
</svg>
