<?xml version="1.0" encoding="UTF-8" standalone="no"?>
<!DOCTYPE svg PUBLIC "-//W3C//DTD SVG 1.1//EN"
 "http://www.w3.org/Graphics/SVG/1.1/DTD/svg11.dtd">
<!-- Generated by graphviz version 14.1.2 (0)
 -->
<!-- Title: G Pages: 1 -->
<svg width="1315pt" height="750pt"
 viewBox="0.00 0.00 1315.00 750.00" xmlns="http://www.w3.org/2000/svg" xmlns:xlink="http://www.w3.org/1999/xlink">
<g id="graph0" class="graph" transform="scale(1 1) rotate(0) translate(4 745.99)">
<title>G</title>
<polygon fill="white" stroke="none" points="-4,4 -4,-745.99 1310.81,-745.99 1310.81,4 -4,4"/>
<text xml:space="preserve" text-anchor="middle" x="653.41" y="-718.99" font-family="Helvetica,sans-Serif" font-size="20.00">parallel8_top &#45; Control Loop</text>
<!-- start -->
<g id="node1" class="node">
<title>start</title>
<polygon fill="#fce4d6" stroke="#c55a11" points="684.78,-532.94 544.84,-532.94 508.84,-496.94 648.78,-496.94 684.78,-532.94"/>
<text xml:space="preserve" text-anchor="middle" x="596.81" y="-511.24" font-family="Helvetica,sans-Serif" font-size="11.00">start / n_half_iter</text>
</g>
<!-- tic -->
<g id="node2" class="node">
<title>tic</title>
<path fill="#d0e0e3" stroke="#555555" d="M521.06,-442C521.06,-442 356.56,-442 356.56,-442 350.56,-442 344.56,-436 344.56,-430 344.56,-430 344.56,-405.5 344.56,-405.5 344.56,-399.5 350.56,-393.5 356.56,-393.5 356.56,-393.5 521.06,-393.5 521.06,-393.5 527.06,-393.5 533.06,-399.5 533.06,-405.5 533.06,-405.5 533.06,-430 533.06,-430 533.06,-436 527.06,-442 521.06,-442"/>
<text xml:space="preserve" text-anchor="middle" x="438.81" y="-427.55" font-family="Helvetica,sans-Serif" font-size="11.00">turbo_iteration_ctrl</text>
<text xml:space="preserve" text-anchor="middle" x="438.81" y="-414.05" font-family="Helvetica,sans-Serif" font-size="11.00">IDLE &#45;&gt; RUN1 &#45;&gt; RUN2 &#45;&gt; FINISH</text>
<text xml:space="preserve" text-anchor="middle" x="438.81" y="-400.55" font-family="Helvetica,sans-Serif" font-size="11.00">run1 / run2 / last_half / ctrl_done</text>
</g>
<!-- start&#45;&gt;tic -->
<g id="edge1" class="edge">
<title>start&#45;&gt;tic</title>
<path fill="none" stroke="#444444" d="M567.83,-496.48C545.48,-483.01 514.04,-464.07 487.8,-448.26"/>
<polygon fill="#444444" stroke="#444444" points="489.69,-445.32 479.32,-443.15 486.08,-451.31 489.69,-445.32"/>
</g>
<!-- init -->
<g id="node3" class="node">
<title>init</title>
<path fill="#e8f0fe" stroke="#555555" d="M731.69,-375.5C731.69,-375.5 597.94,-375.5 597.94,-375.5 591.94,-375.5 585.94,-369.5 585.94,-363.5 585.94,-363.5 585.94,-312 585.94,-312 585.94,-306 591.94,-300 597.94,-300 597.94,-300 731.69,-300 731.69,-300 737.69,-300 743.69,-306 743.69,-312 743.69,-312 743.69,-363.5 743.69,-363.5 743.69,-369.5 737.69,-375.5 731.69,-375.5"/>
<text xml:space="preserve" text-anchor="middle" x="664.81" y="-361.05" font-family="Helvetica,sans-Serif" font-size="11.00">Start Capture</text>
<text xml:space="preserve" text-anchor="middle" x="664.81" y="-347.55" font-family="Helvetica,sans-Serif" font-size="11.00">frame_bits &lt;= K</text>
<text xml:space="preserve" text-anchor="middle" x="664.81" y="-334.05" font-family="Helvetica,sans-Serif" font-size="11.00">seg_bits &lt;= K/8</text>
<text xml:space="preserve" text-anchor="middle" x="664.81" y="-320.55" font-family="Helvetica,sans-Serif" font-size="11.00">pair_count &lt;= ceil(seg_bits/2)</text>
<text xml:space="preserve" text-anchor="middle" x="664.81" y="-307.05" font-family="Helvetica,sans-Serif" font-size="11.00">first_run1_pending &lt;= 1</text>
</g>
<!-- start&#45;&gt;init -->
<g id="edge2" class="edge">
<title>start&#45;&gt;init</title>
<path fill="none" stroke="#444444" d="M603.58,-496.5C613.46,-471.05 632.18,-422.82 646.33,-386.36"/>
<polygon fill="#444444" stroke="#444444" points="649.47,-387.94 649.83,-377.35 642.95,-385.41 649.47,-387.94"/>
<text xml:space="preserve" text-anchor="middle" x="628.26" y="-462.5" font-family="Helvetica,sans-Serif" font-size="10.00">k_len</text>
</g>
<!-- edge1 -->
<g id="node4" class="node">
<title>edge1</title>
<polygon fill="#fde9d9" stroke="#c55a11" points="132.81,-269 24.82,-251 132.81,-233 240.81,-251 132.81,-269"/>
<text xml:space="preserve" text-anchor="middle" x="132.81" y="-247.3" font-family="Helvetica,sans-Serif" font-size="11.00">run1 and not run1_d ?</text>
</g>
<!-- tic&#45;&gt;edge1 -->
<g id="edge3" class="edge">
<title>tic&#45;&gt;edge1</title>
<path fill="none" stroke="#444444" d="M394.97,-393.15C333.65,-360.13 223.5,-300.83 167.52,-270.69"/>
<polygon fill="#444444" stroke="#444444" points="169.2,-267.61 158.73,-265.95 165.88,-273.78 169.2,-267.61"/>
<text xml:space="preserve" text-anchor="middle" x="366.12" y="-334.25" font-family="Helvetica,sans-Serif" font-size="10.00">run1</text>
</g>
<!-- edge2 -->
<g id="node5" class="node">
<title>edge2</title>
<polygon fill="#fde9d9" stroke="#c55a11" points="366.81,-269 258.82,-251 366.81,-233 474.81,-251 366.81,-269"/>
<text xml:space="preserve" text-anchor="middle" x="366.81" y="-247.3" font-family="Helvetica,sans-Serif" font-size="11.00">run2 and not run2_d ?</text>
</g>
<!-- tic&#45;&gt;edge2 -->
<g id="edge4" class="edge">
<title>tic&#45;&gt;edge2</title>
<path fill="none" stroke="#444444" d="M428.5,-393.15C415.21,-362.74 392.18,-310.05 378.33,-278.36"/>
<polygon fill="#444444" stroke="#444444" points="381.67,-277.25 374.46,-269.49 375.25,-280.06 381.67,-277.25"/>
<text xml:space="preserve" text-anchor="middle" x="428.88" y="-334.25" font-family="Helvetica,sans-Serif" font-size="10.00">run2</text>
</g>
<!-- ser -->
<g id="node15" class="node">
<title>ser</title>
<path fill="#ead1dc" stroke="#555555" d="M867.06,-282C867.06,-282 762.56,-282 762.56,-282 756.56,-282 750.56,-276 750.56,-270 750.56,-270 750.56,-232 750.56,-232 750.56,-226 756.56,-220 762.56,-220 762.56,-220 867.06,-220 867.06,-220 873.06,-220 879.06,-226 879.06,-232 879.06,-232 879.06,-270 879.06,-270 879.06,-276 873.06,-282 867.06,-282"/>
<text xml:space="preserve" text-anchor="middle" x="814.81" y="-267.55" font-family="Helvetica,sans-Serif" font-size="11.00">Serializer Start</text>
<text xml:space="preserve" text-anchor="middle" x="814.81" y="-254.05" font-family="Helvetica,sans-Serif" font-size="11.00">if last_half and all_done</text>
<text xml:space="preserve" text-anchor="middle" x="814.81" y="-240.55" font-family="Helvetica,sans-Serif" font-size="11.00">ser_issue_active &lt;= 1</text>
<text xml:space="preserve" text-anchor="middle" x="814.81" y="-227.05" font-family="Helvetica,sans-Serif" font-size="11.00">ser_issue_idx &lt;= 0</text>
</g>
<!-- tic&#45;&gt;ser -->
<g id="edge16" class="edge">
<title>tic&#45;&gt;ser</title>
<path fill="none" stroke="#444444" d="M501.76,-393.19C509.31,-388.27 516.29,-382.42 521.81,-375.5 543.34,-348.51 513.94,-322.57 540.06,-300 573.29,-271.3 694.06,-291.98 736.81,-282 737.63,-281.81 738.46,-281.61 739.28,-281.41"/>
<polygon fill="#444444" stroke="#444444" points="739.95,-284.85 748.66,-278.82 738.09,-278.1 739.95,-284.85"/>
<text xml:space="preserve" text-anchor="middle" x="558.44" y="-334.25" font-family="Helvetica,sans-Serif" font-size="10.00">last_half</text>
</g>
<!-- done -->
<g id="node16" class="node">
<title>done</title>
<polygon fill="#ead1dc" stroke="#555555" points="756.58,-152.25 570.83,-152.25 523.05,-116.25 708.79,-116.25 756.58,-152.25"/>
<text xml:space="preserve" text-anchor="middle" x="639.81" y="-130.55" font-family="Helvetica,sans-Serif" font-size="11.00">done_q / out_valid path</text>
</g>
<!-- tic&#45;&gt;done -->
<g id="edge18" class="edge">
<title>tic&#45;&gt;done</title>
<path fill="none" stroke="#444444" d="M446.53,-393.2C462.77,-344.09 499.87,-234.12 511.06,-220 532.14,-193.41 563.93,-172.37 590.64,-157.9"/>
<polygon fill="#444444" stroke="#444444" points="592.02,-161.13 599.26,-153.38 588.77,-154.93 592.02,-161.13"/>
<text xml:space="preserve" text-anchor="middle" x="530.94" y="-247.5" font-family="Helvetica,sans-Serif" font-size="10.00">ctrl_done</text>
</g>
<!-- issue -->
<g id="node6" class="node">
<title>issue</title>
<path fill="#d9ead3" stroke="#555555" d="M418.31,-172C418.31,-172 315.31,-172 315.31,-172 309.31,-172 303.31,-166 303.31,-160 303.31,-160 303.31,-108.5 303.31,-108.5 303.31,-102.5 309.31,-96.5 315.31,-96.5 315.31,-96.5 418.31,-96.5 418.31,-96.5 424.31,-96.5 430.31,-102.5 430.31,-108.5 430.31,-108.5 430.31,-160 430.31,-160 430.31,-166 424.31,-172 418.31,-172"/>
<text xml:space="preserve" text-anchor="middle" x="366.81" y="-157.55" font-family="Helvetica,sans-Serif" font-size="11.00">Issue / Feed Scheduler</text>
<text xml:space="preserve" text-anchor="middle" x="366.81" y="-144.05" font-family="Helvetica,sans-Serif" font-size="11.00">issue_active</text>
<text xml:space="preserve" text-anchor="middle" x="366.81" y="-130.55" font-family="Helvetica,sans-Serif" font-size="11.00">issue_pair_idx</text>
<text xml:space="preserve" text-anchor="middle" x="366.81" y="-117.05" font-family="Helvetica,sans-Serif" font-size="11.00">feed_pipe_valid</text>
<text xml:space="preserve" text-anchor="middle" x="366.81" y="-103.55" font-family="Helvetica,sans-Serif" font-size="11.00">core_start[0..7]</text>
</g>
<!-- init&#45;&gt;issue -->
<g id="edge5" class="edge">
<title>init&#45;&gt;issue</title>
<path fill="none" stroke="#444444" d="M614.56,-299.59C608.14,-293.99 601.88,-288.05 596.31,-282 573.88,-257.58 580.13,-241.42 554.81,-220 521.85,-192.11 478.23,-171.69 441.3,-157.89"/>
<polygon fill="#444444" stroke="#444444" points="442.59,-154.64 432,-154.51 440.2,-161.22 442.59,-154.64"/>
<text xml:space="preserve" text-anchor="middle" x="669.06" y="-247.5" font-family="Helvetica,sans-Serif" font-size="10.00">frame_bits / seg_bits / pair_count</text>
</g>
<!-- edge1&#45;&gt;issue -->
<g id="edge6" class="edge">
<title>edge1&#45;&gt;issue</title>
<path fill="none" stroke="#444444" d="M159.2,-237.06C191.43,-221.26 247.28,-193.87 292.94,-171.47"/>
<polygon fill="#444444" stroke="#444444" points="294.32,-174.7 301.76,-167.15 291.24,-168.41 294.32,-174.7"/>
<text xml:space="preserve" text-anchor="middle" x="284.31" y="-192.5" font-family="Helvetica,sans-Serif" font-size="10.00">run1 rising edge</text>
</g>
<!-- edge2&#45;&gt;issue -->
<g id="edge7" class="edge">
<title>edge2&#45;&gt;issue</title>
<path fill="none" stroke="#444444" d="M366.81,-232.57C366.81,-219.51 366.81,-200.96 366.81,-183.55"/>
<polygon fill="#444444" stroke="#444444" points="370.31,-183.86 366.81,-173.86 363.31,-183.86 370.31,-183.86"/>
<text xml:space="preserve" text-anchor="middle" x="401.31" y="-192.5" font-family="Helvetica,sans-Serif" font-size="10.00">run2 rising edge</text>
</g>
<!-- phase -->
<g id="node14" class="node">
<title>phase</title>
<path fill="#fce5cd" stroke="#555555" d="M454.69,-48.5C454.69,-48.5 278.94,-48.5 278.94,-48.5 272.94,-48.5 266.94,-42.5 266.94,-36.5 266.94,-36.5 266.94,-12 266.94,-12 266.94,-6 272.94,0 278.94,0 278.94,0 454.69,0 454.69,0 460.69,0 466.69,-6 466.69,-12 466.69,-12 466.69,-36.5 466.69,-36.5 466.69,-42.5 460.69,-48.5 454.69,-48.5"/>
<text xml:space="preserve" text-anchor="middle" x="366.81" y="-34.05" font-family="Helvetica,sans-Serif" font-size="11.00">Phase Completion</text>
<text xml:space="preserve" text-anchor="middle" x="366.81" y="-20.55" font-family="Helvetica,sans-Serif" font-size="11.00">phase1_done when run1 and all_done</text>
<text xml:space="preserve" text-anchor="middle" x="366.81" y="-7.05" font-family="Helvetica,sans-Serif" font-size="11.00">phase2_done when run2 and all_done</text>
</g>
<!-- issue&#45;&gt;phase -->
<g id="edge13" class="edge">
<title>issue&#45;&gt;phase</title>
<path fill="none" stroke="#444444" d="M366.81,-96.08C366.81,-84.49 366.81,-71.75 366.81,-60.3"/>
<polygon fill="#444444" stroke="#444444" points="370.31,-60.46 366.81,-50.46 363.31,-60.46 370.31,-60.46"/>
<text xml:space="preserve" text-anchor="middle" x="393.44" y="-69" font-family="Helvetica,sans-Serif" font-size="10.00">cores active</text>
</g>
<!-- d0 -->
<g id="node7" class="node">
<title>d0</title>
<polygon fill="#d9ebf7" stroke="#1f4e79" points="1234.39,-710.74 1117.35,-710.74 1087.24,-674.74 1204.28,-674.74 1234.39,-710.74"/>
<text xml:space="preserve" text-anchor="middle" x="1160.81" y="-689.04" font-family="Helvetica,sans-Serif" font-size="11.00">core_done(0)</text>
</g>
<!-- and0 -->
<g id="node11" class="node">
<title>and0</title>
<ellipse fill="#e2f0d9" stroke="#548235" cx="995.81" cy="-612.81" rx="24.94" ry="24.94"/>
<text xml:space="preserve" text-anchor="middle" x="995.81" y="-609.11" font-family="Helvetica,sans-Serif" font-size="11.00">AND</text>
</g>
<!-- d0&#45;&gt;and0 -->
<g id="edge8" class="edge">
<title>d0&#45;&gt;and0</title>
<path fill="none" stroke="#444444" d="M1123.78,-674.25C1095.1,-660.7 1055.74,-642.11 1028.28,-629.14"/>
<polygon fill="#444444" stroke="#444444" points="1029.93,-626.05 1019.39,-624.94 1026.94,-632.38 1029.93,-626.05"/>
</g>
<!-- d1 -->
<g id="node8" class="node">
<title>d1</title>
<polygon fill="#d9ebf7" stroke="#1f4e79" points="1069.39,-710.74 952.35,-710.74 922.24,-674.74 1039.28,-674.74 1069.39,-710.74"/>
<text xml:space="preserve" text-anchor="middle" x="995.81" y="-689.04" font-family="Helvetica,sans-Serif" font-size="11.00">core_done(1)</text>
</g>
<!-- d1&#45;&gt;and0 -->
<g id="edge9" class="edge">
<title>d1&#45;&gt;and0</title>
<path fill="none" stroke="#444444" d="M995.81,-674.44C995.81,-667.11 995.81,-658.27 995.81,-649.63"/>
<polygon fill="#444444" stroke="#444444" points="999.31,-649.66 995.81,-639.66 992.31,-649.66 999.31,-649.66"/>
</g>
<!-- ddots -->
<g id="node9" class="node">
<title>ddots</title>
<text xml:space="preserve" text-anchor="middle" x="1279.81" y="-689.04" font-family="Helvetica,sans-Serif" font-size="11.00">...</text>
</g>
<!-- d7 -->
<g id="node10" class="node">
<title>d7</title>
<polygon fill="#d9ebf7" stroke="#1f4e79" points="904.39,-710.74 787.35,-710.74 757.24,-674.74 874.28,-674.74 904.39,-710.74"/>
<text xml:space="preserve" text-anchor="middle" x="830.81" y="-689.04" font-family="Helvetica,sans-Serif" font-size="11.00">core_done(7)</text>
</g>
<!-- and1 -->
<g id="node12" class="node">
<title>and1</title>
<ellipse fill="#e2f0d9" stroke="#548235" cx="880.81" cy="-514.94" rx="24.94" ry="24.94"/>
<text xml:space="preserve" text-anchor="middle" x="880.81" y="-511.24" font-family="Helvetica,sans-Serif" font-size="11.00">AND</text>
</g>
<!-- d7&#45;&gt;and1 -->
<g id="edge11" class="edge">
<title>d7&#45;&gt;and1</title>
<path fill="none" stroke="#444444" d="M835.79,-674.24C843.98,-645.43 860.46,-587.51 871.04,-550.29"/>
<polygon fill="#444444" stroke="#444444" points="874.34,-551.49 873.71,-540.91 867.61,-549.57 874.34,-551.49"/>
<text xml:space="preserve" text-anchor="middle" x="892.21" y="-609.31" font-family="Helvetica,sans-Serif" font-size="10.00">with cores 2..7</text>
</g>
<!-- and0&#45;&gt;and1 -->
<g id="edge10" class="edge">
<title>and0&#45;&gt;and1</title>
<path fill="none" stroke="#444444" d="M976.82,-595.97C958.26,-580.5 929.79,-556.77 908.67,-539.16"/>
<polygon fill="#444444" stroke="#444444" points="910.92,-536.47 900.99,-532.76 906.43,-541.85 910.92,-536.47"/>
<text xml:space="preserve" text-anchor="middle" x="958.32" y="-560.37" font-family="Helvetica,sans-Serif" font-size="10.00">partial</text>
</g>
<!-- alld -->
<g id="node13" class="node">
<title>alld</title>
<polygon fill="#fce4d6" stroke="#c55a11" points="932.45,-435.75 850.3,-435.75 829.17,-399.75 911.32,-399.75 932.45,-435.75"/>
<text xml:space="preserve" text-anchor="middle" x="880.81" y="-414.05" font-family="Helvetica,sans-Serif" font-size="11.00">all_done</text>
</g>
<!-- and1&#45;&gt;alld -->
<g id="edge12" class="edge">
<title>and1&#45;&gt;alld</title>
<path fill="none" stroke="#444444" d="M880.81,-489.92C880.81,-476.97 880.81,-460.9 880.81,-447.32"/>
<polygon fill="#444444" stroke="#444444" points="884.31,-447.67 880.81,-437.67 877.31,-447.67 884.31,-447.67"/>
</g>
<!-- alld&#45;&gt;phase -->
<g id="edge14" class="edge">
<title>alld&#45;&gt;phase</title>
<path fill="none" stroke="#444444" d="M887.07,-399.33C889.36,-392.06 891.68,-383.47 892.81,-375.5 902.57,-307.04 916.06,-283.11 887.81,-220 856.29,-149.58 834.1,-132.41 765.81,-96.5 676.35,-49.46 561.66,-32.77 478.22,-27.19"/>
<polygon fill="#444444" stroke="#444444" points="478.62,-23.71 468.43,-26.58 478.19,-30.7 478.62,-23.71"/>
<text xml:space="preserve" text-anchor="middle" x="897.28" y="-192.5" font-family="Helvetica,sans-Serif" font-size="10.00">all_done</text>
</g>
<!-- alld&#45;&gt;ser -->
<g id="edge17" class="edge">
<title>alld&#45;&gt;ser</title>
<path fill="none" stroke="#444444" d="M869.74,-399.5C865.37,-392.26 860.52,-383.64 856.81,-375.5 844.64,-348.78 834.03,-317.45 826.51,-293.03"/>
<polygon fill="#444444" stroke="#444444" points="829.96,-292.35 823.72,-283.79 823.26,-294.37 829.96,-292.35"/>
<text xml:space="preserve" text-anchor="middle" x="874.81" y="-334.25" font-family="Helvetica,sans-Serif" font-size="10.00">all_done</text>
</g>
<!-- phase&#45;&gt;tic -->
<g id="edge15" class="edge">
<title>phase&#45;&gt;tic</title>
<path fill="none" stroke="#444444" d="M274.58,-48.97C147.53,-86.45 -57.78,-167.08 15.81,-282 69.38,-365.65 124.17,-345.34 218.81,-375.5 255.3,-387.13 296.3,-395.92 332.93,-402.33"/>
<polygon fill="#444444" stroke="#444444" points="332.21,-405.76 342.66,-403.99 333.39,-398.86 332.21,-405.76"/>
<text xml:space="preserve" text-anchor="middle" x="74.54" y="-192.5" font-family="Helvetica,sans-Serif" font-size="10.00">phase1_done / phase2_done</text>
</g>
<!-- ser&#45;&gt;done -->
<g id="edge19" class="edge">
<title>ser&#45;&gt;done</title>
<path fill="none" stroke="#444444" d="M768.38,-219.55C739.34,-200.51 702.49,-176.35 675.7,-158.78"/>
<polygon fill="#444444" stroke="#444444" points="677.86,-156.01 667.58,-153.46 674.02,-161.87 677.86,-156.01"/>
<text xml:space="preserve" text-anchor="middle" x="774.92" y="-192.5" font-family="Helvetica,sans-Serif" font-size="10.00">serializer outputs</text>
</g>
</g>
</svg>
