<?xml version="1.0" encoding="UTF-8" standalone="no"?>
<!DOCTYPE svg PUBLIC "-//W3C//DTD SVG 1.1//EN"
 "http://www.w3.org/Graphics/SVG/1.1/DTD/svg11.dtd">
<!-- Generated by graphviz version 14.1.2 (0)
 -->
<!-- Title: G Pages: 1 -->
<svg width="2604pt" height="379pt"
 viewBox="0.00 0.00 2604.00 379.00" xmlns="http://www.w3.org/2000/svg" xmlns:xlink="http://www.w3.org/1999/xlink">
<g id="graph0" class="graph" transform="scale(1 1) rotate(0) translate(4 374.75)">
<title>G</title>
<polygon fill="white" stroke="none" points="-4,4 -4,-374.75 2599.93,-374.75 2599.93,4 -4,4"/>
<text xml:space="preserve" text-anchor="middle" x="1297.97" y="-347.75" font-family="Helvetica,sans-Serif" font-size="20.00">parallel8_top &#45; Writeback Shell</text>
<!-- valid0 -->
<g id="node1" class="node">
<title>valid0</title>
<polygon fill="#fce4d6" stroke="#c55a11" points="181.43,-266.5 37.12,-266.5 0,-230.5 144.31,-230.5 181.43,-266.5"/>
<text xml:space="preserve" text-anchor="middle" x="90.71" y="-244.8" font-family="Helvetica,sans-Serif" font-size="11.00">core_out_valid(0)</text>
</g>
<!-- run1mux -->
<g id="node18" class="node">
<title>run1mux</title>
<polygon fill="#e2f0d9" stroke="#548235" points="620.17,-182.5 511.25,-182.5 472.46,-112.5 658.96,-112.5 620.17,-182.5"/>
<text xml:space="preserve" text-anchor="middle" x="565.71" y="-150.55" font-family="Helvetica,sans-Serif" font-size="11.00">MUX</text>
<text xml:space="preserve" text-anchor="middle" x="565.71" y="-137.05" font-family="Helvetica,sans-Serif" font-size="11.00">run1 direct write</text>
</g>
<!-- valid0&#45;&gt;run1mux -->
<g id="edge9" class="edge">
<title>valid0&#45;&gt;run1mux</title>
<path fill="none" stroke="#444444" d="M149.43,-235.26C234.83,-217.46 393.4,-184.41 488.26,-164.64"/>
<polygon fill="#444444" stroke="#444444" points="488.95,-168.07 498.02,-162.61 487.52,-161.22 488.95,-168.07"/>
<text xml:space="preserve" text-anchor="middle" x="333.47" y="-203" font-family="Helvetica,sans-Serif" font-size="10.00">out_valid</text>
</g>
<!-- run2mux -->
<g id="node19" class="node">
<title>run2mux</title>
<polygon fill="#e2f0d9" stroke="#548235" points="1302.62,-182.5 1178.81,-182.5 1134.71,-112.5 1346.71,-112.5 1302.62,-182.5"/>
<text xml:space="preserve" text-anchor="middle" x="1240.71" y="-150.55" font-family="Helvetica,sans-Serif" font-size="11.00">MUX</text>
<text xml:space="preserve" text-anchor="middle" x="1240.71" y="-137.05" font-family="Helvetica,sans-Serif" font-size="11.00">run2 mapped write</text>
</g>
<!-- valid0&#45;&gt;run2mux -->
<g id="edge15" class="edge">
<title>valid0&#45;&gt;run2mux</title>
<path fill="none" stroke="#444444" d="M150.56,-236.06C163.74,-233.89 177.67,-231.88 190.71,-230.5 380.49,-210.47 429.38,-226.29 619.71,-212.5 809.52,-198.75 1031.1,-173.75 1151.57,-159.41"/>
<polygon fill="#444444" stroke="#444444" points="1151.89,-162.89 1161.41,-158.23 1151.06,-155.94 1151.89,-162.89"/>
<text xml:space="preserve" text-anchor="middle" x="775.55" y="-203" font-family="Helvetica,sans-Serif" font-size="10.00">out_valid</text>
</g>
<!-- pairout -->
<g id="node2" class="node">
<title>pairout</title>
<polygon fill="#d9ebf7" stroke="#1f4e79" points="409.82,-266.5 242.62,-266.5 199.6,-230.5 366.81,-230.5 409.82,-266.5"/>
<text xml:space="preserve" text-anchor="middle" x="304.71" y="-244.8" font-family="Helvetica,sans-Serif" font-size="11.00">core_out_pair_idx(0)</text>
</g>
<!-- pairout&#45;&gt;run1mux -->
<g id="edge11" class="edge">
<title>pairout&#45;&gt;run1mux</title>
<path fill="none" stroke="#444444" d="M350.78,-230.03C390.47,-214.97 448.44,-192.99 494.17,-175.64"/>
<polygon fill="#444444" stroke="#444444" points="495.39,-178.92 503.5,-172.1 492.91,-172.37 495.39,-178.92"/>
<text xml:space="preserve" text-anchor="middle" x="456.64" y="-203" font-family="Helvetica,sans-Serif" font-size="10.00">pair_row addr</text>
</g>
<!-- run1 -->
<g id="node3" class="node">
<title>run1</title>
<polygon fill="#fce4d6" stroke="#c55a11" points="497.22,-266.5 442.33,-266.5 428.21,-230.5 483.1,-230.5 497.22,-266.5"/>
<text xml:space="preserve" text-anchor="middle" x="462.71" y="-244.8" font-family="Helvetica,sans-Serif" font-size="11.00">run1</text>
</g>
<!-- run1&#45;&gt;run1mux -->
<g id="edge10" class="edge">
<title>run1&#45;&gt;run1mux</title>
<path fill="none" stroke="#444444" d="M480.66,-230.26C492.13,-219.22 507.55,-204.41 522.1,-190.42"/>
<polygon fill="#444444" stroke="#444444" points="524.19,-193.26 528.98,-183.81 519.34,-188.22 524.19,-193.26"/>
<text xml:space="preserve" text-anchor="middle" x="523.13" y="-203" font-family="Helvetica,sans-Serif" font-size="10.00">mode</text>
</g>
<!-- run2 -->
<g id="node4" class="node">
<title>run2</title>
<polygon fill="#fce4d6" stroke="#c55a11" points="921.22,-266.5 866.33,-266.5 852.21,-230.5 907.1,-230.5 921.22,-266.5"/>
<text xml:space="preserve" text-anchor="middle" x="886.71" y="-244.8" font-family="Helvetica,sans-Serif" font-size="11.00">run2</text>
</g>
<!-- run2&#45;&gt;run2mux -->
<g id="edge16" class="edge">
<title>run2&#45;&gt;run2mux</title>
<path fill="none" stroke="#444444" d="M910.29,-237.84C916.85,-235.3 924.02,-232.67 930.71,-230.5 1006.27,-205.99 1093.9,-183.33 1156.68,-168.07"/>
<polygon fill="#444444" stroke="#444444" points="1157.34,-171.51 1166.24,-165.76 1155.7,-164.71 1157.34,-171.51"/>
<text xml:space="preserve" text-anchor="middle" x="1035.56" y="-203" font-family="Helvetica,sans-Serif" font-size="10.00">mode</text>
</g>
<!-- last -->
<g id="node5" class="node">
<title>last</title>
<polygon fill="#fce4d6" stroke="#c55a11" points="616.67,-266.5 535.61,-266.5 514.76,-230.5 595.82,-230.5 616.67,-266.5"/>
<text xml:space="preserve" text-anchor="middle" x="565.71" y="-244.8" font-family="Helvetica,sans-Serif" font-size="11.00">last_half</text>
</g>
<!-- last&#45;&gt;run1mux -->
<g id="edge14" class="edge">
<title>last&#45;&gt;run1mux</title>
<path fill="none" stroke="#444444" d="M565.71,-230.26C565.71,-220.14 565.71,-206.85 565.71,-193.93"/>
<polygon fill="#444444" stroke="#444444" points="569.21,-194.27 565.71,-184.27 562.21,-194.27 569.21,-194.27"/>
<text xml:space="preserve" text-anchor="middle" x="590.46" y="-203" font-family="Helvetica,sans-Serif" font-size="10.00">final enable</text>
</g>
<!-- last&#45;&gt;run2mux -->
<g id="edge25" class="edge">
<title>last&#45;&gt;run2mux</title>
<path fill="none" stroke="#444444" d="M600.22,-237.33C610.01,-234.76 620.72,-232.24 630.71,-230.5 719.07,-215.1 742.69,-223.44 831.71,-212.5 943.56,-198.76 1071.83,-177.84 1154.44,-163.69"/>
<polygon fill="#444444" stroke="#444444" points="1154.79,-167.19 1164.05,-162.04 1153.6,-160.29 1154.79,-167.19"/>
<text xml:space="preserve" text-anchor="middle" x="946.37" y="-203" font-family="Helvetica,sans-Serif" font-size="10.00">final enable</text>
</g>
<!-- pack_ext -->
<g id="node6" class="node">
<title>pack_ext</title>
<path fill="#eef5fb" stroke="#1f4e79" d="M1077.09,-339.5C1077.09,-339.5 940.34,-339.5 940.34,-339.5 934.34,-339.5 928.34,-333.5 928.34,-327.5 928.34,-327.5 928.34,-315.5 928.34,-315.5 928.34,-309.5 934.34,-303.5 940.34,-303.5 940.34,-303.5 1077.09,-303.5 1077.09,-303.5 1083.09,-303.5 1089.09,-309.5 1089.09,-315.5 1089.09,-315.5 1089.09,-327.5 1089.09,-327.5 1089.09,-333.5 1083.09,-339.5 1077.09,-339.5"/>
<text xml:space="preserve" text-anchor="middle" x="1008.71" y="-324.55" font-family="Helvetica,sans-Serif" font-size="11.00">pack_ext_row</text>
<text xml:space="preserve" text-anchor="middle" x="1008.71" y="-311.05" font-family="Helvetica,sans-Serif" font-size="11.00">core_ext_even / core_ext_odd</text>
</g>
<!-- uns_ext_e -->
<g id="node8" class="node">
<title>uns_ext_e</title>
<path fill="#fff2cc" stroke="#555555" d="M1066.21,-266.5C1066.21,-266.5 951.21,-266.5 951.21,-266.5 945.21,-266.5 939.21,-260.5 939.21,-254.5 939.21,-254.5 939.21,-242.5 939.21,-242.5 939.21,-236.5 945.21,-230.5 951.21,-230.5 951.21,-230.5 1066.21,-230.5 1066.21,-230.5 1072.21,-230.5 1078.21,-236.5 1078.21,-242.5 1078.21,-242.5 1078.21,-254.5 1078.21,-254.5 1078.21,-260.5 1072.21,-266.5 1066.21,-266.5"/>
<text xml:space="preserve" text-anchor="middle" x="1008.71" y="-251.55" font-family="Helvetica,sans-Serif" font-size="11.00">batcher_slave reverse</text>
<text xml:space="preserve" text-anchor="middle" x="1008.71" y="-238.05" font-family="Helvetica,sans-Serif" font-size="11.00">wb_ext_even_sorted_bus</text>
</g>
<!-- pack_ext&#45;&gt;uns_ext_e -->
<g id="edge1" class="edge">
<title>pack_ext&#45;&gt;uns_ext_e</title>
<path fill="none" stroke="#444444" d="M1008.71,-303.31C1008.71,-295.73 1008.71,-286.6 1008.71,-278.04"/>
<polygon fill="#444444" stroke="#444444" points="1012.21,-278.04 1008.71,-268.04 1005.21,-278.04 1012.21,-278.04"/>
</g>
<!-- uns_ext_o -->
<g id="node9" class="node">
<title>uns_ext_o</title>
<path fill="#fff2cc" stroke="#555555" d="M1217.59,-266.5C1217.59,-266.5 1107.84,-266.5 1107.84,-266.5 1101.84,-266.5 1095.84,-260.5 1095.84,-254.5 1095.84,-254.5 1095.84,-242.5 1095.84,-242.5 1095.84,-236.5 1101.84,-230.5 1107.84,-230.5 1107.84,-230.5 1217.59,-230.5 1217.59,-230.5 1223.59,-230.5 1229.59,-236.5 1229.59,-242.5 1229.59,-242.5 1229.59,-254.5 1229.59,-254.5 1229.59,-260.5 1223.59,-266.5 1217.59,-266.5"/>
<text xml:space="preserve" text-anchor="middle" x="1162.71" y="-251.55" font-family="Helvetica,sans-Serif" font-size="11.00">batcher_slave reverse</text>
<text xml:space="preserve" text-anchor="middle" x="1162.71" y="-238.05" font-family="Helvetica,sans-Serif" font-size="11.00">wb_ext_odd_sorted_bus</text>
</g>
<!-- pack_ext&#45;&gt;uns_ext_o -->
<g id="edge2" class="edge">
<title>pack_ext&#45;&gt;uns_ext_o</title>
<path fill="none" stroke="#444444" d="M1046.39,-303.13C1066.9,-293.68 1092.49,-281.88 1114.45,-271.75"/>
<polygon fill="#444444" stroke="#444444" points="1115.91,-274.93 1123.52,-267.57 1112.98,-268.58 1115.91,-274.93"/>
</g>
<!-- pack_ext&#45;&gt;run1mux -->
<g id="edge12" class="edge">
<title>pack_ext&#45;&gt;run1mux</title>
<path fill="none" stroke="#444444" d="M928.19,-315.62C840.89,-308.97 708.45,-294.55 666.96,-266.5 637.08,-246.29 643.31,-227.79 619.71,-200.5 617,-197.36 614.13,-194.2 611.17,-191.07"/>
<polygon fill="#444444" stroke="#444444" points="613.76,-188.7 604.28,-183.97 608.74,-193.58 613.76,-188.7"/>
<text xml:space="preserve" text-anchor="middle" x="701.84" y="-245" font-family="Helvetica,sans-Serif" font-size="10.00">direct ext buses</text>
</g>
<!-- pack_post -->
<g id="node7" class="node">
<title>pack_post</title>
<path fill="#eef5fb" stroke="#1f4e79" d="M1394.09,-339.5C1394.09,-339.5 1245.34,-339.5 1245.34,-339.5 1239.34,-339.5 1233.34,-333.5 1233.34,-327.5 1233.34,-327.5 1233.34,-315.5 1233.34,-315.5 1233.34,-309.5 1239.34,-303.5 1245.34,-303.5 1245.34,-303.5 1394.09,-303.5 1394.09,-303.5 1400.09,-303.5 1406.09,-309.5 1406.09,-315.5 1406.09,-315.5 1406.09,-327.5 1406.09,-327.5 1406.09,-333.5 1400.09,-339.5 1394.09,-339.5"/>
<text xml:space="preserve" text-anchor="middle" x="1319.71" y="-324.55" font-family="Helvetica,sans-Serif" font-size="11.00">pack_post_row</text>
<text xml:space="preserve" text-anchor="middle" x="1319.71" y="-311.05" font-family="Helvetica,sans-Serif" font-size="11.00">core_post_even / core_post_odd</text>
</g>
<!-- uns_post_e -->
<g id="node10" class="node">
<title>uns_post_e</title>
<path fill="#fff2cc" stroke="#555555" d="M1380.21,-266.5C1380.21,-266.5 1259.21,-266.5 1259.21,-266.5 1253.21,-266.5 1247.21,-260.5 1247.21,-254.5 1247.21,-254.5 1247.21,-242.5 1247.21,-242.5 1247.21,-236.5 1253.21,-230.5 1259.21,-230.5 1259.21,-230.5 1380.21,-230.5 1380.21,-230.5 1386.21,-230.5 1392.21,-236.5 1392.21,-242.5 1392.21,-242.5 1392.21,-254.5 1392.21,-254.5 1392.21,-260.5 1386.21,-266.5 1380.21,-266.5"/>
<text xml:space="preserve" text-anchor="middle" x="1319.71" y="-251.55" font-family="Helvetica,sans-Serif" font-size="11.00">batcher_slave reverse</text>
<text xml:space="preserve" text-anchor="middle" x="1319.71" y="-238.05" font-family="Helvetica,sans-Serif" font-size="11.00">wb_post_even_sorted_bus</text>
</g>
<!-- pack_post&#45;&gt;uns_post_e -->
<g id="edge3" class="edge">
<title>pack_post&#45;&gt;uns_post_e</title>
<path fill="none" stroke="#444444" d="M1319.71,-303.31C1319.71,-295.73 1319.71,-286.6 1319.71,-278.04"/>
<polygon fill="#444444" stroke="#444444" points="1323.21,-278.04 1319.71,-268.04 1316.21,-278.04 1323.21,-278.04"/>
</g>
<!-- uns_post_o -->
<g id="node11" class="node">
<title>uns_post_o</title>
<path fill="#fff2cc" stroke="#555555" d="M1537.59,-266.5C1537.59,-266.5 1421.84,-266.5 1421.84,-266.5 1415.84,-266.5 1409.84,-260.5 1409.84,-254.5 1409.84,-254.5 1409.84,-242.5 1409.84,-242.5 1409.84,-236.5 1415.84,-230.5 1421.84,-230.5 1421.84,-230.5 1537.59,-230.5 1537.59,-230.5 1543.59,-230.5 1549.59,-236.5 1549.59,-242.5 1549.59,-242.5 1549.59,-254.5 1549.59,-254.5 1549.59,-260.5 1543.59,-266.5 1537.59,-266.5"/>
<text xml:space="preserve" text-anchor="middle" x="1479.71" y="-251.55" font-family="Helvetica,sans-Serif" font-size="11.00">batcher_slave reverse</text>
<text xml:space="preserve" text-anchor="middle" x="1479.71" y="-238.05" font-family="Helvetica,sans-Serif" font-size="11.00">wb_post_odd_sorted_bus</text>
</g>
<!-- pack_post&#45;&gt;uns_post_o -->
<g id="edge4" class="edge">
<title>pack_post&#45;&gt;uns_post_o</title>
<path fill="none" stroke="#444444" d="M1358.85,-303.13C1380.36,-293.59 1407.24,-281.66 1430.19,-271.48"/>
<polygon fill="#444444" stroke="#444444" points="1431.32,-274.8 1439.04,-267.55 1428.48,-268.41 1431.32,-274.8"/>
</g>
<!-- pack_post&#45;&gt;run1mux -->
<g id="edge13" class="edge">
<title>pack_post&#45;&gt;run1mux</title>
<path fill="none" stroke="#444444" d="M1232.91,-313.71C1082.63,-301.71 788.03,-277.04 767.71,-266.5 748.97,-256.77 753.48,-243.34 736.71,-230.5 706.76,-207.56 669.36,-188.73 637.18,-174.92"/>
<polygon fill="#444444" stroke="#444444" points="638.9,-171.85 628.32,-171.2 636.19,-178.3 638.9,-171.85"/>
<text xml:space="preserve" text-anchor="middle" x="805.21" y="-245" font-family="Helvetica,sans-Serif" font-size="10.00">direct post buses</text>
</g>
<!-- uns_ext_e&#45;&gt;run2mux -->
<g id="edge21" class="edge">
<title>uns_ext_e&#45;&gt;run2mux</title>
<path fill="none" stroke="#444444" d="M1049.66,-230.03C1081.29,-216.53 1125.96,-197.47 1164.16,-181.17"/>
<polygon fill="#444444" stroke="#444444" points="1165.53,-184.39 1173.35,-177.25 1162.78,-177.95 1165.53,-184.39"/>
</g>
<!-- uns_ext_o&#45;&gt;run2mux -->
<g id="edge22" class="edge">
<title>uns_ext_o&#45;&gt;run2mux</title>
<path fill="none" stroke="#444444" d="M1176.3,-230.26C1184.75,-219.53 1196.02,-205.23 1206.77,-191.59"/>
<polygon fill="#444444" stroke="#444444" points="1209.34,-193.97 1212.78,-183.95 1203.85,-189.64 1209.34,-193.97"/>
</g>
<!-- uns_post_e&#45;&gt;run2mux -->
<g id="edge23" class="edge">
<title>uns_post_e&#45;&gt;run2mux</title>
<path fill="none" stroke="#444444" d="M1305.95,-230.26C1297.4,-219.53 1285.98,-205.23 1275.1,-191.59"/>
<polygon fill="#444444" stroke="#444444" points="1277.97,-189.58 1269,-183.94 1272.5,-193.94 1277.97,-189.58"/>
</g>
<!-- uns_post_o&#45;&gt;run2mux -->
<g id="edge24" class="edge">
<title>uns_post_o&#45;&gt;run2mux</title>
<path fill="none" stroke="#444444" d="M1437.54,-230.03C1404.32,-216.27 1357.14,-196.73 1317.3,-180.22"/>
<polygon fill="#444444" stroke="#444444" points="1318.79,-177.05 1308.21,-176.46 1316.11,-183.52 1318.79,-177.05"/>
</g>
<!-- rowbase_e -->
<g id="node12" class="node">
<title>rowbase_e</title>
<polygon fill="#d9ebf7" stroke="#1f4e79" points="2078.77,-339.5 1914.83,-339.5 1872.66,-303.5 2036.6,-303.5 2078.77,-339.5"/>
<text xml:space="preserve" text-anchor="middle" x="1975.71" y="-317.8" font-family="Helvetica,sans-Serif" font-size="11.00">wb_even_row_base</text>
</g>
<!-- pairchk0 -->
<g id="node14" class="node">
<title>pairchk0</title>
<polygon fill="#fde9d9" stroke="#c55a11" points="1681.71,-266.5 1567.11,-248.5 1681.71,-230.5 1796.32,-248.5 1681.71,-266.5"/>
<text xml:space="preserve" text-anchor="middle" x="1681.71" y="-244.8" font-family="Helvetica,sans-Serif" font-size="11.00">pair_row*2 &lt; seg_bits ?</text>
</g>
<!-- rowbase_e&#45;&gt;pairchk0 -->
<g id="edge5" class="edge">
<title>rowbase_e&#45;&gt;pairchk0</title>
<path fill="none" stroke="#444444" d="M1903.42,-303.04C1851.79,-290.57 1783.42,-274.06 1736.32,-262.69"/>
<polygon fill="#444444" stroke="#444444" points="1737.44,-259.36 1726.9,-260.41 1735.8,-266.16 1737.44,-259.36"/>
</g>
<!-- rbodd0 -->
<g id="node16" class="node">
<title>rbodd0</title>
<polygon fill="#fde9d9" stroke="#c55a11" points="2209.71,-266.5 2083.87,-248.5 2209.71,-230.5 2335.56,-248.5 2209.71,-266.5"/>
<text xml:space="preserve" text-anchor="middle" x="2209.71" y="-244.8" font-family="Helvetica,sans-Serif" font-size="11.00">wb_even_row_base odd ?</text>
</g>
<!-- rowbase_e&#45;&gt;rbodd0 -->
<g id="edge7" class="edge">
<title>rowbase_e&#45;&gt;rbodd0</title>
<path fill="none" stroke="#444444" d="M2033.26,-303.04C2072.18,-291.23 2123.05,-275.79 2160.17,-264.53"/>
<polygon fill="#444444" stroke="#444444" points="2160.73,-268.02 2169.29,-261.77 2158.7,-261.32 2160.73,-268.02"/>
</g>
<!-- rowbase_o -->
<g id="node13" class="node">
<title>rowbase_o</title>
<polygon fill="#d9ebf7" stroke="#1f4e79" points="2372.97,-339.5 2216.67,-339.5 2176.46,-303.5 2332.76,-303.5 2372.97,-339.5"/>
<text xml:space="preserve" text-anchor="middle" x="2274.71" y="-317.8" font-family="Helvetica,sans-Serif" font-size="11.00">wb_odd_row_base</text>
</g>
<!-- pairchk1 -->
<g id="node15" class="node">
<title>pairchk1</title>
<polygon fill="#fde9d9" stroke="#c55a11" points="1939.71,-266.5 1813.87,-248.5 1939.71,-230.5 2065.56,-248.5 1939.71,-266.5"/>
<text xml:space="preserve" text-anchor="middle" x="1939.71" y="-244.8" font-family="Helvetica,sans-Serif" font-size="11.00">pair_row*2+1 &lt; seg_bits ?</text>
</g>
<!-- rowbase_o&#45;&gt;pairchk1 -->
<g id="edge6" class="edge">
<title>rowbase_o&#45;&gt;pairchk1</title>
<path fill="none" stroke="#444444" d="M2192.33,-303.04C2132.65,-290.39 2053.32,-273.58 1999.61,-262.19"/>
<polygon fill="#444444" stroke="#444444" points="2000.54,-258.81 1990.03,-260.16 1999.09,-265.66 2000.54,-258.81"/>
</g>
<!-- rbodd1 -->
<g id="node17" class="node">
<title>rbodd1</title>
<polygon fill="#fde9d9" stroke="#c55a11" points="2474.71,-266.5 2353.49,-248.5 2474.71,-230.5 2595.93,-248.5 2474.71,-266.5"/>
<text xml:space="preserve" text-anchor="middle" x="2474.71" y="-244.8" font-family="Helvetica,sans-Serif" font-size="11.00">wb_odd_row_base odd ?</text>
</g>
<!-- rowbase_o&#45;&gt;rbodd1 -->
<g id="edge8" class="edge">
<title>rowbase_o&#45;&gt;rbodd1</title>
<path fill="none" stroke="#444444" d="M2323.9,-303.04C2356.18,-291.58 2398.08,-276.71 2429.52,-265.54"/>
<polygon fill="#444444" stroke="#444444" points="2430.49,-268.91 2438.75,-262.27 2428.15,-262.32 2430.49,-268.91"/>
</g>
<!-- pairchk0&#45;&gt;run2mux -->
<g id="edge17" class="edge">
<title>pairchk0&#45;&gt;run2mux</title>
<path fill="none" stroke="#444444" d="M1636.18,-237.28C1562.91,-220.83 1417.69,-188.23 1325.08,-167.44"/>
<polygon fill="#444444" stroke="#444444" points="1326.06,-164.07 1315.54,-165.3 1324.53,-170.9 1326.06,-164.07"/>
<text xml:space="preserve" text-anchor="middle" x="1538.81" y="-203" font-family="Helvetica,sans-Serif" font-size="10.00">side0 range</text>
</g>
<!-- pairchk1&#45;&gt;run2mux -->
<g id="edge18" class="edge">
<title>pairchk1&#45;&gt;run2mux</title>
<path fill="none" stroke="#444444" d="M1878.3,-238.8C1754.15,-221.22 1472.95,-181.39 1329.1,-161.02"/>
<polygon fill="#444444" stroke="#444444" points="1329.61,-157.56 1319.21,-159.62 1328.62,-164.49 1329.61,-157.56"/>
<text xml:space="preserve" text-anchor="middle" x="1698.5" y="-203" font-family="Helvetica,sans-Serif" font-size="10.00">side1 range</text>
</g>
<!-- rbodd0&#45;&gt;run2mux -->
<g id="edge19" class="edge">
<title>rbodd0&#45;&gt;run2mux</title>
<path fill="none" stroke="#444444" d="M2146.23,-239.14C2123.67,-236.27 2098.07,-233.12 2074.71,-230.5 1804.6,-200.22 1484.56,-170.46 1331.32,-156.59"/>
<polygon fill="#444444" stroke="#444444" points="1331.92,-153.13 1321.64,-155.72 1331.29,-160.1 1331.92,-153.13"/>
<text xml:space="preserve" text-anchor="middle" x="1925.51" y="-203" font-family="Helvetica,sans-Serif" font-size="10.00">side0 dst parity</text>
</g>
<!-- rbodd1&#45;&gt;run2mux -->
<g id="edge20" class="edge">
<title>rbodd1&#45;&gt;run2mux</title>
<path fill="none" stroke="#444444" d="M2414.6,-238.98C2392.64,-236.04 2367.58,-232.89 2344.71,-230.5 1970.3,-191.34 1522.53,-164.1 1332.85,-153.47"/>
<polygon fill="#444444" stroke="#444444" points="1333.24,-149.98 1323.06,-152.92 1332.85,-156.97 1333.24,-149.98"/>
<text xml:space="preserve" text-anchor="middle" x="2167.23" y="-203" font-family="Helvetica,sans-Serif" font-size="10.00">side1 dst parity</text>
</g>
<!-- out -->
<g id="node20" class="node">
<title>out</title>
<path fill="#fce5cd" stroke="#555555" d="M964.34,-75.5C964.34,-75.5 763.09,-75.5 763.09,-75.5 757.09,-75.5 751.09,-69.5 751.09,-63.5 751.09,-63.5 751.09,-12 751.09,-12 751.09,-6 757.09,0 763.09,0 763.09,0 964.34,0 964.34,0 970.34,0 976.34,-6 976.34,-12 976.34,-12 976.34,-63.5 976.34,-63.5 976.34,-69.5 970.34,-75.5 964.34,-75.5"/>
<text xml:space="preserve" text-anchor="middle" x="863.71" y="-61.05" font-family="Helvetica,sans-Serif" font-size="11.00">ext_even_wr0/1</text>
<text xml:space="preserve" text-anchor="middle" x="863.71" y="-47.55" font-family="Helvetica,sans-Serif" font-size="11.00">ext_odd_wr0/1</text>
<text xml:space="preserve" text-anchor="middle" x="863.71" y="-34.05" font-family="Helvetica,sans-Serif" font-size="11.00">final_even_wr0/1</text>
<text xml:space="preserve" text-anchor="middle" x="863.71" y="-20.55" font-family="Helvetica,sans-Serif" font-size="11.00">final_odd_wr0/1</text>
<text xml:space="preserve" text-anchor="middle" x="863.71" y="-7.05" font-family="Helvetica,sans-Serif" font-size="11.00">2 row sides total: even&#45;result and odd&#45;result</text>
</g>
<!-- run1mux&#45;&gt;out -->
<g id="edge26" class="edge">
<title>run1mux&#45;&gt;out</title>
<path fill="none" stroke="#444444" d="M659.19,-112.7C688.04,-102.27 720.14,-90.66 750.2,-79.79"/>
<polygon fill="#444444" stroke="#444444" points="751.1,-83.19 759.31,-76.5 748.72,-76.61 751.1,-83.19"/>
</g>
<!-- run2mux&#45;&gt;out -->
<g id="edge27" class="edge">
<title>run2mux&#45;&gt;out</title>
<path fill="none" stroke="#444444" d="M1137.2,-116.91C1090.89,-103.68 1035.93,-87.97 987.47,-74.12"/>
<polygon fill="#444444" stroke="#444444" points="988.62,-70.81 978.05,-71.43 986.7,-77.54 988.62,-70.81"/>
</g>
</g>
</svg>
