<?xml version="1.0" encoding="UTF-8" standalone="no"?>
<!DOCTYPE svg PUBLIC "-//W3C//DTD SVG 1.1//EN"
 "http://www.w3.org/Graphics/SVG/1.1/DTD/svg11.dtd">
<!-- Generated by graphviz version 14.1.2 (0)
 -->
<!-- Title: G Pages: 1 -->
<svg width="1591pt" height="460pt"
 viewBox="0.00 0.00 1591.00 460.00" xmlns="http://www.w3.org/2000/svg" xmlns:xlink="http://www.w3.org/1999/xlink">
<g id="graph0" class="graph" transform="scale(1 1) rotate(0) translate(4 456.25)">
<title>G</title>
<polygon fill="white" stroke="none" points="-4,4 -4,-456.25 1587.5,-456.25 1587.5,4 -4,4"/>
<text xml:space="preserve" text-anchor="middle" x="791.75" y="-429.25" font-family="Helvetica,sans-Serif" font-size="20.00">parallel8_top &#45; Issue / Feed Pipeline</text>
<!-- run1 -->
<g id="node1" class="node">
<title>run1</title>
<polygon fill="#fce4d6" stroke="#c55a11" points="102.5,-421 47.61,-421 33.49,-385 88.38,-385 102.5,-421"/>
<text xml:space="preserve" text-anchor="middle" x="68" y="-399.3" font-family="Helvetica,sans-Serif" font-size="11.00">run1</text>
</g>
<!-- edge1 -->
<g id="node7" class="node">
<title>edge1</title>
<polygon fill="#fde9d9" stroke="#c55a11" points="108,-348 0,-330 108,-312 215.99,-330 108,-348"/>
<text xml:space="preserve" text-anchor="middle" x="108" y="-326.3" font-family="Helvetica,sans-Serif" font-size="11.00">run1 and not run1_d ?</text>
</g>
<!-- run1&#45;&gt;edge1 -->
<g id="edge3" class="edge">
<title>run1&#45;&gt;edge1</title>
<path fill="none" stroke="#444444" d="M77.68,-384.81C82.45,-376.34 88.3,-365.96 93.58,-356.58"/>
<polygon fill="#444444" stroke="#444444" points="96.62,-358.32 98.48,-347.89 90.52,-354.89 96.62,-358.32"/>
</g>
<!-- run2 -->
<g id="node2" class="node">
<title>run2</title>
<polygon fill="#fce4d6" stroke="#c55a11" points="317.5,-421 262.61,-421 248.49,-385 303.38,-385 317.5,-421"/>
<text xml:space="preserve" text-anchor="middle" x="283" y="-399.3" font-family="Helvetica,sans-Serif" font-size="11.00">run2</text>
</g>
<!-- edge2 -->
<g id="node8" class="node">
<title>edge2</title>
<polygon fill="#fde9d9" stroke="#c55a11" points="342,-348 234,-330 342,-312 449.99,-330 342,-348"/>
<text xml:space="preserve" text-anchor="middle" x="342" y="-326.3" font-family="Helvetica,sans-Serif" font-size="11.00">run2 and not run2_d ?</text>
</g>
<!-- run2&#45;&gt;edge2 -->
<g id="edge5" class="edge">
<title>run2&#45;&gt;edge2</title>
<path fill="none" stroke="#444444" d="M297.28,-384.81C304.8,-375.76 314.13,-364.53 322.33,-354.67"/>
<polygon fill="#444444" stroke="#444444" points="324.78,-357.19 328.48,-347.26 319.4,-352.72 324.78,-357.19"/>
</g>
<!-- run1d -->
<g id="node3" class="node">
<title>run1d</title>
<polygon fill="#fce4d6" stroke="#c55a11" points="211.47,-421 139.13,-421 120.52,-385 192.86,-385 211.47,-421"/>
<text xml:space="preserve" text-anchor="middle" x="166" y="-399.3" font-family="Helvetica,sans-Serif" font-size="11.00">run1_d</text>
</g>
<!-- run1d&#45;&gt;edge1 -->
<g id="edge4" class="edge">
<title>run1d&#45;&gt;edge1</title>
<path fill="none" stroke="#444444" d="M151.96,-384.81C144.64,-375.86 135.57,-364.76 127.58,-354.97"/>
<polygon fill="#444444" stroke="#444444" points="130.33,-352.8 121.29,-347.27 124.9,-357.23 130.33,-352.8"/>
</g>
<!-- run2d -->
<g id="node4" class="node">
<title>run2d</title>
<polygon fill="#fce4d6" stroke="#c55a11" points="426.47,-421 354.13,-421 335.52,-385 407.86,-385 426.47,-421"/>
<text xml:space="preserve" text-anchor="middle" x="381" y="-399.3" font-family="Helvetica,sans-Serif" font-size="11.00">run2_d</text>
</g>
<!-- run2d&#45;&gt;edge2 -->
<g id="edge6" class="edge">
<title>run2d&#45;&gt;edge2</title>
<path fill="none" stroke="#444444" d="M371.55,-384.81C366.9,-376.34 361.2,-365.96 356.05,-356.58"/>
<polygon fill="#444444" stroke="#444444" points="359.16,-354.98 351.28,-347.9 353.03,-358.35 359.16,-354.98"/>
</g>
<!-- paircnt -->
<g id="node5" class="node">
<title>paircnt</title>
<polygon fill="#d9ebf7" stroke="#1f4e79" points="644.55,-247 548.22,-247 523.44,-211 619.77,-211 644.55,-247"/>
<text xml:space="preserve" text-anchor="middle" x="584" y="-225.3" font-family="Helvetica,sans-Serif" font-size="11.00">pair_count</text>
</g>
<!-- lastcmp -->
<g id="node10" class="node">
<title>lastcmp</title>
<polygon fill="#fde9d9" stroke="#c55a11" points="584,-146 437.65,-128 584,-110 730.34,-128 584,-146"/>
<text xml:space="preserve" text-anchor="middle" x="584" y="-124.3" font-family="Helvetica,sans-Serif" font-size="11.00">issue_pair_idx = pair_count&#45;1 ?</text>
</g>
<!-- paircnt&#45;&gt;lastcmp -->
<g id="edge2" class="edge">
<title>paircnt&#45;&gt;lastcmp</title>
<path fill="none" stroke="#444444" d="M584,-210.76C584,-196.08 584,-174.71 584,-157.5"/>
<polygon fill="#444444" stroke="#444444" points="587.5,-157.89 584,-147.89 580.5,-157.89 587.5,-157.89"/>
</g>
<!-- issueidx -->
<g id="node6" class="node">
<title>issueidx</title>
<polygon fill="#d9ebf7" stroke="#1f4e79" points="501,-247 378.5,-247 346.99,-211 469.49,-211 501,-247"/>
<text xml:space="preserve" text-anchor="middle" x="424" y="-225.3" font-family="Helvetica,sans-Serif" font-size="11.00">issue_pair_idx</text>
</g>
<!-- issueidx&#45;&gt;lastcmp -->
<g id="edge1" class="edge">
<title>issueidx&#45;&gt;lastcmp</title>
<path fill="none" stroke="#444444" d="M452.23,-210.53C479.76,-193.5 521.61,-167.6 550.74,-149.58"/>
<polygon fill="#444444" stroke="#444444" points="552.51,-152.6 559.18,-144.36 548.83,-146.64 552.51,-152.6"/>
</g>
<!-- feedp -->
<g id="node12" class="node">
<title>feedp</title>
<path fill="#eef5fb" stroke="#1f4e79" d="M407.62,-146C407.62,-146 308.37,-146 308.37,-146 302.37,-146 296.37,-140 296.37,-134 296.37,-134 296.37,-122 296.37,-122 296.37,-116 302.37,-110 308.37,-110 308.37,-110 407.62,-110 407.62,-110 413.62,-110 419.62,-116 419.62,-122 419.62,-122 419.62,-134 419.62,-134 419.62,-140 413.62,-146 407.62,-146"/>
<text xml:space="preserve" text-anchor="middle" x="358" y="-124.3" font-family="Helvetica,sans-Serif" font-size="11.00">feed_pipe_pair_idx FF</text>
</g>
<!-- issueidx&#45;&gt;feedp -->
<g id="edge10" class="edge">
<title>issueidx&#45;&gt;feedp</title>
<path fill="none" stroke="#444444" d="M412.5,-210.76C402.34,-195.52 387.37,-173.06 375.68,-155.53"/>
<polygon fill="#444444" stroke="#444444" points="378.88,-154.02 370.42,-147.64 373.06,-157.9 378.88,-154.02"/>
<text xml:space="preserve" text-anchor="middle" x="411.14" y="-166.5" font-family="Helvetica,sans-Serif" font-size="10.00">pair_row_i</text>
</g>
<!-- startmux -->
<g id="node9" class="node">
<title>startmux</title>
<polygon fill="#e2f0d9" stroke="#548235" points="282.52,-264 167.47,-264 126.5,-194 323.5,-194 282.52,-264"/>
<text xml:space="preserve" text-anchor="middle" x="225" y="-232.05" font-family="Helvetica,sans-Serif" font-size="11.00">MUX</text>
<text xml:space="preserve" text-anchor="middle" x="225" y="-218.55" font-family="Helvetica,sans-Serif" font-size="11.00">issue_active start</text>
</g>
<!-- edge1&#45;&gt;startmux -->
<g id="edge7" class="edge">
<title>edge1&#45;&gt;startmux</title>
<path fill="none" stroke="#444444" d="M125.26,-314.39C138.59,-303.11 157.73,-286.92 175.68,-271.73"/>
<polygon fill="#444444" stroke="#444444" points="177.84,-274.48 183.22,-265.35 173.32,-269.14 177.84,-274.48"/>
<text xml:space="preserve" text-anchor="middle" x="169.36" y="-284.5" font-family="Helvetica,sans-Serif" font-size="10.00">in0</text>
</g>
<!-- edge2&#45;&gt;startmux -->
<g id="edge8" class="edge">
<title>edge2&#45;&gt;startmux</title>
<path fill="none" stroke="#444444" d="M324.73,-314.39C311.4,-303.11 292.26,-286.92 274.31,-271.73"/>
<polygon fill="#444444" stroke="#444444" points="276.67,-269.14 266.77,-265.35 272.15,-274.48 276.67,-269.14"/>
<text xml:space="preserve" text-anchor="middle" x="303.79" y="-284.5" font-family="Helvetica,sans-Serif" font-size="10.00">in1</text>
</g>
<!-- feedv -->
<g id="node11" class="node">
<title>feedv</title>
<path fill="#eef5fb" stroke="#1f4e79" d="M266.75,-146C266.75,-146 183.25,-146 183.25,-146 177.25,-146 171.25,-140 171.25,-134 171.25,-134 171.25,-122 171.25,-122 171.25,-116 177.25,-110 183.25,-110 183.25,-110 266.75,-110 266.75,-110 272.75,-110 278.75,-116 278.75,-122 278.75,-122 278.75,-134 278.75,-134 278.75,-140 272.75,-146 266.75,-146"/>
<text xml:space="preserve" text-anchor="middle" x="225" y="-124.3" font-family="Helvetica,sans-Serif" font-size="11.00">feed_pipe_valid FF</text>
</g>
<!-- startmux&#45;&gt;feedv -->
<g id="edge9" class="edge">
<title>startmux&#45;&gt;feedv</title>
<path fill="none" stroke="#444444" d="M225,-193.65C225,-181.92 225,-168.94 225,-157.7"/>
<polygon fill="#444444" stroke="#444444" points="228.5,-157.85 225,-147.85 221.5,-157.85 228.5,-157.85"/>
<text xml:space="preserve" text-anchor="middle" x="247.87" y="-166.5" font-family="Helvetica,sans-Serif" font-size="10.00">issue/start</text>
</g>
<!-- siso_lanes -->
<g id="node20" class="node">
<title>siso_lanes</title>
<path fill="#d9ead3" stroke="#555555" d="M1122.25,-62C1122.25,-62 873.75,-62 873.75,-62 867.75,-62 861.75,-56 861.75,-50 861.75,-50 861.75,-12 861.75,-12 861.75,-6 867.75,0 873.75,0 873.75,0 1122.25,0 1122.25,0 1128.25,0 1134.25,-6 1134.25,-12 1134.25,-12 1134.25,-50 1134.25,-50 1134.25,-56 1128.25,-62 1122.25,-62"/>
<text xml:space="preserve" text-anchor="middle" x="998" y="-47.55" font-family="Helvetica,sans-Serif" font-size="11.00">Lane Feed Replication</text>
<text xml:space="preserve" text-anchor="middle" x="998" y="-34.05" font-family="Helvetica,sans-Serif" font-size="11.00">core_in_valid(0), core_in_valid(1), ..., core_in_valid(7)</text>
<text xml:space="preserve" text-anchor="middle" x="998" y="-20.55" font-family="Helvetica,sans-Serif" font-size="11.00">core_in_pair_idx(0), ..., core_in_pair_idx(7)</text>
<text xml:space="preserve" text-anchor="middle" x="998" y="-7.05" font-family="Helvetica,sans-Serif" font-size="11.00">8 total SISO feed lanes</text>
</g>
<!-- feedv&#45;&gt;siso_lanes -->
<g id="edge17" class="edge">
<title>feedv&#45;&gt;siso_lanes</title>
<path fill="none" stroke="#444444" d="M279.02,-111.84C281.71,-111.2 284.38,-110.58 287,-110 365.55,-92.67 385.71,-90.29 465.5,-80 595.09,-63.29 743.17,-50.45 850.22,-42.27"/>
<polygon fill="#444444" stroke="#444444" points="850.22,-45.78 859.92,-41.53 849.69,-38.8 850.22,-45.78"/>
<text xml:space="preserve" text-anchor="middle" x="499.25" y="-82.5" font-family="Helvetica,sans-Serif" font-size="10.00">feed_pipe_valid</text>
</g>
<!-- feedp&#45;&gt;siso_lanes -->
<g id="edge18" class="edge">
<title>feedp&#45;&gt;siso_lanes</title>
<path fill="none" stroke="#444444" d="M419.87,-111.8C422.95,-111.17 426.01,-110.56 429,-110 571.13,-83.31 734.86,-61.82 850.09,-48.21"/>
<polygon fill="#444444" stroke="#444444" points="850.41,-51.7 859.93,-47.06 849.59,-44.75 850.41,-51.7"/>
<text xml:space="preserve" text-anchor="middle" x="640.73" y="-82.5" font-family="Helvetica,sans-Serif" font-size="10.00">feed_pipe_pair_idx</text>
</g>
<!-- feede -->
<g id="node13" class="node">
<title>feede</title>
<path fill="#eef5fb" stroke="#1f4e79" d="M1137.75,-146C1137.75,-146 1036.25,-146 1036.25,-146 1030.25,-146 1024.25,-140 1024.25,-134 1024.25,-134 1024.25,-122 1024.25,-122 1024.25,-116 1030.25,-110 1036.25,-110 1036.25,-110 1137.75,-110 1137.75,-110 1143.75,-110 1149.75,-116 1149.75,-122 1149.75,-122 1149.75,-134 1149.75,-134 1149.75,-140 1143.75,-146 1137.75,-146"/>
<text xml:space="preserve" text-anchor="middle" x="1087" y="-124.3" font-family="Helvetica,sans-Serif" font-size="11.00">feed_perm_even_q FF</text>
</g>
<!-- feede&#45;&gt;siso_lanes -->
<g id="edge19" class="edge">
<title>feede&#45;&gt;siso_lanes</title>
<path fill="none" stroke="#444444" d="M1070.67,-109.58C1060.45,-98.66 1046.85,-84.15 1034.19,-70.64"/>
<polygon fill="#444444" stroke="#444444" points="1036.89,-68.4 1027.5,-63.49 1031.78,-73.18 1036.89,-68.4"/>
<text xml:space="preserve" text-anchor="middle" x="1086.83" y="-82.5" font-family="Helvetica,sans-Serif" font-size="10.00">run2 perm even</text>
</g>
<!-- feedo -->
<g id="node14" class="node">
<title>feedo</title>
<path fill="#eef5fb" stroke="#1f4e79" d="M1276.12,-146C1276.12,-146 1179.87,-146 1179.87,-146 1173.87,-146 1167.87,-140 1167.87,-134 1167.87,-134 1167.87,-122 1167.87,-122 1167.87,-116 1173.87,-110 1179.87,-110 1179.87,-110 1276.12,-110 1276.12,-110 1282.12,-110 1288.12,-116 1288.12,-122 1288.12,-122 1288.12,-134 1288.12,-134 1288.12,-140 1282.12,-146 1276.12,-146"/>
<text xml:space="preserve" text-anchor="middle" x="1228" y="-124.3" font-family="Helvetica,sans-Serif" font-size="11.00">feed_perm_odd_q FF</text>
</g>
<!-- feedo&#45;&gt;siso_lanes -->
<g id="edge20" class="edge">
<title>feedo&#45;&gt;siso_lanes</title>
<path fill="none" stroke="#444444" d="M1191.55,-109.65C1171.96,-100.51 1147.31,-89.3 1125,-80 1114.17,-75.49 1102.75,-70.92 1091.38,-66.48"/>
<polygon fill="#444444" stroke="#444444" points="1092.97,-63.34 1082.38,-63 1090.44,-69.87 1092.97,-63.34"/>
<text xml:space="preserve" text-anchor="middle" x="1181.8" y="-82.5" font-family="Helvetica,sans-Serif" font-size="10.00">run2 perm odd</text>
</g>
<!-- feedisoe -->
<g id="node15" class="node">
<title>feedisoe</title>
<path fill="#eef5fb" stroke="#1f4e79" d="M1426.12,-146C1426.12,-146 1317.87,-146 1317.87,-146 1311.87,-146 1305.87,-140 1305.87,-134 1305.87,-134 1305.87,-122 1305.87,-122 1305.87,-116 1311.87,-110 1317.87,-110 1317.87,-110 1426.12,-110 1426.12,-110 1432.12,-110 1438.12,-116 1438.12,-122 1438.12,-122 1438.12,-134 1438.12,-134 1438.12,-140 1432.12,-146 1426.12,-146"/>
<text xml:space="preserve" text-anchor="middle" x="1372" y="-124.3" font-family="Helvetica,sans-Serif" font-size="11.00">feed_even_is_odd_q FF</text>
</g>
<!-- feedisoe&#45;&gt;siso_lanes -->
<g id="edge21" class="edge">
<title>feedisoe&#45;&gt;siso_lanes</title>
<path fill="none" stroke="#444444" d="M1318.13,-109.53C1288.46,-100.19 1250.87,-88.83 1217,-80 1193.97,-74 1169.45,-68.12 1145.47,-62.66"/>
<polygon fill="#444444" stroke="#444444" points="1146.49,-59.3 1135.97,-60.51 1144.95,-66.13 1146.49,-59.3"/>
<text xml:space="preserve" text-anchor="middle" x="1309.36" y="-82.5" font-family="Helvetica,sans-Serif" font-size="10.00">even row source parity</text>
</g>
<!-- feedisoo -->
<g id="node16" class="node">
<title>feedisoo</title>
<path fill="#eef5fb" stroke="#1f4e79" d="M1571.5,-146C1571.5,-146 1468.5,-146 1468.5,-146 1462.5,-146 1456.5,-140 1456.5,-134 1456.5,-134 1456.5,-122 1456.5,-122 1456.5,-116 1462.5,-110 1468.5,-110 1468.5,-110 1571.5,-110 1571.5,-110 1577.5,-110 1583.5,-116 1583.5,-122 1583.5,-122 1583.5,-134 1583.5,-134 1583.5,-140 1577.5,-146 1571.5,-146"/>
<text xml:space="preserve" text-anchor="middle" x="1520" y="-124.3" font-family="Helvetica,sans-Serif" font-size="11.00">feed_odd_is_odd_q FF</text>
</g>
<!-- feedisoo&#45;&gt;siso_lanes -->
<g id="edge22" class="edge">
<title>feedisoo&#45;&gt;siso_lanes</title>
<path fill="none" stroke="#444444" d="M1469.27,-109.56C1438.78,-99.65 1399.03,-87.71 1363,-80 1292.1,-64.83 1212.37,-53.68 1145.55,-45.96"/>
<polygon fill="#444444" stroke="#444444" points="1146.35,-42.53 1136.02,-44.88 1145.56,-49.49 1146.35,-42.53"/>
<text xml:space="preserve" text-anchor="middle" x="1457.92" y="-82.5" font-family="Helvetica,sans-Serif" font-size="10.00">odd row source parity</text>
</g>
<!-- feedve -->
<g id="node17" class="node">
<title>feedve</title>
<path fill="#eef5fb" stroke="#1f4e79" d="M859.25,-146C859.25,-146 760.75,-146 760.75,-146 754.75,-146 748.75,-140 748.75,-134 748.75,-134 748.75,-122 748.75,-122 748.75,-116 754.75,-110 760.75,-110 760.75,-110 859.25,-110 859.25,-110 865.25,-110 871.25,-116 871.25,-122 871.25,-122 871.25,-134 871.25,-134 871.25,-140 865.25,-146 859.25,-146"/>
<text xml:space="preserve" text-anchor="middle" x="810" y="-124.3" font-family="Helvetica,sans-Serif" font-size="11.00">feed_even_valid_q FF</text>
</g>
<!-- feedve&#45;&gt;siso_lanes -->
<g id="edge23" class="edge">
<title>feedve&#45;&gt;siso_lanes</title>
<path fill="none" stroke="#444444" d="M844.48,-109.58C867.8,-97.79 899.44,-81.8 927.93,-67.41"/>
<polygon fill="#444444" stroke="#444444" points="929.16,-70.71 936.51,-63.07 926,-64.46 929.16,-70.71"/>
<text xml:space="preserve" text-anchor="middle" x="920.48" y="-82.5" font-family="Helvetica,sans-Serif" font-size="10.00">even valid</text>
</g>
<!-- feedvo -->
<g id="node18" class="node">
<title>feedvo</title>
<path fill="#eef5fb" stroke="#1f4e79" d="M994.62,-146C994.62,-146 901.37,-146 901.37,-146 895.37,-146 889.37,-140 889.37,-134 889.37,-134 889.37,-122 889.37,-122 889.37,-116 895.37,-110 901.37,-110 901.37,-110 994.62,-110 994.62,-110 1000.62,-110 1006.62,-116 1006.62,-122 1006.62,-122 1006.62,-134 1006.62,-134 1006.62,-140 1000.62,-146 994.62,-146"/>
<text xml:space="preserve" text-anchor="middle" x="948" y="-124.3" font-family="Helvetica,sans-Serif" font-size="11.00">feed_odd_valid_q FF</text>
</g>
<!-- feedvo&#45;&gt;siso_lanes -->
<g id="edge24" class="edge">
<title>feedvo&#45;&gt;siso_lanes</title>
<path fill="none" stroke="#444444" d="M957.17,-109.58C962.64,-99.18 969.83,-85.51 976.65,-72.56"/>
<polygon fill="#444444" stroke="#444444" points="979.74,-74.21 981.3,-63.73 973.54,-70.95 979.74,-74.21"/>
<text xml:space="preserve" text-anchor="middle" x="991" y="-82.5" font-family="Helvetica,sans-Serif" font-size="10.00">odd valid</text>
</g>
<!-- qppblk -->
<g id="node19" class="node">
<title>qppblk</title>
<path fill="#fff2cc" stroke="#555555" d="M1269.87,-260C1269.87,-260 1046.12,-260 1046.12,-260 1040.12,-260 1034.12,-254 1034.12,-248 1034.12,-248 1034.12,-210 1034.12,-210 1034.12,-204 1040.12,-198 1046.12,-198 1046.12,-198 1269.87,-198 1269.87,-198 1275.87,-198 1281.87,-204 1281.87,-210 1281.87,-210 1281.87,-248 1281.87,-248 1281.87,-254 1275.87,-260 1269.87,-260"/>
<text xml:space="preserve" text-anchor="middle" x="1158" y="-245.55" font-family="Helvetica,sans-Serif" font-size="11.00">run2 capture inputs</text>
<text xml:space="preserve" text-anchor="middle" x="1158" y="-232.05" font-family="Helvetica,sans-Serif" font-size="11.00">qpp_even_perm / qpp_odd_perm</text>
<text xml:space="preserve" text-anchor="middle" x="1158" y="-218.55" font-family="Helvetica,sans-Serif" font-size="11.00">qpp_even_row_base(0) / qpp_odd_row_base(0)</text>
<text xml:space="preserve" text-anchor="middle" x="1158" y="-205.05" font-family="Helvetica,sans-Serif" font-size="11.00">qpp_even_row_ok / qpp_odd_row_ok</text>
</g>
<!-- qppblk&#45;&gt;feede -->
<g id="edge11" class="edge">
<title>qppblk&#45;&gt;feede</title>
<path fill="none" stroke="#444444" d="M1136.31,-197.76C1126.69,-184.35 1115.47,-168.7 1106.16,-155.72"/>
<polygon fill="#444444" stroke="#444444" points="1109.03,-153.72 1100.36,-147.63 1103.34,-157.8 1109.03,-153.72"/>
</g>
<!-- qppblk&#45;&gt;feedo -->
<g id="edge12" class="edge">
<title>qppblk&#45;&gt;feedo</title>
<path fill="none" stroke="#444444" d="M1179.38,-197.76C1188.86,-184.35 1199.93,-168.7 1209.1,-155.72"/>
<polygon fill="#444444" stroke="#444444" points="1211.9,-157.82 1214.82,-147.64 1206.19,-153.78 1211.9,-157.82"/>
</g>
<!-- qppblk&#45;&gt;feedisoe -->
<g id="edge13" class="edge">
<title>qppblk&#45;&gt;feedisoe</title>
<path fill="none" stroke="#444444" d="M1223.66,-197.62C1256.08,-182.62 1294.48,-164.86 1324.09,-151.16"/>
<polygon fill="#444444" stroke="#444444" points="1325.2,-154.51 1332.8,-147.13 1322.26,-148.15 1325.2,-154.51"/>
</g>
<!-- qppblk&#45;&gt;feedisoo -->
<g id="edge14" class="edge">
<title>qppblk&#45;&gt;feedisoo</title>
<path fill="none" stroke="#444444" d="M1269.07,-197.62C1326.19,-182 1394.29,-163.38 1445.12,-149.48"/>
<polygon fill="#444444" stroke="#444444" points="1445.84,-152.91 1454.56,-146.9 1443.99,-146.16 1445.84,-152.91"/>
</g>
<!-- qppblk&#45;&gt;feedve -->
<g id="edge15" class="edge">
<title>qppblk&#45;&gt;feedve</title>
<path fill="none" stroke="#444444" d="M1051.22,-197.62C996.42,-182.04 931.12,-163.46 882.28,-149.56"/>
<polygon fill="#444444" stroke="#444444" points="883.53,-146.28 872.95,-146.91 881.61,-153.01 883.53,-146.28"/>
</g>
<!-- qppblk&#45;&gt;feedvo -->
<g id="edge16" class="edge">
<title>qppblk&#45;&gt;feedvo</title>
<path fill="none" stroke="#444444" d="M1093.56,-197.62C1061.88,-182.69 1024.39,-165.01 995.38,-151.34"/>
<polygon fill="#444444" stroke="#444444" points="997.01,-148.24 986.48,-147.14 994.03,-154.57 997.01,-148.24"/>
</g>
</g>
</svg>
