<?xml version="1.0" encoding="UTF-8" standalone="no"?>
<!DOCTYPE svg PUBLIC "-//W3C//DTD SVG 1.1//EN"
 "http://www.w3.org/Graphics/SVG/1.1/DTD/svg11.dtd">
<!-- Generated by graphviz version 14.1.2 (0)
 -->
<!-- Title: G Pages: 1 -->
<svg width="1383pt" height="522pt"
 viewBox="0.00 0.00 1383.00 522.00" xmlns="http://www.w3.org/2000/svg" xmlns:xlink="http://www.w3.org/1999/xlink">
<g id="graph0" class="graph" transform="scale(1 1) rotate(0) translate(4 518.25)">
<title>G</title>
<polygon fill="white" stroke="none" points="-4,4 -4,-518.25 1379.17,-518.25 1379.17,4 -4,4"/>
<text xml:space="preserve" text-anchor="middle" x="687.59" y="-491.25" font-family="Helvetica,sans-Serif" font-size="20.00">parallel8_top &#45; Phase&#45;2 Feed Shell</text>
<!-- sys_e -->
<g id="node1" class="node">
<title>sys_e</title>
<polygon fill="#d9ebf7" stroke="#1f4e79" points="398.34,-483 243.13,-483 203.2,-447 358.41,-447 398.34,-483"/>
<text xml:space="preserve" text-anchor="middle" x="300.77" y="-461.3" font-family="Helvetica,sans-Serif" font-size="11.00">sys_even_rd0_row</text>
</g>
<!-- mux_sys -->
<g id="node8" class="node">
<title>mux_sys</title>
<polygon fill="#e2f0d9" stroke="#548235" points="616.53,-399 427.01,-399 359.52,-329 684.02,-329 616.53,-399"/>
<text xml:space="preserve" text-anchor="middle" x="521.77" y="-367.05" font-family="Helvetica,sans-Serif" font-size="11.00">MUX</text>
<text xml:space="preserve" text-anchor="middle" x="521.77" y="-353.55" font-family="Helvetica,sans-Serif" font-size="11.00">phase2_even_sys_sorted_row</text>
</g>
<!-- sys_e&#45;&gt;mux_sys -->
<g id="edge1" class="edge">
<title>sys_e&#45;&gt;mux_sys</title>
<path fill="none" stroke="#444444" d="M339.77,-446.53C366.16,-434.71 402.09,-418.61 435.05,-403.85"/>
<polygon fill="#444444" stroke="#444444" points="436.09,-407.22 443.79,-399.93 433.23,-400.83 436.09,-407.22"/>
<text xml:space="preserve" text-anchor="middle" x="424.52" y="-419.5" font-family="Helvetica,sans-Serif" font-size="10.00">even row</text>
</g>
<!-- sys_o -->
<g id="node2" class="node">
<title>sys_o</title>
<polygon fill="#d9ebf7" stroke="#1f4e79" points="185.54,-483 37.96,-483 0,-447 147.58,-447 185.54,-483"/>
<text xml:space="preserve" text-anchor="middle" x="92.77" y="-461.3" font-family="Helvetica,sans-Serif" font-size="11.00">sys_odd_rd0_row</text>
</g>
<!-- sys_o&#45;&gt;mux_sys -->
<g id="edge2" class="edge">
<title>sys_o&#45;&gt;mux_sys</title>
<path fill="none" stroke="#444444" d="M151.52,-450.44C216.79,-435.38 323.8,-410.68 406.04,-391.71"/>
<polygon fill="#444444" stroke="#444444" points="406.78,-395.13 415.74,-389.47 405.21,-388.31 406.78,-395.13"/>
<text xml:space="preserve" text-anchor="middle" x="311.66" y="-419.5" font-family="Helvetica,sans-Serif" font-size="10.00">odd row</text>
</g>
<!-- apri_e -->
<g id="node3" class="node">
<title>apri_e</title>
<polygon fill="#d9ebf7" stroke="#1f4e79" points="1173.97,-483 1020.94,-483 981.57,-447 1134.6,-447 1173.97,-483"/>
<text xml:space="preserve" text-anchor="middle" x="1077.77" y="-461.3" font-family="Helvetica,sans-Serif" font-size="11.00">ext_even_rd0_row</text>
</g>
<!-- mux_apri -->
<g id="node9" class="node">
<title>mux_apri</title>
<polygon fill="#e2f0d9" stroke="#548235" points="962.84,-399 770.7,-399 702.27,-329 1031.27,-329 962.84,-399"/>
<text xml:space="preserve" text-anchor="middle" x="866.77" y="-367.05" font-family="Helvetica,sans-Serif" font-size="11.00">MUX</text>
<text xml:space="preserve" text-anchor="middle" x="866.77" y="-353.55" font-family="Helvetica,sans-Serif" font-size="11.00">phase2_even_apri_sorted_row</text>
</g>
<!-- apri_e&#45;&gt;mux_apri -->
<g id="edge6" class="edge">
<title>apri_e&#45;&gt;mux_apri</title>
<path fill="none" stroke="#444444" d="M1040.53,-446.53C1015.45,-434.76 981.33,-418.75 949.98,-404.04"/>
<polygon fill="#444444" stroke="#444444" points="951.82,-401.04 941.28,-399.96 948.84,-407.37 951.82,-401.04"/>
<text xml:space="preserve" text-anchor="middle" x="1017.25" y="-419.5" font-family="Helvetica,sans-Serif" font-size="10.00">even row</text>
</g>
<!-- apri_o -->
<g id="node4" class="node">
<title>apri_o</title>
<polygon fill="#d9ebf7" stroke="#1f4e79" points="1375.17,-483 1229.77,-483 1192.37,-447 1337.77,-447 1375.17,-483"/>
<text xml:space="preserve" text-anchor="middle" x="1283.77" y="-461.3" font-family="Helvetica,sans-Serif" font-size="11.00">ext_odd_rd0_row</text>
</g>
<!-- apri_o&#45;&gt;mux_apri -->
<g id="edge7" class="edge">
<title>apri_o&#45;&gt;mux_apri</title>
<path fill="none" stroke="#444444" d="M1210.18,-446.53C1147.35,-431.61 1055.88,-409.9 983.14,-392.63"/>
<polygon fill="#444444" stroke="#444444" points="984.11,-389.26 973.57,-390.35 982.49,-396.07 984.11,-389.26"/>
<text xml:space="preserve" text-anchor="middle" x="1142.13" y="-419.5" font-family="Helvetica,sans-Serif" font-size="10.00">odd row</text>
</g>
<!-- oddsel -->
<g id="node5" class="node">
<title>oddsel</title>
<polygon fill="#fce4d6" stroke="#c55a11" points="627.57,-483 459.27,-483 415.98,-447 584.27,-447 627.57,-483"/>
<text xml:space="preserve" text-anchor="middle" x="521.77" y="-461.3" font-family="Helvetica,sans-Serif" font-size="11.00">feed_even_is_odd_q</text>
</g>
<!-- oddsel&#45;&gt;mux_sys -->
<g id="edge4" class="edge">
<title>oddsel&#45;&gt;mux_sys</title>
<path fill="none" stroke="#444444" d="M521.77,-446.76C521.77,-436.64 521.77,-423.35 521.77,-410.43"/>
<polygon fill="#444444" stroke="#444444" points="525.27,-410.77 521.77,-400.77 518.27,-410.77 525.27,-410.77"/>
<text xml:space="preserve" text-anchor="middle" x="549.52" y="-419.5" font-family="Helvetica,sans-Serif" font-size="10.00">sel odd/even</text>
</g>
<!-- oddsel&#45;&gt;mux_apri -->
<g id="edge9" class="edge">
<title>oddsel&#45;&gt;mux_apri</title>
<path fill="none" stroke="#444444" d="M584.98,-447.15C604.28,-441.7 625.49,-435.4 644.77,-429 658.99,-424.28 662.03,-421.64 676.27,-417 700.55,-409.08 726.82,-401.37 751.88,-394.42"/>
<polygon fill="#444444" stroke="#444444" points="752.74,-397.81 761.45,-391.78 750.88,-391.06 752.74,-397.81"/>
<text xml:space="preserve" text-anchor="middle" x="704.02" y="-419.5" font-family="Helvetica,sans-Serif" font-size="10.00">sel odd/even</text>
</g>
<!-- valid -->
<g id="node6" class="node">
<title>valid</title>
<polygon fill="#fce4d6" stroke="#c55a11" points="963.65,-483 809.53,-483 769.89,-447 924.01,-447 963.65,-483"/>
<text xml:space="preserve" text-anchor="middle" x="866.77" y="-461.3" font-family="Helvetica,sans-Serif" font-size="11.00">feed_even_valid_q</text>
</g>
<!-- valid&#45;&gt;mux_sys -->
<g id="edge5" class="edge">
<title>valid&#45;&gt;mux_sys</title>
<path fill="none" stroke="#444444" d="M839.2,-446.59C822.32,-436.62 799.96,-424.62 778.77,-417 775.21,-415.72 705.89,-401.72 640.14,-388.56"/>
<polygon fill="#444444" stroke="#444444" points="641.19,-385.2 630.69,-386.67 639.81,-392.07 641.19,-385.2"/>
<text xml:space="preserve" text-anchor="middle" x="827.43" y="-419.5" font-family="Helvetica,sans-Serif" font-size="10.00">valid gate</text>
</g>
<!-- valid&#45;&gt;mux_apri -->
<g id="edge10" class="edge">
<title>valid&#45;&gt;mux_apri</title>
<path fill="none" stroke="#444444" d="M866.77,-446.76C866.77,-436.64 866.77,-423.35 866.77,-410.43"/>
<polygon fill="#444444" stroke="#444444" points="870.27,-410.77 866.77,-400.77 863.27,-410.77 870.27,-410.77"/>
<text xml:space="preserve" text-anchor="middle" x="887.77" y="-419.5" font-family="Helvetica,sans-Serif" font-size="10.00">valid gate</text>
</g>
<!-- zero -->
<g id="node7" class="node">
<title>zero</title>
<polygon fill="#f5f5f5" stroke="#666666" points="751.78,-483 667.45,-483 645.76,-447 730.09,-447 751.78,-483"/>
<text xml:space="preserve" text-anchor="middle" x="698.77" y="-461.3" font-family="Helvetica,sans-Serif" font-size="11.00">zero row</text>
</g>
<!-- zero&#45;&gt;mux_sys -->
<g id="edge3" class="edge">
<title>zero&#45;&gt;mux_sys</title>
<path fill="none" stroke="#444444" d="M653.93,-446.59C641.74,-441.37 628.68,-435.34 617.02,-429 604.19,-422.02 590.9,-413.79 578.46,-405.6"/>
<polygon fill="#444444" stroke="#444444" points="580.65,-402.86 570.39,-400.2 576.76,-408.67 580.65,-402.86"/>
<text xml:space="preserve" text-anchor="middle" x="630.9" y="-419.5" font-family="Helvetica,sans-Serif" font-size="10.00">invalid</text>
</g>
<!-- zero&#45;&gt;mux_apri -->
<g id="edge8" class="edge">
<title>zero&#45;&gt;mux_apri</title>
<path fill="none" stroke="#444444" d="M715.08,-446.89C724.87,-437.27 737.94,-425.52 751.02,-417 757.68,-412.66 764.77,-408.51 772.02,-404.58"/>
<polygon fill="#444444" stroke="#444444" points="773.42,-407.8 780.66,-400.07 770.17,-401.6 773.42,-407.8"/>
<text xml:space="preserve" text-anchor="middle" x="764.9" y="-419.5" font-family="Helvetica,sans-Serif" font-size="10.00">invalid</text>
</g>
<!-- pack_sys -->
<g id="node10" class="node">
<title>pack_sys</title>
<path fill="#eef5fb" stroke="#1f4e79" d="M726.65,-292C726.65,-292 658.9,-292 658.9,-292 652.9,-292 646.9,-286 646.9,-280 646.9,-280 646.9,-268 646.9,-268 646.9,-262 652.9,-256 658.9,-256 658.9,-256 726.65,-256 726.65,-256 732.65,-256 738.65,-262 738.65,-268 738.65,-268 738.65,-280 738.65,-280 738.65,-286 732.65,-292 726.65,-292"/>
<text xml:space="preserve" text-anchor="middle" x="692.77" y="-270.3" font-family="Helvetica,sans-Serif" font-size="11.00">pack_chan_row</text>
</g>
<!-- mux_sys&#45;&gt;pack_sys -->
<g id="edge11" class="edge">
<title>mux_sys&#45;&gt;pack_sys</title>
<path fill="none" stroke="#444444" d="M588.37,-328.72C608.69,-318.27 630.51,-307.04 648.92,-297.57"/>
<polygon fill="#444444" stroke="#444444" points="650.41,-300.74 657.7,-293.05 647.21,-294.51 650.41,-300.74"/>
</g>
<!-- pack_apri -->
<g id="node11" class="node">
<title>pack_apri</title>
<path fill="#eef5fb" stroke="#1f4e79" d="M895.15,-292C895.15,-292 836.4,-292 836.4,-292 830.4,-292 824.4,-286 824.4,-280 824.4,-280 824.4,-268 824.4,-268 824.4,-262 830.4,-256 836.4,-256 836.4,-256 895.15,-256 895.15,-256 901.15,-256 907.15,-262 907.15,-268 907.15,-268 907.15,-280 907.15,-280 907.15,-286 901.15,-292 895.15,-292"/>
<text xml:space="preserve" text-anchor="middle" x="865.77" y="-270.3" font-family="Helvetica,sans-Serif" font-size="11.00">pack_ext_row</text>
</g>
<!-- mux_apri&#45;&gt;pack_apri -->
<g id="edge12" class="edge">
<title>mux_apri&#45;&gt;pack_apri</title>
<path fill="none" stroke="#444444" d="M866.38,-328.72C866.29,-320.39 866.19,-311.57 866.1,-303.54"/>
<polygon fill="#444444" stroke="#444444" points="869.6,-303.59 865.98,-293.63 862.6,-303.67 869.6,-303.59"/>
</g>
<!-- bsys -->
<g id="node12" class="node">
<title>bsys</title>
<path fill="#fff2cc" stroke="#555555" d="M771.65,-208C771.65,-208 697.9,-208 697.9,-208 691.9,-208 685.9,-202 685.9,-196 685.9,-196 685.9,-184 685.9,-184 685.9,-178 691.9,-172 697.9,-172 697.9,-172 771.65,-172 771.65,-172 777.65,-172 783.65,-178 783.65,-184 783.65,-184 783.65,-196 783.65,-196 783.65,-202 777.65,-208 771.65,-208"/>
<text xml:space="preserve" text-anchor="middle" x="734.77" y="-193.05" font-family="Helvetica,sans-Serif" font-size="11.00">batcher_slave</text>
<text xml:space="preserve" text-anchor="middle" x="734.77" y="-179.55" font-family="Helvetica,sans-Serif" font-size="11.00">forward sys even</text>
</g>
<!-- pack_sys&#45;&gt;bsys -->
<g id="edge13" class="edge">
<title>pack_sys&#45;&gt;bsys</title>
<path fill="none" stroke="#444444" d="M701.68,-255.61C707.19,-244.85 714.39,-230.79 720.67,-218.54"/>
<polygon fill="#444444" stroke="#444444" points="723.74,-220.21 725.19,-209.71 717.51,-217.02 723.74,-220.21"/>
<text xml:space="preserve" text-anchor="middle" x="732.04" y="-228.5" font-family="Helvetica,sans-Serif" font-size="10.00">data_in</text>
</g>
<!-- bapri -->
<g id="node13" class="node">
<title>bapri</title>
<path fill="#fff2cc" stroke="#555555" d="M903.77,-208C903.77,-208 827.77,-208 827.77,-208 821.77,-208 815.77,-202 815.77,-196 815.77,-196 815.77,-184 815.77,-184 815.77,-178 821.77,-172 827.77,-172 827.77,-172 903.77,-172 903.77,-172 909.77,-172 915.77,-178 915.77,-184 915.77,-184 915.77,-196 915.77,-196 915.77,-202 909.77,-208 903.77,-208"/>
<text xml:space="preserve" text-anchor="middle" x="865.77" y="-193.05" font-family="Helvetica,sans-Serif" font-size="11.00">batcher_slave</text>
<text xml:space="preserve" text-anchor="middle" x="865.77" y="-179.55" font-family="Helvetica,sans-Serif" font-size="11.00">forward apri even</text>
</g>
<!-- pack_apri&#45;&gt;bapri -->
<g id="edge14" class="edge">
<title>pack_apri&#45;&gt;bapri</title>
<path fill="none" stroke="#444444" d="M865.77,-255.61C865.77,-245.17 865.77,-231.64 865.77,-219.66"/>
<polygon fill="#444444" stroke="#444444" points="869.27,-219.88 865.77,-209.88 862.27,-219.88 869.27,-219.88"/>
<text xml:space="preserve" text-anchor="middle" x="881.52" y="-228.5" font-family="Helvetica,sans-Serif" font-size="10.00">data_in</text>
</g>
<!-- unpack_sys -->
<g id="node14" class="node">
<title>unpack_sys</title>
<path fill="#eef5fb" stroke="#1f4e79" d="M785.65,-135C785.65,-135 705.9,-135 705.9,-135 699.9,-135 693.9,-129 693.9,-123 693.9,-123 693.9,-111 693.9,-111 693.9,-105 699.9,-99 705.9,-99 705.9,-99 785.65,-99 785.65,-99 791.65,-99 797.65,-105 797.65,-111 797.65,-111 797.65,-123 797.65,-123 797.65,-129 791.65,-135 785.65,-135"/>
<text xml:space="preserve" text-anchor="middle" x="745.77" y="-113.3" font-family="Helvetica,sans-Serif" font-size="11.00">unpack_chan_row</text>
</g>
<!-- bsys&#45;&gt;unpack_sys -->
<g id="edge15" class="edge">
<title>bsys&#45;&gt;unpack_sys</title>
<path fill="none" stroke="#444444" d="M737.43,-171.81C738.62,-164.14 740.06,-154.89 741.39,-146.24"/>
<polygon fill="#444444" stroke="#444444" points="744.83,-146.94 742.9,-136.52 737.91,-145.87 744.83,-146.94"/>
</g>
<!-- unpack_apri -->
<g id="node15" class="node">
<title>unpack_apri</title>
<path fill="#eef5fb" stroke="#1f4e79" d="M900.15,-135C900.15,-135 829.4,-135 829.4,-135 823.4,-135 817.4,-129 817.4,-123 817.4,-123 817.4,-111 817.4,-111 817.4,-105 823.4,-99 829.4,-99 829.4,-99 900.15,-99 900.15,-99 906.15,-99 912.15,-105 912.15,-111 912.15,-111 912.15,-123 912.15,-123 912.15,-129 906.15,-135 900.15,-135"/>
<text xml:space="preserve" text-anchor="middle" x="864.77" y="-113.3" font-family="Helvetica,sans-Serif" font-size="11.00">unpack_ext_row</text>
</g>
<!-- bapri&#45;&gt;unpack_apri -->
<g id="edge16" class="edge">
<title>bapri&#45;&gt;unpack_apri</title>
<path fill="none" stroke="#444444" d="M865.53,-171.81C865.42,-164.23 865.29,-155.1 865.17,-146.54"/>
<polygon fill="#444444" stroke="#444444" points="868.67,-146.49 865.03,-136.54 861.67,-146.59 868.67,-146.49"/>
</g>
<!-- out -->
<g id="node16" class="node">
<title>out</title>
<path fill="#d9ead3" stroke="#555555" d="M873.65,-62C873.65,-62 733.9,-62 733.9,-62 727.9,-62 721.9,-56 721.9,-50 721.9,-50 721.9,-12 721.9,-12 721.9,-6 727.9,0 733.9,0 733.9,0 873.65,0 873.65,0 879.65,0 885.65,-6 885.65,-12 885.65,-12 885.65,-50 885.65,-50 885.65,-56 879.65,-62 873.65,-62"/>
<text xml:space="preserve" text-anchor="middle" x="803.77" y="-47.55" font-family="Helvetica,sans-Serif" font-size="11.00">phase2_sys_even_lane</text>
<text xml:space="preserve" text-anchor="middle" x="803.77" y="-34.05" font-family="Helvetica,sans-Serif" font-size="11.00">phase2_apri_even_lane</text>
<text xml:space="preserve" text-anchor="middle" x="803.77" y="-20.55" font-family="Helvetica,sans-Serif" font-size="11.00">same shell repeats for odd row</text>
<text xml:space="preserve" text-anchor="middle" x="803.77" y="-7.05" font-family="Helvetica,sans-Serif" font-size="11.00">4 total select&#45;router shells</text>
</g>
<!-- unpack_sys&#45;&gt;out -->
<g id="edge17" class="edge">
<title>unpack_sys&#45;&gt;out</title>
<path fill="none" stroke="#444444" d="M757.79,-98.6C763.21,-90.74 769.86,-81.11 776.4,-71.64"/>
<polygon fill="#444444" stroke="#444444" points="779.19,-73.76 781.99,-63.54 773.43,-69.78 779.19,-73.76"/>
</g>
<!-- unpack_apri&#45;&gt;out -->
<g id="edge18" class="edge">
<title>unpack_apri&#45;&gt;out</title>
<path fill="none" stroke="#444444" d="M852.13,-98.6C846.37,-90.66 839.29,-80.91 832.34,-71.34"/>
<polygon fill="#444444" stroke="#444444" points="835.37,-69.55 826.66,-63.52 829.7,-73.67 835.37,-69.55"/>
</g>
</g>
</svg>
