<?xml version="1.0" encoding="UTF-8" standalone="no"?>
<!DOCTYPE svg PUBLIC "-//W3C//DTD SVG 1.1//EN"
 "http://www.w3.org/Graphics/SVG/1.1/DTD/svg11.dtd">
<!-- Generated by graphviz version 14.1.2 (0)
 -->
<!-- Title: G Pages: 1 -->
<svg width="1389pt" height="648pt"
 viewBox="0.00 0.00 1389.00 648.00" xmlns="http://www.w3.org/2000/svg" xmlns:xlink="http://www.w3.org/1999/xlink">
<g id="graph0" class="graph" transform="scale(1 1) rotate(0) translate(4 643.62)">
<title>G</title>
<polygon fill="white" stroke="none" points="-4,4 -4,-643.62 1384.68,-643.62 1384.68,4 -4,4"/>
<text xml:space="preserve" text-anchor="middle" x="690.34" y="-616.62" font-family="Helvetica,sans-Serif" font-size="20.00">parallel8_top &#45; Load Scatter</text>
<!-- inval -->
<g id="node1" class="node">
<title>inval</title>
<polygon fill="#fce4d6" stroke="#c55a11" points="806.14,-451.37 730.53,-451.37 711.09,-415.37 786.69,-415.37 806.14,-451.37"/>
<text xml:space="preserve" text-anchor="middle" x="758.61" y="-429.67" font-family="Helvetica,sans-Serif" font-size="11.00">in_valid</text>
</g>
<!-- gate -->
<g id="node11" class="node">
<title>gate</title>
<ellipse fill="#e2f0d9" stroke="#548235" cx="437.61" cy="-342.44" rx="24.94" ry="24.94"/>
<text xml:space="preserve" text-anchor="middle" x="437.61" y="-338.74" font-family="Helvetica,sans-Serif" font-size="11.00">AND</text>
</g>
<!-- inval&#45;&gt;gate -->
<g id="edge7" class="edge">
<title>inval&#45;&gt;gate</title>
<path fill="none" stroke="#444444" d="M712.2,-418.16C708.96,-417.21 705.74,-416.27 702.61,-415.37 620.58,-391.79 523.66,-366 472.81,-352.63"/>
<polygon fill="#444444" stroke="#444444" points="473.82,-349.28 463.26,-350.13 472.04,-356.05 473.82,-349.28"/>
<text xml:space="preserve" text-anchor="middle" x="653.86" y="-387.87" font-family="Helvetica,sans-Serif" font-size="10.00">in_valid</text>
</g>
<!-- idx -->
<g id="node2" class="node">
<title>idx</title>
<polygon fill="#d9ebf7" stroke="#1f4e79" points="616.6,-535.37 552.99,-535.37 536.63,-499.37 600.24,-499.37 616.6,-535.37"/>
<text xml:space="preserve" text-anchor="middle" x="576.61" y="-513.67" font-family="Helvetica,sans-Serif" font-size="11.00">in_idx</text>
</g>
<!-- range -->
<g id="node9" class="node">
<title>range</title>
<polygon fill="#fde9d9" stroke="#c55a11" points="437.61,-451.37 334.91,-433.37 437.61,-415.37 540.32,-433.37 437.61,-451.37"/>
<text xml:space="preserve" text-anchor="middle" x="437.61" y="-429.67" font-family="Helvetica,sans-Serif" font-size="11.00">0 &lt;= in_idx &lt; k_len ?</text>
</g>
<!-- idx&#45;&gt;range -->
<g id="edge4" class="edge">
<title>idx&#45;&gt;range</title>
<path fill="none" stroke="#444444" d="M547.13,-498.98C524.5,-485.63 493.29,-467.21 469.97,-453.46"/>
<polygon fill="#444444" stroke="#444444" points="471.88,-450.52 461.49,-448.46 468.33,-456.55 471.88,-450.52"/>
</g>
<!-- lane_div -->
<g id="node12" class="node">
<title>lane_div</title>
<path fill="#eef5fb" stroke="#1f4e79" d="M1029.36,-360.44C1029.36,-360.44 933.86,-360.44 933.86,-360.44 927.86,-360.44 921.86,-354.44 921.86,-348.44 921.86,-348.44 921.86,-336.44 921.86,-336.44 921.86,-330.44 927.86,-324.44 933.86,-324.44 933.86,-324.44 1029.36,-324.44 1029.36,-324.44 1035.36,-324.44 1041.36,-330.44 1041.36,-336.44 1041.36,-336.44 1041.36,-348.44 1041.36,-348.44 1041.36,-354.44 1035.36,-360.44 1029.36,-360.44"/>
<text xml:space="preserve" text-anchor="middle" x="981.61" y="-345.49" font-family="Helvetica,sans-Serif" font-size="11.00">DIV</text>
<text xml:space="preserve" text-anchor="middle" x="981.61" y="-331.99" font-family="Helvetica,sans-Serif" font-size="11.00">lane_i = in_idx / seg_i</text>
</g>
<!-- idx&#45;&gt;lane_div -->
<g id="edge10" class="edge">
<title>idx&#45;&gt;lane_div</title>
<path fill="none" stroke="#444444" d="M603.95,-506.42C610.97,-503.99 618.54,-501.49 625.61,-499.37 709.06,-474.41 735.8,-486.25 815.61,-451.37 866.5,-429.13 919.27,-391.98 951.28,-367.59"/>
<polygon fill="#444444" stroke="#444444" points="953.15,-370.57 958.93,-361.69 948.88,-365.02 953.15,-370.57"/>
</g>
<!-- row_mod -->
<g id="node13" class="node">
<title>row_mod</title>
<path fill="#eef5fb" stroke="#1f4e79" d="M681.24,-451.37C681.24,-451.37 569.99,-451.37 569.99,-451.37 563.99,-451.37 557.99,-445.37 557.99,-439.37 557.99,-439.37 557.99,-427.37 557.99,-427.37 557.99,-421.37 563.99,-415.37 569.99,-415.37 569.99,-415.37 681.24,-415.37 681.24,-415.37 687.24,-415.37 693.24,-421.37 693.24,-427.37 693.24,-427.37 693.24,-439.37 693.24,-439.37 693.24,-445.37 687.24,-451.37 681.24,-451.37"/>
<text xml:space="preserve" text-anchor="middle" x="625.61" y="-436.42" font-family="Helvetica,sans-Serif" font-size="11.00">MOD</text>
<text xml:space="preserve" text-anchor="middle" x="625.61" y="-422.92" font-family="Helvetica,sans-Serif" font-size="11.00">row_i = in_idx mod seg_i</text>
</g>
<!-- idx&#45;&gt;row_mod -->
<g id="edge12" class="edge">
<title>idx&#45;&gt;row_mod</title>
<path fill="none" stroke="#444444" d="M587,-498.98C593.5,-488.11 602.01,-473.88 609.38,-461.54"/>
<polygon fill="#444444" stroke="#444444" points="612.34,-463.41 614.46,-453.03 606.33,-459.82 612.34,-463.41"/>
</g>
<!-- klen -->
<g id="node3" class="node">
<title>klen</title>
<polygon fill="#d9ebf7" stroke="#1f4e79" points="414.54,-608.37 354.2,-608.37 338.68,-572.37 399.02,-572.37 414.54,-608.37"/>
<text xml:space="preserve" text-anchor="middle" x="376.61" y="-586.67" font-family="Helvetica,sans-Serif" font-size="11.00">k_len</text>
</g>
<!-- mod8 -->
<g id="node7" class="node">
<title>mod8</title>
<path fill="#eef5fb" stroke="#1f4e79" d="M345.86,-535.37C345.86,-535.37 307.36,-535.37 307.36,-535.37 301.36,-535.37 295.36,-529.37 295.36,-523.37 295.36,-523.37 295.36,-511.37 295.36,-511.37 295.36,-505.37 301.36,-499.37 307.36,-499.37 307.36,-499.37 345.86,-499.37 345.86,-499.37 351.86,-499.37 357.86,-505.37 357.86,-511.37 357.86,-511.37 357.86,-523.37 357.86,-523.37 357.86,-529.37 351.86,-535.37 345.86,-535.37"/>
<text xml:space="preserve" text-anchor="middle" x="326.61" y="-520.42" font-family="Helvetica,sans-Serif" font-size="11.00">MOD</text>
<text xml:space="preserve" text-anchor="middle" x="326.61" y="-506.92" font-family="Helvetica,sans-Serif" font-size="11.00">k_i mod 8</text>
</g>
<!-- klen&#45;&gt;mod8 -->
<g id="edge1" class="edge">
<title>klen&#45;&gt;mod8</title>
<path fill="none" stroke="#444444" d="M364.51,-572.18C358.68,-563.9 351.55,-553.78 345.06,-544.56"/>
<polygon fill="#444444" stroke="#444444" points="348.1,-542.8 339.48,-536.64 342.37,-546.83 348.1,-542.8"/>
</g>
<!-- div8 -->
<g id="node8" class="node">
<title>div8</title>
<path fill="#eef5fb" stroke="#1f4e79" d="M704.99,-535.37C704.99,-535.37 646.24,-535.37 646.24,-535.37 640.24,-535.37 634.24,-529.37 634.24,-523.37 634.24,-523.37 634.24,-511.37 634.24,-511.37 634.24,-505.37 640.24,-499.37 646.24,-499.37 646.24,-499.37 704.99,-499.37 704.99,-499.37 710.99,-499.37 716.99,-505.37 716.99,-511.37 716.99,-511.37 716.99,-523.37 716.99,-523.37 716.99,-529.37 710.99,-535.37 704.99,-535.37"/>
<text xml:space="preserve" text-anchor="middle" x="675.61" y="-520.42" font-family="Helvetica,sans-Serif" font-size="11.00">DIV</text>
<text xml:space="preserve" text-anchor="middle" x="675.61" y="-506.92" font-family="Helvetica,sans-Serif" font-size="11.00">seg_i = k_i / 8</text>
</g>
<!-- klen&#45;&gt;div8 -->
<g id="edge2" class="edge">
<title>klen&#45;&gt;div8</title>
<path fill="none" stroke="#444444" d="M404.5,-584.4C448.87,-576.26 538.4,-558.91 622.9,-535.97"/>
<polygon fill="#444444" stroke="#444444" points="623.81,-539.35 632.52,-533.32 621.95,-532.6 623.81,-539.35"/>
</g>
<!-- klen&#45;&gt;range -->
<g id="edge3" class="edge">
<title>klen&#45;&gt;range</title>
<path fill="none" stroke="#444444" d="M383.49,-571.89C394.09,-544.96 414.5,-493.09 427,-461.33"/>
<polygon fill="#444444" stroke="#444444" points="430.26,-462.61 430.67,-452.02 423.75,-460.05 430.26,-462.61"/>
</g>
<!-- kok -->
<g id="node10" class="node">
<title>kok</title>
<polygon fill="#fde9d9" stroke="#c55a11" points="187.61,-451.37 58.46,-433.37 187.61,-415.37 316.77,-433.37 187.61,-451.37"/>
<text xml:space="preserve" text-anchor="middle" x="187.61" y="-429.67" font-family="Helvetica,sans-Serif" font-size="11.00">k_i &gt; 0 and k_i mod 8 = 0 ?</text>
</g>
<!-- klen&#45;&gt;kok -->
<g id="edge5" class="edge">
<title>klen&#45;&gt;kok</title>
<path fill="none" stroke="#444444" d="M343.23,-572.03C325.67,-562.26 304.21,-549.25 286.61,-535.37 256.93,-511.95 227.13,-480.16 208.1,-458.54"/>
<polygon fill="#444444" stroke="#444444" points="210.83,-456.35 201.63,-451.1 205.55,-460.94 210.83,-456.35"/>
</g>
<!-- sys -->
<g id="node4" class="node">
<title>sys</title>
<polygon fill="#d9ebf7" stroke="#1f4e79" points="904.2,-360.44 825.32,-360.44 805.03,-324.44 883.91,-324.44 904.2,-360.44"/>
<text xml:space="preserve" text-anchor="middle" x="854.61" y="-338.74" font-family="Helvetica,sans-Serif" font-size="11.00">l_sys_in</text>
</g>
<!-- bus_sys -->
<g id="node19" class="node">
<title>bus_sys</title>
<path fill="#eef5fb" stroke="#1f4e79" d="M983.24,-252.5C983.24,-252.5 907.99,-252.5 907.99,-252.5 901.99,-252.5 895.99,-246.5 895.99,-240.5 895.99,-240.5 895.99,-228.5 895.99,-228.5 895.99,-222.5 901.99,-216.5 907.99,-216.5 907.99,-216.5 983.24,-216.5 983.24,-216.5 989.24,-216.5 995.24,-222.5 995.24,-228.5 995.24,-228.5 995.24,-240.5 995.24,-240.5 995.24,-246.5 989.24,-252.5 983.24,-252.5"/>
<text xml:space="preserve" text-anchor="middle" x="945.61" y="-237.55" font-family="Helvetica,sans-Serif" font-size="11.00">single_chan_lane</text>
<text xml:space="preserve" text-anchor="middle" x="945.61" y="-224.05" font-family="Helvetica,sans-Serif" font-size="11.00">load_sys_bus</text>
</g>
<!-- sys&#45;&gt;bus_sys -->
<g id="edge21" class="edge">
<title>sys&#45;&gt;bus_sys</title>
<path fill="none" stroke="#444444" d="M869.64,-323.94C884.28,-306.9 906.72,-280.78 923.42,-261.34"/>
<polygon fill="#444444" stroke="#444444" points="926.02,-263.68 929.88,-253.82 920.71,-259.12 926.02,-263.68"/>
</g>
<!-- par1 -->
<g id="node5" class="node">
<title>par1</title>
<polygon fill="#d9ebf7" stroke="#1f4e79" points="1380.68,-360.44 1293.08,-360.44 1270.54,-324.44 1358.15,-324.44 1380.68,-360.44"/>
<text xml:space="preserve" text-anchor="middle" x="1325.61" y="-338.74" font-family="Helvetica,sans-Serif" font-size="11.00">l_par1_in</text>
</g>
<!-- bus_par1 -->
<g id="node20" class="node">
<title>bus_par1</title>
<path fill="#eef5fb" stroke="#1f4e79" d="M1358.24,-252.5C1358.24,-252.5 1282.99,-252.5 1282.99,-252.5 1276.99,-252.5 1270.99,-246.5 1270.99,-240.5 1270.99,-240.5 1270.99,-228.5 1270.99,-228.5 1270.99,-222.5 1276.99,-216.5 1282.99,-216.5 1282.99,-216.5 1358.24,-216.5 1358.24,-216.5 1364.24,-216.5 1370.24,-222.5 1370.24,-228.5 1370.24,-228.5 1370.24,-240.5 1370.24,-240.5 1370.24,-246.5 1364.24,-252.5 1358.24,-252.5"/>
<text xml:space="preserve" text-anchor="middle" x="1320.61" y="-237.55" font-family="Helvetica,sans-Serif" font-size="11.00">single_chan_lane</text>
<text xml:space="preserve" text-anchor="middle" x="1320.61" y="-224.05" font-family="Helvetica,sans-Serif" font-size="11.00">load_par1_bus</text>
</g>
<!-- par1&#45;&gt;bus_par1 -->
<g id="edge23" class="edge">
<title>par1&#45;&gt;bus_par1</title>
<path fill="none" stroke="#444444" d="M1324.79,-323.94C1324.02,-307.67 1322.86,-283.12 1321.96,-264.02"/>
<polygon fill="#444444" stroke="#444444" points="1325.46,-264 1321.49,-254.18 1318.47,-264.33 1325.46,-264"/>
</g>
<!-- par2 -->
<g id="node6" class="node">
<title>par2</title>
<polygon fill="#d9ebf7" stroke="#1f4e79" points="1252.68,-360.44 1165.08,-360.44 1142.54,-324.44 1230.15,-324.44 1252.68,-360.44"/>
<text xml:space="preserve" text-anchor="middle" x="1197.61" y="-338.74" font-family="Helvetica,sans-Serif" font-size="11.00">l_par2_in</text>
</g>
<!-- bus_par2 -->
<g id="node21" class="node">
<title>bus_par2</title>
<path fill="#eef5fb" stroke="#1f4e79" d="M1241.24,-252.5C1241.24,-252.5 1165.99,-252.5 1165.99,-252.5 1159.99,-252.5 1153.99,-246.5 1153.99,-240.5 1153.99,-240.5 1153.99,-228.5 1153.99,-228.5 1153.99,-222.5 1159.99,-216.5 1165.99,-216.5 1165.99,-216.5 1241.24,-216.5 1241.24,-216.5 1247.24,-216.5 1253.24,-222.5 1253.24,-228.5 1253.24,-228.5 1253.24,-240.5 1253.24,-240.5 1253.24,-246.5 1247.24,-252.5 1241.24,-252.5"/>
<text xml:space="preserve" text-anchor="middle" x="1203.61" y="-237.55" font-family="Helvetica,sans-Serif" font-size="11.00">single_chan_lane</text>
<text xml:space="preserve" text-anchor="middle" x="1203.61" y="-224.05" font-family="Helvetica,sans-Serif" font-size="11.00">load_par2_bus</text>
</g>
<!-- par2&#45;&gt;bus_par2 -->
<g id="edge25" class="edge">
<title>par2&#45;&gt;bus_par2</title>
<path fill="none" stroke="#444444" d="M1198.6,-323.94C1199.53,-307.67 1200.92,-283.12 1202,-264.02"/>
<polygon fill="#444444" stroke="#444444" points="1205.48,-264.36 1202.56,-254.18 1198.5,-263.96 1205.48,-264.36"/>
</g>
<!-- mod8&#45;&gt;kok -->
<g id="edge6" class="edge">
<title>mod8&#45;&gt;kok</title>
<path fill="none" stroke="#444444" d="M301.33,-499.01C287.7,-489.86 270.46,-478.65 254.61,-469.37 245.22,-463.87 234.87,-458.25 225.18,-453.18"/>
<polygon fill="#444444" stroke="#444444" points="226.83,-450.09 216.34,-448.61 223.62,-456.31 226.83,-450.09"/>
</g>
<!-- div8&#45;&gt;lane_div -->
<g id="edge11" class="edge">
<title>div8&#45;&gt;lane_div</title>
<path fill="none" stroke="#444444" d="M717.47,-514.39C775.33,-510.92 875.97,-502.05 905.61,-481.37 943.36,-455.04 964.33,-403.7 974.26,-371.62"/>
<polygon fill="#444444" stroke="#444444" points="977.56,-372.79 977.01,-362.21 970.84,-370.83 977.56,-372.79"/>
<text xml:space="preserve" text-anchor="middle" x="968.79" y="-429.87" font-family="Helvetica,sans-Serif" font-size="10.00">seg_i</text>
</g>
<!-- div8&#45;&gt;row_mod -->
<g id="edge13" class="edge">
<title>div8&#45;&gt;row_mod</title>
<path fill="none" stroke="#444444" d="M665.01,-498.98C658.38,-488.11 649.7,-473.88 642.18,-461.54"/>
<polygon fill="#444444" stroke="#444444" points="645.18,-459.74 636.99,-453.03 639.21,-463.39 645.18,-459.74"/>
<text xml:space="preserve" text-anchor="middle" x="665.23" y="-471.87" font-family="Helvetica,sans-Serif" font-size="10.00">seg_i</text>
</g>
<!-- range&#45;&gt;gate -->
<g id="edge8" class="edge">
<title>range&#45;&gt;gate</title>
<path fill="none" stroke="#444444" d="M437.61,-415.22C437.61,-404.97 437.61,-391.56 437.61,-379.1"/>
<polygon fill="#444444" stroke="#444444" points="441.11,-379.1 437.61,-369.1 434.11,-379.1 441.11,-379.1"/>
<text xml:space="preserve" text-anchor="middle" x="457.49" y="-387.87" font-family="Helvetica,sans-Serif" font-size="10.00">range_ok</text>
</g>
<!-- kok&#45;&gt;gate -->
<g id="edge9" class="edge">
<title>kok&#45;&gt;gate</title>
<path fill="none" stroke="#444444" d="M222.9,-419.82C270.88,-402.75 356.11,-372.43 403.48,-355.58"/>
<polygon fill="#444444" stroke="#444444" points="404.43,-358.96 412.67,-352.31 402.08,-352.36 404.43,-358.96"/>
<text xml:space="preserve" text-anchor="middle" x="323.11" y="-387.87" font-family="Helvetica,sans-Serif" font-size="10.00">k_ok</text>
</g>
<!-- lane_ok -->
<g id="node16" class="node">
<title>lane_ok</title>
<polygon fill="#fde9d9" stroke="#c55a11" points="791.61,-252.5 705.44,-234.5 791.61,-216.5 877.79,-234.5 791.61,-252.5"/>
<text xml:space="preserve" text-anchor="middle" x="791.61" y="-230.8" font-family="Helvetica,sans-Serif" font-size="11.00">0 &lt;= lane_i &lt; 8 ?</text>
</g>
<!-- gate&#45;&gt;lane_ok -->
<g id="edge18" class="edge">
<title>gate&#45;&gt;lane_ok</title>
<path fill="none" stroke="#444444" stroke-dasharray="5,2" d="M459.72,-330.57C485.74,-318.24 530.56,-298.43 571.11,-287.5 625.52,-272.84 641.92,-283.06 696.61,-269.5 715.58,-264.8 736.06,-257.74 753.13,-251.26"/>
<polygon fill="#444444" stroke="#444444" points="754.33,-254.55 762.39,-247.68 751.8,-248.02 754.33,-254.55"/>
<text xml:space="preserve" text-anchor="middle" x="585.36" y="-290" font-family="Helvetica,sans-Serif" font-size="10.00">enable</text>
</g>
<!-- pair_ok -->
<g id="node17" class="node">
<title>pair_ok</title>
<polygon fill="#fde9d9" stroke="#c55a11" points="186.61,-252.5 46.22,-234.5 186.61,-216.5 327.01,-234.5 186.61,-252.5"/>
<text xml:space="preserve" text-anchor="middle" x="186.61" y="-230.8" font-family="Helvetica,sans-Serif" font-size="11.00">0 &lt;= pair_i &lt; C_PAIR_MAX ?</text>
</g>
<!-- gate&#45;&gt;pair_ok -->
<g id="edge19" class="edge">
<title>gate&#45;&gt;pair_ok</title>
<path fill="none" stroke="#444444" stroke-dasharray="5,2" d="M414.9,-331.85C372.9,-314.12 282.52,-275.98 228.94,-253.36"/>
<polygon fill="#444444" stroke="#444444" points="230.38,-250.17 219.81,-249.51 227.66,-256.62 230.38,-250.17"/>
<text xml:space="preserve" text-anchor="middle" x="348.84" y="-290" font-family="Helvetica,sans-Serif" font-size="10.00">enable</text>
</g>
<!-- even_we -->
<g id="node22" class="node">
<title>even_we</title>
<polygon fill="#e2f0d9" stroke="#548235" points="652.38,-269.5 554.85,-269.5 520.11,-199.5 687.11,-199.5 652.38,-269.5"/>
<text xml:space="preserve" text-anchor="middle" x="603.61" y="-237.55" font-family="Helvetica,sans-Serif" font-size="11.00">MUX</text>
<text xml:space="preserve" text-anchor="middle" x="603.61" y="-224.05" font-family="Helvetica,sans-Serif" font-size="11.00">load_even_en</text>
</g>
<!-- gate&#45;&gt;even_we -->
<g id="edge27" class="edge">
<title>gate&#45;&gt;even_we</title>
<path fill="none" stroke="#444444" d="M447.44,-319.11C453.11,-308.35 461.17,-295.97 471.36,-287.5 477.11,-282.72 507.07,-270.81 537.01,-259.59"/>
<polygon fill="#444444" stroke="#444444" points="538,-262.96 546.15,-256.2 535.56,-256.4 538,-262.96"/>
<text xml:space="preserve" text-anchor="middle" x="481.49" y="-290" font-family="Helvetica,sans-Serif" font-size="10.00">valid</text>
</g>
<!-- odd_we -->
<g id="node23" class="node">
<title>odd_we</title>
<polygon fill="#e2f0d9" stroke="#548235" points="469.31,-269.5 377.91,-269.5 345.36,-199.5 501.86,-199.5 469.31,-269.5"/>
<text xml:space="preserve" text-anchor="middle" x="423.61" y="-237.55" font-family="Helvetica,sans-Serif" font-size="11.00">MUX</text>
<text xml:space="preserve" text-anchor="middle" x="423.61" y="-224.05" font-family="Helvetica,sans-Serif" font-size="11.00">load_odd_en</text>
</g>
<!-- gate&#45;&gt;odd_we -->
<g id="edge28" class="edge">
<title>gate&#45;&gt;odd_we</title>
<path fill="none" stroke="#444444" d="M429.79,-318.61C428.01,-312.47 426.35,-305.79 425.36,-299.5 424.43,-293.53 423.81,-287.21 423.41,-280.95"/>
<polygon fill="#444444" stroke="#444444" points="426.93,-281.21 423,-271.37 419.94,-281.51 426.93,-281.21"/>
<text xml:space="preserve" text-anchor="middle" x="435.49" y="-290" font-family="Helvetica,sans-Serif" font-size="10.00">valid</text>
</g>
<!-- lane_div&#45;&gt;lane_ok -->
<g id="edge16" class="edge">
<title>lane_div&#45;&gt;lane_ok</title>
<path fill="none" stroke="#444444" d="M950.24,-323.94C915.42,-304.53 859.48,-273.34 824.19,-253.66"/>
<polygon fill="#444444" stroke="#444444" points="826.14,-250.74 815.7,-248.93 822.73,-256.85 826.14,-250.74"/>
</g>
<!-- lane_dec -->
<g id="node18" class="node">
<title>lane_dec</title>
<path fill="#eef5fb" stroke="#1f4e79" d="M1123.86,-252.5C1123.86,-252.5 1025.36,-252.5 1025.36,-252.5 1019.36,-252.5 1013.36,-246.5 1013.36,-240.5 1013.36,-240.5 1013.36,-228.5 1013.36,-228.5 1013.36,-222.5 1019.36,-216.5 1025.36,-216.5 1025.36,-216.5 1123.86,-216.5 1123.86,-216.5 1129.86,-216.5 1135.86,-222.5 1135.86,-228.5 1135.86,-228.5 1135.86,-240.5 1135.86,-240.5 1135.86,-246.5 1129.86,-252.5 1123.86,-252.5"/>
<text xml:space="preserve" text-anchor="middle" x="1074.61" y="-237.55" font-family="Helvetica,sans-Serif" font-size="11.00">One&#45;Hot Decoder</text>
<text xml:space="preserve" text-anchor="middle" x="1074.61" y="-224.05" font-family="Helvetica,sans-Serif" font-size="11.00">lane_we_v(lane_i) = 1</text>
</g>
<!-- lane_div&#45;&gt;lane_dec -->
<g id="edge20" class="edge">
<title>lane_div&#45;&gt;lane_dec</title>
<path fill="none" stroke="#444444" d="M996.97,-323.94C1012,-306.82 1035.07,-280.54 1052.16,-261.08"/>
<polygon fill="#444444" stroke="#444444" points="1054.58,-263.63 1058.54,-253.8 1049.32,-259.01 1054.58,-263.63"/>
</g>
<!-- lane_div&#45;&gt;bus_sys -->
<g id="edge22" class="edge">
<title>lane_div&#45;&gt;bus_sys</title>
<path fill="none" stroke="#444444" d="M973.28,-324.12C969.87,-316.65 966.04,-307.75 963.11,-299.5 959.02,-287.98 955.32,-275.01 952.38,-263.78"/>
<polygon fill="#444444" stroke="#444444" points="955.83,-263.13 949.98,-254.29 949.04,-264.85 955.83,-263.13"/>
<text xml:space="preserve" text-anchor="middle" x="975.86" y="-290" font-family="Helvetica,sans-Serif" font-size="10.00">lane_i</text>
</g>
<!-- lane_div&#45;&gt;bus_par1 -->
<g id="edge24" class="edge">
<title>lane_div&#45;&gt;bus_par1</title>
<path fill="none" stroke="#444444" d="M1041.83,-331.09C1099.81,-319.96 1189.27,-299.68 1262.61,-269.5 1270.11,-266.42 1277.8,-262.5 1285.04,-258.44"/>
<polygon fill="#444444" stroke="#444444" points="1286.39,-261.7 1293.26,-253.63 1282.86,-255.66 1286.39,-261.7"/>
<text xml:space="preserve" text-anchor="middle" x="1223.35" y="-290" font-family="Helvetica,sans-Serif" font-size="10.00">lane_i</text>
</g>
<!-- lane_div&#45;&gt;bus_par2 -->
<g id="edge26" class="edge">
<title>lane_div&#45;&gt;bus_par2</title>
<path fill="none" stroke="#444444" d="M1018.17,-324.04C1041.25,-313.22 1071.76,-299.18 1099.11,-287.5 1119.11,-278.96 1125.03,-278.95 1144.61,-269.5 1151.48,-266.18 1158.63,-262.38 1165.49,-258.55"/>
<polygon fill="#444444" stroke="#444444" points="1167,-261.71 1173.94,-253.71 1163.53,-255.64 1167,-261.71"/>
<text xml:space="preserve" text-anchor="middle" x="1111.86" y="-290" font-family="Helvetica,sans-Serif" font-size="10.00">lane_i</text>
</g>
<!-- pair_div -->
<g id="node14" class="node">
<title>pair_div</title>
<path fill="#eef5fb" stroke="#1f4e79" d="M222.74,-360.44C222.74,-360.44 150.49,-360.44 150.49,-360.44 144.49,-360.44 138.49,-354.44 138.49,-348.44 138.49,-348.44 138.49,-336.44 138.49,-336.44 138.49,-330.44 144.49,-324.44 150.49,-324.44 150.49,-324.44 222.74,-324.44 222.74,-324.44 228.74,-324.44 234.74,-330.44 234.74,-336.44 234.74,-336.44 234.74,-348.44 234.74,-348.44 234.74,-354.44 228.74,-360.44 222.74,-360.44"/>
<text xml:space="preserve" text-anchor="middle" x="186.61" y="-345.49" font-family="Helvetica,sans-Serif" font-size="11.00">DIV2</text>
<text xml:space="preserve" text-anchor="middle" x="186.61" y="-331.99" font-family="Helvetica,sans-Serif" font-size="11.00">pair_i = row_i / 2</text>
</g>
<!-- row_mod&#45;&gt;pair_div -->
<g id="edge14" class="edge">
<title>row_mod&#45;&gt;pair_div</title>
<path fill="none" stroke="#444444" d="M557.71,-416.95C554.98,-416.4 552.27,-415.87 549.61,-415.37 498.35,-405.67 484.9,-406.94 433.61,-397.37 369.23,-385.36 295.99,-369.02 246.08,-357.49"/>
<polygon fill="#444444" stroke="#444444" points="247.18,-354.15 236.65,-355.3 245.6,-360.97 247.18,-354.15"/>
</g>
<!-- odd -->
<g id="node15" class="node">
<title>odd</title>
<polygon fill="#fde9d9" stroke="#c55a11" points="603.61,-360.44 539.92,-342.44 603.61,-324.44 667.31,-342.44 603.61,-360.44"/>
<text xml:space="preserve" text-anchor="middle" x="603.61" y="-338.74" font-family="Helvetica,sans-Serif" font-size="11.00">row_i odd ?</text>
</g>
<!-- row_mod&#45;&gt;odd -->
<g id="edge15" class="edge">
<title>row_mod&#45;&gt;odd</title>
<path fill="none" stroke="#444444" d="M621.37,-415.22C618.24,-402.56 613.91,-385.06 610.31,-370.52"/>
<polygon fill="#444444" stroke="#444444" points="613.78,-369.97 607.98,-361.1 606.99,-371.65 613.78,-369.97"/>
</g>
<!-- pair_div&#45;&gt;pair_ok -->
<g id="edge17" class="edge">
<title>pair_div&#45;&gt;pair_ok</title>
<path fill="none" stroke="#444444" d="M186.61,-323.94C186.61,-307.67 186.61,-283.12 186.61,-264.02"/>
<polygon fill="#444444" stroke="#444444" points="190.11,-264.18 186.61,-254.18 183.11,-264.18 190.11,-264.18"/>
</g>
<!-- out -->
<g id="node24" class="node">
<title>out</title>
<path fill="#f8f6ef" stroke="#555555" d="M880.24,-0.5C880.24,-0.5 1010.99,-0.5 1010.99,-0.5 1016.99,-0.5 1022.99,-6.5 1022.99,-12.5 1022.99,-12.5 1022.99,-139 1022.99,-139 1022.99,-145 1016.99,-151 1010.99,-151 1010.99,-151 880.24,-151 880.24,-151 874.24,-151 868.24,-145 868.24,-139 868.24,-139 868.24,-12.5 868.24,-12.5 868.24,-6.5 874.24,-0.5 880.24,-0.5"/>
<text xml:space="preserve" text-anchor="middle" x="945.61" y="-136.55" font-family="Helvetica,sans-Serif" font-size="11.00">Scatter Outputs</text>
<polyline fill="none" stroke="#555555" points="868.24,-129.5 1022.99,-129.5"/>
<text xml:space="preserve" text-anchor="middle" x="945.61" y="-115.05" font-family="Helvetica,sans-Serif" font-size="11.00">load_pair_addr</text>
<polyline fill="none" stroke="#555555" points="868.24,-108 1022.99,-108"/>
<text xml:space="preserve" text-anchor="middle" x="945.61" y="-93.55" font-family="Helvetica,sans-Serif" font-size="11.00">load_lane_we</text>
<polyline fill="none" stroke="#555555" points="868.24,-86.5 1022.99,-86.5"/>
<text xml:space="preserve" text-anchor="middle" x="945.61" y="-72.05" font-family="Helvetica,sans-Serif" font-size="11.00">load_sys_bus</text>
<polyline fill="none" stroke="#555555" points="868.24,-65 1022.99,-65"/>
<text xml:space="preserve" text-anchor="middle" x="945.61" y="-50.55" font-family="Helvetica,sans-Serif" font-size="11.00">load_par1_bus</text>
<polyline fill="none" stroke="#555555" points="868.24,-43.5 1022.99,-43.5"/>
<text xml:space="preserve" text-anchor="middle" x="945.61" y="-29.05" font-family="Helvetica,sans-Serif" font-size="11.00">load_par2_bus</text>
<polyline fill="none" stroke="#555555" points="868.24,-22 1022.99,-22"/>
<text xml:space="preserve" text-anchor="middle" x="945.61" y="-7.55" font-family="Helvetica,sans-Serif" font-size="11.00">load_even_en / load_odd_en</text>
</g>
<!-- pair_div&#45;&gt;out -->
<g id="edge31" class="edge">
<title>pair_div&#45;&gt;out</title>
<path fill="none" stroke="#444444" d="M138.35,-335.84C97.64,-328.29 41.76,-310.63 14.36,-269.5 -2.88,-243.61 -6.15,-222.89 14.36,-199.5 69.51,-136.6 634.49,-95.68 856.61,-81.91"/>
<polygon fill="#444444" stroke="#444444" points="856.61,-85.41 866.37,-81.3 856.18,-78.43 856.61,-85.41"/>
<text xml:space="preserve" text-anchor="middle" x="25.99" y="-231" font-family="Helvetica,sans-Serif" font-size="10.00">pair_i</text>
</g>
<!-- odd&#45;&gt;even_we -->
<g id="edge29" class="edge">
<title>odd&#45;&gt;even_we</title>
<path fill="none" stroke="#444444" d="M603.61,-323.94C603.61,-312.23 603.61,-296.25 603.61,-281.08"/>
<polygon fill="#444444" stroke="#444444" points="607.11,-281.25 603.61,-271.25 600.11,-281.25 607.11,-281.25"/>
<text xml:space="preserve" text-anchor="middle" x="609.99" y="-290" font-family="Helvetica,sans-Serif" font-size="10.00">sel</text>
</g>
<!-- odd&#45;&gt;odd_we -->
<g id="edge30" class="edge">
<title>odd&#45;&gt;odd_we</title>
<path fill="none" stroke="#444444" d="M579.24,-331.06C561.33,-323.13 536.6,-311.54 515.86,-299.5 503.63,-292.39 490.91,-284.17 478.97,-276.04"/>
<polygon fill="#444444" stroke="#444444" points="481.05,-273.22 470.84,-270.42 477.08,-278.98 481.05,-273.22"/>
<text xml:space="preserve" text-anchor="middle" x="522.24" y="-290" font-family="Helvetica,sans-Serif" font-size="10.00">sel</text>
</g>
<!-- lane_dec&#45;&gt;out -->
<g id="edge32" class="edge">
<title>lane_dec&#45;&gt;out</title>
<path fill="none" stroke="#444444" d="M1060.32,-216.13C1048.78,-202.11 1031.65,-181.3 1014.12,-160"/>
<polygon fill="#444444" stroke="#444444" points="1016.89,-157.85 1007.83,-152.35 1011.48,-162.29 1016.89,-157.85"/>
<text xml:space="preserve" text-anchor="middle" x="1058.83" y="-172" font-family="Helvetica,sans-Serif" font-size="10.00">load_lane_we</text>
</g>
<!-- bus_sys&#45;&gt;out -->
<g id="edge33" class="edge">
<title>bus_sys&#45;&gt;out</title>
<path fill="none" stroke="#444444" d="M945.61,-216.13C945.61,-202.67 945.61,-182.95 945.61,-162.55"/>
<polygon fill="#444444" stroke="#444444" points="949.11,-162.69 945.61,-152.69 942.11,-162.69 949.11,-162.69"/>
</g>
<!-- bus_par1&#45;&gt;out -->
<g id="edge34" class="edge">
<title>bus_par1&#45;&gt;out</title>
<path fill="none" stroke="#444444" d="M1293.08,-216.14C1283.61,-210.5 1272.81,-204.42 1262.61,-199.5 1187.35,-163.16 1098.35,-129.46 1033.84,-106.6"/>
<polygon fill="#444444" stroke="#444444" points="1035.32,-103.42 1024.73,-103.39 1033,-110.02 1035.32,-103.42"/>
</g>
<!-- bus_par2&#45;&gt;out -->
<g id="edge35" class="edge">
<title>bus_par2&#45;&gt;out</title>
<path fill="none" stroke="#444444" d="M1175.02,-216.13C1140.95,-195.43 1082.42,-159.87 1033.01,-129.85"/>
<polygon fill="#444444" stroke="#444444" points="1034.92,-126.92 1024.56,-124.71 1031.29,-132.9 1034.92,-126.92"/>
</g>
<!-- even_we&#45;&gt;out -->
<g id="edge36" class="edge">
<title>even_we&#45;&gt;out</title>
<path fill="none" stroke="#444444" d="M678.67,-199.1C731.42,-174.92 802.19,-142.49 857.61,-117.09"/>
<polygon fill="#444444" stroke="#444444" points="858.76,-120.41 866.39,-113.06 855.84,-114.04 858.76,-120.41"/>
</g>
<!-- odd_we&#45;&gt;out -->
<g id="edge37" class="edge">
<title>odd_we&#45;&gt;out</title>
<path fill="none" stroke="#444444" d="M500.79,-202.89C504.1,-201.72 507.38,-200.58 510.61,-199.5 629.04,-159.76 768.39,-121.97 856.85,-99.08"/>
<polygon fill="#444444" stroke="#444444" points="857.64,-102.49 866.45,-96.61 855.89,-95.72 857.64,-102.49"/>
</g>
</g>
</svg>
