<?xml version="1.0" encoding="UTF-8" standalone="no"?>
<!DOCTYPE svg PUBLIC "-//W3C//DTD SVG 1.1//EN"
 "http://www.w3.org/Graphics/SVG/1.1/DTD/svg11.dtd">
<!-- Generated by graphviz version 14.1.2 (0)
 -->
<!-- Title: G Pages: 1 -->
<svg width="4267pt" height="210pt"
 viewBox="0.00 0.00 4267.00 210.00" xmlns="http://www.w3.org/2000/svg" xmlns:xlink="http://www.w3.org/1999/xlink">
<g id="graph0" class="graph" transform="scale(1 1) rotate(0) translate(4 206.25)">
<title>G</title>
<polygon fill="white" stroke="none" points="-4,4 -4,-206.25 4262.75,-206.25 4262.75,4 -4,4"/>
<text xml:space="preserve" text-anchor="middle" x="2129.38" y="-179.25" font-family="Helvetica,sans-Serif" font-size="20.00">turbo_decoder_top &#45; Active Folded Architecture</text>
<!-- input -->
<g id="node1" class="node">
<title>input</title>
<path fill="#fff2cc" stroke="#555555" d="M12,-20C12,-20 328.25,-20 328.25,-20 334.25,-20 340.25,-26 340.25,-32 340.25,-32 340.25,-44 340.25,-44 340.25,-50 334.25,-56 328.25,-56 328.25,-56 12,-56 12,-56 6,-56 0,-50 0,-44 0,-44 0,-32 0,-32 0,-26 6,-20 12,-20"/>
<text xml:space="preserve" text-anchor="middle" x="38.38" y="-34.55" font-family="Helvetica,sans-Serif" font-size="11.00">Input Loader</text>
<polyline fill="none" stroke="#555555" points="76.75,-20.5 76.75,-56"/>
<text xml:space="preserve" text-anchor="middle" x="121.12" y="-34.55" font-family="Helvetica,sans-Serif" font-size="11.00">in_valid / in_idx</text>
<polyline fill="none" stroke="#555555" points="165.5,-20.5 165.5,-56"/>
<text xml:space="preserve" text-anchor="middle" x="192.62" y="-34.55" font-family="Helvetica,sans-Serif" font-size="11.00">l_sys_in</text>
<polyline fill="none" stroke="#555555" points="219.75,-20.5 219.75,-56"/>
<text xml:space="preserve" text-anchor="middle" x="249.88" y="-34.55" font-family="Helvetica,sans-Serif" font-size="11.00">l_par1_in</text>
<polyline fill="none" stroke="#555555" points="280,-20.5 280,-56"/>
<text xml:space="preserve" text-anchor="middle" x="310.12" y="-34.55" font-family="Helvetica,sans-Serif" font-size="11.00">l_par2_in</text>
</g>
<!-- chan -->
<g id="node2" class="node">
<title>chan</title>
<path fill="#d9ead3" stroke="#555555" d="M389.25,-80C389.25,-80 853.25,-80 853.25,-80 859.25,-80 865.25,-86 865.25,-92 865.25,-92 865.25,-104 865.25,-104 865.25,-110 859.25,-116 853.25,-116 853.25,-116 389.25,-116 389.25,-116 383.25,-116 377.25,-110 377.25,-104 377.25,-104 377.25,-92 377.25,-92 377.25,-86 383.25,-80 389.25,-80"/>
<text xml:space="preserve" text-anchor="middle" x="437" y="-94.55" font-family="Helvetica,sans-Serif" font-size="11.00">Channel BRAM Bank</text>
<polyline fill="none" stroke="#555555" points="496.75,-80.5 496.75,-116"/>
<text xml:space="preserve" text-anchor="middle" x="542.25" y="-94.55" font-family="Helvetica,sans-Serif" font-size="11.00">SYS_NAT_E/O</text>
<polyline fill="none" stroke="#555555" points="587.75,-80.5 587.75,-116"/>
<text xml:space="preserve" text-anchor="middle" x="636.25" y="-94.55" font-family="Helvetica,sans-Serif" font-size="11.00">PAR1_NAT_E/O</text>
<polyline fill="none" stroke="#555555" points="684.75,-80.5 684.75,-116"/>
<text xml:space="preserve" text-anchor="middle" x="728.38" y="-94.55" font-family="Helvetica,sans-Serif" font-size="11.00">SYS_INT_E/O</text>
<polyline fill="none" stroke="#555555" points="772,-80.5 772,-116"/>
<text xml:space="preserve" text-anchor="middle" x="818.62" y="-94.55" font-family="Helvetica,sans-Serif" font-size="11.00">PAR2_INT_E/O</text>
</g>
<!-- input&#45;&gt;chan -->
<g id="edge1" class="edge">
<title>input&#45;&gt;chan</title>
<path fill="none" stroke="#444444" d="M309.54,-56.49C360.57,-63.31 418.59,-71.06 470.56,-78"/>
<polygon fill="#444444" stroke="#444444" points="470.03,-81.46 480.4,-79.32 470.95,-74.52 470.03,-81.46"/>
</g>
<!-- ext -->
<g id="node3" class="node">
<title>ext</title>
<path fill="#d9ead3" stroke="#555555" d="M1496.25,-105C1496.25,-105 1768.5,-105 1768.5,-105 1774.5,-105 1780.5,-111 1780.5,-117 1780.5,-117 1780.5,-129 1780.5,-129 1780.5,-135 1774.5,-141 1768.5,-141 1768.5,-141 1496.25,-141 1496.25,-141 1490.25,-141 1484.25,-135 1484.25,-129 1484.25,-129 1484.25,-117 1484.25,-117 1484.25,-111 1490.25,-105 1496.25,-105"/>
<text xml:space="preserve" text-anchor="middle" x="1544" y="-119.55" font-family="Helvetica,sans-Serif" font-size="11.00">Extrinsic BRAM Bank</text>
<polyline fill="none" stroke="#555555" points="1603.75,-105.5 1603.75,-141"/>
<text xml:space="preserve" text-anchor="middle" x="1648.88" y="-119.55" font-family="Helvetica,sans-Serif" font-size="11.00">EXT_NAT_E/O</text>
<polyline fill="none" stroke="#555555" points="1694,-105.5 1694,-141"/>
<text xml:space="preserve" text-anchor="middle" x="1737.25" y="-119.55" font-family="Helvetica,sans-Serif" font-size="11.00">EXT_INT_E/O</text>
</g>
<!-- input&#45;&gt;ext -->
<g id="edge2" class="edge">
<title>input&#45;&gt;ext</title>
<path fill="none" stroke="#444444" d="M340.54,-45.31C481.11,-51.56 686.22,-61.08 865.25,-71 1132.48,-85.8 1199.34,-89.25 1466.25,-109 1468.46,-109.16 1470.68,-109.33 1472.91,-109.5"/>
<polygon fill="#444444" stroke="#444444" points="1472.44,-112.97 1482.68,-110.24 1472.98,-105.99 1472.44,-112.97"/>
</g>
<!-- post -->
<g id="node4" class="node">
<title>post</title>
<path fill="#d9ead3" stroke="#555555" d="M3025,-67C3025,-67 3318.25,-67 3318.25,-67 3324.25,-67 3330.25,-73 3330.25,-79 3330.25,-79 3330.25,-91 3330.25,-91 3330.25,-97 3324.25,-103 3318.25,-103 3318.25,-103 3025,-103 3025,-103 3019,-103 3013,-97 3013,-91 3013,-91 3013,-79 3013,-79 3013,-73 3019,-67 3025,-67"/>
<text xml:space="preserve" text-anchor="middle" x="3074.25" y="-81.55" font-family="Helvetica,sans-Serif" font-size="11.00">Posterior BRAM Bank</text>
<polyline fill="none" stroke="#555555" points="3135.5,-67.5 3135.5,-103"/>
<text xml:space="preserve" text-anchor="middle" x="3182.88" y="-81.55" font-family="Helvetica,sans-Serif" font-size="11.00">POST_INT_E/O</text>
<polyline fill="none" stroke="#555555" points="3230.25,-67.5 3230.25,-103"/>
<text xml:space="preserve" text-anchor="middle" x="3280.25" y="-81.55" font-family="Helvetica,sans-Serif" font-size="11.00">FINAL_NAT_E/O</text>
</g>
<!-- input&#45;&gt;post -->
<g id="edge3" class="edge">
<title>input&#45;&gt;post</title>
<path fill="none" stroke="#444444" d="M315.99,-19.5C403.86,-9.84 518.33,0 620.25,0 620.25,0 620.25,0 2804.12,0 2915.33,0 3040.73,-37.6 3112.25,-62.78"/>
<polygon fill="#444444" stroke="#444444" points="3110.81,-65.98 3121.41,-66.05 3113.16,-59.39 3110.81,-65.98"/>
</g>
<!-- qpp -->
<g id="node5" class="node">
<title>qpp</title>
<path fill="#cfe2f3" stroke="#555555" d="M1022.75,-126C1022.75,-126 1349.25,-126 1349.25,-126 1355.25,-126 1361.25,-132 1361.25,-138 1361.25,-138 1361.25,-150 1361.25,-150 1361.25,-156 1355.25,-162 1349.25,-162 1349.25,-162 1022.75,-162 1022.75,-162 1016.75,-162 1010.75,-156 1010.75,-150 1010.75,-150 1010.75,-138 1010.75,-138 1010.75,-132 1016.75,-126 1022.75,-126"/>
<text xml:space="preserve" text-anchor="middle" x="1082.5" y="-140.55" font-family="Helvetica,sans-Serif" font-size="11.00">QPP / Permutation Engine</text>
<polyline fill="none" stroke="#555555" points="1154.25,-126.5 1154.25,-162"/>
<text xml:space="preserve" text-anchor="middle" x="1187.75" y="-140.55" font-family="Helvetica,sans-Serif" font-size="11.00">qpp_curr_i</text>
<polyline fill="none" stroke="#555555" points="1221.25,-126.5 1221.25,-162"/>
<text xml:space="preserve" text-anchor="middle" x="1257" y="-140.55" font-family="Helvetica,sans-Serif" font-size="11.00">qpp_delta_i</text>
<polyline fill="none" stroke="#555555" points="1292.75,-126.5 1292.75,-162"/>
<text xml:space="preserve" text-anchor="middle" x="1327" y="-140.55" font-family="Helvetica,sans-Serif" font-size="11.00">qpp_step_i</text>
</g>
<!-- chan&#45;&gt;qpp -->
<g id="edge4" class="edge">
<title>chan&#45;&gt;qpp</title>
<path fill="none" stroke="#444444" d="M818.88,-116.48C840.6,-118.4 862.39,-120.28 883.25,-122 920.77,-125.09 960.94,-128.18 999.32,-131.02"/>
<polygon fill="#444444" stroke="#444444" points="998.89,-134.5 1009.12,-131.74 999.41,-127.51 998.89,-134.5"/>
<text xml:space="preserve" text-anchor="middle" x="938" y="-132.91" font-family="Helvetica,sans-Serif" font-size="10.00">build SYS_INT / permute</text>
</g>
<!-- fetch -->
<g id="node6" class="node">
<title>fetch</title>
<path fill="#cfe2f3" stroke="#555555" d="M1829.5,-63C1829.5,-63 2158,-63 2158,-63 2164,-63 2170,-69 2170,-75 2170,-75 2170,-87 2170,-87 2170,-93 2164,-99 2158,-99 2158,-99 1829.5,-99 1829.5,-99 1823.5,-99 1817.5,-93 1817.5,-87 1817.5,-87 1817.5,-75 1817.5,-75 1817.5,-69 1823.5,-63 1829.5,-63"/>
<text xml:space="preserve" text-anchor="middle" x="1873.12" y="-77.55" font-family="Helvetica,sans-Serif" font-size="11.00">SISO Fetch Service</text>
<polyline fill="none" stroke="#555555" points="1928.75,-63.5 1928.75,-99"/>
<text xml:space="preserve" text-anchor="middle" x="1997.88" y="-77.55" font-family="Helvetica,sans-Serif" font-size="11.00">request pair from BRAMs</text>
<polyline fill="none" stroke="#555555" points="2067,-63.5 2067,-99"/>
<text xml:space="preserve" text-anchor="middle" x="2118.5" y="-77.55" font-family="Helvetica,sans-Serif" font-size="11.00">return sys/par/apri</text>
</g>
<!-- chan&#45;&gt;fetch -->
<g id="edge8" class="edge">
<title>chan&#45;&gt;fetch</title>
<path fill="none" stroke="#444444" d="M865.69,-94.98C1134.58,-91.64 1561.69,-86.35 1805.62,-83.32"/>
<polygon fill="#444444" stroke="#444444" points="1805.63,-86.82 1815.58,-83.2 1805.54,-79.82 1805.63,-86.82"/>
</g>
<!-- ext&#45;&gt;qpp -->
<g id="edge5" class="edge">
<title>ext&#45;&gt;qpp</title>
<path fill="none" stroke="#444444" d="M1483.96,-129.97C1448.47,-131.64 1410.1,-133.46 1373.11,-135.21"/>
<polygon fill="#444444" stroke="#444444" points="1373.01,-131.71 1363.18,-135.67 1373.34,-138.7 1373.01,-131.71"/>
<text xml:space="preserve" text-anchor="middle" x="1422.75" y="-137.26" font-family="Helvetica,sans-Serif" font-size="10.00">permute ext</text>
</g>
<!-- ext&#45;&gt;fetch -->
<g id="edge9" class="edge">
<title>ext&#45;&gt;fetch</title>
<path fill="none" stroke="#444444" d="M1780.84,-105.77C1794.83,-104.13 1809.08,-102.46 1823.26,-100.81"/>
<polygon fill="#444444" stroke="#444444" points="1823.57,-104.3 1833.09,-99.66 1822.75,-97.34 1823.57,-104.3"/>
</g>
<!-- ser -->
<g id="node9" class="node">
<title>ser</title>
<path fill="#ead1dc" stroke="#555555" d="M3379.25,-67C3379.25,-67 3623.5,-67 3623.5,-67 3629.5,-67 3635.5,-73 3635.5,-79 3635.5,-79 3635.5,-91 3635.5,-91 3635.5,-97 3629.5,-103 3623.5,-103 3623.5,-103 3379.25,-103 3379.25,-103 3373.25,-103 3367.25,-97 3367.25,-91 3367.25,-91 3367.25,-79 3367.25,-79 3367.25,-73 3373.25,-67 3379.25,-67"/>
<text xml:space="preserve" text-anchor="middle" x="3410.88" y="-81.55" font-family="Helvetica,sans-Serif" font-size="11.00">Final Serializer</text>
<polyline fill="none" stroke="#555555" points="3454.5,-67.5 3454.5,-103"/>
<text xml:space="preserve" text-anchor="middle" x="3545" y="-81.55" font-family="Helvetica,sans-Serif" font-size="11.00">FINAL_NAT_E/O to out_idx/l_post</text>
</g>
<!-- post&#45;&gt;ser -->
<g id="edge14" class="edge">
<title>post&#45;&gt;ser</title>
<path fill="none" stroke="#444444" d="M3330.74,-85C3339.07,-85 3347.42,-85 3355.7,-85"/>
<polygon fill="#444444" stroke="#444444" points="3355.43,-88.5 3365.43,-85 3355.43,-81.5 3355.43,-88.5"/>
</g>
<!-- qpp&#45;&gt;chan -->
<g id="edge6" class="edge">
<title>qpp&#45;&gt;chan</title>
<path fill="none" stroke="#444444" d="M1105.01,-125.53C1070.65,-118.39 1029.92,-111 992.75,-107 955.34,-102.97 915.69,-100.32 876.77,-98.62"/>
<polygon fill="#444444" stroke="#444444" points="876.92,-95.12 866.78,-98.2 876.63,-102.11 876.92,-95.12"/>
<text xml:space="preserve" text-anchor="middle" x="938" y="-109.5" font-family="Helvetica,sans-Serif" font-size="10.00">write SYS_INT</text>
</g>
<!-- qpp&#45;&gt;ext -->
<g id="edge7" class="edge">
<title>qpp&#45;&gt;ext</title>
<path fill="none" stroke="#444444" d="M1289.94,-125.57C1318.75,-121.2 1350.13,-117.18 1379.25,-115 1417.81,-112.11 1427.59,-114.06 1466.25,-115 1468.46,-115.05 1470.68,-115.11 1472.91,-115.17"/>
<polygon fill="#444444" stroke="#444444" points="1472.58,-118.66 1482.68,-115.46 1472.79,-111.67 1472.58,-118.66"/>
<text xml:space="preserve" text-anchor="middle" x="1422.75" y="-117.5" font-family="Helvetica,sans-Serif" font-size="10.00">write permuted EXT</text>
</g>
<!-- siso -->
<g id="node7" class="node">
<title>siso</title>
<path fill="#fce5cd" stroke="#555555" d="M2219,-67C2219,-67 2581.25,-67 2581.25,-67 2587.25,-67 2593.25,-73 2593.25,-79 2593.25,-79 2593.25,-91 2593.25,-91 2593.25,-97 2587.25,-103 2581.25,-103 2581.25,-103 2219,-103 2219,-103 2213,-103 2207,-97 2207,-91 2207,-91 2207,-79 2207,-79 2207,-73 2213,-67 2219,-67"/>
<text xml:space="preserve" text-anchor="middle" x="2258.12" y="-81.55" font-family="Helvetica,sans-Serif" font-size="11.00">Single SISO Core</text>
<polyline fill="none" stroke="#555555" points="2309.25,-67.5 2309.25,-103"/>
<text xml:space="preserve" text-anchor="middle" x="2357.38" y="-81.55" font-family="Helvetica,sans-Serif" font-size="11.00">siso_maxlogmap</text>
<polyline fill="none" stroke="#555555" points="2405.5,-67.5 2405.5,-103"/>
<text xml:space="preserve" text-anchor="middle" x="2499.38" y="-81.55" font-family="Helvetica,sans-Serif" font-size="11.00">G_USE_EXTERNAL_FETCH=true</text>
</g>
<!-- fetch&#45;&gt;siso -->
<g id="edge10" class="edge">
<title>fetch&#45;&gt;siso</title>
<path fill="none" stroke="#444444" d="M2170.35,-82.74C2178.63,-82.82 2186.97,-82.9 2195.31,-82.98"/>
<polygon fill="#444444" stroke="#444444" points="2195.14,-86.48 2205.17,-83.08 2195.21,-79.48 2195.14,-86.48"/>
</g>
<!-- wb -->
<g id="node8" class="node">
<title>wb</title>
<path fill="#ead1dc" stroke="#555555" d="M2642.25,-87C2642.25,-87 2964,-87 2964,-87 2970,-87 2976,-93 2976,-99 2976,-99 2976,-111 2976,-111 2976,-117 2970,-123 2964,-123 2964,-123 2642.25,-123 2642.25,-123 2636.25,-123 2630.25,-117 2630.25,-111 2630.25,-111 2630.25,-99 2630.25,-99 2630.25,-93 2636.25,-87 2642.25,-87"/>
<text xml:space="preserve" text-anchor="middle" x="2673.88" y="-101.55" font-family="Helvetica,sans-Serif" font-size="11.00">Run Writeback</text>
<polyline fill="none" stroke="#555555" points="2717.5,-87.5 2717.5,-123"/>
<text xml:space="preserve" text-anchor="middle" x="2777.62" y="-101.55" font-family="Helvetica,sans-Serif" font-size="11.00">EXT_NAT / EXT_INT</text>
<polyline fill="none" stroke="#555555" points="2837.75,-87.5 2837.75,-123"/>
<text xml:space="preserve" text-anchor="middle" x="2906.88" y="-101.55" font-family="Helvetica,sans-Serif" font-size="11.00">POST_INT / FINAL_NAT</text>
</g>
<!-- siso&#45;&gt;wb -->
<g id="edge11" class="edge">
<title>siso&#45;&gt;wb</title>
<path fill="none" stroke="#444444" d="M2593.7,-94.6C2601.98,-95.02 2610.28,-95.43 2618.55,-95.84"/>
<polygon fill="#444444" stroke="#444444" points="2618.11,-99.33 2628.27,-96.33 2618.46,-92.34 2618.11,-99.33"/>
</g>
<!-- wb&#45;&gt;ext -->
<g id="edge12" class="edge">
<title>wb&#45;&gt;ext</title>
<path fill="none" stroke="#444444" d="M2630.02,-111.97C2617.58,-112.36 2605.22,-112.71 2593.25,-113 2311.41,-119.86 1982.9,-122.02 1792.48,-122.7"/>
<polygon fill="#444444" stroke="#444444" points="1792.48,-119.2 1782.49,-122.73 1792.51,-126.2 1792.48,-119.2"/>
</g>
<!-- wb&#45;&gt;post -->
<g id="edge13" class="edge">
<title>wb&#45;&gt;post</title>
<path fill="none" stroke="#444444" d="M2976.38,-95.6C2984.68,-95.15 2993.01,-94.69 3001.31,-94.24"/>
<polygon fill="#444444" stroke="#444444" points="3001.29,-97.75 3011.08,-93.71 3000.9,-90.76 3001.29,-97.75"/>
</g>
<!-- fsm -->
<g id="node10" class="node">
<title>fsm</title>
<path fill="#d0e0e3" stroke="#555555" d="M3684.5,-101C3684.5,-101 4246.75,-101 4246.75,-101 4252.75,-101 4258.75,-107 4258.75,-113 4258.75,-113 4258.75,-125 4258.75,-125 4258.75,-131 4252.75,-137 4246.75,-137 4246.75,-137 3684.5,-137 3684.5,-137 3678.5,-137 3672.5,-131 3672.5,-125 3672.5,-125 3672.5,-113 3672.5,-113 3672.5,-107 3678.5,-101 3684.5,-101"/>
<text xml:space="preserve" text-anchor="middle" x="3702.25" y="-115.55" font-family="Helvetica,sans-Serif" font-size="11.00">Top FSM</text>
<polyline fill="none" stroke="#555555" points="3732,-101.5 3732,-137"/>
<text xml:space="preserve" text-anchor="middle" x="3752.38" y="-115.55" font-family="Helvetica,sans-Serif" font-size="11.00">IDLE</text>
<polyline fill="none" stroke="#555555" points="3772.75,-101.5 3772.75,-137"/>
<text xml:space="preserve" text-anchor="middle" x="3823.5" y="-115.55" font-family="Helvetica,sans-Serif" font-size="11.00">BUILD_SYS_INT</text>
<polyline fill="none" stroke="#555555" points="3874.25,-101.5 3874.25,-137"/>
<text xml:space="preserve" text-anchor="middle" x="3915.25" y="-115.55" font-family="Helvetica,sans-Serif" font-size="11.00">START_RUN</text>
<polyline fill="none" stroke="#555555" points="3956.25,-101.5 3956.25,-137"/>
<text xml:space="preserve" text-anchor="middle" x="3993.12" y="-115.55" font-family="Helvetica,sans-Serif" font-size="11.00">WAIT_RUN</text>
<polyline fill="none" stroke="#555555" points="4030,-101.5 4030,-137"/>
<text xml:space="preserve" text-anchor="middle" x="4081.5" y="-115.55" font-family="Helvetica,sans-Serif" font-size="11.00">EXT permutations</text>
<polyline fill="none" stroke="#555555" points="4133,-101.5 4133,-137"/>
<text xml:space="preserve" text-anchor="middle" x="4169.5" y="-115.55" font-family="Helvetica,sans-Serif" font-size="11.00">SERIALIZE</text>
<polyline fill="none" stroke="#555555" points="4206,-101.5 4206,-137"/>
<text xml:space="preserve" text-anchor="middle" x="4232.38" y="-115.55" font-family="Helvetica,sans-Serif" font-size="11.00">FINISH</text>
</g>
<!-- ser&#45;&gt;fsm -->
<g id="edge15" class="edge">
<title>ser&#45;&gt;fsm</title>
<path fill="none" stroke="#444444" stroke-dasharray="1,5" d="M3635.77,-94.81C3660.3,-96.62 3686.64,-98.55 3713.33,-100.52"/>
</g>
<!-- fsm&#45;&gt;qpp -->
<g id="edge16" class="edge">
<title>fsm&#45;&gt;qpp</title>
<path fill="none" stroke="#444444" stroke-dasharray="1,5" d="M3860.36,-137.48C3766.91,-152.43 3625.93,-171 3502.38,-171 1631.38,-171 1631.38,-171 1631.38,-171 1542.3,-171 1443.36,-165.53 1361.5,-159.51"/>
</g>
<!-- fsm&#45;&gt;fetch -->
<g id="edge17" class="edge">
<title>fsm&#45;&gt;fetch</title>
<path fill="none" stroke="#444444" stroke-dasharray="1,5" d="M3900.56,-100.52C3811.89,-76.61 3646.38,-38 3502.38,-38 2399.12,-38 2399.12,-38 2399.12,-38 2300.29,-38 2188.61,-50.86 2107.71,-62.51"/>
</g>
<!-- fsm&#45;&gt;wb -->
<g id="edge18" class="edge">
<title>fsm&#45;&gt;wb</title>
<path fill="none" stroke="#444444" stroke-dasharray="1,5" d="M3672.26,-119.57C3483.99,-119.34 3234.02,-117.93 3013,-113 3001.03,-112.73 2988.67,-112.4 2976.23,-112.03"/>
</g>
</g>
</svg>
