<?xml version="1.0" encoding="UTF-8" standalone="no"?>
<!DOCTYPE svg PUBLIC "-//W3C//DTD SVG 1.1//EN"
 "http://www.w3.org/Graphics/SVG/1.1/DTD/svg11.dtd">
<!-- Generated by graphviz version 14.1.2 (0)
 -->
<!-- Title: G Pages: 1 -->
<svg width="2873pt" height="213pt"
 viewBox="0.00 0.00 2873.00 213.00" xmlns="http://www.w3.org/2000/svg" xmlns:xlink="http://www.w3.org/1999/xlink">
<g id="graph0" class="graph" transform="scale(1 1) rotate(0) translate(4 209.25)">
<title>G</title>
<polygon fill="white" stroke="none" points="-4,4 -4,-209.25 2868.5,-209.25 2868.5,4 -4,4"/>
<text xml:space="preserve" text-anchor="middle" x="1432.25" y="-182.25" font-family="Helvetica,sans-Serif" font-size="20.00">turbo_decoder_top &#45; Active Folded Datapath</text>
<!-- inload -->
<g id="node1" class="node">
<title>inload</title>
<path fill="#fff2cc" stroke="#555555" d="M12,-0.5C12,-0.5 360.25,-0.5 360.25,-0.5 366.25,-0.5 372.25,-6.5 372.25,-12.5 372.25,-12.5 372.25,-24.5 372.25,-24.5 372.25,-30.5 366.25,-36.5 360.25,-36.5 360.25,-36.5 12,-36.5 12,-36.5 6,-36.5 0,-30.5 0,-24.5 0,-24.5 0,-12.5 0,-12.5 0,-6.5 6,-0.5 12,-0.5"/>
<text xml:space="preserve" text-anchor="middle" x="46.25" y="-15.05" font-family="Helvetica,sans-Serif" font-size="11.00">Input Load Path</text>
<polyline fill="none" stroke="#555555" points="92.5,-1 92.5,-36.5"/>
<text xml:space="preserve" text-anchor="middle" x="138.75" y="-15.05" font-family="Helvetica,sans-Serif" font-size="11.00">natural sys/par1</text>
<polyline fill="none" stroke="#555555" points="185,-1 185,-36.5"/>
<text xml:space="preserve" text-anchor="middle" x="231.62" y="-15.05" font-family="Helvetica,sans-Serif" font-size="11.00">interleaved par2</text>
<polyline fill="none" stroke="#555555" points="278.25,-1 278.25,-36.5"/>
<text xml:space="preserve" text-anchor="middle" x="325.25" y="-15.05" font-family="Helvetica,sans-Serif" font-size="11.00">zero ext/post init</text>
</g>
<!-- natmem -->
<g id="node2" class="node">
<title>natmem</title>
<path fill="#d9ead3" stroke="#555555" d="M421.25,-68.5C421.25,-68.5 744,-68.5 744,-68.5 750,-68.5 756,-74.5 756,-80.5 756,-80.5 756,-92.5 756,-92.5 756,-98.5 750,-104.5 744,-104.5 744,-104.5 421.25,-104.5 421.25,-104.5 415.25,-104.5 409.25,-98.5 409.25,-92.5 409.25,-92.5 409.25,-80.5 409.25,-80.5 409.25,-74.5 415.25,-68.5 421.25,-68.5"/>
<text xml:space="preserve" text-anchor="middle" x="480.62" y="-83.05" font-family="Helvetica,sans-Serif" font-size="11.00">Natural&#45;Domain Memories</text>
<polyline fill="none" stroke="#555555" points="552,-69 552,-104.5"/>
<text xml:space="preserve" text-anchor="middle" x="585.12" y="-83.05" font-family="Helvetica,sans-Serif" font-size="11.00">SYS_NAT</text>
<polyline fill="none" stroke="#555555" points="618.25,-69 618.25,-104.5"/>
<text xml:space="preserve" text-anchor="middle" x="654.38" y="-83.05" font-family="Helvetica,sans-Serif" font-size="11.00">PAR1_NAT</text>
<polyline fill="none" stroke="#555555" points="690.5,-69 690.5,-104.5"/>
<text xml:space="preserve" text-anchor="middle" x="723.25" y="-83.05" font-family="Helvetica,sans-Serif" font-size="11.00">EXT_NAT</text>
</g>
<!-- inload&#45;&gt;natmem -->
<g id="edge1" class="edge">
<title>inload&#45;&gt;natmem</title>
<path fill="none" stroke="black" d="M294.4,-36.99C346.59,-45.99 409.47,-56.83 463.08,-66.07"/>
<polygon fill="black" stroke="black" points="462.43,-69.51 472.88,-67.76 463.62,-62.61 462.43,-69.51"/>
</g>
<!-- intmem -->
<g id="node3" class="node">
<title>intmem</title>
<path fill="#d9ead3" stroke="#555555" d="M1420.5,-39.5C1420.5,-39.5 1820,-39.5 1820,-39.5 1826,-39.5 1832,-45.5 1832,-51.5 1832,-51.5 1832,-63.5 1832,-63.5 1832,-69.5 1826,-75.5 1820,-75.5 1820,-75.5 1420.5,-75.5 1420.5,-75.5 1414.5,-75.5 1408.5,-69.5 1408.5,-63.5 1408.5,-63.5 1408.5,-51.5 1408.5,-51.5 1408.5,-45.5 1414.5,-39.5 1420.5,-39.5"/>
<text xml:space="preserve" text-anchor="middle" x="1488.88" y="-54.05" font-family="Helvetica,sans-Serif" font-size="11.00">Interleaved&#45;Domain Memories</text>
<polyline fill="none" stroke="#555555" points="1569.25,-40 1569.25,-75.5"/>
<text xml:space="preserve" text-anchor="middle" x="1600.5" y="-54.05" font-family="Helvetica,sans-Serif" font-size="11.00">SYS_INT</text>
<polyline fill="none" stroke="#555555" points="1631.75,-40 1631.75,-75.5"/>
<text xml:space="preserve" text-anchor="middle" x="1666" y="-54.05" font-family="Helvetica,sans-Serif" font-size="11.00">PAR2_INT</text>
<polyline fill="none" stroke="#555555" points="1700.25,-40 1700.25,-75.5"/>
<text xml:space="preserve" text-anchor="middle" x="1731.12" y="-54.05" font-family="Helvetica,sans-Serif" font-size="11.00">EXT_INT</text>
<polyline fill="none" stroke="#555555" points="1762,-40 1762,-75.5"/>
<text xml:space="preserve" text-anchor="middle" x="1797" y="-54.05" font-family="Helvetica,sans-Serif" font-size="11.00">POST_INT</text>
</g>
<!-- inload&#45;&gt;intmem -->
<g id="edge2" class="edge">
<title>inload&#45;&gt;intmem</title>
<path fill="none" stroke="black" d="M372.62,-14.62C609.15,-11.03 1030.66,-9.16 1390.5,-31.5 1414.72,-33 1440.31,-35.26 1465.27,-37.82"/>
<polygon fill="black" stroke="black" points="1464.86,-41.29 1475.17,-38.86 1465.59,-34.33 1464.86,-41.29"/>
</g>
<!-- qpp -->
<g id="node4" class="node">
<title>qpp</title>
<path fill="#cfe2f3" stroke="#555555" d="M947.25,-41.5C947.25,-41.5 1231.5,-41.5 1231.5,-41.5 1237.5,-41.5 1243.5,-47.5 1243.5,-53.5 1243.5,-53.5 1243.5,-65.5 1243.5,-65.5 1243.5,-71.5 1237.5,-77.5 1231.5,-77.5 1231.5,-77.5 947.25,-77.5 947.25,-77.5 941.25,-77.5 935.25,-71.5 935.25,-65.5 935.25,-65.5 935.25,-53.5 935.25,-53.5 935.25,-47.5 941.25,-41.5 947.25,-41.5"/>
<text xml:space="preserve" text-anchor="middle" x="997.25" y="-56.05" font-family="Helvetica,sans-Serif" font-size="11.00">Incremental QPP Path</text>
<polyline fill="none" stroke="#555555" points="1059.25,-42 1059.25,-77.5"/>
<text xml:space="preserve" text-anchor="middle" x="1103.25" y="-56.05" font-family="Helvetica,sans-Serif" font-size="11.00">build SYS_INT</text>
<polyline fill="none" stroke="#555555" points="1147.25,-42 1147.25,-77.5"/>
<text xml:space="preserve" text-anchor="middle" x="1195.38" y="-56.05" font-family="Helvetica,sans-Serif" font-size="11.00">permute ext/post</text>
</g>
<!-- natmem&#45;&gt;qpp -->
<g id="edge3" class="edge">
<title>natmem&#45;&gt;qpp</title>
<path fill="none" stroke="black" d="M756.41,-80.37C808.15,-78.23 865.02,-75.58 917.25,-72.5 919.33,-72.38 921.43,-72.25 923.54,-72.12"/>
<polygon fill="black" stroke="black" points="923.66,-75.62 933.42,-71.5 923.22,-68.64 923.66,-75.62"/>
</g>
<!-- fetch -->
<g id="node5" class="node">
<title>fetch</title>
<path fill="#cfe2f3" stroke="#555555" d="M1881,-92.5C1881,-92.5 2219.25,-92.5 2219.25,-92.5 2225.25,-92.5 2231.25,-98.5 2231.25,-104.5 2231.25,-104.5 2231.25,-116.5 2231.25,-116.5 2231.25,-122.5 2225.25,-128.5 2219.25,-128.5 2219.25,-128.5 1881,-128.5 1881,-128.5 1875,-128.5 1869,-122.5 1869,-116.5 1869,-116.5 1869,-104.5 1869,-104.5 1869,-98.5 1875,-92.5 1881,-92.5"/>
<text xml:space="preserve" text-anchor="middle" x="1949.75" y="-107.05" font-family="Helvetica,sans-Serif" font-size="11.00">On&#45;Demand Fetch Responder</text>
<polyline fill="none" stroke="#555555" points="2030.5,-93 2030.5,-128.5"/>
<text xml:space="preserve" text-anchor="middle" x="2080.88" y="-107.05" font-family="Helvetica,sans-Serif" font-size="11.00">BRAM read issue</text>
<polyline fill="none" stroke="#555555" points="2131.25,-93 2131.25,-128.5"/>
<text xml:space="preserve" text-anchor="middle" x="2181.25" y="-107.05" font-family="Helvetica,sans-Serif" font-size="11.00">response pipeline</text>
</g>
<!-- natmem&#45;&gt;fetch -->
<g id="edge7" class="edge">
<title>natmem&#45;&gt;fetch</title>
<path fill="none" stroke="black" d="M756.41,-89.33C1032.16,-93.85 1569.86,-102.65 1857.21,-107.36"/>
<polygon fill="black" stroke="black" points="1857.02,-110.85 1867.08,-107.52 1857.14,-103.86 1857.02,-110.85"/>
</g>
<!-- intmem&#45;&gt;qpp -->
<g id="edge5" class="edge">
<title>intmem&#45;&gt;qpp</title>
<path fill="none" stroke="black" d="M1431.69,-39.02C1376.83,-35.85 1316.75,-34.54 1261.5,-38 1253.19,-38.52 1244.66,-39.18 1236.07,-39.95"/>
<polygon fill="black" stroke="black" points="1235.88,-36.45 1226.25,-40.87 1236.53,-43.42 1235.88,-36.45"/>
<text xml:space="preserve" text-anchor="middle" x="1326" y="-41.2" font-family="Times New Roman,serif" font-size="14.00">EXT_INT / POST_INT</text>
</g>
<!-- intmem&#45;&gt;fetch -->
<g id="edge8" class="edge">
<title>intmem&#45;&gt;fetch</title>
<path fill="none" stroke="black" d="M1770.6,-76C1808.78,-80.73 1849.99,-85.83 1888.7,-90.63"/>
<polygon fill="black" stroke="black" points="1888.23,-94.1 1898.58,-91.85 1889.09,-87.15 1888.23,-94.1"/>
</g>
<!-- qpp&#45;&gt;natmem -->
<g id="edge6" class="edge">
<title>qpp&#45;&gt;natmem</title>
<path fill="none" stroke="black" d="M934.92,-52.45C928.95,-52.28 923.05,-52.13 917.25,-52 853.6,-50.61 837.41,-46.3 774,-52 742.57,-54.83 708.56,-60.22 678.11,-65.93"/>
<polygon fill="black" stroke="black" points="677.71,-62.44 668.54,-67.75 679.02,-69.31 677.71,-62.44"/>
<text xml:space="preserve" text-anchor="middle" x="845.62" y="-55.2" font-family="Times New Roman,serif" font-size="14.00">EXT_NAT / FINAL_NAT</text>
</g>
<!-- qpp&#45;&gt;intmem -->
<g id="edge4" class="edge">
<title>qpp&#45;&gt;intmem</title>
<path fill="none" stroke="black" d="M1243.7,-58.92C1291.59,-58.74 1345.41,-58.54 1397.03,-58.34"/>
<polygon fill="black" stroke="black" points="1396.86,-61.84 1406.84,-58.3 1396.83,-54.84 1396.86,-61.84"/>
<text xml:space="preserve" text-anchor="middle" x="1326" y="-62" font-family="Times New Roman,serif" font-size="14.00">SYS_INT / EXT_INT</text>
</g>
<!-- siso -->
<g id="node6" class="node">
<title>siso</title>
<path fill="#fce5cd" stroke="#555555" d="M2280.25,-92.5C2280.25,-92.5 2457.75,-92.5 2457.75,-92.5 2463.75,-92.5 2469.75,-98.5 2469.75,-104.5 2469.75,-104.5 2469.75,-116.5 2469.75,-116.5 2469.75,-122.5 2463.75,-128.5 2457.75,-128.5 2457.75,-128.5 2280.25,-128.5 2280.25,-128.5 2274.25,-128.5 2268.25,-122.5 2268.25,-116.5 2268.25,-116.5 2268.25,-104.5 2268.25,-104.5 2268.25,-98.5 2274.25,-92.5 2280.25,-92.5"/>
<text xml:space="preserve" text-anchor="middle" x="2291.62" y="-107.05" font-family="Helvetica,sans-Serif" font-size="11.00">siso_u</text>
<polyline fill="none" stroke="#555555" points="2315,-93 2315,-128.5"/>
<text xml:space="preserve" text-anchor="middle" x="2392.38" y="-107.05" font-family="Helvetica,sans-Serif" font-size="11.00">natural run or interleaved run</text>
</g>
<!-- fetch&#45;&gt;siso -->
<g id="edge9" class="edge">
<title>fetch&#45;&gt;siso</title>
<path fill="none" stroke="black" d="M2231.32,-110.5C2239.94,-110.5 2248.47,-110.5 2256.81,-110.5"/>
<polygon fill="black" stroke="black" points="2256.55,-114 2266.55,-110.5 2256.55,-107 2256.55,-114"/>
</g>
<!-- siso&#45;&gt;natmem -->
<g id="edge10" class="edge">
<title>siso&#45;&gt;natmem</title>
<path fill="none" stroke="black" d="M2288.39,-128.94C2224.6,-142.11 2132.6,-157.5 2051.12,-157.5 1088.38,-157.5 1088.38,-157.5 1088.38,-157.5 942.95,-157.5 776.23,-128.24 675.48,-107.29"/>
<polygon fill="black" stroke="black" points="676.42,-103.91 665.92,-105.28 674.98,-110.76 676.42,-103.91"/>
<text xml:space="preserve" text-anchor="middle" x="1620.25" y="-160.7" font-family="Times New Roman,serif" font-size="14.00">EXT_NAT</text>
</g>
<!-- siso&#45;&gt;intmem -->
<g id="edge11" class="edge">
<title>siso&#45;&gt;intmem</title>
<path fill="none" stroke="black" d="M2321.68,-92.04C2295.58,-82.59 2262.11,-72.04 2231.25,-67 2103.91,-46.22 1959.63,-43.06 1843.37,-45.47"/>
<polygon fill="black" stroke="black" points="1843.64,-41.96 1833.72,-45.68 1843.8,-48.96 1843.64,-41.96"/>
<text xml:space="preserve" text-anchor="middle" x="2050.12" y="-70.2" font-family="Times New Roman,serif" font-size="14.00">EXT_INT / POST_INT</text>
</g>
<!-- final -->
<g id="node7" class="node">
<title>final</title>
<path fill="#ead1dc" stroke="#555555" d="M2693.25,-92.5C2693.25,-92.5 2852.5,-92.5 2852.5,-92.5 2858.5,-92.5 2864.5,-98.5 2864.5,-104.5 2864.5,-104.5 2864.5,-116.5 2864.5,-116.5 2864.5,-122.5 2858.5,-128.5 2852.5,-128.5 2852.5,-128.5 2693.25,-128.5 2693.25,-128.5 2687.25,-128.5 2681.25,-122.5 2681.25,-116.5 2681.25,-116.5 2681.25,-104.5 2681.25,-104.5 2681.25,-98.5 2687.25,-92.5 2693.25,-92.5"/>
<text xml:space="preserve" text-anchor="middle" x="2772.88" y="-107.05" font-family="Helvetica,sans-Serif" font-size="11.00">FINAL_NAT Memories + Serializer</text>
</g>
<!-- siso&#45;&gt;final -->
<g id="edge12" class="edge">
<title>siso&#45;&gt;final</title>
<path fill="none" stroke="black" d="M2470.11,-110.5C2530.96,-110.5 2608.44,-110.5 2669.66,-110.5"/>
<polygon fill="black" stroke="black" points="2669.38,-114 2679.38,-110.5 2669.38,-107 2669.38,-114"/>
<text xml:space="preserve" text-anchor="middle" x="2575.5" y="-113.7" font-family="Times New Roman,serif" font-size="14.00">FINAL_NAT on last natural run</text>
</g>
</g>
</svg>
