<?xml version="1.0" encoding="UTF-8" standalone="no"?>
<!DOCTYPE svg PUBLIC "-//W3C//DTD SVG 1.1//EN"
 "http://www.w3.org/Graphics/SVG/1.1/DTD/svg11.dtd">
<!-- Generated by graphviz version 14.1.2 (0)
 -->
<!-- Title: G Pages: 1 -->
<svg width="1613pt" height="402pt"
 viewBox="0.00 0.00 1613.00 402.00" xmlns="http://www.w3.org/2000/svg" xmlns:xlink="http://www.w3.org/1999/xlink">
<g id="graph0" class="graph" transform="scale(1 1) rotate(0) translate(4 398.25)">
<title>G</title>
<polygon fill="white" stroke="none" points="-4,4 -4,-398.25 1608.75,-398.25 1608.75,4 -4,4"/>
<text xml:space="preserve" text-anchor="middle" x="802.38" y="-371.25" font-family="Helvetica,sans-Serif" font-size="20.00">turbo_decoder_top &#45; Active Folded Control</text>
<!-- IDLE -->
<g id="node1" class="node">
<title>IDLE</title>
<path fill="#d0e0e3" stroke="#555555" d="M210.62,-363C210.62,-363 133.12,-363 133.12,-363 127.12,-363 121.12,-357 121.12,-351 121.12,-351 121.12,-339 121.12,-339 121.12,-333 127.12,-327 133.12,-327 133.12,-327 210.62,-327 210.62,-327 216.62,-327 222.62,-333 222.62,-339 222.62,-339 222.62,-351 222.62,-351 222.62,-357 216.62,-363 210.62,-363"/>
<text xml:space="preserve" text-anchor="middle" x="171.88" y="-348.05" font-family="Helvetica,sans-Serif" font-size="11.00">ST_IDLE</text>
<text xml:space="preserve" text-anchor="middle" x="171.88" y="-334.55" font-family="Helvetica,sans-Serif" font-size="11.00">input load + setup</text>
</g>
<!-- BUILD -->
<g id="node2" class="node">
<title>BUILD</title>
<path fill="#cfe2f3" stroke="#555555" d="M490.5,-167C490.5,-167 392.75,-167 392.75,-167 386.75,-167 380.75,-161 380.75,-155 380.75,-155 380.75,-143 380.75,-143 380.75,-137 386.75,-131 392.75,-131 392.75,-131 490.5,-131 490.5,-131 496.5,-131 502.5,-137 502.5,-143 502.5,-143 502.5,-155 502.5,-155 502.5,-161 496.5,-167 490.5,-167"/>
<text xml:space="preserve" text-anchor="middle" x="441.62" y="-145.3" font-family="Helvetica,sans-Serif" font-size="11.00">ST_BUILD_SYS_INT</text>
</g>
<!-- IDLE&#45;&gt;BUILD -->
<g id="edge1" class="edge">
<title>IDLE&#45;&gt;BUILD</title>
<path fill="none" stroke="black" d="M198.06,-326.56C246.33,-291.23 351.88,-213.97 406.44,-174.02"/>
<polygon fill="black" stroke="black" points="408.47,-176.87 414.48,-168.14 404.34,-171.22 408.47,-176.87"/>
</g>
<!-- START -->
<g id="node3" class="node">
<title>START</title>
<path fill="#fff2cc" stroke="#555555" d="M774,-167C774,-167 695.75,-167 695.75,-167 689.75,-167 683.75,-161 683.75,-155 683.75,-155 683.75,-143 683.75,-143 683.75,-137 689.75,-131 695.75,-131 695.75,-131 774,-131 774,-131 780,-131 786,-137 786,-143 786,-143 786,-155 786,-155 786,-161 780,-167 774,-167"/>
<text xml:space="preserve" text-anchor="middle" x="734.88" y="-145.3" font-family="Helvetica,sans-Serif" font-size="11.00">ST_START_RUN</text>
</g>
<!-- BUILD&#45;&gt;START -->
<g id="edge2" class="edge">
<title>BUILD&#45;&gt;START</title>
<path fill="none" stroke="black" d="M502.97,-149C552.44,-149 622.17,-149 672.04,-149"/>
<polygon fill="black" stroke="black" points="671.8,-152.5 681.8,-149 671.8,-145.5 671.8,-152.5"/>
</g>
<!-- FEED -->
<g id="node4" class="node">
<title>FEED</title>
<path fill="#f4f4f4" stroke="#555555" stroke-dasharray="5,2" d="M1062,-140C1062,-140 981.5,-140 981.5,-140 975.5,-140 969.5,-134 969.5,-128 969.5,-128 969.5,-116 969.5,-116 969.5,-110 975.5,-104 981.5,-104 981.5,-104 1062,-104 1062,-104 1068,-104 1074,-110 1074,-116 1074,-116 1074,-128 1074,-128 1074,-134 1068,-140 1062,-140"/>
<text xml:space="preserve" text-anchor="middle" x="1021.75" y="-125.05" font-family="Helvetica,sans-Serif" font-size="11.00">ST_FEED_RUN</text>
<text xml:space="preserve" text-anchor="middle" x="1021.75" y="-111.55" font-family="Helvetica,sans-Serif" font-size="11.00">vestigial / not used</text>
</g>
<!-- START&#45;&gt;FEED -->
<g id="edge13" class="edge">
<title>START&#45;&gt;FEED</title>
<path fill="none" stroke="black" stroke-dasharray="5,2" d="M786.48,-144.2C834.34,-139.67 906.32,-132.85 957.86,-127.96"/>
<polygon fill="black" stroke="black" points="958.05,-131.46 967.67,-127.03 957.39,-124.49 958.05,-131.46"/>
</g>
<!-- WAIT -->
<g id="node5" class="node">
<title>WAIT</title>
<path fill="#fce5cd" stroke="#555555" d="M1064.25,-244.25C1064.25,-244.25 979.25,-244.25 979.25,-244.25 973.25,-244.25 967.25,-238.25 967.25,-232.25 967.25,-232.25 967.25,-207.75 967.25,-207.75 967.25,-201.75 973.25,-195.75 979.25,-195.75 979.25,-195.75 1064.25,-195.75 1064.25,-195.75 1070.25,-195.75 1076.25,-201.75 1076.25,-207.75 1076.25,-207.75 1076.25,-232.25 1076.25,-232.25 1076.25,-238.25 1070.25,-244.25 1064.25,-244.25"/>
<text xml:space="preserve" text-anchor="middle" x="1021.75" y="-229.8" font-family="Helvetica,sans-Serif" font-size="11.00">ST_WAIT_RUN</text>
<text xml:space="preserve" text-anchor="middle" x="1021.75" y="-216.3" font-family="Helvetica,sans-Serif" font-size="11.00">serve SISO fetches</text>
<text xml:space="preserve" text-anchor="middle" x="1021.75" y="-202.8" font-family="Helvetica,sans-Serif" font-size="11.00">capture outputs</text>
</g>
<!-- START&#45;&gt;WAIT -->
<g id="edge3" class="edge">
<title>START&#45;&gt;WAIT</title>
<path fill="none" stroke="black" d="M786.44,-159.47C825.81,-167.86 881.72,-180.28 930.25,-193 938.61,-195.19 947.37,-197.63 956.01,-200.11"/>
<polygon fill="black" stroke="black" points="954.81,-203.41 965.39,-202.85 956.77,-196.69 954.81,-203.41"/>
</g>
<!-- N2I -->
<g id="node6" class="node">
<title>N2I</title>
<path fill="#d9ead3" stroke="#555555" d="M1347.62,-156C1347.62,-156 1240.88,-156 1240.88,-156 1234.88,-156 1228.88,-150 1228.88,-144 1228.88,-144 1228.88,-132 1228.88,-132 1228.88,-126 1234.88,-120 1240.88,-120 1240.88,-120 1347.62,-120 1347.62,-120 1353.62,-120 1359.62,-126 1359.62,-132 1359.62,-132 1359.62,-144 1359.62,-144 1359.62,-150 1353.62,-156 1347.62,-156"/>
<text xml:space="preserve" text-anchor="middle" x="1294.25" y="-134.3" font-family="Helvetica,sans-Serif" font-size="11.00">ST_EXT_NAT_TO_INT</text>
</g>
<!-- WAIT&#45;&gt;N2I -->
<g id="edge4" class="edge">
<title>WAIT&#45;&gt;N2I</title>
<path fill="none" stroke="black" d="M1076.61,-213.07C1121.87,-206.85 1182.8,-197.42 1206,-189 1223.99,-182.47 1242.5,-172.24 1257.81,-162.65"/>
<polygon fill="black" stroke="black" points="1259.59,-165.67 1266.1,-157.31 1255.8,-159.79 1259.59,-165.67"/>
<text xml:space="preserve" text-anchor="middle" x="1150.12" y="-213.7" font-family="Times New Roman,serif" font-size="14.00">natural run done</text>
</g>
<!-- I2N -->
<g id="node7" class="node">
<title>I2N</title>
<path fill="#d9ead3" stroke="#555555" d="M1347.62,-94C1347.62,-94 1240.88,-94 1240.88,-94 1234.88,-94 1228.88,-88 1228.88,-82 1228.88,-82 1228.88,-70 1228.88,-70 1228.88,-64 1234.88,-58 1240.88,-58 1240.88,-58 1347.62,-58 1347.62,-58 1353.62,-58 1359.62,-64 1359.62,-70 1359.62,-70 1359.62,-82 1359.62,-82 1359.62,-88 1353.62,-94 1347.62,-94"/>
<text xml:space="preserve" text-anchor="middle" x="1294.25" y="-72.3" font-family="Helvetica,sans-Serif" font-size="11.00">ST_EXT_INT_TO_NAT</text>
</g>
<!-- WAIT&#45;&gt;I2N -->
<g id="edge5" class="edge">
<title>WAIT&#45;&gt;I2N</title>
<path fill="none" stroke="black" d="M1054.27,-195.33C1066.42,-186.35 1080.65,-176.46 1094.25,-168.5 1140.58,-141.38 1196.2,-116.09 1236.84,-98.83"/>
<polygon fill="black" stroke="black" points="1238.11,-102.1 1245.97,-94.99 1235.39,-95.64 1238.11,-102.1"/>
<text xml:space="preserve" text-anchor="middle" x="1150.12" y="-171.7" font-family="Times New Roman,serif" font-size="14.00">interleaved run done</text>
</g>
<!-- F2N -->
<g id="node8" class="node">
<title>F2N</title>
<path fill="#d9ead3" stroke="#555555" d="M1352.5,-320C1352.5,-320 1236,-320 1236,-320 1230,-320 1224,-314 1224,-308 1224,-308 1224,-296 1224,-296 1224,-290 1230,-284 1236,-284 1236,-284 1352.5,-284 1352.5,-284 1358.5,-284 1364.5,-290 1364.5,-296 1364.5,-296 1364.5,-308 1364.5,-308 1364.5,-314 1358.5,-320 1352.5,-320"/>
<text xml:space="preserve" text-anchor="middle" x="1294.25" y="-298.3" font-family="Helvetica,sans-Serif" font-size="11.00">ST_FINAL_INT_TO_NAT</text>
</g>
<!-- WAIT&#45;&gt;F2N -->
<g id="edge6" class="edge">
<title>WAIT&#45;&gt;F2N</title>
<path fill="none" stroke="black" d="M1070.57,-244.63C1078.36,-248.09 1086.44,-251.36 1094.25,-254 1142.34,-270.23 1156.71,-265.41 1206,-277.5 1210.06,-278.5 1214.21,-279.55 1218.4,-280.64"/>
<polygon fill="black" stroke="black" points="1217.5,-284.02 1228.06,-283.19 1219.29,-277.25 1217.5,-284.02"/>
<text xml:space="preserve" text-anchor="middle" x="1150.12" y="-280.7" font-family="Times New Roman,serif" font-size="14.00">last interleaved run</text>
</g>
<!-- SER -->
<g id="node9" class="node">
<title>SER</title>
<path fill="#ead1dc" stroke="#555555" d="M1482.75,-320C1482.75,-320 1413.5,-320 1413.5,-320 1407.5,-320 1401.5,-314 1401.5,-308 1401.5,-308 1401.5,-296 1401.5,-296 1401.5,-290 1407.5,-284 1413.5,-284 1413.5,-284 1482.75,-284 1482.75,-284 1488.75,-284 1494.75,-290 1494.75,-296 1494.75,-296 1494.75,-308 1494.75,-308 1494.75,-314 1488.75,-320 1482.75,-320"/>
<text xml:space="preserve" text-anchor="middle" x="1448.12" y="-298.3" font-family="Helvetica,sans-Serif" font-size="11.00">ST_SERIALIZE</text>
</g>
<!-- WAIT&#45;&gt;SER -->
<g id="edge7" class="edge">
<title>WAIT&#45;&gt;SER</title>
<path fill="none" stroke="black" d="M1076.62,-226.88C1082.56,-227.61 1088.53,-228.33 1094.25,-229 1214.25,-243.1 1248.95,-223.18 1364.5,-258.5 1379.7,-263.15 1395.37,-270.61 1408.92,-278.05"/>
<polygon fill="black" stroke="black" points="1407.1,-281.04 1417.52,-282.95 1410.56,-274.96 1407.1,-281.04"/>
<text xml:space="preserve" text-anchor="middle" x="1294.25" y="-261.7" font-family="Times New Roman,serif" font-size="14.00">last natural run</text>
</g>
<!-- N2I&#45;&gt;START -->
<g id="edge8" class="edge">
<title>N2I&#45;&gt;START</title>
<path fill="none" stroke="black" d="M1228.71,-142.13C1185.57,-144.68 1127.54,-147.7 1076.25,-149 978.94,-151.46 865.94,-150.76 797.72,-149.94"/>
<polygon fill="black" stroke="black" points="797.9,-146.44 787.86,-149.82 797.81,-153.44 797.9,-146.44"/>
</g>
<!-- I2N&#45;&gt;START -->
<g id="edge9" class="edge">
<title>I2N&#45;&gt;START</title>
<path fill="none" stroke="black" d="M1228.59,-76.52C1162.58,-77.81 1057.3,-81.96 967.25,-95 908.98,-103.43 843.76,-119.25 797.46,-131.59"/>
<polygon fill="black" stroke="black" points="796.61,-128.2 787.87,-134.18 798.43,-134.96 796.61,-128.2"/>
</g>
<!-- F2N&#45;&gt;SER -->
<g id="edge10" class="edge">
<title>F2N&#45;&gt;SER</title>
<path fill="none" stroke="black" d="M1364.96,-302C1373.34,-302 1381.81,-302 1389.98,-302"/>
<polygon fill="black" stroke="black" points="1389.76,-305.5 1399.76,-302 1389.76,-298.5 1389.76,-305.5"/>
</g>
<!-- FIN -->
<g id="node10" class="node">
<title>FIN</title>
<path fill="#ead1dc" stroke="#555555" d="M1592.75,-351C1592.75,-351 1543.75,-351 1543.75,-351 1537.75,-351 1531.75,-345 1531.75,-339 1531.75,-339 1531.75,-327 1531.75,-327 1531.75,-321 1537.75,-315 1543.75,-315 1543.75,-315 1592.75,-315 1592.75,-315 1598.75,-315 1604.75,-321 1604.75,-327 1604.75,-327 1604.75,-339 1604.75,-339 1604.75,-345 1598.75,-351 1592.75,-351"/>
<text xml:space="preserve" text-anchor="middle" x="1568.25" y="-329.3" font-family="Helvetica,sans-Serif" font-size="11.00">ST_FINISH</text>
</g>
<!-- SER&#45;&gt;FIN -->
<g id="edge11" class="edge">
<title>SER&#45;&gt;FIN</title>
<path fill="none" stroke="black" d="M1495.13,-314.07C1503.42,-316.25 1512.06,-318.52 1520.37,-320.7"/>
<polygon fill="black" stroke="black" points="1519.4,-324.06 1529.96,-323.21 1521.18,-317.29 1519.4,-324.06"/>
</g>
<!-- FIN&#45;&gt;IDLE -->
<g id="edge12" class="edge">
<title>FIN&#45;&gt;IDLE</title>
<path fill="none" stroke="black" d="M1531.48,-344.62C1508.26,-351.15 1477.21,-358 1449.12,-358 440.62,-358 440.62,-358 440.62,-358 369.59,-358 288.07,-353.38 233.83,-349.65"/>
<polygon fill="black" stroke="black" points="234.41,-346.18 224.19,-348.97 233.92,-353.16 234.41,-346.18"/>
</g>
<!-- QPP -->
<g id="node11" class="node">
<title>QPP</title>
<path fill="#cfe2f3" stroke="#555555" d="M12,-36C12,-36 331.75,-36 331.75,-36 337.75,-36 343.75,-42 343.75,-48 343.75,-48 343.75,-60 343.75,-60 343.75,-66 337.75,-72 331.75,-72 331.75,-72 12,-72 12,-72 6,-72 0,-66 0,-60 0,-60 0,-48 0,-48 0,-42 6,-36 12,-36"/>
<text xml:space="preserve" text-anchor="middle" x="68.38" y="-50.55" font-family="Helvetica,sans-Serif" font-size="11.00">QPP Recurrence Control</text>
<polyline fill="none" stroke="#555555" points="136.75,-36.5 136.75,-72"/>
<text xml:space="preserve" text-anchor="middle" x="170.25" y="-50.55" font-family="Helvetica,sans-Serif" font-size="11.00">qpp_curr_i</text>
<polyline fill="none" stroke="#555555" points="203.75,-36.5 203.75,-72"/>
<text xml:space="preserve" text-anchor="middle" x="239.5" y="-50.55" font-family="Helvetica,sans-Serif" font-size="11.00">qpp_delta_i</text>
<polyline fill="none" stroke="#555555" points="275.25,-36.5 275.25,-72"/>
<text xml:space="preserve" text-anchor="middle" x="309.5" y="-50.55" font-family="Helvetica,sans-Serif" font-size="11.00">qpp_step_i</text>
</g>
<!-- QPP&#45;&gt;BUILD -->
<g id="edge14" class="edge">
<title>QPP&#45;&gt;BUILD</title>
<path fill="none" stroke="black" stroke-dasharray="1,5" d="M224.82,-72.43C272.11,-89.21 341.58,-113.86 388.83,-130.62"/>
</g>
<!-- QPP&#45;&gt;N2I -->
<g id="edge15" class="edge">
<title>QPP&#45;&gt;N2I</title>
<path fill="none" stroke="black" stroke-dasharray="1,5" d="M344.19,-40.71C376.22,-39.1 409.42,-38 440.62,-38 440.62,-38 440.62,-38 949.25,-38 1064.78,-38 1193.76,-90.65 1255.85,-119.54"/>
</g>
<!-- QPP&#45;&gt;I2N -->
<g id="edge16" class="edge">
<title>QPP&#45;&gt;I2N</title>
<path fill="none" stroke="black" stroke-dasharray="1,5" d="M230.18,-35.57C283.94,-19.92 366.89,0 440.62,0 440.62,0 440.62,0 1022.75,0 1107.63,0 1202.09,-35.11 1253.89,-57.6"/>
</g>
<!-- QPP&#45;&gt;F2N -->
<g id="edge17" class="edge">
<title>QPP&#45;&gt;F2N</title>
<path fill="none" stroke="black" stroke-dasharray="1,5" d="M181.06,-72.27C208.53,-130.51 303.51,-308 440.62,-308 440.62,-308 440.62,-308 1022.75,-308 1091.1,-308 1169.13,-306.06 1223.77,-304.39"/>
</g>
<!-- FETCH -->
<g id="node12" class="node">
<title>FETCH</title>
<path fill="#fff2cc" stroke="#555555" d="M551.5,-202C551.5,-202 918.25,-202 918.25,-202 924.25,-202 930.25,-208 930.25,-214 930.25,-214 930.25,-226 930.25,-226 930.25,-232 924.25,-238 918.25,-238 918.25,-238 551.5,-238 551.5,-238 545.5,-238 539.5,-232 539.5,-226 539.5,-226 539.5,-214 539.5,-214 539.5,-208 545.5,-202 551.5,-202"/>
<text xml:space="preserve" text-anchor="middle" x="596.25" y="-216.55" font-family="Helvetica,sans-Serif" font-size="11.00">SISO Fetch Pipeline</text>
<polyline fill="none" stroke="#555555" points="653,-202.5 653,-238"/>
<text xml:space="preserve" text-anchor="middle" x="721" y="-216.55" font-family="Helvetica,sans-Serif" font-size="11.00">siso_fetch_rd_pending_q</text>
<polyline fill="none" stroke="#555555" points="789,-202.5 789,-238"/>
<text xml:space="preserve" text-anchor="middle" x="859.62" y="-216.55" font-family="Helvetica,sans-Serif" font-size="11.00">siso_fetch_rsp_pending_q</text>
</g>
<!-- FETCH&#45;&gt;WAIT -->
<g id="edge18" class="edge">
<title>FETCH&#45;&gt;WAIT</title>
<path fill="none" stroke="black" stroke-dasharray="1,5" d="M930.61,-220C943.52,-220 955.77,-220 966.83,-220"/>
</g>
</g>
</svg>
